<svg xmlns="http://www.w3.org/2000/svg" width="151.875" height="161.875"><defs><clipPath id="d"><path d="M0 863.584h938.953V0H0v863.584z"/></clipPath><clipPath id="a"><path d="M646.377 577.584l-.5-73.667c0-33.137 26.864-60 60-60 33.138 0 60 26.863 60 60v73.667h-119.5z"/></clipPath><pattern patternTransform="matrix(.707 .707 -.707 .707 4180.43 7522.66)" patternUnits="userSpaceOnUse" width="12" height="12" id="b"><path d="M12-3H6v6h6v-6z" fill="#fff"/><g><path d="M10.5 0c0-.828-.672-1.5-1.5-1.5S7.5-.828 7.5 0 8.172 1.5 9 1.5 10.5.828 10.5 0" fill="#ff9b0b"/></g><path d="M6-3H0v6h6v-6z" fill="#fff"/><g><path d="M4.5 0c0-.828-.672-1.5-1.5-1.5S1.5-.828 1.5 0 2.172 1.5 3 1.5 4.5.828 4.5 0" fill="#ff9b0b"/></g><path d="M15 3H9v6h6V3z" fill="#fff"/><g><path d="M13.5 6c0-.828-.672-1.5-1.5-1.5s-1.5.672-1.5 1.5.672 1.5 1.5 1.5 1.5-.672 1.5-1.5" fill="#ff9b0b"/></g><path d="M9 3H3v6h6V3z" fill="#fff"/><g><path d="M7.5 6c0-.828-.672-1.5-1.5-1.5S4.5 5.172 4.5 6 5.172 7.5 6 7.5 7.5 6.828 7.5 6" fill="#ff9b0b"/></g><path d="M3 3h-6v6h6V3z" fill="#fff"/><g><path d="M1.5 6c0-.828-.672-1.5-1.5-1.5s-1.5.672-1.5 1.5.672 1.5 1.5 1.5S1.5 6.828 1.5 6" fill="#ff9b0b"/></g><path d="M12 9H6v6h6V9z" fill="#fff"/><g><path d="M10.5 12c0-.828-.672-1.5-1.5-1.5s-1.5.672-1.5 1.5.672 1.5 1.5 1.5 1.5-.672 1.5-1.5" fill="#ff9b0b"/></g><path d="M6 9H0v6h6V9z" fill="#fff"/><g><path d="M4.5 12c0-.828-.672-1.5-1.5-1.5s-1.5.672-1.5 1.5.672 1.5 1.5 1.5 1.5-.672 1.5-1.5" fill="#ff9b0b"/></g></pattern><pattern patternTransform="matrix(.707 .707 -.707 .707 4180.43 7522.66)" patternUnits="userSpaceOnUse" width="12" height="12" id="c"><path d="M12-3H6v6h6v-6z" fill="#fff"/><g><path d="M10.5 0c0-.828-.672-1.5-1.5-1.5S7.5-.828 7.5 0 8.172 1.5 9 1.5 10.5.828 10.5 0" fill="#ff9b0b"/></g><path d="M6-3H0v6h6v-6z" fill="#fff"/><g><path d="M4.5 0c0-.828-.672-1.5-1.5-1.5S1.5-.828 1.5 0 2.172 1.5 3 1.5 4.5.828 4.5 0" fill="#ff9b0b"/></g><path d="M15 3H9v6h6V3z" fill="#fff"/><g><path d="M13.5 6c0-.828-.672-1.5-1.5-1.5s-1.5.672-1.5 1.5.672 1.5 1.5 1.5 1.5-.672 1.5-1.5" fill="#ff9b0b"/></g><path d="M9 3H3v6h6V3z" fill="#fff"/><g><path d="M7.5 6c0-.828-.672-1.5-1.5-1.5S4.5 5.172 4.5 6 5.172 7.5 6 7.5 7.5 6.828 7.5 6" fill="#ff9b0b"/></g><path d="M3 3h-6v6h6V3z" fill="#fff"/><g><path d="M1.5 6c0-.828-.672-1.5-1.5-1.5s-1.5.672-1.5 1.5.672 1.5 1.5 1.5S1.5 6.828 1.5 6" fill="#ff9b0b"/></g><path d="M12 9H6v6h6V9z" fill="#fff"/><g><path d="M10.5 12c0-.828-.672-1.5-1.5-1.5s-1.5.672-1.5 1.5.672 1.5 1.5 1.5 1.5-.672 1.5-1.5" fill="#ff9b0b"/></g><path d="M6 9H0v6h6V9z" fill="#fff"/><g><path d="M4.5 12c0-.828-.672-1.5-1.5-1.5s-1.5.672-1.5 1.5.672 1.5 1.5 1.5 1.5-.672 1.5-1.5" fill="#ff9b0b"/></g></pattern></defs><g><g><g clip-path="url(#a)" transform="matrix(1.25 0 0 -1.25 -806.409 715.834)"><g><path d="M765.878 503.917c0-33.137-26.863-60-60-60s-60 26.863-60 60 26.863 60 60 60 60-26.863 60-60" fill="#fff"/></g><g><path d="M765.878 503.917c0-33.137-26.863-60-60-60s-60 26.863-60 60 26.863 60 60 60 60-26.863 60-60z" fill="none" stroke="#231f20" stroke-width="1.5"/></g><g><path d="M752.044 571.917h-94v-71.333h43.505v-62.667h7.23v62.667h43.264v71.333z" fill="#fff"/></g><g><path d="M752.044 571.917h-94v-71.333h43.505v-62.667h7.23v62.667h43.264v71.333z" fill="none" stroke="#231f20" stroke-width="1.5" stroke-linecap="round" stroke-linejoin="round"/></g><path d="M752.544 500.917h-94v15.333h94v-15.333z" fill="url(#b)"/><path d="M752.544 556.584h-94v15.333h94v-15.333z" fill="url(#c)"/><path d="M752.044 556.584h-94v15.333h94v-15.333z" fill="none" stroke="#231f20" stroke-width=".5"/><path d="M752.044 500.917h-94v15.333h94v-15.333z" fill="none" stroke="#231f20" stroke-width=".5"/><g><path d="M678.156 540.723c0 .792.146 2.02.146 2.02h-3.562v2.458h10.02v-2.457h-3.563s.145-1.228.145-2.02v-9.935h-3.186v9.935z" fill="#929297"/></g><g><path d="M694.837 537.494v.792c0 3.416-.792 4.707-2.79 4.727-1.856 0-2.792-1.333-2.792-4.498v-.792c0-3.5.874-4.75 2.832-4.75 1.833 0 2.75 1.334 2.75 4.52m-8.894.105v.75c0 5.082 2.812 7.123 6.166 7.123 3.435 0 6.08-1.998 6.08-7.06v-.75c0-5.082-2.832-7.123-6.186-7.123-3.436 0-6.06 1.98-6.06 7.06" fill="#929297"/></g><g><path d="M704.703 545.2h3.125v-9.872c0-.875-.125-2.103-.125-2.103h5.332v-2.437h-8.332V545.2z" fill="#929297"/></g><g><path d="M715.218 545.2h8.58v-2.436h-5.644s.125-.792.125-1.25v-.874c0-.5-.125-1.29-.125-1.29h4.437v-2.314h-4.437s.125-.833.125-1.354v-1.104c0-.54-.125-1.353-.125-1.353h5.77v-2.437h-8.706l-.002 14.413z" fill="#929297"/></g><g><path d="M729.274 540.723c0 .792.146 2.02.146 2.02h-3.562v2.458h10.02v-2.457h-3.563s.146-1.228.146-2.02v-9.935h-3.186v9.935z" fill="#929297"/></g><g><path d="M752.044 571.917h-94v-71.333h43.505v-62.667h7.23v62.667h43.264v71.333z" fill="none" stroke="#231f20" stroke-width="1.5" stroke-linecap="round" stroke-linejoin="round"/></g></g></g><g><g clip-path="url(#d)" transform="matrix(1.25 0 0 -1.25 -806.409 715.834)"><g><path d="M754.624 538.908c7.082-9.85 11.253-21.933 11.253-34.99 0-33.137-26.863-60-60-60s-60 26.863-60 60c0 11.373 3.164 22.007 8.66 31.07" fill="none" stroke="#231f20" stroke-width="1.5"/></g></g></g></g></svg>