<?xml version="1.0" encoding="UTF-8" standalone="no"?>
<!-- Created with Inkscape (http://www.inkscape.org/) -->

<svg
   xmlns:dc="http://purl.org/dc/elements/1.1/"
   xmlns:cc="http://creativecommons.org/ns#"
   xmlns:rdf="http://www.w3.org/1999/02/22-rdf-syntax-ns#"
   xmlns:svg="http://www.w3.org/2000/svg"
   xmlns="http://www.w3.org/2000/svg"
   version="1.1"
   width="151.875"
   height="161.87488"
   id="svg75609">
  <defs
     id="defs75611">
    <clipPath
       id="clipPath2466">
      <path
         d="m 0,863.584 938.953,0 L 938.953,0 0,0 0,863.584 z"
         id="path2468" />
    </clipPath>
    <clipPath
       id="clipPath2316">
      <path
         d="m 500.378,577.584 -0.5,-73.667 c 0,-33.137 26.862,-59.999 59.999,-59.999 l 0,0 c 33.137,0 60.001,26.862 60.001,59.999 l 0,0 0,73.667 -119.5,0 z"
         id="path2318" />
    </clipPath>
    <pattern
       id="pattern2336"
       height="12"
       width="12"
       y="0"
       x="0"
       patternUnits="userSpaceOnUse"
       patternTransform="matrix(0.707107,0.707107,-0.707107,0.707107,4186.54,7529.09)">
      <path
         id="path2338"
         style="fill:#ffffff;fill-opacity:1;fill-rule:nonzero;stroke:none"
         d="m 12,-3 -6,0 0,6 6,0 0,-6 z" />
      <g
         id="g2340"
         transform="translate(10.5,0)">
        <path
           id="path2342"
           style="fill:#e31f26;fill-opacity:1;fill-rule:nonzero;stroke:none"
           d="M 0,0 C 0,-0.828 -0.672,-1.5 -1.5,-1.5 -2.328,-1.5 -3,-0.828 -3,0 -3,0.828 -2.328,1.5 -1.5,1.5 -0.672,1.5 0,0.828 0,0" />
      </g>
      <path
         id="path2344"
         style="fill:#ffffff;fill-opacity:1;fill-rule:nonzero;stroke:none"
         d="M 6,-3 0,-3 0,3 6,3 6,-3 z" />
      <g
         id="g2346"
         transform="translate(4.5,0)">
        <path
           id="path2348"
           style="fill:#e31f26;fill-opacity:1;fill-rule:nonzero;stroke:none"
           d="M 0,0 C 0,-0.828 -0.672,-1.5 -1.5,-1.5 -2.328,-1.5 -3,-0.828 -3,0 -3,0.828 -2.328,1.5 -1.5,1.5 -0.672,1.5 0,0.828 0,0" />
      </g>
      <path
         id="path2350"
         style="fill:#ffffff;fill-opacity:1;fill-rule:nonzero;stroke:none"
         d="M 15,3 9,3 9,9 15,9 15,3 z" />
      <g
         id="g2352"
         transform="translate(13.5,6)">
        <path
           id="path2354"
           style="fill:#e31f26;fill-opacity:1;fill-rule:nonzero;stroke:none"
           d="M 0,0 C 0,-0.828 -0.672,-1.5 -1.5,-1.5 -2.328,-1.5 -3,-0.828 -3,0 -3,0.828 -2.328,1.5 -1.5,1.5 -0.672,1.5 0,0.828 0,0" />
      </g>
      <path
         id="path2356"
         style="fill:#ffffff;fill-opacity:1;fill-rule:nonzero;stroke:none"
         d="M 9,3 3,3 3,9 9,9 9,3 z" />
      <g
         id="g2358"
         transform="translate(7.5,6)">
        <path
           id="path2360"
           style="fill:#e31f26;fill-opacity:1;fill-rule:nonzero;stroke:none"
           d="M 0,0 C 0,-0.828 -0.672,-1.5 -1.5,-1.5 -2.328,-1.5 -3,-0.828 -3,0 -3,0.828 -2.328,1.5 -1.5,1.5 -0.672,1.5 0,0.828 0,0" />
      </g>
      <path
         id="path2362"
         style="fill:#ffffff;fill-opacity:1;fill-rule:nonzero;stroke:none"
         d="M 3,3 -3,3 -3,9 3,9 3,3 z" />
      <g
         id="g2364"
         transform="translate(1.5,6)">
        <path
           id="path2366"
           style="fill:#e31f26;fill-opacity:1;fill-rule:nonzero;stroke:none"
           d="M 0,0 C 0,-0.828 -0.672,-1.5 -1.5,-1.5 -2.328,-1.5 -3,-0.828 -3,0 -3,0.828 -2.328,1.5 -1.5,1.5 -0.672,1.5 0,0.828 0,0" />
      </g>
      <path
         id="path2368"
         style="fill:#ffffff;fill-opacity:1;fill-rule:nonzero;stroke:none"
         d="m 12,9 -6,0 0,6 6,0 0,-6 z" />
      <g
         id="g2370"
         transform="translate(10.5,12)">
        <path
           id="path2372"
           style="fill:#e31f26;fill-opacity:1;fill-rule:nonzero;stroke:none"
           d="M 0,0 C 0,-0.828 -0.672,-1.5 -1.5,-1.5 -2.328,-1.5 -3,-0.828 -3,0 -3,0.828 -2.328,1.5 -1.5,1.5 -0.672,1.5 0,0.828 0,0" />
      </g>
      <path
         id="path2374"
         style="fill:#ffffff;fill-opacity:1;fill-rule:nonzero;stroke:none"
         d="M 6,9 0,9 0,15 6,15 6,9 z" />
      <g
         id="g2376"
         transform="translate(4.5,12)">
        <path
           id="path2378"
           style="fill:#e31f26;fill-opacity:1;fill-rule:nonzero;stroke:none"
           d="M 0,0 C 0,-0.828 -0.672,-1.5 -1.5,-1.5 -2.328,-1.5 -3,-0.828 -3,0 -3,0.828 -2.328,1.5 -1.5,1.5 -0.672,1.5 0,0.828 0,0" />
      </g>
    </pattern>
    <pattern
       id="pattern2382"
       height="12"
       width="12"
       y="0"
       x="0"
       patternUnits="userSpaceOnUse"
       patternTransform="matrix(0.707107,0.707107,-0.707107,0.707107,4186.54,7529.09)">
      <path
         id="path2384"
         style="fill:#ffffff;fill-opacity:1;fill-rule:nonzero;stroke:none"
         d="m 12,-3 -6,0 0,6 6,0 0,-6 z" />
      <g
         id="g2386"
         transform="translate(10.5,0)">
        <path
           id="path2388"
           style="fill:#e31f26;fill-opacity:1;fill-rule:nonzero;stroke:none"
           d="M 0,0 C 0,-0.828 -0.672,-1.5 -1.5,-1.5 -2.328,-1.5 -3,-0.828 -3,0 -3,0.828 -2.328,1.5 -1.5,1.5 -0.672,1.5 0,0.828 0,0" />
      </g>
      <path
         id="path2390"
         style="fill:#ffffff;fill-opacity:1;fill-rule:nonzero;stroke:none"
         d="M 6,-3 0,-3 0,3 6,3 6,-3 z" />
      <g
         id="g2392"
         transform="translate(4.5,0)">
        <path
           id="path2394"
           style="fill:#e31f26;fill-opacity:1;fill-rule:nonzero;stroke:none"
           d="M 0,0 C 0,-0.828 -0.672,-1.5 -1.5,-1.5 -2.328,-1.5 -3,-0.828 -3,0 -3,0.828 -2.328,1.5 -1.5,1.5 -0.672,1.5 0,0.828 0,0" />
      </g>
      <path
         id="path2396"
         style="fill:#ffffff;fill-opacity:1;fill-rule:nonzero;stroke:none"
         d="M 15,3 9,3 9,9 15,9 15,3 z" />
      <g
         id="g2398"
         transform="translate(13.5,6)">
        <path
           id="path2400"
           style="fill:#e31f26;fill-opacity:1;fill-rule:nonzero;stroke:none"
           d="M 0,0 C 0,-0.828 -0.672,-1.5 -1.5,-1.5 -2.328,-1.5 -3,-0.828 -3,0 -3,0.828 -2.328,1.5 -1.5,1.5 -0.672,1.5 0,0.828 0,0" />
      </g>
      <path
         id="path2402"
         style="fill:#ffffff;fill-opacity:1;fill-rule:nonzero;stroke:none"
         d="M 9,3 3,3 3,9 9,9 9,3 z" />
      <g
         id="g2404"
         transform="translate(7.5,6)">
        <path
           id="path2406"
           style="fill:#e31f26;fill-opacity:1;fill-rule:nonzero;stroke:none"
           d="M 0,0 C 0,-0.828 -0.672,-1.5 -1.5,-1.5 -2.328,-1.5 -3,-0.828 -3,0 -3,0.828 -2.328,1.5 -1.5,1.5 -0.672,1.5 0,0.828 0,0" />
      </g>
      <path
         id="path2408"
         style="fill:#ffffff;fill-opacity:1;fill-rule:nonzero;stroke:none"
         d="M 3,3 -3,3 -3,9 3,9 3,3 z" />
      <g
         id="g2410"
         transform="translate(1.5,6)">
        <path
           id="path2412"
           style="fill:#e31f26;fill-opacity:1;fill-rule:nonzero;stroke:none"
           d="M 0,0 C 0,-0.828 -0.672,-1.5 -1.5,-1.5 -2.328,-1.5 -3,-0.828 -3,0 -3,0.828 -2.328,1.5 -1.5,1.5 -0.672,1.5 0,0.828 0,0" />
      </g>
      <path
         id="path2414"
         style="fill:#ffffff;fill-opacity:1;fill-rule:nonzero;stroke:none"
         d="m 12,9 -6,0 0,6 6,0 0,-6 z" />
      <g
         id="g2416"
         transform="translate(10.5,12)">
        <path
           id="path2418"
           style="fill:#e31f26;fill-opacity:1;fill-rule:nonzero;stroke:none"
           d="M 0,0 C 0,-0.828 -0.672,-1.5 -1.5,-1.5 -2.328,-1.5 -3,-0.828 -3,0 -3,0.828 -2.328,1.5 -1.5,1.5 -0.672,1.5 0,0.828 0,0" />
      </g>
      <path
         id="path2420"
         style="fill:#ffffff;fill-opacity:1;fill-rule:nonzero;stroke:none"
         d="M 6,9 0,9 0,15 6,15 6,9 z" />
      <g
         id="g2422"
         transform="translate(4.5,12)">
        <path
           id="path2424"
           style="fill:#e31f26;fill-opacity:1;fill-rule:nonzero;stroke:none"
           d="M 0,0 C 0,-0.828 -0.672,-1.5 -1.5,-1.5 -2.328,-1.5 -3,-0.828 -3,0 -3,0.828 -2.328,1.5 -1.5,1.5 -0.672,1.5 0,0.828 0,0" />
      </g>
    </pattern>
  </defs>
  <metadata
     id="metadata75614">
    <rdf:RDF>
      <cc:Work
         rdf:about="">
        <dc:format>image/svg+xml</dc:format>
        <dc:type
           rdf:resource="http://purl.org/dc/dcmitype/StillImage" />
        <dc:title></dc:title>
      </cc:Work>
    </rdf:RDF>
  </metadata>
  <g
     transform="translate(84.50893,-737.13905)"
     id="layer1">
    <path
       d="m 48.928571,826.82703 -117.5,0 0,-19.16625 117.5,0 0,19.16625 z"
       id="path2154"
       style="fill:none;stroke:#231f20;stroke-width:0.625;stroke-linecap:butt;stroke-linejoin:miter;stroke-miterlimit:4;stroke-opacity:1;stroke-dasharray:none" />
    <g
       transform="matrix(1.25,0,0,-1.25,-708.62643,1452.9733)"
       id="g2312">
      <g
         clip-path="url(#clipPath2316)"
         id="g2314">
        <g
           transform="translate(619.8777,503.9174)"
           id="g2320">
          <path
             d="m 0,0 c 0,-33.137 -26.863,-60 -60,-60 -33.137,0 -60,26.863 -60,60 0,33.137 26.863,60 60,60 C -26.863,60 0,33.137 0,0"
             id="path2322"
             style="fill:#ffffff;fill-opacity:1;fill-rule:nonzero;stroke:none" />
        </g>
        <g
           transform="translate(619.8777,503.9174)"
           id="g2324">
          <path
             d="m 0,0 c 0,-33.137 -26.863,-60 -60,-60 -33.137,0 -60,26.863 -60,60 0,33.137 26.863,60 60,60 C -26.863,60 0,33.137 0,0 z"
             id="path2326"
             style="fill:none;stroke:#231f20;stroke-width:1.5;stroke-linecap:butt;stroke-linejoin:miter;stroke-miterlimit:4;stroke-opacity:1;stroke-dasharray:none" />
        </g>
        <g
           transform="translate(606.0444,571.9174)"
           id="g2328">
          <path
             d="m 0,0 -94,0 0,-71.333 43.505,0 0,-62.667 7.232,0 0,62.667 43.263,0 L 0,0 z"
             id="path2330"
             style="fill:#ffffff;fill-opacity:1;fill-rule:nonzero;stroke:none" />
        </g>
        <g
           transform="translate(606.0444,571.9174)"
           id="g2332">
          <path
             d="m 0,0 -94,0 0,-71.333 43.505,0 0,-62.667 7.232,0 0,62.667 43.263,0 L 0,0 z"
             id="path2334"
             style="fill:none;stroke:#231f20;stroke-width:1.5;stroke-linecap:round;stroke-linejoin:round;stroke-miterlimit:4;stroke-opacity:1;stroke-dasharray:none" />
        </g>
        <path
           d="m 606.044,500.917 -94,0 0,15.333 94,0 0,-15.333 z"
           id="path2380"
           style="fill:url(#pattern2336);fill-opacity:1;fill-rule:nonzero;stroke:none" />
        <path
           d="m 606.044,556.584 -94,0 0,15.333 94,0 0,-15.333 z"
           id="path2426"
           style="fill:url(#pattern2382);fill-opacity:1;fill-rule:nonzero;stroke:none" />
        <path
           d="m 606.044,556.584 -94,0 0,15.333 94,0 0,-15.333 z"
           id="path2428"
           style="fill:none;stroke:#231f20;stroke-width:0.5;stroke-linecap:butt;stroke-linejoin:miter;stroke-miterlimit:4;stroke-opacity:1;stroke-dasharray:none" />
        <g
           transform="translate(517.5798,545.2008)"
           id="g2430">
          <path
             d="m 0,0 8.436,0 0,-2.437 -5.478,0 c 0,0 0.125,-0.874 0.125,-1.437 l 0,-1.124 c 0,-0.563 -0.125,-1.438 -0.125,-1.438 l 4.166,0 0,-2.333 -4.124,0 c 0,0 0.125,-1.291 0.125,-1.77 l 0,-3.874 -3.125,0 L 0,0 z"
             id="path2432"
             style="fill:#929297;fill-opacity:1;fill-rule:nonzero;stroke:none" />
        </g>
        <g
           transform="translate(536.4055,537.4943)"
           id="g2434">
          <path
             d="m 0,0 0,0.792 c 0,3.416 -0.792,4.707 -2.791,4.727 -1.854,0 -2.791,-1.333 -2.791,-4.498 l 0,-0.792 c 0,-3.499 0.874,-4.749 2.832,-4.749 C -0.917,-4.52 0,-3.187 0,0 m -8.894,0.104 0,0.75 c 0,5.082 2.812,7.123 6.165,7.123 3.437,0 6.082,-1.999 6.082,-7.06 l 0,-0.75 c 0,-5.083 -2.833,-7.124 -6.186,-7.124 -3.437,0 -6.061,1.979 -6.061,7.061"
             id="path2436"
             style="fill:#929297;fill-opacity:1;fill-rule:nonzero;stroke:none" />
        </g>
        <g
           transform="translate(546.7742,538.3278)"
           id="g2438">
          <path
             d="m 0,0 c 1.375,0 2.041,0.937 2.041,2.395 0,1.395 -0.583,2.187 -2.062,2.187 l -1.728,0 c 0,0 0.125,-0.917 0.125,-1.499 l 0,-1.563 C -1.624,0.937 -1.749,0 -1.749,0 L 0,0 z m -4.686,6.873 4.894,0 c 3.187,0 4.916,-1.417 4.916,-4.332 0,-1.979 -0.896,-2.895 -2.499,-3.478 l 0,-0.167 c 0,0 0.687,-0.708 1.333,-2.062 l 2.062,-4.374 -3.229,0 -2.52,5.519 -1.958,0 c 0,0 0.125,-1.208 0.125,-1.978 l 0,-3.541 -3.124,0 0,14.413 z"
             id="path2440"
             style="fill:#929297;fill-opacity:1;fill-rule:nonzero;stroke:none" />
        </g>
        <g
           transform="translate(558.3074,531.3707)"
           id="g2442">
          <path
             d="M 0,0 0,2.417 C 1.062,1.979 2.312,1.708 3.624,1.708 c 1.583,0 2.333,0.542 2.333,1.646 0,1 -0.625,1.436 -1.854,1.895 L 3.041,5.665 c -2.02,0.813 -3.124,1.834 -3.124,4.166 0,2.625 1.541,4.291 4.957,4.291 1.562,0 2.708,-0.417 3.415,-0.771 l 0,-2.457 c -0.874,0.333 -1.915,0.687 -3.248,0.687 -1.417,0 -2.187,-0.521 -2.187,-1.5 0,-0.916 0.458,-1.333 1.666,-1.77 L 5.624,7.894 C 7.623,7.165 9.102,6.374 9.102,3.625 9.102,0.562 7.332,-0.833 3.937,-0.833 2.541,-0.833 0.979,-0.521 0,0"
             id="path2444"
             style="fill:#929297;fill-opacity:1;fill-rule:nonzero;stroke:none" />
        </g>
        <g
           transform="translate(572.4885,535.9737)"
           id="g2446">
          <path
             d="M 0,0 3.395,0 C 3.208,0.479 3.02,1.042 2.895,1.521 L 2.437,3.208 C 2.083,4.603 1.833,6.707 1.833,6.707 l -0.229,0 C 1.604,6.707 1.396,4.603 1,3.208 L 0.521,1.521 C 0.396,1.042 0.187,0.479 0,0 m 0.125,9.227 3.562,0 4.186,-14.413 -3.249,0 -0.437,1.583 c -0.146,0.458 -0.23,1.042 -0.292,1.541 l -4.416,0 c -0.083,-0.499 -0.166,-1.062 -0.291,-1.52 l -0.438,-1.604 -2.853,0 4.228,14.413 z"
             id="path2448"
             style="fill:#929297;fill-opacity:1;fill-rule:nonzero;stroke:none" />
        </g>
        <g
           transform="translate(582.1072,545.2008)"
           id="g2450">
          <path
             d="m 0,0 3.125,0 0,-9.873 C 3.125,-10.748 3,-11.976 3,-11.976 l 5.332,0 0,-2.437 -8.332,0 L 0,0 z"
             id="path2452"
             style="fill:#929297;fill-opacity:1;fill-rule:nonzero;stroke:none" />
        </g>
        <g
           transform="translate(592.6223,545.2008)"
           id="g2454">
          <path
             d="m 0,0 8.582,0 0,-2.437 -5.645,0 c 0,0 0.125,-0.792 0.125,-1.249 l 0,-0.875 c 0,-0.5 -0.125,-1.291 -0.125,-1.291 l 4.437,0 0,-2.313 -4.437,0 c 0,0 0.125,-0.833 0.125,-1.354 l 0,-1.104 c 0,-0.541 -0.125,-1.353 -0.125,-1.353 l 5.77,0 0,-2.437 -8.707,0 L 0,0 z"
             id="path2456"
             style="fill:#929297;fill-opacity:1;fill-rule:nonzero;stroke:none" />
        </g>
        <g
           transform="translate(606.0444,571.9174)"
           id="g2458">
          <path
             d="m 0,0 -94,0 0,-71.333 43.505,0 0,-62.667 7.232,0 0,62.667 43.263,0 L 0,0 z"
             id="path2460"
             style="fill:none;stroke:#231f20;stroke-width:1.5;stroke-linecap:round;stroke-linejoin:round;stroke-miterlimit:4;stroke-opacity:1;stroke-dasharray:none" />
        </g>
      </g>
    </g>
    <g
       transform="matrix(1.25,0,0,-1.25,-708.62643,1452.9733)"
       id="g2462">
      <g
         clip-path="url(#clipPath2466)"
         id="g2464">
        <g
           transform="translate(608.791,538.9075)"
           id="g2470">
          <path
             d="m 0,0 c 7.082,-9.849 11.253,-21.933 11.253,-34.99 0,-33.137 -26.862,-60 -60,-60 -33.137,0 -60,26.863 -60,60 0,11.373 3.165,22.007 8.661,31.069"
             id="path2472"
             style="fill:none;stroke:#231f20;stroke-width:1.5;stroke-linecap:butt;stroke-linejoin:miter;stroke-miterlimit:4;stroke-opacity:1;stroke-dasharray:none" />
        </g>
      </g>
    </g>
    <path
       d="m 48.708571,826.82703 -117.5,0 0,-19.16625 117.5,0 0,19.16625 z"
       id="path5190"
       style="fill:none;stroke:#231f20;stroke-width:0.625;stroke-linecap:butt;stroke-linejoin:miter;stroke-miterlimit:4;stroke-opacity:1;stroke-dasharray:none" />
  </g>
</svg>
