<?xml version="1.0" encoding="utf-8"?>
<!-- Generator: Adobe Illustrator 18.0.0, SVG Export Plug-In . SVG Version: 6.00 Build 0)  -->
<!DOCTYPE svg PUBLIC "-//W3C//DTD SVG 1.1//EN" "http://www.w3.org/Graphics/SVG/1.1/DTD/svg11.dtd">
<svg version="1.1" id="Layer_1" xmlns="http://www.w3.org/2000/svg" xmlns:xlink="http://www.w3.org/1999/xlink" x="0px" y="0px"
	 viewBox="0 0 160 160" enable-background="new 0 0 160 160" xml:space="preserve">
<g>
	<rect x="32.083" y="83.667" fill="none" stroke="#231F20" stroke-width="0.5" width="94" height="15.333"/>
	<g>
		<defs>
			<path id="SVGID_1_" d="M19.917,96c0,33.137,26.863,60,60,60s60-26.863,60-60V22.333h-119.5L19.917,96z"/>
		</defs>
		<clipPath id="SVGID_2_">
			<use xlink:href="#SVGID_1_"  overflow="visible"/>
		</clipPath>
		<circle clip-path="url(#SVGID_2_)" fill="#FFFFFF" stroke="#231F20" stroke-width="2" cx="79.917" cy="96" r="60"/>
		<polygon clip-path="url(#SVGID_2_)" fill="#FFFFFF" stroke="#231F20" stroke-linecap="round" stroke-linejoin="round" points="
			126.083,28 32.083,28 32.083,99.333 75.588,99.333 75.588,162 82.82,162 82.82,99.333 126.083,99.333 		"/>
		<g clip-path="url(#SVGID_2_)">
			<defs>
				<rect id="SVGID_3_" x="32.083" y="83.667" width="94" height="15.333"/>
			</defs>
			<clipPath id="SVGID_4_">
				<use xlink:href="#SVGID_3_"  overflow="visible"/>
			</clipPath>
			<g clip-path="url(#SVGID_4_)">
				<circle fill="#E31F26" cx="34.981" cy="86.521" r="0.925"/>
				<circle fill="#E31F26" cx="37.425" cy="84.077" r="0.925"/>
				<circle fill="#E31F26" cx="39.869" cy="86.521" r="0.925"/>
				<circle fill="#E31F26" cx="42.313" cy="84.077" r="0.925"/>
				<circle fill="#E31F26" cx="44.757" cy="86.521" r="0.925"/>
				<circle fill="#E31F26" cx="47.201" cy="84.077" r="0.925"/>
				<circle fill="#E31F26" cx="49.645" cy="86.521" r="0.925"/>
				<circle fill="#E31F26" cx="52.089" cy="84.077" r="0.925"/>
				<circle fill="#E31F26" cx="54.533" cy="86.521" r="0.925"/>
				<circle fill="#E31F26" cx="56.977" cy="84.077" r="0.925"/>
				<circle fill="#E31F26" cx="59.421" cy="86.521" r="0.925"/>
				<circle fill="#E31F26" cx="61.865" cy="84.077" r="0.925"/>
				<circle fill="#E31F26" cx="64.309" cy="86.521" r="0.925"/>
				<circle fill="#E31F26" cx="66.753" cy="84.077" r="0.925"/>
				<circle fill="#E31F26" cx="69.197" cy="86.521" r="0.925"/>
				<circle fill="#E31F26" cx="71.641" cy="84.077" r="0.925"/>
				<circle fill="#E31F26" cx="74.085" cy="86.521" r="0.925"/>
				<circle fill="#E31F26" cx="76.529" cy="84.077" r="0.925"/>
				<circle fill="#E31F26" cx="78.973" cy="86.521" r="0.925"/>
				<circle fill="#E31F26" cx="81.417" cy="84.077" r="0.925"/>
				<circle fill="#E31F26" cx="83.861" cy="86.521" r="0.925"/>
				<circle fill="#E31F26" cx="86.305" cy="84.077" r="0.925"/>
				<circle fill="#E31F26" cx="88.749" cy="86.521" r="0.925"/>
				<circle fill="#E31F26" cx="91.192" cy="84.077" r="0.925"/>
				<circle fill="#E31F26" cx="93.636" cy="86.521" r="0.925"/>
				<circle fill="#E31F26" cx="96.08" cy="84.077" r="0.925"/>
				<circle fill="#E31F26" cx="98.524" cy="86.521" r="0.925"/>
				<circle fill="#E31F26" cx="100.968" cy="84.077" r="0.925"/>
				<circle fill="#E31F26" cx="103.412" cy="86.521" r="0.925"/>
				<circle fill="#E31F26" cx="105.856" cy="84.077" r="0.925"/>
				<circle fill="#E31F26" cx="108.3" cy="86.521" r="0.925"/>
				<circle fill="#E31F26" cx="110.744" cy="84.077" r="0.925"/>
				<circle fill="#E31F26" cx="113.188" cy="86.521" r="0.925"/>
				<circle fill="#E31F26" cx="115.632" cy="84.077" r="0.925"/>
				<circle fill="#E31F26" cx="118.076" cy="86.521" r="0.925"/>
				<circle fill="#E31F26" cx="120.52" cy="84.077" r="0.925"/>
				<circle fill="#E31F26" cx="122.964" cy="86.521" r="0.925"/>
				<circle fill="#E31F26" cx="125.408" cy="84.077" r="0.925"/>
				<circle fill="#E31F26" cx="30.093" cy="86.521" r="0.925"/>
				<circle fill="#E31F26" cx="32.537" cy="84.077" r="0.925"/>
				<circle fill="#E31F26" cx="34.981" cy="91.409" r="0.925"/>
				<circle fill="#E31F26" cx="37.425" cy="88.965" r="0.925"/>
				<circle fill="#E31F26" cx="39.869" cy="91.409" r="0.925"/>
				<circle fill="#E31F26" cx="42.313" cy="88.965" r="0.925"/>
				<circle fill="#E31F26" cx="44.757" cy="91.409" r="0.925"/>
				<circle fill="#E31F26" cx="47.201" cy="88.965" r="0.925"/>
				<circle fill="#E31F26" cx="49.645" cy="91.409" r="0.925"/>
				<circle fill="#E31F26" cx="52.089" cy="88.965" r="0.925"/>
				<circle fill="#E31F26" cx="54.533" cy="91.409" r="0.925"/>
				<circle fill="#E31F26" cx="56.977" cy="88.965" r="0.925"/>
				<circle fill="#E31F26" cx="59.421" cy="91.409" r="0.925"/>
				<circle fill="#E31F26" cx="61.865" cy="88.965" r="0.925"/>
				<circle fill="#E31F26" cx="64.309" cy="91.409" r="0.925"/>
				<circle fill="#E31F26" cx="66.753" cy="88.965" r="0.925"/>
				<circle fill="#E31F26" cx="69.197" cy="91.409" r="0.925"/>
				<circle fill="#E31F26" cx="71.641" cy="88.965" r="0.925"/>
				<circle fill="#E31F26" cx="74.085" cy="91.409" r="0.925"/>
				<circle fill="#E31F26" cx="76.529" cy="88.965" r="0.925"/>
				<circle fill="#E31F26" cx="78.973" cy="91.409" r="0.925"/>
				<circle fill="#E31F26" cx="81.417" cy="88.965" r="0.925"/>
				<circle fill="#E31F26" cx="83.861" cy="91.409" r="0.925"/>
				<circle fill="#E31F26" cx="86.305" cy="88.965" r="0.925"/>
				<circle fill="#E31F26" cx="88.749" cy="91.409" r="0.925"/>
				<circle fill="#E31F26" cx="91.192" cy="88.965" r="0.925"/>
				<circle fill="#E31F26" cx="93.636" cy="91.409" r="0.925"/>
				<circle fill="#E31F26" cx="96.08" cy="88.965" r="0.925"/>
				<circle fill="#E31F26" cx="98.524" cy="91.409" r="0.925"/>
				<circle fill="#E31F26" cx="100.968" cy="88.965" r="0.925"/>
				<circle fill="#E31F26" cx="103.412" cy="91.409" r="0.925"/>
				<circle fill="#E31F26" cx="105.856" cy="88.965" r="0.925"/>
				<circle fill="#E31F26" cx="108.3" cy="91.409" r="0.925"/>
				<circle fill="#E31F26" cx="110.744" cy="88.965" r="0.925"/>
				<circle fill="#E31F26" cx="113.188" cy="91.409" r="0.925"/>
				<circle fill="#E31F26" cx="115.632" cy="88.965" r="0.925"/>
				<circle fill="#E31F26" cx="118.076" cy="91.409" r="0.925"/>
				<circle fill="#E31F26" cx="120.52" cy="88.965" r="0.925"/>
				<circle fill="#E31F26" cx="122.964" cy="91.409" r="0.925"/>
				<circle fill="#E31F26" cx="125.408" cy="88.965" r="0.925"/>
				<circle fill="#E31F26" cx="30.093" cy="91.409" r="0.925"/>
				<circle fill="#E31F26" cx="32.537" cy="88.965" r="0.925"/>
				<circle fill="#E31F26" cx="34.981" cy="96.297" r="0.925"/>
				<circle fill="#E31F26" cx="37.425" cy="93.853" r="0.925"/>
				<circle fill="#E31F26" cx="39.869" cy="96.297" r="0.925"/>
				<circle fill="#E31F26" cx="42.313" cy="93.853" r="0.925"/>
				<circle fill="#E31F26" cx="44.757" cy="96.297" r="0.925"/>
				<circle fill="#E31F26" cx="47.201" cy="93.853" r="0.925"/>
				<circle fill="#E31F26" cx="49.645" cy="96.297" r="0.925"/>
				<circle fill="#E31F26" cx="52.089" cy="93.853" r="0.925"/>
				<circle fill="#E31F26" cx="54.533" cy="96.297" r="0.925"/>
				<circle fill="#E31F26" cx="56.977" cy="93.853" r="0.925"/>
				<circle fill="#E31F26" cx="59.421" cy="96.297" r="0.925"/>
				<circle fill="#E31F26" cx="61.865" cy="93.853" r="0.925"/>
				<circle fill="#E31F26" cx="64.309" cy="96.297" r="0.925"/>
				<circle fill="#E31F26" cx="66.753" cy="93.853" r="0.925"/>
				<circle fill="#E31F26" cx="69.197" cy="96.297" r="0.925"/>
				<circle fill="#E31F26" cx="71.641" cy="93.853" r="0.925"/>
				<circle fill="#E31F26" cx="74.085" cy="96.297" r="0.925"/>
				<circle fill="#E31F26" cx="76.529" cy="93.853" r="0.925"/>
				<circle fill="#E31F26" cx="78.973" cy="96.297" r="0.925"/>
				<circle fill="#E31F26" cx="81.417" cy="93.853" r="0.925"/>
				<circle fill="#E31F26" cx="83.861" cy="96.297" r="0.925"/>
				<circle fill="#E31F26" cx="86.305" cy="93.853" r="0.925"/>
				<circle fill="#E31F26" cx="88.749" cy="96.297" r="0.925"/>
				<circle fill="#E31F26" cx="91.192" cy="93.853" r="0.925"/>
				<circle fill="#E31F26" cx="93.636" cy="96.297" r="0.925"/>
				<circle fill="#E31F26" cx="96.08" cy="93.853" r="0.925"/>
				<circle fill="#E31F26" cx="98.524" cy="96.297" r="0.925"/>
				<circle fill="#E31F26" cx="100.968" cy="93.853" r="0.925"/>
				<circle fill="#E31F26" cx="103.412" cy="96.297" r="0.925"/>
				<circle fill="#E31F26" cx="105.856" cy="93.853" r="0.925"/>
				<circle fill="#E31F26" cx="108.3" cy="96.297" r="0.925"/>
				<circle fill="#E31F26" cx="110.744" cy="93.853" r="0.925"/>
				<circle fill="#E31F26" cx="113.188" cy="96.297" r="0.925"/>
				<circle fill="#E31F26" cx="115.632" cy="93.853" r="0.925"/>
				<circle fill="#E31F26" cx="118.076" cy="96.297" r="0.925"/>
				<circle fill="#E31F26" cx="120.52" cy="93.853" r="0.925"/>
				<circle fill="#E31F26" cx="122.964" cy="96.297" r="0.925"/>
				<circle fill="#E31F26" cx="125.408" cy="93.853" r="0.925"/>
				<circle fill="#E31F26" cx="30.093" cy="96.297" r="0.925"/>
				<circle fill="#E31F26" cx="32.537" cy="93.853" r="0.925"/>
				<circle fill="#E31F26" cx="34.981" cy="101.185" r="0.925"/>
				<circle fill="#E31F26" cx="37.425" cy="98.741" r="0.925"/>
				<circle fill="#E31F26" cx="39.869" cy="101.185" r="0.925"/>
				<circle fill="#E31F26" cx="42.313" cy="98.741" r="0.925"/>
				<circle fill="#E31F26" cx="44.757" cy="101.185" r="0.925"/>
				<circle fill="#E31F26" cx="47.201" cy="98.741" r="0.925"/>
				<circle fill="#E31F26" cx="49.645" cy="101.185" r="0.925"/>
				<circle fill="#E31F26" cx="52.089" cy="98.741" r="0.925"/>
				<circle fill="#E31F26" cx="54.533" cy="101.185" r="0.925"/>
				<circle fill="#E31F26" cx="56.977" cy="98.741" r="0.925"/>
				<circle fill="#E31F26" cx="59.421" cy="101.185" r="0.925"/>
				<circle fill="#E31F26" cx="61.865" cy="98.741" r="0.925"/>
				<circle fill="#E31F26" cx="64.309" cy="101.185" r="0.925"/>
				<circle fill="#E31F26" cx="66.753" cy="98.741" r="0.925"/>
				<circle fill="#E31F26" cx="69.197" cy="101.185" r="0.925"/>
				<circle fill="#E31F26" cx="71.641" cy="98.741" r="0.925"/>
				<circle fill="#E31F26" cx="74.085" cy="101.185" r="0.925"/>
				<circle fill="#E31F26" cx="76.529" cy="98.741" r="0.925"/>
				<circle fill="#E31F26" cx="78.973" cy="101.185" r="0.925"/>
				<circle fill="#E31F26" cx="81.417" cy="98.741" r="0.925"/>
				<circle fill="#E31F26" cx="83.861" cy="101.185" r="0.925"/>
				<circle fill="#E31F26" cx="86.305" cy="98.741" r="0.925"/>
				<circle fill="#E31F26" cx="88.749" cy="101.185" r="0.925"/>
				<circle fill="#E31F26" cx="91.192" cy="98.741" r="0.925"/>
				<circle fill="#E31F26" cx="93.636" cy="101.185" r="0.925"/>
				<circle fill="#E31F26" cx="96.08" cy="98.741" r="0.925"/>
				<circle fill="#E31F26" cx="98.524" cy="101.185" r="0.925"/>
				<circle fill="#E31F26" cx="100.968" cy="98.741" r="0.925"/>
				<circle fill="#E31F26" cx="103.412" cy="101.185" r="0.925"/>
				<circle fill="#E31F26" cx="105.856" cy="98.741" r="0.925"/>
				<circle fill="#E31F26" cx="108.3" cy="101.185" r="0.925"/>
				<circle fill="#E31F26" cx="110.744" cy="98.741" r="0.925"/>
				<circle fill="#E31F26" cx="113.188" cy="101.185" r="0.925"/>
				<circle fill="#E31F26" cx="115.632" cy="98.741" r="0.925"/>
				<circle fill="#E31F26" cx="118.076" cy="101.185" r="0.925"/>
				<circle fill="#E31F26" cx="120.52" cy="98.741" r="0.925"/>
				<circle fill="#E31F26" cx="122.964" cy="101.185" r="0.925"/>
				<circle fill="#E31F26" cx="125.408" cy="98.741" r="0.925"/>
				<circle fill="#E31F26" cx="30.093" cy="101.185" r="0.925"/>
				<circle fill="#E31F26" cx="32.537" cy="98.741" r="0.925"/>
			</g>
		</g>
		<g clip-path="url(#SVGID_2_)">
			<defs>
				<rect id="SVGID_5_" x="32.083" y="28" width="94" height="15.333"/>
			</defs>
			<clipPath id="SVGID_6_">
				<use xlink:href="#SVGID_5_"  overflow="visible"/>
			</clipPath>
			<g clip-path="url(#SVGID_6_)">
				<circle fill="#E31F26" cx="34.981" cy="30.855" r="0.925"/>
				<circle fill="#E31F26" cx="37.425" cy="28.411" r="0.925"/>
				<circle fill="#E31F26" cx="39.869" cy="30.855" r="0.925"/>
				<circle fill="#E31F26" cx="42.313" cy="28.411" r="0.925"/>
				<circle fill="#E31F26" cx="44.757" cy="30.855" r="0.925"/>
				<circle fill="#E31F26" cx="47.201" cy="28.411" r="0.925"/>
				<circle fill="#E31F26" cx="49.645" cy="30.855" r="0.925"/>
				<circle fill="#E31F26" cx="52.089" cy="28.411" r="0.925"/>
				<circle fill="#E31F26" cx="54.533" cy="30.855" r="0.925"/>
				<circle fill="#E31F26" cx="56.977" cy="28.411" r="0.925"/>
				<circle fill="#E31F26" cx="59.421" cy="30.855" r="0.925"/>
				<circle fill="#E31F26" cx="61.865" cy="28.411" r="0.925"/>
				<circle fill="#E31F26" cx="64.309" cy="30.855" r="0.925"/>
				<circle fill="#E31F26" cx="66.753" cy="28.411" r="0.925"/>
				<circle fill="#E31F26" cx="69.197" cy="30.855" r="0.925"/>
				<circle fill="#E31F26" cx="71.641" cy="28.411" r="0.925"/>
				<circle fill="#E31F26" cx="74.085" cy="30.855" r="0.925"/>
				<circle fill="#E31F26" cx="76.529" cy="28.411" r="0.925"/>
				<circle fill="#E31F26" cx="78.973" cy="30.855" r="0.925"/>
				<circle fill="#E31F26" cx="81.417" cy="28.411" r="0.925"/>
				<circle fill="#E31F26" cx="83.861" cy="30.855" r="0.925"/>
				<circle fill="#E31F26" cx="86.305" cy="28.411" r="0.925"/>
				<circle fill="#E31F26" cx="88.749" cy="30.855" r="0.925"/>
				<circle fill="#E31F26" cx="91.192" cy="28.411" r="0.925"/>
				<circle fill="#E31F26" cx="93.636" cy="30.855" r="0.925"/>
				<circle fill="#E31F26" cx="96.08" cy="28.411" r="0.925"/>
				<circle fill="#E31F26" cx="98.524" cy="30.855" r="0.925"/>
				<circle fill="#E31F26" cx="100.968" cy="28.411" r="0.925"/>
				<circle fill="#E31F26" cx="103.412" cy="30.855" r="0.925"/>
				<circle fill="#E31F26" cx="105.856" cy="28.411" r="0.925"/>
				<circle fill="#E31F26" cx="108.3" cy="30.855" r="0.925"/>
				<circle fill="#E31F26" cx="110.744" cy="28.411" r="0.925"/>
				<circle fill="#E31F26" cx="113.188" cy="30.855" r="0.925"/>
				<circle fill="#E31F26" cx="115.632" cy="28.411" r="0.925"/>
				<circle fill="#E31F26" cx="118.076" cy="30.855" r="0.925"/>
				<circle fill="#E31F26" cx="120.52" cy="28.411" r="0.925"/>
				<circle fill="#E31F26" cx="122.964" cy="30.855" r="0.925"/>
				<circle fill="#E31F26" cx="125.408" cy="28.411" r="0.925"/>
				<circle fill="#E31F26" cx="30.093" cy="30.855" r="0.925"/>
				<circle fill="#E31F26" cx="32.537" cy="28.411" r="0.925"/>
				<circle fill="#E31F26" cx="34.981" cy="35.743" r="0.925"/>
				<circle fill="#E31F26" cx="37.425" cy="33.299" r="0.925"/>
				<circle fill="#E31F26" cx="39.869" cy="35.743" r="0.925"/>
				<circle fill="#E31F26" cx="42.313" cy="33.299" r="0.925"/>
				<circle fill="#E31F26" cx="44.757" cy="35.743" r="0.925"/>
				<circle fill="#E31F26" cx="47.201" cy="33.299" r="0.925"/>
				<circle fill="#E31F26" cx="49.645" cy="35.743" r="0.925"/>
				<circle fill="#E31F26" cx="52.089" cy="33.299" r="0.925"/>
				<circle fill="#E31F26" cx="54.533" cy="35.743" r="0.925"/>
				<circle fill="#E31F26" cx="56.977" cy="33.299" r="0.925"/>
				<circle fill="#E31F26" cx="59.421" cy="35.743" r="0.925"/>
				<circle fill="#E31F26" cx="61.865" cy="33.299" r="0.925"/>
				<circle fill="#E31F26" cx="64.309" cy="35.743" r="0.925"/>
				<circle fill="#E31F26" cx="66.753" cy="33.299" r="0.925"/>
				<circle fill="#E31F26" cx="69.197" cy="35.743" r="0.925"/>
				<circle fill="#E31F26" cx="71.641" cy="33.299" r="0.925"/>
				<circle fill="#E31F26" cx="74.085" cy="35.743" r="0.925"/>
				<circle fill="#E31F26" cx="76.529" cy="33.299" r="0.925"/>
				<circle fill="#E31F26" cx="78.973" cy="35.743" r="0.925"/>
				<circle fill="#E31F26" cx="81.417" cy="33.299" r="0.925"/>
				<circle fill="#E31F26" cx="83.861" cy="35.743" r="0.925"/>
				<circle fill="#E31F26" cx="86.305" cy="33.299" r="0.925"/>
				<circle fill="#E31F26" cx="88.749" cy="35.743" r="0.925"/>
				<circle fill="#E31F26" cx="91.192" cy="33.299" r="0.925"/>
				<circle fill="#E31F26" cx="93.636" cy="35.743" r="0.925"/>
				<circle fill="#E31F26" cx="96.08" cy="33.299" r="0.925"/>
				<circle fill="#E31F26" cx="98.524" cy="35.743" r="0.925"/>
				<circle fill="#E31F26" cx="100.968" cy="33.299" r="0.925"/>
				<circle fill="#E31F26" cx="103.412" cy="35.743" r="0.925"/>
				<circle fill="#E31F26" cx="105.856" cy="33.299" r="0.925"/>
				<circle fill="#E31F26" cx="108.3" cy="35.743" r="0.925"/>
				<circle fill="#E31F26" cx="110.744" cy="33.299" r="0.925"/>
				<circle fill="#E31F26" cx="113.188" cy="35.743" r="0.925"/>
				<circle fill="#E31F26" cx="115.632" cy="33.299" r="0.925"/>
				<circle fill="#E31F26" cx="118.076" cy="35.743" r="0.925"/>
				<circle fill="#E31F26" cx="120.52" cy="33.299" r="0.925"/>
				<circle fill="#E31F26" cx="122.964" cy="35.743" r="0.925"/>
				<circle fill="#E31F26" cx="125.408" cy="33.299" r="0.925"/>
				<circle fill="#E31F26" cx="30.093" cy="35.743" r="0.925"/>
				<circle fill="#E31F26" cx="32.537" cy="33.299" r="0.925"/>
				<circle fill="#E31F26" cx="34.981" cy="40.631" r="0.925"/>
				<circle fill="#E31F26" cx="37.425" cy="38.187" r="0.925"/>
				<circle fill="#E31F26" cx="39.869" cy="40.631" r="0.925"/>
				<circle fill="#E31F26" cx="42.313" cy="38.187" r="0.925"/>
				<circle fill="#E31F26" cx="44.757" cy="40.631" r="0.925"/>
				<circle fill="#E31F26" cx="47.201" cy="38.187" r="0.925"/>
				<circle fill="#E31F26" cx="49.645" cy="40.631" r="0.925"/>
				<circle fill="#E31F26" cx="52.089" cy="38.187" r="0.925"/>
				<circle fill="#E31F26" cx="54.533" cy="40.631" r="0.925"/>
				<circle fill="#E31F26" cx="56.977" cy="38.187" r="0.925"/>
				<circle fill="#E31F26" cx="59.421" cy="40.631" r="0.925"/>
				<circle fill="#E31F26" cx="61.865" cy="38.187" r="0.925"/>
				<circle fill="#E31F26" cx="64.309" cy="40.631" r="0.925"/>
				<circle fill="#E31F26" cx="66.753" cy="38.187" r="0.925"/>
				<circle fill="#E31F26" cx="69.197" cy="40.631" r="0.925"/>
				<circle fill="#E31F26" cx="71.641" cy="38.187" r="0.925"/>
				<circle fill="#E31F26" cx="74.085" cy="40.631" r="0.925"/>
				<circle fill="#E31F26" cx="76.529" cy="38.187" r="0.925"/>
				<circle fill="#E31F26" cx="78.973" cy="40.631" r="0.925"/>
				<circle fill="#E31F26" cx="81.417" cy="38.187" r="0.925"/>
				<circle fill="#E31F26" cx="83.861" cy="40.631" r="0.925"/>
				<circle fill="#E31F26" cx="86.305" cy="38.187" r="0.925"/>
				<circle fill="#E31F26" cx="88.749" cy="40.631" r="0.925"/>
				<circle fill="#E31F26" cx="91.192" cy="38.187" r="0.925"/>
				<circle fill="#E31F26" cx="93.636" cy="40.631" r="0.925"/>
				<circle fill="#E31F26" cx="96.08" cy="38.187" r="0.925"/>
				<circle fill="#E31F26" cx="98.524" cy="40.631" r="0.925"/>
				<circle fill="#E31F26" cx="100.968" cy="38.187" r="0.925"/>
				<circle fill="#E31F26" cx="103.412" cy="40.631" r="0.925"/>
				<circle fill="#E31F26" cx="105.856" cy="38.187" r="0.925"/>
				<circle fill="#E31F26" cx="108.3" cy="40.631" r="0.925"/>
				<circle fill="#E31F26" cx="110.744" cy="38.187" r="0.925"/>
				<circle fill="#E31F26" cx="113.188" cy="40.631" r="0.925"/>
				<circle fill="#E31F26" cx="115.632" cy="38.187" r="0.925"/>
				<circle fill="#E31F26" cx="118.076" cy="40.631" r="0.925"/>
				<circle fill="#E31F26" cx="120.52" cy="38.187" r="0.925"/>
				<circle fill="#E31F26" cx="122.964" cy="40.631" r="0.925"/>
				<circle fill="#E31F26" cx="125.408" cy="38.187" r="0.925"/>
				<circle fill="#E31F26" cx="30.093" cy="40.631" r="0.925"/>
				<circle fill="#E31F26" cx="32.537" cy="38.187" r="0.925"/>
				<circle fill="#E31F26" cx="34.981" cy="45.519" r="0.925"/>
				<circle fill="#E31F26" cx="37.425" cy="43.075" r="0.925"/>
				<circle fill="#E31F26" cx="39.869" cy="45.519" r="0.925"/>
				<circle fill="#E31F26" cx="42.313" cy="43.075" r="0.925"/>
				<circle fill="#E31F26" cx="44.757" cy="45.519" r="0.925"/>
				<circle fill="#E31F26" cx="47.201" cy="43.075" r="0.925"/>
				<circle fill="#E31F26" cx="49.645" cy="45.519" r="0.925"/>
				<circle fill="#E31F26" cx="52.089" cy="43.075" r="0.925"/>
				<circle fill="#E31F26" cx="54.533" cy="45.519" r="0.925"/>
				<circle fill="#E31F26" cx="56.977" cy="43.075" r="0.925"/>
				<circle fill="#E31F26" cx="59.421" cy="45.519" r="0.925"/>
				<circle fill="#E31F26" cx="61.865" cy="43.075" r="0.925"/>
				<circle fill="#E31F26" cx="64.309" cy="45.519" r="0.925"/>
				<circle fill="#E31F26" cx="66.753" cy="43.075" r="0.925"/>
				<circle fill="#E31F26" cx="69.197" cy="45.519" r="0.925"/>
				<circle fill="#E31F26" cx="71.641" cy="43.075" r="0.925"/>
				<circle fill="#E31F26" cx="74.085" cy="45.519" r="0.925"/>
				<circle fill="#E31F26" cx="76.529" cy="43.075" r="0.925"/>
				<circle fill="#E31F26" cx="78.973" cy="45.519" r="0.925"/>
				<circle fill="#E31F26" cx="81.417" cy="43.075" r="0.925"/>
				<circle fill="#E31F26" cx="83.861" cy="45.519" r="0.925"/>
				<circle fill="#E31F26" cx="86.305" cy="43.075" r="0.925"/>
				<circle fill="#E31F26" cx="88.749" cy="45.519" r="0.925"/>
				<circle fill="#E31F26" cx="91.192" cy="43.075" r="0.925"/>
				<circle fill="#E31F26" cx="93.636" cy="45.519" r="0.925"/>
				<circle fill="#E31F26" cx="96.08" cy="43.075" r="0.925"/>
				<circle fill="#E31F26" cx="98.524" cy="45.519" r="0.925"/>
				<circle fill="#E31F26" cx="100.968" cy="43.075" r="0.925"/>
				<circle fill="#E31F26" cx="103.412" cy="45.519" r="0.925"/>
				<circle fill="#E31F26" cx="105.856" cy="43.075" r="0.925"/>
				<circle fill="#E31F26" cx="108.3" cy="45.519" r="0.925"/>
				<circle fill="#E31F26" cx="110.744" cy="43.075" r="0.925"/>
				<circle fill="#E31F26" cx="113.188" cy="45.519" r="0.925"/>
				<circle fill="#E31F26" cx="115.632" cy="43.075" r="0.925"/>
				<circle fill="#E31F26" cx="118.076" cy="45.519" r="0.925"/>
				<circle fill="#E31F26" cx="120.52" cy="43.075" r="0.925"/>
				<circle fill="#E31F26" cx="122.964" cy="45.519" r="0.925"/>
				<circle fill="#E31F26" cx="125.408" cy="43.075" r="0.925"/>
				<circle fill="#E31F26" cx="30.093" cy="45.519" r="0.925"/>
				<circle fill="#E31F26" cx="32.537" cy="43.075" r="0.925"/>
			</g>
		</g>
		
			<rect x="32.083" y="28" clip-path="url(#SVGID_2_)" fill="none" stroke="#231F20" stroke-width="0.5" width="94" height="15.333"/>
		<g clip-path="url(#SVGID_2_)">
			<path fill="#929297" d="M37.619,54.717h8.436v2.437h-5.478c0,0,0.125,0.875,0.125,1.437v1.125c0,0.562-0.125,1.438-0.125,1.438
				h4.166v2.333h-4.124c0,0,0.125,1.291,0.125,1.771v3.874h-3.125V54.717z"/>
			<path fill="#929297" d="M47.55,62.319v-0.75c0-5.082,2.812-7.124,6.165-7.124c3.437,0,6.082,2,6.082,7.061v0.75
				c0,5.083-2.833,7.124-6.186,7.124C50.175,69.38,47.55,67.401,47.55,62.319z M56.444,62.423v-0.792
				c0-3.416-0.792-4.708-2.791-4.728c-1.854,0-2.791,1.333-2.791,4.499v0.791c0,3.5,0.875,4.749,2.833,4.749
				C55.528,66.943,56.444,65.61,56.444,62.423z"/>
			<path fill="#929297" d="M62.127,54.717h4.894c3.187,0,4.916,1.417,4.916,4.332c0,1.979-0.896,2.896-2.499,3.479v0.167
				c0,0,0.687,0.708,1.333,2.062l2.062,4.374h-3.229l-2.52-5.52h-1.958c0,0,0.125,1.208,0.125,1.979v3.541h-3.124V54.717z
				 M66.813,61.59c1.375,0,2.041-0.937,2.041-2.395c0-1.396-0.583-2.187-2.062-2.187h-1.728c0,0,0.125,0.917,0.125,1.5v1.562
				c0,0.583-0.125,1.52-0.125,1.52H66.813z"/>
			<path fill="#929297" d="M78.346,68.547V66.13c1.062,0.438,2.312,0.709,3.624,0.709c1.583,0,2.333-0.542,2.333-1.646
				c0-1-0.625-1.437-1.854-1.896l-1.062-0.417c-2.021-0.812-3.124-1.833-3.124-4.166c0-2.625,1.541-4.291,4.957-4.291
				c1.562,0,2.708,0.417,3.416,0.771v2.458c-0.875-0.333-1.916-0.687-3.249-0.687c-1.417,0-2.187,0.521-2.187,1.5
				c0,0.917,0.458,1.333,1.666,1.771l1.104,0.417c1.999,0.729,3.479,1.521,3.479,4.27c0,3.062-1.771,4.458-5.166,4.458
				C80.887,69.38,79.325,69.067,78.346,68.547z"/>
			<path fill="#929297" d="M92.652,54.717h3.562l4.186,14.413h-3.249l-0.437-1.583c-0.146-0.458-0.23-1.042-0.292-1.541h-4.416
				c-0.083,0.499-0.167,1.062-0.292,1.52l-0.438,1.604h-2.853L92.652,54.717z M92.527,63.944h3.395
				c-0.188-0.479-0.375-1.042-0.5-1.521l-0.458-1.687c-0.354-1.396-0.604-3.5-0.604-3.5h-0.229c0,0-0.208,2.104-0.604,3.5
				l-0.479,1.687C92.923,62.902,92.715,63.464,92.527,63.944z"/>
			<path fill="#929297" d="M102.146,54.717h3.125v9.873c0,0.875-0.125,2.104-0.125,2.104h5.332v2.437h-8.332V54.717z"/>
			<path fill="#929297" d="M112.661,54.717h8.582v2.437h-5.645c0,0,0.125,0.792,0.125,1.25v0.875c0,0.5-0.125,1.291-0.125,1.291
				h4.437v2.312h-4.437c0,0,0.125,0.833,0.125,1.354v1.104c0,0.542-0.125,1.354-0.125,1.354h5.77v2.437h-8.707V54.717z"/>
		</g>
		<polygon clip-path="url(#SVGID_2_)" fill="none" stroke="#231F20" stroke-linecap="round" stroke-linejoin="round" points="
			126.083,28 32.083,28 32.083,99.333 75.588,99.333 75.588,162 82.82,162 82.82,99.333 126.083,99.333 		"/>
	</g>
	<path fill="none" stroke="#231F20" stroke-width="2" d="M128.83,61.01c7.082,9.849,11.253,21.933,11.253,34.99
		c0,33.137-26.863,60-60,60s-60-26.863-60-60c0-11.373,3.164-22.007,8.66-31.069"/>
</g>
</svg>
