<?xml version="1.0" encoding="utf-8"?>
<!-- Generator: Adobe Illustrator 18.0.0, SVG Export Plug-In . SVG Version: 6.00 Build 0)  -->
<!DOCTYPE svg PUBLIC "-//W3C//DTD SVG 1.1//EN" "http://www.w3.org/Graphics/SVG/1.1/DTD/svg11.dtd">
<svg version="1.1" id="Layer_1" xmlns="http://www.w3.org/2000/svg" xmlns:xlink="http://www.w3.org/1999/xlink" x="0px" y="0px"
	 viewBox="0 0 160 160" enable-background="new 0 0 160 160" xml:space="preserve">
<g>
	<g>
		<defs>
			<path id="SVGID_1_" d="M20,96c0,33.137,26.863,60,60,60s60-26.863,60-60V22.333H20.5L20,96z"/>
		</defs>
		<clipPath id="SVGID_2_">
			<use xlink:href="#SVGID_1_"  overflow="visible"/>
		</clipPath>
		<circle clip-path="url(#SVGID_2_)" fill="#FFFFFF" stroke="#231F20" stroke-width="2" cx="80" cy="96" r="60"/>
		<polygon clip-path="url(#SVGID_2_)" fill="#FFFFFF" stroke="#231F20" stroke-linecap="round" stroke-linejoin="round" points="
			126.167,28 32.167,28 32.167,99.333 75.671,99.333 75.671,162 82.903,162 82.903,99.333 126.167,99.333 		"/>
		<g clip-path="url(#SVGID_2_)">
			<defs>
				<rect id="SVGID_3_" x="32.167" y="83.667" width="94" height="15.333"/>
			</defs>
			<clipPath id="SVGID_4_">
				<use xlink:href="#SVGID_3_"  overflow="visible"/>
			</clipPath>
			<g clip-path="url(#SVGID_4_)">
				<circle fill="#69D1CA" cx="35.065" cy="86.521" r="0.925"/>
				<circle fill="#69D1CA" cx="37.509" cy="84.077" r="0.925"/>
				<circle fill="#69D1CA" cx="39.953" cy="86.521" r="0.925"/>
				<circle fill="#69D1CA" cx="42.397" cy="84.077" r="0.925"/>
				<circle fill="#69D1CA" cx="44.84" cy="86.521" r="0.925"/>
				<circle fill="#69D1CA" cx="47.284" cy="84.077" r="0.925"/>
				<circle fill="#69D1CA" cx="49.728" cy="86.521" r="0.925"/>
				<circle fill="#69D1CA" cx="52.172" cy="84.077" r="0.925"/>
				<circle fill="#69D1CA" cx="54.616" cy="86.521" r="0.925"/>
				<circle fill="#69D1CA" cx="57.06" cy="84.077" r="0.925"/>
				<circle fill="#69D1CA" cx="59.504" cy="86.521" r="0.925"/>
				<circle fill="#69D1CA" cx="61.948" cy="84.077" r="0.925"/>
				<circle fill="#69D1CA" cx="64.392" cy="86.521" r="0.925"/>
				<circle fill="#69D1CA" cx="66.836" cy="84.077" r="0.925"/>
				<circle fill="#69D1CA" cx="69.28" cy="86.521" r="0.925"/>
				<circle fill="#69D1CA" cx="71.724" cy="84.077" r="0.925"/>
				<circle fill="#69D1CA" cx="74.168" cy="86.521" r="0.925"/>
				<circle fill="#69D1CA" cx="76.612" cy="84.077" r="0.925"/>
				<circle fill="#69D1CA" cx="79.056" cy="86.521" r="0.925"/>
				<circle fill="#69D1CA" cx="81.5" cy="84.077" r="0.925"/>
				<circle fill="#69D1CA" cx="83.944" cy="86.521" r="0.925"/>
				<circle fill="#69D1CA" cx="86.388" cy="84.077" r="0.925"/>
				<circle fill="#69D1CA" cx="88.832" cy="86.521" r="0.925"/>
				<circle fill="#69D1CA" cx="91.276" cy="84.077" r="0.925"/>
				<circle fill="#69D1CA" cx="93.72" cy="86.521" r="0.925"/>
				<circle fill="#69D1CA" cx="96.164" cy="84.077" r="0.925"/>
				<circle fill="#69D1CA" cx="98.608" cy="86.521" r="0.925"/>
				<circle fill="#69D1CA" cx="101.052" cy="84.077" r="0.925"/>
				<circle fill="#69D1CA" cx="103.496" cy="86.521" r="0.925"/>
				<circle fill="#69D1CA" cx="105.94" cy="84.077" r="0.925"/>
				<circle fill="#69D1CA" cx="108.384" cy="86.521" r="0.925"/>
				<circle fill="#69D1CA" cx="110.828" cy="84.077" r="0.925"/>
				<circle fill="#69D1CA" cx="113.272" cy="86.521" r="0.925"/>
				<circle fill="#69D1CA" cx="115.716" cy="84.077" r="0.925"/>
				<circle fill="#69D1CA" cx="118.159" cy="86.521" r="0.925"/>
				<circle fill="#69D1CA" cx="120.603" cy="84.077" r="0.925"/>
				<circle fill="#69D1CA" cx="123.047" cy="86.521" r="0.925"/>
				<circle fill="#69D1CA" cx="125.491" cy="84.077" r="0.925"/>
				<circle fill="#69D1CA" cx="30.177" cy="86.521" r="0.925"/>
				<circle fill="#69D1CA" cx="32.621" cy="84.077" r="0.925"/>
				<circle fill="#69D1CA" cx="35.065" cy="91.409" r="0.925"/>
				<circle fill="#69D1CA" cx="37.509" cy="88.965" r="0.925"/>
				<circle fill="#69D1CA" cx="39.953" cy="91.409" r="0.925"/>
				<circle fill="#69D1CA" cx="42.397" cy="88.965" r="0.925"/>
				<circle fill="#69D1CA" cx="44.84" cy="91.409" r="0.925"/>
				<circle fill="#69D1CA" cx="47.284" cy="88.965" r="0.925"/>
				<circle fill="#69D1CA" cx="49.728" cy="91.409" r="0.925"/>
				<circle fill="#69D1CA" cx="52.172" cy="88.965" r="0.925"/>
				<circle fill="#69D1CA" cx="54.616" cy="91.409" r="0.925"/>
				<circle fill="#69D1CA" cx="57.06" cy="88.965" r="0.925"/>
				<circle fill="#69D1CA" cx="59.504" cy="91.409" r="0.925"/>
				<circle fill="#69D1CA" cx="61.948" cy="88.965" r="0.925"/>
				<circle fill="#69D1CA" cx="64.392" cy="91.409" r="0.925"/>
				<circle fill="#69D1CA" cx="66.836" cy="88.965" r="0.925"/>
				<circle fill="#69D1CA" cx="69.28" cy="91.409" r="0.925"/>
				<circle fill="#69D1CA" cx="71.724" cy="88.965" r="0.925"/>
				<circle fill="#69D1CA" cx="74.168" cy="91.409" r="0.925"/>
				<circle fill="#69D1CA" cx="76.612" cy="88.965" r="0.925"/>
				<circle fill="#69D1CA" cx="79.056" cy="91.409" r="0.925"/>
				<circle fill="#69D1CA" cx="81.5" cy="88.965" r="0.925"/>
				<circle fill="#69D1CA" cx="83.944" cy="91.409" r="0.925"/>
				<circle fill="#69D1CA" cx="86.388" cy="88.965" r="0.925"/>
				<circle fill="#69D1CA" cx="88.832" cy="91.409" r="0.925"/>
				<circle fill="#69D1CA" cx="91.276" cy="88.965" r="0.925"/>
				<circle fill="#69D1CA" cx="93.72" cy="91.409" r="0.925"/>
				<circle fill="#69D1CA" cx="96.164" cy="88.965" r="0.925"/>
				<circle fill="#69D1CA" cx="98.608" cy="91.409" r="0.925"/>
				<circle fill="#69D1CA" cx="101.052" cy="88.965" r="0.925"/>
				<circle fill="#69D1CA" cx="103.496" cy="91.409" r="0.925"/>
				<circle fill="#69D1CA" cx="105.94" cy="88.965" r="0.925"/>
				<circle fill="#69D1CA" cx="108.384" cy="91.409" r="0.925"/>
				<circle fill="#69D1CA" cx="110.828" cy="88.965" r="0.925"/>
				<circle fill="#69D1CA" cx="113.272" cy="91.409" r="0.925"/>
				<circle fill="#69D1CA" cx="115.716" cy="88.965" r="0.925"/>
				<circle fill="#69D1CA" cx="118.159" cy="91.409" r="0.925"/>
				<circle fill="#69D1CA" cx="120.603" cy="88.965" r="0.925"/>
				<circle fill="#69D1CA" cx="123.047" cy="91.409" r="0.925"/>
				<circle fill="#69D1CA" cx="125.491" cy="88.965" r="0.925"/>
				<circle fill="#69D1CA" cx="30.177" cy="91.409" r="0.925"/>
				<circle fill="#69D1CA" cx="32.621" cy="88.965" r="0.925"/>
				<circle fill="#69D1CA" cx="35.065" cy="96.297" r="0.925"/>
				<circle fill="#69D1CA" cx="37.509" cy="93.853" r="0.925"/>
				<circle fill="#69D1CA" cx="39.953" cy="96.297" r="0.925"/>
				<circle fill="#69D1CA" cx="42.397" cy="93.853" r="0.925"/>
				<circle fill="#69D1CA" cx="44.84" cy="96.297" r="0.925"/>
				<circle fill="#69D1CA" cx="47.284" cy="93.853" r="0.925"/>
				<circle fill="#69D1CA" cx="49.728" cy="96.297" r="0.925"/>
				<circle fill="#69D1CA" cx="52.172" cy="93.853" r="0.925"/>
				<circle fill="#69D1CA" cx="54.616" cy="96.297" r="0.925"/>
				<circle fill="#69D1CA" cx="57.06" cy="93.853" r="0.925"/>
				<circle fill="#69D1CA" cx="59.504" cy="96.297" r="0.925"/>
				<circle fill="#69D1CA" cx="61.948" cy="93.853" r="0.925"/>
				<circle fill="#69D1CA" cx="64.392" cy="96.297" r="0.925"/>
				<circle fill="#69D1CA" cx="66.836" cy="93.853" r="0.925"/>
				<circle fill="#69D1CA" cx="69.28" cy="96.297" r="0.925"/>
				<circle fill="#69D1CA" cx="71.724" cy="93.853" r="0.925"/>
				<circle fill="#69D1CA" cx="74.168" cy="96.297" r="0.925"/>
				<circle fill="#69D1CA" cx="76.612" cy="93.853" r="0.925"/>
				<circle fill="#69D1CA" cx="79.056" cy="96.297" r="0.925"/>
				<circle fill="#69D1CA" cx="81.5" cy="93.853" r="0.925"/>
				<circle fill="#69D1CA" cx="83.944" cy="96.297" r="0.925"/>
				<circle fill="#69D1CA" cx="86.388" cy="93.853" r="0.925"/>
				<circle fill="#69D1CA" cx="88.832" cy="96.297" r="0.925"/>
				<circle fill="#69D1CA" cx="91.276" cy="93.853" r="0.925"/>
				<circle fill="#69D1CA" cx="93.72" cy="96.297" r="0.925"/>
				<circle fill="#69D1CA" cx="96.164" cy="93.853" r="0.925"/>
				<circle fill="#69D1CA" cx="98.608" cy="96.297" r="0.925"/>
				<circle fill="#69D1CA" cx="101.052" cy="93.853" r="0.925"/>
				<circle fill="#69D1CA" cx="103.496" cy="96.297" r="0.925"/>
				<circle fill="#69D1CA" cx="105.94" cy="93.853" r="0.925"/>
				<circle fill="#69D1CA" cx="108.384" cy="96.297" r="0.925"/>
				<circle fill="#69D1CA" cx="110.828" cy="93.853" r="0.925"/>
				<circle fill="#69D1CA" cx="113.272" cy="96.297" r="0.925"/>
				<circle fill="#69D1CA" cx="115.716" cy="93.853" r="0.925"/>
				<circle fill="#69D1CA" cx="118.159" cy="96.297" r="0.925"/>
				<circle fill="#69D1CA" cx="120.603" cy="93.853" r="0.925"/>
				<circle fill="#69D1CA" cx="123.047" cy="96.297" r="0.925"/>
				<circle fill="#69D1CA" cx="125.491" cy="93.853" r="0.925"/>
				<circle fill="#69D1CA" cx="30.177" cy="96.297" r="0.925"/>
				<circle fill="#69D1CA" cx="32.621" cy="93.853" r="0.925"/>
				<circle fill="#69D1CA" cx="35.065" cy="101.185" r="0.925"/>
				<circle fill="#69D1CA" cx="37.509" cy="98.741" r="0.925"/>
				<circle fill="#69D1CA" cx="39.953" cy="101.185" r="0.925"/>
				<circle fill="#69D1CA" cx="42.397" cy="98.741" r="0.925"/>
				<circle fill="#69D1CA" cx="44.84" cy="101.185" r="0.925"/>
				<circle fill="#69D1CA" cx="47.284" cy="98.741" r="0.925"/>
				<circle fill="#69D1CA" cx="49.728" cy="101.185" r="0.925"/>
				<circle fill="#69D1CA" cx="52.172" cy="98.741" r="0.925"/>
				<circle fill="#69D1CA" cx="54.616" cy="101.185" r="0.925"/>
				<circle fill="#69D1CA" cx="57.06" cy="98.741" r="0.925"/>
				<circle fill="#69D1CA" cx="59.504" cy="101.185" r="0.925"/>
				<circle fill="#69D1CA" cx="61.948" cy="98.741" r="0.925"/>
				<circle fill="#69D1CA" cx="64.392" cy="101.185" r="0.925"/>
				<circle fill="#69D1CA" cx="66.836" cy="98.741" r="0.925"/>
				<circle fill="#69D1CA" cx="69.28" cy="101.185" r="0.925"/>
				<circle fill="#69D1CA" cx="71.724" cy="98.741" r="0.925"/>
				<circle fill="#69D1CA" cx="74.168" cy="101.185" r="0.925"/>
				<circle fill="#69D1CA" cx="76.612" cy="98.741" r="0.925"/>
				<circle fill="#69D1CA" cx="79.056" cy="101.185" r="0.925"/>
				<circle fill="#69D1CA" cx="81.5" cy="98.741" r="0.925"/>
				<circle fill="#69D1CA" cx="83.944" cy="101.185" r="0.925"/>
				<circle fill="#69D1CA" cx="86.388" cy="98.741" r="0.925"/>
				<circle fill="#69D1CA" cx="88.832" cy="101.185" r="0.925"/>
				<circle fill="#69D1CA" cx="91.276" cy="98.741" r="0.925"/>
				<circle fill="#69D1CA" cx="93.72" cy="101.185" r="0.925"/>
				<circle fill="#69D1CA" cx="96.164" cy="98.741" r="0.925"/>
				<circle fill="#69D1CA" cx="98.608" cy="101.185" r="0.925"/>
				<circle fill="#69D1CA" cx="101.052" cy="98.741" r="0.925"/>
				<circle fill="#69D1CA" cx="103.496" cy="101.185" r="0.925"/>
				<circle fill="#69D1CA" cx="105.94" cy="98.741" r="0.925"/>
				<circle fill="#69D1CA" cx="108.384" cy="101.185" r="0.925"/>
				<circle fill="#69D1CA" cx="110.828" cy="98.741" r="0.925"/>
				<circle fill="#69D1CA" cx="113.272" cy="101.185" r="0.925"/>
				<circle fill="#69D1CA" cx="115.716" cy="98.741" r="0.925"/>
				<circle fill="#69D1CA" cx="118.159" cy="101.185" r="0.925"/>
				<circle fill="#69D1CA" cx="120.603" cy="98.741" r="0.925"/>
				<circle fill="#69D1CA" cx="123.047" cy="101.185" r="0.925"/>
				<circle fill="#69D1CA" cx="125.491" cy="98.741" r="0.925"/>
				<circle fill="#69D1CA" cx="30.177" cy="101.185" r="0.925"/>
				<circle fill="#69D1CA" cx="32.621" cy="98.741" r="0.925"/>
			</g>
		</g>
		<g clip-path="url(#SVGID_2_)">
			<defs>
				<rect id="SVGID_5_" x="32.167" y="28" width="94" height="15.333"/>
			</defs>
			<clipPath id="SVGID_6_">
				<use xlink:href="#SVGID_5_"  overflow="visible"/>
			</clipPath>
			<g clip-path="url(#SVGID_6_)">
				<circle fill="#69D1CA" cx="35.065" cy="30.855" r="0.925"/>
				<circle fill="#69D1CA" cx="37.509" cy="28.411" r="0.925"/>
				<circle fill="#69D1CA" cx="39.953" cy="30.855" r="0.925"/>
				<circle fill="#69D1CA" cx="42.397" cy="28.411" r="0.925"/>
				<circle fill="#69D1CA" cx="44.84" cy="30.855" r="0.925"/>
				<circle fill="#69D1CA" cx="47.284" cy="28.411" r="0.925"/>
				<circle fill="#69D1CA" cx="49.728" cy="30.855" r="0.925"/>
				<circle fill="#69D1CA" cx="52.172" cy="28.411" r="0.925"/>
				<circle fill="#69D1CA" cx="54.616" cy="30.855" r="0.925"/>
				<circle fill="#69D1CA" cx="57.06" cy="28.411" r="0.925"/>
				<circle fill="#69D1CA" cx="59.504" cy="30.855" r="0.925"/>
				<circle fill="#69D1CA" cx="61.948" cy="28.411" r="0.925"/>
				<circle fill="#69D1CA" cx="64.392" cy="30.855" r="0.925"/>
				<circle fill="#69D1CA" cx="66.836" cy="28.411" r="0.925"/>
				<circle fill="#69D1CA" cx="69.28" cy="30.855" r="0.925"/>
				<circle fill="#69D1CA" cx="71.724" cy="28.411" r="0.925"/>
				<circle fill="#69D1CA" cx="74.168" cy="30.855" r="0.925"/>
				<circle fill="#69D1CA" cx="76.612" cy="28.411" r="0.925"/>
				<circle fill="#69D1CA" cx="79.056" cy="30.855" r="0.925"/>
				<circle fill="#69D1CA" cx="81.5" cy="28.411" r="0.925"/>
				<circle fill="#69D1CA" cx="83.944" cy="30.855" r="0.925"/>
				<circle fill="#69D1CA" cx="86.388" cy="28.411" r="0.925"/>
				<circle fill="#69D1CA" cx="88.832" cy="30.855" r="0.925"/>
				<circle fill="#69D1CA" cx="91.276" cy="28.411" r="0.925"/>
				<circle fill="#69D1CA" cx="93.72" cy="30.855" r="0.925"/>
				<circle fill="#69D1CA" cx="96.164" cy="28.411" r="0.925"/>
				<circle fill="#69D1CA" cx="98.608" cy="30.855" r="0.925"/>
				<circle fill="#69D1CA" cx="101.052" cy="28.411" r="0.925"/>
				<circle fill="#69D1CA" cx="103.496" cy="30.855" r="0.925"/>
				<circle fill="#69D1CA" cx="105.94" cy="28.411" r="0.925"/>
				<circle fill="#69D1CA" cx="108.384" cy="30.855" r="0.925"/>
				<circle fill="#69D1CA" cx="110.828" cy="28.411" r="0.925"/>
				<circle fill="#69D1CA" cx="113.272" cy="30.855" r="0.925"/>
				<circle fill="#69D1CA" cx="115.716" cy="28.411" r="0.925"/>
				<circle fill="#69D1CA" cx="118.159" cy="30.855" r="0.925"/>
				<circle fill="#69D1CA" cx="120.603" cy="28.411" r="0.925"/>
				<circle fill="#69D1CA" cx="123.047" cy="30.855" r="0.925"/>
				<circle fill="#69D1CA" cx="125.491" cy="28.411" r="0.925"/>
				<circle fill="#69D1CA" cx="30.177" cy="30.855" r="0.925"/>
				<circle fill="#69D1CA" cx="32.621" cy="28.411" r="0.925"/>
				<circle fill="#69D1CA" cx="35.065" cy="35.743" r="0.925"/>
				<circle fill="#69D1CA" cx="37.509" cy="33.299" r="0.925"/>
				<circle fill="#69D1CA" cx="39.953" cy="35.743" r="0.925"/>
				<circle fill="#69D1CA" cx="42.397" cy="33.299" r="0.925"/>
				<circle fill="#69D1CA" cx="44.84" cy="35.743" r="0.925"/>
				<circle fill="#69D1CA" cx="47.284" cy="33.299" r="0.925"/>
				<circle fill="#69D1CA" cx="49.728" cy="35.743" r="0.925"/>
				<circle fill="#69D1CA" cx="52.172" cy="33.299" r="0.925"/>
				<circle fill="#69D1CA" cx="54.616" cy="35.743" r="0.925"/>
				<circle fill="#69D1CA" cx="57.06" cy="33.299" r="0.925"/>
				<circle fill="#69D1CA" cx="59.504" cy="35.743" r="0.925"/>
				<circle fill="#69D1CA" cx="61.948" cy="33.299" r="0.925"/>
				<circle fill="#69D1CA" cx="64.392" cy="35.743" r="0.925"/>
				<circle fill="#69D1CA" cx="66.836" cy="33.299" r="0.925"/>
				<circle fill="#69D1CA" cx="69.28" cy="35.743" r="0.925"/>
				<circle fill="#69D1CA" cx="71.724" cy="33.299" r="0.925"/>
				<circle fill="#69D1CA" cx="74.168" cy="35.743" r="0.925"/>
				<circle fill="#69D1CA" cx="76.612" cy="33.299" r="0.925"/>
				<circle fill="#69D1CA" cx="79.056" cy="35.743" r="0.925"/>
				<circle fill="#69D1CA" cx="81.5" cy="33.299" r="0.925"/>
				<circle fill="#69D1CA" cx="83.944" cy="35.743" r="0.925"/>
				<circle fill="#69D1CA" cx="86.388" cy="33.299" r="0.925"/>
				<circle fill="#69D1CA" cx="88.832" cy="35.743" r="0.925"/>
				<circle fill="#69D1CA" cx="91.276" cy="33.299" r="0.925"/>
				<circle fill="#69D1CA" cx="93.72" cy="35.743" r="0.925"/>
				<circle fill="#69D1CA" cx="96.164" cy="33.299" r="0.925"/>
				<circle fill="#69D1CA" cx="98.608" cy="35.743" r="0.925"/>
				<circle fill="#69D1CA" cx="101.052" cy="33.299" r="0.925"/>
				<circle fill="#69D1CA" cx="103.496" cy="35.743" r="0.925"/>
				<circle fill="#69D1CA" cx="105.94" cy="33.299" r="0.925"/>
				<circle fill="#69D1CA" cx="108.384" cy="35.743" r="0.925"/>
				<circle fill="#69D1CA" cx="110.828" cy="33.299" r="0.925"/>
				<circle fill="#69D1CA" cx="113.272" cy="35.743" r="0.925"/>
				<circle fill="#69D1CA" cx="115.716" cy="33.299" r="0.925"/>
				<circle fill="#69D1CA" cx="118.159" cy="35.743" r="0.925"/>
				<circle fill="#69D1CA" cx="120.603" cy="33.299" r="0.925"/>
				<circle fill="#69D1CA" cx="123.047" cy="35.743" r="0.925"/>
				<circle fill="#69D1CA" cx="125.491" cy="33.299" r="0.925"/>
				<circle fill="#69D1CA" cx="30.177" cy="35.743" r="0.925"/>
				<circle fill="#69D1CA" cx="32.621" cy="33.299" r="0.925"/>
				<circle fill="#69D1CA" cx="35.065" cy="40.631" r="0.925"/>
				<circle fill="#69D1CA" cx="37.509" cy="38.187" r="0.925"/>
				<circle fill="#69D1CA" cx="39.953" cy="40.631" r="0.925"/>
				<circle fill="#69D1CA" cx="42.397" cy="38.187" r="0.925"/>
				<circle fill="#69D1CA" cx="44.84" cy="40.631" r="0.925"/>
				<circle fill="#69D1CA" cx="47.284" cy="38.187" r="0.925"/>
				<circle fill="#69D1CA" cx="49.728" cy="40.631" r="0.925"/>
				<circle fill="#69D1CA" cx="52.172" cy="38.187" r="0.925"/>
				<circle fill="#69D1CA" cx="54.616" cy="40.631" r="0.925"/>
				<circle fill="#69D1CA" cx="57.06" cy="38.187" r="0.925"/>
				<circle fill="#69D1CA" cx="59.504" cy="40.631" r="0.925"/>
				<circle fill="#69D1CA" cx="61.948" cy="38.187" r="0.925"/>
				<circle fill="#69D1CA" cx="64.392" cy="40.631" r="0.925"/>
				<circle fill="#69D1CA" cx="66.836" cy="38.187" r="0.925"/>
				<circle fill="#69D1CA" cx="69.28" cy="40.631" r="0.925"/>
				<circle fill="#69D1CA" cx="71.724" cy="38.187" r="0.925"/>
				<circle fill="#69D1CA" cx="74.168" cy="40.631" r="0.925"/>
				<circle fill="#69D1CA" cx="76.612" cy="38.187" r="0.925"/>
				<circle fill="#69D1CA" cx="79.056" cy="40.631" r="0.925"/>
				<circle fill="#69D1CA" cx="81.5" cy="38.187" r="0.925"/>
				<circle fill="#69D1CA" cx="83.944" cy="40.631" r="0.925"/>
				<circle fill="#69D1CA" cx="86.388" cy="38.187" r="0.925"/>
				<circle fill="#69D1CA" cx="88.832" cy="40.631" r="0.925"/>
				<circle fill="#69D1CA" cx="91.276" cy="38.187" r="0.925"/>
				<circle fill="#69D1CA" cx="93.72" cy="40.631" r="0.925"/>
				<circle fill="#69D1CA" cx="96.164" cy="38.187" r="0.925"/>
				<circle fill="#69D1CA" cx="98.608" cy="40.631" r="0.925"/>
				<circle fill="#69D1CA" cx="101.052" cy="38.187" r="0.925"/>
				<circle fill="#69D1CA" cx="103.496" cy="40.631" r="0.925"/>
				<circle fill="#69D1CA" cx="105.94" cy="38.187" r="0.925"/>
				<circle fill="#69D1CA" cx="108.384" cy="40.631" r="0.925"/>
				<circle fill="#69D1CA" cx="110.828" cy="38.187" r="0.925"/>
				<circle fill="#69D1CA" cx="113.272" cy="40.631" r="0.925"/>
				<circle fill="#69D1CA" cx="115.716" cy="38.187" r="0.925"/>
				<circle fill="#69D1CA" cx="118.159" cy="40.631" r="0.925"/>
				<circle fill="#69D1CA" cx="120.603" cy="38.187" r="0.925"/>
				<circle fill="#69D1CA" cx="123.047" cy="40.631" r="0.925"/>
				<circle fill="#69D1CA" cx="125.491" cy="38.187" r="0.925"/>
				<circle fill="#69D1CA" cx="30.177" cy="40.631" r="0.925"/>
				<circle fill="#69D1CA" cx="32.621" cy="38.187" r="0.925"/>
				<circle fill="#69D1CA" cx="35.065" cy="45.519" r="0.925"/>
				<circle fill="#69D1CA" cx="37.509" cy="43.075" r="0.925"/>
				<circle fill="#69D1CA" cx="39.953" cy="45.519" r="0.925"/>
				<circle fill="#69D1CA" cx="42.397" cy="43.075" r="0.925"/>
				<circle fill="#69D1CA" cx="44.84" cy="45.519" r="0.925"/>
				<circle fill="#69D1CA" cx="47.284" cy="43.075" r="0.925"/>
				<circle fill="#69D1CA" cx="49.728" cy="45.519" r="0.925"/>
				<circle fill="#69D1CA" cx="52.172" cy="43.075" r="0.925"/>
				<circle fill="#69D1CA" cx="54.616" cy="45.519" r="0.925"/>
				<circle fill="#69D1CA" cx="57.06" cy="43.075" r="0.925"/>
				<circle fill="#69D1CA" cx="59.504" cy="45.519" r="0.925"/>
				<circle fill="#69D1CA" cx="61.948" cy="43.075" r="0.925"/>
				<circle fill="#69D1CA" cx="64.392" cy="45.519" r="0.925"/>
				<circle fill="#69D1CA" cx="66.836" cy="43.075" r="0.925"/>
				<circle fill="#69D1CA" cx="69.28" cy="45.519" r="0.925"/>
				<circle fill="#69D1CA" cx="71.724" cy="43.075" r="0.925"/>
				<circle fill="#69D1CA" cx="74.168" cy="45.519" r="0.925"/>
				<circle fill="#69D1CA" cx="76.612" cy="43.075" r="0.925"/>
				<circle fill="#69D1CA" cx="79.056" cy="45.519" r="0.925"/>
				<circle fill="#69D1CA" cx="81.5" cy="43.075" r="0.925"/>
				<circle fill="#69D1CA" cx="83.944" cy="45.519" r="0.925"/>
				<circle fill="#69D1CA" cx="86.388" cy="43.075" r="0.925"/>
				<circle fill="#69D1CA" cx="88.832" cy="45.519" r="0.925"/>
				<circle fill="#69D1CA" cx="91.276" cy="43.075" r="0.925"/>
				<circle fill="#69D1CA" cx="93.72" cy="45.519" r="0.925"/>
				<circle fill="#69D1CA" cx="96.164" cy="43.075" r="0.925"/>
				<circle fill="#69D1CA" cx="98.608" cy="45.519" r="0.925"/>
				<circle fill="#69D1CA" cx="101.052" cy="43.075" r="0.925"/>
				<circle fill="#69D1CA" cx="103.496" cy="45.519" r="0.925"/>
				<circle fill="#69D1CA" cx="105.94" cy="43.075" r="0.925"/>
				<circle fill="#69D1CA" cx="108.384" cy="45.519" r="0.925"/>
				<circle fill="#69D1CA" cx="110.828" cy="43.075" r="0.925"/>
				<circle fill="#69D1CA" cx="113.272" cy="45.519" r="0.925"/>
				<circle fill="#69D1CA" cx="115.716" cy="43.075" r="0.925"/>
				<circle fill="#69D1CA" cx="118.159" cy="45.519" r="0.925"/>
				<circle fill="#69D1CA" cx="120.603" cy="43.075" r="0.925"/>
				<circle fill="#69D1CA" cx="123.047" cy="45.519" r="0.925"/>
				<circle fill="#69D1CA" cx="125.491" cy="43.075" r="0.925"/>
				<circle fill="#69D1CA" cx="30.177" cy="45.519" r="0.925"/>
				<circle fill="#69D1CA" cx="32.621" cy="43.075" r="0.925"/>
			</g>
		</g>
		
			<rect x="32.167" y="28" clip-path="url(#SVGID_2_)" fill="none" stroke="#231F20" stroke-width="0.5" width="94" height="15.333"/>
		
			<rect x="32.167" y="83.667" clip-path="url(#SVGID_2_)" fill="none" stroke="#231F20" stroke-width="0.5" width="94" height="15.333"/>
		<polygon clip-path="url(#SVGID_2_)" fill="none" stroke="#231F20" stroke-linecap="round" stroke-linejoin="round" points="
			126.167,28 32.167,28 32.167,99.333 75.671,99.333 75.671,162 82.903,162 82.903,99.333 126.167,99.333 		"/>
		<g clip-path="url(#SVGID_2_)">
			<path fill="#929297" d="M56.51,68.651l0.014-2.417c1.061,0.444,2.308,0.722,3.619,0.73c1.583,0.009,2.337-0.528,2.343-1.632
				c0.006-1-0.616-1.441-1.843-1.906l-1.06-0.423c-2.015-0.824-3.113-1.852-3.1-4.184c0.016-2.625,1.566-4.281,4.982-4.261
				c1.562,0.009,2.705,0.432,3.411,0.791l-0.015,2.457c-0.872-0.338-1.912-0.698-3.245-0.706c-1.416-0.008-2.189,0.508-2.195,1.487
				c-0.006,0.916,0.45,1.335,1.655,1.78l1.102,0.423c1.995,0.741,3.47,1.541,3.453,4.29c-0.017,3.062-1.796,4.447-5.191,4.427
				C59.045,69.499,57.485,69.177,56.51,68.651z"/>
			<path fill="#929297" d="M67.227,62.486l0.004-0.75c0.03-5.082,2.854-7.107,6.207-7.087c3.437,0.021,6.07,2.035,6.04,7.096
				l-0.004,0.75c-0.03,5.083-2.874,7.107-6.228,7.087C69.81,69.562,67.197,67.569,67.227,62.486z M76.12,62.642l0.005-0.792
				c0.02-3.416-0.764-4.711-2.763-4.744c-1.854-0.011-2.799,1.316-2.817,4.482L70.54,62.38c-0.021,3.5,0.847,4.754,2.805,4.766
				C75.178,67.156,76.102,65.829,76.12,62.642z"/>
			<path fill="#929297" d="M81.848,54.969l3.124,0.019l-0.058,9.872c-0.005,0.875-0.138,2.103-0.138,2.103l5.332,0.031l-0.015,2.437
				l-8.331-0.049L81.848,54.969z"/>
			<path fill="#929297" d="M92.362,55.031l4.332,0.025c4.312,0.025,6.611,1.997,6.584,6.725l-0.003,0.562
				c-0.03,5.041-2.396,7.151-6.562,7.127l-4.437-0.026L92.362,55.031z M96.727,67.095c2.063,0.012,3.214-0.919,3.234-4.563
				l0.004-0.604c0.022-3.874-1.266-4.464-3.494-4.478l-1.166-0.007c0,0,0.118,1.208,0.113,2.021l-0.033,5.603
				c-0.005,0.791-0.137,2.02-0.137,2.02L96.727,67.095z"/>
		</g>
	</g>
	<path fill="none" stroke="#231F20" stroke-width="2" d="M128.747,61.01C135.829,70.859,140,82.942,140,96c0,33.137-26.863,60-60,60
		s-60-26.863-60-60c0-11.373,3.164-22.007,8.66-31.069"/>
</g>
</svg>
