<svg xmlns="http://www.w3.org/2000/svg" width="151.875" height="161.875"><defs><clipPath><path d="M785.378 577.584l-.5-73.667c0-33.137 26.863-60 60-60s60 26.863 60 60v73.667h-119.5z"/></clipPath><pattern patternTransform="matrix(.707 .707 -.707 .707 4180.43 7522.66)" patternUnits="userSpaceOnUse" width="12" height="12"><path d="M12-3H6v6h6v-6z" fill="#fff"/><g><path d="M10.5 0c0-.828-.672-1.5-1.5-1.5S7.5-.828 7.5 0 8.172 1.5 9 1.5 10.5.828 10.5 0" fill="#aad801"/></g><path d="M6-3H0v6h6v-6z" fill="#fff"/><g><path d="M4.5 0c0-.828-.672-1.5-1.5-1.5S1.5-.828 1.5 0 2.172 1.5 3 1.5 4.5.828 4.5 0" fill="#aad801"/></g><path d="M15 3H9v6h6V3z" fill="#fff"/><g><path d="M13.5 6c0-.828-.672-1.5-1.5-1.5s-1.5.672-1.5 1.5.672 1.5 1.5 1.5 1.5-.672 1.5-1.5" fill="#aad801"/></g><path d="M9 3H3v6h6V3z" fill="#fff"/><g><path d="M7.5 6c0-.828-.672-1.5-1.5-1.5S4.5 5.172 4.5 6 5.172 7.5 6 7.5 7.5 6.828 7.5 6" fill="#aad801"/></g><path d="M3 3h-6v6h6V3z" fill="#fff"/><g><path d="M1.5 6c0-.828-.672-1.5-1.5-1.5s-1.5.672-1.5 1.5.672 1.5 1.5 1.5S1.5 6.828 1.5 6" fill="#aad801"/></g><path d="M12 9H6v6h6V9z" fill="#fff"/><g><path d="M10.5 12c0-.828-.672-1.5-1.5-1.5s-1.5.672-1.5 1.5.672 1.5 1.5 1.5 1.5-.672 1.5-1.5" fill="#aad801"/></g><path d="M6 9H0v6h6V9z" fill="#fff"/><g><path d="M4.5 12c0-.828-.672-1.5-1.5-1.5s-1.5.672-1.5 1.5.672 1.5 1.5 1.5 1.5-.672 1.5-1.5" fill="#aad801"/></g></pattern><pattern patternTransform="matrix(.707 .707 -.707 .707 4180.43 7522.66)" patternUnits="userSpaceOnUse" width="12" height="12"><path d="M12-3H6v6h6v-6z" fill="#fff"/><g><path d="M10.5 0c0-.828-.672-1.5-1.5-1.5S7.5-.828 7.5 0 8.172 1.5 9 1.5 10.5.828 10.5 0" fill="#aad801"/></g><path d="M6-3H0v6h6v-6z" fill="#fff"/><g><path d="M4.5 0c0-.828-.672-1.5-1.5-1.5S1.5-.828 1.5 0 2.172 1.5 3 1.5 4.5.828 4.5 0" fill="#aad801"/></g><path d="M15 3H9v6h6V3z" fill="#fff"/><g><path d="M13.5 6c0-.828-.672-1.5-1.5-1.5s-1.5.672-1.5 1.5.672 1.5 1.5 1.5 1.5-.672 1.5-1.5" fill="#aad801"/></g><path d="M9 3H3v6h6V3z" fill="#fff"/><g><path d="M7.5 6c0-.828-.672-1.5-1.5-1.5S4.5 5.172 4.5 6 5.172 7.5 6 7.5 7.5 6.828 7.5 6" fill="#aad801"/></g><path d="M3 3h-6v6h6V3z" fill="#fff"/><g><path d="M1.5 6c0-.828-.672-1.5-1.5-1.5s-1.5.672-1.5 1.5.672 1.5 1.5 1.5S1.5 6.828 1.5 6" fill="#aad801"/></g><path d="M12 9H6v6h6V9z" fill="#fff"/><g><path d="M10.5 12c0-.828-.672-1.5-1.5-1.5s-1.5.672-1.5 1.5.672 1.5 1.5 1.5 1.5-.672 1.5-1.5" fill="#aad801"/></g><path d="M6 9H0v6h6V9z" fill="#fff"/><g><path d="M4.5 12c0-.828-.672-1.5-1.5-1.5s-1.5.672-1.5 1.5.672 1.5 1.5 1.5 1.5-.672 1.5-1.5" fill="#aad801"/></g></pattern><clipPath id="a"><path d="M785.378 577.584l-.5-73.667c0-33.137 26.863-60 60-60s60 26.863 60 60v73.667h-119.5z"/></clipPath><pattern patternTransform="matrix(.707 .707 -.707 .707 4180.43 7522.66)" patternUnits="userSpaceOnUse" width="12" height="12" id="b"><path d="M12-3H6v6h6v-6z" fill="#fff"/><g><path d="M10.5 0c0-.828-.672-1.5-1.5-1.5S7.5-.828 7.5 0 8.172 1.5 9 1.5 10.5.828 10.5 0" fill="#aad801"/></g><path d="M6-3H0v6h6v-6z" fill="#fff"/><g><path d="M4.5 0c0-.828-.672-1.5-1.5-1.5S1.5-.828 1.5 0 2.172 1.5 3 1.5 4.5.828 4.5 0" fill="#aad801"/></g><path d="M15 3H9v6h6V3z" fill="#fff"/><g><path d="M13.5 6c0-.828-.672-1.5-1.5-1.5s-1.5.672-1.5 1.5.672 1.5 1.5 1.5 1.5-.672 1.5-1.5" fill="#aad801"/></g><path d="M9 3H3v6h6V3z" fill="#fff"/><g><path d="M7.5 6c0-.828-.672-1.5-1.5-1.5S4.5 5.172 4.5 6 5.172 7.5 6 7.5 7.5 6.828 7.5 6" fill="#aad801"/></g><path d="M3 3h-6v6h6V3z" fill="#fff"/><g><path d="M1.5 6c0-.828-.672-1.5-1.5-1.5s-1.5.672-1.5 1.5.672 1.5 1.5 1.5S1.5 6.828 1.5 6" fill="#aad801"/></g><path d="M12 9H6v6h6V9z" fill="#fff"/><g><path d="M10.5 12c0-.828-.672-1.5-1.5-1.5s-1.5.672-1.5 1.5.672 1.5 1.5 1.5 1.5-.672 1.5-1.5" fill="#aad801"/></g><path d="M6 9H0v6h6V9z" fill="#fff"/><g><path d="M4.5 12c0-.828-.672-1.5-1.5-1.5s-1.5.672-1.5 1.5.672 1.5 1.5 1.5 1.5-.672 1.5-1.5" fill="#aad801"/></g></pattern><pattern patternTransform="matrix(.707 .707 -.707 .707 4180.43 7522.66)" patternUnits="userSpaceOnUse" width="12" height="12" id="c"><path d="M12-3H6v6h6v-6z" fill="#fff"/><g><path d="M10.5 0c0-.828-.672-1.5-1.5-1.5S7.5-.828 7.5 0 8.172 1.5 9 1.5 10.5.828 10.5 0" fill="#aad801"/></g><path d="M6-3H0v6h6v-6z" fill="#fff"/><g><path d="M4.5 0c0-.828-.672-1.5-1.5-1.5S1.5-.828 1.5 0 2.172 1.5 3 1.5 4.5.828 4.5 0" fill="#aad801"/></g><path d="M15 3H9v6h6V3z" fill="#fff"/><g><path d="M13.5 6c0-.828-.672-1.5-1.5-1.5s-1.5.672-1.5 1.5.672 1.5 1.5 1.5 1.5-.672 1.5-1.5" fill="#aad801"/></g><path d="M9 3H3v6h6V3z" fill="#fff"/><g><path d="M7.5 6c0-.828-.672-1.5-1.5-1.5S4.5 5.172 4.5 6 5.172 7.5 6 7.5 7.5 6.828 7.5 6" fill="#aad801"/></g><path d="M3 3h-6v6h6V3z" fill="#fff"/><g><path d="M1.5 6c0-.828-.672-1.5-1.5-1.5s-1.5.672-1.5 1.5.672 1.5 1.5 1.5S1.5 6.828 1.5 6" fill="#aad801"/></g><path d="M12 9H6v6h6V9z" fill="#fff"/><g><path d="M10.5 12c0-.828-.672-1.5-1.5-1.5s-1.5.672-1.5 1.5.672 1.5 1.5 1.5 1.5-.672 1.5-1.5" fill="#aad801"/></g><path d="M6 9H0v6h6V9z" fill="#fff"/><g><path d="M4.5 12c0-.828-.672-1.5-1.5-1.5s-1.5.672-1.5 1.5.672 1.5 1.5 1.5 1.5-.672 1.5-1.5" fill="#aad801"/></g></pattern></defs><g><g><g clip-path="url(#a)" transform="matrix(1.25 0 0 -1.25 -980.16 715.835)"><g><path d="M904.878 503.917c0-33.137-26.863-60-60-60s-60 26.863-60 60 26.863 60 60 60 60-26.863 60-60" fill="#fff"/></g><g><path d="M904.878 503.917c0-33.137-26.863-60-60-60s-60 26.863-60 60 26.863 60 60 60 60-26.863 60-60z" fill="none" stroke="#231f20" stroke-width="1.5"/></g><g><path d="M891.044 571.917h-94v-71.333h43.505v-62.667h7.23v62.667h43.264v71.333z" fill="#fff"/></g><g><path d="M891.044 571.917h-94v-71.333h43.505v-62.667h7.23v62.667h43.264v71.333z" fill="none" stroke="#231f20" stroke-width="1.5" stroke-linecap="round" stroke-linejoin="round"/></g><path d="M890.044 500.917h-94v15.333h94v-15.333z" fill="url(#b)"/><path d="M890.044 556.584h-94v15.333h94v-15.333z" fill="url(#c)"/><path d="M891.044 556.584h-94v15.333h94v-15.333z" fill="none" stroke="#231f20" stroke-width=".5"/><path d="M891.044 500.917h-94v15.333h94v-15.333z" fill="none" stroke="#231f20" stroke-width=".5"/><g><path d="M891.044 571.917h-94v-71.333h43.505v-62.667h7.23v62.667h43.264v71.333z" fill="none" stroke="#231f20" stroke-width="1.5" stroke-linecap="round" stroke-linejoin="round"/></g><g><path d="M821.388 531.266l.014 2.417c1.06-.444 2.307-.723 3.62-.73 1.582-.01 2.336.527 2.342 1.63.005 1-.617 1.442-1.843 1.908l-1.06.423c-2.013.824-3.112 1.852-3.098 4.184.015 2.625 1.566 4.28 4.982 4.26 1.56-.008 2.705-.43 3.41-.79l-.015-2.457c-.872.34-1.912.698-3.245.706-1.416.01-2.19-.508-2.195-1.487-.006-.917.45-1.336 1.655-1.78l1.1-.423c1.996-.74 3.47-1.54 3.454-4.29-.02-3.062-1.797-4.447-5.192-4.427-1.396.008-2.955.33-3.93.856" fill="#929297"/></g><g><path d="M840.998 537.275l.005.792c.02 3.415-.764 4.71-2.763 4.743-1.854.01-2.8-1.316-2.817-4.482l-.005-.79c-.02-3.5.847-4.755 2.805-4.766 1.833-.01 2.757 1.316 2.775 4.503m-8.893.156l.004.75c.03 5.082 2.853 7.108 6.206 7.088 3.437-.02 6.07-2.035 6.04-7.096l-.004-.75c-.03-5.082-2.874-7.107-6.227-7.087-3.437.02-6.05 2.014-6.02 7.096" fill="#929297"/></g><g><path d="M846.725 544.948l3.124-.02-.06-9.87c-.004-.876-.136-2.103-.136-2.103l5.332-.03-.015-2.44-8.33.05.085 14.413z" fill="#929297"/></g><g><path d="M861.605 532.822c2.063-.012 3.214.92 3.234 4.564l.003.604c.023 3.873-1.265 4.464-3.494 4.477l-1.167.007s.118-1.21.113-2.02l-.033-5.604c-.005-.79-.136-2.02-.136-2.02l1.478-.008zm-4.365 12.064l4.332-.025c4.31-.024 6.61-1.996 6.584-6.724l-.003-.562c-.03-5.04-2.396-7.15-6.562-7.127l-4.435.026.085 14.413z" fill="#929297"/></g></g></g><path d="M136.87 42.2c8.854 12.31 14.067 27.416 14.067 43.737 0 41.422-33.578 75-75 75-41.42 0-75-33.578-75-75C.938 71.72 4.893 58.43 11.764 47.1" fill="none" stroke="#231f20" stroke-width="1.875"/></g></svg>