<?xml version="1.0" encoding="utf-8"?>
<!-- Generator: Adobe Illustrator 18.0.0, SVG Export Plug-In . SVG Version: 6.00 Build 0)  -->
<!DOCTYPE svg PUBLIC "-//W3C//DTD SVG 1.1//EN" "http://www.w3.org/Graphics/SVG/1.1/DTD/svg11.dtd">
<svg version="1.1" id="Layer_1" xmlns="http://www.w3.org/2000/svg" xmlns:xlink="http://www.w3.org/1999/xlink" x="0px" y="0px"
	 viewBox="0 0 160 160" enable-background="new 0 0 160 160" xml:space="preserve">
<g>
	<g>
		<defs>
			<path id="SVGID_1_" d="M20,96c0,33.137,26.863,60,60,60s60-26.863,60-60V22.333H20.5L20,96z"/>
		</defs>
		<clipPath id="SVGID_2_">
			<use xlink:href="#SVGID_1_"  overflow="visible"/>
		</clipPath>
		<circle clip-path="url(#SVGID_2_)" fill="#FFFFFF" stroke="#231F20" stroke-width="2" cx="80" cy="96" r="60"/>
		<polygon clip-path="url(#SVGID_2_)" fill="#FFFFFF" stroke="#231F20" stroke-linecap="round" stroke-linejoin="round" points="
			126.167,28 32.167,28 32.167,99.333 75.671,99.333 75.671,162 82.903,162 82.903,99.333 126.167,99.333 		"/>
		<g clip-path="url(#SVGID_2_)">
			<defs>
				<rect id="SVGID_3_" x="32.667" y="83.667" width="94" height="15.333"/>
			</defs>
			<clipPath id="SVGID_4_">
				<use xlink:href="#SVGID_3_"  overflow="visible"/>
			</clipPath>
			<g clip-path="url(#SVGID_4_)">
				<circle fill="#AAD801" cx="35.565" cy="86.521" r="0.925"/>
				<circle fill="#AAD801" cx="38.009" cy="84.077" r="0.925"/>
				<circle fill="#AAD801" cx="40.453" cy="86.521" r="0.925"/>
				<circle fill="#AAD801" cx="42.897" cy="84.077" r="0.925"/>
				<circle fill="#AAD801" cx="45.34" cy="86.521" r="0.925"/>
				<circle fill="#AAD801" cx="47.784" cy="84.077" r="0.925"/>
				<circle fill="#AAD801" cx="50.228" cy="86.521" r="0.925"/>
				<circle fill="#AAD801" cx="52.672" cy="84.077" r="0.925"/>
				<circle fill="#AAD801" cx="55.116" cy="86.521" r="0.925"/>
				<circle fill="#AAD801" cx="57.56" cy="84.077" r="0.925"/>
				<circle fill="#AAD801" cx="60.004" cy="86.521" r="0.925"/>
				<circle fill="#AAD801" cx="62.448" cy="84.077" r="0.925"/>
				<circle fill="#AAD801" cx="64.892" cy="86.521" r="0.925"/>
				<circle fill="#AAD801" cx="67.336" cy="84.077" r="0.925"/>
				<circle fill="#AAD801" cx="69.78" cy="86.521" r="0.925"/>
				<circle fill="#AAD801" cx="72.224" cy="84.077" r="0.925"/>
				<circle fill="#AAD801" cx="74.668" cy="86.521" r="0.925"/>
				<circle fill="#AAD801" cx="77.112" cy="84.077" r="0.925"/>
				<circle fill="#AAD801" cx="79.556" cy="86.521" r="0.925"/>
				<circle fill="#AAD801" cx="82" cy="84.077" r="0.925"/>
				<circle fill="#AAD801" cx="84.444" cy="86.521" r="0.925"/>
				<circle fill="#AAD801" cx="86.888" cy="84.077" r="0.925"/>
				<circle fill="#AAD801" cx="89.332" cy="86.521" r="0.925"/>
				<circle fill="#AAD801" cx="91.776" cy="84.077" r="0.925"/>
				<circle fill="#AAD801" cx="94.22" cy="86.521" r="0.925"/>
				<circle fill="#AAD801" cx="96.664" cy="84.077" r="0.925"/>
				<circle fill="#AAD801" cx="99.108" cy="86.521" r="0.925"/>
				<circle fill="#AAD801" cx="101.552" cy="84.077" r="0.925"/>
				<circle fill="#AAD801" cx="103.996" cy="86.521" r="0.925"/>
				<circle fill="#AAD801" cx="106.44" cy="84.077" r="0.925"/>
				<circle fill="#AAD801" cx="108.884" cy="86.521" r="0.925"/>
				<circle fill="#AAD801" cx="111.328" cy="84.077" r="0.925"/>
				<circle fill="#AAD801" cx="113.772" cy="86.521" r="0.925"/>
				<circle fill="#AAD801" cx="116.216" cy="84.077" r="0.925"/>
				<circle fill="#AAD801" cx="118.659" cy="86.521" r="0.925"/>
				<circle fill="#AAD801" cx="121.103" cy="84.077" r="0.925"/>
				<circle fill="#AAD801" cx="123.547" cy="86.521" r="0.925"/>
				<circle fill="#AAD801" cx="125.991" cy="84.077" r="0.925"/>
				<circle fill="#AAD801" cx="30.677" cy="86.521" r="0.925"/>
				<circle fill="#AAD801" cx="33.121" cy="84.077" r="0.925"/>
				<circle fill="#AAD801" cx="35.565" cy="91.409" r="0.925"/>
				<circle fill="#AAD801" cx="38.009" cy="88.965" r="0.925"/>
				<circle fill="#AAD801" cx="40.453" cy="91.409" r="0.925"/>
				<circle fill="#AAD801" cx="42.897" cy="88.965" r="0.925"/>
				<circle fill="#AAD801" cx="45.34" cy="91.409" r="0.925"/>
				<circle fill="#AAD801" cx="47.784" cy="88.965" r="0.925"/>
				<circle fill="#AAD801" cx="50.228" cy="91.409" r="0.925"/>
				<circle fill="#AAD801" cx="52.672" cy="88.965" r="0.925"/>
				<circle fill="#AAD801" cx="55.116" cy="91.409" r="0.925"/>
				<circle fill="#AAD801" cx="57.56" cy="88.965" r="0.925"/>
				<circle fill="#AAD801" cx="60.004" cy="91.409" r="0.925"/>
				<circle fill="#AAD801" cx="62.448" cy="88.965" r="0.925"/>
				<circle fill="#AAD801" cx="64.892" cy="91.409" r="0.925"/>
				<circle fill="#AAD801" cx="67.336" cy="88.965" r="0.925"/>
				<circle fill="#AAD801" cx="69.78" cy="91.409" r="0.925"/>
				<circle fill="#AAD801" cx="72.224" cy="88.965" r="0.925"/>
				<circle fill="#AAD801" cx="74.668" cy="91.409" r="0.925"/>
				<circle fill="#AAD801" cx="77.112" cy="88.965" r="0.925"/>
				<circle fill="#AAD801" cx="79.556" cy="91.409" r="0.925"/>
				<circle fill="#AAD801" cx="82" cy="88.965" r="0.925"/>
				<circle fill="#AAD801" cx="84.444" cy="91.409" r="0.925"/>
				<circle fill="#AAD801" cx="86.888" cy="88.965" r="0.925"/>
				<circle fill="#AAD801" cx="89.332" cy="91.409" r="0.925"/>
				<circle fill="#AAD801" cx="91.776" cy="88.965" r="0.925"/>
				<circle fill="#AAD801" cx="94.22" cy="91.409" r="0.925"/>
				<circle fill="#AAD801" cx="96.664" cy="88.965" r="0.925"/>
				<circle fill="#AAD801" cx="99.108" cy="91.409" r="0.925"/>
				<circle fill="#AAD801" cx="101.552" cy="88.965" r="0.925"/>
				<circle fill="#AAD801" cx="103.996" cy="91.409" r="0.925"/>
				<circle fill="#AAD801" cx="106.44" cy="88.965" r="0.925"/>
				<circle fill="#AAD801" cx="108.884" cy="91.409" r="0.925"/>
				<circle fill="#AAD801" cx="111.328" cy="88.965" r="0.925"/>
				<circle fill="#AAD801" cx="113.772" cy="91.409" r="0.925"/>
				<circle fill="#AAD801" cx="116.216" cy="88.965" r="0.925"/>
				<circle fill="#AAD801" cx="118.659" cy="91.409" r="0.925"/>
				<circle fill="#AAD801" cx="121.103" cy="88.965" r="0.925"/>
				<circle fill="#AAD801" cx="123.547" cy="91.409" r="0.925"/>
				<circle fill="#AAD801" cx="125.991" cy="88.965" r="0.925"/>
				<circle fill="#AAD801" cx="30.677" cy="91.409" r="0.925"/>
				<circle fill="#AAD801" cx="33.121" cy="88.965" r="0.925"/>
				<circle fill="#AAD801" cx="35.565" cy="96.297" r="0.925"/>
				<circle fill="#AAD801" cx="38.009" cy="93.853" r="0.925"/>
				<circle fill="#AAD801" cx="40.453" cy="96.297" r="0.925"/>
				<circle fill="#AAD801" cx="42.897" cy="93.853" r="0.925"/>
				<circle fill="#AAD801" cx="45.34" cy="96.297" r="0.925"/>
				<circle fill="#AAD801" cx="47.784" cy="93.853" r="0.925"/>
				<circle fill="#AAD801" cx="50.228" cy="96.297" r="0.925"/>
				<circle fill="#AAD801" cx="52.672" cy="93.853" r="0.925"/>
				<circle fill="#AAD801" cx="55.116" cy="96.297" r="0.925"/>
				<circle fill="#AAD801" cx="57.56" cy="93.853" r="0.925"/>
				<circle fill="#AAD801" cx="60.004" cy="96.297" r="0.925"/>
				<circle fill="#AAD801" cx="62.448" cy="93.853" r="0.925"/>
				<circle fill="#AAD801" cx="64.892" cy="96.297" r="0.925"/>
				<circle fill="#AAD801" cx="67.336" cy="93.853" r="0.925"/>
				<circle fill="#AAD801" cx="69.78" cy="96.297" r="0.925"/>
				<circle fill="#AAD801" cx="72.224" cy="93.853" r="0.925"/>
				<circle fill="#AAD801" cx="74.668" cy="96.297" r="0.925"/>
				<circle fill="#AAD801" cx="77.112" cy="93.853" r="0.925"/>
				<circle fill="#AAD801" cx="79.556" cy="96.297" r="0.925"/>
				<circle fill="#AAD801" cx="82" cy="93.853" r="0.925"/>
				<circle fill="#AAD801" cx="84.444" cy="96.297" r="0.925"/>
				<circle fill="#AAD801" cx="86.888" cy="93.853" r="0.925"/>
				<circle fill="#AAD801" cx="89.332" cy="96.297" r="0.925"/>
				<circle fill="#AAD801" cx="91.776" cy="93.853" r="0.925"/>
				<circle fill="#AAD801" cx="94.22" cy="96.297" r="0.925"/>
				<circle fill="#AAD801" cx="96.664" cy="93.853" r="0.925"/>
				<circle fill="#AAD801" cx="99.108" cy="96.297" r="0.925"/>
				<circle fill="#AAD801" cx="101.552" cy="93.853" r="0.925"/>
				<circle fill="#AAD801" cx="103.996" cy="96.297" r="0.925"/>
				<circle fill="#AAD801" cx="106.44" cy="93.853" r="0.925"/>
				<circle fill="#AAD801" cx="108.884" cy="96.297" r="0.925"/>
				<circle fill="#AAD801" cx="111.328" cy="93.853" r="0.925"/>
				<circle fill="#AAD801" cx="113.772" cy="96.297" r="0.925"/>
				<circle fill="#AAD801" cx="116.216" cy="93.853" r="0.925"/>
				<circle fill="#AAD801" cx="118.659" cy="96.297" r="0.925"/>
				<circle fill="#AAD801" cx="121.103" cy="93.853" r="0.925"/>
				<circle fill="#AAD801" cx="123.547" cy="96.297" r="0.925"/>
				<circle fill="#AAD801" cx="125.991" cy="93.853" r="0.925"/>
				<circle fill="#AAD801" cx="30.677" cy="96.297" r="0.925"/>
				<circle fill="#AAD801" cx="33.121" cy="93.853" r="0.925"/>
				<circle fill="#AAD801" cx="35.565" cy="101.185" r="0.925"/>
				<circle fill="#AAD801" cx="38.009" cy="98.741" r="0.925"/>
				<circle fill="#AAD801" cx="40.453" cy="101.185" r="0.925"/>
				<circle fill="#AAD801" cx="42.897" cy="98.741" r="0.925"/>
				<circle fill="#AAD801" cx="45.34" cy="101.185" r="0.925"/>
				<circle fill="#AAD801" cx="47.784" cy="98.741" r="0.925"/>
				<circle fill="#AAD801" cx="50.228" cy="101.185" r="0.925"/>
				<circle fill="#AAD801" cx="52.672" cy="98.741" r="0.925"/>
				<circle fill="#AAD801" cx="55.116" cy="101.185" r="0.925"/>
				<circle fill="#AAD801" cx="57.56" cy="98.741" r="0.925"/>
				<circle fill="#AAD801" cx="60.004" cy="101.185" r="0.925"/>
				<circle fill="#AAD801" cx="62.448" cy="98.741" r="0.925"/>
				<circle fill="#AAD801" cx="64.892" cy="101.185" r="0.925"/>
				<circle fill="#AAD801" cx="67.336" cy="98.741" r="0.925"/>
				<circle fill="#AAD801" cx="69.78" cy="101.185" r="0.925"/>
				<circle fill="#AAD801" cx="72.224" cy="98.741" r="0.925"/>
				<circle fill="#AAD801" cx="74.668" cy="101.185" r="0.925"/>
				<circle fill="#AAD801" cx="77.112" cy="98.741" r="0.925"/>
				<circle fill="#AAD801" cx="79.556" cy="101.185" r="0.925"/>
				<circle fill="#AAD801" cx="82" cy="98.741" r="0.925"/>
				<circle fill="#AAD801" cx="84.444" cy="101.185" r="0.925"/>
				<circle fill="#AAD801" cx="86.888" cy="98.741" r="0.925"/>
				<circle fill="#AAD801" cx="89.332" cy="101.185" r="0.925"/>
				<circle fill="#AAD801" cx="91.776" cy="98.741" r="0.925"/>
				<circle fill="#AAD801" cx="94.22" cy="101.185" r="0.925"/>
				<circle fill="#AAD801" cx="96.664" cy="98.741" r="0.925"/>
				<circle fill="#AAD801" cx="99.108" cy="101.185" r="0.925"/>
				<circle fill="#AAD801" cx="101.552" cy="98.741" r="0.925"/>
				<circle fill="#AAD801" cx="103.996" cy="101.185" r="0.925"/>
				<circle fill="#AAD801" cx="106.44" cy="98.741" r="0.925"/>
				<circle fill="#AAD801" cx="108.884" cy="101.185" r="0.925"/>
				<circle fill="#AAD801" cx="111.328" cy="98.741" r="0.925"/>
				<circle fill="#AAD801" cx="113.772" cy="101.185" r="0.925"/>
				<circle fill="#AAD801" cx="116.216" cy="98.741" r="0.925"/>
				<circle fill="#AAD801" cx="118.659" cy="101.185" r="0.925"/>
				<circle fill="#AAD801" cx="121.103" cy="98.741" r="0.925"/>
				<circle fill="#AAD801" cx="123.547" cy="101.185" r="0.925"/>
				<circle fill="#AAD801" cx="125.991" cy="98.741" r="0.925"/>
				<circle fill="#AAD801" cx="30.677" cy="101.185" r="0.925"/>
				<circle fill="#AAD801" cx="33.121" cy="98.741" r="0.925"/>
			</g>
		</g>
		<g clip-path="url(#SVGID_2_)">
			<defs>
				<rect id="SVGID_5_" x="32.667" y="28" width="94" height="15.333"/>
			</defs>
			<clipPath id="SVGID_6_">
				<use xlink:href="#SVGID_5_"  overflow="visible"/>
			</clipPath>
			<g clip-path="url(#SVGID_6_)">
				<circle fill="#AAD801" cx="35.565" cy="30.855" r="0.925"/>
				<circle fill="#AAD801" cx="38.009" cy="28.411" r="0.925"/>
				<circle fill="#AAD801" cx="40.453" cy="30.855" r="0.925"/>
				<circle fill="#AAD801" cx="42.897" cy="28.411" r="0.925"/>
				<circle fill="#AAD801" cx="45.34" cy="30.855" r="0.925"/>
				<circle fill="#AAD801" cx="47.784" cy="28.411" r="0.925"/>
				<circle fill="#AAD801" cx="50.228" cy="30.855" r="0.925"/>
				<circle fill="#AAD801" cx="52.672" cy="28.411" r="0.925"/>
				<circle fill="#AAD801" cx="55.116" cy="30.855" r="0.925"/>
				<circle fill="#AAD801" cx="57.56" cy="28.411" r="0.925"/>
				<circle fill="#AAD801" cx="60.004" cy="30.855" r="0.925"/>
				<circle fill="#AAD801" cx="62.448" cy="28.411" r="0.925"/>
				<circle fill="#AAD801" cx="64.892" cy="30.855" r="0.925"/>
				<circle fill="#AAD801" cx="67.336" cy="28.411" r="0.925"/>
				<circle fill="#AAD801" cx="69.78" cy="30.855" r="0.925"/>
				<circle fill="#AAD801" cx="72.224" cy="28.411" r="0.925"/>
				<circle fill="#AAD801" cx="74.668" cy="30.855" r="0.925"/>
				<circle fill="#AAD801" cx="77.112" cy="28.411" r="0.925"/>
				<circle fill="#AAD801" cx="79.556" cy="30.855" r="0.925"/>
				<circle fill="#AAD801" cx="82" cy="28.411" r="0.925"/>
				<circle fill="#AAD801" cx="84.444" cy="30.855" r="0.925"/>
				<circle fill="#AAD801" cx="86.888" cy="28.411" r="0.925"/>
				<circle fill="#AAD801" cx="89.332" cy="30.855" r="0.925"/>
				<circle fill="#AAD801" cx="91.776" cy="28.411" r="0.925"/>
				<circle fill="#AAD801" cx="94.22" cy="30.855" r="0.925"/>
				<circle fill="#AAD801" cx="96.664" cy="28.411" r="0.925"/>
				<circle fill="#AAD801" cx="99.108" cy="30.855" r="0.925"/>
				<circle fill="#AAD801" cx="101.552" cy="28.411" r="0.925"/>
				<circle fill="#AAD801" cx="103.996" cy="30.855" r="0.925"/>
				<circle fill="#AAD801" cx="106.44" cy="28.411" r="0.925"/>
				<circle fill="#AAD801" cx="108.884" cy="30.855" r="0.925"/>
				<circle fill="#AAD801" cx="111.328" cy="28.411" r="0.925"/>
				<circle fill="#AAD801" cx="113.772" cy="30.855" r="0.925"/>
				<circle fill="#AAD801" cx="116.216" cy="28.411" r="0.925"/>
				<circle fill="#AAD801" cx="118.659" cy="30.855" r="0.925"/>
				<circle fill="#AAD801" cx="121.103" cy="28.411" r="0.925"/>
				<circle fill="#AAD801" cx="123.547" cy="30.855" r="0.925"/>
				<circle fill="#AAD801" cx="125.991" cy="28.411" r="0.925"/>
				<circle fill="#AAD801" cx="30.677" cy="30.855" r="0.925"/>
				<circle fill="#AAD801" cx="33.121" cy="28.411" r="0.925"/>
				<circle fill="#AAD801" cx="35.565" cy="35.743" r="0.925"/>
				<circle fill="#AAD801" cx="38.009" cy="33.299" r="0.925"/>
				<circle fill="#AAD801" cx="40.453" cy="35.743" r="0.925"/>
				<circle fill="#AAD801" cx="42.897" cy="33.299" r="0.925"/>
				<circle fill="#AAD801" cx="45.34" cy="35.743" r="0.925"/>
				<circle fill="#AAD801" cx="47.784" cy="33.299" r="0.925"/>
				<circle fill="#AAD801" cx="50.228" cy="35.743" r="0.925"/>
				<circle fill="#AAD801" cx="52.672" cy="33.299" r="0.925"/>
				<circle fill="#AAD801" cx="55.116" cy="35.743" r="0.925"/>
				<circle fill="#AAD801" cx="57.56" cy="33.299" r="0.925"/>
				<circle fill="#AAD801" cx="60.004" cy="35.743" r="0.925"/>
				<circle fill="#AAD801" cx="62.448" cy="33.299" r="0.925"/>
				<circle fill="#AAD801" cx="64.892" cy="35.743" r="0.925"/>
				<circle fill="#AAD801" cx="67.336" cy="33.299" r="0.925"/>
				<circle fill="#AAD801" cx="69.78" cy="35.743" r="0.925"/>
				<circle fill="#AAD801" cx="72.224" cy="33.299" r="0.925"/>
				<circle fill="#AAD801" cx="74.668" cy="35.743" r="0.925"/>
				<circle fill="#AAD801" cx="77.112" cy="33.299" r="0.925"/>
				<circle fill="#AAD801" cx="79.556" cy="35.743" r="0.925"/>
				<circle fill="#AAD801" cx="82" cy="33.299" r="0.925"/>
				<circle fill="#AAD801" cx="84.444" cy="35.743" r="0.925"/>
				<circle fill="#AAD801" cx="86.888" cy="33.299" r="0.925"/>
				<circle fill="#AAD801" cx="89.332" cy="35.743" r="0.925"/>
				<circle fill="#AAD801" cx="91.776" cy="33.299" r="0.925"/>
				<circle fill="#AAD801" cx="94.22" cy="35.743" r="0.925"/>
				<circle fill="#AAD801" cx="96.664" cy="33.299" r="0.925"/>
				<circle fill="#AAD801" cx="99.108" cy="35.743" r="0.925"/>
				<circle fill="#AAD801" cx="101.552" cy="33.299" r="0.925"/>
				<circle fill="#AAD801" cx="103.996" cy="35.743" r="0.925"/>
				<circle fill="#AAD801" cx="106.44" cy="33.299" r="0.925"/>
				<circle fill="#AAD801" cx="108.884" cy="35.743" r="0.925"/>
				<circle fill="#AAD801" cx="111.328" cy="33.299" r="0.925"/>
				<circle fill="#AAD801" cx="113.772" cy="35.743" r="0.925"/>
				<circle fill="#AAD801" cx="116.216" cy="33.299" r="0.925"/>
				<circle fill="#AAD801" cx="118.659" cy="35.743" r="0.925"/>
				<circle fill="#AAD801" cx="121.103" cy="33.299" r="0.925"/>
				<circle fill="#AAD801" cx="123.547" cy="35.743" r="0.925"/>
				<circle fill="#AAD801" cx="125.991" cy="33.299" r="0.925"/>
				<circle fill="#AAD801" cx="30.677" cy="35.743" r="0.925"/>
				<circle fill="#AAD801" cx="33.121" cy="33.299" r="0.925"/>
				<circle fill="#AAD801" cx="35.565" cy="40.631" r="0.925"/>
				<circle fill="#AAD801" cx="38.009" cy="38.187" r="0.925"/>
				<circle fill="#AAD801" cx="40.453" cy="40.631" r="0.925"/>
				<circle fill="#AAD801" cx="42.897" cy="38.187" r="0.925"/>
				<circle fill="#AAD801" cx="45.34" cy="40.631" r="0.925"/>
				<circle fill="#AAD801" cx="47.784" cy="38.187" r="0.925"/>
				<circle fill="#AAD801" cx="50.228" cy="40.631" r="0.925"/>
				<circle fill="#AAD801" cx="52.672" cy="38.187" r="0.925"/>
				<circle fill="#AAD801" cx="55.116" cy="40.631" r="0.925"/>
				<circle fill="#AAD801" cx="57.56" cy="38.187" r="0.925"/>
				<circle fill="#AAD801" cx="60.004" cy="40.631" r="0.925"/>
				<circle fill="#AAD801" cx="62.448" cy="38.187" r="0.925"/>
				<circle fill="#AAD801" cx="64.892" cy="40.631" r="0.925"/>
				<circle fill="#AAD801" cx="67.336" cy="38.187" r="0.925"/>
				<circle fill="#AAD801" cx="69.78" cy="40.631" r="0.925"/>
				<circle fill="#AAD801" cx="72.224" cy="38.187" r="0.925"/>
				<circle fill="#AAD801" cx="74.668" cy="40.631" r="0.925"/>
				<circle fill="#AAD801" cx="77.112" cy="38.187" r="0.925"/>
				<circle fill="#AAD801" cx="79.556" cy="40.631" r="0.925"/>
				<circle fill="#AAD801" cx="82" cy="38.187" r="0.925"/>
				<circle fill="#AAD801" cx="84.444" cy="40.631" r="0.925"/>
				<circle fill="#AAD801" cx="86.888" cy="38.187" r="0.925"/>
				<circle fill="#AAD801" cx="89.332" cy="40.631" r="0.925"/>
				<circle fill="#AAD801" cx="91.776" cy="38.187" r="0.925"/>
				<circle fill="#AAD801" cx="94.22" cy="40.631" r="0.925"/>
				<circle fill="#AAD801" cx="96.664" cy="38.187" r="0.925"/>
				<circle fill="#AAD801" cx="99.108" cy="40.631" r="0.925"/>
				<circle fill="#AAD801" cx="101.552" cy="38.187" r="0.925"/>
				<circle fill="#AAD801" cx="103.996" cy="40.631" r="0.925"/>
				<circle fill="#AAD801" cx="106.44" cy="38.187" r="0.925"/>
				<circle fill="#AAD801" cx="108.884" cy="40.631" r="0.925"/>
				<circle fill="#AAD801" cx="111.328" cy="38.187" r="0.925"/>
				<circle fill="#AAD801" cx="113.772" cy="40.631" r="0.925"/>
				<circle fill="#AAD801" cx="116.216" cy="38.187" r="0.925"/>
				<circle fill="#AAD801" cx="118.659" cy="40.631" r="0.925"/>
				<circle fill="#AAD801" cx="121.103" cy="38.187" r="0.925"/>
				<circle fill="#AAD801" cx="123.547" cy="40.631" r="0.925"/>
				<circle fill="#AAD801" cx="125.991" cy="38.187" r="0.925"/>
				<circle fill="#AAD801" cx="30.677" cy="40.631" r="0.925"/>
				<circle fill="#AAD801" cx="33.121" cy="38.187" r="0.925"/>
				<circle fill="#AAD801" cx="35.565" cy="45.519" r="0.925"/>
				<circle fill="#AAD801" cx="38.009" cy="43.075" r="0.925"/>
				<circle fill="#AAD801" cx="40.453" cy="45.519" r="0.925"/>
				<circle fill="#AAD801" cx="42.897" cy="43.075" r="0.925"/>
				<circle fill="#AAD801" cx="45.34" cy="45.519" r="0.925"/>
				<circle fill="#AAD801" cx="47.784" cy="43.075" r="0.925"/>
				<circle fill="#AAD801" cx="50.228" cy="45.519" r="0.925"/>
				<circle fill="#AAD801" cx="52.672" cy="43.075" r="0.925"/>
				<circle fill="#AAD801" cx="55.116" cy="45.519" r="0.925"/>
				<circle fill="#AAD801" cx="57.56" cy="43.075" r="0.925"/>
				<circle fill="#AAD801" cx="60.004" cy="45.519" r="0.925"/>
				<circle fill="#AAD801" cx="62.448" cy="43.075" r="0.925"/>
				<circle fill="#AAD801" cx="64.892" cy="45.519" r="0.925"/>
				<circle fill="#AAD801" cx="67.336" cy="43.075" r="0.925"/>
				<circle fill="#AAD801" cx="69.78" cy="45.519" r="0.925"/>
				<circle fill="#AAD801" cx="72.224" cy="43.075" r="0.925"/>
				<circle fill="#AAD801" cx="74.668" cy="45.519" r="0.925"/>
				<circle fill="#AAD801" cx="77.112" cy="43.075" r="0.925"/>
				<circle fill="#AAD801" cx="79.556" cy="45.519" r="0.925"/>
				<circle fill="#AAD801" cx="82" cy="43.075" r="0.925"/>
				<circle fill="#AAD801" cx="84.444" cy="45.519" r="0.925"/>
				<circle fill="#AAD801" cx="86.888" cy="43.075" r="0.925"/>
				<circle fill="#AAD801" cx="89.332" cy="45.519" r="0.925"/>
				<circle fill="#AAD801" cx="91.776" cy="43.075" r="0.925"/>
				<circle fill="#AAD801" cx="94.22" cy="45.519" r="0.925"/>
				<circle fill="#AAD801" cx="96.664" cy="43.075" r="0.925"/>
				<circle fill="#AAD801" cx="99.108" cy="45.519" r="0.925"/>
				<circle fill="#AAD801" cx="101.552" cy="43.075" r="0.925"/>
				<circle fill="#AAD801" cx="103.996" cy="45.519" r="0.925"/>
				<circle fill="#AAD801" cx="106.44" cy="43.075" r="0.925"/>
				<circle fill="#AAD801" cx="108.884" cy="45.519" r="0.925"/>
				<circle fill="#AAD801" cx="111.328" cy="43.075" r="0.925"/>
				<circle fill="#AAD801" cx="113.772" cy="45.519" r="0.925"/>
				<circle fill="#AAD801" cx="116.216" cy="43.075" r="0.925"/>
				<circle fill="#AAD801" cx="118.659" cy="45.519" r="0.925"/>
				<circle fill="#AAD801" cx="121.103" cy="43.075" r="0.925"/>
				<circle fill="#AAD801" cx="123.547" cy="45.519" r="0.925"/>
				<circle fill="#AAD801" cx="125.991" cy="43.075" r="0.925"/>
				<circle fill="#AAD801" cx="30.677" cy="45.519" r="0.925"/>
				<circle fill="#AAD801" cx="33.121" cy="43.075" r="0.925"/>
			</g>
		</g>
		
			<rect x="32.167" y="28" clip-path="url(#SVGID_2_)" fill="none" stroke="#231F20" stroke-width="0.5" width="94" height="15.333"/>
		
			<rect x="32.167" y="83.667" clip-path="url(#SVGID_2_)" fill="none" stroke="#231F20" stroke-width="0.5" width="94" height="15.333"/>
		<g clip-path="url(#SVGID_2_)">
			<path fill="#929297" d="M52.278,59.195c0-0.792,0.146-2.021,0.146-2.021h-3.562v-2.458h10.019v2.458h-3.562
				c0,0,0.145,1.229,0.145,2.021v9.935h-3.186V59.195z"/>
			<path fill="#929297" d="M60.065,62.319v-0.75c0-5.082,2.812-7.124,6.165-7.124c3.437,0,6.081,2,6.081,7.061v0.75
				c0,5.083-2.832,7.124-6.185,7.124C62.689,69.38,60.065,67.401,60.065,62.319z M68.959,62.423v-0.792
				c0-3.416-0.792-4.708-2.791-4.728c-1.855,0-2.791,1.333-2.791,4.499v0.791c0,3.5,0.874,4.749,2.832,4.749
				C68.042,66.943,68.959,65.61,68.959,62.423z"/>
			<path fill="#929297" d="M78.825,54.717h3.125v9.873c0,0.875-0.125,2.104-0.125,2.104h5.332v2.437h-8.332V54.717z"/>
			<path fill="#929297" d="M89.341,54.717h8.581v2.437h-5.645c0,0,0.125,0.792,0.125,1.25v0.875c0,0.5-0.125,1.291-0.125,1.291
				h4.437v2.312h-4.437c0,0,0.125,0.833,0.125,1.354v1.104c0,0.542-0.125,1.354-0.125,1.354h5.77v2.437h-8.706V54.717z"/>
			<path fill="#929297" d="M103.396,59.195c0-0.792,0.146-2.021,0.146-2.021H99.98v-2.458h10.019v2.458h-3.562
				c0,0,0.146,1.229,0.146,2.021v9.935h-3.187V59.195z"/>
		</g>
		<polygon clip-path="url(#SVGID_2_)" fill="none" stroke="#231F20" stroke-linecap="round" stroke-linejoin="round" points="
			126.167,28 32.167,28 32.167,99.333 75.671,99.333 75.671,162 82.903,162 82.903,99.333 126.167,99.333 		"/>
	</g>
	<path fill="none" stroke="#231F20" stroke-width="2" d="M128.747,61.01C135.829,70.859,140,82.942,140,96c0,33.137-26.863,60-60,60
		s-60-26.863-60-60c0-11.373,3.164-22.007,8.66-31.069"/>
</g>
</svg>
