<svg xmlns="http://www.w3.org/2000/svg" width="151.889" height="197.606"><defs><clipPath><path d="M0 863.584h938.953V0H0v863.584z"/></clipPath><pattern height="12" width="12" patternUnits="userSpaceOnUse" patternTransform="matrix(.707 .707 -.707 .707 4185.04 7519.53)"><path d="M12-3H6v6h6v-6z" fill="#fff"/><g><path d="M10.5 0c0-.828-.672-1.5-1.5-1.5S7.5-.828 7.5 0 8.172 1.5 9 1.5 10.5.828 10.5 0" fill="#33a22b"/></g><path d="M6-3H0v6h6v-6z" fill="#fff"/><g><path d="M4.5 0c0-.828-.672-1.5-1.5-1.5S1.5-.828 1.5 0 2.172 1.5 3 1.5 4.5.828 4.5 0" fill="#33a22b"/></g><path d="M15 3H9v6h6V3z" fill="#fff"/><g><path d="M13.5 6c0-.828-.672-1.5-1.5-1.5s-1.5.672-1.5 1.5.672 1.5 1.5 1.5 1.5-.672 1.5-1.5" fill="#33a22b"/></g><path d="M9 3H3v6h6V3z" fill="#fff"/><g><path d="M7.5 6c0-.828-.672-1.5-1.5-1.5S4.5 5.172 4.5 6 5.172 7.5 6 7.5 7.5 6.828 7.5 6" fill="#33a22b"/></g><path d="M3 3h-6v6h6V3z" fill="#fff"/><g><path d="M1.5 6c0-.828-.672-1.5-1.5-1.5s-1.5.672-1.5 1.5.672 1.5 1.5 1.5S1.5 6.828 1.5 6" fill="#33a22b"/></g><path d="M12 9H6v6h6V9z" fill="#fff"/><g><path d="M10.5 12c0-.828-.672-1.5-1.5-1.5s-1.5.672-1.5 1.5.672 1.5 1.5 1.5 1.5-.672 1.5-1.5" fill="#33a22b"/></g><path d="M6 9H0v6h6V9z" fill="#fff"/><g><path d="M4.5 12c0-.828-.672-1.5-1.5-1.5s-1.5.672-1.5 1.5.672 1.5 1.5 1.5 1.5-.672 1.5-1.5" fill="#33a22b"/></g></pattern><clipPath><path d="M0 863.584h938.953V0H0v863.584z"/></clipPath><clipPath><path d="M348.652 307.12c-3.405-17.55 4.312-33.81 17.236-36.317 12.923-2.508 26.16 9.687 29.565 27.237 2.52 12.993-1.054 25.277-8.323 31.8l-6.74 3.953c-.706.232-1.432.42-2.173.565-1.134.22-2.27.327-3.4.327-11.77 0-23.06-11.554-26.165-27.565"/></clipPath><pattern height="12" width="12" patternUnits="userSpaceOnUse" patternTransform="matrix(.707 .707 -.707 .707 4185.04 7519.53)"><path d="M12-3H6v6h6v-6z" fill="#fff"/><g><path d="M10.5 0c0-.828-.672-1.5-1.5-1.5S7.5-.828 7.5 0 8.172 1.5 9 1.5 10.5.828 10.5 0" fill="#33a22b"/></g><path d="M6-3H0v6h6v-6z" fill="#fff"/><g><path d="M4.5 0c0-.828-.672-1.5-1.5-1.5S1.5-.828 1.5 0 2.172 1.5 3 1.5 4.5.828 4.5 0" fill="#33a22b"/></g><path d="M15 3H9v6h6V3z" fill="#fff"/><g><path d="M13.5 6c0-.828-.672-1.5-1.5-1.5s-1.5.672-1.5 1.5.672 1.5 1.5 1.5 1.5-.672 1.5-1.5" fill="#33a22b"/></g><path d="M9 3H3v6h6V3z" fill="#fff"/><g><path d="M7.5 6c0-.828-.672-1.5-1.5-1.5S4.5 5.172 4.5 6 5.172 7.5 6 7.5 7.5 6.828 7.5 6" fill="#33a22b"/></g><path d="M3 3h-6v6h6V3z" fill="#fff"/><g><path d="M1.5 6c0-.828-.672-1.5-1.5-1.5s-1.5.672-1.5 1.5.672 1.5 1.5 1.5S1.5 6.828 1.5 6" fill="#33a22b"/></g><path d="M12 9H6v6h6V9z" fill="#fff"/><g><path d="M10.5 12c0-.828-.672-1.5-1.5-1.5s-1.5.672-1.5 1.5.672 1.5 1.5 1.5 1.5-.672 1.5-1.5" fill="#33a22b"/></g><path d="M6 9H0v6h6V9z" fill="#fff"/><g><path d="M4.5 12c0-.828-.672-1.5-1.5-1.5s-1.5.672-1.5 1.5.672 1.5 1.5 1.5 1.5-.672 1.5-1.5" fill="#33a22b"/></g></pattern><clipPath><path d="M0 863.584h938.953V0H0v863.584z"/></clipPath><clipPath><path d="M348.652 307.12c-3.405-17.55 4.312-33.81 17.236-36.317 12.923-2.508 26.16 9.687 29.565 27.237 2.52 12.993-1.054 25.277-8.323 31.8l-6.74 3.953c-.706.232-1.432.42-2.173.565-1.134.22-2.27.327-3.4.327-11.77 0-23.06-11.554-26.165-27.565"/></clipPath><pattern height="12" width="12" patternUnits="userSpaceOnUse" patternTransform="matrix(.707 .707 -.707 .707 4185.04 7519.53)"><path d="M12-3H6v6h6v-6z" fill="#fff"/><g><path d="M10.5 0c0-.828-.672-1.5-1.5-1.5S7.5-.828 7.5 0 8.172 1.5 9 1.5 10.5.828 10.5 0" fill="#33a22b"/></g><path d="M6-3H0v6h6v-6z" fill="#fff"/><g><path d="M4.5 0c0-.828-.672-1.5-1.5-1.5S1.5-.828 1.5 0 2.172 1.5 3 1.5 4.5.828 4.5 0" fill="#33a22b"/></g><path d="M15 3H9v6h6V3z" fill="#fff"/><g><path d="M13.5 6c0-.828-.672-1.5-1.5-1.5s-1.5.672-1.5 1.5.672 1.5 1.5 1.5 1.5-.672 1.5-1.5" fill="#33a22b"/></g><path d="M9 3H3v6h6V3z" fill="#fff"/><g><path d="M7.5 6c0-.828-.672-1.5-1.5-1.5S4.5 5.172 4.5 6 5.172 7.5 6 7.5 7.5 6.828 7.5 6" fill="#33a22b"/></g><path d="M3 3h-6v6h6V3z" fill="#fff"/><g><path d="M1.5 6c0-.828-.672-1.5-1.5-1.5s-1.5.672-1.5 1.5.672 1.5 1.5 1.5S1.5 6.828 1.5 6" fill="#33a22b"/></g><path d="M12 9H6v6h6V9z" fill="#fff"/><g><path d="M10.5 12c0-.828-.672-1.5-1.5-1.5s-1.5.672-1.5 1.5.672 1.5 1.5 1.5 1.5-.672 1.5-1.5" fill="#33a22b"/></g><path d="M6 9H0v6h6V9z" fill="#fff"/><g><path d="M4.5 12c0-.828-.672-1.5-1.5-1.5s-1.5.672-1.5 1.5.672 1.5 1.5 1.5 1.5-.672 1.5-1.5" fill="#33a22b"/></g></pattern><pattern height="12" width="12" patternUnits="userSpaceOnUse" patternTransform="matrix(.707 .707 -.707 .707 4190.17 7522.35)"><path d="M12-3H6v6h6v-6z" fill="#fff"/><g><path d="M10.5 0c0-.828-.672-1.5-1.5-1.5S7.5-.828 7.5 0 8.172 1.5 9 1.5 10.5.828 10.5 0" fill="#aad801"/></g><path d="M6-3H0v6h6v-6z" fill="#fff"/><g><path d="M4.5 0c0-.828-.672-1.5-1.5-1.5S1.5-.828 1.5 0 2.172 1.5 3 1.5 4.5.828 4.5 0" fill="#aad801"/></g><path d="M15 3H9v6h6V3z" fill="#fff"/><g><path d="M13.5 6c0-.828-.672-1.5-1.5-1.5s-1.5.672-1.5 1.5.672 1.5 1.5 1.5 1.5-.672 1.5-1.5" fill="#aad801"/></g><path d="M9 3H3v6h6V3z" fill="#fff"/><g><path d="M7.5 6c0-.828-.672-1.5-1.5-1.5S4.5 5.172 4.5 6 5.172 7.5 6 7.5 7.5 6.828 7.5 6" fill="#aad801"/></g><path d="M3 3h-6v6h6V3z" fill="#fff"/><g><path d="M1.5 6c0-.828-.672-1.5-1.5-1.5s-1.5.672-1.5 1.5.672 1.5 1.5 1.5S1.5 6.828 1.5 6" fill="#aad801"/></g><path d="M12 9H6v6h6V9z" fill="#fff"/><g><path d="M10.5 12c0-.828-.672-1.5-1.5-1.5s-1.5.672-1.5 1.5.672 1.5 1.5 1.5 1.5-.672 1.5-1.5" fill="#aad801"/></g><path d="M6 9H0v6h6V9z" fill="#fff"/><g><path d="M4.5 12c0-.828-.672-1.5-1.5-1.5s-1.5.672-1.5 1.5.672 1.5 1.5 1.5 1.5-.672 1.5-1.5" fill="#aad801"/></g></pattern><pattern height="12" width="12" patternUnits="userSpaceOnUse" patternTransform="matrix(.707 .707 -.707 .707 4183.02 7526.16)"><path d="M12-3H6v6h6v-6z" fill="#fff"/><g><path d="M10.5 0c0-.828-.672-1.5-1.5-1.5S7.5-.828 7.5 0 8.172 1.5 9 1.5 10.5.828 10.5 0" fill="#e49f65"/></g><path d="M6-3H0v6h6v-6z" fill="#fff"/><g><path d="M4.5 0c0-.828-.672-1.5-1.5-1.5S1.5-.828 1.5 0 2.172 1.5 3 1.5 4.5.828 4.5 0" fill="#e49f65"/></g><path d="M15 3H9v6h6V3z" fill="#fff"/><g><path d="M13.5 6c0-.828-.672-1.5-1.5-1.5s-1.5.672-1.5 1.5.672 1.5 1.5 1.5 1.5-.672 1.5-1.5" fill="#e49f65"/></g><path d="M9 3H3v6h6V3z" fill="#fff"/><g><path d="M7.5 6c0-.828-.672-1.5-1.5-1.5S4.5 5.172 4.5 6 5.172 7.5 6 7.5 7.5 6.828 7.5 6" fill="#e49f65"/></g><path d="M3 3h-6v6h6V3z" fill="#fff"/><g><path d="M1.5 6c0-.828-.672-1.5-1.5-1.5s-1.5.672-1.5 1.5.672 1.5 1.5 1.5S1.5 6.828 1.5 6" fill="#e49f65"/></g><path d="M12 9H6v6h6V9z" fill="#fff"/><g><path d="M10.5 12c0-.828-.672-1.5-1.5-1.5s-1.5.672-1.5 1.5.672 1.5 1.5 1.5 1.5-.672 1.5-1.5" fill="#e49f65"/></g><path d="M6 9H0v6h6V9z" fill="#fff"/><g><path d="M4.5 12c0-.828-.672-1.5-1.5-1.5s-1.5.672-1.5 1.5.672 1.5 1.5 1.5 1.5-.672 1.5-1.5" fill="#e49f65"/></g></pattern><pattern height="12" width="12" patternUnits="userSpaceOnUse" patternTransform="matrix(.707 .707 -.707 .707 4185.4 7526.35)"><path d="M12-3H6v6h6v-6z" fill="#fff"/><g><path d="M10.5 0c0-.828-.672-1.5-1.5-1.5S7.5-.828 7.5 0 8.172 1.5 9 1.5 10.5.828 10.5 0" fill="#4dc6dd"/></g><path d="M6-3H0v6h6v-6z" fill="#fff"/><g><path d="M4.5 0c0-.828-.672-1.5-1.5-1.5S1.5-.828 1.5 0 2.172 1.5 3 1.5 4.5.828 4.5 0" fill="#4dc6dd"/></g><path d="M15 3H9v6h6V3z" fill="#fff"/><g><path d="M13.5 6c0-.828-.672-1.5-1.5-1.5s-1.5.672-1.5 1.5.672 1.5 1.5 1.5 1.5-.672 1.5-1.5" fill="#4dc6dd"/></g><path d="M9 3H3v6h6V3z" fill="#fff"/><g><path d="M7.5 6c0-.828-.672-1.5-1.5-1.5S4.5 5.172 4.5 6 5.172 7.5 6 7.5 7.5 6.828 7.5 6" fill="#4dc6dd"/></g><path d="M3 3h-6v6h6V3z" fill="#fff"/><g><path d="M1.5 6c0-.828-.672-1.5-1.5-1.5s-1.5.672-1.5 1.5.672 1.5 1.5 1.5S1.5 6.828 1.5 6" fill="#4dc6dd"/></g><path d="M12 9H6v6h6V9z" fill="#fff"/><g><path d="M10.5 12c0-.828-.672-1.5-1.5-1.5s-1.5.672-1.5 1.5.672 1.5 1.5 1.5 1.5-.672 1.5-1.5" fill="#4dc6dd"/></g><path d="M6 9H0v6h6V9z" fill="#fff"/><g><path d="M4.5 12c0-.828-.672-1.5-1.5-1.5s-1.5.672-1.5 1.5.672 1.5 1.5 1.5 1.5-.672 1.5-1.5" fill="#4dc6dd"/></g></pattern><pattern height="12" width="12" patternUnits="userSpaceOnUse" patternTransform="matrix(.707 .707 -.707 .707 4183.02 7526.16)"><path d="M12-3H6v6h6v-6z" fill="#fff"/><g><path d="M10.5 0c0-.828-.672-1.5-1.5-1.5S7.5-.828 7.5 0 8.172 1.5 9 1.5 10.5.828 10.5 0" fill="#e49f65"/></g><path d="M6-3H0v6h6v-6z" fill="#fff"/><g><path d="M4.5 0c0-.828-.672-1.5-1.5-1.5S1.5-.828 1.5 0 2.172 1.5 3 1.5 4.5.828 4.5 0" fill="#e49f65"/></g><path d="M15 3H9v6h6V3z" fill="#fff"/><g><path d="M13.5 6c0-.828-.672-1.5-1.5-1.5s-1.5.672-1.5 1.5.672 1.5 1.5 1.5 1.5-.672 1.5-1.5" fill="#e49f65"/></g><path d="M9 3H3v6h6V3z" fill="#fff"/><g><path d="M7.5 6c0-.828-.672-1.5-1.5-1.5S4.5 5.172 4.5 6 5.172 7.5 6 7.5 7.5 6.828 7.5 6" fill="#e49f65"/></g><path d="M3 3h-6v6h6V3z" fill="#fff"/><g><path d="M1.5 6c0-.828-.672-1.5-1.5-1.5s-1.5.672-1.5 1.5.672 1.5 1.5 1.5S1.5 6.828 1.5 6" fill="#e49f65"/></g><path d="M12 9H6v6h6V9z" fill="#fff"/><g><path d="M10.5 12c0-.828-.672-1.5-1.5-1.5s-1.5.672-1.5 1.5.672 1.5 1.5 1.5 1.5-.672 1.5-1.5" fill="#e49f65"/></g><path d="M6 9H0v6h6V9z" fill="#fff"/><g><path d="M4.5 12c0-.828-.672-1.5-1.5-1.5s-1.5.672-1.5 1.5.672 1.5 1.5 1.5 1.5-.672 1.5-1.5" fill="#e49f65"/></g></pattern><pattern height="12" width="12" patternUnits="userSpaceOnUse" patternTransform="matrix(.707 .707 -.707 .707 4185.4 7526.35)"><path d="M12-3H6v6h6v-6z" fill="#fff"/><g><path d="M10.5 0c0-.828-.672-1.5-1.5-1.5S7.5-.828 7.5 0 8.172 1.5 9 1.5 10.5.828 10.5 0" fill="#4dc6dd"/></g><path d="M6-3H0v6h6v-6z" fill="#fff"/><g><path d="M4.5 0c0-.828-.672-1.5-1.5-1.5S1.5-.828 1.5 0 2.172 1.5 3 1.5 4.5.828 4.5 0" fill="#4dc6dd"/></g><path d="M15 3H9v6h6V3z" fill="#fff"/><g><path d="M13.5 6c0-.828-.672-1.5-1.5-1.5s-1.5.672-1.5 1.5.672 1.5 1.5 1.5 1.5-.672 1.5-1.5" fill="#4dc6dd"/></g><path d="M9 3H3v6h6V3z" fill="#fff"/><g><path d="M7.5 6c0-.828-.672-1.5-1.5-1.5S4.5 5.172 4.5 6 5.172 7.5 6 7.5 7.5 6.828 7.5 6" fill="#4dc6dd"/></g><path d="M3 3h-6v6h6V3z" fill="#fff"/><g><path d="M1.5 6c0-.828-.672-1.5-1.5-1.5s-1.5.672-1.5 1.5.672 1.5 1.5 1.5S1.5 6.828 1.5 6" fill="#4dc6dd"/></g><path d="M12 9H6v6h6V9z" fill="#fff"/><g><path d="M10.5 12c0-.828-.672-1.5-1.5-1.5s-1.5.672-1.5 1.5.672 1.5 1.5 1.5 1.5-.672 1.5-1.5" fill="#4dc6dd"/></g><path d="M6 9H0v6h6V9z" fill="#fff"/><g><path d="M4.5 12c0-.828-.672-1.5-1.5-1.5s-1.5.672-1.5 1.5.672 1.5 1.5 1.5 1.5-.672 1.5-1.5" fill="#4dc6dd"/></g></pattern><pattern height="12" width="12" patternUnits="userSpaceOnUse" patternTransform="matrix(.707 .707 -.707 .707 4183.52 7517.87)"><path d="M12-3H6v6h6v-6z" fill="#fff"/><g><path d="M10.5 0c0-.828-.672-1.5-1.5-1.5S7.5-.828 7.5 0 8.172 1.5 9 1.5 10.5.828 10.5 0" fill="#e31f26"/></g><path d="M6-3H0v6h6v-6z" fill="#fff"/><g><path d="M4.5 0c0-.828-.672-1.5-1.5-1.5S1.5-.828 1.5 0 2.172 1.5 3 1.5 4.5.828 4.5 0" fill="#e31f26"/></g><path d="M15 3H9v6h6V3z" fill="#fff"/><g><path d="M13.5 6c0-.828-.672-1.5-1.5-1.5s-1.5.672-1.5 1.5.672 1.5 1.5 1.5 1.5-.672 1.5-1.5" fill="#e31f26"/></g><path d="M9 3H3v6h6V3z" fill="#fff"/><g><path d="M7.5 6c0-.828-.672-1.5-1.5-1.5S4.5 5.172 4.5 6 5.172 7.5 6 7.5 7.5 6.828 7.5 6" fill="#e31f26"/></g><path d="M3 3h-6v6h6V3z" fill="#fff"/><g><path d="M1.5 6c0-.828-.672-1.5-1.5-1.5s-1.5.672-1.5 1.5.672 1.5 1.5 1.5S1.5 6.828 1.5 6" fill="#e31f26"/></g><path d="M12 9H6v6h6V9z" fill="#fff"/><g><path d="M10.5 12c0-.828-.672-1.5-1.5-1.5s-1.5.672-1.5 1.5.672 1.5 1.5 1.5 1.5-.672 1.5-1.5" fill="#e31f26"/></g><path d="M6 9H0v6h6V9z" fill="#fff"/><g><path d="M4.5 12c0-.828-.672-1.5-1.5-1.5s-1.5.672-1.5 1.5.672 1.5 1.5 1.5 1.5-.672 1.5-1.5" fill="#e31f26"/></g></pattern><pattern height="12" width="12" patternUnits="userSpaceOnUse" patternTransform="matrix(.707 .707 -.707 .707 4183.52 7517.87)"><path d="M12-3H6v6h6v-6z" fill="#fff"/><g><path d="M10.5 0c0-.828-.672-1.5-1.5-1.5S7.5-.828 7.5 0 8.172 1.5 9 1.5 10.5.828 10.5 0" fill="#e31f26"/></g><path d="M6-3H0v6h6v-6z" fill="#fff"/><g><path d="M4.5 0c0-.828-.672-1.5-1.5-1.5S1.5-.828 1.5 0 2.172 1.5 3 1.5 4.5.828 4.5 0" fill="#e31f26"/></g><path d="M15 3H9v6h6V3z" fill="#fff"/><g><path d="M13.5 6c0-.828-.672-1.5-1.5-1.5s-1.5.672-1.5 1.5.672 1.5 1.5 1.5 1.5-.672 1.5-1.5" fill="#e31f26"/></g><path d="M9 3H3v6h6V3z" fill="#fff"/><g><path d="M7.5 6c0-.828-.672-1.5-1.5-1.5S4.5 5.172 4.5 6 5.172 7.5 6 7.5 7.5 6.828 7.5 6" fill="#e31f26"/></g><path d="M3 3h-6v6h6V3z" fill="#fff"/><g><path d="M1.5 6c0-.828-.672-1.5-1.5-1.5s-1.5.672-1.5 1.5.672 1.5 1.5 1.5S1.5 6.828 1.5 6" fill="#e31f26"/></g><path d="M12 9H6v6h6V9z" fill="#fff"/><g><path d="M10.5 12c0-.828-.672-1.5-1.5-1.5s-1.5.672-1.5 1.5.672 1.5 1.5 1.5 1.5-.672 1.5-1.5" fill="#e31f26"/></g><path d="M6 9H0v6h6V9z" fill="#fff"/><g><path d="M4.5 12c0-.828-.672-1.5-1.5-1.5s-1.5.672-1.5 1.5.672 1.5 1.5 1.5 1.5-.672 1.5-1.5" fill="#e31f26"/></g></pattern><pattern height="12" width="12" patternUnits="userSpaceOnUse" patternTransform="matrix(.707 .707 -.707 .707 4183.52 7517.87)"><path d="M12-3H6v6h6v-6z" fill="#fff"/><g><path d="M10.5 0c0-.828-.672-1.5-1.5-1.5S7.5-.828 7.5 0 8.172 1.5 9 1.5 10.5.828 10.5 0" fill="#aad801"/></g><path d="M6-3H0v6h6v-6z" fill="#fff"/><g><path d="M4.5 0c0-.828-.672-1.5-1.5-1.5S1.5-.828 1.5 0 2.172 1.5 3 1.5 4.5.828 4.5 0" fill="#aad801"/></g><path d="M15 3H9v6h6V3z" fill="#fff"/><g><path d="M13.5 6c0-.828-.672-1.5-1.5-1.5s-1.5.672-1.5 1.5.672 1.5 1.5 1.5 1.5-.672 1.5-1.5" fill="#aad801"/></g><path d="M9 3H3v6h6V3z" fill="#fff"/><g><path d="M7.5 6c0-.828-.672-1.5-1.5-1.5S4.5 5.172 4.5 6 5.172 7.5 6 7.5 7.5 6.828 7.5 6" fill="#aad801"/></g><path d="M3 3h-6v6h6V3z" fill="#fff"/><g><path d="M1.5 6c0-.828-.672-1.5-1.5-1.5s-1.5.672-1.5 1.5.672 1.5 1.5 1.5S1.5 6.828 1.5 6" fill="#aad801"/></g><path d="M12 9H6v6h6V9z" fill="#fff"/><g><path d="M10.5 12c0-.828-.672-1.5-1.5-1.5s-1.5.672-1.5 1.5.672 1.5 1.5 1.5 1.5-.672 1.5-1.5" fill="#aad801"/></g><path d="M6 9H0v6h6V9z" fill="#fff"/><g><path d="M4.5 12c0-.828-.672-1.5-1.5-1.5s-1.5.672-1.5 1.5.672 1.5 1.5 1.5 1.5-.672 1.5-1.5" fill="#aad801"/></g></pattern><pattern height="12" width="12" patternUnits="userSpaceOnUse" patternTransform="matrix(.707 .707 -.707 .707 4183.52 7517.87)"><path d="M12-3H6v6h6v-6z" fill="#fff"/><g><path d="M10.5 0c0-.828-.672-1.5-1.5-1.5S7.5-.828 7.5 0 8.172 1.5 9 1.5 10.5.828 10.5 0" fill="#aad801"/></g><path d="M6-3H0v6h6v-6z" fill="#fff"/><g><path d="M4.5 0c0-.828-.672-1.5-1.5-1.5S1.5-.828 1.5 0 2.172 1.5 3 1.5 4.5.828 4.5 0" fill="#aad801"/></g><path d="M15 3H9v6h6V3z" fill="#fff"/><g><path d="M13.5 6c0-.828-.672-1.5-1.5-1.5s-1.5.672-1.5 1.5.672 1.5 1.5 1.5 1.5-.672 1.5-1.5" fill="#aad801"/></g><path d="M9 3H3v6h6V3z" fill="#fff"/><g><path d="M7.5 6c0-.828-.672-1.5-1.5-1.5S4.5 5.172 4.5 6 5.172 7.5 6 7.5 7.5 6.828 7.5 6" fill="#aad801"/></g><path d="M3 3h-6v6h6V3z" fill="#fff"/><g><path d="M1.5 6c0-.828-.672-1.5-1.5-1.5s-1.5.672-1.5 1.5.672 1.5 1.5 1.5S1.5 6.828 1.5 6" fill="#aad801"/></g><path d="M12 9H6v6h6V9z" fill="#fff"/><g><path d="M10.5 12c0-.828-.672-1.5-1.5-1.5s-1.5.672-1.5 1.5.672 1.5 1.5 1.5 1.5-.672 1.5-1.5" fill="#aad801"/></g><path d="M6 9H0v6h6V9z" fill="#fff"/><g><path d="M4.5 12c0-.828-.672-1.5-1.5-1.5s-1.5.672-1.5 1.5.672 1.5 1.5 1.5 1.5-.672 1.5-1.5" fill="#aad801"/></g></pattern><clipPath><path d="M0 863.584h938.953V0H0v863.584z"/></clipPath><clipPath><path d="M484.377 222.584l1.434-102.5c0-33.137 26.864-60 60-60 33.138 0 60.002 26.863 60.002 60v102.5H484.377z"/></clipPath><clipPath><path d="M528.878 164.014s-1.384-9.423 2.702-21.153l-1.714-.065s1.12-22.307-8.566-37.825c0 0-.37-2.52.32-4.795l14.23 1.574-1.57 26.68c0 3.03 2.9 3.163 2.9 3.163l39.864 1.99-.127.316-.922 9.307h-1.845s-.462 4.91-.758 6.096c0 0 1.63 1.334.89 2.224-.742.89-2.423 1.878-2.423 1.878s-.446.197-.643-.148c0 0-7.117 9.686-7.957 11.466l-.247.74s.84-2.718 1.63-4.496c.296-.664.845-1.844 1.41-3.07l.073.005 3.41-5.93c-1.087-.792-.543-3.213-.543-3.213.05-.94 1.63-5.636 1.63-5.636H535.98c-6.672 19.177-4.398 23.197-4.398 23.197-1.055-.13-2.702-2.306-2.702-2.306"/></clipPath><clipPath><path d="M484.377 222.584l1.434-102.5c0-33.137 26.864-60 60-60 33.138 0 60.002 26.863 60.002 60v102.5H484.377z"/></clipPath><pattern height="12" width="12" patternUnits="userSpaceOnUse" patternTransform="matrix(.707 .707 -.707 .707 4184.58 7528.7)"><path d="M12-3H6v6h6v-6z" fill="#fff"/><g><path d="M10.5 0c0-.828-.672-1.5-1.5-1.5S7.5-.828 7.5 0 8.172 1.5 9 1.5 10.5.828 10.5 0" fill="#ff9b0b"/></g><path d="M6-3H0v6h6v-6z" fill="#fff"/><g><path d="M4.5 0c0-.828-.672-1.5-1.5-1.5S1.5-.828 1.5 0 2.172 1.5 3 1.5 4.5.828 4.5 0" fill="#ff9b0b"/></g><path d="M15 3H9v6h6V3z" fill="#fff"/><g><path d="M13.5 6c0-.828-.672-1.5-1.5-1.5s-1.5.672-1.5 1.5.672 1.5 1.5 1.5 1.5-.672 1.5-1.5" fill="#ff9b0b"/></g><path d="M9 3H3v6h6V3z" fill="#fff"/><g><path d="M7.5 6c0-.828-.672-1.5-1.5-1.5S4.5 5.172 4.5 6 5.172 7.5 6 7.5 7.5 6.828 7.5 6" fill="#ff9b0b"/></g><path d="M3 3h-6v6h6V3z" fill="#fff"/><g><path d="M1.5 6c0-.828-.672-1.5-1.5-1.5s-1.5.672-1.5 1.5.672 1.5 1.5 1.5S1.5 6.828 1.5 6" fill="#ff9b0b"/></g><path d="M12 9H6v6h6V9z" fill="#fff"/><g><path d="M10.5 12c0-.828-.672-1.5-1.5-1.5s-1.5.672-1.5 1.5.672 1.5 1.5 1.5 1.5-.672 1.5-1.5" fill="#ff9b0b"/></g><path d="M6 9H0v6h6V9z" fill="#fff"/><g><path d="M4.5 12c0-.828-.672-1.5-1.5-1.5s-1.5.672-1.5 1.5.672 1.5 1.5 1.5 1.5-.672 1.5-1.5" fill="#ff9b0b"/></g></pattern><pattern height="12" width="12" patternUnits="userSpaceOnUse" patternTransform="matrix(.707 .707 -.707 .707 4188.39 7528.6)"><path d="M12-3H6v6h6v-6z" fill="#fff"/><g><path d="M10.5 0c0-.828-.672-1.5-1.5-1.5S7.5-.828 7.5 0 8.172 1.5 9 1.5 10.5.828 10.5 0" fill="#ff9b0b"/></g><path d="M6-3H0v6h6v-6z" fill="#fff"/><g><path d="M4.5 0c0-.828-.672-1.5-1.5-1.5S1.5-.828 1.5 0 2.172 1.5 3 1.5 4.5.828 4.5 0" fill="#ff9b0b"/></g><path d="M15 3H9v6h6V3z" fill="#fff"/><g><path d="M13.5 6c0-.828-.672-1.5-1.5-1.5s-1.5.672-1.5 1.5.672 1.5 1.5 1.5 1.5-.672 1.5-1.5" fill="#ff9b0b"/></g><path d="M9 3H3v6h6V3z" fill="#fff"/><g><path d="M7.5 6c0-.828-.672-1.5-1.5-1.5S4.5 5.172 4.5 6 5.172 7.5 6 7.5 7.5 6.828 7.5 6" fill="#ff9b0b"/></g><path d="M3 3h-6v6h6V3z" fill="#fff"/><g><path d="M1.5 6c0-.828-.672-1.5-1.5-1.5s-1.5.672-1.5 1.5.672 1.5 1.5 1.5S1.5 6.828 1.5 6" fill="#ff9b0b"/></g><path d="M12 9H6v6h6V9z" fill="#fff"/><g><path d="M10.5 12c0-.828-.672-1.5-1.5-1.5s-1.5.672-1.5 1.5.672 1.5 1.5 1.5 1.5-.672 1.5-1.5" fill="#ff9b0b"/></g><path d="M6 9H0v6h6V9z" fill="#fff"/><g><path d="M4.5 12c0-.828-.672-1.5-1.5-1.5s-1.5.672-1.5 1.5.672 1.5 1.5 1.5 1.5-.672 1.5-1.5" fill="#ff9b0b"/></g></pattern><clipPath><path d="M638.378 198.584l.58-78.5c0-33.137 26.863-60 60-60s60 26.863 60 60v78.5h-120.58z"/></clipPath><pattern height="12" width="12" patternUnits="userSpaceOnUse" patternTransform="matrix(.707 .707 -.707 .707 4184.32 7524.05)"><path d="M12-3H6v6h6v-6z" fill="#fff"/><g><path d="M10.5 0c0-.828-.672-1.5-1.5-1.5S7.5-.828 7.5 0 8.172 1.5 9 1.5 10.5.828 10.5 0" fill="#4dc6dd"/></g><path d="M6-3H0v6h6v-6z" fill="#fff"/><g><path d="M4.5 0c0-.828-.672-1.5-1.5-1.5S1.5-.828 1.5 0 2.172 1.5 3 1.5 4.5.828 4.5 0" fill="#4dc6dd"/></g><path d="M15 3H9v6h6V3z" fill="#fff"/><g><path d="M13.5 6c0-.828-.672-1.5-1.5-1.5s-1.5.672-1.5 1.5.672 1.5 1.5 1.5 1.5-.672 1.5-1.5" fill="#4dc6dd"/></g><path d="M9 3H3v6h6V3z" fill="#fff"/><g><path d="M7.5 6c0-.828-.672-1.5-1.5-1.5S4.5 5.172 4.5 6 5.172 7.5 6 7.5 7.5 6.828 7.5 6" fill="#4dc6dd"/></g><path d="M3 3h-6v6h6V3z" fill="#fff"/><g><path d="M1.5 6c0-.828-.672-1.5-1.5-1.5s-1.5.672-1.5 1.5.672 1.5 1.5 1.5S1.5 6.828 1.5 6" fill="#4dc6dd"/></g><path d="M12 9H6v6h6V9z" fill="#fff"/><g><path d="M10.5 12c0-.828-.672-1.5-1.5-1.5s-1.5.672-1.5 1.5.672 1.5 1.5 1.5 1.5-.672 1.5-1.5" fill="#4dc6dd"/></g><path d="M6 9H0v6h6V9z" fill="#fff"/><g><path d="M4.5 12c0-.828-.672-1.5-1.5-1.5s-1.5.672-1.5 1.5.672 1.5 1.5 1.5 1.5-.672 1.5-1.5" fill="#4dc6dd"/></g></pattern><clipPath><path d="M638.378 198.584l.58-78.5c0-33.137 26.863-60 60-60s60 26.863 60 60v78.5h-120.58z"/></clipPath><pattern height="12" width="12" patternUnits="userSpaceOnUse" patternTransform="matrix(.707 .707 -.707 .707 4184.32 7524.05)"><path d="M12-3H6v6h6v-6z" fill="#fff"/><g><path d="M10.5 0c0-.828-.672-1.5-1.5-1.5S7.5-.828 7.5 0 8.172 1.5 9 1.5 10.5.828 10.5 0" fill="#4dc6dd"/></g><path d="M6-3H0v6h6v-6z" fill="#fff"/><g><path d="M4.5 0c0-.828-.672-1.5-1.5-1.5S1.5-.828 1.5 0 2.172 1.5 3 1.5 4.5.828 4.5 0" fill="#4dc6dd"/></g><path d="M15 3H9v6h6V3z" fill="#fff"/><g><path d="M13.5 6c0-.828-.672-1.5-1.5-1.5s-1.5.672-1.5 1.5.672 1.5 1.5 1.5 1.5-.672 1.5-1.5" fill="#4dc6dd"/></g><path d="M9 3H3v6h6V3z" fill="#fff"/><g><path d="M7.5 6c0-.828-.672-1.5-1.5-1.5S4.5 5.172 4.5 6 5.172 7.5 6 7.5 7.5 6.828 7.5 6" fill="#4dc6dd"/></g><path d="M3 3h-6v6h6V3z" fill="#fff"/><g><path d="M1.5 6c0-.828-.672-1.5-1.5-1.5s-1.5.672-1.5 1.5.672 1.5 1.5 1.5S1.5 6.828 1.5 6" fill="#4dc6dd"/></g><path d="M12 9H6v6h6V9z" fill="#fff"/><g><path d="M10.5 12c0-.828-.672-1.5-1.5-1.5s-1.5.672-1.5 1.5.672 1.5 1.5 1.5 1.5-.672 1.5-1.5" fill="#4dc6dd"/></g><path d="M6 9H0v6h6V9z" fill="#fff"/><g><path d="M4.5 12c0-.828-.672-1.5-1.5-1.5s-1.5.672-1.5 1.5.672 1.5 1.5 1.5 1.5-.672 1.5-1.5" fill="#4dc6dd"/></g></pattern><clipPath id="f"><path d="M0 863.584h938.953V0H0v863.584z"/></clipPath><clipPath id="e"><path d="M484.377 222.584l1.434-102.5c0-33.137 26.864-60 60-60 33.138 0 60.002 26.863 60.002 60v102.5H484.377z"/></clipPath><clipPath id="d"><path d="M528.878 164.014s-1.384-9.423 2.702-21.153l-1.714-.065s1.12-22.307-8.566-37.825c0 0-.37-2.52.32-4.795l14.23 1.574-1.57 26.68c0 3.03 2.9 3.163 2.9 3.163l39.864 1.99-.127.316-.922 9.307h-1.845s-.462 4.91-.758 6.096c0 0 1.63 1.334.89 2.224-.742.89-2.423 1.878-2.423 1.878s-.446.197-.643-.148c0 0-7.117 9.686-7.957 11.466l-.247.74s.84-2.718 1.63-4.496c.296-.664.845-1.844 1.41-3.07l.073.005 3.41-5.93c-1.087-.792-.543-3.213-.543-3.213.05-.94 1.63-5.636 1.63-5.636H535.98c-6.672 19.177-4.398 23.197-4.398 23.197-1.055-.13-2.702-2.306-2.702-2.306"/></clipPath><clipPath id="a"><path d="M484.377 222.584l1.434-102.5c0-33.137 26.864-60 60-60 33.138 0 60.002 26.863 60.002 60v102.5H484.377z"/></clipPath><pattern id="b" height="12" width="12" patternUnits="userSpaceOnUse" patternTransform="matrix(.707 .707 -.707 .707 4184.58 7528.7)"><path d="M12-3H6v6h6v-6z" fill="#fff"/><g><path d="M10.5 0c0-.828-.672-1.5-1.5-1.5S7.5-.828 7.5 0 8.172 1.5 9 1.5 10.5.828 10.5 0" fill="#ff9b0b"/></g><path d="M6-3H0v6h6v-6z" fill="#fff"/><g><path d="M4.5 0c0-.828-.672-1.5-1.5-1.5S1.5-.828 1.5 0 2.172 1.5 3 1.5 4.5.828 4.5 0" fill="#ff9b0b"/></g><path d="M15 3H9v6h6V3z" fill="#fff"/><g><path d="M13.5 6c0-.828-.672-1.5-1.5-1.5s-1.5.672-1.5 1.5.672 1.5 1.5 1.5 1.5-.672 1.5-1.5" fill="#ff9b0b"/></g><path d="M9 3H3v6h6V3z" fill="#fff"/><g><path d="M7.5 6c0-.828-.672-1.5-1.5-1.5S4.5 5.172 4.5 6 5.172 7.5 6 7.5 7.5 6.828 7.5 6" fill="#ff9b0b"/></g><path d="M3 3h-6v6h6V3z" fill="#fff"/><g><path d="M1.5 6c0-.828-.672-1.5-1.5-1.5s-1.5.672-1.5 1.5.672 1.5 1.5 1.5S1.5 6.828 1.5 6" fill="#ff9b0b"/></g><path d="M12 9H6v6h6V9z" fill="#fff"/><g><path d="M10.5 12c0-.828-.672-1.5-1.5-1.5s-1.5.672-1.5 1.5.672 1.5 1.5 1.5 1.5-.672 1.5-1.5" fill="#ff9b0b"/></g><path d="M6 9H0v6h6V9z" fill="#fff"/><g><path d="M4.5 12c0-.828-.672-1.5-1.5-1.5s-1.5.672-1.5 1.5.672 1.5 1.5 1.5 1.5-.672 1.5-1.5" fill="#ff9b0b"/></g></pattern><pattern id="c" height="12" width="12" patternUnits="userSpaceOnUse" patternTransform="matrix(.707 .707 -.707 .707 4188.39 7528.6)"><path d="M12-3H6v6h6v-6z" fill="#fff"/><g><path d="M10.5 0c0-.828-.672-1.5-1.5-1.5S7.5-.828 7.5 0 8.172 1.5 9 1.5 10.5.828 10.5 0" fill="#ff9b0b"/></g><path d="M6-3H0v6h6v-6z" fill="#fff"/><g><path d="M4.5 0c0-.828-.672-1.5-1.5-1.5S1.5-.828 1.5 0 2.172 1.5 3 1.5 4.5.828 4.5 0" fill="#ff9b0b"/></g><path d="M15 3H9v6h6V3z" fill="#fff"/><g><path d="M13.5 6c0-.828-.672-1.5-1.5-1.5s-1.5.672-1.5 1.5.672 1.5 1.5 1.5 1.5-.672 1.5-1.5" fill="#ff9b0b"/></g><path d="M9 3H3v6h6V3z" fill="#fff"/><g><path d="M7.5 6c0-.828-.672-1.5-1.5-1.5S4.5 5.172 4.5 6 5.172 7.5 6 7.5 7.5 6.828 7.5 6" fill="#ff9b0b"/></g><path d="M3 3h-6v6h6V3z" fill="#fff"/><g><path d="M1.5 6c0-.828-.672-1.5-1.5-1.5s-1.5.672-1.5 1.5.672 1.5 1.5 1.5S1.5 6.828 1.5 6" fill="#ff9b0b"/></g><path d="M12 9H6v6h6V9z" fill="#fff"/><g><path d="M10.5 12c0-.828-.672-1.5-1.5-1.5s-1.5.672-1.5 1.5.672 1.5 1.5 1.5 1.5-.672 1.5-1.5" fill="#ff9b0b"/></g><path d="M6 9H0v6h6V9z" fill="#fff"/><g><path d="M4.5 12c0-.828-.672-1.5-1.5-1.5s-1.5.672-1.5 1.5.672 1.5 1.5 1.5 1.5-.672 1.5-1.5" fill="#ff9b0b"/></g></pattern></defs><g><g><g clip-path="url(#a)" transform="matrix(1.25 0 0 -1.25 -606.326 271.779)"><g><path d="M605.81 120.084c0-33.137-26.862-60-60-60-33.136 0-60 26.863-60 60s26.864 60 60 60c33.138 0 60-26.863 60-60" fill="#fff"/></g><g><path d="M605.81 120.084c0-33.137-26.862-60-60-60-33.136 0-60 26.863-60 60s26.864 60 60 60c33.138 0 60-26.863 60-60z" fill="none" stroke="#231f20" stroke-width="1.5"/></g><g><path d="M517.767 52.667l.015.765c.145 7.18.698 29.543 2.056 34.46-.397.133-1.107.3-2.268.363-2.472.13-9.733.998-13.033 2.372-1.868.778-3.07 1.46-4.13 2.06-.75.426-1.395.793-2.138 1.11-2.14.92-4.235 3.983-5.044 5.475-1.06 1.958.325 9.61 1.22 11.78.424 1.034.83 2.97 1.186 4.68.41 1.967.677 3.195.99 3.873-.18.594-.39 1.746.334 2.54.423.466.61 1.052.662 1.24.017.86.26 1.8.86 2.24-.056.812-.005 2.18.832 2.967-.2.646-.418 1.657-.127 2.413.28.732.976 1.23 1.534 1.63.117.082.265.188.36.265-.01.177-.05.474-.08.705-.136 1.02-.303 2.288.118 3.183.162.344.32.635.458.895.31.578.46.87.46 1.224 0 .985.17 2.548.65 3.712.24.58.52 1.038.766 1.44.235.386.44.718.516 1.026.208.83.56 1.86 1.103 2.404.125.577.43 1.9.72 2.534.066.146.084.25.107.38.103.594.314.97 1.18 1.374 1.033.48 2.497 1.48 3.273 2.533.856 1.163 1.923 2.61 3.596 3.167.414.138.81.253 1.193.364.864.252 1.612.468 2.27.88.74.463 1.54.803 2.07 1.03.232.098.415.17.51.23.075.054.178.178.305.317.354.386.838.914 1.46 1.225.545.272 1.06.385 1.557.494.32.07.662.143 1.045.27.374.126.852.554 1.273.93.5.45.974.874 1.495 1.048.528.176 1.027.323 1.31.405.478.602 1.5 1.783 2.493 2.23.253 1.116 1.108 3.858 3.52 4.625-.024.792-.106 2.287-.406 3.803-.522.697-2.42 3.363-2.47 5.34-.035 1.372-.17 2.61-.242 3.2-.762.446-2.088 1.396-2.03 2.587.024.536-.008 1.076-.043 1.647-.03.485-.058.987-.058 1.53 0 2.143.08 3.218.17 3.778l-1.054.918.615.385c-.086.143-.213.37-.213.37l-.146.26.14.55.057.17c-.05.06-.09.115-.117.153-.134.168-.255.316-.32.51-.187.35-.042.68.063.857-.057.142-.1.29-.1.467v.128c-.035.21-.026.394 0 .54v.082l.016.002c.015.07.034.127.05.173l.157.625-.05.768.11.09-.035.077c-.143.242-.28.586-.193.927 0 .065.005.142.018.226l-.002.005c-.113.132-.238.33-.238.608v.513l.46.885.077.273.042.077c.003.006.09.16.136.27.027.173.105.36.233.56l.102.16.03.02.02.05c-.018.16-.003.405.2.674.073.1.205.242.298.34.023.167.062.356.15.513l-.007.005.17.26c-.002.027-.008.06-.017.1-.12.236-.07.464-.032.638.023.1.027.206.032.298.015.226.03.46.176.68l.037.056c.055.114.115.198.175.26l.01.018.067.056c.05.09.113.182.21.264l.04.06c.1.382.42.51.53.555.17.07.404.108.592.13.026.035.052.065.073.09.067.105.125.16.238.274.042.04.08.075.113.103l.463 1.257.507.304.195.52.405.354.33.24 1.297.683.38.274.85.163c.096.02.22.05.293.075.117.104.25.203.354.273.128.086.38.213.38.213l.2.103.618-.076c.14.046.335.107.422.13.088.032.316.16.316.16l.115.065.147.02.224.16.69.13.352.052.057-.006c.055.075.11.134.152.176l.572.574.562-.655.21.104h.176l.073.05c.16.068.34.146.553.146.128 0 .245-.02.344-.046.158.12.372.217.625.217h.074l.125-.02c.192-.038.394-.135.537-.214l.012-.002.148.093.666.126.636.048.954-.158.02-.026c.096.028.198.048.308.048.13.005.222.01.314.01.247 0 .507-.02.727-.168-.016.01-.016.016-.006.016.014 0 .046-.01.078-.018.176-.05.342-.098.49-.196.053-.035.098-.074.138-.113l.072.005c.007 0 .154.018.29.018.147 0 .266-.017.374-.053.056-.016.176-.042.284-.065l.22-.05c.394-.027.673-.143.843-.344.104.024.227.043.35.043h.074l.148-.02c.268-.056.464-.177.62-.275l-.044-.164h.098l.05.11c.098-.033.275-.09.46-.253.062-.046.114-.098.16-.15.034-.005.076-.01.105-.01.128-.014.28-.03.434-.104.18-.042.512-.14.724-.493.07-.115.103-.15.104-.152.09-.017.243-.08.395-.194.22-.148.483-.327.65-.66.142-.088.335-.24.427-.5.026-.038.06-.077.088-.112.053-.065.1-.125.13-.17.017-.02.075-.08.133-.134h.234l.48-.134.536-.238c.254-.008.49-.107.662-.28.076-.076.266-.322.39-.486.157-.087.32-.208.43-.372.164-.247.266-.696.266-.91.008-.06.055-.26.055-.26l.02-.084-.007-.672c-.002-.064-.007-.136-.003-.19.032-.074.082-.266.062-.533l.333-.056.156-.132c.103-.086.354-.32.477-.625.06-.146.282-.53.284-.534l.1-.174v-.2c0-.017.002-.142.026-.333l.15-.158c.204-.104.445-.28.556-.57.157-.112.452-.35.452-.782 0-.142-.026-.256-.047-.338l.17-.075.117-.15c.408-.53.45-.663.48-.75.078-.236.06-.4 0-.59-.013-.047-.037-.127-.07-.276-.068-.29-.156-.517-.22-.68l-.016-.043v-.09c.067-.092.137-.2.192-.32.118-.098.284-.273.32-.56l.038-.313-.145-.208c.042-.1.083-.218.107-.337.038-.157.076-.31.065-.506.028-.103.042-.193.05-.252.01-.06.017-.1.024-.124.095-.17.068-.367.045-.524-.034-.235-.1-.64-.1-.64l-.033-.198-.127-.156c-.003-.003-.158-.19-.263-.335.09-.216.12-.38.127-.418l.047-.294-.317-.475c-.02-.086-.057-.202-.13-.348-.036-.186-.117-.336-.3-.55-.102-.12-.13-.165-.175-.234l-.1-.154c-.072-.11-.088-.15-.135-.27-.054-.135-.1-.225-.142-.31l-.02-.037c-.01-.21-.11-.362-.183-.467-.152-.228-.258-.44-.263-.45l-.035-.07-.094-.118c.068-.887.164-2.73-.128-3.508-.01-.07.01-.414.026-.666.085-1.39.254-4.192-2.644-5.04-.007-1.34-.147-4.116-1.11-5.44.036-1.026.156-4.466.19-5.972 1.295-.402 4.296-1.743 6.023-5.803.782-.35 3.13-1.378 4.988-1.97.61-.196 1.625-.427 2.798-.695 4.266-.972 7.617-1.826 8.73-3.207 1.432-1.778 4.116-5.746 5.234-7.475.563-.87 1.39-3.645 2.694-8.1.98-3.354 2.082-7.118 2.837-8.854.47-.01 1.2-.054 1.915-.217.272-.062.597-.126.946-.196 1.117-.223 2.38-.475 3.164-.846.108-.05.24-.1.385-.157 1.1-.427 3.342-1.3 2.956-4.508.37-.41.93-1.197.966-2.205.03-.877-.324-1.705-1.057-2.465-.035-.122-.06-.26-.056-.332l.015-.125c.082-.63.317-2.425-.797-3.523.074-.617.126-1.712-.276-2.578-.188-.407.09-.994.384-1.614.144-.305.293-.62.393-.934l.09-.273c.383-1.124 1.282-3.758-.063-7.058-1.1-2.705-1.43-3.918-1.628-4.642-.046-.17-.087-.318-.128-.455-.182-.607-2.39-5.107-5.586-5.107-1.19 0-2.1.345-2.766.762l.03-.823c.036-.862-.464-3.14-3.176-3.298l-8.664-.496c.135-.92.326-2.422.326-3.56 0-1.65 1.173-37.268 1.185-37.63l.027-.773h-61.54z" fill="#fff"/></g><g><path d="M541.648 217.423l-1.132-1.133-.12-.017-.032-.004-.033-.007-.526-.1-.326-.06-.217-.156-.103-.017-.222-.12c-.01-.006-.133-.075-.23-.118-.064-.02-.144-.043-.222-.068l-.237.028-.453.054-.393-.202s-.304-.156-.458-.258c-.07-.047-.18-.124-.3-.22l-.085-.02-.678-.128-.317-.06-.263-.184-.252-.177-1.168-.615-.09-.047-.083-.06-.23-.164-.062-.042-.056-.05-.264-.23-.284-.248-.132-.354-.037-.096-.056-.034-.453-.272-.182-.495-.23-.627-.08-.214-.002-.003c-.064-.063-.125-.125-.184-.197-.162-.03-.324-.073-.466-.13-.53-.212-.79-.563-.914-.87-.073-.078-.13-.155-.176-.226-.138-.135-.25-.29-.336-.47-.25-.382-.274-.774-.29-1.034-.003-.056-.004-.12-.016-.184-.035-.16-.1-.456-.026-.796-.08-.144-.147-.316-.197-.52-.073-.08-.147-.168-.207-.248-.157-.21-.32-.51-.35-.895l-.036-.057c-.156-.246-.262-.49-.317-.73-.033-.068-.07-.134-.075-.14l-.083-.152-.047-.167-.032-.114-.34-.653-.17-.325v-.698c0-.332.097-.6.213-.805-.052-.343.01-.666.114-.942l.04-.625.017-.26-.117-.474c-.085-.243-.165-.62-.1-1.08v-.063c0-.156.02-.297.05-.42-.18-.504-.082-.935.065-1.245.082-.202.192-.362.283-.48l-.023-.094-.145-.578.15-.265-.86-.537 1.51-1.32c-.074-.688-.123-1.757-.123-3.478 0-.57.03-1.08.06-1.574.032-.55.063-1.07.04-1.567-.067-1.406 1.133-2.462 2.078-3.07.072-.645.166-1.664.194-2.77.052-2.08 1.805-4.666 2.516-5.633.212-1.125.3-2.22.34-2.99-1.958-.9-2.987-2.99-3.408-4.624-.88-.506-1.698-1.375-2.27-2.08-.295-.086-.693-.207-1.112-.347-.668-.223-1.222-.72-1.758-1.2-.312-.28-.783-.7-1.01-.777-.336-.113-.642-.18-.967-.25-.518-.114-1.104-.243-1.733-.557-.746-.373-1.306-.985-1.677-1.39-.072-.078-.136-.15-.193-.208-.085-.04-.213-.092-.363-.156-.55-.235-1.383-.59-2.175-1.084-.57-.356-1.237-.55-2.082-.795-.39-.112-.797-.23-1.22-.37-1.9-.634-3.093-2.253-3.964-3.434-.745-1.012-2.194-1.93-2.985-2.298-.992-.464-1.442-1.003-1.602-1.925-.02-.113-.025-.142-.05-.198-.29-.635-.577-1.812-.73-2.49-.47-.56-.85-1.423-1.14-2.577-.048-.195-.224-.482-.428-.814-.25-.406-.56-.91-.82-1.55-.673-1.63-.707-3.615-.707-3.997 0-.164-.102-.368-.37-.868-.146-.272-.308-.574-.476-.932-.516-1.095-.332-2.485-.184-3.6l.034-.26c-.002 0-.004-.002-.005-.004-.607-.433-1.436-1.027-1.8-1.97-.307-.8-.19-1.756-.004-2.495-.587-.78-.793-1.84-.77-2.854-.497-.55-.8-1.393-.837-2.425-.064-.2-.218-.573-.47-.85-.857-.943-.755-2.196-.567-2.983-.28-.72-.53-1.84-.934-3.78-.352-1.678-.75-3.58-1.148-4.548-.8-1.946-2.466-10.058-1.185-12.424.915-1.688 3.082-4.81 5.407-5.807.704-.303 1.334-.66 2.064-1.074 1.025-.582 2.3-1.305 4.21-2.1 3.583-1.493 11.097-2.315 13.283-2.43.58-.03 1.033-.09 1.378-.153-.412-2.038-.89-6.55-1.347-17.216-.358-8.375-.526-16.607-.528-16.69l-.03-1.53h63.08l-.05 1.55c-.41 12.433-1.186 36.293-1.186 37.602 0 .884-.11 1.972-.223 2.86l7.853.45c2.722.156 3.773 2.157 3.878 3.68.583-.2 1.247-.323 1.992-.323 3.697 0 6.094 4.938 6.305 5.64.044.143.086.298.134.476.192.71.515 1.894 1.598 4.554 1.45 3.56.488 6.38.078 7.583-.033.096-.063.18-.086.256-.115.363-.275.702-.43 1.03-.137.288-.392.826-.373 1 .404.864.425 1.89.368 2.613.725.897.98 2.196.76 3.876l-.002.014c.95 1.073 1.132 2.12 1.106 2.838-.038 1.05-.52 1.885-.94 2.42.258 3.518-2.413 4.557-3.46 4.964-.128.05-.243.093-.337.137-.867.41-2.18.672-3.337.903-.342.068-.66.13-.926.192-.556.126-1.114.187-1.57.216-.724 1.827-1.727 5.256-2.628 8.335-1.362 4.657-2.163 7.34-2.784 8.298-1.013 1.565-3.75 5.637-5.28 7.54-1.267 1.57-4.59 2.428-9.15 3.467-1.155.264-2.153.49-2.734.677-1.647.525-3.698 1.405-4.647 1.824-1.65 3.655-4.305 5.17-5.857 5.77-.042 1.55-.13 4.125-.17 5.23.84 1.376 1.053 3.622 1.095 5.113 2.918 1.19 2.73 4.344 2.652 5.62-.01.168-.023.39-.023.505.253.85.218 2.324.144 3.412l.034.066c.006.013.087.176.17.3l.042.063c.077.113.226.333.286.656.042.083.08.167.113.247l.022.054c.034.087.034.087.064.132.047.07.08.122.11.17.028.043.047.07.11.146.234.272.368.51.445.792.046.102.08.193.105.276l.087.13.33.495-.098.584-.03.145.007.008.26.314.058.393s.068.414.103.656c.025.18.07.49-.07.86v.01c-.012.074-.025.144-.04.21 0 .25-.046.434-.073.542-.015.073-.033.143-.052.21.06.204.077.417.05.63-.042.35-.19.655-.44.913.05.143.104.32.15.52.03.124.05.19.06.228.08.265.142.596-.007 1.045-.063.187-.15.387-.597.968l-.086.11c0 .49-.203.912-.6 1.26-.138.242-.337.453-.585.62l-.007.355-.19.35c-.004.008-.182.314-.248.46-.17.428-.5.75-.68.902l-.275.23-.01.037c.002.012.002.025.003.038.003.073.005.14.005.193v.597l-.037.164c0 .008-.027.122-.04.205-.024.326-.147.853-.388 1.215-.148.22-.342.39-.536.52-.242.318-.333.41-.376.452-.272.27-.623.44-1.006.487l-.368.163-.1.045-.107.03-.33.09-.193.055-.022.027-.016.02c-.155.34-.392.553-.537.672-.244.37-.552.578-.712.687-.147.108-.282.185-.394.24-.245.362-.603.608-1.067.733-.168.07-.325.102-.45.12l-.02.014c-.255.22-.5.316-.645.365-.187.117-.468.29-.865.37-.118.023-.243.035-.37.035-.042 0-.084-.002-.125-.004-.237.154-.554.27-.977.304l-.158.035c-.087.02-.18.04-.24.055-.144.05-.344.08-.57.08-.046 0-.092-.002-.136-.004-.228.14-.45.203-.65.26l-.056.017c-.327.157-.66.18-.95.18-.102 0-.204-.003-.283-.006-.108 0-.207-.01-.3-.024l-.207.035-.593.1-.176.028-.18-.012-.46-.032-.086-.006-.084-.016-.527-.1-.15-.027c-.126.05-.262.095-.4.122-.114.023-.23.035-.346.035-.27 0-.536-.063-.775-.18-.06.006-.126.01-.194.01-.32 0-.584-.096-.774-.176l-.756.883zm4.66-2.008l.593-.1s.14-.168.267-.168c.01 0 .02 0 .03.004.132.034.33.133.43.133.048 0 .18.008.312.008.13 0 .263-.007.312-.04.1-.066.46-.132.56-.198.1-.066.1-.198.198-.23.033-.012.1-.015.172-.015.146 0 .322.014.322.014s.117.016.225.016c.052 0 .103-.004.136-.015.1-.032.43-.097.56-.13.132-.033.43 0 .462-.132.03-.124-.055-.365.128-.365.01 0 .023 0 .037.002.23.033.395.1.395.1s.194.072.353.072c.027 0 .053-.002.076-.007.165-.033.297-.132.462-.23.164-.1.263-.066.395-.198.034-.034.046-.044.05-.044.003 0-.013.02-.012.02.002 0 .02-.02.095-.108.198-.23.626-.165.725-.23.1-.066.296-.034.395-.198.1-.165.198-.297.297-.363.098-.067.263-.1.395-.198.132-.1.33-.198.428-.396.1-.198.363-.296.396-.428.034-.132.23-.337.297-.435.066-.1.43-.47.527-.47h.363l.33-.09.658-.294s.043.013.098.013c.053 0 .117-.013.166-.06.098-.1.427-.552.427-.552s.23-.094.297-.193c.066-.098.14-.393.14-.492 0-.098.074-.426.074-.426v-.43c0-.13-.025-.394.008-.493.033-.1.07-.23.037-.428-.033-.2.02-.463.02-.463l.354-.197.392-.066s.195-.165.26-.33c.067-.164.33-.626.33-.626s0-.165.032-.428c.033-.264.197-.46.197-.46l.263-.232s.263-.1.296-.23c.01-.048.002-.057-.01-.057-.006 0-.014.005-.017.005-.005 0 .005-.012.06-.08.13-.164.36-.23.36-.362 0-.132-.064-.23-.064-.395s.032-.23.097-.363c.066-.132.363-.263.363-.263s.33-.43.362-.528c.033-.098.01-.032-.09-.46-.098-.43-.254-.693-.254-.792v-.46s.222-.23.287-.43c.066-.197.325-.197.194-.362-.133-.164-.102-.46-.102-.46s.114-.2.147-.363c.033-.165.073-.23.04-.396-.033-.164.004.1.07-.328.066-.43.1-.198.068-.43-.033-.23-.098-.625-.098-.625s-.296-.362-.395-.527c-.1-.165-.197-.165-.066-.395.132-.23.165-.43.165-.43s-.133-.196-.198-.295c-.066-.1-.033-.165-.132-.363-.1-.197 0-.164-.198-.395-.198-.23-.198-.264-.33-.46-.13-.2-.164-.298-.23-.462-.066-.165-.198-.363-.198-.462 0-.1.033-.033-.098-.23-.132-.198-.264-.462-.264-.462l-.23-.288s.238-2.69-.058-3.48c-.297-.79 1.083-4.73-2.673-5.373 0 0 .122-4.54-1.113-5.775 0 0 .21-5.878.21-6.817 0 0 4.156-.69 6.182-5.78 0 0 3.017-1.384 5.34-2.125 2.323-.74 9.737-1.878 11.17-3.657 1.434-1.778 4.104-5.732 5.19-7.412 1.088-1.68 4.153-14.283 5.685-17.298 0 0 .093.004.25.004.396 0 1.198-.025 1.974-.202 1.086-.247 3.014-.543 3.953-.988.94-.445 3.46-.89 2.867-4.25 0 0 2.248-1.88.05-4.004 0 0-.174-.445-.15-.79.026-.347.47-2.422-.84-3.287 0 0 .322-1.557-.148-2.57-.47-1.014.445-2.15.742-3.09.296-.938 1.408-3.484.05-6.82-1.36-3.336-1.558-4.423-1.78-5.164-.222-.743-2.323-4.573-4.868-4.573-2.546 0-3.583 1.83-3.583 1.83l.098-2.67s.1-2.372-2.47-2.52l-9.49-.544s.446-2.583.446-4.264c0-1.68 1.186-37.652 1.186-37.652h-60s.66 32.8 2.24 34.842c0 0-.658.612-3.162.744-2.505.132-9.62.998-12.785 2.316-3.163 1.318-4.415 2.377-6.26 3.168-1.845.79-3.822 3.56-4.68 5.142-.855 1.582.33 8.897 1.254 11.138.92 2.24 1.646 7.974 2.305 8.765 0 0-.593 1.384.066 2.11.66.724.857 1.647.857 1.647s0 1.845.923 1.845c0 0-.46 2.57.923 3.163 0 0-.66 1.58-.33 2.438.33.857 1.713 1.45 1.91 1.845.2.397-.526 2.77 0 3.89.528 1.12.99 1.647.99 2.437 0 .79.13 2.307.593 3.427.46 1.12 1.12 1.78 1.318 2.57.197.79.593 1.91 1.054 2.175 0 0 .395 1.91.725 2.635.33.724-.066.922.922 1.383.99.462 2.636 1.516 3.56 2.768.922 1.252 1.844 2.438 3.228 2.9 1.384.46 2.57.66 3.624 1.318 1.055.66 2.24 1.054 2.57 1.252.33.197.923 1.12 1.714 1.515.79.397 1.516.397 2.505.726.988.33 1.977 1.714 2.767 1.977.79.264 1.516.46 1.516.46s1.648 2.176 2.702 2.308c0 0 .593 4.152 3.624 4.614 0 0 .033 2.34-.46 4.71 0 0-2.373 3.065-2.423 5.042-.048 1.977-.295 3.658-.295 3.658s-2.027 1.038-1.977 2.076c.05 1.037-.1 2.026-.1 3.212 0 1.186.05 3.707.248 4.003.198.297-.362.363-.362.363l-.264.23.264.165.098.132s-.098.165-.13.263c-.034.1-.133.165-.2.264-.065.1-.23.395-.23.395l.066.264.1.298s.032.098.032.197c0 .1-.23.33-.297.43-.065.098-.197.23-.23.328-.033.1-.1.1.033.297.132.197.1 0 .132.197.033.198-.165.396-.165.594 0 .06.006.074.012.074.007 0 .015-.017.017-.017.002 0-.004.026-.03.14-.065.298.034.495.034.495l.197.79-.032.495s.165.132.165.264c0 .133-.197.594-.197.594s-.165.264-.132.396c.033.13 0 .362.1.46.097.1-.133.133-.1.23.033.1-.198.2-.198.33v.33l.412.79.074.265s.218.395.218.494c0 .098.126.295.126.295s.178.1.178.198c0 .1.106.297.106.396 0 .097-.063.13.036.262.1.132.33.363.33.363s.007-.007.017-.007c.022 0 .06.032.084.237l.032.297.198.296c.01.014.015.02.02.02.013 0-.003-.07 0-.07l.046.15c.1.33-.033.592-.033.724 0 .027-.003.036-.006.036-.008 0-.02-.04-.023-.04 0 0 .005.028.03.136.065.296.032.626.098.725.015.02.023.028.028.028.008 0 .004-.023.006-.023 0 0 .008.02.032.093.066.197.132.098.23.296.1.198.034 0 .23.297.2.297.034.23.2.297.164.066.56.1.56.1s.13 0 .263.164c.043.053.05.066.05.066l-.01-.01c-.002 0 .014.02.092.11.198.23.033.065.198.23s.23.132.297.363c.016.054.018.07.016.07-.003 0-.012-.023-.013-.023l.128.347.23.626.33.198.198.164.198.528.264.23.23.165 1.252.66.33.23.692.13s.494.1.593.2c.1.098.23.197.33.263.098.066.296.165.296.165l.56-.066s.396.13.528.164.494.232.494.232l.198.033.23.165.528.098.23.033.33-.032s.198.1.23.198c.034.1.165.23.165.23l.198-.23.298-.165.296.1.198.1s.033 0 .165.032c.13.033.362.165.46.165.1 0 .2-.033.297-.066.01-.002.02-.003.033-.003.13 0 .43.136.43.136s.077.104.21.104c.017 0 .034-.002.052-.005.164-.033.428-.198.428-.198l.428-.066.264.165.527.1.46.032" fill="#231f20"/></g><g><path d="M0 0c1.186-.46 2.768-1.054 4.48-2.043C6.195-3.03 7.91-2.965 9.556-3.36c1.648-.396 3.954.46 5.14.658 1.186.198 2.702.066 4.218.593 1.515.528 2.57.858 4.02 1.65 1.45.79.527 2.173.527 2.173s2.9 1.186 2.833 2.373c-.04.742-.883.994-1.507 1.08l.914-.158 30.758 2.027c.06.13.605-2.39.445-4.43-.132-1.676 1.186-37.82 1.186-37.82h-60S-1.253-2.246.33-.204L0 0z" fill="url(#b)" transform="translate(520.443 88.298)"/></g><g><path d="M0 0l-1.57 26.68c0 3.03 2.9 3.163 2.9 3.163l39.864 1.99-.128.316-.922 9.307H38.3s-.463 4.91-.76 6.096c0 0 1.632 1.334.89 2.224-.74.89-2.42 1.878-2.42 1.878s-.446.197-.644-.15c0 0-7.117 9.688-7.957 11.468l-.248.74s.84-2.717 1.63-4.497c.296-.663.846-1.843 1.41-3.07l.074.006 3.41-5.93c-1.087-.79-.544-3.213-.544-3.213.05-.94 1.63-5.635 1.63-5.635H.13c-6.673 19.176-4.4 23.196-4.4 23.196-1.054-.13-2.7-2.306-2.7-2.306s-1.385-9.423 2.7-21.153l-1.712-.065S-4.864 18.74-14.55 3.22c0 0-.372-2.52.32-4.794" fill="url(#c)" transform="translate(535.851 101.75)"/></g></g></g><g><g clip-path="url(#d)" transform="matrix(1.25 0 0 -1.25 -606.326 271.779)"><g><path d="M521.62 100.176s.602-.28 1.986.18c1.384.463 2.57 1.056 4.02 1.253 1.45.197 2.438.33 4.02.197" fill="none" stroke="#231f20" stroke-width=".5"/></g><g><path d="M531.645 101.807c.898-.075 2.73-.15 4.398-.237" fill="none" stroke="#231f20" stroke-width=".5"/></g><g><path d="M535.85 101.75l.013-.207" fill="none" stroke="#231f20" stroke-width=".5"/></g></g></g><g><g clip-path="url(#e)" transform="matrix(1.25 0 0 -1.25 -606.326 271.779)"><g><path d="M534.743 175.645s5.074-6.36 10.74-6.36c5.668 0 8.568 5.01 8.568 5.01" fill="none" stroke="#231f20" stroke-width=".5"/></g><g><path d="M530.196 193.487l.198-.222.1-.408.27-.476.124-.376v-.444s-.1-.445.1-.643c.197-.198.295-.1.246-.445-.05-.346-.297.05-.05-.346l.248-.395.197.05.148.445s.173.297.123.692c-.048.395-.024.395-.024.593v.84s.15.445.05.643c-.1.197-.1.494-.1.494s-.147.05.05.494c.198.446.198.15.198.446 0 .297-.198.79-.198.94 0 .147-.05.296 0 .493l.1.395s.345.445.444.74c.1.298.198.347.198.495 0 .15.05.346.05.544v.445l.543.84-.197.938.05.544s.197.642.197.84c0 .198 0 .494.05.692.05.197-.15-.148.05.197.197.347.197.743.444.89.247.15.445.298.445.298s.295.098.493.148c.198.05.544.148.74.1.2-.05.792-.05.792-.05l.346.197s.446.148.495.297c.05.148.247.543.247.543l.396.1s.445.246.445.394c0 .15.098.495.098.495l.298.197s.198 0 .346-.05c.148-.05.445-.1.445-.1s.147.05.196-.197c.05-.247.297-.543.297-.543l.544-.396s.444 0 .444-.197c0-.198.1-.495.397-.495.296 0 .395 0 .544.05.15.05.346.148.495.05.148-.1.445-.15.445-.15s.098-.098.494.248c.395.346.642.593.642.593l.37.346s.47.048.47.395v.69s.198.298.346.298c.15 0 .79.247.79.247l.15.247.444.1.643-.15s.295-.098.493-.05c.198.05.395.2.544.05.148-.147.395-.345.395-.345s.198-.05.247-.346c.05-.297 0-.544.05-.692.048-.148.246-.297.246-.544 0-.247.247-.79.247-.79l.296-.297.197-.198.79-.247s.297.297.594.297.495.148.495.148l.445.395.247-.247.74-.295s.1-.396.15-.643c.05-.247.445-.593.445-.593h.593c.247-.05.296-.248.494-.396.196-.148.444-.05.444-.247 0-.198.395-.742.543-.79.15-.05.15-.1.346-.15.198-.05.445-.098.445-.098l.445-.495.1-.594s.196-.147.147-.69c-.05-.544-.05-.198-.05-.544 0-.346.297-.94.297-.94l-.1-.592s-.048.1-.098-.396c-.05-.494-.15-.197-.05-.494.1-.296.445-.494.445-.74 0-.248-.15-.496-.15-.644 0-.148-.097.198 0-.148.1-.346.2-.494.2-.692 0-.198.05-.148 0-.395-.05-.247-.05-1.088-.05-1.088s0-.098-.05-.395c-.05-.297-.148-.346-.05-.642.1-.297.297-.594.297-.594l-.05-.543s.15-.198.2-.346c.048-.15.196-.494.196-.494l.248.89.296 1.037.297.717.295.222h.247l.396-.05.263.288" fill="none" stroke="#231f20" stroke-width=".5"/></g><g><path d="M535.204 170.933s-.313-2.356-.412-3.344c0 0 2.966-8.552 10.38-11.27 0 0 3.755-3.36 5.584-4.893 1.828-1.532 2.273-1.878 2.273-1.878s.246 1.877 2.322 4.25c2.076 2.372 2.768 3.113 3.312 5.09.543 1.977.84 2.175.84 4.992s-2.52 4.102-2.52 4.102l-.31 3.258" fill="none" stroke="#231f20" stroke-width=".5"/></g><g><path d="M531.58 166.32s-2.273-4.02 4.4-23.195h34.644s-1.58 4.695-1.63 5.634c0 0-.544 2.42.543 3.212l-3.41 5.93" fill="none" stroke="#231f20" stroke-width=".5"/></g><g><path d="M563.013 165.464s.84-2.718 1.63-4.497c.792-1.78 3.41-7.266 3.263-7.414-.148-.148-5.19 2.916-5.19 2.916l.495-1.237s-1.877-.494-2.57-1.038c-.69-.543-1.334-1.482-2.42-2.47-1.088-.99-2.818-2.867-3.61-3.757-.79-.89-2.767-3.756-3.21-4.794" fill="none" stroke="#231f20" stroke-width=".5"/></g><g><path d="M551.052 143.174s.148.198.395 1.78c.247 1.58-.148 1.73.495 2.62.642.888 1.087 1.284 1.087 1.976" fill="none" stroke="#231f20" stroke-width=".5"/></g><g><path d="M532.963 152.713s.494-.692.99-1.137c0 0 2.37 1.137 4.694 2.47 2.323 1.336 4.843 3.016 4.843 3.016" fill="none" stroke="#231f20" stroke-width=".5"/></g><g><path d="M542.107 156.123s5.88-4.25 10.23-6.03" fill="none" stroke="#231f20" stroke-width=".5"/></g><g><path d="M540.525 159.088s5.24-3.41 11.614-3.41c6.375 0 8.797 9.29 4.843 12.306" fill="none" stroke="#231f20" stroke-width=".5"/></g><g><path d="M528.878 164.014s-1.384-9.423 2.702-21.153l-1.713-.065s1.12-22.306-8.567-37.825c0 0-.37-2.52.32-4.794" fill="none" stroke="#231f20" stroke-width=".5"/></g><g><path d="M521.62 100.176s-2 2.175-3.04 4.152c-1.037 1.977-2.074 2.916-2.37 4.99-.297 2.077-.84 7.86-.84 7.86s-1.385-1.878-1.88-2.768c-.493-.89-1.037-1.73-1.68-2.67-.642-.938-1.78-2.37-2.174-3.46-.396-1.086-.396-2.42 0-3.162.395-.74-.1-2.174 5.634-3.51 5.733-1.333 6.35-1.432 6.35-1.432z" fill="none" stroke="#231f20" stroke-width="1.5" stroke-linecap="round" stroke-linejoin="round"/></g><g><path d="M497.445 119.533s4.283-7.94 14.86-7.05" fill="none" stroke="#231f20" stroke-width=".5"/></g><g><path d="M576.917 133.9l-.923 9.307h-1.845s-.462 4.91-.76 6.096c0 0 1.632 1.334.89 2.224-.74.89-2.42 1.878-2.42 1.878s-.445.197-.643-.15c0 0-7.117 9.688-7.957 11.468" fill="none" stroke="#231f20" stroke-width=".5"/></g><g><path d="M590.245 134.97s-1.285-.296-1.927-.346c-.643-.05-2.966-.445-3.56-.74-.592-.298-2.37-.693-2.37-1.93 0-1.234 1.185-1.036 1.185-1.036s-1.433-.544-1.433-1.83c0-1.284 1.483-1.383 1.483-1.383s-.79-1.878.988-2.422c1.78-.543 2.126-.692 2.126-.692s-.94-1.333-.05-2.124c.89-.79 2.176-1.433 2.818-1.927.643-.496.74-.594 1.68-.842.94-.247 3.312-.642 3.46-1.73" fill="none" stroke="#231f20" stroke-width=".5"/></g><g><path d="M586.736 124.59s.988-.147 2.867-.74c1.878-.593 2.372-.297 3.607-.79 1.236-.495 2.472-.742 3.164-1.434" fill="none" stroke="#231f20" stroke-width=".5"/></g><g><path d="M583.622 127.704s1.334.2 2.372.15c1.038-.05 2.817-.15 4.597-.298 1.78-.148 2.867-.297 3.757-.643.89-.346 1.977-.89 1.977-.89" fill="none" stroke="#231f20" stroke-width=".5"/></g><g><path d="M583.573 130.917s3.015.74 4.497.642c1.483-.1 2.323.05 3.41 0 1.088-.05 1.483-.05 2.67-.396 1.186-.346 2.915-.692 2.915-.692" fill="none" stroke="#231f20" stroke-width=".5"/></g><g><path d="M593.754 116.19s-2.175-1.484-5.288.197" fill="none" stroke="#231f20" stroke-width=".5"/></g><g><path d="M515.37 117.177s.89.84 1.778 2.817c.89 1.977.89 3.46 2.274 3.855s5.14 1.383 5.634 2.866" fill="none" stroke="#231f20" stroke-width=".5"/></g><g><path d="M507.395 151.098s2.043-3.624 3.822-7.578c1.78-3.954 2.372-4.547 3.262-6.623.89-2.076 4.052-10.972 4.348-13.146" fill="none" stroke="#231f20" stroke-width=".5"/></g><g><path d="M521.62 100.176s.602-.28 1.986.18c1.384.463 2.57 1.056 4.02 1.253 1.45.197 2.438.33 4.02.197 1.58-.132 6.062-.264 7.446-.46 1.384-.2 7.38-.397 7.315-2.9 0 0 .395-1.32-1.384-1.32 0 0 2.438.133 2.438-1.448 0-1.583-2.898-2.176-2.898-2.176s2.108.066 2.174-1.12c.066-1.187-2.833-2.373-2.833-2.373s.922-1.383-.528-2.173c-1.45-.79-2.504-1.12-4.02-1.648-1.515-.528-3.03-.396-4.217-.594-1.186-.197-3.492-1.054-5.14-.66-1.647.397-3.36.33-5.074 1.32-1.713.988-3.295 1.58-4.48 2.042" fill="none" stroke="#231f20" stroke-width=".5"/></g><g><path d="M531.135 92.02s2.125-.048 3.41-.048c1.285 0 2.867 0 3.855.148.99.148 6.162 1.384 6.162 1.384" fill="none" stroke="#231f20" stroke-width=".5"/></g><g><path d="M543.49 96.963s-2.224.395-3.262.395c-1.037 0-3.113-.197-4.052-.247-.94-.048-2.767-.048-2.767-.048l-1.533-.297s.247-.197 1.78-.296c1.53-.1 2.123 0 3.902.098 1.78.098 5.93.395 5.93.395z" fill="none" stroke="#231f20" stroke-width=".5"/></g><g><path d="M529.8 87.968s2.422.445 2.67.445c.246 0 .74.05 2.025-.05s2.966.198 4.003.346c1.038.148 4.63.823 5.404 1.3" fill="none" stroke="#231f20" stroke-width=".5"/></g><g><path d="M585.352 134.097l-48.17-2.504s-2.9-.132-2.9-3.163l1.58-26.886" fill="none" stroke="#231f20" stroke-width=".5"/></g><g><path d="M546.143 93.306l30.758 2.026" fill="none" stroke="#231f20" stroke-width=".5"/></g><g><path d="M588.845 100.752l-.99 20.89" fill="none" stroke="#231f20" stroke-width=".5"/></g><g><path d="M545.357 113.136c-.23 3.496-1.023 4.527-2.49 4.458-1.394-.067-2.108-1.338-1.91-4.367.225-3.42.935-4.53 2.49-4.457 1.395.066 2.11 1.3 1.91 4.366m-8.127-.33c-.31 4.75 2.45 6.924 5.542 7.07 3.373.16 6.02-1.852 6.314-6.338.31-4.71-2.45-6.923-5.524-7.07-3.41-.16-6.04 1.87-6.332 6.34" fill="#929297"/></g><g><path d="M554.517 114.208c.303-.023.675-.024 1.045-.007.972.047 1.37.723 1.285 2.03-.085 1.29-.582 1.85-1.606 1.8l-.97-.046.247-3.776zm-4.466-5.387l1.2.376-.57 8.693-1.24.26-.12 1.813 5.97.282c3.462.165 4.936-1.247 5.098-3.715.182-2.785-1.377-4.134-3.92-4.255-.706-.033-1.33.012-1.83.1l.197-3.028 1.433-.232.118-1.813-6.216-.295-.12 1.814z" fill="#929297"/></g><g><path d="M561.39 109.358l1.197.376-.57 8.692-1.24.26-.118 1.814 10.26.486.416-3.918-1.96-.093-.757 1.82-3.092-.146.216-3.29 1.112.052.22 1.23 1.59.074.29-4.43-1.59-.076-.38 1.24-1.114-.054.233-3.552 3.16.15.682 2.32 1.995.095.11-4.365-10.544-.5-.12 1.813z" fill="#929297"/></g><g><path d="M572.71 109.895l1.198.375-.57 8.693-1.24.26-.118 1.814 4.998.237 4.455-7.16.088.005-.34 5.196-1.258.278-.118 1.814 4.644.22.12-1.813-1.057-.37.71-10.823-3.18-.15-5.14 8.42-.087-.005.427-6.525 1.274-.24.118-1.813-4.803-.228-.12 1.813z" fill="#929297"/></g></g></g><g><g clip-path="url(#f)" transform="matrix(1.25 0 0 -1.25 -606.326 271.779)"><g><path d="M569.166 175.37c21.535-9.11 36.645-30.433 36.645-55.286 0-33.137-26.862-60-60-60-33.136 0-60 26.863-60 60 0 22.685 12.59 42.43 31.164 52.63" fill="none" stroke="#231f20" stroke-width="1.5"/></g></g></g></g></svg>