<svg xmlns="http://www.w3.org/2000/svg" width="151.875" height="185.863"><defs><clipPath><path d="M0 863.584h938.953V0H0v863.584z"/></clipPath><pattern height="12" width="12" patternUnits="userSpaceOnUse" patternTransform="matrix(.707 .707 -.707 .707 4185.04 7519.53)"><path d="M12-3H6v6h6v-6z" fill="#fff"/><g><path d="M10.5 0c0-.828-.672-1.5-1.5-1.5S7.5-.828 7.5 0 8.172 1.5 9 1.5 10.5.828 10.5 0" fill="#33a22b"/></g><path d="M6-3H0v6h6v-6z" fill="#fff"/><g><path d="M4.5 0c0-.828-.672-1.5-1.5-1.5S1.5-.828 1.5 0 2.172 1.5 3 1.5 4.5.828 4.5 0" fill="#33a22b"/></g><path d="M15 3H9v6h6V3z" fill="#fff"/><g><path d="M13.5 6c0-.828-.672-1.5-1.5-1.5s-1.5.672-1.5 1.5.672 1.5 1.5 1.5 1.5-.672 1.5-1.5" fill="#33a22b"/></g><path d="M9 3H3v6h6V3z" fill="#fff"/><g><path d="M7.5 6c0-.828-.672-1.5-1.5-1.5S4.5 5.172 4.5 6 5.172 7.5 6 7.5 7.5 6.828 7.5 6" fill="#33a22b"/></g><path d="M3 3h-6v6h6V3z" fill="#fff"/><g><path d="M1.5 6c0-.828-.672-1.5-1.5-1.5s-1.5.672-1.5 1.5.672 1.5 1.5 1.5S1.5 6.828 1.5 6" fill="#33a22b"/></g><path d="M12 9H6v6h6V9z" fill="#fff"/><g><path d="M10.5 12c0-.828-.672-1.5-1.5-1.5s-1.5.672-1.5 1.5.672 1.5 1.5 1.5 1.5-.672 1.5-1.5" fill="#33a22b"/></g><path d="M6 9H0v6h6V9z" fill="#fff"/><g><path d="M4.5 12c0-.828-.672-1.5-1.5-1.5s-1.5.672-1.5 1.5.672 1.5 1.5 1.5 1.5-.672 1.5-1.5" fill="#33a22b"/></g></pattern><clipPath><path d="M0 863.584h938.953V0H0v863.584z"/></clipPath><clipPath><path d="M348.652 307.12c-3.405-17.55 4.312-33.81 17.236-36.317 12.923-2.508 26.16 9.687 29.565 27.237 2.52 12.993-1.054 25.277-8.323 31.8l-6.74 3.953c-.706.232-1.432.42-2.173.565-1.134.22-2.27.327-3.4.327-11.77 0-23.06-11.554-26.165-27.565"/></clipPath><pattern height="12" width="12" patternUnits="userSpaceOnUse" patternTransform="matrix(.707 .707 -.707 .707 4185.04 7519.53)"><path d="M12-3H6v6h6v-6z" fill="#fff"/><g><path d="M10.5 0c0-.828-.672-1.5-1.5-1.5S7.5-.828 7.5 0 8.172 1.5 9 1.5 10.5.828 10.5 0" fill="#33a22b"/></g><path d="M6-3H0v6h6v-6z" fill="#fff"/><g><path d="M4.5 0c0-.828-.672-1.5-1.5-1.5S1.5-.828 1.5 0 2.172 1.5 3 1.5 4.5.828 4.5 0" fill="#33a22b"/></g><path d="M15 3H9v6h6V3z" fill="#fff"/><g><path d="M13.5 6c0-.828-.672-1.5-1.5-1.5s-1.5.672-1.5 1.5.672 1.5 1.5 1.5 1.5-.672 1.5-1.5" fill="#33a22b"/></g><path d="M9 3H3v6h6V3z" fill="#fff"/><g><path d="M7.5 6c0-.828-.672-1.5-1.5-1.5S4.5 5.172 4.5 6 5.172 7.5 6 7.5 7.5 6.828 7.5 6" fill="#33a22b"/></g><path d="M3 3h-6v6h6V3z" fill="#fff"/><g><path d="M1.5 6c0-.828-.672-1.5-1.5-1.5s-1.5.672-1.5 1.5.672 1.5 1.5 1.5S1.5 6.828 1.5 6" fill="#33a22b"/></g><path d="M12 9H6v6h6V9z" fill="#fff"/><g><path d="M10.5 12c0-.828-.672-1.5-1.5-1.5s-1.5.672-1.5 1.5.672 1.5 1.5 1.5 1.5-.672 1.5-1.5" fill="#33a22b"/></g><path d="M6 9H0v6h6V9z" fill="#fff"/><g><path d="M4.5 12c0-.828-.672-1.5-1.5-1.5s-1.5.672-1.5 1.5.672 1.5 1.5 1.5 1.5-.672 1.5-1.5" fill="#33a22b"/></g></pattern><clipPath><path d="M0 863.584h938.953V0H0v863.584z"/></clipPath><clipPath><path d="M348.652 307.12c-3.405-17.55 4.312-33.81 17.236-36.317 12.923-2.508 26.16 9.687 29.565 27.237 2.52 12.993-1.054 25.277-8.323 31.8l-6.74 3.953c-.706.232-1.432.42-2.173.565-1.134.22-2.27.327-3.4.327-11.77 0-23.06-11.554-26.165-27.565"/></clipPath><pattern height="12" width="12" patternUnits="userSpaceOnUse" patternTransform="matrix(.707 .707 -.707 .707 4185.04 7519.53)"><path d="M12-3H6v6h6v-6z" fill="#fff"/><g><path d="M10.5 0c0-.828-.672-1.5-1.5-1.5S7.5-.828 7.5 0 8.172 1.5 9 1.5 10.5.828 10.5 0" fill="#33a22b"/></g><path d="M6-3H0v6h6v-6z" fill="#fff"/><g><path d="M4.5 0c0-.828-.672-1.5-1.5-1.5S1.5-.828 1.5 0 2.172 1.5 3 1.5 4.5.828 4.5 0" fill="#33a22b"/></g><path d="M15 3H9v6h6V3z" fill="#fff"/><g><path d="M13.5 6c0-.828-.672-1.5-1.5-1.5s-1.5.672-1.5 1.5.672 1.5 1.5 1.5 1.5-.672 1.5-1.5" fill="#33a22b"/></g><path d="M9 3H3v6h6V3z" fill="#fff"/><g><path d="M7.5 6c0-.828-.672-1.5-1.5-1.5S4.5 5.172 4.5 6 5.172 7.5 6 7.5 7.5 6.828 7.5 6" fill="#33a22b"/></g><path d="M3 3h-6v6h6V3z" fill="#fff"/><g><path d="M1.5 6c0-.828-.672-1.5-1.5-1.5s-1.5.672-1.5 1.5.672 1.5 1.5 1.5S1.5 6.828 1.5 6" fill="#33a22b"/></g><path d="M12 9H6v6h6V9z" fill="#fff"/><g><path d="M10.5 12c0-.828-.672-1.5-1.5-1.5s-1.5.672-1.5 1.5.672 1.5 1.5 1.5 1.5-.672 1.5-1.5" fill="#33a22b"/></g><path d="M6 9H0v6h6V9z" fill="#fff"/><g><path d="M4.5 12c0-.828-.672-1.5-1.5-1.5s-1.5.672-1.5 1.5.672 1.5 1.5 1.5 1.5-.672 1.5-1.5" fill="#33a22b"/></g></pattern><pattern height="12" width="12" patternUnits="userSpaceOnUse" patternTransform="matrix(.707 .707 -.707 .707 4190.17 7522.35)"><path d="M12-3H6v6h6v-6z" fill="#fff"/><g><path d="M10.5 0c0-.828-.672-1.5-1.5-1.5S7.5-.828 7.5 0 8.172 1.5 9 1.5 10.5.828 10.5 0" fill="#aad801"/></g><path d="M6-3H0v6h6v-6z" fill="#fff"/><g><path d="M4.5 0c0-.828-.672-1.5-1.5-1.5S1.5-.828 1.5 0 2.172 1.5 3 1.5 4.5.828 4.5 0" fill="#aad801"/></g><path d="M15 3H9v6h6V3z" fill="#fff"/><g><path d="M13.5 6c0-.828-.672-1.5-1.5-1.5s-1.5.672-1.5 1.5.672 1.5 1.5 1.5 1.5-.672 1.5-1.5" fill="#aad801"/></g><path d="M9 3H3v6h6V3z" fill="#fff"/><g><path d="M7.5 6c0-.828-.672-1.5-1.5-1.5S4.5 5.172 4.5 6 5.172 7.5 6 7.5 7.5 6.828 7.5 6" fill="#aad801"/></g><path d="M3 3h-6v6h6V3z" fill="#fff"/><g><path d="M1.5 6c0-.828-.672-1.5-1.5-1.5s-1.5.672-1.5 1.5.672 1.5 1.5 1.5S1.5 6.828 1.5 6" fill="#aad801"/></g><path d="M12 9H6v6h6V9z" fill="#fff"/><g><path d="M10.5 12c0-.828-.672-1.5-1.5-1.5s-1.5.672-1.5 1.5.672 1.5 1.5 1.5 1.5-.672 1.5-1.5" fill="#aad801"/></g><path d="M6 9H0v6h6V9z" fill="#fff"/><g><path d="M4.5 12c0-.828-.672-1.5-1.5-1.5s-1.5.672-1.5 1.5.672 1.5 1.5 1.5 1.5-.672 1.5-1.5" fill="#aad801"/></g></pattern></defs><g><g><path d="M150.938 109.926c0 41.42-33.58 75-75 75s-75-33.58-75-75 33.58-75 75-75 75 33.58 75 75" fill="#fff"/></g><g><path d="M150.938 109.926c0 41.42-33.58 75-75 75s-75-33.58-75-75 33.58-75 75-75 75 33.58 75 75z" fill="none" stroke="#231f20" stroke-width="1.25.5"/></g><path d="M75.692 179.817c-.088 0-.178-.013-.265-.037l-1.994-.588c-.486-.142-.77-.646-.643-1.136 0 0 .703-2.693 1.054-4.096.213-.852.058-7.09-.127-11.503-3.45-2.927-4.65-10.104-5.374-14.447-.095-.562-.18-1.072-.26-1.514-.216-1.19-5.72-4.058-9.736-6.15-8.083-4.213-15.717-8.193-14.33-12.103.96-2.702 3.728-3.015 5.728-3.015.998 0 2.044.085 3.055.168.974.077 1.895.152 2.735.152 2.548 0 2.912-.723 3.052-1.403.356-1.723-6.885-7.06-12.173-10.955-9.04-6.663-17.582-12.957-15.746-17.203 1.014-2.342 3.27-3.482 6.902-3.482 1.987 0 4.134.332 6.028.626 1.494.232 2.904.45 3.907.45.91 0 1.09-.18 1.093-.182.165-.795-2.646-3.735-4.506-5.68-4.033-4.216-8.604-8.993-6.898-12.528 1.71-3.544 5.393-4.103 8.08-4.512.99-.15 2.49-.377 2.63-.72-.056-.362-1.327-1.766-2.255-2.792-2.798-3.09-7.027-7.76-4.57-12.416 2.267-4.293 5.185-4.805 7.115-5.144 1.174-.206 1.637-.326 1.825-.77.285-.663-.896-3.083-1.758-4.85-1.7-3.484-3.628-7.433-2.477-10.424 1.218-3.17 3.682-3.525 5.48-3.785 1.252-.18 1.977-.312 2.323-.92.58-1.015.58-2.777.58-4.482 0-1.964 0-3.995.815-5.522.9-1.69 2.456-1.885 3.55-1.885.197 0 .39.006.572.013.11.005.213.008.312.01-.18-2.284.733-8.465 2.063-9.795.442-.44.874-.72 1.292-.993.676-.438 1.375-.89 2.296-2.22C66.854 1.4 71.412.98 71.924.94c4.286.137 4.958 2.844 5.498 5.017.268 1.087.523 2.112 1.13 2.923.742.987 1.216.987 2 .987h.178c1.24 0 2.59.15 4.264 1.922 1.88 1.99 1.16 4.715.523 7.12-.632 2.38-.947 3.89-.013 4.824.455.455.956.648 1.676.648.582 0 1.254-.126 1.967-.26.87-.163 1.858-.35 2.915-.35 1.957 0 3.703.66 5.34 2.014 3.422 2.83 1.223 8.418-.718 13.346-1.186 3.013-2.53 6.43-1.737 7.618.272.41.497.442.703.442.574 0 1.463-.42 2.404-.865 1.56-.738 3.5-1.657 5.81-1.657 2.39 0 4.655.965 6.93 2.95 1.565 1.366 2.32 3.124 2.243 5.226-.334 8.994-16.213 21.446-16.373 21.566-.36.303-1.012 2.248-.635 3.28.108.3.254.4.58.4.522 0 1.782-.306 4.364-2.35 4.01-3.176 9.723-4.997 15.67-4.997 5.69 0 10.07 1.7 11.44 4.434.88 1.757.965 3.742.25 5.74-1.17 3.26-4.25 6.062-6.69 7.147-2.606 1.158-3.307 5.08-3.495 7.315-.242 2.893-6.947 6.655-12.815 7.19-3.268.297-6.683 2.288-8.496 4.954-.886 1.303-1.79 3.366-1.07 5.81.512 1.743 4.002 1.784 7.698 1.83 6.097.074 14.45.175 14.684 8.97.252 9.424-13.942 11.57-24.305 13.138-3.697.558-8.298 1.256-8.803 2.038-.182 1.424 1.05 2.49 2.813 3.833 1.425 1.084 2.897 2.206 2.663 3.845-.49 3.425-4.82 5.32-5.683 5.664-1.434.575-2.403 2.6-3.69 6.136-.578 1.59-1.654 2.775-3.137 3.47l-.446 1.516-.23 10.315.115 2.875c.005.14-.022.282-.078.414l-.822 1.876c-.152.348-.493.56-.858.56" fill="#fff"/><path d="M71.997 0c-.048 0-.097 0-.144.005-.56.044-5.523.505-7.556 3.442-.815 1.178-1.38 1.544-2.035 1.97-.438.282-.933.603-1.444 1.114-1.4 1.4-2.314 6.57-2.364 9.5-2.02.02-3.467.82-4.3 2.38-.924 1.735-.924 3.885-.924 5.964 0 1.51 0 3.22-.456 4.02-.136.237-.937.354-1.644.456-1.797.26-4.805.694-6.22 4.374-1.297 3.374.725 7.517 2.51 11.174.643 1.318 1.592 3.26 1.69 4.05-.24.087-.713.17-1.076.233-1.984.35-5.302.933-7.782 5.633-2.764 5.235 1.728 10.197 4.702 13.482.49.54 1.09 1.205 1.514 1.734-.418.083-.918.16-1.334.22-2.73.416-6.86 1.044-8.784 5.032-1.988 4.12 2.82 9.148 7.064 13.586 1.244 1.3 2.976 3.11 3.795 4.268-.916-.036-2.16-.228-3.47-.432-1.927-.3-4.112-.636-6.17-.636-3.988-.002-6.6 1.36-7.762 4.047-1.99 4.6 4.737 9.992 16.05 18.33 4.512 3.325 11.3 8.328 11.785 10.11-.08.227-.386.556-2.108.556-.802 0-1.705-.07-2.66-.15-1.03-.083-2.093-.17-3.128-.17h-.022c-1.337 0-5.307.02-6.59 3.64-1.66 4.68 5.957 8.65 14.778 13.245 3.406 1.776 8.53 4.445 9.27 5.604.072.41.15.874.234 1.38.772 4.626 1.915 11.466 5.38 14.732.196 4.805.296 9.992.13 10.868-.343 1.374-1.044 4.06-1.044 4.06-.255.98.314 1.985 1.286 2.27l1.993.587c.176.052.354.077.53.077.727 0 1.41-.427 1.716-1.124l.82-1.876c.114-.26.168-.543.157-.827l-.115-2.875.227-10.132.295-1.006c1.512-.815 2.618-2.112 3.234-3.804 1.134-3.124 2.06-5.148 3.155-5.586.948-.38 5.7-2.47 6.263-6.403.312-2.183-1.536-3.59-3.023-4.723-1.33-1.013-2.262-1.782-2.418-2.606 1.236-.57 4.946-1.13 7.98-1.59 10.71-1.62 25.376-3.838 25.103-14.09-.258-9.695-9.497-9.808-15.61-9.883-2.74-.032-6.495-.078-6.81-1.155-.617-2.092.173-3.885.944-5.018 1.664-2.448 4.8-4.275 7.806-4.55 5.894-.535 13.357-4.353 13.664-8.045.136-1.634.695-5.54 2.94-6.536 2.62-1.165 5.934-4.18 7.19-7.69.806-2.242.705-4.482-.292-6.475-1.528-3.055-6.232-4.953-12.278-4.953-6.155 0-12.077 1.895-16.25 5.2-2.014 1.593-3.094 2.004-3.54 2.11-.054-.578.198-1.636.47-2.03 1.35-1.06 16.31-13.026 16.65-22.208.086-2.365-.8-4.43-2.564-5.968-2.418-2.11-4.957-3.18-7.546-3.18-2.52 0-4.567.97-6.21 1.747-.677.32-1.51.712-1.915.77l-.013-.02c-.522-.782 1.008-4.667 1.83-6.755 2.057-5.225 4.388-11.147.443-14.41-1.81-1.5-3.755-2.23-5.938-2.23-1.144 0-2.177.194-3.088.365-.67.126-1.3.245-1.794.245-.533 0-.776-.137-1.013-.375-.62-.62-.174-2.297.256-3.92.665-2.51 1.492-5.635-.746-8.006C83.745 9.1 82.11 8.93 80.727 8.93h-.174c-.685 0-.79 0-1.25-.614-.495-.66-.727-1.595-.972-2.585C77.78 3.515 76.95.165 72.06 0h-.063m0 1.875c5.278.176 3.695 4.75 5.806 7.566.994 1.325 1.83 1.365 2.75 1.365h.175c.99 0 2.09.044 3.585 1.627 2.99 3.167-2.288 9.15.53 11.965.702.703 1.482.923 2.337.923 1.425 0 3.057-.61 4.882-.61 1.46 0 3.043.39 4.743 1.798 5.103 4.222-5.102 17.067-2.638 20.762.415.623.908.86 1.485.86 1.872 0 4.6-2.522 8.212-2.522 1.868 0 3.97.674 6.314 2.717 8.27 7.214-12.67 24.282-14.076 25.337-1.015.762-2.123 5.367.508 5.367 1.017 0 2.592-.69 4.947-2.552 4.222-3.344 10.028-4.795 15.087-4.795 5.058 0 9.37 1.45 10.6 3.915 2.464 4.926-2.815 10.205-5.98 11.612-3.17 1.408-3.872 5.983-4.05 8.094-.175 2.11-6.156 5.806-11.962 6.334-5.807.527-12.142 5.982-10.382 11.965 1.76 5.98 21.994-2.64 22.345 10.556.353 13.195-32.55 11.084-33.077 14.955-.53 3.87 5.806 5.278 5.454 7.74-.352 2.465-3.343 4.224-5.103 4.928-1.76.704-2.816 2.815-4.223 6.686-.702 1.925-2.1 2.805-3.327 3.204l.277-.037-.587 1.993-.235 10.44.118 2.933-.82 1.876-1.995-.587s.704-2.698 1.055-4.106c.352-1.408-.116-12.2-.116-12.2-3.872-2.814-4.928-11.788-5.632-15.658-.703-3.872-26.04-12.317-24.105-17.772.692-1.945 2.612-2.39 4.847-2.39 1.89 0 4.006.32 5.788.32 2.017 0 3.61-.41 3.97-2.153 1.055-5.102-30.79-21.466-27.976-27.976.983-2.276 3.342-2.918 6.04-2.917 3.494 0 7.557 1.075 9.935 1.075 1.042 0 1.762-.206 1.97-.798 1.057-2.99-13.9-13.02-11.436-18.122 2.462-5.103 9.852-3.168 10.732-5.28.88-2.11-10.205-8.796-6.863-15.13 3.343-6.335 7.918-3.52 8.973-5.983 1.056-2.463-5.983-10.732-4.223-15.307 1.76-4.575 6.334-2.11 7.742-4.575 1.407-2.463 0-7.39 1.407-10.03.652-1.223 1.758-1.388 2.722-1.386.356 0 .692.02.978.02.614 0 1.003-.102.874-.744-.35-1.76.704-8.27 1.76-9.325 1.055-1.056 2.11-1.056 3.695-3.344 1.582-2.287 6.157-2.64 6.157-2.64" fill="#231f20"/><path d="M613.233 488.317c-2.463-4.927-17.242-5.807-25.688.88-8.445 6.686-6.862-1.76-5.454-2.815 1.408-1.057 22.346-18.123 14.076-25.338-8.27-7.214-13.548 2.64-16.01-1.055-2.464-3.696 7.74-16.54 2.64-20.763-5.104-4.223-9.15.703-11.966-2.112-2.815-2.815 2.463-8.797-.528-11.963-2.99-3.168-4.4-.177-6.51-2.992-2.11-2.815-.527-7.39-5.806-7.566 0 0-4.575.353-6.16 2.64-1.58 2.286-2.638 2.286-3.694 3.343-1.055 1.055-2.11 7.566-1.76 9.325.353 1.76-3.166-.528-4.574 2.11-1.407 2.64 0 7.567-1.407 10.03-1.407 2.463-5.982 0-7.74 4.575-1.76 4.575 5.277 12.845 4.222 15.307-1.056 2.464-5.63-.35-8.974 5.983-3.342 6.333 7.743 13.02 6.863 15.13-.88 2.112-8.27.177-10.733 5.28-2.462 5.102 12.493 15.13 11.438 18.122-1.057 2.99-15.132-3.87-17.948 2.638-2.815 6.51 29.03 22.874 27.976 27.976-1.056 5.103-12.668-1.23-14.603 4.223-1.935 5.455 23.4 13.9 24.105 17.77.703 3.872 1.758 12.845 5.63 15.66 0 0 .47 10.792.117 12.2-.35 1.407-1.055 4.105-1.055 4.105l1.994.586.822-1.876-.117-2.933.233-10.44.588-1.995-.276.038c1.227-.4 2.625-1.278 3.326-3.205 1.407-3.87 2.462-5.983 4.222-6.685 1.76-.705 4.75-2.464 5.103-4.928.352-2.462-5.982-3.87-5.454-7.74.53-3.872 33.43-1.76 33.08-14.957-.354-13.196-20.588-4.574-22.348-10.556-1.758-5.983 4.575-11.437 10.382-11.965 5.806-.528 11.788-4.223 11.965-6.334.176-2.11.88-6.686 4.046-8.094 3.168-1.408 8.447-6.687 5.983-11.613" fill="url(#pattern41174)" transform="translate(-485.989 -412.719)"/><path d="M75.34 161.636s-.822-6.1-1.055-11.495c-.235-5.395-.94-11.025-.822-15.717s.118-7.742.234-11.964c.118-4.224.94-6.1.82-7.274-.116-1.173-.936-6.1-1.29-11.612-.35-5.514-.35-5.865-.585-9.736-.235-3.872-.47-7.977-.47-7.977s-1.876-20.877-2.11-26.274c-.235-5.395-1.056-16.305-1.056-19.47 0-3.168 0-6.805.234-9.385.235-2.58 1.173-23.46 1.408-25.805" fill="none" stroke="#231f20" stroke-width=".625"/><path d="M63.375 9.383s2.933 6.333 6.57 7.858" fill="none" stroke="#231f20" stroke-width=".625"/><path d="M70.178 16.42s4.693-1.525 6.334-2.932" fill="none" stroke="#231f20" stroke-width=".625"/><path d="M82.026 13.84s-8.68 9.852-12.552 12.67" fill="none" stroke="#231f20" stroke-width=".625"/><path d="M58.214 20.29s6.686 9.503 11.026 12.2" fill="none" stroke="#231f20" stroke-width=".625"/><path d="M69.005 38.59s.94-1.994 1.877-2.698c.938-.703 10.088-6.686 11.73-8.446" fill="none" stroke="#231f20" stroke-width=".625"/><path d="M69.827 54.073s7.74-5.63 10.087-8.562c2.346-2.932 12.2-15.6 12.786-17.008" fill="none" stroke="#231f20" stroke-width=".625"/><path d="M49.3 33.43s6.1 6.568 7.976 8.68c1.877 2.11 3.636 3.753 4.575 4.574.94.82 6.1 7.39 7.742 8.68" fill="none" stroke="#231f20" stroke-width=".625"/><path d="M45.428 53.018s2.347 2.463 3.872 4.34c1.525 1.876 19.353 17.36 21.935 18.416" fill="none" stroke="#231f20" stroke-width=".625"/><path d="M72.173 87.152l1.056-3.05s6.568-7.86 8.913-11.26c2.346-3.403 4.457-5.162 7.86-8.33 3.4-3.167 17.828-15.483 17.828-15.483" fill="none" stroke="#231f20" stroke-width=".625"/><path d="M40.736 75.54s3.99 2.11 7.273 4.574c3.283 2.463 7.154 4.574 8.796 5.395 1.643.82 14.663 7.624 15.602 9.735" fill="none" stroke="#231f20" stroke-width=".625"/><path d="M34.402 96.418s8.445 4.458 11.378 5.513c2.932 1.057 6.217 2.933 8.564 4.224 2.345 1.29 18.18 9.618 18.18 9.618l1.408 2.23" fill="none" stroke="#231f20" stroke-width=".625"/><path d="M74.52 114.717s6.685-10.44 12.197-15.13c5.514-4.694 28.27-20.41 36.715-23.813" fill="none" stroke="#231f20" stroke-width=".625"/><path d="M115.104 122.693s-35.776-1.876-41.64 15.953" fill="none" stroke="#231f20" stroke-width=".625"/><path d="M47.54 129.496s18.65 5.162 25.922 11.144" fill="none" stroke="#231f20" stroke-width=".625"/><path d="M74.87 153.074s-.235-3.637 3.52-4.927c3.753-1.29 7.858-2.815 7.858-2.815" fill="none" stroke="#231f20" stroke-width=".625"/></g></svg>