<?xml version="1.0" encoding="utf-8"?>
<!-- Generator: Adobe Illustrator 18.0.0, SVG Export Plug-In . SVG Version: 6.00 Build 0)  -->
<!DOCTYPE svg PUBLIC "-//W3C//DTD SVG 1.1//EN" "http://www.w3.org/Graphics/SVG/1.1/DTD/svg11.dtd">
<svg version="1.1" xmlns="http://www.w3.org/2000/svg" xmlns:xlink="http://www.w3.org/1999/xlink" x="0px" y="0px"
	 viewBox="0 0 160 160" enable-background="new 0 0 160 160" xml:space="preserve">
<g id="Layer_2">
</g>
<g id="Layer_1">
	<g>
		<circle fill="#FFFFFF" stroke="#231F20" stroke-width="2" cx="80" cy="96" r="60"/>
		<g>
			<g>
				<path fill="#FFFFFF" d="M79.803,151.663c-0.047,0-0.094-0.007-0.141-0.021l-1.595-0.47c-0.259-0.076-0.411-0.345-0.343-0.605
					c0-0.001,0.562-2.155,0.844-3.279c0.188-0.751,0.042-6.054-0.099-9.385c-2.755-2.232-3.718-8.002-4.299-11.481
					c-0.075-0.448-0.143-0.856-0.207-1.21c-0.195-1.072-4.299-3.212-7.92-5.099c-6.086-3.172-12.38-6.452-11.343-9.375
					c0.714-2.013,2.823-2.246,4.347-2.246c0.788,0,1.619,0.067,2.423,0.133c0.785,0.063,1.526,0.123,2.208,0.123
					c1.713,0,2.491-0.383,2.686-1.322c0.318-1.534-5.075-5.509-9.833-9.016c-7.151-5.27-13.906-10.247-12.516-13.462
					c0.767-1.773,2.498-2.636,5.292-2.636c1.57,0,3.277,0.265,4.783,0.498c1.205,0.188,2.343,0.363,3.166,0.363
					c0.643,0,1.035-0.108,1.104-0.305c0.254-0.721-1.913-2.986-3.654-4.808c-3.17-3.314-6.763-7.07-5.473-9.742
					c1.311-2.716,4.181-3.152,6.276-3.47c1.047-0.159,2.13-0.324,2.299-0.728c0.107-0.334-1.072-1.636-1.852-2.498
					c-2.322-2.566-5.502-6.079-3.619-9.648c1.756-3.326,4.018-3.724,5.514-3.986c0.964-0.169,1.437-0.272,1.647-0.763
					c0.272-0.635-0.623-2.469-1.413-4.087c-1.338-2.742-2.854-5.849-1.973-8.142c0.922-2.397,2.732-2.659,4.186-2.869
					c1.047-0.151,1.706-0.274,2.04-0.859c0.497-0.87,0.497-2.314,0.497-3.71c0-1.541,0-3.134,0.622-4.3
					c0.658-1.233,1.811-1.375,2.62-1.375c0.155,0,0.307,0.005,0.45,0.01c0.118,0.004,0.229,0.008,0.333,0.008
					c0.09,0,0.155-0.003,0.201-0.008c-0.26-1.699,0.563-6.914,1.551-7.902c0.334-0.334,0.668-0.551,0.992-0.76
					c0.562-0.364,1.142-0.741,1.907-1.845c1.386-2.002,5.14-2.313,5.299-2.325c3.212,0.104,3.702,2.081,4.135,3.824
					c0.212,0.854,0.432,1.738,0.948,2.427c0.668,0.891,1.167,0.891,1.799,0.891h0.144c0.976,0,1.957,0.111,3.229,1.458
					c1.41,1.492,0.852,3.601,0.358,5.461c-0.436,1.645-0.848,3.198,0.055,4.101c0.41,0.41,0.878,0.592,1.518,0.592
					c0.488,0,1.038-0.104,1.62-0.213c0.686-0.129,1.463-0.276,2.285-0.276c1.505,0,2.851,0.508,4.113,1.554
					c2.598,2.149,0.874,6.529-0.647,10.393c-1.02,2.588-2.073,5.265-1.366,6.325c0.273,0.41,0.544,0.466,0.771,0.466
					c0.516,0,1.217-0.333,2.029-0.717c1.225-0.58,2.749-1.301,4.542-1.301c1.847,0,3.606,0.751,5.379,2.297
					c1.192,1.041,1.768,2.381,1.709,3.984c-0.263,7.083-12.871,16.967-12.998,17.062c-0.383,0.287-0.92,1.93-0.605,2.875
					c0.121,0.364,0.334,0.52,0.712,0.52c0.55,0,1.628-0.335,3.646-1.934c3.166-2.506,7.678-3.944,12.381-3.944
					c4.455,0,7.876,1.306,8.928,3.408c0.683,1.365,0.746,2.844,0.188,4.397c-0.902,2.515-3.362,4.749-5.219,5.574
					c-2.202,0.979-2.789,4.217-2.942,6.06c-0.181,2.172-5.521,5.114-10.024,5.523c-2.686,0.244-5.492,1.881-6.981,4.073
					c-0.738,1.086-1.492,2.811-0.89,4.86c0.462,1.568,3.345,1.604,6.396,1.641c5.044,0.062,11.32,0.138,11.502,6.932
					c0.195,7.319-11.033,9.018-19.232,10.258c-3.013,0.456-7.139,1.08-7.235,1.788c-0.194,1.432,1.089,2.409,2.329,3.354
					c1.132,0.862,2.201,1.676,2.034,2.843c-0.372,2.604-3.724,4.066-4.392,4.333c-1.234,0.495-2.04,2.159-3.094,5.057
					c-0.452,1.242-1.304,2.16-2.481,2.68l-0.398,1.355l-0.187,8.286l0.094,2.313c0.003,0.076-0.011,0.151-0.042,0.221l-0.657,1.502
					C80.18,151.55,79.998,151.663,79.803,151.663z"/>
				<path fill="#231F20" d="M76.847,9.56c4.223,0.141,2.956,3.8,4.645,6.053c0.795,1.06,1.465,1.091,2.201,1.091
					c0.046,0,0.092,0,0.139,0c0.792,0,1.672,0.035,2.868,1.302c2.393,2.534-1.83,7.319,0.422,9.572
					c0.563,0.563,1.188,0.739,1.872,0.739c1.14,0,2.445-0.489,3.905-0.489c1.168,0,2.435,0.313,3.795,1.439
					c4.082,3.378-4.082,13.654-2.111,16.609c0.332,0.498,0.727,0.688,1.188,0.688c1.498,0,3.681-2.018,6.571-2.018
					c1.493,0,3.176,0.539,5.05,2.174c6.616,5.771-10.135,19.425-11.261,20.269c-0.812,0.609-1.698,4.294,0.407,4.294
					c0.813,0,2.073-0.55,3.957-2.041c3.378-2.674,8.023-3.836,12.07-3.836c4.047,0,7.495,1.161,8.481,3.132
					c1.971,3.941-2.252,8.164-4.786,9.29c-2.534,1.126-3.097,4.786-3.237,6.475c-0.141,1.689-4.927,4.645-9.572,5.067
					c-4.645,0.422-9.712,4.786-8.305,9.572c1.408,4.786,17.595-2.111,17.876,8.446c0.281,10.557-26.04,8.868-26.463,11.964
					c-0.422,3.097,4.645,4.223,4.364,6.193c-0.281,1.971-2.674,3.378-4.082,3.941c-1.408,0.563-2.252,2.252-3.378,5.349
					c-0.56,1.541-1.679,2.245-2.661,2.564l0.221-0.03l-0.469,1.595l-0.188,8.352l0.094,2.346l-0.657,1.501l-1.595-0.469
					c0,0,0.563-2.158,0.845-3.284c0.281-1.126-0.094-9.759-0.094-9.759c-3.097-2.252-3.941-9.431-4.504-12.528
					c-0.563-3.097-20.832-9.853-19.284-14.217c0.552-1.556,2.089-1.913,3.876-1.913c1.513,0,3.205,0.256,4.632,0.256
					c1.613,0,2.887-0.327,3.175-1.721c0.845-4.082-24.633-17.172-22.381-22.381c0.787-1.82,2.674-2.334,4.833-2.334
					c2.795,0,6.045,0.861,7.948,0.861c0.833,0,1.409-0.165,1.576-0.639c0.845-2.393-11.12-10.416-9.149-14.498
					c1.971-4.082,7.882-2.534,8.586-4.223c0.704-1.689-8.164-7.038-5.49-12.105c2.674-5.067,6.334-2.815,7.179-4.786
					c0.845-1.971-4.786-8.586-3.378-12.246c1.408-3.66,5.067-1.689,6.193-3.66c1.126-1.971,0-5.912,1.126-8.023
					c0.522-0.979,1.407-1.111,2.178-1.111c0.284,0,0.553,0.018,0.783,0.018c0.491,0,0.802-0.082,0.699-0.596
					c-0.282-1.408,0.563-6.616,1.408-7.46c0.844-0.845,1.689-0.845,2.956-2.674C73.188,9.841,76.847,9.56,76.847,9.56 M76.847,8.56
					c-0.026,0-0.051,0.001-0.077,0.003c-0.423,0.033-4.177,0.38-5.672,2.539c-0.709,1.024-1.223,1.357-1.768,1.71
					c-0.345,0.223-0.701,0.455-1.073,0.826c-1.081,1.081-1.81,5.716-1.741,7.755c-0.141-0.005-0.289-0.009-0.441-0.009
					c-0.002,0-0.004,0-0.005,0c-0.546,0-2.183,0.005-3.055,1.64c-0.681,1.276-0.681,2.933-0.681,4.535c0,1.331,0,2.708-0.431,3.463
					c-0.209,0.365-0.671,0.467-1.678,0.613c-1.415,0.205-3.554,0.514-4.581,3.184c-0.96,2.495,0.607,5.706,1.99,8.54
					c0.618,1.267,1.552,3.181,1.4,3.678c-0.096,0.223-0.372,0.304-1.272,0.462c-1.593,0.28-4,0.702-5.87,4.245
					c-2.047,3.879,1.406,7.693,3.69,10.217c0.613,0.677,1.425,1.574,1.663,2.027c-0.321,0.141-1.205,0.275-1.815,0.368
					c-2.081,0.316-5.226,0.794-6.652,3.747c-1.44,2.984,2.28,6.873,5.562,10.305c1.312,1.372,3.252,3.4,3.504,4.216
					c-0.107,0.025-0.291,0.05-0.591,0.05c-0.784,0-1.903-0.173-3.089-0.357c-1.524-0.236-3.252-0.504-4.86-0.504
					c-3.015,0-4.897,0.96-5.751,2.937c-1.44,3.331,4.085,7.731,12.679,14.063c3.663,2.7,9.794,7.218,9.64,8.514
					c-0.071,0.343-0.191,0.921-2.195,0.921c-0.662,0-1.394-0.059-2.168-0.122c-0.814-0.066-1.656-0.134-2.463-0.134
					c-1.676,0-3.999,0.267-4.819,2.578c-1.182,3.332,5.018,6.564,11.583,9.985c2.927,1.525,7.35,3.831,7.663,4.761
					c0.06,0.336,0.128,0.742,0.202,1.188c0.58,3.476,1.534,9.192,4.302,11.638c0.167,4.016,0.25,8.382,0.103,9.025
					c-0.28,1.121-0.842,3.273-0.842,3.273c-0.136,0.523,0.167,1.059,0.685,1.212l1.595,0.469c0.094,0.028,0.189,0.041,0.282,0.041
					c0.388,0,0.753-0.228,0.916-0.599l0.657-1.501c0.061-0.139,0.089-0.29,0.083-0.441l-0.093-2.315l0.184-8.188l0.316-1.075
					c1.194-0.588,2.063-1.567,2.536-2.867c0.981-2.696,1.755-4.34,2.81-4.762c0.713-0.285,4.29-1.853,4.701-4.728
					c0.208-1.457-1.029-2.399-2.226-3.31c-1.331-1.014-2.211-1.765-2.149-2.766c0.679-0.554,4.079-1.068,6.827-1.484
					c8.383-1.268,19.864-3.004,19.657-10.765c-0.194-7.275-7.015-7.358-11.995-7.418c-2.736-0.033-5.564-0.068-5.922-1.283
					c-0.548-1.862,0.145-3.441,0.823-4.438c1.41-2.075,4.068-3.624,6.613-3.856c4.793-0.436,10.276-3.565,10.478-5.98
					c0.116-1.395,0.607-4.737,2.647-5.644c2-0.889,4.527-3.188,5.486-5.862c0.596-1.663,0.523-3.318-0.212-4.789
					c-1.136-2.273-4.729-3.685-9.375-3.685c-4.813,0-9.438,1.477-12.691,4.052c-2.081,1.648-3.026,1.825-3.336,1.825
					c-0.166,0-0.177-0.027-0.219-0.127c-0.272-0.651,0.135-2.081,0.435-2.385c0.106-0.078,12.905-10.121,13.175-17.426
					c0.065-1.76-0.567-3.233-1.88-4.378c-1.867-1.629-3.734-2.421-5.708-2.421c-1.905,0-3.485,0.748-4.755,1.349
					c-0.727,0.344-1.413,0.669-1.815,0.669c-0.1,0-0.194,0-0.356-0.243c-0.562-0.843,0.535-3.627,1.415-5.865
					c1.583-4.022,3.378-8.58,0.502-10.961c-1.357-1.123-2.807-1.668-4.433-1.668c-0.868,0-1.67,0.151-2.378,0.284
					c-0.558,0.105-1.086,0.204-1.527,0.204c-0.51,0-0.848-0.129-1.165-0.446c-0.652-0.652-0.406-1.802,0.075-3.619
					c0.526-1.986,1.123-4.238-0.478-5.932c-1.408-1.491-2.548-1.615-3.595-1.615l-0.071,0l-0.068,0c-0.606,0-0.883,0-1.401-0.691
					c-0.456-0.608-0.654-1.404-0.863-2.247c-0.428-1.725-1.015-4.087-4.549-4.205C76.87,8.56,76.858,8.56,76.847,8.56L76.847,8.56z"
					/>
			</g>
			<g>
				<defs>
					<path id="SVGID_1_" d="M121.046,68.537c-1.971-3.941-13.794-4.645-20.551,0.704c-6.756,5.349-5.49-1.408-4.364-2.252
						c1.126-0.845,17.876-14.498,11.261-20.269c-6.616-5.771-10.838,2.111-12.809-0.845c-1.971-2.956,6.193-13.231,2.111-16.609
						c-4.082-3.378-7.32,0.563-9.572-1.689c-2.252-2.252,1.971-7.038-0.422-9.572c-2.393-2.534-3.519-0.141-5.208-2.393
						C79.803,13.36,81.07,9.7,76.847,9.56c0,0-3.66,0.281-4.927,2.111c-1.267,1.83-2.111,1.83-2.956,2.674
						c-0.845,0.844-1.689,6.053-1.408,7.46c0.281,1.408-2.534-0.422-3.66,1.689c-1.126,2.111,0,6.053-1.126,8.023
						c-1.126,1.971-4.786,0-6.193,3.66c-1.408,3.66,4.223,10.275,3.378,12.246c-0.845,1.971-4.504-0.282-7.179,4.786
						c-2.674,5.067,6.193,10.416,5.49,12.105c-0.704,1.689-6.616,0.141-8.586,4.223c-1.971,4.082,9.994,12.105,9.149,14.498
						c-0.844,2.393-12.105-3.097-14.357,2.111c-2.252,5.208,23.225,18.299,22.381,22.381c-0.845,4.082-10.135-0.985-11.683,3.378
						c-1.548,4.364,18.721,11.12,19.284,14.217c0.563,3.097,1.408,10.275,4.504,12.528c0,0,0.375,8.633,0.094,9.759
						c-0.282,1.126-0.845,3.284-0.845,3.284l1.595,0.469l0.657-1.501l-0.094-2.346l0.188-8.352l0.469-1.595l-0.221,0.03
						c0.982-0.319,2.1-1.023,2.661-2.564c1.126-3.097,1.971-4.786,3.378-5.349c1.408-0.563,3.8-1.971,4.082-3.941
						c0.282-1.971-4.786-3.097-4.364-6.193c0.422-3.097,26.744-1.407,26.463-11.964s-16.469-3.66-17.876-8.446
						c-1.408-4.786,3.66-9.149,8.305-9.572c4.645-0.422,9.431-3.378,9.572-5.067c0.141-1.689,0.704-5.349,3.237-6.475
						C118.793,76.701,123.016,72.479,121.046,68.537z"/>
				</defs>
				<clipPath id="SVGID_2_">
					<use xlink:href="#SVGID_1_"  overflow="visible"/>
				</clipPath>
				<g clip-path="url(#SVGID_2_)">
					<circle fill="#AAD801" cx="40.136" cy="126.915" r="1.042"/>
					<circle fill="#AAD801" cx="40.136" cy="121.411" r="1.042"/>
					<circle fill="#AAD801" cx="37.384" cy="118.659" r="1.042"/>
					<circle fill="#AAD801" cx="40.136" cy="115.907" r="1.042"/>
					<circle fill="#AAD801" cx="37.384" cy="113.155" r="1.042"/>
					<circle fill="#AAD801" cx="40.136" cy="110.402" r="1.042"/>
					<circle fill="#AAD801" cx="37.384" cy="107.65" r="1.042"/>
					<circle fill="#AAD801" cx="40.136" cy="104.898" r="1.042"/>
					<circle fill="#AAD801" cx="37.384" cy="102.146" r="1.042"/>
					<circle fill="#AAD801" cx="40.136" cy="99.394" r="1.042"/>
					<circle fill="#AAD801" cx="37.384" cy="96.642" r="1.042"/>
					<circle fill="#AAD801" cx="40.136" cy="93.89" r="1.042"/>
					<circle fill="#AAD801" cx="37.384" cy="91.138" r="1.042"/>
					<circle fill="#AAD801" cx="40.136" cy="88.386" r="1.042"/>
					<circle fill="#AAD801" cx="37.384" cy="85.634" r="1.042"/>
					<circle fill="#AAD801" cx="40.136" cy="82.882" r="1.042"/>
					<circle fill="#AAD801" cx="37.384" cy="80.13" r="1.042"/>
					<circle fill="#AAD801" cx="40.136" cy="77.378" r="1.042"/>
					<circle fill="#AAD801" cx="37.384" cy="74.626" r="1.042"/>
					<circle fill="#AAD801" cx="40.136" cy="71.873" r="1.042"/>
					<circle fill="#AAD801" cx="37.384" cy="69.121" r="1.042"/>
					<circle fill="#AAD801" cx="40.136" cy="66.369" r="1.042"/>
					<circle fill="#AAD801" cx="37.384" cy="63.617" r="1.042"/>
					<circle fill="#AAD801" cx="40.136" cy="60.865" r="1.042"/>
					<circle fill="#AAD801" cx="37.384" cy="58.113" r="1.042"/>
					<circle fill="#AAD801" cx="40.136" cy="55.361" r="1.042"/>
					<circle fill="#AAD801" cx="37.384" cy="52.609" r="1.042"/>
					<circle fill="#AAD801" cx="40.136" cy="49.857" r="1.042"/>
					<circle fill="#AAD801" cx="37.384" cy="47.105" r="1.042"/>
					<circle fill="#AAD801" cx="40.136" cy="44.353" r="1.042"/>
					<circle fill="#AAD801" cx="37.384" cy="41.601" r="1.042"/>
					<circle fill="#AAD801" cx="40.136" cy="38.849" r="1.042"/>
					<circle fill="#AAD801" cx="40.136" cy="33.344" r="1.042"/>
					<circle fill="#AAD801" cx="40.136" cy="27.84" r="1.042"/>
					<circle fill="#AAD801" cx="40.136" cy="22.336" r="1.042"/>
					<circle fill="#AAD801" cx="42.888" cy="129.667" r="1.042"/>
					<circle fill="#AAD801" cx="45.64" cy="126.915" r="1.042"/>
					<circle fill="#AAD801" cx="42.888" cy="124.163" r="1.042"/>
					<circle fill="#AAD801" cx="45.64" cy="121.411" r="1.042"/>
					<circle fill="#AAD801" cx="42.888" cy="118.659" r="1.042"/>
					<circle fill="#AAD801" cx="45.64" cy="115.907" r="1.042"/>
					<circle fill="#AAD801" cx="42.888" cy="113.155" r="1.042"/>
					<circle fill="#AAD801" cx="45.64" cy="110.402" r="1.042"/>
					<circle fill="#AAD801" cx="42.888" cy="107.65" r="1.042"/>
					<circle fill="#AAD801" cx="45.64" cy="104.898" r="1.042"/>
					<circle fill="#AAD801" cx="42.888" cy="102.146" r="1.042"/>
					<circle fill="#AAD801" cx="45.64" cy="99.394" r="1.042"/>
					<circle fill="#AAD801" cx="42.888" cy="96.642" r="1.042"/>
					<circle fill="#AAD801" cx="45.64" cy="93.89" r="1.042"/>
					<circle fill="#AAD801" cx="42.888" cy="91.138" r="1.042"/>
					<circle fill="#AAD801" cx="45.64" cy="88.386" r="1.042"/>
					<circle fill="#AAD801" cx="42.888" cy="85.634" r="1.042"/>
					<circle fill="#AAD801" cx="45.64" cy="82.882" r="1.042"/>
					<circle fill="#AAD801" cx="42.888" cy="80.13" r="1.042"/>
					<circle fill="#AAD801" cx="45.64" cy="77.378" r="1.042"/>
					<circle fill="#AAD801" cx="42.888" cy="74.626" r="1.042"/>
					<circle fill="#AAD801" cx="45.64" cy="71.873" r="1.042"/>
					<circle fill="#AAD801" cx="42.888" cy="69.121" r="1.042"/>
					<circle fill="#AAD801" cx="45.64" cy="66.369" r="1.042"/>
					<circle fill="#AAD801" cx="42.888" cy="63.617" r="1.042"/>
					<circle fill="#AAD801" cx="45.64" cy="60.865" r="1.042"/>
					<circle fill="#AAD801" cx="42.888" cy="58.113" r="1.042"/>
					<circle fill="#AAD801" cx="45.64" cy="55.361" r="1.042"/>
					<circle fill="#AAD801" cx="42.888" cy="52.609" r="1.042"/>
					<circle fill="#AAD801" cx="45.64" cy="49.857" r="1.042"/>
					<circle fill="#AAD801" cx="42.888" cy="47.105" r="1.042"/>
					<circle fill="#AAD801" cx="45.64" cy="44.353" r="1.042"/>
					<circle fill="#AAD801" cx="42.888" cy="41.601" r="1.042"/>
					<circle fill="#AAD801" cx="45.64" cy="38.849" r="1.042"/>
					<circle fill="#AAD801" cx="42.888" cy="36.097" r="1.042"/>
					<circle fill="#AAD801" cx="45.64" cy="33.344" r="1.042"/>
					<circle fill="#AAD801" cx="42.888" cy="30.592" r="1.042"/>
					<circle fill="#AAD801" cx="45.64" cy="27.84" r="1.042"/>
					<circle fill="#AAD801" cx="42.888" cy="25.088" r="1.042"/>
					<circle fill="#AAD801" cx="45.64" cy="22.336" r="1.042"/>
					<circle fill="#AAD801" cx="42.888" cy="19.584" r="1.042"/>
					<circle fill="#AAD801" cx="45.64" cy="16.832" r="1.042"/>
					<circle fill="#AAD801" cx="42.888" cy="14.08" r="1.042"/>
					<circle fill="#AAD801" cx="45.64" cy="11.328" r="1.042"/>
					<circle fill="#AAD801" cx="42.888" cy="8.576" r="1.042"/>
					<circle fill="#AAD801" cx="45.64" cy="5.824" r="1.042"/>
					<circle fill="#AAD801" cx="42.888" cy="3.072" r="1.042"/>
					<circle fill="#AAD801" cx="45.64" cy="0.32" r="1.042"/>
					<circle fill="#AAD801" cx="51.144" cy="132.419" r="1.042"/>
					<circle fill="#AAD801" cx="48.392" cy="129.667" r="1.042"/>
					<circle fill="#AAD801" cx="51.144" cy="126.915" r="1.042"/>
					<circle fill="#AAD801" cx="48.392" cy="124.163" r="1.042"/>
					<circle fill="#AAD801" cx="51.144" cy="121.411" r="1.042"/>
					<circle fill="#AAD801" cx="48.392" cy="118.659" r="1.042"/>
					<circle fill="#AAD801" cx="51.144" cy="115.907" r="1.042"/>
					<circle fill="#AAD801" cx="48.392" cy="113.155" r="1.042"/>
					<circle fill="#AAD801" cx="51.144" cy="110.402" r="1.042"/>
					<circle fill="#AAD801" cx="48.392" cy="107.65" r="1.042"/>
					<circle fill="#AAD801" cx="51.144" cy="104.898" r="1.042"/>
					<circle fill="#AAD801" cx="48.392" cy="102.146" r="1.042"/>
					<circle fill="#AAD801" cx="51.144" cy="99.394" r="1.042"/>
					<circle fill="#AAD801" cx="48.392" cy="96.642" r="1.042"/>
					<circle fill="#AAD801" cx="51.144" cy="93.89" r="1.042"/>
					<circle fill="#AAD801" cx="48.392" cy="91.138" r="1.042"/>
					<circle fill="#AAD801" cx="51.144" cy="88.386" r="1.042"/>
					<circle fill="#AAD801" cx="48.392" cy="85.634" r="1.042"/>
					<circle fill="#AAD801" cx="51.144" cy="82.882" r="1.042"/>
					<circle fill="#AAD801" cx="48.392" cy="80.13" r="1.042"/>
					<circle fill="#AAD801" cx="51.144" cy="77.378" r="1.042"/>
					<circle fill="#AAD801" cx="48.392" cy="74.626" r="1.042"/>
					<circle fill="#AAD801" cx="51.144" cy="71.873" r="1.042"/>
					<circle fill="#AAD801" cx="48.392" cy="69.121" r="1.042"/>
					<circle fill="#AAD801" cx="51.144" cy="66.369" r="1.042"/>
					<circle fill="#AAD801" cx="48.392" cy="63.617" r="1.042"/>
					<circle fill="#AAD801" cx="51.144" cy="60.865" r="1.042"/>
					<circle fill="#AAD801" cx="48.392" cy="58.113" r="1.042"/>
					<circle fill="#AAD801" cx="51.144" cy="55.361" r="1.042"/>
					<circle fill="#AAD801" cx="48.392" cy="52.609" r="1.042"/>
					<circle fill="#AAD801" cx="51.144" cy="49.857" r="1.042"/>
					<circle fill="#AAD801" cx="48.392" cy="47.105" r="1.042"/>
					<circle fill="#AAD801" cx="51.144" cy="44.353" r="1.042"/>
					<circle fill="#AAD801" cx="48.392" cy="41.601" r="1.042"/>
					<circle fill="#AAD801" cx="51.144" cy="38.849" r="1.042"/>
					<circle fill="#AAD801" cx="48.392" cy="36.097" r="1.042"/>
					<circle fill="#AAD801" cx="51.144" cy="33.344" r="1.042"/>
					<circle fill="#AAD801" cx="48.392" cy="30.592" r="1.042"/>
					<circle fill="#AAD801" cx="51.144" cy="27.84" r="1.042"/>
					<circle fill="#AAD801" cx="48.392" cy="25.088" r="1.042"/>
					<circle fill="#AAD801" cx="51.144" cy="22.336" r="1.042"/>
					<circle fill="#AAD801" cx="48.392" cy="19.584" r="1.042"/>
					<circle fill="#AAD801" cx="51.144" cy="16.832" r="1.042"/>
					<circle fill="#AAD801" cx="48.392" cy="14.08" r="1.042"/>
					<circle fill="#AAD801" cx="51.144" cy="11.328" r="1.042"/>
					<circle fill="#AAD801" cx="48.392" cy="8.576" r="1.042"/>
					<circle fill="#AAD801" cx="51.144" cy="5.824" r="1.042"/>
					<circle fill="#AAD801" cx="48.392" cy="3.072" r="1.042"/>
					<circle fill="#AAD801" cx="51.144" cy="0.32" r="1.042"/>
					<circle fill="#AAD801" cx="48.392" cy="-2.433" r="1.042"/>
					<circle fill="#AAD801" cx="53.896" cy="135.171" r="1.042"/>
					<circle fill="#AAD801" cx="56.648" cy="132.419" r="1.042"/>
					<circle fill="#AAD801" cx="53.896" cy="129.667" r="1.042"/>
					<circle fill="#AAD801" cx="56.648" cy="126.915" r="1.042"/>
					<circle fill="#AAD801" cx="53.896" cy="124.163" r="1.042"/>
					<circle fill="#AAD801" cx="56.648" cy="121.411" r="1.042"/>
					<circle fill="#AAD801" cx="53.896" cy="118.659" r="1.042"/>
					<circle fill="#AAD801" cx="56.648" cy="115.907" r="1.042"/>
					<circle fill="#AAD801" cx="53.896" cy="113.155" r="1.042"/>
					<circle fill="#AAD801" cx="56.648" cy="110.402" r="1.042"/>
					<circle fill="#AAD801" cx="53.896" cy="107.65" r="1.042"/>
					<circle fill="#AAD801" cx="56.648" cy="104.898" r="1.042"/>
					<circle fill="#AAD801" cx="53.896" cy="102.146" r="1.042"/>
					<circle fill="#AAD801" cx="56.648" cy="99.394" r="1.042"/>
					<circle fill="#AAD801" cx="53.896" cy="96.642" r="1.042"/>
					<circle fill="#AAD801" cx="56.648" cy="93.89" r="1.042"/>
					<circle fill="#AAD801" cx="53.896" cy="91.138" r="1.042"/>
					<circle fill="#AAD801" cx="56.648" cy="88.386" r="1.042"/>
					<circle fill="#AAD801" cx="53.896" cy="85.634" r="1.042"/>
					<circle fill="#AAD801" cx="56.648" cy="82.882" r="1.042"/>
					<circle fill="#AAD801" cx="53.896" cy="80.13" r="1.042"/>
					<circle fill="#AAD801" cx="56.648" cy="77.378" r="1.042"/>
					<circle fill="#AAD801" cx="53.896" cy="74.626" r="1.042"/>
					<circle fill="#AAD801" cx="56.648" cy="71.873" r="1.042"/>
					<circle fill="#AAD801" cx="53.896" cy="69.121" r="1.042"/>
					<circle fill="#AAD801" cx="56.648" cy="66.369" r="1.042"/>
					<circle fill="#AAD801" cx="53.896" cy="63.617" r="1.042"/>
					<circle fill="#AAD801" cx="56.648" cy="60.865" r="1.042"/>
					<circle fill="#AAD801" cx="53.896" cy="58.113" r="1.042"/>
					<circle fill="#AAD801" cx="56.648" cy="55.361" r="1.042"/>
					<circle fill="#AAD801" cx="53.896" cy="52.609" r="1.042"/>
					<circle fill="#AAD801" cx="56.648" cy="49.857" r="1.042"/>
					<circle fill="#AAD801" cx="53.896" cy="47.105" r="1.042"/>
					<circle fill="#AAD801" cx="56.648" cy="44.353" r="1.042"/>
					<circle fill="#AAD801" cx="53.896" cy="41.601" r="1.042"/>
					<circle fill="#AAD801" cx="56.648" cy="38.849" r="1.042"/>
					<circle fill="#AAD801" cx="53.896" cy="36.097" r="1.042"/>
					<circle fill="#AAD801" cx="56.648" cy="33.344" r="1.042"/>
					<circle fill="#AAD801" cx="53.896" cy="30.592" r="1.042"/>
					<circle fill="#AAD801" cx="56.648" cy="27.84" r="1.042"/>
					<circle fill="#AAD801" cx="53.896" cy="25.088" r="1.042"/>
					<circle fill="#AAD801" cx="56.648" cy="22.336" r="1.042"/>
					<circle fill="#AAD801" cx="53.896" cy="19.584" r="1.042"/>
					<circle fill="#AAD801" cx="56.648" cy="16.832" r="1.042"/>
					<circle fill="#AAD801" cx="53.896" cy="14.08" r="1.042"/>
					<circle fill="#AAD801" cx="56.648" cy="11.328" r="1.042"/>
					<circle fill="#AAD801" cx="53.896" cy="8.576" r="1.042"/>
					<circle fill="#AAD801" cx="56.648" cy="5.824" r="1.042"/>
					<circle fill="#AAD801" cx="53.896" cy="3.072" r="1.042"/>
					<circle fill="#AAD801" cx="56.648" cy="0.32" r="1.042"/>
					<circle fill="#AAD801" cx="53.896" cy="-2.433" r="1.042"/>
					<circle fill="#AAD801" cx="56.648" cy="-5.185" r="1.042"/>
					<circle fill="#AAD801" cx="62.152" cy="137.923" r="1.042"/>
					<circle fill="#AAD801" cx="59.4" cy="135.171" r="1.042"/>
					<circle fill="#AAD801" cx="62.152" cy="132.419" r="1.042"/>
					<circle fill="#AAD801" cx="59.4" cy="129.667" r="1.042"/>
					<circle fill="#AAD801" cx="62.152" cy="126.915" r="1.042"/>
					<circle fill="#AAD801" cx="59.4" cy="124.163" r="1.042"/>
					<circle fill="#AAD801" cx="62.152" cy="121.411" r="1.042"/>
					<circle fill="#AAD801" cx="59.4" cy="118.659" r="1.042"/>
					<circle fill="#AAD801" cx="62.152" cy="115.907" r="1.042"/>
					<circle fill="#AAD801" cx="59.4" cy="113.155" r="1.042"/>
					<circle fill="#AAD801" cx="62.152" cy="110.402" r="1.042"/>
					<circle fill="#AAD801" cx="59.4" cy="107.65" r="1.042"/>
					<circle fill="#AAD801" cx="62.152" cy="104.898" r="1.042"/>
					<circle fill="#AAD801" cx="59.4" cy="102.146" r="1.042"/>
					<circle fill="#AAD801" cx="62.152" cy="99.394" r="1.042"/>
					<circle fill="#AAD801" cx="59.4" cy="96.642" r="1.042"/>
					<circle fill="#AAD801" cx="62.152" cy="93.89" r="1.042"/>
					<circle fill="#AAD801" cx="59.4" cy="91.138" r="1.042"/>
					<circle fill="#AAD801" cx="62.152" cy="88.386" r="1.042"/>
					<circle fill="#AAD801" cx="59.4" cy="85.634" r="1.042"/>
					<circle fill="#AAD801" cx="62.152" cy="82.882" r="1.042"/>
					<circle fill="#AAD801" cx="59.4" cy="80.13" r="1.042"/>
					<circle fill="#AAD801" cx="62.152" cy="77.378" r="1.042"/>
					<circle fill="#AAD801" cx="59.4" cy="74.626" r="1.042"/>
					<circle fill="#AAD801" cx="62.152" cy="71.873" r="1.042"/>
					<circle fill="#AAD801" cx="59.4" cy="69.121" r="1.042"/>
					<circle fill="#AAD801" cx="62.152" cy="66.369" r="1.042"/>
					<circle fill="#AAD801" cx="59.4" cy="63.617" r="1.042"/>
					<circle fill="#AAD801" cx="62.152" cy="60.865" r="1.042"/>
					<circle fill="#AAD801" cx="59.4" cy="58.113" r="1.042"/>
					<circle fill="#AAD801" cx="62.152" cy="55.361" r="1.042"/>
					<circle fill="#AAD801" cx="59.4" cy="52.609" r="1.042"/>
					<circle fill="#AAD801" cx="62.152" cy="49.857" r="1.042"/>
					<circle fill="#AAD801" cx="59.4" cy="47.105" r="1.042"/>
					<circle fill="#AAD801" cx="62.152" cy="44.353" r="1.042"/>
					<circle fill="#AAD801" cx="59.4" cy="41.601" r="1.042"/>
					<circle fill="#AAD801" cx="62.152" cy="38.849" r="1.042"/>
					<circle fill="#AAD801" cx="59.4" cy="36.097" r="1.042"/>
					<circle fill="#AAD801" cx="62.152" cy="33.344" r="1.042"/>
					<circle fill="#AAD801" cx="59.4" cy="30.592" r="1.042"/>
					<circle fill="#AAD801" cx="62.152" cy="27.84" r="1.042"/>
					<circle fill="#AAD801" cx="59.4" cy="25.088" r="1.042"/>
					<circle fill="#AAD801" cx="62.152" cy="22.336" r="1.042"/>
					<circle fill="#AAD801" cx="59.4" cy="19.584" r="1.042"/>
					<circle fill="#AAD801" cx="62.152" cy="16.832" r="1.042"/>
					<circle fill="#AAD801" cx="59.4" cy="14.08" r="1.042"/>
					<circle fill="#AAD801" cx="62.152" cy="11.328" r="1.042"/>
					<circle fill="#AAD801" cx="59.4" cy="8.576" r="1.042"/>
					<circle fill="#AAD801" cx="62.152" cy="5.824" r="1.042"/>
					<circle fill="#AAD801" cx="59.4" cy="3.072" r="1.042"/>
					<circle fill="#AAD801" cx="62.152" cy="0.32" r="1.042"/>
					<circle fill="#AAD801" cx="59.4" cy="-2.433" r="1.042"/>
					<circle fill="#AAD801" cx="62.152" cy="-5.185" r="1.042"/>
					<circle fill="#AAD801" cx="67.657" cy="137.923" r="1.042"/>
					<circle fill="#AAD801" cx="64.905" cy="135.171" r="1.042"/>
					<circle fill="#AAD801" cx="67.657" cy="132.419" r="1.042"/>
					<circle fill="#AAD801" cx="64.905" cy="129.667" r="1.042"/>
					<circle fill="#AAD801" cx="67.657" cy="126.915" r="1.042"/>
					<circle fill="#AAD801" cx="64.905" cy="124.163" r="1.042"/>
					<circle fill="#AAD801" cx="67.657" cy="121.411" r="1.042"/>
					<circle fill="#AAD801" cx="64.905" cy="118.659" r="1.042"/>
					<circle fill="#AAD801" cx="67.657" cy="115.907" r="1.042"/>
					<circle fill="#AAD801" cx="64.905" cy="113.155" r="1.042"/>
					<circle fill="#AAD801" cx="67.657" cy="110.402" r="1.042"/>
					<circle fill="#AAD801" cx="64.905" cy="107.65" r="1.042"/>
					<circle fill="#AAD801" cx="67.657" cy="104.898" r="1.042"/>
					<circle fill="#AAD801" cx="64.905" cy="102.146" r="1.042"/>
					<circle fill="#AAD801" cx="67.657" cy="99.394" r="1.042"/>
					<circle fill="#AAD801" cx="64.905" cy="96.642" r="1.042"/>
					<circle fill="#AAD801" cx="67.657" cy="93.89" r="1.042"/>
					<circle fill="#AAD801" cx="64.905" cy="91.138" r="1.042"/>
					<circle fill="#AAD801" cx="67.657" cy="88.386" r="1.042"/>
					<circle fill="#AAD801" cx="64.905" cy="85.634" r="1.042"/>
					<circle fill="#AAD801" cx="67.657" cy="82.882" r="1.042"/>
					<circle fill="#AAD801" cx="64.905" cy="80.13" r="1.042"/>
					<circle fill="#AAD801" cx="67.657" cy="77.378" r="1.042"/>
					<circle fill="#AAD801" cx="64.905" cy="74.626" r="1.042"/>
					<circle fill="#AAD801" cx="67.657" cy="71.873" r="1.042"/>
					<circle fill="#AAD801" cx="64.905" cy="69.121" r="1.042"/>
					<circle fill="#AAD801" cx="67.657" cy="66.369" r="1.042"/>
					<circle fill="#AAD801" cx="64.905" cy="63.617" r="1.042"/>
					<circle fill="#AAD801" cx="67.657" cy="60.865" r="1.042"/>
					<circle fill="#AAD801" cx="64.905" cy="58.113" r="1.042"/>
					<circle fill="#AAD801" cx="67.657" cy="55.361" r="1.042"/>
					<circle fill="#AAD801" cx="64.905" cy="52.609" r="1.042"/>
					<circle fill="#AAD801" cx="67.657" cy="49.857" r="1.042"/>
					<circle fill="#AAD801" cx="64.905" cy="47.105" r="1.042"/>
					<circle fill="#AAD801" cx="67.657" cy="44.353" r="1.042"/>
					<circle fill="#AAD801" cx="64.905" cy="41.601" r="1.042"/>
					<circle fill="#AAD801" cx="67.657" cy="38.849" r="1.042"/>
					<circle fill="#AAD801" cx="64.905" cy="36.097" r="1.042"/>
					<circle fill="#AAD801" cx="67.657" cy="33.344" r="1.042"/>
					<circle fill="#AAD801" cx="64.905" cy="30.592" r="1.042"/>
					<circle fill="#AAD801" cx="67.657" cy="27.84" r="1.042"/>
					<circle fill="#AAD801" cx="64.905" cy="25.088" r="1.042"/>
					<circle fill="#AAD801" cx="67.657" cy="22.336" r="1.042"/>
					<circle fill="#AAD801" cx="64.905" cy="19.584" r="1.042"/>
					<circle fill="#AAD801" cx="67.657" cy="16.832" r="1.042"/>
					<circle fill="#AAD801" cx="64.905" cy="14.08" r="1.042"/>
					<circle fill="#AAD801" cx="67.657" cy="11.328" r="1.042"/>
					<circle fill="#AAD801" cx="64.905" cy="8.576" r="1.042"/>
					<circle fill="#AAD801" cx="67.657" cy="5.824" r="1.042"/>
					<circle fill="#AAD801" cx="64.905" cy="3.072" r="1.042"/>
					<circle fill="#AAD801" cx="67.657" cy="0.32" r="1.042"/>
					<circle fill="#AAD801" cx="64.905" cy="-2.433" r="1.042"/>
					<circle fill="#AAD801" cx="67.657" cy="-5.185" r="1.042"/>
					<circle fill="#AAD801" cx="70.409" cy="140.675" r="1.042"/>
					<circle fill="#AAD801" cx="73.161" cy="137.923" r="1.042"/>
					<circle fill="#AAD801" cx="70.409" cy="135.171" r="1.042"/>
					<circle fill="#AAD801" cx="73.161" cy="132.419" r="1.042"/>
					<circle fill="#AAD801" cx="70.409" cy="129.667" r="1.042"/>
					<circle fill="#AAD801" cx="73.161" cy="126.915" r="1.042"/>
					<circle fill="#AAD801" cx="70.409" cy="124.163" r="1.042"/>
					<circle fill="#AAD801" cx="73.161" cy="121.411" r="1.042"/>
					<circle fill="#AAD801" cx="70.409" cy="118.659" r="1.042"/>
					<circle fill="#AAD801" cx="73.161" cy="115.907" r="1.042"/>
					<circle fill="#AAD801" cx="70.409" cy="113.155" r="1.042"/>
					<circle fill="#AAD801" cx="73.161" cy="110.402" r="1.042"/>
					<circle fill="#AAD801" cx="70.409" cy="107.65" r="1.042"/>
					<circle fill="#AAD801" cx="73.161" cy="104.898" r="1.042"/>
					<circle fill="#AAD801" cx="70.409" cy="102.146" r="1.042"/>
					<circle fill="#AAD801" cx="73.161" cy="99.394" r="1.042"/>
					<circle fill="#AAD801" cx="70.409" cy="96.642" r="1.042"/>
					<circle fill="#AAD801" cx="73.161" cy="93.89" r="1.042"/>
					<circle fill="#AAD801" cx="70.409" cy="91.138" r="1.042"/>
					<circle fill="#AAD801" cx="73.161" cy="88.386" r="1.042"/>
					<circle fill="#AAD801" cx="70.409" cy="85.634" r="1.042"/>
					<circle fill="#AAD801" cx="73.161" cy="82.882" r="1.042"/>
					<circle fill="#AAD801" cx="70.409" cy="80.13" r="1.042"/>
					<circle fill="#AAD801" cx="73.161" cy="77.378" r="1.042"/>
					<circle fill="#AAD801" cx="70.409" cy="74.626" r="1.042"/>
					<circle fill="#AAD801" cx="73.161" cy="71.873" r="1.042"/>
					<circle fill="#AAD801" cx="70.409" cy="69.121" r="1.042"/>
					<circle fill="#AAD801" cx="73.161" cy="66.369" r="1.042"/>
					<circle fill="#AAD801" cx="70.409" cy="63.617" r="1.042"/>
					<circle fill="#AAD801" cx="73.161" cy="60.865" r="1.042"/>
					<circle fill="#AAD801" cx="70.409" cy="58.113" r="1.042"/>
					<circle fill="#AAD801" cx="73.161" cy="55.361" r="1.042"/>
					<circle fill="#AAD801" cx="70.409" cy="52.609" r="1.042"/>
					<circle fill="#AAD801" cx="73.161" cy="49.857" r="1.042"/>
					<circle fill="#AAD801" cx="70.409" cy="47.105" r="1.042"/>
					<circle fill="#AAD801" cx="73.161" cy="44.353" r="1.042"/>
					<circle fill="#AAD801" cx="70.409" cy="41.601" r="1.042"/>
					<circle fill="#AAD801" cx="73.161" cy="38.849" r="1.042"/>
					<circle fill="#AAD801" cx="70.409" cy="36.097" r="1.042"/>
					<circle fill="#AAD801" cx="73.161" cy="33.344" r="1.042"/>
					<circle fill="#AAD801" cx="70.409" cy="30.592" r="1.042"/>
					<circle fill="#AAD801" cx="73.161" cy="27.84" r="1.042"/>
					<circle fill="#AAD801" cx="70.409" cy="25.088" r="1.042"/>
					<circle fill="#AAD801" cx="73.161" cy="22.336" r="1.042"/>
					<circle fill="#AAD801" cx="70.409" cy="19.584" r="1.042"/>
					<circle fill="#AAD801" cx="73.161" cy="16.832" r="1.042"/>
					<circle fill="#AAD801" cx="70.409" cy="14.08" r="1.042"/>
					<circle fill="#AAD801" cx="73.161" cy="11.328" r="1.042"/>
					<circle fill="#AAD801" cx="70.409" cy="8.576" r="1.042"/>
					<circle fill="#AAD801" cx="73.161" cy="5.824" r="1.042"/>
					<circle fill="#AAD801" cx="70.409" cy="3.072" r="1.042"/>
					<circle fill="#AAD801" cx="73.161" cy="0.32" r="1.042"/>
					<circle fill="#AAD801" cx="70.409" cy="-2.433" r="1.042"/>
					<circle fill="#AAD801" cx="73.161" cy="-5.185" r="1.042"/>
					<circle fill="#AAD801" cx="75.913" cy="140.675" r="1.042"/>
					<circle fill="#AAD801" cx="78.665" cy="137.923" r="1.042"/>
					<circle fill="#AAD801" cx="75.913" cy="135.171" r="1.042"/>
					<circle fill="#AAD801" cx="78.665" cy="132.419" r="1.042"/>
					<circle fill="#AAD801" cx="75.913" cy="129.667" r="1.042"/>
					<circle fill="#AAD801" cx="78.665" cy="126.915" r="1.042"/>
					<circle fill="#AAD801" cx="75.913" cy="124.163" r="1.042"/>
					<circle fill="#AAD801" cx="78.665" cy="121.411" r="1.042"/>
					<circle fill="#AAD801" cx="75.913" cy="118.659" r="1.042"/>
					<circle fill="#AAD801" cx="78.665" cy="115.907" r="1.042"/>
					<circle fill="#AAD801" cx="75.913" cy="113.155" r="1.042"/>
					<circle fill="#AAD801" cx="78.665" cy="110.402" r="1.042"/>
					<circle fill="#AAD801" cx="75.913" cy="107.65" r="1.042"/>
					<circle fill="#AAD801" cx="78.665" cy="104.898" r="1.042"/>
					<circle fill="#AAD801" cx="75.913" cy="102.146" r="1.042"/>
					<circle fill="#AAD801" cx="78.665" cy="99.394" r="1.042"/>
					<circle fill="#AAD801" cx="75.913" cy="96.642" r="1.042"/>
					<circle fill="#AAD801" cx="78.665" cy="93.89" r="1.042"/>
					<circle fill="#AAD801" cx="75.913" cy="91.138" r="1.042"/>
					<circle fill="#AAD801" cx="78.665" cy="88.386" r="1.042"/>
					<circle fill="#AAD801" cx="75.913" cy="85.634" r="1.042"/>
					<circle fill="#AAD801" cx="78.665" cy="82.882" r="1.042"/>
					<circle fill="#AAD801" cx="75.913" cy="80.13" r="1.042"/>
					<circle fill="#AAD801" cx="78.665" cy="77.378" r="1.042"/>
					<circle fill="#AAD801" cx="75.913" cy="74.626" r="1.042"/>
					<circle fill="#AAD801" cx="78.665" cy="71.873" r="1.042"/>
					<circle fill="#AAD801" cx="75.913" cy="69.121" r="1.042"/>
					<circle fill="#AAD801" cx="78.665" cy="66.369" r="1.042"/>
					<circle fill="#AAD801" cx="75.913" cy="63.617" r="1.042"/>
					<circle fill="#AAD801" cx="78.665" cy="60.865" r="1.042"/>
					<circle fill="#AAD801" cx="75.913" cy="58.113" r="1.042"/>
					<circle fill="#AAD801" cx="78.665" cy="55.361" r="1.042"/>
					<circle fill="#AAD801" cx="75.913" cy="52.609" r="1.042"/>
					<circle fill="#AAD801" cx="78.665" cy="49.857" r="1.042"/>
					<circle fill="#AAD801" cx="75.913" cy="47.105" r="1.042"/>
					<circle fill="#AAD801" cx="78.665" cy="44.353" r="1.042"/>
					<circle fill="#AAD801" cx="75.913" cy="41.601" r="1.042"/>
					<circle fill="#AAD801" cx="78.665" cy="38.849" r="1.042"/>
					<circle fill="#AAD801" cx="75.913" cy="36.097" r="1.042"/>
					<circle fill="#AAD801" cx="78.665" cy="33.344" r="1.042"/>
					<circle fill="#AAD801" cx="75.913" cy="30.592" r="1.042"/>
					<circle fill="#AAD801" cx="78.665" cy="27.84" r="1.042"/>
					<circle fill="#AAD801" cx="75.913" cy="25.088" r="1.042"/>
					<circle fill="#AAD801" cx="78.665" cy="22.336" r="1.042"/>
					<circle fill="#AAD801" cx="75.913" cy="19.584" r="1.042"/>
					<circle fill="#AAD801" cx="78.665" cy="16.832" r="1.042"/>
					<circle fill="#AAD801" cx="75.913" cy="14.08" r="1.042"/>
					<circle fill="#AAD801" cx="78.665" cy="11.328" r="1.042"/>
					<circle fill="#AAD801" cx="75.913" cy="8.576" r="1.042"/>
					<circle fill="#AAD801" cx="78.665" cy="5.824" r="1.042"/>
					<circle fill="#AAD801" cx="75.913" cy="3.072" r="1.042"/>
					<circle fill="#AAD801" cx="78.665" cy="0.32" r="1.042"/>
					<circle fill="#AAD801" cx="75.913" cy="-2.433" r="1.042"/>
					<circle fill="#AAD801" cx="78.665" cy="-5.185" r="1.042"/>
					<circle fill="#AAD801" cx="81.408" cy="140.675" r="1.042"/>
					<circle fill="#AAD801" cx="84.16" cy="137.923" r="1.042"/>
					<circle fill="#AAD801" cx="81.408" cy="135.171" r="1.042"/>
					<circle fill="#AAD801" cx="84.16" cy="132.419" r="1.042"/>
					<circle fill="#AAD801" cx="81.408" cy="129.667" r="1.042"/>
					<circle fill="#AAD801" cx="84.16" cy="126.915" r="1.042"/>
					<circle fill="#AAD801" cx="81.408" cy="124.163" r="1.042"/>
					<circle fill="#AAD801" cx="84.16" cy="121.411" r="1.042"/>
					<circle fill="#AAD801" cx="81.408" cy="118.659" r="1.042"/>
					<circle fill="#AAD801" cx="84.16" cy="115.907" r="1.042"/>
					<circle fill="#AAD801" cx="81.408" cy="113.155" r="1.042"/>
					<circle fill="#AAD801" cx="84.16" cy="110.402" r="1.042"/>
					<circle fill="#AAD801" cx="81.408" cy="107.65" r="1.042"/>
					<circle fill="#AAD801" cx="84.16" cy="104.898" r="1.042"/>
					<circle fill="#AAD801" cx="81.408" cy="102.146" r="1.042"/>
					<circle fill="#AAD801" cx="84.16" cy="99.394" r="1.042"/>
					<circle fill="#AAD801" cx="81.408" cy="96.642" r="1.042"/>
					<circle fill="#AAD801" cx="84.16" cy="93.89" r="1.042"/>
					<circle fill="#AAD801" cx="81.408" cy="91.138" r="1.042"/>
					<circle fill="#AAD801" cx="84.16" cy="88.386" r="1.042"/>
					<circle fill="#AAD801" cx="81.408" cy="85.634" r="1.042"/>
					<circle fill="#AAD801" cx="84.16" cy="82.882" r="1.042"/>
					<circle fill="#AAD801" cx="81.408" cy="80.13" r="1.042"/>
					<circle fill="#AAD801" cx="84.16" cy="77.378" r="1.042"/>
					<circle fill="#AAD801" cx="81.408" cy="74.626" r="1.042"/>
					<circle fill="#AAD801" cx="84.16" cy="71.873" r="1.042"/>
					<circle fill="#AAD801" cx="81.408" cy="69.121" r="1.042"/>
					<circle fill="#AAD801" cx="84.16" cy="66.369" r="1.042"/>
					<circle fill="#AAD801" cx="81.408" cy="63.617" r="1.042"/>
					<circle fill="#AAD801" cx="84.16" cy="60.865" r="1.042"/>
					<circle fill="#AAD801" cx="81.408" cy="58.113" r="1.042"/>
					<circle fill="#AAD801" cx="84.16" cy="55.361" r="1.042"/>
					<circle fill="#AAD801" cx="81.408" cy="52.609" r="1.042"/>
					<circle fill="#AAD801" cx="84.16" cy="49.857" r="1.042"/>
					<circle fill="#AAD801" cx="81.408" cy="47.105" r="1.042"/>
					<circle fill="#AAD801" cx="84.16" cy="44.353" r="1.042"/>
					<circle fill="#AAD801" cx="81.408" cy="41.601" r="1.042"/>
					<circle fill="#AAD801" cx="84.16" cy="38.849" r="1.042"/>
					<circle fill="#AAD801" cx="81.408" cy="36.097" r="1.042"/>
					<circle fill="#AAD801" cx="84.16" cy="33.344" r="1.042"/>
					<circle fill="#AAD801" cx="81.408" cy="30.592" r="1.042"/>
					<circle fill="#AAD801" cx="84.16" cy="27.84" r="1.042"/>
					<circle fill="#AAD801" cx="81.408" cy="25.088" r="1.042"/>
					<circle fill="#AAD801" cx="84.16" cy="22.336" r="1.042"/>
					<circle fill="#AAD801" cx="81.408" cy="19.584" r="1.042"/>
					<circle fill="#AAD801" cx="84.16" cy="16.832" r="1.042"/>
					<circle fill="#AAD801" cx="81.408" cy="14.08" r="1.042"/>
					<circle fill="#AAD801" cx="84.16" cy="11.328" r="1.042"/>
					<circle fill="#AAD801" cx="81.408" cy="8.576" r="1.042"/>
					<circle fill="#AAD801" cx="84.16" cy="5.824" r="1.042"/>
					<circle fill="#AAD801" cx="81.408" cy="3.072" r="1.042"/>
					<circle fill="#AAD801" cx="84.16" cy="0.32" r="1.042"/>
					<circle fill="#AAD801" cx="81.408" cy="-2.433" r="1.042"/>
					<circle fill="#AAD801" cx="84.16" cy="-5.185" r="1.042"/>
					<circle fill="#AAD801" cx="86.912" cy="140.675" r="1.042"/>
					<circle fill="#AAD801" cx="89.664" cy="137.923" r="1.042"/>
					<circle fill="#AAD801" cx="86.912" cy="135.171" r="1.042"/>
					<circle fill="#AAD801" cx="89.664" cy="132.419" r="1.042"/>
					<circle fill="#AAD801" cx="86.912" cy="129.667" r="1.042"/>
					<circle fill="#AAD801" cx="89.664" cy="126.915" r="1.042"/>
					<circle fill="#AAD801" cx="86.912" cy="124.163" r="1.042"/>
					<circle fill="#AAD801" cx="89.664" cy="121.411" r="1.042"/>
					<circle fill="#AAD801" cx="86.912" cy="118.659" r="1.042"/>
					<circle fill="#AAD801" cx="89.664" cy="115.907" r="1.042"/>
					<circle fill="#AAD801" cx="86.912" cy="113.155" r="1.042"/>
					<circle fill="#AAD801" cx="89.664" cy="110.402" r="1.042"/>
					<circle fill="#AAD801" cx="86.912" cy="107.65" r="1.042"/>
					<circle fill="#AAD801" cx="89.664" cy="104.898" r="1.042"/>
					<circle fill="#AAD801" cx="86.912" cy="102.146" r="1.042"/>
					<circle fill="#AAD801" cx="89.664" cy="99.394" r="1.042"/>
					<circle fill="#AAD801" cx="86.912" cy="96.642" r="1.042"/>
					<circle fill="#AAD801" cx="89.664" cy="93.89" r="1.042"/>
					<circle fill="#AAD801" cx="86.912" cy="91.138" r="1.042"/>
					<circle fill="#AAD801" cx="89.664" cy="88.386" r="1.042"/>
					<circle fill="#AAD801" cx="86.912" cy="85.634" r="1.042"/>
					<circle fill="#AAD801" cx="89.664" cy="82.882" r="1.042"/>
					<circle fill="#AAD801" cx="86.912" cy="80.13" r="1.042"/>
					<circle fill="#AAD801" cx="89.664" cy="77.378" r="1.042"/>
					<circle fill="#AAD801" cx="86.912" cy="74.626" r="1.042"/>
					<circle fill="#AAD801" cx="89.664" cy="71.873" r="1.042"/>
					<circle fill="#AAD801" cx="86.912" cy="69.121" r="1.042"/>
					<circle fill="#AAD801" cx="89.664" cy="66.369" r="1.042"/>
					<circle fill="#AAD801" cx="86.912" cy="63.617" r="1.042"/>
					<circle fill="#AAD801" cx="89.664" cy="60.865" r="1.042"/>
					<circle fill="#AAD801" cx="86.912" cy="58.113" r="1.042"/>
					<circle fill="#AAD801" cx="89.664" cy="55.361" r="1.042"/>
					<circle fill="#AAD801" cx="86.912" cy="52.609" r="1.042"/>
					<circle fill="#AAD801" cx="89.664" cy="49.857" r="1.042"/>
					<circle fill="#AAD801" cx="86.912" cy="47.105" r="1.042"/>
					<circle fill="#AAD801" cx="89.664" cy="44.353" r="1.042"/>
					<circle fill="#AAD801" cx="86.912" cy="41.601" r="1.042"/>
					<circle fill="#AAD801" cx="89.664" cy="38.849" r="1.042"/>
					<circle fill="#AAD801" cx="86.912" cy="36.097" r="1.042"/>
					<circle fill="#AAD801" cx="89.664" cy="33.344" r="1.042"/>
					<circle fill="#AAD801" cx="86.912" cy="30.592" r="1.042"/>
					<circle fill="#AAD801" cx="89.664" cy="27.84" r="1.042"/>
					<circle fill="#AAD801" cx="86.912" cy="25.088" r="1.042"/>
					<circle fill="#AAD801" cx="89.664" cy="22.336" r="1.042"/>
					<circle fill="#AAD801" cx="86.912" cy="19.584" r="1.042"/>
					<circle fill="#AAD801" cx="89.664" cy="16.832" r="1.042"/>
					<circle fill="#AAD801" cx="86.912" cy="14.08" r="1.042"/>
					<circle fill="#AAD801" cx="89.664" cy="11.328" r="1.042"/>
					<circle fill="#AAD801" cx="86.912" cy="8.576" r="1.042"/>
					<circle fill="#AAD801" cx="89.664" cy="5.824" r="1.042"/>
					<circle fill="#AAD801" cx="86.912" cy="3.072" r="1.042"/>
					<circle fill="#AAD801" cx="89.664" cy="0.32" r="1.042"/>
					<circle fill="#AAD801" cx="86.912" cy="-2.433" r="1.042"/>
					<circle fill="#AAD801" cx="89.664" cy="-5.185" r="1.042"/>
					<circle fill="#AAD801" cx="95.169" cy="143.427" r="1.042"/>
					<circle fill="#AAD801" cx="92.417" cy="140.675" r="1.042"/>
					<circle fill="#AAD801" cx="95.169" cy="137.923" r="1.042"/>
					<circle fill="#AAD801" cx="92.417" cy="135.171" r="1.042"/>
					<circle fill="#AAD801" cx="95.169" cy="132.419" r="1.042"/>
					<circle fill="#AAD801" cx="92.417" cy="129.667" r="1.042"/>
					<circle fill="#AAD801" cx="95.169" cy="126.915" r="1.042"/>
					<circle fill="#AAD801" cx="92.417" cy="124.163" r="1.042"/>
					<circle fill="#AAD801" cx="95.169" cy="121.411" r="1.042"/>
					<circle fill="#AAD801" cx="92.417" cy="118.659" r="1.042"/>
					<circle fill="#AAD801" cx="95.169" cy="115.907" r="1.042"/>
					<circle fill="#AAD801" cx="92.417" cy="113.155" r="1.042"/>
					<circle fill="#AAD801" cx="95.169" cy="110.402" r="1.042"/>
					<circle fill="#AAD801" cx="92.417" cy="107.65" r="1.042"/>
					<circle fill="#AAD801" cx="95.169" cy="104.898" r="1.042"/>
					<circle fill="#AAD801" cx="92.417" cy="102.146" r="1.042"/>
					<circle fill="#AAD801" cx="95.169" cy="99.394" r="1.042"/>
					<circle fill="#AAD801" cx="92.417" cy="96.642" r="1.042"/>
					<circle fill="#AAD801" cx="95.169" cy="93.89" r="1.042"/>
					<circle fill="#AAD801" cx="92.417" cy="91.138" r="1.042"/>
					<circle fill="#AAD801" cx="95.169" cy="88.386" r="1.042"/>
					<circle fill="#AAD801" cx="92.417" cy="85.634" r="1.042"/>
					<circle fill="#AAD801" cx="95.169" cy="82.882" r="1.042"/>
					<circle fill="#AAD801" cx="92.417" cy="80.13" r="1.042"/>
					<circle fill="#AAD801" cx="95.169" cy="77.378" r="1.042"/>
					<circle fill="#AAD801" cx="92.417" cy="74.626" r="1.042"/>
					<circle fill="#AAD801" cx="95.169" cy="71.873" r="1.042"/>
					<circle fill="#AAD801" cx="92.417" cy="69.121" r="1.042"/>
					<circle fill="#AAD801" cx="95.169" cy="66.369" r="1.042"/>
					<circle fill="#AAD801" cx="92.417" cy="63.617" r="1.042"/>
					<circle fill="#AAD801" cx="95.169" cy="60.865" r="1.042"/>
					<circle fill="#AAD801" cx="92.417" cy="58.113" r="1.042"/>
					<circle fill="#AAD801" cx="95.169" cy="55.361" r="1.042"/>
					<circle fill="#AAD801" cx="92.417" cy="52.609" r="1.042"/>
					<circle fill="#AAD801" cx="95.169" cy="49.857" r="1.042"/>
					<circle fill="#AAD801" cx="92.417" cy="47.105" r="1.042"/>
					<circle fill="#AAD801" cx="95.169" cy="44.353" r="1.042"/>
					<circle fill="#AAD801" cx="92.417" cy="41.601" r="1.042"/>
					<circle fill="#AAD801" cx="95.169" cy="38.849" r="1.042"/>
					<circle fill="#AAD801" cx="92.417" cy="36.097" r="1.042"/>
					<circle fill="#AAD801" cx="95.169" cy="33.344" r="1.042"/>
					<circle fill="#AAD801" cx="92.417" cy="30.592" r="1.042"/>
					<circle fill="#AAD801" cx="95.169" cy="27.84" r="1.042"/>
					<circle fill="#AAD801" cx="92.417" cy="25.088" r="1.042"/>
					<circle fill="#AAD801" cx="95.169" cy="22.336" r="1.042"/>
					<circle fill="#AAD801" cx="92.417" cy="19.584" r="1.042"/>
					<circle fill="#AAD801" cx="95.169" cy="16.832" r="1.042"/>
					<circle fill="#AAD801" cx="92.417" cy="14.08" r="1.042"/>
					<circle fill="#AAD801" cx="95.169" cy="11.328" r="1.042"/>
					<circle fill="#AAD801" cx="92.417" cy="8.576" r="1.042"/>
					<circle fill="#AAD801" cx="95.169" cy="5.824" r="1.042"/>
					<circle fill="#AAD801" cx="92.417" cy="3.072" r="1.042"/>
					<circle fill="#AAD801" cx="95.169" cy="0.32" r="1.042"/>
					<circle fill="#AAD801" cx="92.417" cy="-2.433" r="1.042"/>
					<circle fill="#AAD801" cx="95.169" cy="-5.185" r="1.042"/>
					<circle fill="#AAD801" cx="100.673" cy="143.427" r="1.042"/>
					<circle fill="#AAD801" cx="97.921" cy="140.675" r="1.042"/>
					<circle fill="#AAD801" cx="100.673" cy="137.923" r="1.042"/>
					<circle fill="#AAD801" cx="97.921" cy="135.171" r="1.042"/>
					<circle fill="#AAD801" cx="100.673" cy="132.419" r="1.042"/>
					<circle fill="#AAD801" cx="97.921" cy="129.667" r="1.042"/>
					<circle fill="#AAD801" cx="100.673" cy="126.915" r="1.042"/>
					<circle fill="#AAD801" cx="97.921" cy="124.163" r="1.042"/>
					<circle fill="#AAD801" cx="100.673" cy="121.411" r="1.042"/>
					<circle fill="#AAD801" cx="97.921" cy="118.659" r="1.042"/>
					<circle fill="#AAD801" cx="100.673" cy="115.907" r="1.042"/>
					<circle fill="#AAD801" cx="97.921" cy="113.155" r="1.042"/>
					<circle fill="#AAD801" cx="100.673" cy="110.402" r="1.042"/>
					<circle fill="#AAD801" cx="97.921" cy="107.65" r="1.042"/>
					<circle fill="#AAD801" cx="100.673" cy="104.898" r="1.042"/>
					<circle fill="#AAD801" cx="97.921" cy="102.146" r="1.042"/>
					<circle fill="#AAD801" cx="100.673" cy="99.394" r="1.042"/>
					<circle fill="#AAD801" cx="97.921" cy="96.642" r="1.042"/>
					<circle fill="#AAD801" cx="100.673" cy="93.89" r="1.042"/>
					<circle fill="#AAD801" cx="97.921" cy="91.138" r="1.042"/>
					<circle fill="#AAD801" cx="100.673" cy="88.386" r="1.042"/>
					<circle fill="#AAD801" cx="97.921" cy="85.634" r="1.042"/>
					<circle fill="#AAD801" cx="100.673" cy="82.882" r="1.042"/>
					<circle fill="#AAD801" cx="97.921" cy="80.13" r="1.042"/>
					<circle fill="#AAD801" cx="100.673" cy="77.378" r="1.042"/>
					<circle fill="#AAD801" cx="97.921" cy="74.626" r="1.042"/>
					<circle fill="#AAD801" cx="100.673" cy="71.873" r="1.042"/>
					<circle fill="#AAD801" cx="97.921" cy="69.121" r="1.042"/>
					<circle fill="#AAD801" cx="100.673" cy="66.369" r="1.042"/>
					<circle fill="#AAD801" cx="97.921" cy="63.617" r="1.042"/>
					<circle fill="#AAD801" cx="100.673" cy="60.865" r="1.042"/>
					<circle fill="#AAD801" cx="97.921" cy="58.113" r="1.042"/>
					<circle fill="#AAD801" cx="100.673" cy="55.361" r="1.042"/>
					<circle fill="#AAD801" cx="97.921" cy="52.609" r="1.042"/>
					<circle fill="#AAD801" cx="100.673" cy="49.857" r="1.042"/>
					<circle fill="#AAD801" cx="97.921" cy="47.105" r="1.042"/>
					<circle fill="#AAD801" cx="100.673" cy="44.353" r="1.042"/>
					<circle fill="#AAD801" cx="97.921" cy="41.601" r="1.042"/>
					<circle fill="#AAD801" cx="100.673" cy="38.849" r="1.042"/>
					<circle fill="#AAD801" cx="97.921" cy="36.097" r="1.042"/>
					<circle fill="#AAD801" cx="100.673" cy="33.344" r="1.042"/>
					<circle fill="#AAD801" cx="97.921" cy="30.592" r="1.042"/>
					<circle fill="#AAD801" cx="100.673" cy="27.84" r="1.042"/>
					<circle fill="#AAD801" cx="97.921" cy="25.088" r="1.042"/>
					<circle fill="#AAD801" cx="100.673" cy="22.336" r="1.042"/>
					<circle fill="#AAD801" cx="97.921" cy="19.584" r="1.042"/>
					<circle fill="#AAD801" cx="100.673" cy="16.832" r="1.042"/>
					<circle fill="#AAD801" cx="97.921" cy="14.08" r="1.042"/>
					<circle fill="#AAD801" cx="100.673" cy="11.328" r="1.042"/>
					<circle fill="#AAD801" cx="97.921" cy="8.576" r="1.042"/>
					<circle fill="#AAD801" cx="100.673" cy="5.824" r="1.042"/>
					<circle fill="#AAD801" cx="97.921" cy="3.072" r="1.042"/>
					<circle fill="#AAD801" cx="100.673" cy="0.32" r="1.042"/>
					<circle fill="#AAD801" cx="97.921" cy="-2.433" r="1.042"/>
					<circle fill="#AAD801" cx="100.673" cy="-5.185" r="1.042"/>
					<circle fill="#AAD801" cx="106.177" cy="143.427" r="1.042"/>
					<circle fill="#AAD801" cx="103.425" cy="140.675" r="1.042"/>
					<circle fill="#AAD801" cx="106.177" cy="137.923" r="1.042"/>
					<circle fill="#AAD801" cx="103.425" cy="135.171" r="1.042"/>
					<circle fill="#AAD801" cx="106.177" cy="132.419" r="1.042"/>
					<circle fill="#AAD801" cx="103.425" cy="129.667" r="1.042"/>
					<circle fill="#AAD801" cx="106.177" cy="126.915" r="1.042"/>
					<circle fill="#AAD801" cx="103.425" cy="124.163" r="1.042"/>
					<circle fill="#AAD801" cx="106.177" cy="121.411" r="1.042"/>
					<circle fill="#AAD801" cx="103.425" cy="118.659" r="1.042"/>
					<circle fill="#AAD801" cx="106.177" cy="115.907" r="1.042"/>
					<circle fill="#AAD801" cx="103.425" cy="113.155" r="1.042"/>
					<circle fill="#AAD801" cx="106.177" cy="110.402" r="1.042"/>
					<circle fill="#AAD801" cx="103.425" cy="107.65" r="1.042"/>
					<circle fill="#AAD801" cx="106.177" cy="104.898" r="1.042"/>
					<circle fill="#AAD801" cx="103.425" cy="102.146" r="1.042"/>
					<circle fill="#AAD801" cx="106.177" cy="99.394" r="1.042"/>
					<circle fill="#AAD801" cx="103.425" cy="96.642" r="1.042"/>
					<circle fill="#AAD801" cx="106.177" cy="93.89" r="1.042"/>
					<circle fill="#AAD801" cx="103.425" cy="91.138" r="1.042"/>
					<circle fill="#AAD801" cx="106.177" cy="88.386" r="1.042"/>
					<circle fill="#AAD801" cx="103.425" cy="85.634" r="1.042"/>
					<circle fill="#AAD801" cx="106.177" cy="82.882" r="1.042"/>
					<circle fill="#AAD801" cx="103.425" cy="80.13" r="1.042"/>
					<circle fill="#AAD801" cx="106.177" cy="77.378" r="1.042"/>
					<circle fill="#AAD801" cx="103.425" cy="74.626" r="1.042"/>
					<circle fill="#AAD801" cx="106.177" cy="71.873" r="1.042"/>
					<circle fill="#AAD801" cx="103.425" cy="69.121" r="1.042"/>
					<circle fill="#AAD801" cx="106.177" cy="66.369" r="1.042"/>
					<circle fill="#AAD801" cx="103.425" cy="63.617" r="1.042"/>
					<circle fill="#AAD801" cx="106.177" cy="60.865" r="1.042"/>
					<circle fill="#AAD801" cx="103.425" cy="58.113" r="1.042"/>
					<circle fill="#AAD801" cx="106.177" cy="55.361" r="1.042"/>
					<circle fill="#AAD801" cx="103.425" cy="52.609" r="1.042"/>
					<circle fill="#AAD801" cx="106.177" cy="49.857" r="1.042"/>
					<circle fill="#AAD801" cx="103.425" cy="47.105" r="1.042"/>
					<circle fill="#AAD801" cx="106.177" cy="44.353" r="1.042"/>
					<circle fill="#AAD801" cx="103.425" cy="41.601" r="1.042"/>
					<circle fill="#AAD801" cx="106.177" cy="38.849" r="1.042"/>
					<circle fill="#AAD801" cx="103.425" cy="36.097" r="1.042"/>
					<circle fill="#AAD801" cx="106.177" cy="33.344" r="1.042"/>
					<circle fill="#AAD801" cx="103.425" cy="30.592" r="1.042"/>
					<circle fill="#AAD801" cx="106.177" cy="27.84" r="1.042"/>
					<circle fill="#AAD801" cx="103.425" cy="25.088" r="1.042"/>
					<circle fill="#AAD801" cx="106.177" cy="22.336" r="1.042"/>
					<circle fill="#AAD801" cx="103.425" cy="19.584" r="1.042"/>
					<circle fill="#AAD801" cx="106.177" cy="16.832" r="1.042"/>
					<circle fill="#AAD801" cx="103.425" cy="14.08" r="1.042"/>
					<circle fill="#AAD801" cx="106.177" cy="11.328" r="1.042"/>
					<circle fill="#AAD801" cx="103.425" cy="8.576" r="1.042"/>
					<circle fill="#AAD801" cx="106.177" cy="5.824" r="1.042"/>
					<circle fill="#AAD801" cx="103.425" cy="3.072" r="1.042"/>
					<circle fill="#AAD801" cx="106.177" cy="0.32" r="1.042"/>
					<circle fill="#AAD801" cx="103.425" cy="-2.433" r="1.042"/>
					<circle fill="#AAD801" cx="106.177" cy="-5.185" r="1.042"/>
					<circle fill="#AAD801" cx="108.929" cy="140.675" r="1.042"/>
					<circle fill="#AAD801" cx="111.681" cy="137.923" r="1.042"/>
					<circle fill="#AAD801" cx="108.929" cy="135.171" r="1.042"/>
					<circle fill="#AAD801" cx="111.681" cy="132.419" r="1.042"/>
					<circle fill="#AAD801" cx="108.929" cy="129.667" r="1.042"/>
					<circle fill="#AAD801" cx="111.681" cy="126.915" r="1.042"/>
					<circle fill="#AAD801" cx="108.929" cy="124.163" r="1.042"/>
					<circle fill="#AAD801" cx="111.681" cy="121.411" r="1.042"/>
					<circle fill="#AAD801" cx="108.929" cy="118.659" r="1.042"/>
					<circle fill="#AAD801" cx="111.681" cy="115.907" r="1.042"/>
					<circle fill="#AAD801" cx="108.929" cy="113.155" r="1.042"/>
					<circle fill="#AAD801" cx="111.681" cy="110.402" r="1.042"/>
					<circle fill="#AAD801" cx="108.929" cy="107.65" r="1.042"/>
					<circle fill="#AAD801" cx="111.681" cy="104.898" r="1.042"/>
					<circle fill="#AAD801" cx="108.929" cy="102.146" r="1.042"/>
					<circle fill="#AAD801" cx="111.681" cy="99.394" r="1.042"/>
					<circle fill="#AAD801" cx="108.929" cy="96.642" r="1.042"/>
					<circle fill="#AAD801" cx="111.681" cy="93.89" r="1.042"/>
					<circle fill="#AAD801" cx="108.929" cy="91.138" r="1.042"/>
					<circle fill="#AAD801" cx="111.681" cy="88.386" r="1.042"/>
					<circle fill="#AAD801" cx="108.929" cy="85.634" r="1.042"/>
					<circle fill="#AAD801" cx="111.681" cy="82.882" r="1.042"/>
					<circle fill="#AAD801" cx="108.929" cy="80.13" r="1.042"/>
					<circle fill="#AAD801" cx="111.681" cy="77.378" r="1.042"/>
					<circle fill="#AAD801" cx="108.929" cy="74.626" r="1.042"/>
					<circle fill="#AAD801" cx="111.681" cy="71.873" r="1.042"/>
					<circle fill="#AAD801" cx="108.929" cy="69.121" r="1.042"/>
					<circle fill="#AAD801" cx="111.681" cy="66.369" r="1.042"/>
					<circle fill="#AAD801" cx="108.929" cy="63.617" r="1.042"/>
					<circle fill="#AAD801" cx="111.681" cy="60.865" r="1.042"/>
					<circle fill="#AAD801" cx="108.929" cy="58.113" r="1.042"/>
					<circle fill="#AAD801" cx="111.681" cy="55.361" r="1.042"/>
					<circle fill="#AAD801" cx="108.929" cy="52.609" r="1.042"/>
					<circle fill="#AAD801" cx="111.681" cy="49.857" r="1.042"/>
					<circle fill="#AAD801" cx="108.929" cy="47.105" r="1.042"/>
					<circle fill="#AAD801" cx="111.681" cy="44.353" r="1.042"/>
					<circle fill="#AAD801" cx="108.929" cy="41.601" r="1.042"/>
					<circle fill="#AAD801" cx="111.681" cy="38.849" r="1.042"/>
					<circle fill="#AAD801" cx="108.929" cy="36.097" r="1.042"/>
					<circle fill="#AAD801" cx="111.681" cy="33.344" r="1.042"/>
					<circle fill="#AAD801" cx="108.929" cy="30.592" r="1.042"/>
					<circle fill="#AAD801" cx="111.681" cy="27.84" r="1.042"/>
					<circle fill="#AAD801" cx="108.929" cy="25.088" r="1.042"/>
					<circle fill="#AAD801" cx="111.681" cy="22.336" r="1.042"/>
					<circle fill="#AAD801" cx="108.929" cy="19.584" r="1.042"/>
					<circle fill="#AAD801" cx="111.681" cy="16.832" r="1.042"/>
					<circle fill="#AAD801" cx="108.929" cy="14.08" r="1.042"/>
					<circle fill="#AAD801" cx="111.681" cy="11.328" r="1.042"/>
					<circle fill="#AAD801" cx="108.929" cy="8.576" r="1.042"/>
					<circle fill="#AAD801" cx="111.681" cy="5.824" r="1.042"/>
					<circle fill="#AAD801" cx="108.929" cy="3.072" r="1.042"/>
					<circle fill="#AAD801" cx="111.681" cy="0.32" r="1.042"/>
					<circle fill="#AAD801" cx="108.929" cy="-2.433" r="1.042"/>
					<circle fill="#AAD801" cx="114.433" cy="140.675" r="1.042"/>
					<circle fill="#AAD801" cx="117.185" cy="137.923" r="1.042"/>
					<circle fill="#AAD801" cx="114.433" cy="135.171" r="1.042"/>
					<circle fill="#AAD801" cx="117.185" cy="132.419" r="1.042"/>
					<circle fill="#AAD801" cx="114.433" cy="129.667" r="1.042"/>
					<circle fill="#AAD801" cx="117.185" cy="126.915" r="1.042"/>
					<circle fill="#AAD801" cx="114.433" cy="124.163" r="1.042"/>
					<circle fill="#AAD801" cx="117.185" cy="121.411" r="1.042"/>
					<circle fill="#AAD801" cx="114.433" cy="118.659" r="1.042"/>
					<circle fill="#AAD801" cx="117.185" cy="115.907" r="1.042"/>
					<circle fill="#AAD801" cx="114.433" cy="113.155" r="1.042"/>
					<circle fill="#AAD801" cx="117.185" cy="110.402" r="1.042"/>
					<circle fill="#AAD801" cx="114.433" cy="107.65" r="1.042"/>
					<circle fill="#AAD801" cx="117.185" cy="104.898" r="1.042"/>
					<circle fill="#AAD801" cx="114.433" cy="102.146" r="1.042"/>
					<circle fill="#AAD801" cx="117.185" cy="99.394" r="1.042"/>
					<circle fill="#AAD801" cx="114.433" cy="96.642" r="1.042"/>
					<circle fill="#AAD801" cx="117.185" cy="93.89" r="1.042"/>
					<circle fill="#AAD801" cx="114.433" cy="91.138" r="1.042"/>
					<circle fill="#AAD801" cx="117.185" cy="88.386" r="1.042"/>
					<circle fill="#AAD801" cx="114.433" cy="85.634" r="1.042"/>
					<circle fill="#AAD801" cx="117.185" cy="82.882" r="1.042"/>
					<circle fill="#AAD801" cx="114.433" cy="80.13" r="1.042"/>
					<circle fill="#AAD801" cx="117.185" cy="77.378" r="1.042"/>
					<circle fill="#AAD801" cx="114.433" cy="74.626" r="1.042"/>
					<circle fill="#AAD801" cx="117.185" cy="71.873" r="1.042"/>
					<circle fill="#AAD801" cx="114.433" cy="69.121" r="1.042"/>
					<circle fill="#AAD801" cx="117.185" cy="66.369" r="1.042"/>
					<circle fill="#AAD801" cx="114.433" cy="63.617" r="1.042"/>
					<circle fill="#AAD801" cx="117.185" cy="60.865" r="1.042"/>
					<circle fill="#AAD801" cx="114.433" cy="58.113" r="1.042"/>
					<circle fill="#AAD801" cx="117.185" cy="55.361" r="1.042"/>
					<circle fill="#AAD801" cx="114.433" cy="52.609" r="1.042"/>
					<circle fill="#AAD801" cx="117.185" cy="49.857" r="1.042"/>
					<circle fill="#AAD801" cx="114.433" cy="47.105" r="1.042"/>
					<circle fill="#AAD801" cx="117.185" cy="44.353" r="1.042"/>
					<circle fill="#AAD801" cx="114.433" cy="41.601" r="1.042"/>
					<circle fill="#AAD801" cx="117.185" cy="38.849" r="1.042"/>
					<circle fill="#AAD801" cx="114.433" cy="36.097" r="1.042"/>
					<circle fill="#AAD801" cx="117.185" cy="33.344" r="1.042"/>
					<circle fill="#AAD801" cx="114.433" cy="30.592" r="1.042"/>
					<circle fill="#AAD801" cx="117.185" cy="27.84" r="1.042"/>
					<circle fill="#AAD801" cx="114.433" cy="25.088" r="1.042"/>
					<circle fill="#AAD801" cx="117.185" cy="22.336" r="1.042"/>
					<circle fill="#AAD801" cx="114.433" cy="19.584" r="1.042"/>
					<circle fill="#AAD801" cx="117.185" cy="16.832" r="1.042"/>
					<circle fill="#AAD801" cx="114.433" cy="14.08" r="1.042"/>
					<circle fill="#AAD801" cx="117.185" cy="11.328" r="1.042"/>
					<circle fill="#AAD801" cx="114.433" cy="8.576" r="1.042"/>
					<circle fill="#AAD801" cx="117.185" cy="5.824" r="1.042"/>
					<circle fill="#AAD801" cx="114.433" cy="3.072" r="1.042"/>
					<circle fill="#AAD801" cx="117.185" cy="0.32" r="1.042"/>
					<circle fill="#AAD801" cx="114.433" cy="-2.433" r="1.042"/>
					<circle fill="#AAD801" cx="119.937" cy="135.171" r="1.042"/>
					<circle fill="#AAD801" cx="122.689" cy="132.419" r="1.042"/>
					<circle fill="#AAD801" cx="119.937" cy="129.667" r="1.042"/>
					<circle fill="#AAD801" cx="122.689" cy="126.915" r="1.042"/>
					<circle fill="#AAD801" cx="119.937" cy="124.163" r="1.042"/>
					<circle fill="#AAD801" cx="122.689" cy="121.411" r="1.042"/>
					<circle fill="#AAD801" cx="119.937" cy="118.659" r="1.042"/>
					<circle fill="#AAD801" cx="122.689" cy="115.907" r="1.042"/>
					<circle fill="#AAD801" cx="119.937" cy="113.155" r="1.042"/>
					<circle fill="#AAD801" cx="122.689" cy="110.402" r="1.042"/>
					<circle fill="#AAD801" cx="119.937" cy="107.65" r="1.042"/>
					<circle fill="#AAD801" cx="122.689" cy="104.898" r="1.042"/>
					<circle fill="#AAD801" cx="119.937" cy="102.146" r="1.042"/>
					<circle fill="#AAD801" cx="122.689" cy="99.394" r="1.042"/>
					<circle fill="#AAD801" cx="119.937" cy="96.642" r="1.042"/>
					<circle fill="#AAD801" cx="122.689" cy="93.89" r="1.042"/>
					<circle fill="#AAD801" cx="119.937" cy="91.138" r="1.042"/>
					<circle fill="#AAD801" cx="122.689" cy="88.386" r="1.042"/>
					<circle fill="#AAD801" cx="119.937" cy="85.634" r="1.042"/>
					<circle fill="#AAD801" cx="122.689" cy="82.882" r="1.042"/>
					<circle fill="#AAD801" cx="119.937" cy="80.13" r="1.042"/>
					<circle fill="#AAD801" cx="122.689" cy="77.378" r="1.042"/>
					<circle fill="#AAD801" cx="119.937" cy="74.626" r="1.042"/>
					<circle fill="#AAD801" cx="122.689" cy="71.873" r="1.042"/>
					<circle fill="#AAD801" cx="119.937" cy="69.121" r="1.042"/>
					<circle fill="#AAD801" cx="122.689" cy="66.369" r="1.042"/>
					<circle fill="#AAD801" cx="119.937" cy="63.617" r="1.042"/>
					<circle fill="#AAD801" cx="122.689" cy="60.865" r="1.042"/>
					<circle fill="#AAD801" cx="119.937" cy="58.113" r="1.042"/>
					<circle fill="#AAD801" cx="122.689" cy="55.361" r="1.042"/>
					<circle fill="#AAD801" cx="119.937" cy="52.609" r="1.042"/>
					<circle fill="#AAD801" cx="122.689" cy="49.857" r="1.042"/>
					<circle fill="#AAD801" cx="119.937" cy="47.105" r="1.042"/>
					<circle fill="#AAD801" cx="122.689" cy="44.353" r="1.042"/>
					<circle fill="#AAD801" cx="119.937" cy="41.601" r="1.042"/>
					<circle fill="#AAD801" cx="122.689" cy="38.849" r="1.042"/>
					<circle fill="#AAD801" cx="119.937" cy="36.097" r="1.042"/>
					<circle fill="#AAD801" cx="122.689" cy="33.344" r="1.042"/>
					<circle fill="#AAD801" cx="119.937" cy="30.592" r="1.042"/>
					<circle fill="#AAD801" cx="122.689" cy="27.84" r="1.042"/>
					<circle fill="#AAD801" cx="119.937" cy="25.088" r="1.042"/>
					<circle fill="#AAD801" cx="122.689" cy="22.336" r="1.042"/>
					<circle fill="#AAD801" cx="119.937" cy="19.584" r="1.042"/>
					<circle fill="#AAD801" cx="122.689" cy="16.832" r="1.042"/>
					<circle fill="#AAD801" cx="119.937" cy="14.08" r="1.042"/>
					<circle fill="#AAD801" cx="122.689" cy="11.328" r="1.042"/>
					<circle fill="#AAD801" cx="119.937" cy="8.576" r="1.042"/>
					<circle fill="#AAD801" cx="122.689" cy="5.824" r="1.042"/>
					<circle fill="#AAD801" cx="119.937" cy="3.072" r="1.042"/>
					<circle fill="#AAD801" cx="125.441" cy="129.667" r="1.042"/>
					<circle fill="#AAD801" cx="125.441" cy="124.163" r="1.042"/>
					<circle fill="#AAD801" cx="125.441" cy="118.659" r="1.042"/>
					<circle fill="#AAD801" cx="125.441" cy="113.155" r="1.042"/>
					<circle fill="#AAD801" cx="125.441" cy="107.65" r="1.042"/>
					<circle fill="#AAD801" cx="125.441" cy="102.146" r="1.042"/>
					<circle fill="#AAD801" cx="125.441" cy="96.642" r="1.042"/>
					<circle fill="#AAD801" cx="125.441" cy="91.138" r="1.042"/>
					<circle fill="#AAD801" cx="125.441" cy="85.634" r="1.042"/>
					<circle fill="#AAD801" cx="125.441" cy="80.13" r="1.042"/>
					<circle fill="#AAD801" cx="125.441" cy="74.626" r="1.042"/>
					<circle fill="#AAD801" cx="125.441" cy="69.121" r="1.042"/>
					<circle fill="#AAD801" cx="125.441" cy="63.617" r="1.042"/>
					<circle fill="#AAD801" cx="125.441" cy="58.113" r="1.042"/>
					<circle fill="#AAD801" cx="125.441" cy="52.609" r="1.042"/>
					<circle fill="#AAD801" cx="125.441" cy="47.105" r="1.042"/>
				</g>
			</g>
			<path fill="none" stroke="#231F20" stroke-width="0.5" d="M79.522,137.368c0,0-0.657-4.88-0.844-9.196
				c-0.188-4.317-0.751-8.821-0.657-12.574c0.094-3.754,0.094-6.193,0.188-9.572c0.094-3.378,0.751-4.88,0.657-5.818
				c-0.094-0.938-0.751-4.88-1.032-9.29c-0.282-4.41-0.282-4.692-0.469-7.789c-0.188-3.097-0.375-6.381-0.375-6.381
				s-1.501-16.703-1.689-21.02s-0.845-13.044-0.845-15.577c0-2.534,0-5.443,0.188-7.507c0.188-2.064,0.938-18.768,1.126-20.645"/>
			<path fill="none" stroke="#231F20" stroke-width="0.5" d="M69.95,15.565c0,0,2.346,5.067,5.255,6.287"/>
			<path fill="none" stroke="#231F20" stroke-width="0.5" d="M75.393,21.196c0,0,3.754-1.22,5.067-2.346"/>
			<path fill="none" stroke="#231F20" stroke-width="0.5" d="M84.871,19.131c0,0-6.944,7.882-10.041,10.135"/>
			<path fill="none" stroke="#231F20" stroke-width="0.5" d="M65.821,24.292c0,0,5.349,7.601,8.821,9.759"/>
			<path fill="none" stroke="#231F20" stroke-width="0.5" d="M74.454,38.931c0,0,0.751-1.595,1.502-2.158s8.07-5.349,9.384-6.756"/>
			<path fill="none" stroke="#231F20" stroke-width="0.5" d="M75.111,51.318c0,0,6.193-4.504,8.07-6.85s9.759-12.481,10.228-13.607"
				/>
			<path fill="none" stroke="#231F20" stroke-width="0.5" d="M58.69,34.802c0,0,4.88,5.255,6.381,6.944
				c1.501,1.689,2.909,3.003,3.66,3.66c0.751,0.657,4.88,5.912,6.193,6.944"/>
			<path fill="none" stroke="#231F20" stroke-width="0.5" d="M55.593,50.473c0,0,1.877,1.971,3.097,3.472
				c1.22,1.502,15.483,13.888,17.548,14.733"/>
			<path fill="none" stroke="#231F20" stroke-width="0.5" d="M76.988,77.781l0.845-2.44c0,0,5.255-6.287,7.132-9.008
				c1.877-2.721,3.566-4.129,6.287-6.663c2.721-2.534,14.264-12.387,14.264-12.387"/>
			<path fill="none" stroke="#231F20" stroke-width="0.5" d="M51.839,68.49c0,0,3.191,1.689,5.818,3.66
				c2.627,1.971,5.724,3.66,7.038,4.317c1.314,0.657,11.73,6.099,12.481,7.789"/>
			<path fill="none" stroke="#231F20" stroke-width="0.5" d="M46.772,85.194c0,0,6.756,3.566,9.102,4.41
				c2.346,0.844,4.973,2.346,6.85,3.378c1.877,1.032,14.545,7.695,14.545,7.695l1.126,1.783"/>
			<path fill="none" stroke="#231F20" stroke-width="0.5" d="M78.865,99.833c0,0,5.349-8.352,9.759-12.105
				c4.41-3.754,22.615-16.328,29.372-19.049"/>
			<path fill="none" stroke="#231F20" stroke-width="0.5" d="M111.333,106.214c0,0-28.621-1.501-33.313,12.762"/>
			<path fill="none" stroke="#231F20" stroke-width="0.5" d="M57.282,111.656c0,0,14.92,4.129,20.738,8.915"/>
			<path fill="none" stroke="#231F20" stroke-width="0.5" d="M79.146,130.518c0,0-0.188-2.909,2.815-3.941
				c3.003-1.032,6.287-2.252,6.287-2.252"/>
		</g>
	</g>
</g>
</svg>
