<?xml version="1.0" encoding="UTF-8" standalone="no"?>
<svg
   xmlns:dc="http://purl.org/dc/elements/1.1/"
   xmlns:cc="http://creativecommons.org/ns#"
   xmlns:rdf="http://www.w3.org/1999/02/22-rdf-syntax-ns#"
   xmlns:svg="http://www.w3.org/2000/svg"
   xmlns="http://www.w3.org/2000/svg"
   version="1.1"
   id="svg10845"
   height="195.60275"
   width="200.0005">
  <defs
     id="defs4809">
    <pattern
       id="polka"
       patternTransform="rotate(20)"
       height="5"
       width="5"
       patternUnits="userSpaceOnUse">
      <rect
         y="0"
         x="0"
         height="5"
         width="5"
         style="fill:#ffffff"
         id="polka__bg" />
      <circle
         cx="2"
         style="fill:#4dc6dd"
         cy="2"
         r="1.5"
         id="polka__inner" />
    </pattern>
  </defs>
  <metadata
     id="metadata10850">
    <rdf:RDF>
      <cc:Work
         rdf:about="">
        <dc:format>image/svg+xml</dc:format>
        <dc:type
           rdf:resource="http://purl.org/dc/dcmitype/StillImage" />
        <dc:title></dc:title>
      </cc:Work>
    </rdf:RDF>
  </metadata>
  <g
     style="display:inline"
     transform="translate(-282.08096,-278.41122)"
     id="layer1">
    <ellipse
       style="color:#000000;display:inline;overflow:visible;visibility:visible;opacity:1;fill:url(#polka);fill-opacity:1.0;fill-rule:nonzero;stroke:#000000;stroke-width:2;stroke-miterlimit:4;stroke-dasharray:none;stroke-opacity:1;marker:none;enable-background:accumulate"
       id="path6022"
       cx="382.06821"
       cy="398.07648"
       rx="74.9505"
       ry="74.950493" />
    <path
       d="m 358.76871,411.27173 -17.25,0 2.35,-8.9975 16.9625,0 c 0.0763,-0.26625 0.59125,-3.09375 1.5475,-8.48125 1.5275,-8.63375 3.10375,-15.72 4.7275,-21.26 1.62375,-5.53875 4.10625,-10.69625 7.45,-15.4725 3.3425,-4.775 7.14375,-8.27125 11.40375,-10.4875 4.25875,-2.215 9.12125,-3.32375 14.585,-3.32375 5.2725,0 9.66375,1.03125 13.18,3.095 3.51375,2.0625 5.2725,4.66125 5.2725,7.7925 0,1.91125 -0.7075,3.545 -2.12125,4.9 -1.41375,1.35625 -3.05625,2.035 -4.9275,2.035 -3.01875,0 -5.67375,-1.9675 -7.96625,-5.9025 -1.91,-3.285 -4.33625,-4.92875 -7.2775,-4.92875 -3.095,0 -5.4725,1.3375 -7.13375,4.01125 -1.6625,2.675 -3.18125,7.8325 -4.55625,15.4725 -2.86625,15.77875 -5.61625,26.62875 -8.2525,32.55 l 18.5675,0 -2.1775,8.9975 -20.1725,0 c -2.255,4.89125 -4.8125,9.245 -7.67875,13.06625 2.63625,-0.88 4.69875,-1.31875 6.18875,-1.31875 2.67375,0 5.215,0.63 7.62125,1.89125 2.4075,1.26 5.5975,3.6475 9.57125,7.16375 5.08,4.5075 8.93875,6.76125 11.575,6.76125 1.91125,0 3.3325,-0.54375 4.26875,-1.6325 0.93625,-1.08875 1.40375,-2.2075 1.40375,-3.3525 0,-0.72625 -0.305,-1.85375 -0.91625,-3.38125 -1.10875,-2.90375 -1.66125,-5.0625 -1.66125,-6.475 0,-4.585 2.12,-6.8775 6.36125,-6.8775 2.32875,0 4.20125,0.8125 5.61625,2.43625 1.4125,1.6225 2.11875,3.63875 2.11875,6.045 0,5.46375 -2.52,10.61125 -7.5625,15.44375 -5.04375,4.83375 -10.96625,7.25 -17.765,7.25 -3.63125,0 -6.81125,-0.6975 -9.5425,-2.0925 -2.7325,-1.395 -5.77875,-3.6575 -9.14,-6.79 -4.3175,-4.01125 -7.56375,-6.0175 -9.7425,-6.0175 -0.91625,0 -1.9675,0.28625 -3.15125,0.86 -2.2925,5.615 -4.32625,9.36 -6.10375,11.23125 -1.77625,1.8725 -3.69625,2.80875 -5.75875,2.80875 -2.17875,0 -3.96375,-0.68875 -5.3575,-2.06375 -1.39625,-1.375 -2.0925,-2.8075 -2.0925,-4.2975 0,-4.08875 4.16375,-8.59625 12.4925,-13.52375 1.98625,-4.92875 3.6675,-10.64 5.04375,-17.135"
       style="fill:#ffffff;fill-opacity:1;fill-rule:nonzero;stroke:none"
       id="path354" />
    <path
       d="m 358.76871,411.27173 -17.25,0 2.35,-8.9975 16.9625,0 c 0.0763,-0.26625 0.59125,-3.09375 1.5475,-8.48125 1.5275,-8.63375 3.10375,-15.72 4.7275,-21.26 1.62375,-5.53875 4.10625,-10.69625 7.45,-15.4725 3.3425,-4.775 7.14375,-8.27125 11.40375,-10.4875 4.25875,-2.215 9.12125,-3.32375 14.585,-3.32375 5.2725,0 9.66375,1.03125 13.18,3.095 3.51375,2.0625 5.2725,4.66125 5.2725,7.7925 0,1.91125 -0.7075,3.545 -2.12125,4.9 -1.41375,1.35625 -3.05625,2.035 -4.9275,2.035 -3.01875,0 -5.67375,-1.9675 -7.96625,-5.9025 -1.91,-3.285 -4.33625,-4.92875 -7.2775,-4.92875 -3.095,0 -5.4725,1.3375 -7.13375,4.01125 -1.6625,2.675 -3.18125,7.8325 -4.55625,15.4725 -2.86625,15.77875 -5.61625,26.62875 -8.2525,32.55 l 18.5675,0 -2.1775,8.9975 -20.1725,0 c -2.255,4.89125 -4.8125,9.245 -7.67875,13.06625 2.63625,-0.88 4.69875,-1.31875 6.18875,-1.31875 2.67375,0 5.215,0.63 7.62125,1.89125 2.4075,1.26 5.5975,3.6475 9.57125,7.16375 5.08,4.5075 8.93875,6.76125 11.575,6.76125 1.91125,0 3.3325,-0.54375 4.26875,-1.6325 0.93625,-1.08875 1.40375,-2.2075 1.40375,-3.3525 0,-0.72625 -0.305,-1.85375 -0.91625,-3.38125 -1.10875,-2.90375 -1.66125,-5.0625 -1.66125,-6.475 0,-4.585 2.12,-6.8775 6.36125,-6.8775 2.32875,0 4.20125,0.8125 5.61625,2.43625 1.4125,1.6225 2.11875,3.63875 2.11875,6.045 0,5.46375 -2.52,10.61125 -7.5625,15.44375 -5.04375,4.83375 -10.96625,7.25 -17.765,7.25 -3.63125,0 -6.81125,-0.6975 -9.5425,-2.0925 -2.7325,-1.395 -5.77875,-3.6575 -9.14,-6.79 -4.3175,-4.01125 -7.56375,-6.0175 -9.7425,-6.0175 -0.91625,0 -1.9675,0.28625 -3.15125,0.86 -2.2925,5.615 -4.32625,9.36 -6.10375,11.23125 -1.77625,1.8725 -3.69625,2.80875 -5.75875,2.80875 -2.17875,0 -3.96375,-0.68875 -5.3575,-2.06375 -1.39625,-1.375 -2.0925,-2.8075 -2.0925,-4.2975 0,-4.08875 4.16375,-8.59625 12.4925,-13.52375 1.98625,-4.92875 3.6675,-10.64 5.04375,-17.135 z"
       style="fill:none;stroke:#2f2d2e;stroke-width:0.625;stroke-linecap:butt;stroke-linejoin:miter;stroke-miterlimit:4;stroke-dasharray:none;stroke-opacity:1"
       id="path358" />
  </g>
</svg>
