<?xml version="1.0" encoding="utf-8"?>
<!-- Generator: Adobe Illustrator 18.0.0, SVG Export Plug-In . SVG Version: 6.00 Build 0)  -->
<!DOCTYPE svg PUBLIC "-//W3C//DTD SVG 1.1//EN" "http://www.w3.org/Graphics/SVG/1.1/DTD/svg11.dtd">
<svg version="1.1" id="Layer_1" xmlns="http://www.w3.org/2000/svg" xmlns:xlink="http://www.w3.org/1999/xlink" x="0px" y="0px"
	 viewBox="0 0 160 160" enable-background="new 0 0 160 160" xml:space="preserve">
<g>
	<circle fill="none" stroke="#231F20" stroke-width="2" cx="80.011" cy="96" r="60"/>
	<path fill="#FFFFFF" d="M142.223,29.812c1.426,0.801,2.405,2.295,2.846,3.282c0.722,1.854,0.297,4.245,0.005,5.244
		c-0.292,0.998-0.243,4.166-0.243,4.166c1.702,8.962-5.586,22.266-14.722,27.844c-9.136,5.579-18.19,6.189-25.665,4.688
		c-7.475-1.502-14.146-7.593-15.32-8.844c-1.174-1.251-3.611-1.484-3.611-1.484s-5.068-0.512-6.424-0.586
		c-1.356-0.073-2.096-1.015-2.096-1.015l-1.83-2.326c-1.127-1.443-1.21-2.786-1.21-2.786l-0.724-8.166l-4.889,0.854
		c-0.309,0.434-4.443,5.746-4.443,5.746c2.963,4.584-2.886,10.042-2.886,10.042l0.927,3.532c0,0,7.291-2.157,9.828-2.968
		c2.537-0.812,4.659,1.992,4.659,1.992s1.959,3.476,3.427,5.613c1.469,2.136,6.184,3.684,6.184,3.684
		c17.601,9.09,21.645,26.049,17.04,40.256c-4.605,14.207-17.259,19.393-20.656,20.811c-3.397,1.418-3.155,1.68-6.25,3.324
		c-3.095,1.644-5.926-1.382-5.926-1.382c-9.024-0.146-19.965-2.892-27.731-15.611c-7.766-12.718,0.344-29.673,0.344-29.673
		l-1.127-0.951c-1.457-1.133-1.253-2.678-1.253-2.678l0.708-12.893c0.034-2.808,3.535-4.235,3.535-4.235l10.798-3.26l-1.075-5.977
		c-2.815-2.462-1.826-4.869-1.826-4.869l1.185-3.429c0,0,0.743-1.602,1.192-2.613c0.448-1.011,1.914-2.235,1.914-2.235
		c-0.003-0.408,1.818-2.258,1.818-2.258l-0.209-0.61l3.125-3.876c1.51-1.824,3.901-1.398,3.901-1.398l7.105-1.387l-0.962-10.972
		c-0.241-3.214,3.262-4.861,3.262-4.861s9.842-4.288,12.067-5.074c2.226-0.785,3.422,1.845,3.422,1.845
		c10.786-12.407,24.593-11.411,24.593-11.411c20.45,0.465,26.829,16.817,26.829,16.817"/>
	<path fill="#FFFFFF" d="M90.441,24.316c0,0-0.106,1.533-0.595,3.417c-0.489,1.884-1.577,7.084-1.358,13.618
		c0.219,6.534,3.263,14.294,8.635,18.884c5.372,4.59,21.116,9.787,33.978-4.681c0,0,7.129-8.015,4.152-19.424
		c0,0-1.668-3.627,2.313-6.058c3.981-2.431,6.679,1.179,7.503,3.021c0.722,1.854,0.297,4.245,0.005,5.244
		c-0.292,0.998-0.243,4.166-0.243,4.166c1.702,8.962-5.586,22.266-14.722,27.844c-9.136,5.579-18.19,6.189-25.665,4.688
		c-7.475-1.502-14.146-7.593-15.32-8.844c-1.174-1.251-3.611-1.484-3.611-1.484s-5.068-0.512-6.424-0.586
		c-1.356-0.073-2.096-1.015-2.096-1.015l-1.83-2.326c-1.127-1.443-1.21-2.786-1.21-2.786l-0.724-8.166l-4.889,0.854
		c-0.309,0.434-4.443,5.746-4.443,5.746c2.963,4.584-2.886,10.042-2.886,10.042l0.927,3.532c0,0,7.291-2.157,9.828-2.968
		c2.537-0.812,4.659,1.992,4.659,1.992s1.959,3.476,3.427,5.613c1.469,2.136,6.184,3.684,6.184,3.684
		c17.601,9.09,21.645,26.049,17.04,40.256c-4.605,14.207-17.259,19.393-20.656,20.811c-3.397,1.418-3.155,1.68-6.25,3.324
		c-3.095,1.644-5.926-1.382-5.926-1.382c-9.024-0.146-19.965-2.892-27.731-15.611c-7.766-12.718,0.344-29.673,0.344-29.673
		l-1.127-0.951c-1.457-1.133-1.253-2.678-1.253-2.678l0.708-12.893c0.034-2.808,3.535-4.235,3.535-4.235l10.798-3.26l-1.075-5.977
		c-2.815-2.462-1.826-4.869-1.826-4.869l1.185-3.429c0,0,0.743-1.602,1.192-2.613c0.448-1.011,1.914-2.235,1.914-2.235
		c-0.003-0.408,1.818-2.258,1.818-2.258l-0.209-0.61l3.125-3.876c1.51-1.824,3.901-1.398,3.901-1.398l7.105-1.387l-0.962-10.972
		c-0.241-3.214,3.262-4.861,3.262-4.861s9.842-4.288,12.067-5.074C89.244,21.686,90.441,24.316,90.441,24.316
		c10.786-12.407,24.593-11.411,24.593-11.411c20.45,0.465,26.829,16.817,26.829,16.817"/>
	<g>
		<defs>
			<path id="SVGID_1_" d="M142.223,29.812c1.426,0.801,2.405,2.295,2.846,3.282c0.722,1.854,0.297,4.245,0.005,5.244
				c-0.292,0.998-0.243,4.166-0.243,4.166c1.702,8.962-5.586,22.266-14.722,27.844c-9.136,5.579-18.19,6.189-25.665,4.688
				c-7.475-1.502-14.146-7.593-15.32-8.844c-1.174-1.251-3.611-1.484-3.611-1.484s-5.068-0.512-6.424-0.586
				c-1.356-0.073-2.096-1.015-2.096-1.015l-1.83-2.326c-1.127-1.443-1.21-2.786-1.21-2.786l-0.724-8.166l-4.889,0.854
				c-0.309,0.434-4.443,5.746-4.443,5.746c2.963,4.584-2.886,10.042-2.886,10.042l0.927,3.532c0,0,7.291-2.157,9.828-2.968
				c2.537-0.812,4.659,1.992,4.659,1.992s1.959,3.476,3.427,5.613c1.469,2.136,6.184,3.684,6.184,3.684
				c17.601,9.09,21.645,26.049,17.04,40.256c-4.605,14.207-17.259,19.393-20.656,20.811c-3.397,1.418-3.155,1.68-6.25,3.324
				c-3.095,1.644-5.926-1.382-5.926-1.382c-9.024-0.146-19.965-2.892-27.731-15.611c-7.766-12.718,0.344-29.673,0.344-29.673
				l-1.127-0.951c-1.457-1.133-1.253-2.678-1.253-2.678l0.708-12.893c0.034-2.808,3.535-4.235,3.535-4.235l10.798-3.26l-1.075-5.977
				c-2.815-2.462-1.826-4.869-1.826-4.869l1.185-3.429c0,0,0.743-1.602,1.192-2.613c0.448-1.011,1.914-2.235,1.914-2.235
				c-0.003-0.408,1.818-2.258,1.818-2.258l-0.209-0.61l3.125-3.876c1.51-1.824,3.901-1.398,3.901-1.398l7.105-1.387l-0.962-10.972
				c-0.241-3.214,3.262-4.861,3.262-4.861s9.842-4.288,12.067-5.074c2.226-0.785,3.422,1.845,3.422,1.845
				c10.786-12.407,24.593-11.411,24.593-11.411c20.45,0.465,26.829,16.817,26.829,16.817"/>
		</defs>
		<clipPath id="SVGID_2_">
			<use xlink:href="#SVGID_1_"  overflow="visible"/>
		</clipPath>
		<g clip-path="url(#SVGID_2_)">
			<g>
				<g>
					<circle fill="#1387BA" cx="58.21" cy="11.564" r="0.925"/>
					<circle fill="#1387BA" cx="63.098" cy="11.564" r="0.925"/>
					<circle fill="#1387BA" cx="67.985" cy="11.564" r="0.925"/>
					<circle fill="#1387BA" cx="72.873" cy="11.564" r="0.925"/>
					<circle fill="#1387BA" cx="77.761" cy="11.564" r="0.925"/>
					<circle fill="#1387BA" cx="82.649" cy="11.564" r="0.925"/>
					<circle fill="#1387BA" cx="87.537" cy="11.564" r="0.925"/>
					<circle fill="#1387BA" cx="92.425" cy="11.564" r="0.925"/>
					<circle fill="#1387BA" cx="97.313" cy="11.564" r="0.925"/>
					<circle fill="#1387BA" cx="102.201" cy="11.564" r="0.925"/>
					<circle fill="#1387BA" cx="107.089" cy="11.564" r="0.925"/>
					<circle fill="#1387BA" cx="111.977" cy="11.564" r="0.925"/>
					<circle fill="#1387BA" cx="116.865" cy="11.564" r="0.925"/>
					<circle fill="#1387BA" cx="121.753" cy="11.564" r="0.925"/>
					<circle fill="#1387BA" cx="126.641" cy="11.564" r="0.925"/>
					<circle fill="#1387BA" cx="131.529" cy="11.564" r="0.925"/>
					<circle fill="#1387BA" cx="136.417" cy="11.564" r="0.925"/>
					<circle fill="#1387BA" cx="141.304" cy="11.564" r="0.925"/>
					<circle fill="#1387BA" cx="146.192" cy="11.564" r="0.925"/>
					<circle fill="#1387BA" cx="55.766" cy="14" r="0.925"/>
					<circle fill="#1387BA" cx="58.21" cy="16.444" r="0.925"/>
					<circle fill="#1387BA" cx="60.654" cy="14" r="0.925"/>
					<circle fill="#1387BA" cx="63.098" cy="16.444" r="0.925"/>
					<circle fill="#1387BA" cx="65.541" cy="14" r="0.925"/>
					<circle fill="#1387BA" cx="67.985" cy="16.444" r="0.925"/>
					<circle fill="#1387BA" cx="70.429" cy="14" r="0.925"/>
					<circle fill="#1387BA" cx="72.873" cy="16.444" r="0.925"/>
					<circle fill="#1387BA" cx="75.317" cy="14" r="0.925"/>
					<circle fill="#1387BA" cx="77.761" cy="16.444" r="0.925"/>
					<circle fill="#1387BA" cx="80.205" cy="14" r="0.925"/>
					<circle fill="#1387BA" cx="82.649" cy="16.444" r="0.925"/>
					<circle fill="#1387BA" cx="85.093" cy="14" r="0.925"/>
					<circle fill="#1387BA" cx="87.537" cy="16.444" r="0.925"/>
					<circle fill="#1387BA" cx="89.981" cy="14" r="0.925"/>
					<circle fill="#1387BA" cx="92.425" cy="16.444" r="0.925"/>
					<circle fill="#1387BA" cx="94.869" cy="14" r="0.925"/>
					<circle fill="#1387BA" cx="97.313" cy="16.444" r="0.925"/>
					<circle fill="#1387BA" cx="99.757" cy="14" r="0.925"/>
					<circle fill="#1387BA" cx="102.201" cy="16.444" r="0.925"/>
					<circle fill="#1387BA" cx="104.645" cy="14" r="0.925"/>
					<circle fill="#1387BA" cx="107.089" cy="16.444" r="0.925"/>
					<circle fill="#1387BA" cx="109.533" cy="14" r="0.925"/>
					<circle fill="#1387BA" cx="111.977" cy="16.444" r="0.925"/>
					<circle fill="#1387BA" cx="114.421" cy="14" r="0.925"/>
					<circle fill="#1387BA" cx="116.865" cy="16.444" r="0.925"/>
					<circle fill="#1387BA" cx="119.309" cy="14" r="0.925"/>
					<circle fill="#1387BA" cx="121.753" cy="16.444" r="0.925"/>
					<circle fill="#1387BA" cx="124.197" cy="14" r="0.925"/>
					<circle fill="#1387BA" cx="126.641" cy="16.444" r="0.925"/>
					<circle fill="#1387BA" cx="129.085" cy="14" r="0.925"/>
					<circle fill="#1387BA" cx="131.529" cy="16.444" r="0.925"/>
					<circle fill="#1387BA" cx="133.973" cy="14" r="0.925"/>
					<circle fill="#1387BA" cx="136.417" cy="16.444" r="0.925"/>
					<circle fill="#1387BA" cx="138.86" cy="14" r="0.925"/>
					<circle fill="#1387BA" cx="141.304" cy="16.444" r="0.925"/>
					<circle fill="#1387BA" cx="143.748" cy="14" r="0.925"/>
					<circle fill="#1387BA" cx="146.192" cy="16.444" r="0.925"/>
					<circle fill="#1387BA" cx="148.636" cy="14" r="0.925"/>
					<circle fill="#1387BA" cx="55.766" cy="18.888" r="0.925"/>
					<circle fill="#1387BA" cx="58.21" cy="21.332" r="0.925"/>
					<circle fill="#1387BA" cx="60.654" cy="18.888" r="0.925"/>
					<circle fill="#1387BA" cx="63.098" cy="21.332" r="0.925"/>
					<circle fill="#1387BA" cx="65.541" cy="18.888" r="0.925"/>
					<circle fill="#1387BA" cx="67.985" cy="21.332" r="0.925"/>
					<circle fill="#1387BA" cx="70.429" cy="18.888" r="0.925"/>
					<circle fill="#1387BA" cx="72.873" cy="21.332" r="0.925"/>
					<circle fill="#1387BA" cx="75.317" cy="18.888" r="0.925"/>
					<circle fill="#1387BA" cx="77.761" cy="21.332" r="0.925"/>
					<circle fill="#1387BA" cx="80.205" cy="18.888" r="0.925"/>
					<circle fill="#1387BA" cx="82.649" cy="21.332" r="0.925"/>
					<circle fill="#1387BA" cx="85.093" cy="18.888" r="0.925"/>
					<circle fill="#1387BA" cx="87.537" cy="21.332" r="0.925"/>
					<circle fill="#1387BA" cx="89.981" cy="18.888" r="0.925"/>
					<circle fill="#1387BA" cx="92.425" cy="21.332" r="0.925"/>
					<circle fill="#1387BA" cx="94.869" cy="18.888" r="0.925"/>
					<circle fill="#1387BA" cx="97.313" cy="21.332" r="0.925"/>
					<circle fill="#1387BA" cx="99.757" cy="18.888" r="0.925"/>
					<circle fill="#1387BA" cx="102.201" cy="21.332" r="0.925"/>
					<circle fill="#1387BA" cx="104.645" cy="18.888" r="0.925"/>
					<circle fill="#1387BA" cx="107.089" cy="21.332" r="0.925"/>
					<circle fill="#1387BA" cx="109.533" cy="18.888" r="0.925"/>
					<circle fill="#1387BA" cx="111.977" cy="21.332" r="0.925"/>
					<circle fill="#1387BA" cx="114.421" cy="18.888" r="0.925"/>
					<circle fill="#1387BA" cx="116.865" cy="21.332" r="0.925"/>
					<circle fill="#1387BA" cx="119.309" cy="18.888" r="0.925"/>
					<circle fill="#1387BA" cx="121.753" cy="21.332" r="0.925"/>
					<circle fill="#1387BA" cx="124.197" cy="18.888" r="0.925"/>
					<circle fill="#1387BA" cx="126.641" cy="21.332" r="0.925"/>
					<circle fill="#1387BA" cx="129.085" cy="18.888" r="0.925"/>
					<circle fill="#1387BA" cx="131.529" cy="21.332" r="0.925"/>
					<circle fill="#1387BA" cx="133.973" cy="18.888" r="0.925"/>
					<circle fill="#1387BA" cx="136.417" cy="21.332" r="0.925"/>
					<circle fill="#1387BA" cx="138.86" cy="18.888" r="0.925"/>
					<circle fill="#1387BA" cx="141.304" cy="21.332" r="0.925"/>
					<circle fill="#1387BA" cx="143.748" cy="18.888" r="0.925"/>
					<circle fill="#1387BA" cx="146.192" cy="21.332" r="0.925"/>
					<circle fill="#1387BA" cx="148.636" cy="18.888" r="0.925"/>
					<circle fill="#1387BA" cx="55.766" cy="23.776" r="0.925"/>
					<circle fill="#1387BA" cx="58.21" cy="26.22" r="0.925"/>
					<circle fill="#1387BA" cx="60.654" cy="23.776" r="0.925"/>
					<circle fill="#1387BA" cx="63.098" cy="26.22" r="0.925"/>
					<circle fill="#1387BA" cx="65.541" cy="23.776" r="0.925"/>
					<circle fill="#1387BA" cx="67.985" cy="26.22" r="0.925"/>
					<circle fill="#1387BA" cx="70.429" cy="23.776" r="0.925"/>
					<circle fill="#1387BA" cx="72.873" cy="26.22" r="0.925"/>
					<circle fill="#1387BA" cx="75.317" cy="23.776" r="0.925"/>
					<circle fill="#1387BA" cx="77.761" cy="26.22" r="0.925"/>
					<circle fill="#1387BA" cx="80.205" cy="23.776" r="0.925"/>
					<circle fill="#1387BA" cx="82.649" cy="26.22" r="0.925"/>
					<circle fill="#1387BA" cx="85.093" cy="23.776" r="0.925"/>
					<circle fill="#1387BA" cx="87.537" cy="26.22" r="0.925"/>
					<circle fill="#1387BA" cx="89.981" cy="23.776" r="0.925"/>
					<circle fill="#1387BA" cx="92.425" cy="26.22" r="0.925"/>
					<circle fill="#1387BA" cx="94.869" cy="23.776" r="0.925"/>
					<circle fill="#1387BA" cx="97.313" cy="26.22" r="0.925"/>
					<circle fill="#1387BA" cx="99.757" cy="23.776" r="0.925"/>
					<circle fill="#1387BA" cx="102.201" cy="26.22" r="0.925"/>
					<circle fill="#1387BA" cx="104.645" cy="23.776" r="0.925"/>
					<circle fill="#1387BA" cx="107.089" cy="26.22" r="0.925"/>
					<circle fill="#1387BA" cx="109.533" cy="23.776" r="0.925"/>
					<circle fill="#1387BA" cx="111.977" cy="26.22" r="0.925"/>
					<circle fill="#1387BA" cx="114.421" cy="23.776" r="0.925"/>
					<circle fill="#1387BA" cx="116.865" cy="26.22" r="0.925"/>
					<circle fill="#1387BA" cx="119.309" cy="23.776" r="0.925"/>
					<circle fill="#1387BA" cx="121.753" cy="26.22" r="0.925"/>
					<circle fill="#1387BA" cx="124.197" cy="23.776" r="0.925"/>
					<circle fill="#1387BA" cx="126.641" cy="26.22" r="0.925"/>
					<circle fill="#1387BA" cx="129.085" cy="23.776" r="0.925"/>
					<circle fill="#1387BA" cx="131.529" cy="26.22" r="0.925"/>
					<circle fill="#1387BA" cx="133.973" cy="23.776" r="0.925"/>
					<circle fill="#1387BA" cx="136.417" cy="26.22" r="0.925"/>
					<circle fill="#1387BA" cx="138.86" cy="23.776" r="0.925"/>
					<circle fill="#1387BA" cx="141.304" cy="26.22" r="0.925"/>
					<circle fill="#1387BA" cx="143.748" cy="23.776" r="0.925"/>
					<circle fill="#1387BA" cx="146.192" cy="26.22" r="0.925"/>
					<circle fill="#1387BA" cx="148.636" cy="23.776" r="0.925"/>
					<circle fill="#1387BA" cx="55.766" cy="28.664" r="0.925"/>
					<circle fill="#1387BA" cx="58.21" cy="31.108" r="0.925"/>
					<circle fill="#1387BA" cx="60.654" cy="28.664" r="0.925"/>
					<circle fill="#1387BA" cx="63.098" cy="31.108" r="0.925"/>
					<circle fill="#1387BA" cx="65.541" cy="28.664" r="0.925"/>
					<circle fill="#1387BA" cx="67.985" cy="31.108" r="0.925"/>
					<circle fill="#1387BA" cx="70.429" cy="28.664" r="0.925"/>
					<circle fill="#1387BA" cx="72.873" cy="31.108" r="0.925"/>
					<circle fill="#1387BA" cx="75.317" cy="28.664" r="0.925"/>
					<circle fill="#1387BA" cx="77.761" cy="31.108" r="0.925"/>
					<circle fill="#1387BA" cx="80.205" cy="28.664" r="0.925"/>
					<circle fill="#1387BA" cx="82.649" cy="31.108" r="0.925"/>
					<circle fill="#1387BA" cx="85.093" cy="28.664" r="0.925"/>
					<circle fill="#1387BA" cx="87.537" cy="31.108" r="0.925"/>
					<circle fill="#1387BA" cx="89.981" cy="28.664" r="0.925"/>
					<circle fill="#1387BA" cx="92.425" cy="31.108" r="0.925"/>
					<circle fill="#1387BA" cx="94.869" cy="28.664" r="0.925"/>
					<circle fill="#1387BA" cx="97.313" cy="31.108" r="0.925"/>
					<circle fill="#1387BA" cx="99.757" cy="28.664" r="0.925"/>
					<circle fill="#1387BA" cx="102.201" cy="31.108" r="0.925"/>
					<circle fill="#1387BA" cx="104.645" cy="28.664" r="0.925"/>
					<circle fill="#1387BA" cx="107.089" cy="31.108" r="0.925"/>
					<circle fill="#1387BA" cx="109.533" cy="28.664" r="0.925"/>
					<circle fill="#1387BA" cx="111.977" cy="31.108" r="0.925"/>
					<circle fill="#1387BA" cx="114.421" cy="28.664" r="0.925"/>
					<circle fill="#1387BA" cx="116.865" cy="31.108" r="0.925"/>
					<circle fill="#1387BA" cx="119.309" cy="28.664" r="0.925"/>
					<circle fill="#1387BA" cx="121.753" cy="31.108" r="0.925"/>
					<circle fill="#1387BA" cx="124.197" cy="28.664" r="0.925"/>
					<circle fill="#1387BA" cx="126.641" cy="31.108" r="0.925"/>
					<circle fill="#1387BA" cx="129.085" cy="28.664" r="0.925"/>
					<circle fill="#1387BA" cx="131.529" cy="31.108" r="0.925"/>
					<circle fill="#1387BA" cx="133.973" cy="28.664" r="0.925"/>
					<circle fill="#1387BA" cx="136.417" cy="31.108" r="0.925"/>
					<circle fill="#1387BA" cx="138.86" cy="28.664" r="0.925"/>
					<circle fill="#1387BA" cx="141.304" cy="31.108" r="0.925"/>
					<circle fill="#1387BA" cx="143.748" cy="28.664" r="0.925"/>
					<circle fill="#1387BA" cx="146.192" cy="31.108" r="0.925"/>
					<circle fill="#1387BA" cx="148.636" cy="28.664" r="0.925"/>
					<circle fill="#1387BA" cx="55.766" cy="33.552" r="0.925"/>
					<circle fill="#1387BA" cx="58.21" cy="35.996" r="0.925"/>
					<circle fill="#1387BA" cx="60.654" cy="33.552" r="0.925"/>
					<circle fill="#1387BA" cx="63.098" cy="35.996" r="0.925"/>
					<circle fill="#1387BA" cx="65.541" cy="33.552" r="0.925"/>
					<circle fill="#1387BA" cx="67.985" cy="35.996" r="0.925"/>
					<circle fill="#1387BA" cx="70.429" cy="33.552" r="0.925"/>
					<circle fill="#1387BA" cx="72.873" cy="35.996" r="0.925"/>
					<circle fill="#1387BA" cx="75.317" cy="33.552" r="0.925"/>
					<circle fill="#1387BA" cx="77.761" cy="35.996" r="0.925"/>
					<circle fill="#1387BA" cx="80.205" cy="33.552" r="0.925"/>
					<circle fill="#1387BA" cx="82.649" cy="35.996" r="0.925"/>
					<circle fill="#1387BA" cx="85.093" cy="33.552" r="0.925"/>
					<circle fill="#1387BA" cx="87.537" cy="35.996" r="0.925"/>
					<circle fill="#1387BA" cx="89.981" cy="33.552" r="0.925"/>
					<circle fill="#1387BA" cx="92.425" cy="35.996" r="0.925"/>
					<circle fill="#1387BA" cx="94.869" cy="33.552" r="0.925"/>
					<circle fill="#1387BA" cx="97.313" cy="35.996" r="0.925"/>
					<circle fill="#1387BA" cx="99.757" cy="33.552" r="0.925"/>
					<circle fill="#1387BA" cx="102.201" cy="35.996" r="0.925"/>
					<circle fill="#1387BA" cx="104.645" cy="33.552" r="0.925"/>
					<circle fill="#1387BA" cx="107.089" cy="35.996" r="0.925"/>
					<circle fill="#1387BA" cx="109.533" cy="33.552" r="0.925"/>
					<circle fill="#1387BA" cx="111.977" cy="35.996" r="0.925"/>
					<circle fill="#1387BA" cx="114.421" cy="33.552" r="0.925"/>
					<circle fill="#1387BA" cx="116.865" cy="35.996" r="0.925"/>
					<circle fill="#1387BA" cx="119.309" cy="33.552" r="0.925"/>
					<circle fill="#1387BA" cx="121.753" cy="35.996" r="0.925"/>
					<circle fill="#1387BA" cx="124.197" cy="33.552" r="0.925"/>
					<circle fill="#1387BA" cx="126.641" cy="35.996" r="0.925"/>
					<circle fill="#1387BA" cx="129.085" cy="33.552" r="0.925"/>
					<circle fill="#1387BA" cx="131.529" cy="35.996" r="0.925"/>
					<circle fill="#1387BA" cx="133.973" cy="33.552" r="0.925"/>
					<circle fill="#1387BA" cx="136.417" cy="35.996" r="0.925"/>
					<circle fill="#1387BA" cx="138.86" cy="33.552" r="0.925"/>
					<circle fill="#1387BA" cx="141.304" cy="35.996" r="0.925"/>
					<circle fill="#1387BA" cx="143.748" cy="33.552" r="0.925"/>
					<circle fill="#1387BA" cx="146.192" cy="35.996" r="0.925"/>
					<circle fill="#1387BA" cx="148.636" cy="33.552" r="0.925"/>
					<circle fill="#1387BA" cx="55.766" cy="38.44" r="0.925"/>
					<circle fill="#1387BA" cx="58.21" cy="40.884" r="0.925"/>
					<circle fill="#1387BA" cx="60.654" cy="38.44" r="0.925"/>
					<circle fill="#1387BA" cx="63.098" cy="40.884" r="0.925"/>
					<circle fill="#1387BA" cx="65.541" cy="38.44" r="0.925"/>
					<circle fill="#1387BA" cx="67.985" cy="40.884" r="0.925"/>
					<circle fill="#1387BA" cx="70.429" cy="38.44" r="0.925"/>
					<circle fill="#1387BA" cx="72.873" cy="40.884" r="0.925"/>
					<circle fill="#1387BA" cx="75.317" cy="38.44" r="0.925"/>
					<circle fill="#1387BA" cx="77.761" cy="40.884" r="0.925"/>
					<circle fill="#1387BA" cx="80.205" cy="38.44" r="0.925"/>
					<circle fill="#1387BA" cx="82.649" cy="40.884" r="0.925"/>
					<circle fill="#1387BA" cx="85.093" cy="38.44" r="0.925"/>
					<circle fill="#1387BA" cx="87.537" cy="40.884" r="0.925"/>
					<circle fill="#1387BA" cx="89.981" cy="38.44" r="0.925"/>
					<circle fill="#1387BA" cx="92.425" cy="40.884" r="0.925"/>
					<circle fill="#1387BA" cx="94.869" cy="38.44" r="0.925"/>
					<circle fill="#1387BA" cx="97.313" cy="40.884" r="0.925"/>
					<circle fill="#1387BA" cx="99.757" cy="38.44" r="0.925"/>
					<circle fill="#1387BA" cx="102.201" cy="40.884" r="0.925"/>
					<circle fill="#1387BA" cx="104.645" cy="38.44" r="0.925"/>
					<circle fill="#1387BA" cx="107.089" cy="40.884" r="0.925"/>
					<circle fill="#1387BA" cx="109.533" cy="38.44" r="0.925"/>
					<circle fill="#1387BA" cx="111.977" cy="40.884" r="0.925"/>
					<circle fill="#1387BA" cx="114.421" cy="38.44" r="0.925"/>
					<circle fill="#1387BA" cx="116.865" cy="40.884" r="0.925"/>
					<circle fill="#1387BA" cx="119.309" cy="38.44" r="0.925"/>
					<circle fill="#1387BA" cx="121.753" cy="40.884" r="0.925"/>
					<circle fill="#1387BA" cx="124.197" cy="38.44" r="0.925"/>
					<circle fill="#1387BA" cx="126.641" cy="40.884" r="0.925"/>
					<circle fill="#1387BA" cx="129.085" cy="38.44" r="0.925"/>
					<circle fill="#1387BA" cx="131.529" cy="40.884" r="0.925"/>
					<circle fill="#1387BA" cx="133.973" cy="38.44" r="0.925"/>
					<circle fill="#1387BA" cx="136.417" cy="40.884" r="0.925"/>
					<circle fill="#1387BA" cx="138.86" cy="38.44" r="0.925"/>
					<circle fill="#1387BA" cx="141.304" cy="40.884" r="0.925"/>
					<circle fill="#1387BA" cx="143.748" cy="38.44" r="0.925"/>
					<circle fill="#1387BA" cx="146.192" cy="40.884" r="0.925"/>
					<circle fill="#1387BA" cx="148.636" cy="38.44" r="0.925"/>
					<circle fill="#1387BA" cx="55.766" cy="43.328" r="0.925"/>
					<circle fill="#1387BA" cx="58.21" cy="45.772" r="0.925"/>
					<circle fill="#1387BA" cx="60.654" cy="43.328" r="0.925"/>
					<circle fill="#1387BA" cx="63.098" cy="45.772" r="0.925"/>
					<circle fill="#1387BA" cx="65.541" cy="43.328" r="0.925"/>
					<circle fill="#1387BA" cx="67.985" cy="45.772" r="0.925"/>
					<circle fill="#1387BA" cx="70.429" cy="43.328" r="0.925"/>
					<circle fill="#1387BA" cx="72.873" cy="45.772" r="0.925"/>
					<circle fill="#1387BA" cx="75.317" cy="43.328" r="0.925"/>
					<circle fill="#1387BA" cx="77.761" cy="45.772" r="0.925"/>
					<circle fill="#1387BA" cx="80.205" cy="43.328" r="0.925"/>
					<circle fill="#1387BA" cx="82.649" cy="45.772" r="0.925"/>
					<circle fill="#1387BA" cx="85.093" cy="43.328" r="0.925"/>
					<circle fill="#1387BA" cx="87.537" cy="45.772" r="0.925"/>
					<circle fill="#1387BA" cx="89.981" cy="43.328" r="0.925"/>
					<circle fill="#1387BA" cx="92.425" cy="45.772" r="0.925"/>
					<circle fill="#1387BA" cx="94.869" cy="43.328" r="0.925"/>
					<circle fill="#1387BA" cx="97.313" cy="45.772" r="0.925"/>
					<circle fill="#1387BA" cx="99.757" cy="43.328" r="0.925"/>
					<circle fill="#1387BA" cx="102.201" cy="45.772" r="0.925"/>
					<circle fill="#1387BA" cx="104.645" cy="43.328" r="0.925"/>
					<circle fill="#1387BA" cx="107.089" cy="45.772" r="0.925"/>
					<circle fill="#1387BA" cx="109.533" cy="43.328" r="0.925"/>
					<circle fill="#1387BA" cx="111.977" cy="45.772" r="0.925"/>
					<circle fill="#1387BA" cx="114.421" cy="43.328" r="0.925"/>
					<circle fill="#1387BA" cx="116.865" cy="45.772" r="0.925"/>
					<circle fill="#1387BA" cx="119.309" cy="43.328" r="0.925"/>
					<circle fill="#1387BA" cx="121.753" cy="45.772" r="0.925"/>
					<circle fill="#1387BA" cx="124.197" cy="43.328" r="0.925"/>
					<circle fill="#1387BA" cx="126.641" cy="45.772" r="0.925"/>
					<circle fill="#1387BA" cx="129.085" cy="43.328" r="0.925"/>
					<circle fill="#1387BA" cx="131.529" cy="45.772" r="0.925"/>
					<circle fill="#1387BA" cx="133.973" cy="43.328" r="0.925"/>
					<circle fill="#1387BA" cx="136.417" cy="45.772" r="0.925"/>
					<circle fill="#1387BA" cx="138.86" cy="43.328" r="0.925"/>
					<circle fill="#1387BA" cx="141.304" cy="45.772" r="0.925"/>
					<circle fill="#1387BA" cx="143.748" cy="43.328" r="0.925"/>
					<circle fill="#1387BA" cx="146.192" cy="45.772" r="0.925"/>
					<circle fill="#1387BA" cx="148.636" cy="43.328" r="0.925"/>
					<circle fill="#1387BA" cx="36.214" cy="48.216" r="0.925"/>
					<circle fill="#1387BA" cx="38.658" cy="50.66" r="0.925"/>
					<circle fill="#1387BA" cx="41.102" cy="48.216" r="0.925"/>
					<circle fill="#1387BA" cx="43.546" cy="50.66" r="0.925"/>
					<circle fill="#1387BA" cx="45.99" cy="48.216" r="0.925"/>
					<circle fill="#1387BA" cx="48.434" cy="50.66" r="0.925"/>
					<circle fill="#1387BA" cx="50.878" cy="48.216" r="0.925"/>
					<circle fill="#1387BA" cx="53.322" cy="50.66" r="0.925"/>
					<circle fill="#1387BA" cx="55.766" cy="48.216" r="0.925"/>
					<circle fill="#1387BA" cx="58.21" cy="50.66" r="0.925"/>
					<circle fill="#1387BA" cx="60.654" cy="48.216" r="0.925"/>
					<circle fill="#1387BA" cx="63.098" cy="50.66" r="0.925"/>
					<circle fill="#1387BA" cx="65.541" cy="48.216" r="0.925"/>
					<circle fill="#1387BA" cx="67.985" cy="50.66" r="0.925"/>
					<circle fill="#1387BA" cx="70.429" cy="48.216" r="0.925"/>
					<circle fill="#1387BA" cx="72.873" cy="50.66" r="0.925"/>
					<circle fill="#1387BA" cx="75.317" cy="48.216" r="0.925"/>
					<circle fill="#1387BA" cx="77.761" cy="50.66" r="0.925"/>
					<circle fill="#1387BA" cx="80.205" cy="48.216" r="0.925"/>
					<circle fill="#1387BA" cx="82.649" cy="50.66" r="0.925"/>
					<circle fill="#1387BA" cx="85.093" cy="48.216" r="0.925"/>
					<circle fill="#1387BA" cx="87.537" cy="50.66" r="0.925"/>
					<circle fill="#1387BA" cx="89.981" cy="48.216" r="0.925"/>
					<circle fill="#1387BA" cx="92.425" cy="50.66" r="0.925"/>
					<circle fill="#1387BA" cx="94.869" cy="48.216" r="0.925"/>
					<circle fill="#1387BA" cx="97.313" cy="50.66" r="0.925"/>
					<circle fill="#1387BA" cx="99.757" cy="48.216" r="0.925"/>
					<circle fill="#1387BA" cx="102.201" cy="50.66" r="0.925"/>
					<circle fill="#1387BA" cx="104.645" cy="48.216" r="0.925"/>
					<circle fill="#1387BA" cx="107.089" cy="50.66" r="0.925"/>
					<circle fill="#1387BA" cx="109.533" cy="48.216" r="0.925"/>
					<circle fill="#1387BA" cx="111.977" cy="50.66" r="0.925"/>
					<circle fill="#1387BA" cx="114.421" cy="48.216" r="0.925"/>
					<circle fill="#1387BA" cx="116.865" cy="50.66" r="0.925"/>
					<circle fill="#1387BA" cx="119.309" cy="48.216" r="0.925"/>
					<circle fill="#1387BA" cx="121.753" cy="50.66" r="0.925"/>
					<circle fill="#1387BA" cx="124.197" cy="48.216" r="0.925"/>
					<circle fill="#1387BA" cx="126.641" cy="50.66" r="0.925"/>
					<circle fill="#1387BA" cx="129.085" cy="48.216" r="0.925"/>
					<circle fill="#1387BA" cx="131.529" cy="50.66" r="0.925"/>
					<circle fill="#1387BA" cx="133.973" cy="48.216" r="0.925"/>
					<circle fill="#1387BA" cx="136.417" cy="50.66" r="0.925"/>
					<circle fill="#1387BA" cx="138.86" cy="48.216" r="0.925"/>
					<circle fill="#1387BA" cx="141.304" cy="50.66" r="0.925"/>
					<circle fill="#1387BA" cx="143.748" cy="48.216" r="0.925"/>
					<circle fill="#1387BA" cx="146.192" cy="50.66" r="0.925"/>
					<circle fill="#1387BA" cx="148.636" cy="48.216" r="0.925"/>
				</g>
				<g>
					<circle fill="#1387BA" cx="36.214" cy="53.104" r="0.925"/>
					<circle fill="#1387BA" cx="38.658" cy="55.547" r="0.925"/>
					<circle fill="#1387BA" cx="41.102" cy="53.104" r="0.925"/>
					<circle fill="#1387BA" cx="43.546" cy="55.547" r="0.925"/>
					<circle fill="#1387BA" cx="45.99" cy="53.104" r="0.925"/>
					<circle fill="#1387BA" cx="48.434" cy="55.547" r="0.925"/>
					<circle fill="#1387BA" cx="50.878" cy="53.104" r="0.925"/>
					<circle fill="#1387BA" cx="53.322" cy="55.547" r="0.925"/>
					<circle fill="#1387BA" cx="55.766" cy="53.104" r="0.925"/>
					<circle fill="#1387BA" cx="58.21" cy="55.547" r="0.925"/>
					<circle fill="#1387BA" cx="60.654" cy="53.104" r="0.925"/>
					<circle fill="#1387BA" cx="63.098" cy="55.547" r="0.925"/>
					<circle fill="#1387BA" cx="65.541" cy="53.104" r="0.925"/>
					<circle fill="#1387BA" cx="67.985" cy="55.547" r="0.925"/>
					<circle fill="#1387BA" cx="70.429" cy="53.104" r="0.925"/>
					<circle fill="#1387BA" cx="72.873" cy="55.547" r="0.925"/>
					<circle fill="#1387BA" cx="75.317" cy="53.104" r="0.925"/>
					<circle fill="#1387BA" cx="77.761" cy="55.547" r="0.925"/>
					<circle fill="#1387BA" cx="80.205" cy="53.104" r="0.925"/>
					<circle fill="#1387BA" cx="82.649" cy="55.547" r="0.925"/>
					<circle fill="#1387BA" cx="85.093" cy="53.104" r="0.925"/>
					<circle fill="#1387BA" cx="87.537" cy="55.547" r="0.925"/>
					<circle fill="#1387BA" cx="89.981" cy="53.104" r="0.925"/>
					<circle fill="#1387BA" cx="92.425" cy="55.547" r="0.925"/>
					<circle fill="#1387BA" cx="94.869" cy="53.104" r="0.925"/>
					<circle fill="#1387BA" cx="97.313" cy="55.547" r="0.925"/>
					<circle fill="#1387BA" cx="99.757" cy="53.104" r="0.925"/>
					<circle fill="#1387BA" cx="102.201" cy="55.547" r="0.925"/>
					<circle fill="#1387BA" cx="104.645" cy="53.104" r="0.925"/>
					<circle fill="#1387BA" cx="107.089" cy="55.547" r="0.925"/>
					<circle fill="#1387BA" cx="109.533" cy="53.104" r="0.925"/>
					<circle fill="#1387BA" cx="111.977" cy="55.547" r="0.925"/>
					<circle fill="#1387BA" cx="114.421" cy="53.104" r="0.925"/>
					<circle fill="#1387BA" cx="116.865" cy="55.547" r="0.925"/>
					<circle fill="#1387BA" cx="119.309" cy="53.104" r="0.925"/>
					<circle fill="#1387BA" cx="121.753" cy="55.547" r="0.925"/>
					<circle fill="#1387BA" cx="124.197" cy="53.104" r="0.925"/>
					<circle fill="#1387BA" cx="126.641" cy="55.547" r="0.925"/>
					<circle fill="#1387BA" cx="129.085" cy="53.104" r="0.925"/>
					<circle fill="#1387BA" cx="131.529" cy="55.547" r="0.925"/>
					<circle fill="#1387BA" cx="133.973" cy="53.104" r="0.925"/>
					<circle fill="#1387BA" cx="136.417" cy="55.547" r="0.925"/>
					<circle fill="#1387BA" cx="138.86" cy="53.104" r="0.925"/>
					<circle fill="#1387BA" cx="141.304" cy="55.547" r="0.925"/>
					<circle fill="#1387BA" cx="143.748" cy="53.104" r="0.925"/>
					<circle fill="#1387BA" cx="146.192" cy="55.547" r="0.925"/>
					<circle fill="#1387BA" cx="148.636" cy="53.104" r="0.925"/>
					<circle fill="#1387BA" cx="36.214" cy="57.991" r="0.925"/>
					<circle fill="#1387BA" cx="38.658" cy="60.435" r="0.925"/>
					<circle fill="#1387BA" cx="41.102" cy="57.991" r="0.925"/>
					<circle fill="#1387BA" cx="43.546" cy="60.435" r="0.925"/>
					<circle fill="#1387BA" cx="45.99" cy="57.991" r="0.925"/>
					<circle fill="#1387BA" cx="48.434" cy="60.435" r="0.925"/>
					<circle fill="#1387BA" cx="50.878" cy="57.991" r="0.925"/>
					<circle fill="#1387BA" cx="53.322" cy="60.435" r="0.925"/>
					<circle fill="#1387BA" cx="55.766" cy="57.991" r="0.925"/>
					<circle fill="#1387BA" cx="58.21" cy="60.435" r="0.925"/>
					<circle fill="#1387BA" cx="60.654" cy="57.991" r="0.925"/>
					<circle fill="#1387BA" cx="63.098" cy="60.435" r="0.925"/>
					<circle fill="#1387BA" cx="65.541" cy="57.991" r="0.925"/>
					<circle fill="#1387BA" cx="67.985" cy="60.435" r="0.925"/>
					<circle fill="#1387BA" cx="70.429" cy="57.991" r="0.925"/>
					<circle fill="#1387BA" cx="72.873" cy="60.435" r="0.925"/>
					<circle fill="#1387BA" cx="75.317" cy="57.991" r="0.925"/>
					<circle fill="#1387BA" cx="77.761" cy="60.435" r="0.925"/>
					<circle fill="#1387BA" cx="80.205" cy="57.991" r="0.925"/>
					<circle fill="#1387BA" cx="82.649" cy="60.435" r="0.925"/>
					<circle fill="#1387BA" cx="85.093" cy="57.991" r="0.925"/>
					<circle fill="#1387BA" cx="87.537" cy="60.435" r="0.925"/>
					<circle fill="#1387BA" cx="89.981" cy="57.991" r="0.925"/>
					<circle fill="#1387BA" cx="92.425" cy="60.435" r="0.925"/>
					<circle fill="#1387BA" cx="94.869" cy="57.991" r="0.925"/>
					<circle fill="#1387BA" cx="97.313" cy="60.435" r="0.925"/>
					<circle fill="#1387BA" cx="99.757" cy="57.991" r="0.925"/>
					<circle fill="#1387BA" cx="102.201" cy="60.435" r="0.925"/>
					<circle fill="#1387BA" cx="104.645" cy="57.991" r="0.925"/>
					<circle fill="#1387BA" cx="107.089" cy="60.435" r="0.925"/>
					<circle fill="#1387BA" cx="109.533" cy="57.991" r="0.925"/>
					<circle fill="#1387BA" cx="111.977" cy="60.435" r="0.925"/>
					<circle fill="#1387BA" cx="114.421" cy="57.991" r="0.925"/>
					<circle fill="#1387BA" cx="116.865" cy="60.435" r="0.925"/>
					<circle fill="#1387BA" cx="119.309" cy="57.991" r="0.925"/>
					<circle fill="#1387BA" cx="121.753" cy="60.435" r="0.925"/>
					<circle fill="#1387BA" cx="124.197" cy="57.991" r="0.925"/>
					<circle fill="#1387BA" cx="126.641" cy="60.435" r="0.925"/>
					<circle fill="#1387BA" cx="129.085" cy="57.991" r="0.925"/>
					<circle fill="#1387BA" cx="131.529" cy="60.435" r="0.925"/>
					<circle fill="#1387BA" cx="133.973" cy="57.991" r="0.925"/>
					<circle fill="#1387BA" cx="136.417" cy="60.435" r="0.925"/>
					<circle fill="#1387BA" cx="138.86" cy="57.991" r="0.925"/>
					<circle fill="#1387BA" cx="141.304" cy="60.435" r="0.925"/>
					<circle fill="#1387BA" cx="143.748" cy="57.991" r="0.925"/>
					<circle fill="#1387BA" cx="146.192" cy="60.435" r="0.925"/>
					<circle fill="#1387BA" cx="148.636" cy="57.991" r="0.925"/>
					<circle fill="#1387BA" cx="36.214" cy="62.879" r="0.925"/>
					<circle fill="#1387BA" cx="38.658" cy="65.323" r="0.925"/>
					<circle fill="#1387BA" cx="41.102" cy="62.879" r="0.925"/>
					<circle fill="#1387BA" cx="43.546" cy="65.323" r="0.925"/>
					<circle fill="#1387BA" cx="45.99" cy="62.879" r="0.925"/>
					<circle fill="#1387BA" cx="48.434" cy="65.323" r="0.925"/>
					<circle fill="#1387BA" cx="50.878" cy="62.879" r="0.925"/>
					<circle fill="#1387BA" cx="53.322" cy="65.323" r="0.925"/>
					<circle fill="#1387BA" cx="55.766" cy="62.879" r="0.925"/>
					<circle fill="#1387BA" cx="58.21" cy="65.323" r="0.925"/>
					<circle fill="#1387BA" cx="60.654" cy="62.879" r="0.925"/>
					<circle fill="#1387BA" cx="63.098" cy="65.323" r="0.925"/>
					<circle fill="#1387BA" cx="65.541" cy="62.879" r="0.925"/>
					<circle fill="#1387BA" cx="67.985" cy="65.323" r="0.925"/>
					<circle fill="#1387BA" cx="70.429" cy="62.879" r="0.925"/>
					<circle fill="#1387BA" cx="72.873" cy="65.323" r="0.925"/>
					<circle fill="#1387BA" cx="75.317" cy="62.879" r="0.925"/>
					<circle fill="#1387BA" cx="77.761" cy="65.323" r="0.925"/>
					<circle fill="#1387BA" cx="80.205" cy="62.879" r="0.925"/>
					<circle fill="#1387BA" cx="82.649" cy="65.323" r="0.925"/>
					<circle fill="#1387BA" cx="85.093" cy="62.879" r="0.925"/>
					<circle fill="#1387BA" cx="87.537" cy="65.323" r="0.925"/>
					<circle fill="#1387BA" cx="89.981" cy="62.879" r="0.925"/>
					<circle fill="#1387BA" cx="92.425" cy="65.323" r="0.925"/>
					<circle fill="#1387BA" cx="94.869" cy="62.879" r="0.925"/>
					<circle fill="#1387BA" cx="97.313" cy="65.323" r="0.925"/>
					<circle fill="#1387BA" cx="99.757" cy="62.879" r="0.925"/>
					<circle fill="#1387BA" cx="102.201" cy="65.323" r="0.925"/>
					<circle fill="#1387BA" cx="104.645" cy="62.879" r="0.925"/>
					<circle fill="#1387BA" cx="107.089" cy="65.323" r="0.925"/>
					<circle fill="#1387BA" cx="109.533" cy="62.879" r="0.925"/>
					<circle fill="#1387BA" cx="111.977" cy="65.323" r="0.925"/>
					<circle fill="#1387BA" cx="114.421" cy="62.879" r="0.925"/>
					<circle fill="#1387BA" cx="116.865" cy="65.323" r="0.925"/>
					<circle fill="#1387BA" cx="119.309" cy="62.879" r="0.925"/>
					<circle fill="#1387BA" cx="121.753" cy="65.323" r="0.925"/>
					<circle fill="#1387BA" cx="124.197" cy="62.879" r="0.925"/>
					<circle fill="#1387BA" cx="126.641" cy="65.323" r="0.925"/>
					<circle fill="#1387BA" cx="129.085" cy="62.879" r="0.925"/>
					<circle fill="#1387BA" cx="131.529" cy="65.323" r="0.925"/>
					<circle fill="#1387BA" cx="133.973" cy="62.879" r="0.925"/>
					<circle fill="#1387BA" cx="136.417" cy="65.323" r="0.925"/>
					<circle fill="#1387BA" cx="138.86" cy="62.879" r="0.925"/>
					<circle fill="#1387BA" cx="141.304" cy="65.323" r="0.925"/>
					<circle fill="#1387BA" cx="143.748" cy="62.879" r="0.925"/>
					<circle fill="#1387BA" cx="146.192" cy="65.323" r="0.925"/>
					<circle fill="#1387BA" cx="148.636" cy="62.879" r="0.925"/>
					<circle fill="#1387BA" cx="36.214" cy="67.767" r="0.925"/>
					<circle fill="#1387BA" cx="38.658" cy="70.211" r="0.925"/>
					<circle fill="#1387BA" cx="41.102" cy="67.767" r="0.925"/>
					<circle fill="#1387BA" cx="43.546" cy="70.211" r="0.925"/>
					<circle fill="#1387BA" cx="45.99" cy="67.767" r="0.925"/>
					<circle fill="#1387BA" cx="48.434" cy="70.211" r="0.925"/>
					<circle fill="#1387BA" cx="50.878" cy="67.767" r="0.925"/>
					<circle fill="#1387BA" cx="53.322" cy="70.211" r="0.925"/>
					<circle fill="#1387BA" cx="55.766" cy="67.767" r="0.925"/>
					<circle fill="#1387BA" cx="58.21" cy="70.211" r="0.925"/>
					<circle fill="#1387BA" cx="60.654" cy="67.767" r="0.925"/>
					<circle fill="#1387BA" cx="63.098" cy="70.211" r="0.925"/>
					<circle fill="#1387BA" cx="65.541" cy="67.767" r="0.925"/>
					<circle fill="#1387BA" cx="67.985" cy="70.211" r="0.925"/>
					<circle fill="#1387BA" cx="70.429" cy="67.767" r="0.925"/>
					<circle fill="#1387BA" cx="72.873" cy="70.211" r="0.925"/>
					<circle fill="#1387BA" cx="75.317" cy="67.767" r="0.925"/>
					<circle fill="#1387BA" cx="77.761" cy="70.211" r="0.925"/>
					<circle fill="#1387BA" cx="80.205" cy="67.767" r="0.925"/>
					<circle fill="#1387BA" cx="82.649" cy="70.211" r="0.925"/>
					<circle fill="#1387BA" cx="85.093" cy="67.767" r="0.925"/>
					<circle fill="#1387BA" cx="87.537" cy="70.211" r="0.925"/>
					<circle fill="#1387BA" cx="89.981" cy="67.767" r="0.925"/>
					<circle fill="#1387BA" cx="92.425" cy="70.211" r="0.925"/>
					<circle fill="#1387BA" cx="94.869" cy="67.767" r="0.925"/>
					<circle fill="#1387BA" cx="97.313" cy="70.211" r="0.925"/>
					<circle fill="#1387BA" cx="99.757" cy="67.767" r="0.925"/>
					<circle fill="#1387BA" cx="102.201" cy="70.211" r="0.925"/>
					<circle fill="#1387BA" cx="104.645" cy="67.767" r="0.925"/>
					<circle fill="#1387BA" cx="107.089" cy="70.211" r="0.925"/>
					<circle fill="#1387BA" cx="109.533" cy="67.767" r="0.925"/>
					<circle fill="#1387BA" cx="111.977" cy="70.211" r="0.925"/>
					<circle fill="#1387BA" cx="114.421" cy="67.767" r="0.925"/>
					<circle fill="#1387BA" cx="116.865" cy="70.211" r="0.925"/>
					<circle fill="#1387BA" cx="119.309" cy="67.767" r="0.925"/>
					<circle fill="#1387BA" cx="121.753" cy="70.211" r="0.925"/>
					<circle fill="#1387BA" cx="124.197" cy="67.767" r="0.925"/>
					<circle fill="#1387BA" cx="126.641" cy="70.211" r="0.925"/>
					<circle fill="#1387BA" cx="129.085" cy="67.767" r="0.925"/>
					<circle fill="#1387BA" cx="131.529" cy="70.211" r="0.925"/>
					<circle fill="#1387BA" cx="133.973" cy="67.767" r="0.925"/>
					<circle fill="#1387BA" cx="136.417" cy="70.211" r="0.925"/>
					<circle fill="#1387BA" cx="138.86" cy="67.767" r="0.925"/>
					<circle fill="#1387BA" cx="141.304" cy="70.211" r="0.925"/>
					<circle fill="#1387BA" cx="143.748" cy="67.767" r="0.925"/>
					<circle fill="#1387BA" cx="146.192" cy="70.211" r="0.925"/>
					<circle fill="#1387BA" cx="148.636" cy="67.767" r="0.925"/>
					<circle fill="#1387BA" cx="36.214" cy="72.655" r="0.925"/>
					<circle fill="#1387BA" cx="38.658" cy="75.099" r="0.925"/>
					<circle fill="#1387BA" cx="41.102" cy="72.655" r="0.925"/>
					<circle fill="#1387BA" cx="43.546" cy="75.099" r="0.925"/>
					<circle fill="#1387BA" cx="45.99" cy="72.655" r="0.925"/>
					<circle fill="#1387BA" cx="48.434" cy="75.099" r="0.925"/>
					<circle fill="#1387BA" cx="50.878" cy="72.655" r="0.925"/>
					<circle fill="#1387BA" cx="53.322" cy="75.099" r="0.925"/>
					<circle fill="#1387BA" cx="55.766" cy="72.655" r="0.925"/>
					<circle fill="#1387BA" cx="58.21" cy="75.099" r="0.925"/>
					<circle fill="#1387BA" cx="60.654" cy="72.655" r="0.925"/>
					<circle fill="#1387BA" cx="63.098" cy="75.099" r="0.925"/>
					<circle fill="#1387BA" cx="65.541" cy="72.655" r="0.925"/>
					<circle fill="#1387BA" cx="67.985" cy="75.099" r="0.925"/>
					<circle fill="#1387BA" cx="70.429" cy="72.655" r="0.925"/>
					<circle fill="#1387BA" cx="72.873" cy="75.099" r="0.925"/>
					<circle fill="#1387BA" cx="75.317" cy="72.655" r="0.925"/>
					<circle fill="#1387BA" cx="77.761" cy="75.099" r="0.925"/>
					<circle fill="#1387BA" cx="80.205" cy="72.655" r="0.925"/>
					<circle fill="#1387BA" cx="82.649" cy="75.099" r="0.925"/>
					<circle fill="#1387BA" cx="85.093" cy="72.655" r="0.925"/>
					<circle fill="#1387BA" cx="87.537" cy="75.099" r="0.925"/>
					<circle fill="#1387BA" cx="89.981" cy="72.655" r="0.925"/>
					<circle fill="#1387BA" cx="92.425" cy="75.099" r="0.925"/>
					<circle fill="#1387BA" cx="94.869" cy="72.655" r="0.925"/>
					<circle fill="#1387BA" cx="97.313" cy="75.099" r="0.925"/>
					<circle fill="#1387BA" cx="99.757" cy="72.655" r="0.925"/>
					<circle fill="#1387BA" cx="102.201" cy="75.099" r="0.925"/>
					<circle fill="#1387BA" cx="104.645" cy="72.655" r="0.925"/>
					<circle fill="#1387BA" cx="107.089" cy="75.099" r="0.925"/>
					<circle fill="#1387BA" cx="109.533" cy="72.655" r="0.925"/>
					<circle fill="#1387BA" cx="111.977" cy="75.099" r="0.925"/>
					<circle fill="#1387BA" cx="114.421" cy="72.655" r="0.925"/>
					<circle fill="#1387BA" cx="116.865" cy="75.099" r="0.925"/>
					<circle fill="#1387BA" cx="119.309" cy="72.655" r="0.925"/>
					<circle fill="#1387BA" cx="121.753" cy="75.099" r="0.925"/>
					<circle fill="#1387BA" cx="124.197" cy="72.655" r="0.925"/>
					<circle fill="#1387BA" cx="126.641" cy="75.099" r="0.925"/>
					<circle fill="#1387BA" cx="129.085" cy="72.655" r="0.925"/>
					<circle fill="#1387BA" cx="131.529" cy="75.099" r="0.925"/>
					<circle fill="#1387BA" cx="133.973" cy="72.655" r="0.925"/>
					<circle fill="#1387BA" cx="136.417" cy="75.099" r="0.925"/>
					<circle fill="#1387BA" cx="138.86" cy="72.655" r="0.925"/>
					<circle fill="#1387BA" cx="141.304" cy="75.099" r="0.925"/>
					<circle fill="#1387BA" cx="143.748" cy="72.655" r="0.925"/>
					<circle fill="#1387BA" cx="146.192" cy="75.099" r="0.925"/>
					<circle fill="#1387BA" cx="148.636" cy="72.655" r="0.925"/>
					<circle fill="#1387BA" cx="36.214" cy="77.543" r="0.925"/>
					<circle fill="#1387BA" cx="38.658" cy="79.987" r="0.925"/>
					<circle fill="#1387BA" cx="41.102" cy="77.543" r="0.925"/>
					<circle fill="#1387BA" cx="43.546" cy="79.987" r="0.925"/>
					<circle fill="#1387BA" cx="45.99" cy="77.543" r="0.925"/>
					<circle fill="#1387BA" cx="48.434" cy="79.987" r="0.925"/>
					<circle fill="#1387BA" cx="50.878" cy="77.543" r="0.925"/>
					<circle fill="#1387BA" cx="53.322" cy="79.987" r="0.925"/>
					<circle fill="#1387BA" cx="55.766" cy="77.543" r="0.925"/>
					<circle fill="#1387BA" cx="58.21" cy="79.987" r="0.925"/>
					<circle fill="#1387BA" cx="60.654" cy="77.543" r="0.925"/>
					<circle fill="#1387BA" cx="63.098" cy="79.987" r="0.925"/>
					<circle fill="#1387BA" cx="65.541" cy="77.543" r="0.925"/>
					<circle fill="#1387BA" cx="67.985" cy="79.987" r="0.925"/>
					<circle fill="#1387BA" cx="70.429" cy="77.543" r="0.925"/>
					<circle fill="#1387BA" cx="72.873" cy="79.987" r="0.925"/>
					<circle fill="#1387BA" cx="75.317" cy="77.543" r="0.925"/>
					<circle fill="#1387BA" cx="77.761" cy="79.987" r="0.925"/>
					<circle fill="#1387BA" cx="80.205" cy="77.543" r="0.925"/>
					<circle fill="#1387BA" cx="82.649" cy="79.987" r="0.925"/>
					<circle fill="#1387BA" cx="85.093" cy="77.543" r="0.925"/>
					<circle fill="#1387BA" cx="87.537" cy="79.987" r="0.925"/>
					<circle fill="#1387BA" cx="89.981" cy="77.543" r="0.925"/>
					<circle fill="#1387BA" cx="92.425" cy="79.987" r="0.925"/>
					<circle fill="#1387BA" cx="94.869" cy="77.543" r="0.925"/>
					<circle fill="#1387BA" cx="97.313" cy="79.987" r="0.925"/>
					<circle fill="#1387BA" cx="99.757" cy="77.543" r="0.925"/>
					<circle fill="#1387BA" cx="102.201" cy="79.987" r="0.925"/>
					<circle fill="#1387BA" cx="104.645" cy="77.543" r="0.925"/>
					<circle fill="#1387BA" cx="107.089" cy="79.987" r="0.925"/>
					<circle fill="#1387BA" cx="109.533" cy="77.543" r="0.925"/>
					<circle fill="#1387BA" cx="114.421" cy="77.543" r="0.925"/>
					<circle fill="#1387BA" cx="119.309" cy="77.543" r="0.925"/>
					<circle fill="#1387BA" cx="124.197" cy="77.543" r="0.925"/>
					<circle fill="#1387BA" cx="129.085" cy="77.543" r="0.925"/>
					<circle fill="#1387BA" cx="133.973" cy="77.543" r="0.925"/>
					<circle fill="#1387BA" cx="138.86" cy="77.543" r="0.925"/>
					<circle fill="#1387BA" cx="143.748" cy="77.543" r="0.925"/>
					<circle fill="#1387BA" cx="148.636" cy="77.543" r="0.925"/>
					<circle fill="#1387BA" cx="36.214" cy="82.431" r="0.925"/>
					<circle fill="#1387BA" cx="38.658" cy="84.875" r="0.925"/>
					<circle fill="#1387BA" cx="41.102" cy="82.431" r="0.925"/>
					<circle fill="#1387BA" cx="43.546" cy="84.875" r="0.925"/>
					<circle fill="#1387BA" cx="45.99" cy="82.431" r="0.925"/>
					<circle fill="#1387BA" cx="48.434" cy="84.875" r="0.925"/>
					<circle fill="#1387BA" cx="50.878" cy="82.431" r="0.925"/>
					<circle fill="#1387BA" cx="53.322" cy="84.875" r="0.925"/>
					<circle fill="#1387BA" cx="55.766" cy="82.431" r="0.925"/>
					<circle fill="#1387BA" cx="58.21" cy="84.875" r="0.925"/>
					<circle fill="#1387BA" cx="60.654" cy="82.431" r="0.925"/>
					<circle fill="#1387BA" cx="63.098" cy="84.875" r="0.925"/>
					<circle fill="#1387BA" cx="65.541" cy="82.431" r="0.925"/>
					<circle fill="#1387BA" cx="67.985" cy="84.875" r="0.925"/>
					<circle fill="#1387BA" cx="70.429" cy="82.431" r="0.925"/>
					<circle fill="#1387BA" cx="72.873" cy="84.875" r="0.925"/>
					<circle fill="#1387BA" cx="75.317" cy="82.431" r="0.925"/>
					<circle fill="#1387BA" cx="77.761" cy="84.875" r="0.925"/>
					<circle fill="#1387BA" cx="80.205" cy="82.431" r="0.925"/>
					<circle fill="#1387BA" cx="82.649" cy="84.875" r="0.925"/>
					<circle fill="#1387BA" cx="85.093" cy="82.431" r="0.925"/>
					<circle fill="#1387BA" cx="87.537" cy="84.875" r="0.925"/>
					<circle fill="#1387BA" cx="89.981" cy="82.431" r="0.925"/>
					<circle fill="#1387BA" cx="92.425" cy="84.875" r="0.925"/>
					<circle fill="#1387BA" cx="94.869" cy="82.431" r="0.925"/>
					<circle fill="#1387BA" cx="97.313" cy="84.875" r="0.925"/>
					<circle fill="#1387BA" cx="99.757" cy="82.431" r="0.925"/>
					<circle fill="#1387BA" cx="102.201" cy="84.875" r="0.925"/>
					<circle fill="#1387BA" cx="104.645" cy="82.431" r="0.925"/>
					<circle fill="#1387BA" cx="107.089" cy="84.875" r="0.925"/>
					<circle fill="#1387BA" cx="36.214" cy="87.319" r="0.925"/>
					<circle fill="#1387BA" cx="38.658" cy="89.763" r="0.925"/>
					<circle fill="#1387BA" cx="41.102" cy="87.319" r="0.925"/>
					<circle fill="#1387BA" cx="43.546" cy="89.763" r="0.925"/>
					<circle fill="#1387BA" cx="45.99" cy="87.319" r="0.925"/>
					<circle fill="#1387BA" cx="48.434" cy="89.763" r="0.925"/>
					<circle fill="#1387BA" cx="50.878" cy="87.319" r="0.925"/>
					<circle fill="#1387BA" cx="53.322" cy="89.763" r="0.925"/>
					<circle fill="#1387BA" cx="55.766" cy="87.319" r="0.925"/>
					<circle fill="#1387BA" cx="58.21" cy="89.763" r="0.925"/>
					<circle fill="#1387BA" cx="60.654" cy="87.319" r="0.925"/>
					<circle fill="#1387BA" cx="63.098" cy="89.763" r="0.925"/>
					<circle fill="#1387BA" cx="65.541" cy="87.319" r="0.925"/>
					<circle fill="#1387BA" cx="67.985" cy="89.763" r="0.925"/>
					<circle fill="#1387BA" cx="70.429" cy="87.319" r="0.925"/>
					<circle fill="#1387BA" cx="72.873" cy="89.763" r="0.925"/>
					<circle fill="#1387BA" cx="75.317" cy="87.319" r="0.925"/>
					<circle fill="#1387BA" cx="77.761" cy="89.763" r="0.925"/>
					<circle fill="#1387BA" cx="80.205" cy="87.319" r="0.925"/>
					<circle fill="#1387BA" cx="82.649" cy="89.763" r="0.925"/>
					<circle fill="#1387BA" cx="85.093" cy="87.319" r="0.925"/>
					<circle fill="#1387BA" cx="87.537" cy="89.763" r="0.925"/>
					<circle fill="#1387BA" cx="89.981" cy="87.319" r="0.925"/>
					<circle fill="#1387BA" cx="92.425" cy="89.763" r="0.925"/>
					<circle fill="#1387BA" cx="94.869" cy="87.319" r="0.925"/>
					<circle fill="#1387BA" cx="97.313" cy="89.763" r="0.925"/>
					<circle fill="#1387BA" cx="99.757" cy="87.319" r="0.925"/>
					<circle fill="#1387BA" cx="102.201" cy="89.763" r="0.925"/>
					<circle fill="#1387BA" cx="104.645" cy="87.319" r="0.925"/>
					<circle fill="#1387BA" cx="107.089" cy="89.763" r="0.925"/>
					<circle fill="#1387BA" cx="36.214" cy="92.199" r="0.925"/>
					<circle fill="#1387BA" cx="38.658" cy="94.643" r="0.925"/>
					<circle fill="#1387BA" cx="41.102" cy="92.199" r="0.925"/>
					<circle fill="#1387BA" cx="43.546" cy="94.643" r="0.925"/>
					<circle fill="#1387BA" cx="45.99" cy="92.199" r="0.925"/>
					<circle fill="#1387BA" cx="48.434" cy="94.643" r="0.925"/>
					<circle fill="#1387BA" cx="50.878" cy="92.199" r="0.925"/>
					<circle fill="#1387BA" cx="53.322" cy="94.643" r="0.925"/>
					<circle fill="#1387BA" cx="55.766" cy="92.199" r="0.925"/>
					<circle fill="#1387BA" cx="58.21" cy="94.643" r="0.925"/>
					<circle fill="#1387BA" cx="60.654" cy="92.199" r="0.925"/>
					<circle fill="#1387BA" cx="63.098" cy="94.643" r="0.925"/>
					<circle fill="#1387BA" cx="65.541" cy="92.199" r="0.925"/>
					<circle fill="#1387BA" cx="67.985" cy="94.643" r="0.925"/>
					<circle fill="#1387BA" cx="70.429" cy="92.199" r="0.925"/>
					<circle fill="#1387BA" cx="72.873" cy="94.643" r="0.925"/>
					<circle fill="#1387BA" cx="75.317" cy="92.199" r="0.925"/>
					<circle fill="#1387BA" cx="77.761" cy="94.643" r="0.925"/>
					<circle fill="#1387BA" cx="80.205" cy="92.199" r="0.925"/>
					<circle fill="#1387BA" cx="82.649" cy="94.643" r="0.925"/>
					<circle fill="#1387BA" cx="85.093" cy="92.199" r="0.925"/>
					<circle fill="#1387BA" cx="87.537" cy="94.643" r="0.925"/>
					<circle fill="#1387BA" cx="89.981" cy="92.199" r="0.925"/>
					<circle fill="#1387BA" cx="92.425" cy="94.643" r="0.925"/>
					<circle fill="#1387BA" cx="94.869" cy="92.199" r="0.925"/>
					<circle fill="#1387BA" cx="97.313" cy="94.643" r="0.925"/>
					<circle fill="#1387BA" cx="99.757" cy="92.199" r="0.925"/>
					<circle fill="#1387BA" cx="102.201" cy="94.643" r="0.925"/>
					<circle fill="#1387BA" cx="104.645" cy="92.199" r="0.925"/>
					<circle fill="#1387BA" cx="107.089" cy="94.643" r="0.925"/>
					<circle fill="#1387BA" cx="36.214" cy="97.087" r="0.925"/>
					<circle fill="#1387BA" cx="38.658" cy="99.531" r="0.925"/>
					<circle fill="#1387BA" cx="41.102" cy="97.087" r="0.925"/>
					<circle fill="#1387BA" cx="43.546" cy="99.531" r="0.925"/>
					<circle fill="#1387BA" cx="45.99" cy="97.087" r="0.925"/>
					<circle fill="#1387BA" cx="48.434" cy="99.531" r="0.925"/>
					<circle fill="#1387BA" cx="50.878" cy="97.087" r="0.925"/>
					<circle fill="#1387BA" cx="53.322" cy="99.531" r="0.925"/>
					<circle fill="#1387BA" cx="55.766" cy="97.087" r="0.925"/>
					<circle fill="#1387BA" cx="58.21" cy="99.531" r="0.925"/>
					<circle fill="#1387BA" cx="60.654" cy="97.087" r="0.925"/>
					<circle fill="#1387BA" cx="63.098" cy="99.531" r="0.925"/>
					<circle fill="#1387BA" cx="65.541" cy="97.087" r="0.925"/>
					<circle fill="#1387BA" cx="67.985" cy="99.531" r="0.925"/>
					<circle fill="#1387BA" cx="70.429" cy="97.087" r="0.925"/>
					<circle fill="#1387BA" cx="72.873" cy="99.531" r="0.925"/>
					<circle fill="#1387BA" cx="75.317" cy="97.087" r="0.925"/>
					<circle fill="#1387BA" cx="77.761" cy="99.531" r="0.925"/>
					<circle fill="#1387BA" cx="80.205" cy="97.087" r="0.925"/>
					<circle fill="#1387BA" cx="82.649" cy="99.531" r="0.925"/>
					<circle fill="#1387BA" cx="85.093" cy="97.087" r="0.925"/>
					<circle fill="#1387BA" cx="87.537" cy="99.531" r="0.925"/>
					<circle fill="#1387BA" cx="89.981" cy="97.087" r="0.925"/>
					<circle fill="#1387BA" cx="92.425" cy="99.531" r="0.925"/>
					<circle fill="#1387BA" cx="94.869" cy="97.087" r="0.925"/>
					<circle fill="#1387BA" cx="97.313" cy="99.531" r="0.925"/>
					<circle fill="#1387BA" cx="99.757" cy="97.087" r="0.925"/>
					<circle fill="#1387BA" cx="102.201" cy="99.531" r="0.925"/>
					<circle fill="#1387BA" cx="104.645" cy="97.087" r="0.925"/>
					<circle fill="#1387BA" cx="107.089" cy="99.531" r="0.925"/>
					<circle fill="#1387BA" cx="36.214" cy="101.975" r="0.925"/>
					<circle fill="#1387BA" cx="38.658" cy="104.419" r="0.925"/>
					<circle fill="#1387BA" cx="41.102" cy="101.975" r="0.925"/>
					<circle fill="#1387BA" cx="43.546" cy="104.419" r="0.925"/>
					<circle fill="#1387BA" cx="45.99" cy="101.975" r="0.925"/>
					<circle fill="#1387BA" cx="48.434" cy="104.419" r="0.925"/>
					<circle fill="#1387BA" cx="50.878" cy="101.975" r="0.925"/>
					<circle fill="#1387BA" cx="53.322" cy="104.419" r="0.925"/>
					<circle fill="#1387BA" cx="55.766" cy="101.975" r="0.925"/>
					<circle fill="#1387BA" cx="58.21" cy="104.419" r="0.925"/>
					<circle fill="#1387BA" cx="60.654" cy="101.975" r="0.925"/>
					<circle fill="#1387BA" cx="63.098" cy="104.419" r="0.925"/>
					<circle fill="#1387BA" cx="65.541" cy="101.975" r="0.925"/>
					<circle fill="#1387BA" cx="67.985" cy="104.419" r="0.925"/>
					<circle fill="#1387BA" cx="70.429" cy="101.975" r="0.925"/>
					<circle fill="#1387BA" cx="72.873" cy="104.419" r="0.925"/>
					<circle fill="#1387BA" cx="75.317" cy="101.975" r="0.925"/>
					<circle fill="#1387BA" cx="77.761" cy="104.419" r="0.925"/>
					<circle fill="#1387BA" cx="80.205" cy="101.975" r="0.925"/>
					<circle fill="#1387BA" cx="82.649" cy="104.419" r="0.925"/>
					<circle fill="#1387BA" cx="85.093" cy="101.975" r="0.925"/>
					<circle fill="#1387BA" cx="87.537" cy="104.419" r="0.925"/>
					<circle fill="#1387BA" cx="89.981" cy="101.975" r="0.925"/>
					<circle fill="#1387BA" cx="92.425" cy="104.419" r="0.925"/>
					<circle fill="#1387BA" cx="94.869" cy="101.975" r="0.925"/>
					<circle fill="#1387BA" cx="97.313" cy="104.419" r="0.925"/>
					<circle fill="#1387BA" cx="99.757" cy="101.975" r="0.925"/>
					<circle fill="#1387BA" cx="102.201" cy="104.419" r="0.925"/>
					<circle fill="#1387BA" cx="104.645" cy="101.975" r="0.925"/>
					<circle fill="#1387BA" cx="107.089" cy="104.419" r="0.925"/>
					<circle fill="#1387BA" cx="36.214" cy="106.863" r="0.925"/>
					<circle fill="#1387BA" cx="38.658" cy="109.307" r="0.925"/>
					<circle fill="#1387BA" cx="41.102" cy="106.863" r="0.925"/>
					<circle fill="#1387BA" cx="43.546" cy="109.307" r="0.925"/>
					<circle fill="#1387BA" cx="45.99" cy="106.863" r="0.925"/>
					<circle fill="#1387BA" cx="48.434" cy="109.307" r="0.925"/>
					<circle fill="#1387BA" cx="50.878" cy="106.863" r="0.925"/>
					<circle fill="#1387BA" cx="53.322" cy="109.307" r="0.925"/>
					<circle fill="#1387BA" cx="55.766" cy="106.863" r="0.925"/>
					<circle fill="#1387BA" cx="58.21" cy="109.307" r="0.925"/>
					<circle fill="#1387BA" cx="60.654" cy="106.863" r="0.925"/>
					<circle fill="#1387BA" cx="63.098" cy="109.307" r="0.925"/>
					<circle fill="#1387BA" cx="65.541" cy="106.863" r="0.925"/>
					<circle fill="#1387BA" cx="67.985" cy="109.307" r="0.925"/>
					<circle fill="#1387BA" cx="70.429" cy="106.863" r="0.925"/>
					<circle fill="#1387BA" cx="72.873" cy="109.307" r="0.925"/>
					<circle fill="#1387BA" cx="75.317" cy="106.863" r="0.925"/>
					<circle fill="#1387BA" cx="77.761" cy="109.307" r="0.925"/>
					<circle fill="#1387BA" cx="80.205" cy="106.863" r="0.925"/>
					<circle fill="#1387BA" cx="82.649" cy="109.307" r="0.925"/>
					<circle fill="#1387BA" cx="85.093" cy="106.863" r="0.925"/>
					<circle fill="#1387BA" cx="87.537" cy="109.307" r="0.925"/>
					<circle fill="#1387BA" cx="89.981" cy="106.863" r="0.925"/>
					<circle fill="#1387BA" cx="92.425" cy="109.307" r="0.925"/>
					<circle fill="#1387BA" cx="94.869" cy="106.863" r="0.925"/>
					<circle fill="#1387BA" cx="97.313" cy="109.307" r="0.925"/>
					<circle fill="#1387BA" cx="99.757" cy="106.863" r="0.925"/>
					<circle fill="#1387BA" cx="102.201" cy="109.307" r="0.925"/>
					<circle fill="#1387BA" cx="104.645" cy="106.863" r="0.925"/>
					<circle fill="#1387BA" cx="107.089" cy="109.307" r="0.925"/>
					<circle fill="#1387BA" cx="36.214" cy="111.751" r="0.925"/>
					<circle fill="#1387BA" cx="38.658" cy="114.195" r="0.925"/>
					<circle fill="#1387BA" cx="41.102" cy="111.751" r="0.925"/>
					<circle fill="#1387BA" cx="43.546" cy="114.195" r="0.925"/>
					<circle fill="#1387BA" cx="45.99" cy="111.751" r="0.925"/>
					<circle fill="#1387BA" cx="48.434" cy="114.195" r="0.925"/>
					<circle fill="#1387BA" cx="50.878" cy="111.751" r="0.925"/>
					<circle fill="#1387BA" cx="53.322" cy="114.195" r="0.925"/>
					<circle fill="#1387BA" cx="55.766" cy="111.751" r="0.925"/>
					<circle fill="#1387BA" cx="58.21" cy="114.195" r="0.925"/>
					<circle fill="#1387BA" cx="60.654" cy="111.751" r="0.925"/>
					<circle fill="#1387BA" cx="63.098" cy="114.195" r="0.925"/>
					<circle fill="#1387BA" cx="65.541" cy="111.751" r="0.925"/>
					<circle fill="#1387BA" cx="67.985" cy="114.195" r="0.925"/>
					<circle fill="#1387BA" cx="70.429" cy="111.751" r="0.925"/>
					<circle fill="#1387BA" cx="72.873" cy="114.195" r="0.925"/>
					<circle fill="#1387BA" cx="75.317" cy="111.751" r="0.925"/>
					<circle fill="#1387BA" cx="77.761" cy="114.195" r="0.925"/>
					<circle fill="#1387BA" cx="80.205" cy="111.751" r="0.925"/>
					<circle fill="#1387BA" cx="82.649" cy="114.195" r="0.925"/>
					<circle fill="#1387BA" cx="85.093" cy="111.751" r="0.925"/>
					<circle fill="#1387BA" cx="87.537" cy="114.195" r="0.925"/>
					<circle fill="#1387BA" cx="89.981" cy="111.751" r="0.925"/>
					<circle fill="#1387BA" cx="92.425" cy="114.195" r="0.925"/>
					<circle fill="#1387BA" cx="94.869" cy="111.751" r="0.925"/>
					<circle fill="#1387BA" cx="97.313" cy="114.195" r="0.925"/>
					<circle fill="#1387BA" cx="99.757" cy="111.751" r="0.925"/>
					<circle fill="#1387BA" cx="102.201" cy="114.195" r="0.925"/>
					<circle fill="#1387BA" cx="104.645" cy="111.751" r="0.925"/>
					<circle fill="#1387BA" cx="107.089" cy="114.195" r="0.925"/>
					<circle fill="#1387BA" cx="36.214" cy="116.639" r="0.925"/>
					<circle fill="#1387BA" cx="38.658" cy="119.083" r="0.925"/>
					<circle fill="#1387BA" cx="41.102" cy="116.639" r="0.925"/>
					<circle fill="#1387BA" cx="43.546" cy="119.083" r="0.925"/>
					<circle fill="#1387BA" cx="45.99" cy="116.639" r="0.925"/>
					<circle fill="#1387BA" cx="48.434" cy="119.083" r="0.925"/>
					<circle fill="#1387BA" cx="50.878" cy="116.639" r="0.925"/>
					<circle fill="#1387BA" cx="53.322" cy="119.083" r="0.925"/>
					<circle fill="#1387BA" cx="55.766" cy="116.639" r="0.925"/>
					<circle fill="#1387BA" cx="58.21" cy="119.083" r="0.925"/>
					<circle fill="#1387BA" cx="60.654" cy="116.639" r="0.925"/>
					<circle fill="#1387BA" cx="63.098" cy="119.083" r="0.925"/>
					<circle fill="#1387BA" cx="65.541" cy="116.639" r="0.925"/>
					<circle fill="#1387BA" cx="67.985" cy="119.083" r="0.925"/>
					<circle fill="#1387BA" cx="70.429" cy="116.639" r="0.925"/>
					<circle fill="#1387BA" cx="72.873" cy="119.083" r="0.925"/>
					<circle fill="#1387BA" cx="75.317" cy="116.639" r="0.925"/>
					<circle fill="#1387BA" cx="77.761" cy="119.083" r="0.925"/>
					<circle fill="#1387BA" cx="80.205" cy="116.639" r="0.925"/>
					<circle fill="#1387BA" cx="82.649" cy="119.083" r="0.925"/>
					<circle fill="#1387BA" cx="85.093" cy="116.639" r="0.925"/>
					<circle fill="#1387BA" cx="87.537" cy="119.083" r="0.925"/>
					<circle fill="#1387BA" cx="89.981" cy="116.639" r="0.925"/>
					<circle fill="#1387BA" cx="92.425" cy="119.083" r="0.925"/>
					<circle fill="#1387BA" cx="94.869" cy="116.639" r="0.925"/>
					<circle fill="#1387BA" cx="97.313" cy="119.083" r="0.925"/>
					<circle fill="#1387BA" cx="99.757" cy="116.639" r="0.925"/>
					<circle fill="#1387BA" cx="102.201" cy="119.083" r="0.925"/>
					<circle fill="#1387BA" cx="104.645" cy="116.639" r="0.925"/>
					<circle fill="#1387BA" cx="107.089" cy="119.083" r="0.925"/>
					<circle fill="#1387BA" cx="36.214" cy="121.527" r="0.925"/>
					<circle fill="#1387BA" cx="38.658" cy="123.971" r="0.925"/>
					<circle fill="#1387BA" cx="41.102" cy="121.527" r="0.925"/>
					<circle fill="#1387BA" cx="43.546" cy="123.971" r="0.925"/>
					<circle fill="#1387BA" cx="45.99" cy="121.527" r="0.925"/>
					<circle fill="#1387BA" cx="48.434" cy="123.971" r="0.925"/>
					<circle fill="#1387BA" cx="50.878" cy="121.527" r="0.925"/>
					<circle fill="#1387BA" cx="53.322" cy="123.971" r="0.925"/>
					<circle fill="#1387BA" cx="55.766" cy="121.527" r="0.925"/>
					<circle fill="#1387BA" cx="58.21" cy="123.971" r="0.925"/>
					<circle fill="#1387BA" cx="60.654" cy="121.527" r="0.925"/>
					<circle fill="#1387BA" cx="63.098" cy="123.971" r="0.925"/>
					<circle fill="#1387BA" cx="65.541" cy="121.527" r="0.925"/>
					<circle fill="#1387BA" cx="67.985" cy="123.971" r="0.925"/>
					<circle fill="#1387BA" cx="70.429" cy="121.527" r="0.925"/>
					<circle fill="#1387BA" cx="72.873" cy="123.971" r="0.925"/>
					<circle fill="#1387BA" cx="75.317" cy="121.527" r="0.925"/>
					<circle fill="#1387BA" cx="77.761" cy="123.971" r="0.925"/>
					<circle fill="#1387BA" cx="80.205" cy="121.527" r="0.925"/>
					<circle fill="#1387BA" cx="82.649" cy="123.971" r="0.925"/>
					<circle fill="#1387BA" cx="85.093" cy="121.527" r="0.925"/>
					<circle fill="#1387BA" cx="87.537" cy="123.971" r="0.925"/>
					<circle fill="#1387BA" cx="89.981" cy="121.527" r="0.925"/>
					<circle fill="#1387BA" cx="92.425" cy="123.971" r="0.925"/>
					<circle fill="#1387BA" cx="94.869" cy="121.527" r="0.925"/>
					<circle fill="#1387BA" cx="97.313" cy="123.971" r="0.925"/>
					<circle fill="#1387BA" cx="99.757" cy="121.527" r="0.925"/>
					<circle fill="#1387BA" cx="102.201" cy="123.971" r="0.925"/>
					<circle fill="#1387BA" cx="104.645" cy="121.527" r="0.925"/>
					<circle fill="#1387BA" cx="107.089" cy="123.971" r="0.925"/>
					<circle fill="#1387BA" cx="36.214" cy="126.415" r="0.925"/>
					<circle fill="#1387BA" cx="38.658" cy="128.859" r="0.925"/>
					<circle fill="#1387BA" cx="41.102" cy="126.415" r="0.925"/>
					<circle fill="#1387BA" cx="43.546" cy="128.859" r="0.925"/>
					<circle fill="#1387BA" cx="45.99" cy="126.415" r="0.925"/>
					<circle fill="#1387BA" cx="48.434" cy="128.859" r="0.925"/>
					<circle fill="#1387BA" cx="50.878" cy="126.415" r="0.925"/>
					<circle fill="#1387BA" cx="53.322" cy="128.859" r="0.925"/>
					<circle fill="#1387BA" cx="55.766" cy="126.415" r="0.925"/>
					<circle fill="#1387BA" cx="58.21" cy="128.859" r="0.925"/>
					<circle fill="#1387BA" cx="60.654" cy="126.415" r="0.925"/>
					<circle fill="#1387BA" cx="63.098" cy="128.859" r="0.925"/>
					<circle fill="#1387BA" cx="65.541" cy="126.415" r="0.925"/>
					<circle fill="#1387BA" cx="67.985" cy="128.859" r="0.925"/>
					<circle fill="#1387BA" cx="70.429" cy="126.415" r="0.925"/>
					<circle fill="#1387BA" cx="72.873" cy="128.859" r="0.925"/>
					<circle fill="#1387BA" cx="75.317" cy="126.415" r="0.925"/>
					<circle fill="#1387BA" cx="77.761" cy="128.859" r="0.925"/>
					<circle fill="#1387BA" cx="80.205" cy="126.415" r="0.925"/>
					<circle fill="#1387BA" cx="82.649" cy="128.859" r="0.925"/>
					<circle fill="#1387BA" cx="85.093" cy="126.415" r="0.925"/>
					<circle fill="#1387BA" cx="87.537" cy="128.859" r="0.925"/>
					<circle fill="#1387BA" cx="89.981" cy="126.415" r="0.925"/>
					<circle fill="#1387BA" cx="92.425" cy="128.859" r="0.925"/>
					<circle fill="#1387BA" cx="94.869" cy="126.415" r="0.925"/>
					<circle fill="#1387BA" cx="97.313" cy="128.859" r="0.925"/>
					<circle fill="#1387BA" cx="99.757" cy="126.415" r="0.925"/>
					<circle fill="#1387BA" cx="102.201" cy="128.859" r="0.925"/>
					<circle fill="#1387BA" cx="104.645" cy="126.415" r="0.925"/>
					<circle fill="#1387BA" cx="107.089" cy="128.859" r="0.925"/>
					<circle fill="#1387BA" cx="36.214" cy="131.303" r="0.925"/>
					<circle fill="#1387BA" cx="38.658" cy="133.747" r="0.925"/>
					<circle fill="#1387BA" cx="41.102" cy="131.303" r="0.925"/>
					<circle fill="#1387BA" cx="43.546" cy="133.747" r="0.925"/>
					<circle fill="#1387BA" cx="45.99" cy="131.303" r="0.925"/>
					<circle fill="#1387BA" cx="48.434" cy="133.747" r="0.925"/>
					<circle fill="#1387BA" cx="50.878" cy="131.303" r="0.925"/>
					<circle fill="#1387BA" cx="53.322" cy="133.747" r="0.925"/>
					<circle fill="#1387BA" cx="55.766" cy="131.303" r="0.925"/>
					<circle fill="#1387BA" cx="58.21" cy="133.747" r="0.925"/>
					<circle fill="#1387BA" cx="60.654" cy="131.303" r="0.925"/>
					<circle fill="#1387BA" cx="63.098" cy="133.747" r="0.925"/>
					<circle fill="#1387BA" cx="65.541" cy="131.303" r="0.925"/>
					<circle fill="#1387BA" cx="67.985" cy="133.747" r="0.925"/>
					<circle fill="#1387BA" cx="70.429" cy="131.303" r="0.925"/>
					<circle fill="#1387BA" cx="72.873" cy="133.747" r="0.925"/>
					<circle fill="#1387BA" cx="75.317" cy="131.303" r="0.925"/>
					<circle fill="#1387BA" cx="77.761" cy="133.747" r="0.925"/>
					<circle fill="#1387BA" cx="80.205" cy="131.303" r="0.925"/>
					<circle fill="#1387BA" cx="82.649" cy="133.747" r="0.925"/>
					<circle fill="#1387BA" cx="85.093" cy="131.303" r="0.925"/>
					<circle fill="#1387BA" cx="87.537" cy="133.747" r="0.925"/>
					<circle fill="#1387BA" cx="89.981" cy="131.303" r="0.925"/>
					<circle fill="#1387BA" cx="92.425" cy="133.747" r="0.925"/>
					<circle fill="#1387BA" cx="94.869" cy="131.303" r="0.925"/>
					<circle fill="#1387BA" cx="97.313" cy="133.747" r="0.925"/>
					<circle fill="#1387BA" cx="99.757" cy="131.303" r="0.925"/>
					<circle fill="#1387BA" cx="102.201" cy="133.747" r="0.925"/>
					<circle fill="#1387BA" cx="104.645" cy="131.303" r="0.925"/>
					<circle fill="#1387BA" cx="107.089" cy="133.747" r="0.925"/>
					<circle fill="#1387BA" cx="36.214" cy="136.191" r="0.925"/>
					<circle fill="#1387BA" cx="38.658" cy="138.635" r="0.925"/>
					<circle fill="#1387BA" cx="41.102" cy="136.191" r="0.925"/>
					<circle fill="#1387BA" cx="43.546" cy="138.635" r="0.925"/>
					<circle fill="#1387BA" cx="45.99" cy="136.191" r="0.925"/>
					<circle fill="#1387BA" cx="48.434" cy="138.635" r="0.925"/>
					<circle fill="#1387BA" cx="50.878" cy="136.191" r="0.925"/>
					<circle fill="#1387BA" cx="53.322" cy="138.635" r="0.925"/>
					<circle fill="#1387BA" cx="55.766" cy="136.191" r="0.925"/>
					<circle fill="#1387BA" cx="58.21" cy="138.635" r="0.925"/>
					<circle fill="#1387BA" cx="60.654" cy="136.191" r="0.925"/>
					<circle fill="#1387BA" cx="63.098" cy="138.635" r="0.925"/>
					<circle fill="#1387BA" cx="65.541" cy="136.191" r="0.925"/>
					<circle fill="#1387BA" cx="67.985" cy="138.635" r="0.925"/>
					<circle fill="#1387BA" cx="70.429" cy="136.191" r="0.925"/>
					<circle fill="#1387BA" cx="72.873" cy="138.635" r="0.925"/>
					<circle fill="#1387BA" cx="75.317" cy="136.191" r="0.925"/>
					<circle fill="#1387BA" cx="77.761" cy="138.635" r="0.925"/>
					<circle fill="#1387BA" cx="80.205" cy="136.191" r="0.925"/>
					<circle fill="#1387BA" cx="82.649" cy="138.635" r="0.925"/>
					<circle fill="#1387BA" cx="85.093" cy="136.191" r="0.925"/>
					<circle fill="#1387BA" cx="87.537" cy="138.635" r="0.925"/>
					<circle fill="#1387BA" cx="89.981" cy="136.191" r="0.925"/>
					<circle fill="#1387BA" cx="92.425" cy="138.635" r="0.925"/>
					<circle fill="#1387BA" cx="94.869" cy="136.191" r="0.925"/>
					<circle fill="#1387BA" cx="97.313" cy="138.635" r="0.925"/>
					<circle fill="#1387BA" cx="99.757" cy="136.191" r="0.925"/>
					<circle fill="#1387BA" cx="102.201" cy="138.635" r="0.925"/>
					<circle fill="#1387BA" cx="104.645" cy="136.191" r="0.925"/>
					<circle fill="#1387BA" cx="107.089" cy="138.635" r="0.925"/>
					<circle fill="#1387BA" cx="36.214" cy="141.079" r="0.925"/>
					<circle fill="#1387BA" cx="38.658" cy="143.523" r="0.925"/>
					<circle fill="#1387BA" cx="41.102" cy="141.079" r="0.925"/>
					<circle fill="#1387BA" cx="43.546" cy="143.523" r="0.925"/>
					<circle fill="#1387BA" cx="45.99" cy="141.079" r="0.925"/>
					<circle fill="#1387BA" cx="48.434" cy="143.523" r="0.925"/>
					<circle fill="#1387BA" cx="50.878" cy="141.079" r="0.925"/>
					<circle fill="#1387BA" cx="53.322" cy="143.523" r="0.925"/>
					<circle fill="#1387BA" cx="55.766" cy="141.079" r="0.925"/>
					<circle fill="#1387BA" cx="58.21" cy="143.523" r="0.925"/>
					<circle fill="#1387BA" cx="60.654" cy="141.079" r="0.925"/>
					<circle fill="#1387BA" cx="63.098" cy="143.523" r="0.925"/>
					<circle fill="#1387BA" cx="65.541" cy="141.079" r="0.925"/>
					<circle fill="#1387BA" cx="67.985" cy="143.523" r="0.925"/>
					<circle fill="#1387BA" cx="70.429" cy="141.079" r="0.925"/>
					<circle fill="#1387BA" cx="72.873" cy="143.523" r="0.925"/>
					<circle fill="#1387BA" cx="75.317" cy="141.079" r="0.925"/>
					<circle fill="#1387BA" cx="77.761" cy="143.523" r="0.925"/>
					<circle fill="#1387BA" cx="80.205" cy="141.079" r="0.925"/>
					<circle fill="#1387BA" cx="82.649" cy="143.523" r="0.925"/>
					<circle fill="#1387BA" cx="85.093" cy="141.079" r="0.925"/>
					<circle fill="#1387BA" cx="87.537" cy="143.523" r="0.925"/>
					<circle fill="#1387BA" cx="89.981" cy="141.079" r="0.925"/>
					<circle fill="#1387BA" cx="92.425" cy="143.523" r="0.925"/>
					<circle fill="#1387BA" cx="94.869" cy="141.079" r="0.925"/>
					<circle fill="#1387BA" cx="97.313" cy="143.523" r="0.925"/>
					<circle fill="#1387BA" cx="99.757" cy="141.079" r="0.925"/>
					<circle fill="#1387BA" cx="102.201" cy="143.523" r="0.925"/>
					<circle fill="#1387BA" cx="104.645" cy="141.079" r="0.925"/>
					<circle fill="#1387BA" cx="107.089" cy="143.523" r="0.925"/>
				</g>
			</g>
		</g>
		<g clip-path="url(#SVGID_2_)">
			<path fill="none" stroke="#231F20" stroke-linecap="round" stroke-linejoin="round" d="M140.423,29.203"/>
		</g>
		<path clip-path="url(#SVGID_2_)" fill="none" stroke="#231F20" stroke-linecap="round" stroke-linejoin="round" d="M90.441,24.316
			"/>
	</g>
	<g>
		<path fill="none" stroke="#231F20" stroke-width="0.5" d="M42.859,96.049c0,0,1.527,0.561,3.245-0.743
			c1.718-1.304,9.127-6.594,16.365-8.463c7.238-1.87,11.716-2.235,15.835-1.217c0,0-9.049-0.231-16.157,2.36
			c-7.107,2.591-19.699,13.833-14.456,30.744c0,0,6.027,15.777,22.907,13.885c0,0,1.121-0.849,2.689-0.877
			c1.568-0.028,16.224-2.966,20.382-17.638c4.157-14.672-4.837-23.549-10.073-27.156c-5.236-3.607-22.813-5.006-37.596,7.3
			c0,0-1.811,1.598-3.987,1.123"/>
		<path fill="none" stroke="#231F20" stroke-width="0.5" d="M50.854,124.073c0,0-4.796-10.27-2.867-16.776
			c1.929-6.506,5.388-15.341,17.979-19.423c0,0,11.427-4.109,22.21,3.079"/>
		<path fill="none" stroke="#231F20" stroke-width="0.5" d="M70.6,132.615c0,0-2.468,1.507-2.299,4.738
			c0.169,3.231,3.62,4.676,5.69,4.396c2.07-0.28,3.773-2.413,5.976-3.103c2.203-0.689,15.82-5.507,21.511-21.607
			c5.69-16.1-3.201-28.073-4.805-30.701"/>
		
			<ellipse transform="matrix(0.8534 -0.5212 0.5212 0.8534 -60.6028 58.0795)" fill="none" stroke="#231F20" stroke-width="0.5" cx="72.971" cy="136.799" rx="2.868" ry="2.729"/>
		
			<ellipse transform="matrix(0.8534 -0.5212 0.5212 0.8534 -38.8207 35.1587)" fill="none" stroke="#231F20" stroke-width="0.5" cx="43.106" cy="86.607" rx="1.539" ry="1.493"/>
		
			<ellipse transform="matrix(0.8535 -0.5212 0.5212 0.8535 -31.5434 38.1575)" fill="none" stroke="#231F20" stroke-width="0.5" cx="52.08" cy="75.17" rx="1.539" ry="1.493"/>
		
			<ellipse transform="matrix(0.8534 -0.5212 0.5212 0.8534 -27.6813 44.0568)" fill="none" stroke="#231F20" stroke-width="0.5" cx="64.497" cy="71.249" rx="1.539" ry="1.493"/>
		
			<ellipse transform="matrix(0.8535 -0.5212 0.5212 0.8535 -29.4044 48.6557)" fill="none" stroke="#231F20" stroke-width="0.5" cx="71.819" cy="76.616" rx="1.073" ry="0.98"/>
		
			<ellipse transform="matrix(0.8535 -0.5211 0.5211 0.8535 -28.1752 51.45)" fill="none" stroke="#231F20" stroke-width="0.5" cx="77.405" cy="75.828" rx="1.586" ry="1.539"/>
		<path fill="none" stroke="#231F20" stroke-width="0.5" d="M48.487,82.173c-0.43-0.704-1.366-0.915-2.092-0.472
			c-0.725,0.443-0.965,1.373-0.536,2.076c0.159,0.261,0.388,0.453,0.65,0.571c0.244,0.192,0.511,0.456,0.555,0.716
			c0.059,0.346,0.219,0.843,0.31,1.112c0.008,0.066,0.03,0.13,0.066,0.189c0.148,0.242,0.481,0.307,0.745,0.146
			c0.192-0.117,0.293-0.322,0.278-0.517l0.006-0.002l-0.224-1.321c0,0,0.014-0.479,0.17-0.853
			C48.756,83.339,48.805,82.694,48.487,82.173z"/>
		<path fill="none" stroke="#231F20" stroke-width="0.5" d="M58.036,72.899c0,0-2.058,0.747-1.945,1.588l0.25,1.305
			c0,0,0.212,0.526,0.84,0.361l3.171-0.953c0,0,0.845-0.407,0.745-0.928l-0.346-1.283C60.751,72.99,60.681,72.159,58.036,72.899z"/>
		<path fill="none" stroke="#231F20" stroke-width="0.5" d="M55.465,62.992c0,0,2.13-1.793,4.281,0.119c0,0,1.662-3.365,1.826-4.886
			c0,0-2.751,1.133-4.378-1.262L56.5,58.152c0,0,0.232,1.006-0.573,1.389C55.926,59.54,54.922,62.012,55.465,62.992z"/>
		<path fill="none" stroke="#231F20" stroke-width="0.5" d="M55.465,62.992c0,0,3.396,2.517-0.486,5.38"/>
		<path fill="none" stroke="#231F20" stroke-width="0.5" d="M56.279,63.697c0,0,2.143-1.145,3.847-0.054"/>
		<path fill="none" stroke="#231F20" stroke-width="0.5" d="M61.012,66.47c0,0-0.441-2.278-1.266-3.36"/>
		<path fill="none" stroke="#231F20" stroke-width="0.5" d="M57.194,56.962l0.613-1.413c0,0,0.884-1.506,2.65,0.313"/>
		<path fill="none" stroke="#231F20" stroke-width="0.5" d="M58.595,54.96c0,0,1.032,2.048,2.563,0.348
			c1.531-1.7,5.92-7.222,5.92-7.222"/>
		<path fill="none" stroke="#231F20" stroke-width="0.5" d="M75.798,61.561c0,0,2.206,0.839,4.36,1.054
			c2.154,0.215,5.399,0.966,5.399,0.966s1.928,0.025,3.453,1.717c0,0,7.596,6.57,12.657,7.743
			c5.061,1.172,15.789,2.901,26.179-3.444s14.598-14.489,16.767-25.568c0,0-0.469-4.796,0.002-5.904
			c0.471-1.107,0.741-3.485,0.661-4.421"/>
		<path fill="none" stroke="#231F20" stroke-linecap="round" stroke-linejoin="round" d="M140.423,29.203"/>
		<path fill="none" stroke="#231F20" stroke-linecap="round" stroke-linejoin="round" d="M90.441,24.316
			c0,0-0.106,1.533-0.595,3.417c-0.489,1.884-1.577,7.084-1.358,13.618c0.219,6.534,3.263,14.294,8.635,18.884
			c5.372,4.59,21.116,9.787,33.978-4.681c0,0,7.129-8.015,4.152-19.424c0,0-1.668-3.627,2.313-6.058
			c3.981-2.431,6.679,1.179,7.503,3.021c0.722,1.854,0.297,4.245,0.005,5.244c-0.292,0.998-0.243,4.166-0.243,4.166
			c1.702,8.962-5.586,22.266-14.722,27.844c-9.136,5.579-18.19,6.189-25.665,4.688c-7.475-1.502-14.146-7.593-15.32-8.844
			c-1.174-1.251-3.611-1.484-3.611-1.484s-5.068-0.512-6.424-0.586c-1.356-0.073-2.096-1.015-2.096-1.015l-1.83-2.326
			c-1.127-1.443-1.21-2.786-1.21-2.786l-0.724-8.166l-4.889,0.854c-0.309,0.434-4.443,5.746-4.443,5.746
			c2.963,4.584-2.886,10.042-2.886,10.042l0.927,3.532c0,0,7.291-2.157,9.828-2.968c2.537-0.812,4.659,1.992,4.659,1.992
			s1.959,3.476,3.427,5.613c1.469,2.136,6.184,3.684,6.184,3.684c17.601,9.09,21.645,26.049,17.04,40.256
			c-4.605,14.207-17.259,19.393-20.656,20.811c-3.397,1.418-3.155,1.68-6.25,3.324c-3.095,1.644-5.926-1.382-5.926-1.382
			c-9.024-0.146-19.965-2.892-27.731-15.611c-7.766-12.718,0.344-29.673,0.344-29.673l-1.127-0.951
			c-1.457-1.133-1.253-2.678-1.253-2.678l0.708-12.893c0.034-2.808,3.535-4.235,3.535-4.235l10.798-3.26l-1.075-5.977
			c-2.815-2.462-1.826-4.869-1.826-4.869l1.185-3.429c0,0,0.743-1.602,1.192-2.613c0.448-1.011,1.914-2.235,1.914-2.235
			c-0.003-0.408,1.818-2.258,1.818-2.258l-0.209-0.61l3.125-3.876c1.51-1.824,3.901-1.398,3.901-1.398l7.105-1.387l-0.962-10.972
			c-0.241-3.214,3.262-4.861,3.262-4.861s9.842-4.288,12.067-5.074C89.244,21.686,90.441,24.316,90.441,24.316
			c10.786-12.407,24.593-11.411,24.593-11.411c20.45,0.465,26.829,16.817,26.829,16.817"/>
		<path fill="none" stroke="#231F20" stroke-linecap="round" stroke-linejoin="round" d="M93.29,56.017c0,0-4.505-9.436-2.762-17.77
			c1.743-8.333,9.445-16.753,20.225-18.253c10.78-1.5,20.773,3.766,24.031,14.292"/>
		<path fill="none" stroke="#231F20" stroke-linecap="round" stroke-linejoin="round" d="M92.508,54.199
			c0,0-3.821-11.986,0.714-20.221c4.536-8.235,14.322-14.047,23.242-13.045c8.919,1.002,13.55,5.99,16.658,9.558"/>
		
			<ellipse transform="matrix(0.8535 -0.5212 0.5212 0.8535 2.8015 77.8801)" fill="none" stroke="#231F20" stroke-linecap="round" stroke-linejoin="round" cx="139.884" cy="33.959" rx="2.426" ry="2.332"/>
		
			<ellipse transform="matrix(0.8534 -0.5212 0.5212 0.8534 -15.2992 46.7039)" fill="none" stroke="#231F20" stroke-linecap="round" stroke-linejoin="round" cx="75.394" cy="50.555" rx="1.539" ry="1.469"/>
		
			<ellipse transform="matrix(0.8535 -0.5212 0.5212 0.8535 -9.1113 44.4369)" fill="none" stroke="#231F20" stroke-linecap="round" stroke-linejoin="round" cx="74.46" cy="38.42" rx="1.539" ry="1.469"/>
		
			<line fill="none" stroke="#231F20" stroke-linecap="round" stroke-linejoin="round" x1="72.651" y1="43.377" x2="73.229" y2="49.828"/>
		<path fill="none" stroke="#231F20" stroke-linecap="round" stroke-linejoin="round" d="M76.094,42.088l-1.044,0.2
			c0,0-0.697,0.171-0.712,0.981c-0.015,0.811,0.247,2.91,0.247,2.91s0.134,0.756,0.923,0.675c0.789-0.081,1.437-0.331,1.437-0.331
			s0.855-0.449,0.774-1.238c-0.081-0.789-0.356-2.552-0.356-2.552S77.297,41.79,76.094,42.088z"/>
		
			<ellipse transform="matrix(0.8535 -0.5212 0.5212 0.8535 -16.3891 51.4395)" fill="none" stroke="#231F20" stroke-linecap="round" stroke-linejoin="round" cx="83.276" cy="54.863" rx="1.026" ry="0.871"/>
		
			<ellipse transform="matrix(0.8535 -0.5212 0.5212 0.8535 -18.7975 52.9935)" fill="none" stroke="#231F20" stroke-linecap="round" stroke-linejoin="round" cx="84.835" cy="59.923" rx="1.586" ry="1.524"/>
		<path fill="none" stroke="#231F20" stroke-width="0.5" d="M65.041,50.659c0,0-1.719-0.845-1.876-1.879l-1.311,1.493
			c0,0,0.831,0.585,0.429,0.941c-0.403,0.355-0.829,0.433-0.829,0.433l-1.147,1.284"/>
		<path fill="none" stroke="#231F20" stroke-width="0.5" d="M56.91,52.907c0,0,1.778-0.956,3.738,0.106c0,0,1.12,0.701,1.465,1.146"
			/>
		<path fill="none" stroke="#231F20" stroke-width="0.5" d="M58.729,50.649c0,0,0.711-0.214,1.199,0.108
			c0.488,0.322,1.061,0.664,1.527,0.889"/>
		<path fill="none" stroke="#231F20" stroke-width="0.5" d="M63.165,48.78c0,0-0.769-2.81,2.289-3.948"/>
		<path fill="none" stroke="#231F20" stroke-width="0.5" d="M65.219,50.295c0,0-1.192-1.057-0.104-1.722
			c1.088-0.665,2.882-1.068,3.838,0.498c0.956,1.566,0.203,1.406,0.203,1.406"/>
		<path fill="none" stroke="#231F20" stroke-linecap="round" stroke-linejoin="round" d="M68.34,50.682c0,0,0.811-0.93,0.614-1.611"
			/>
		<path fill="none" stroke="#231F20" stroke-linecap="round" stroke-linejoin="round" d="M61.572,58.224
			c0,0,0.592,0.144,2.325-1.796"/>
		<path fill="none" stroke="#231F20" stroke-width="0.5" d="M74.811,60.339c0,0,2.122,1.327,4.619,1.524
			c2.497,0.197,5.296,0.619,5.296,0.619s1.993,0.177,3.263,1.451c1.27,1.274,10.033,9.449,20.172,9.406
			c10.139-0.043,25.071-2.439,33.322-19.938c0,0,2.898-8.41,2.607-11.839c-0.291-3.429-0.184-3.658,0.002-4.428
			c0.186-0.769,1.062-3.764,0.429-4.935"/>
		<path fill="none" stroke="#231F20" stroke-width="0.5" d="M82.815,30.671l-0.765,0.182c0,0-0.499,0.05-0.778-0.139
			c-0.452-0.577-1.34-0.699-2.061-0.259c-0.77,0.47-1.056,1.403-0.64,2.085c0.416,0.681,1.377,0.853,2.147,0.383
			c0.198-0.121,0.363-0.272,0.494-0.442l0.003,0.002c0,0,0.396-0.515,0.728-0.554c0.257-0.03,0.806-0.173,1.04-0.235
			c0.088-0.013,0.177-0.044,0.261-0.095c0.286-0.175,0.398-0.512,0.25-0.754C83.364,30.634,83.077,30.566,82.815,30.671z"/>
		
			<ellipse transform="matrix(0.8535 -0.5212 0.5212 0.8535 -4.8335 46.3027)" fill="none" stroke="#231F20" stroke-width="0.5" cx="79.917" cy="31.746" rx="0.63" ry="0.583"/>
		<circle fill="none" stroke="#231F20" stroke-width="0.5" cx="47.167" cy="83.144" r="0.746"/>
	</g>
	<path fill="#FFFFFF" stroke="#231F20" stroke-width="0.5" d="M88.332,91.034c4.402,4.739,8.372,12.359,5.338,23.066
		c-4.158,14.672-18.814,17.61-20.382,17.638c-1.568,0.028-2.689,0.877-2.689,0.877c-10.567,1.184-16.881-4.555-20.125-9.014
		l0.38,0.471c0,0-4.796-10.27-2.867-16.776c1.929-6.506,5.388-15.341,17.979-19.423c0,0,11.427-4.109,22.21,3.079L88.332,91.034z"/>
	<path fill="#FFFFFF" stroke="#231F20" stroke-width="0.5" d="M134.949,33.699c-0.186,1.365,0.305,2.432,0.305,2.432
		c2.977,11.408-4.152,19.424-4.152,19.424c-12.863,14.468-28.607,9.271-33.978,4.681c-1.477-1.262-2.777-2.763-3.892-4.413
		l-0.723-1.623c0,0-3.821-11.986,0.714-20.221c4.536-8.235,14.322-14.047,23.242-13.045c8.919,1.002,13.55,5.99,16.658,9.558
		l0.064-0.037c0.637,1.186,1.174,2.465,1.597,3.832"/>
	<path fill="#FFFFFF" stroke="#231F20" stroke-width="0.5" d="M134.949,33.699c-0.186,1.365,0.305,2.432,0.305,2.432
		c2.977,11.408-4.152,19.424-4.152,19.424c-12.863,14.468-28.607,9.271-33.978,4.681c-1.477-1.262-2.777-2.763-3.892-4.413
		l-0.723-1.623c0,0-3.821-11.986,0.714-20.221c4.536-8.235,14.322-14.047,23.242-13.045c8.919,1.002,13.55,5.99,16.658,9.558
		l0.064-0.037c0.637,1.186,1.174,2.465,1.597,3.832"/>
	<path fill="none" stroke="#231F20" d="M142.223,29.812c1.426,0.801,2.405,2.295,2.846,3.282c0.722,1.854,0.297,4.245,0.005,5.244
		c-0.292,0.998-0.243,4.166-0.243,4.166c1.702,8.962-5.586,22.266-14.722,27.844c-9.136,5.579-18.19,6.189-25.665,4.688
		c-7.475-1.502-14.146-7.593-15.32-8.844c-1.174-1.251-3.611-1.484-3.611-1.484s-5.068-0.512-6.424-0.586
		c-1.356-0.073-2.096-1.015-2.096-1.015l-1.83-2.326c-1.127-1.443-1.21-2.786-1.21-2.786l-0.724-8.166l-4.889,0.854
		c-0.309,0.434-4.443,5.746-4.443,5.746c2.963,4.584-2.886,10.042-2.886,10.042l0.927,3.532c0,0,7.291-2.157,9.828-2.968
		c2.537-0.812,4.659,1.992,4.659,1.992s1.959,3.476,3.427,5.613c1.469,2.136,6.184,3.684,6.184,3.684
		c17.601,9.09,21.645,26.049,17.04,40.256c-4.605,14.207-17.259,19.393-20.656,20.811c-3.397,1.418-3.155,1.68-6.25,3.324
		c-3.095,1.644-5.926-1.382-5.926-1.382c-9.024-0.146-19.965-2.892-27.731-15.611c-7.766-12.718,0.344-29.673,0.344-29.673
		l-1.127-0.951c-1.457-1.133-1.253-2.678-1.253-2.678l0.708-12.893c0.034-2.808,3.535-4.235,3.535-4.235l10.798-3.26l-1.075-5.977
		c-2.815-2.462-1.826-4.869-1.826-4.869l1.185-3.429c0,0,0.743-1.602,1.192-2.613c0.448-1.011,1.914-2.235,1.914-2.235
		c-0.003-0.408,1.818-2.258,1.818-2.258l-0.209-0.61l3.125-3.876c1.51-1.824,3.901-1.398,3.901-1.398l7.105-1.387l-0.962-10.972
		c-0.241-3.214,3.262-4.861,3.262-4.861s9.842-4.288,12.067-5.074c2.226-0.785,3.422,1.845,3.422,1.845
		c10.786-12.407,24.593-11.411,24.593-11.411c20.45,0.465,26.829,16.817,26.829,16.817"/>
	<path fill="none" stroke="#231F20" stroke-width="2" d="M91.651,37.128c14.342,2.819,26.85,10.749,35.551,21.813"/>
</g>
</svg>
