<?xml version="1.0" encoding="UTF-8" standalone="no"?>
<svg
   xmlns:dc="http://purl.org/dc/elements/1.1/"
   xmlns:cc="http://creativecommons.org/ns#"
   xmlns:rdf="http://www.w3.org/1999/02/22-rdf-syntax-ns#"
   xmlns:svg="http://www.w3.org/2000/svg"
   xmlns="http://www.w3.org/2000/svg"
   version="1.1"
   id="svg10845"
   height="195.60275"
   width="200.0005">
  <defs
     id="defs4809">
    <pattern
       id="polka"
       patternTransform="rotate(20)"
       height="5"
       width="5"
       patternUnits="userSpaceOnUse">
      <rect
         y="0"
         x="0"
         height="5"
         width="5"
         style="fill:#ffffff"
         id="polka__bg" />
      <circle
         cx="2"
         style="fill:#ff0000"
         cy="2"
         r="1.5"
         id="polka__inner" />
    </pattern>
  </defs>
  <metadata
     id="metadata10850">
    <rdf:RDF>
      <cc:Work
         rdf:about="">
        <dc:format>image/svg+xml</dc:format>
        <dc:type
           rdf:resource="http://purl.org/dc/dcmitype/StillImage" />
        <dc:title></dc:title>
      </cc:Work>
    </rdf:RDF>
  </metadata>
  <g
     style="display:inline"
     transform="translate(-282.08096,-278.41122)"
     id="layer1">
    <ellipse
       style="color:#000000;display:inline;overflow:visible;visibility:visible;opacity:1;fill:none;fill-opacity:1;fill-rule:nonzero;stroke:#000000;stroke-width:2;stroke-miterlimit:4;stroke-dasharray:none;stroke-opacity:1;marker:none;enable-background:accumulate"
       id="path6022"
       cx="382.06821"
       cy="398.07648"
       rx="74.9505"
       ry="74.950493" />
    <path
       d="m 382.13172,347.12736 5.375,4.14624 -1.97625,-6.51 5.69624,-4.195 -7.07374,0 -2.02125,-6.65375 -0.0462,0 -2.02001,6.65375 -7.07374,0 5.695,4.195 -1.97501,6.51 5.37376,-4.14624 0.0462,0 z"
       style="fill:#ffffff;fill-opacity:1;fill-rule:nonzero;stroke:none"
       id="path974" />
    <path
       d="m 382.13172,347.12736 5.375,4.14624 -1.97625,-6.51 5.69624,-4.195 -7.07374,0 -2.02125,-6.65375 -0.0462,0 -2.02001,6.65375 -7.07374,0 5.695,4.195 -1.97501,6.51 5.37376,-4.14624 0.0462,0 z"
       style="fill:url(#polka);stroke:#2f2d2e;stroke-width:0.625;stroke-linecap:butt;stroke-linejoin:miter;stroke-miterlimit:4;stroke-dasharray:none;stroke-opacity:1;fill-opacity:1.0"
       id="path978" />
    <path
       d="m 408.56972,355.84623 5.37375,4.14625 -1.975,-6.51 5.695,-4.195 -7.0725,0 -2.02125,-6.65375 -0.0463,0 -2.02125,6.65375 -7.07251,0 5.69375,4.195 -1.97375,6.51 5.37376,-4.14625 0.0463,0 z"
       style="fill:#ffffff;fill-opacity:1;fill-rule:nonzero;stroke:none"
       id="path982" />
    <path
       d="m 408.56972,355.84623 5.37375,4.14625 -1.975,-6.51 5.695,-4.195 -7.0725,0 -2.02125,-6.65375 -0.0463,0 -2.02125,6.65375 -7.07251,0 5.69375,4.195 -1.97375,6.51 5.37376,-4.14625 0.0463,0 z"
       style="fill:url(#polka);stroke:#2f2d2e;stroke-width:0.625;stroke-linecap:butt;stroke-linejoin:miter;stroke-miterlimit:4;stroke-dasharray:none;stroke-opacity:1;fill-opacity:1.0"
       id="path986" />
    <path
       d="m 355.69371,355.84623 5.375,4.14625 -1.97499,-6.51 5.69624,-4.195 -7.075,0 -2.02125,-6.65375 -0.0462,0 -2.01875,6.65375 -7.075,0 5.695,4.195 -1.97499,6.51 5.37374,-4.14625 0.0462,0 z"
       style="fill:#ffffff;fill-opacity:1;fill-rule:nonzero;stroke:none"
       id="path990" />
    <path
       d="m 355.69371,355.84623 5.375,4.14625 -1.97499,-6.51 5.69624,-4.195 -7.075,0 -2.02125,-6.65375 -0.0462,0 -2.01875,6.65375 -7.075,0 5.695,4.195 -1.97499,6.51 5.37374,-4.14625 0.0462,0 z"
       style="fill:url(#polka);stroke:#2f2d2e;stroke-width:0.625;stroke-linecap:butt;stroke-linejoin:miter;stroke-miterlimit:4;stroke-dasharray:none;stroke-opacity:1;fill-opacity:1.0"
       id="path994" />
    <path
       d="m 337.97522,375.53373 5.375,4.14625 -1.97501,-6.51 5.695,-4.195 -7.07375,0 -2.02125,-6.65375 -0.045,0 -2.02126,6.65375 -7.07375,0 5.695,4.195 -1.97375,6.51 5.37376,-4.14625 0.045,0 z"
       style="fill:#ffffff;fill-opacity:1;fill-rule:nonzero;stroke:none"
       id="path998" />
    <path
       d="m 337.97522,375.53373 5.375,4.14625 -1.97501,-6.51 5.695,-4.195 -7.07375,0 -2.02125,-6.65375 -0.045,0 -2.02126,6.65375 -7.07375,0 5.695,4.195 -1.97375,6.51 5.37376,-4.14625 0.045,0 z"
       style="fill:url(#polka);stroke:#2f2d2e;stroke-width:0.625;stroke-linecap:butt;stroke-linejoin:miter;stroke-miterlimit:4;stroke-dasharray:none;stroke-opacity:1;fill-opacity:1.0"
       id="path1002" />
    <path
       d="m 426.28822,375.53373 5.375,4.14625 -1.97501,-6.51 5.69501,-4.195 -7.07375,0 -2.02125,-6.65375 -0.0463,0 -2.02,6.65375 -7.07375,0 5.69375,4.195 -1.97375,6.51 5.37375,-4.14625 0.0463,0 z"
       style="fill:#ffffff;fill-opacity:1;fill-rule:nonzero;stroke:none"
       id="path1006" />
    <path
       d="m 426.28822,375.53373 5.375,4.14625 -1.97501,-6.51 5.69501,-4.195 -7.07375,0 -2.02125,-6.65375 -0.0463,0 -2.02,6.65375 -7.07375,0 5.69375,4.195 -1.97375,6.51 5.37375,-4.14625 0.0463,0 z"
       style="fill:url(#polka);stroke:#2f2d2e;stroke-width:0.625;stroke-linecap:butt;stroke-linejoin:miter;stroke-miterlimit:4;stroke-dasharray:none;stroke-opacity:1;fill-opacity:1.0"
       id="path1010" />
    <path
       d="m 433.31947,402.53386 5.375,4.14625 -1.97501,-6.51001 5.69501,-4.195 -7.07375,0 -2.02125,-6.65375 -0.0463,0 -2.02,6.65375 -7.07375,0 5.69375,4.195 -1.97375,6.51 5.37375,-4.14624 0.0463,0 z"
       style="fill:#ffffff;fill-opacity:1;fill-rule:nonzero;stroke:none"
       id="path1014" />
    <path
       d="m 433.31947,402.53386 5.375,4.14625 -1.97501,-6.51001 5.69501,-4.195 -7.07375,0 -2.02125,-6.65375 -0.0463,0 -2.02,6.65375 -7.07375,0 5.69375,4.195 -1.97375,6.51 5.37375,-4.14624 0.0463,0 z"
       style="fill:url(#polka);stroke:#2f2d2e;stroke-width:0.625;stroke-linecap:butt;stroke-linejoin:miter;stroke-miterlimit:4;stroke-dasharray:none;stroke-opacity:1;fill-opacity:1.0"
       id="path1018" />
    <path
       d="m 330.66322,402.53386 5.375,4.14625 -1.97501,-6.51001 5.695,-4.195 -7.07374,0 -2.02125,-6.65375 -0.0462,0 -2.02001,6.65375 -7.07374,0 5.69374,4.195 -1.97375,6.51 5.37376,-4.14624 0.0462,0 z"
       style="fill:#ffffff;fill-opacity:1;fill-rule:nonzero;stroke:none"
       id="path1022" />
    <path
       d="m 330.66322,402.53386 5.375,4.14625 -1.97501,-6.51001 5.695,-4.195 -7.07374,0 -2.02125,-6.65375 -0.0462,0 -2.02001,6.65375 -7.07374,0 5.69374,4.195 -1.97375,6.51 5.37376,-4.14624 0.0462,0 z"
       style="fill:url(#polka);stroke:#2f2d2e;stroke-width:0.625;stroke-linecap:butt;stroke-linejoin:miter;stroke-miterlimit:4;stroke-dasharray:none;stroke-opacity:1;fill-opacity:1.0"
       id="path1026" />
    <path
       d="m 337.97522,430.0961 5.375,4.14625 -1.97501,-6.51 5.695,-4.195 -7.07375,0 -2.02125,-6.65375 -0.045,0 -2.02126,6.65375 -7.07375,0 5.695,4.195 -1.97375,6.51 5.37376,-4.14625 0.045,0 z"
       style="fill:#ffffff;fill-opacity:1;fill-rule:nonzero;stroke:none"
       id="path1030" />
    <path
       d="m 337.97522,430.0961 5.375,4.14625 -1.97501,-6.51 5.695,-4.195 -7.07375,0 -2.02125,-6.65375 -0.045,0 -2.02126,6.65375 -7.07375,0 5.695,4.195 -1.97375,6.51 5.37376,-4.14625 0.045,0 z"
       style="fill:url(#polka);stroke:#2f2d2e;stroke-width:0.625;stroke-linecap:butt;stroke-linejoin:miter;stroke-miterlimit:4;stroke-dasharray:none;stroke-opacity:1;fill-opacity:1.0"
       id="path1034" />
    <path
       d="m 426.00621,430.0961 5.375,4.14625 -1.975,-6.51 5.69625,-4.195 -7.075,0 -2.02125,-6.65375 -0.0463,0 -2.01875,6.65375 -7.075,0 5.69501,4.195 -1.97501,6.51 5.37375,-4.14625 0.0463,0 z"
       style="fill:#ffffff;fill-opacity:1;fill-rule:nonzero;stroke:none"
       id="path1038" />
    <path
       d="m 426.00621,430.0961 5.375,4.14625 -1.975,-6.51 5.69625,-4.195 -7.075,0 -2.02125,-6.65375 -0.0463,0 -2.01875,6.65375 -7.075,0 5.69501,4.195 -1.97501,6.51 5.37375,-4.14625 0.0463,0 z"
       style="fill:url(#polka);stroke:#2f2d2e;stroke-width:0.625;stroke-linecap:butt;stroke-linejoin:miter;stroke-miterlimit:4;stroke-dasharray:none;stroke-opacity:1;fill-opacity:1.0"
       id="path1042" />
    <path
       d="m 407.16347,448.65873 5.37375,4.14625 -1.975,-6.51 5.695,-4.195 -7.0725,0 -2.02125,-6.65375 -0.0463,0 -2.02126,6.65375 -7.0725,0 5.69375,4.195 -1.97375,6.51 5.37376,-4.14625 0.0463,0 z"
       style="fill:#ffffff;fill-opacity:1;fill-rule:nonzero;stroke:none"
       id="path1046" />
    <path
       d="m 407.16347,448.65873 5.37375,4.14625 -1.975,-6.51 5.695,-4.195 -7.0725,0 -2.02125,-6.65375 -0.0463,0 -2.02126,6.65375 -7.0725,0 5.69375,4.195 -1.97375,6.51 5.37376,-4.14625 0.0463,0 z"
       style="fill:url(#polka);stroke:#2f2d2e;stroke-width:0.625;stroke-linecap:butt;stroke-linejoin:miter;stroke-miterlimit:4;stroke-dasharray:none;stroke-opacity:1;fill-opacity:1.0"
       id="path1050" />
    <path
       d="m 357.38197,448.65873 5.375,4.14625 -1.97501,-6.51 5.695,-4.195 -7.07374,0 -2.02125,-6.65375 -0.0463,0 -2.02,6.65375 -7.07375,0 5.69375,4.195 -1.97375,6.51 5.37375,-4.14625 0.0463,0 z"
       style="fill:#ffffff;fill-opacity:1;fill-rule:nonzero;stroke:none"
       id="path1054" />
    <path
       d="m 357.38197,448.65873 5.375,4.14625 -1.97501,-6.51 5.695,-4.195 -7.07374,0 -2.02125,-6.65375 -0.0463,0 -2.02,6.65375 -7.07375,0 5.69375,4.195 -1.97375,6.51 5.37375,-4.14625 0.0463,0 z"
       style="fill:url(#polka);stroke:#2f2d2e;stroke-width:0.625;stroke-linecap:butt;stroke-linejoin:miter;stroke-miterlimit:4;stroke-dasharray:none;stroke-opacity:1;fill-opacity:1.0"
       id="path1058" />
    <path
       d="m 382.13172,455.97136 5.375,4.14625 -1.97625,-6.51 5.69624,-4.195 -7.07374,0 -2.02125,-6.65375 -0.0462,0 -2.02001,6.65375 -7.07374,0 5.695,4.195 -1.97501,6.51 5.37376,-4.14625 0.0462,0 z"
       style="fill:#ffffff;fill-opacity:1;fill-rule:nonzero;stroke:none"
       id="path1062" />
    <path
       d="m 382.13172,455.97136 5.375,4.14625 -1.97625,-6.51 5.69624,-4.195 -7.07374,0 -2.02125,-6.65375 -0.0462,0 -2.02001,6.65375 -7.07374,0 5.695,4.195 -1.97501,6.51 5.37376,-4.14625 0.0462,0 z"
       style="fill:url(#polka);stroke:#2f2d2e;stroke-width:0.625;stroke-linecap:butt;stroke-linejoin:miter;stroke-miterlimit:4;stroke-dasharray:none;stroke-opacity:1;fill-opacity:1.0"
       id="path1066" />
  </g>
</svg>
