<svg xmlns="http://www.w3.org/2000/svg" width="151.875" height="151.875"><defs><clipPath><path d="M0 863.584h938.953V0H0v863.584z"/></clipPath><pattern height="12" width="12" patternUnits="userSpaceOnUse" patternTransform="matrix(.707 .707 -.707 .707 4185.04 7519.53)"><path d="M12-3H6v6h6v-6z" fill="#fff"/><g><path d="M10.5 0c0-.828-.672-1.5-1.5-1.5S7.5-.828 7.5 0 8.172 1.5 9 1.5 10.5.828 10.5 0" fill="#33a22b"/></g><path d="M6-3H0v6h6v-6z" fill="#fff"/><g><path d="M4.5 0c0-.828-.672-1.5-1.5-1.5S1.5-.828 1.5 0 2.172 1.5 3 1.5 4.5.828 4.5 0" fill="#33a22b"/></g><path d="M15 3H9v6h6V3z" fill="#fff"/><g><path d="M13.5 6c0-.828-.672-1.5-1.5-1.5s-1.5.672-1.5 1.5.672 1.5 1.5 1.5 1.5-.672 1.5-1.5" fill="#33a22b"/></g><path d="M9 3H3v6h6V3z" fill="#fff"/><g><path d="M7.5 6c0-.828-.672-1.5-1.5-1.5S4.5 5.172 4.5 6 5.172 7.5 6 7.5 7.5 6.828 7.5 6" fill="#33a22b"/></g><path d="M3 3h-6v6h6V3z" fill="#fff"/><g><path d="M1.5 6c0-.828-.672-1.5-1.5-1.5s-1.5.672-1.5 1.5.672 1.5 1.5 1.5S1.5 6.828 1.5 6" fill="#33a22b"/></g><path d="M12 9H6v6h6V9z" fill="#fff"/><g><path d="M10.5 12c0-.828-.672-1.5-1.5-1.5s-1.5.672-1.5 1.5.672 1.5 1.5 1.5 1.5-.672 1.5-1.5" fill="#33a22b"/></g><path d="M6 9H0v6h6V9z" fill="#fff"/><g><path d="M4.5 12c0-.828-.672-1.5-1.5-1.5s-1.5.672-1.5 1.5.672 1.5 1.5 1.5 1.5-.672 1.5-1.5" fill="#33a22b"/></g></pattern><clipPath><path d="M0 863.584h938.953V0H0v863.584z"/></clipPath><clipPath><path d="M348.652 307.12c-3.405-17.55 4.312-33.81 17.236-36.317 12.923-2.508 26.16 9.687 29.565 27.237 2.52 12.993-1.054 25.277-8.323 31.8l-6.74 3.953c-.706.232-1.432.42-2.173.565-1.134.22-2.27.327-3.4.327-11.77 0-23.06-11.554-26.165-27.565"/></clipPath><pattern height="12" width="12" patternUnits="userSpaceOnUse" patternTransform="matrix(.707 .707 -.707 .707 4185.04 7519.53)"><path d="M12-3H6v6h6v-6z" fill="#fff"/><g><path d="M10.5 0c0-.828-.672-1.5-1.5-1.5S7.5-.828 7.5 0 8.172 1.5 9 1.5 10.5.828 10.5 0" fill="#33a22b"/></g><path d="M6-3H0v6h6v-6z" fill="#fff"/><g><path d="M4.5 0c0-.828-.672-1.5-1.5-1.5S1.5-.828 1.5 0 2.172 1.5 3 1.5 4.5.828 4.5 0" fill="#33a22b"/></g><path d="M15 3H9v6h6V3z" fill="#fff"/><g><path d="M13.5 6c0-.828-.672-1.5-1.5-1.5s-1.5.672-1.5 1.5.672 1.5 1.5 1.5 1.5-.672 1.5-1.5" fill="#33a22b"/></g><path d="M9 3H3v6h6V3z" fill="#fff"/><g><path d="M7.5 6c0-.828-.672-1.5-1.5-1.5S4.5 5.172 4.5 6 5.172 7.5 6 7.5 7.5 6.828 7.5 6" fill="#33a22b"/></g><path d="M3 3h-6v6h6V3z" fill="#fff"/><g><path d="M1.5 6c0-.828-.672-1.5-1.5-1.5s-1.5.672-1.5 1.5.672 1.5 1.5 1.5S1.5 6.828 1.5 6" fill="#33a22b"/></g><path d="M12 9H6v6h6V9z" fill="#fff"/><g><path d="M10.5 12c0-.828-.672-1.5-1.5-1.5s-1.5.672-1.5 1.5.672 1.5 1.5 1.5 1.5-.672 1.5-1.5" fill="#33a22b"/></g><path d="M6 9H0v6h6V9z" fill="#fff"/><g><path d="M4.5 12c0-.828-.672-1.5-1.5-1.5s-1.5.672-1.5 1.5.672 1.5 1.5 1.5 1.5-.672 1.5-1.5" fill="#33a22b"/></g></pattern><clipPath><path d="M0 863.584h938.953V0H0v863.584z"/></clipPath><clipPath><path d="M348.652 307.12c-3.405-17.55 4.312-33.81 17.236-36.317 12.923-2.508 26.16 9.687 29.565 27.237 2.52 12.993-1.054 25.277-8.323 31.8l-6.74 3.953c-.706.232-1.432.42-2.173.565-1.134.22-2.27.327-3.4.327-11.77 0-23.06-11.554-26.165-27.565"/></clipPath><pattern height="12" width="12" patternUnits="userSpaceOnUse" patternTransform="matrix(.707 .707 -.707 .707 4185.04 7519.53)"><path d="M12-3H6v6h6v-6z" fill="#fff"/><g><path d="M10.5 0c0-.828-.672-1.5-1.5-1.5S7.5-.828 7.5 0 8.172 1.5 9 1.5 10.5.828 10.5 0" fill="#33a22b"/></g><path d="M6-3H0v6h6v-6z" fill="#fff"/><g><path d="M4.5 0c0-.828-.672-1.5-1.5-1.5S1.5-.828 1.5 0 2.172 1.5 3 1.5 4.5.828 4.5 0" fill="#33a22b"/></g><path d="M15 3H9v6h6V3z" fill="#fff"/><g><path d="M13.5 6c0-.828-.672-1.5-1.5-1.5s-1.5.672-1.5 1.5.672 1.5 1.5 1.5 1.5-.672 1.5-1.5" fill="#33a22b"/></g><path d="M9 3H3v6h6V3z" fill="#fff"/><g><path d="M7.5 6c0-.828-.672-1.5-1.5-1.5S4.5 5.172 4.5 6 5.172 7.5 6 7.5 7.5 6.828 7.5 6" fill="#33a22b"/></g><path d="M3 3h-6v6h6V3z" fill="#fff"/><g><path d="M1.5 6c0-.828-.672-1.5-1.5-1.5s-1.5.672-1.5 1.5.672 1.5 1.5 1.5S1.5 6.828 1.5 6" fill="#33a22b"/></g><path d="M12 9H6v6h6V9z" fill="#fff"/><g><path d="M10.5 12c0-.828-.672-1.5-1.5-1.5s-1.5.672-1.5 1.5.672 1.5 1.5 1.5 1.5-.672 1.5-1.5" fill="#33a22b"/></g><path d="M6 9H0v6h6V9z" fill="#fff"/><g><path d="M4.5 12c0-.828-.672-1.5-1.5-1.5s-1.5.672-1.5 1.5.672 1.5 1.5 1.5 1.5-.672 1.5-1.5" fill="#33a22b"/></g></pattern><pattern height="12" width="12" patternUnits="userSpaceOnUse" patternTransform="matrix(.707 .707 -.707 .707 4190.17 7522.35)"><path d="M12-3H6v6h6v-6z" fill="#fff"/><g><path d="M10.5 0c0-.828-.672-1.5-1.5-1.5S7.5-.828 7.5 0 8.172 1.5 9 1.5 10.5.828 10.5 0" fill="#aad801"/></g><path d="M6-3H0v6h6v-6z" fill="#fff"/><g><path d="M4.5 0c0-.828-.672-1.5-1.5-1.5S1.5-.828 1.5 0 2.172 1.5 3 1.5 4.5.828 4.5 0" fill="#aad801"/></g><path d="M15 3H9v6h6V3z" fill="#fff"/><g><path d="M13.5 6c0-.828-.672-1.5-1.5-1.5s-1.5.672-1.5 1.5.672 1.5 1.5 1.5 1.5-.672 1.5-1.5" fill="#aad801"/></g><path d="M9 3H3v6h6V3z" fill="#fff"/><g><path d="M7.5 6c0-.828-.672-1.5-1.5-1.5S4.5 5.172 4.5 6 5.172 7.5 6 7.5 7.5 6.828 7.5 6" fill="#aad801"/></g><path d="M3 3h-6v6h6V3z" fill="#fff"/><g><path d="M1.5 6c0-.828-.672-1.5-1.5-1.5s-1.5.672-1.5 1.5.672 1.5 1.5 1.5S1.5 6.828 1.5 6" fill="#aad801"/></g><path d="M12 9H6v6h6V9z" fill="#fff"/><g><path d="M10.5 12c0-.828-.672-1.5-1.5-1.5s-1.5.672-1.5 1.5.672 1.5 1.5 1.5 1.5-.672 1.5-1.5" fill="#aad801"/></g><path d="M6 9H0v6h6V9z" fill="#fff"/><g><path d="M4.5 12c0-.828-.672-1.5-1.5-1.5s-1.5.672-1.5 1.5.672 1.5 1.5 1.5 1.5-.672 1.5-1.5" fill="#aad801"/></g></pattern><pattern height="12" width="12" patternUnits="userSpaceOnUse" patternTransform="matrix(.707 .707 -.707 .707 4183.02 7526.16)"><path d="M12-3H6v6h6v-6z" fill="#fff"/><g><path d="M10.5 0c0-.828-.672-1.5-1.5-1.5S7.5-.828 7.5 0 8.172 1.5 9 1.5 10.5.828 10.5 0" fill="#e49f65"/></g><path d="M6-3H0v6h6v-6z" fill="#fff"/><g><path d="M4.5 0c0-.828-.672-1.5-1.5-1.5S1.5-.828 1.5 0 2.172 1.5 3 1.5 4.5.828 4.5 0" fill="#e49f65"/></g><path d="M15 3H9v6h6V3z" fill="#fff"/><g><path d="M13.5 6c0-.828-.672-1.5-1.5-1.5s-1.5.672-1.5 1.5.672 1.5 1.5 1.5 1.5-.672 1.5-1.5" fill="#e49f65"/></g><path d="M9 3H3v6h6V3z" fill="#fff"/><g><path d="M7.5 6c0-.828-.672-1.5-1.5-1.5S4.5 5.172 4.5 6 5.172 7.5 6 7.5 7.5 6.828 7.5 6" fill="#e49f65"/></g><path d="M3 3h-6v6h6V3z" fill="#fff"/><g><path d="M1.5 6c0-.828-.672-1.5-1.5-1.5s-1.5.672-1.5 1.5.672 1.5 1.5 1.5S1.5 6.828 1.5 6" fill="#e49f65"/></g><path d="M12 9H6v6h6V9z" fill="#fff"/><g><path d="M10.5 12c0-.828-.672-1.5-1.5-1.5s-1.5.672-1.5 1.5.672 1.5 1.5 1.5 1.5-.672 1.5-1.5" fill="#e49f65"/></g><path d="M6 9H0v6h6V9z" fill="#fff"/><g><path d="M4.5 12c0-.828-.672-1.5-1.5-1.5s-1.5.672-1.5 1.5.672 1.5 1.5 1.5 1.5-.672 1.5-1.5" fill="#e49f65"/></g></pattern><pattern height="12" width="12" patternUnits="userSpaceOnUse" patternTransform="matrix(.707 .707 -.707 .707 4185.4 7526.35)"><path d="M12-3H6v6h6v-6z" fill="#fff"/><g><path d="M10.5 0c0-.828-.672-1.5-1.5-1.5S7.5-.828 7.5 0 8.172 1.5 9 1.5 10.5.828 10.5 0" fill="#4dc6dd"/></g><path d="M6-3H0v6h6v-6z" fill="#fff"/><g><path d="M4.5 0c0-.828-.672-1.5-1.5-1.5S1.5-.828 1.5 0 2.172 1.5 3 1.5 4.5.828 4.5 0" fill="#4dc6dd"/></g><path d="M15 3H9v6h6V3z" fill="#fff"/><g><path d="M13.5 6c0-.828-.672-1.5-1.5-1.5s-1.5.672-1.5 1.5.672 1.5 1.5 1.5 1.5-.672 1.5-1.5" fill="#4dc6dd"/></g><path d="M9 3H3v6h6V3z" fill="#fff"/><g><path d="M7.5 6c0-.828-.672-1.5-1.5-1.5S4.5 5.172 4.5 6 5.172 7.5 6 7.5 7.5 6.828 7.5 6" fill="#4dc6dd"/></g><path d="M3 3h-6v6h6V3z" fill="#fff"/><g><path d="M1.5 6c0-.828-.672-1.5-1.5-1.5s-1.5.672-1.5 1.5.672 1.5 1.5 1.5S1.5 6.828 1.5 6" fill="#4dc6dd"/></g><path d="M12 9H6v6h6V9z" fill="#fff"/><g><path d="M10.5 12c0-.828-.672-1.5-1.5-1.5s-1.5.672-1.5 1.5.672 1.5 1.5 1.5 1.5-.672 1.5-1.5" fill="#4dc6dd"/></g><path d="M6 9H0v6h6V9z" fill="#fff"/><g><path d="M4.5 12c0-.828-.672-1.5-1.5-1.5s-1.5.672-1.5 1.5.672 1.5 1.5 1.5 1.5-.672 1.5-1.5" fill="#4dc6dd"/></g></pattern><pattern height="12" width="12" patternUnits="userSpaceOnUse" patternTransform="matrix(.707 .707 -.707 .707 4183.02 7526.16)"><path d="M12-3H6v6h6v-6z" fill="#fff"/><g><path d="M10.5 0c0-.828-.672-1.5-1.5-1.5S7.5-.828 7.5 0 8.172 1.5 9 1.5 10.5.828 10.5 0" fill="#e49f65"/></g><path d="M6-3H0v6h6v-6z" fill="#fff"/><g><path d="M4.5 0c0-.828-.672-1.5-1.5-1.5S1.5-.828 1.5 0 2.172 1.5 3 1.5 4.5.828 4.5 0" fill="#e49f65"/></g><path d="M15 3H9v6h6V3z" fill="#fff"/><g><path d="M13.5 6c0-.828-.672-1.5-1.5-1.5s-1.5.672-1.5 1.5.672 1.5 1.5 1.5 1.5-.672 1.5-1.5" fill="#e49f65"/></g><path d="M9 3H3v6h6V3z" fill="#fff"/><g><path d="M7.5 6c0-.828-.672-1.5-1.5-1.5S4.5 5.172 4.5 6 5.172 7.5 6 7.5 7.5 6.828 7.5 6" fill="#e49f65"/></g><path d="M3 3h-6v6h6V3z" fill="#fff"/><g><path d="M1.5 6c0-.828-.672-1.5-1.5-1.5s-1.5.672-1.5 1.5.672 1.5 1.5 1.5S1.5 6.828 1.5 6" fill="#e49f65"/></g><path d="M12 9H6v6h6V9z" fill="#fff"/><g><path d="M10.5 12c0-.828-.672-1.5-1.5-1.5s-1.5.672-1.5 1.5.672 1.5 1.5 1.5 1.5-.672 1.5-1.5" fill="#e49f65"/></g><path d="M6 9H0v6h6V9z" fill="#fff"/><g><path d="M4.5 12c0-.828-.672-1.5-1.5-1.5s-1.5.672-1.5 1.5.672 1.5 1.5 1.5 1.5-.672 1.5-1.5" fill="#e49f65"/></g></pattern><pattern id="a" height="12" width="12" patternUnits="userSpaceOnUse" patternTransform="matrix(.707 .707 -.707 .707 4185.4 7526.35)"><path d="M12-3H6v6h6v-6z" fill="#fff"/><g><path d="M10.5 0c0-.828-.672-1.5-1.5-1.5S7.5-.828 7.5 0 8.172 1.5 9 1.5 10.5.828 10.5 0" fill="#4dc6dd"/></g><path d="M6-3H0v6h6v-6z" fill="#fff"/><g><path d="M4.5 0c0-.828-.672-1.5-1.5-1.5S1.5-.828 1.5 0 2.172 1.5 3 1.5 4.5.828 4.5 0" fill="#4dc6dd"/></g><path d="M15 3H9v6h6V3z" fill="#fff"/><g><path d="M13.5 6c0-.828-.672-1.5-1.5-1.5s-1.5.672-1.5 1.5.672 1.5 1.5 1.5 1.5-.672 1.5-1.5" fill="#4dc6dd"/></g><path d="M9 3H3v6h6V3z" fill="#fff"/><g><path d="M7.5 6c0-.828-.672-1.5-1.5-1.5S4.5 5.172 4.5 6 5.172 7.5 6 7.5 7.5 6.828 7.5 6" fill="#4dc6dd"/></g><path d="M3 3h-6v6h6V3z" fill="#fff"/><g><path d="M1.5 6c0-.828-.672-1.5-1.5-1.5s-1.5.672-1.5 1.5.672 1.5 1.5 1.5S1.5 6.828 1.5 6" fill="#4dc6dd"/></g><path d="M12 9H6v6h6V9z" fill="#fff"/><g><path d="M10.5 12c0-.828-.672-1.5-1.5-1.5s-1.5.672-1.5 1.5.672 1.5 1.5 1.5 1.5-.672 1.5-1.5" fill="#4dc6dd"/></g><path d="M6 9H0v6h6V9z" fill="#fff"/><g><path d="M4.5 12c0-.828-.672-1.5-1.5-1.5s-1.5.672-1.5 1.5.672 1.5 1.5 1.5 1.5-.672 1.5-1.5" fill="#4dc6dd"/></g></pattern></defs><g><g><path d="M150.938 75.938c0 41.42-33.58 75-75 75s-75-33.58-75-75 33.58-75 75-75 75 33.58 75 75" fill="#fff"/></g><g><path d="M150.938 75.938c0 41.42-33.58 75-75 75s-75-33.58-75-75 33.58-75 75-75 75 33.58 75 75z" fill="none" stroke="#231f20" stroke-width="1.25.5"/></g><g><path d="M0 0c-23.44 0-42.512-19.07-42.512-42.512 0-23.44 19.07-42.512 42.512-42.512 23.44 0 42.512 19.07 42.512 42.512C42.512-19.072 23.442 0 0 0" fill="url(#a)" transform="matrix(1.25 0 0 -1.25 74.702 22.996)"/></g><g><path d="M98.02 114.047c1.52-2.805 2.86-5.895 4.01-9.247 1.68.652 3.277 1.367 4.78 2.14-2.624 2.73-5.587 5.123-8.79 7.107m-55.425-7.11c1.5-.77 3.096-1.486 4.778-2.138 1.15 3.352 2.492 6.442 4.01 9.247-3.202-1.984-6.165-4.38-8.788-7.11m37.35 12.227V100.25c4.106.247 8.113.78 11.958 1.595-2.973 8.426-7.274 14.626-11.958 17.32M57.5 101.84c3.844-.813 7.85-1.346 11.96-1.593v18.914c-4.685-2.693-8.986-8.894-11.96-17.322M30.496 81.38h12.53c.236 4.54.78 8.974 1.624 13.226-3.03 1.12-5.86 2.412-8.446 3.86-3.045-5.235-4.995-11.075-5.71-17.086m23.04 0H69.46v8.36c-5.056.263-9.974.91-14.665 1.93-.626-3.322-1.047-6.77-1.26-10.29m26.41 0H95.87c-.213 3.522-.635 6.97-1.26 10.292-4.695-1.02-9.612-1.667-14.665-1.932v-8.36zm26.434 0h12.53c-.715 6.01-2.665 11.85-5.71 17.087-2.587-1.45-5.416-2.74-8.445-3.86.844-4.25 1.388-8.687 1.624-13.227M53.534 70.893c.213-3.522.634-6.97 1.26-10.29 4.69 1.018 9.607 1.665 14.664 1.93v8.36H53.534zm26.41-8.36c5.053-.266 9.97-.913 14.664-1.933.625 3.322 1.047 6.77 1.26 10.293H79.944v-8.36zm-49.45 8.36c.714-6.012 2.664-11.852 5.71-17.087 2.586 1.447 5.415 2.74 8.444 3.86-.845 4.25-1.39 8.686-1.625 13.227h-12.53zm74.26-13.227c3.03-1.12 5.857-2.413 8.445-3.86 3.045 5.235 4.995 11.075 5.71 17.087h-12.53c-.238-4.54-.78-8.977-1.625-13.227m-62.16-12.333c2.622-2.73 5.586-5.125 8.79-7.108-1.52 2.805-2.86 5.896-4.013 9.248-1.68-.652-3.278-1.367-4.777-2.14m59.436 2.14c-1.15-3.353-2.49-6.443-4.01-9.248 3.202 1.983 6.166 4.377 8.79 7.107-1.503.773-3.1 1.49-4.78 2.14m-22.085 4.55V33.107C84.63 35.8 88.93 42 91.902 50.427c-3.845.814-7.85 1.35-11.957 1.595M57.5 50.43c2.974-8.428 7.275-14.63 11.96-17.323v18.915c-4.11-.246-8.116-.78-11.96-1.593m17.202-29.31c-30.336 0-55.015 24.68-55.015 55.016 0 30.335 24.68 55.015 55.015 55.015s55.015-24.68 55.015-55.014c0-30.335-24.68-55.015-55.015-55.015m17.973 97.796c6.634-2.798 12.477-7.103 17.122-12.473-2.658-1.557-5.66-2.927-8.94-4.073-2.043 6.512-4.832 12.146-8.182 16.546m-35.945 0c-3.35-4.4-6.14-10.034-8.183-16.548-3.28 1.147-6.283 2.515-8.94 4.074 4.643 5.37 10.488 9.676 17.123 12.474m21.34 3.107c6.776-2.07 12.697-10.256 16.267-21.55-5.086-1.223-10.59-1.977-16.267-2.192v23.743m-6.736 0V98.28c-5.68.215-11.183.968-16.268 2.19 3.57 11.296 9.49 19.483 16.268 21.553m-35.773-21.01c3.34-2.035 7.124-3.775 11.257-5.19-1.11-5.08-1.8-10.56-1.996-16.318H28.435C29 87.377 31.54 94.71 35.56 101.013m17.777-7.085c5.617-1.358 11.685-2.178 17.997-2.393v-12.03H51.566c.19 5.05.803 9.908 1.77 14.423m42.73.003c.97-4.514 1.58-9.374 1.77-14.426H78.07v12.03c6.31.216 12.377 1.037 17.995 2.397m17.78 7.083c4.02-6.304 6.558-13.636 7.125-21.51l-16.387.002c-.196 5.758-.886 11.238-1.997 16.32 4.134 1.414 7.92 3.154 11.258 5.188M51.566 72.768h19.768v-12.03c-6.312-.216-12.38-1.036-17.997-2.395-.968 4.515-1.58 9.374-1.77 14.425m26.503 0h19.767c-.19-5.052-.802-9.912-1.772-14.427-5.617 1.36-11.686 2.182-17.995 2.397v12.03m-49.636 0H44.82c.196-5.758.886-11.238 1.997-16.32-4.133-1.414-7.918-3.154-11.256-5.19-4.02 6.305-6.56 13.637-7.126 21.51m76.148 0h16.388c-.567-7.873-3.105-15.205-7.126-21.51-3.34 2.036-7.124 3.775-11.258 5.19 1.112 5.08 1.802 10.56 1.997 16.32M48.548 49.904c2.042-6.514 4.83-12.147 8.182-16.547-6.635 2.797-12.48 7.103-17.124 12.473 2.658 1.558 5.662 2.927 8.942 4.073m52.308 0c3.282-1.146 6.283-2.516 8.942-4.075-4.646-5.37-10.49-9.675-17.123-12.472 3.35 4.4 6.14 10.033 8.18 16.546m-29.52 4.09V30.247c-6.777 2.07-12.7 10.258-16.27 21.554 5.086 1.222 10.59 1.975 16.27 2.19m6.735 0c5.676-.215 11.18-.97 16.268-2.193-3.57-11.296-9.492-19.482-16.268-21.552V53.99m-3.367-30.994c29.3 0 53.14 23.838 53.14 53.14 0 29.3-23.84 53.14-53.14 53.14-29.302 0-53.14-23.84-53.14-53.14s23.838-53.14 53.14-53.14" fill="#231f20"/></g><g><path d="M78.07 60.736c6.31-.215 12.377-1.036 17.995-2.395.97 4.516 1.58 9.375 1.772 14.427H78.07v-12.03z" fill="#fff"/></g><g><path d="M78.07 60.736c6.31-.215 12.377-1.036 17.995-2.395.97 4.516 1.58 9.375 1.772 14.427H78.07v-12.03z" fill="none" stroke="#231f20" stroke-width="1.25.5"/></g><g><path d="M78.07 53.99V30.25c6.776 2.07 12.697 10.257 16.266 21.552-5.085 1.222-10.59 1.976-16.266 2.19" fill="#fff"/></g><g><path d="M78.07 53.99V30.25c6.776 2.07 12.697 10.257 16.266 21.552-5.085 1.222-10.59 1.976-16.266 2.19z" fill="none" stroke="#231f20" stroke-width="1.25.5"/></g><g><path d="M71.334 30.248V53.99c-5.68-.213-11.184-.967-16.267-2.19 3.57-11.296 9.49-19.482 16.267-21.552" fill="#fff"/></g><g><path d="M71.334 30.248V53.99c-5.68-.213-11.184-.967-16.267-2.19 3.57-11.296 9.49-19.482 16.267-21.552z" fill="none" stroke="#231f20" stroke-width="1.25.5"/></g><g><path d="M71.334 60.737v12.03H51.567c.19-5.05.8-9.91 1.77-14.424 5.617 1.36 11.686 2.18 17.997 2.394" fill="#fff"/></g><g><path d="M71.334 60.737v12.03H51.567c.19-5.05.8-9.91 1.77-14.424 5.617 1.36 11.686 2.18 17.997 2.394z" fill="none" stroke="#231f20" stroke-width="1.25.5"/></g><g><path d="M44.822 72.767h-16.39c.57-7.874 3.108-15.205 7.13-21.51 3.336 2.036 7.123 3.775 11.256 5.19-1.11 5.08-1.802 10.56-1.996 16.32" fill="#fff"/></g><g><path d="M44.822 72.767h-16.39c.57-7.874 3.108-15.205 7.13-21.51 3.336 2.036 7.123 3.775 11.256 5.19-1.11 5.08-1.802 10.56-1.996 16.32z" fill="none" stroke="#231f20" stroke-width="1.25.5"/></g><g><path d="M44.822 79.504c.194 5.76.885 11.24 1.996 16.32-4.133 1.415-7.92 3.154-11.257 5.19-4.02-6.305-6.558-13.636-7.127-21.51h16.39z" fill="#fff"/></g><g><path d="M44.822 79.504c.194 5.76.885 11.24 1.996 16.32-4.133 1.415-7.92 3.154-11.257 5.19-4.02-6.305-6.558-13.636-7.127-21.51h16.39z" fill="none" stroke="#231f20" stroke-width="1.25.5"/></g><g><path d="M51.566 79.504h19.767v12.03c-6.31.215-12.38 1.035-17.996 2.394-.97-4.514-1.58-9.373-1.77-14.424" fill="#fff"/></g><g><path d="M51.566 79.504h19.767v12.03c-6.31.215-12.38 1.035-17.996 2.394-.97-4.514-1.58-9.373-1.77-14.424z" fill="none" stroke="#231f20" stroke-width="1.25.5"/></g><g><path d="M71.334 98.28v23.742c-6.776-2.07-12.697-10.256-16.267-21.552 5.083-1.222 10.588-1.975 16.267-2.19" fill="#fff"/></g><g><path d="M71.334 98.28v23.742c-6.776-2.07-12.697-10.256-16.267-21.552 5.083-1.222 10.588-1.975 16.267-2.19z" fill="none" stroke="#231f20" stroke-width="1.25.5"/></g><g><path d="M78.07 122.023V98.28c5.676.215 11.18.97 16.266 2.192-3.57 11.296-9.49 19.48-16.266 21.55" fill="#fff"/></g><g><path d="M78.07 122.023V98.28c5.676.215 11.18.97 16.266 2.192-3.57 11.296-9.49 19.48-16.266 21.55z" fill="none" stroke="#231f20" stroke-width="1.25.5"/></g><g><path d="M78.07 91.535v-12.03h19.767c-.19 5.05-.802 9.91-1.772 14.426-5.618-1.36-11.686-2.18-17.995-2.395" fill="#fff"/></g><g><path d="M78.07 91.535v-12.03h19.767c-.19 5.05-.802 9.91-1.772 14.426-5.618-1.36-11.686-2.18-17.995-2.395z" fill="none" stroke="#231f20" stroke-width="1.25.5"/></g><g><path d="M104.582 79.504h16.39c-.57 7.874-3.107 15.205-7.13 21.51-3.336-2.035-7.123-3.775-11.256-5.19 1.11-5.08 1.802-10.56 1.996-16.32" fill="#fff"/></g><g><path d="M104.582 79.504h16.39c-.57 7.874-3.107 15.205-7.13 21.51-3.336-2.035-7.123-3.775-11.256-5.19 1.11-5.08 1.802-10.56 1.996-16.32z" fill="none" stroke="#231f20" stroke-width="1.25.5"/></g><g><path d="M104.582 72.767c-.194-5.76-.885-11.24-1.996-16.32 4.133-1.415 7.92-3.155 11.257-5.19 4.02 6.305 6.56 13.636 7.128 21.51h-16.388z" fill="#fff"/></g><g><path d="M104.582 72.767c-.194-5.76-.885-11.24-1.996-16.32 4.133-1.415 7.92-3.155 11.257-5.19 4.02 6.305 6.56 13.636 7.128 21.51h-16.388z" fill="none" stroke="#231f20" stroke-width="1.25.5"/></g><g><path d="M109.797 45.828c-2.657 1.558-5.66 2.928-8.94 4.074-2.044-6.513-4.833-12.147-8.183-16.547 6.634 2.798 12.48 7.103 17.123 12.473" fill="#fff"/></g><g><path d="M109.797 45.828c-2.657 1.558-5.66 2.928-8.94 4.074-2.044-6.513-4.833-12.147-8.183-16.547 6.634 2.798 12.48 7.103 17.123 12.473z" fill="none" stroke="#231f20" stroke-width="1.25.5"/></g><g><path d="M56.73 33.355c-3.35 4.4-6.14 10.034-8.183 16.547-3.28-1.145-6.282-2.515-8.94-4.073 4.644-5.37 10.488-9.677 17.123-12.475" fill="#fff"/></g><g><path d="M56.73 33.355c-3.35 4.4-6.14 10.034-8.183 16.547-3.28-1.145-6.282-2.515-8.94-4.073 4.644-5.37 10.488-9.677 17.123-12.475z" fill="none" stroke="#231f20" stroke-width="1.25.5"/></g><g><path d="M39.606 106.44c2.657-1.558 5.66-2.926 8.94-4.073 2.045 6.514 4.833 12.148 8.184 16.548-6.635-2.798-12.48-7.103-17.124-12.474" fill="#fff"/></g><g><path d="M39.606 106.44c2.657-1.558 5.66-2.926 8.94-4.073 2.045 6.514 4.833 12.148 8.184 16.548-6.635-2.798-12.48-7.103-17.124-12.474z" fill="none" stroke="#231f20" stroke-width="1.25.5"/></g><g><path d="M92.675 118.916c3.35-4.4 6.14-10.034 8.183-16.546 3.28 1.145 6.282 2.515 8.94 4.073-4.644 5.37-10.49 9.676-17.123 12.473" fill="#fff"/></g><g><path d="M92.675 118.916c3.35-4.4 6.14-10.034 8.183-16.546 3.28 1.145 6.282 2.515 8.94 4.073-4.644 5.37-10.49 9.676-17.123 12.473z" fill="none" stroke="#231f20" stroke-width="1.25.5"/></g><path d="M105.22 129.74c-1.926 0-5.576-.42-8.382-3.224L27.776 57.454c-3.85-3.85-3.196-9.286-3.166-9.515.814-4.946 3.11-9.41 6.64-12.942 3.534-3.534 8-5.83 12.91-6.638.034-.005.463-.062 1.168-.062 1.926 0 5.576.418 8.38 3.223l69.063 69.064c3.85 3.85 3.198 9.287 3.168 9.516-.815 4.945-3.11 9.41-6.643 12.94-3.532 3.535-7.996 5.83-12.91 6.638-.03.005-.46.062-1.166.062" fill="#fff"/><path d="M45.328 27.36c-.73 0-1.204.058-1.255.065l-.033.004-.03.005c-5.108.84-9.75 3.227-13.42 6.9-3.673 3.67-6.058 8.31-6.9 13.42l-.006.03-.004.032c-.032.25-.74 6.126 3.434 10.3l69.06 69.06c3.045 3.046 6.975 3.5 9.045 3.5.73 0 1.203-.057 1.254-.065l.032-.004.033-.005c5.106-.842 9.746-3.227 13.42-6.9 3.67-3.67 6.056-8.312 6.898-13.42l.005-.03.005-.034c.03-.25.738-6.127-3.435-10.3L54.37 30.857c-3.042-3.043-6.97-3.498-9.042-3.498m0 1.875c1.682 0 5.122.353 7.718 2.95l69.062 69.06c3.568 3.57 2.9 8.733 2.9 8.733-.75 4.54-2.874 8.898-6.375 12.4-3.503 3.502-7.86 5.627-12.4 6.375 0 0-.383.05-1.014.05-1.684 0-5.124-.355-7.72-2.95L28.44 56.79c-3.57-3.568-2.9-8.732-2.9-8.732.748-4.54 2.873-8.897 6.374-12.398 3.502-3.503 7.86-5.628 12.4-6.375 0 0 .384-.05 1.014-.05" fill="#231f20"/><path d="M614.487 534.166c3.568 3.57 2.9 8.733 2.9 8.733-.748 4.54-2.873 8.896-6.375 12.397-3.502 3.503-7.86 5.628-12.4 6.377 0 0-5.163.667-8.732-2.902l-69.062-69.06c-3.57-3.57-2.9-8.733-2.9-8.733.75-4.54 2.874-8.9 6.375-12.4 3.502-3.503 7.86-5.628 12.4-6.375 0 0 5.164-.67 8.732 2.9l69.062 69.06z" fill="url(#pattern41153-0)" transform="translate(-492.379 -432.92)"/><path d="M95.92 82.884L79.14 99.666c-1.462 1.46-3.83 1.46-5.29 0L54.625 80.443c-1.46-1.46-1.46-3.83 0-5.29l16.782-16.78c1.46-1.462 3.83-1.462 5.29 0L95.92 77.595c1.46 1.46 1.46 3.828 0 5.288z" fill="none" stroke="#231f20" stroke-width=".625"/><path d="M45.328 27.36c-.73 0-1.204.058-1.255.065l-.033.004-.03.005c-5.11.84-9.75 3.227-13.42 6.9-3.674 3.67-6.06 8.31-6.9 13.42l-.006.03-.004.032c-.033.25-.74 6.126 3.434 10.3l69.06 69.06c3.045 3.046 6.975 3.5 9.045 3.5.73 0 1.202-.057 1.254-.065l.032-.004.033-.005c5.106-.842 9.746-3.227 13.42-6.9 3.67-3.67 6.056-8.312 6.897-13.42l.005-.03.005-.034c.032-.25.74-6.127-3.435-10.3l-69.06-69.062c-3.044-3.043-6.973-3.498-9.044-3.498m0 1.875c1.682 0 5.122.353 7.718 2.95l69.062 69.06c3.568 3.57 2.9 8.733 2.9 8.733-.75 4.54-2.874 8.898-6.375 12.4-3.503 3.502-7.86 5.627-12.4 6.375 0 0-.383.05-1.014.05-1.684 0-5.124-.355-7.72-2.95L28.44 56.79c-3.57-3.568-2.9-8.732-2.9-8.732.748-4.54 2.873-8.897 6.374-12.398 3.502-3.503 7.86-5.628 12.4-6.375 0 0 .384-.05 1.014-.05" fill="#231f20"/></g></svg>