<svg xmlns="http://www.w3.org/2000/svg" width="158.7" height="180.761"><defs><clipPath><path d="M0 863.584h938.953V0H0v863.584z"/></clipPath><pattern height="12" width="12" patternUnits="userSpaceOnUse" patternTransform="matrix(.707 .707 -.707 .707 4185.04 7519.53)"><path d="M12-3H6v6h6v-6z" fill="#fff"/><g><path d="M10.5 0c0-.828-.672-1.5-1.5-1.5S7.5-.828 7.5 0 8.172 1.5 9 1.5 10.5.828 10.5 0" fill="#33a22b"/></g><path d="M6-3H0v6h6v-6z" fill="#fff"/><g><path d="M4.5 0c0-.828-.672-1.5-1.5-1.5S1.5-.828 1.5 0 2.172 1.5 3 1.5 4.5.828 4.5 0" fill="#33a22b"/></g><path d="M15 3H9v6h6V3z" fill="#fff"/><g><path d="M13.5 6c0-.828-.672-1.5-1.5-1.5s-1.5.672-1.5 1.5.672 1.5 1.5 1.5 1.5-.672 1.5-1.5" fill="#33a22b"/></g><path d="M9 3H3v6h6V3z" fill="#fff"/><g><path d="M7.5 6c0-.828-.672-1.5-1.5-1.5S4.5 5.172 4.5 6 5.172 7.5 6 7.5 7.5 6.828 7.5 6" fill="#33a22b"/></g><path d="M3 3h-6v6h6V3z" fill="#fff"/><g><path d="M1.5 6c0-.828-.672-1.5-1.5-1.5s-1.5.672-1.5 1.5.672 1.5 1.5 1.5S1.5 6.828 1.5 6" fill="#33a22b"/></g><path d="M12 9H6v6h6V9z" fill="#fff"/><g><path d="M10.5 12c0-.828-.672-1.5-1.5-1.5s-1.5.672-1.5 1.5.672 1.5 1.5 1.5 1.5-.672 1.5-1.5" fill="#33a22b"/></g><path d="M6 9H0v6h6V9z" fill="#fff"/><g><path d="M4.5 12c0-.828-.672-1.5-1.5-1.5s-1.5.672-1.5 1.5.672 1.5 1.5 1.5 1.5-.672 1.5-1.5" fill="#33a22b"/></g></pattern><clipPath><path d="M0 863.584h938.953V0H0v863.584z"/></clipPath><clipPath><path d="M348.652 307.12c-3.405-17.55 4.312-33.81 17.236-36.317 12.923-2.508 26.16 9.687 29.565 27.237 2.52 12.993-1.054 25.277-8.323 31.8l-6.74 3.953c-.706.232-1.432.42-2.173.565-1.134.22-2.27.327-3.4.327-11.77 0-23.06-11.554-26.165-27.565"/></clipPath><pattern height="12" width="12" patternUnits="userSpaceOnUse" patternTransform="matrix(.707 .707 -.707 .707 4185.04 7519.53)"><path d="M12-3H6v6h6v-6z" fill="#fff"/><g><path d="M10.5 0c0-.828-.672-1.5-1.5-1.5S7.5-.828 7.5 0 8.172 1.5 9 1.5 10.5.828 10.5 0" fill="#33a22b"/></g><path d="M6-3H0v6h6v-6z" fill="#fff"/><g><path d="M4.5 0c0-.828-.672-1.5-1.5-1.5S1.5-.828 1.5 0 2.172 1.5 3 1.5 4.5.828 4.5 0" fill="#33a22b"/></g><path d="M15 3H9v6h6V3z" fill="#fff"/><g><path d="M13.5 6c0-.828-.672-1.5-1.5-1.5s-1.5.672-1.5 1.5.672 1.5 1.5 1.5 1.5-.672 1.5-1.5" fill="#33a22b"/></g><path d="M9 3H3v6h6V3z" fill="#fff"/><g><path d="M7.5 6c0-.828-.672-1.5-1.5-1.5S4.5 5.172 4.5 6 5.172 7.5 6 7.5 7.5 6.828 7.5 6" fill="#33a22b"/></g><path d="M3 3h-6v6h6V3z" fill="#fff"/><g><path d="M1.5 6c0-.828-.672-1.5-1.5-1.5s-1.5.672-1.5 1.5.672 1.5 1.5 1.5S1.5 6.828 1.5 6" fill="#33a22b"/></g><path d="M12 9H6v6h6V9z" fill="#fff"/><g><path d="M10.5 12c0-.828-.672-1.5-1.5-1.5s-1.5.672-1.5 1.5.672 1.5 1.5 1.5 1.5-.672 1.5-1.5" fill="#33a22b"/></g><path d="M6 9H0v6h6V9z" fill="#fff"/><g><path d="M4.5 12c0-.828-.672-1.5-1.5-1.5s-1.5.672-1.5 1.5.672 1.5 1.5 1.5 1.5-.672 1.5-1.5" fill="#33a22b"/></g></pattern><clipPath><path d="M0 863.584h938.953V0H0v863.584z"/></clipPath><clipPath><path d="M348.652 307.12c-3.405-17.55 4.312-33.81 17.236-36.317 12.923-2.508 26.16 9.687 29.565 27.237 2.52 12.993-1.054 25.277-8.323 31.8l-6.74 3.953c-.706.232-1.432.42-2.173.565-1.134.22-2.27.327-3.4.327-11.77 0-23.06-11.554-26.165-27.565"/></clipPath><pattern height="12" width="12" patternUnits="userSpaceOnUse" patternTransform="matrix(.707 .707 -.707 .707 4185.04 7519.53)"><path d="M12-3H6v6h6v-6z" fill="#fff"/><g><path d="M10.5 0c0-.828-.672-1.5-1.5-1.5S7.5-.828 7.5 0 8.172 1.5 9 1.5 10.5.828 10.5 0" fill="#33a22b"/></g><path d="M6-3H0v6h6v-6z" fill="#fff"/><g><path d="M4.5 0c0-.828-.672-1.5-1.5-1.5S1.5-.828 1.5 0 2.172 1.5 3 1.5 4.5.828 4.5 0" fill="#33a22b"/></g><path d="M15 3H9v6h6V3z" fill="#fff"/><g><path d="M13.5 6c0-.828-.672-1.5-1.5-1.5s-1.5.672-1.5 1.5.672 1.5 1.5 1.5 1.5-.672 1.5-1.5" fill="#33a22b"/></g><path d="M9 3H3v6h6V3z" fill="#fff"/><g><path d="M7.5 6c0-.828-.672-1.5-1.5-1.5S4.5 5.172 4.5 6 5.172 7.5 6 7.5 7.5 6.828 7.5 6" fill="#33a22b"/></g><path d="M3 3h-6v6h6V3z" fill="#fff"/><g><path d="M1.5 6c0-.828-.672-1.5-1.5-1.5s-1.5.672-1.5 1.5.672 1.5 1.5 1.5S1.5 6.828 1.5 6" fill="#33a22b"/></g><path d="M12 9H6v6h6V9z" fill="#fff"/><g><path d="M10.5 12c0-.828-.672-1.5-1.5-1.5s-1.5.672-1.5 1.5.672 1.5 1.5 1.5 1.5-.672 1.5-1.5" fill="#33a22b"/></g><path d="M6 9H0v6h6V9z" fill="#fff"/><g><path d="M4.5 12c0-.828-.672-1.5-1.5-1.5s-1.5.672-1.5 1.5.672 1.5 1.5 1.5 1.5-.672 1.5-1.5" fill="#33a22b"/></g></pattern><pattern height="12" width="12" patternUnits="userSpaceOnUse" patternTransform="matrix(.707 .707 -.707 .707 4190.17 7522.35)"><path d="M12-3H6v6h6v-6z" fill="#fff"/><g><path d="M10.5 0c0-.828-.672-1.5-1.5-1.5S7.5-.828 7.5 0 8.172 1.5 9 1.5 10.5.828 10.5 0" fill="#aad801"/></g><path d="M6-3H0v6h6v-6z" fill="#fff"/><g><path d="M4.5 0c0-.828-.672-1.5-1.5-1.5S1.5-.828 1.5 0 2.172 1.5 3 1.5 4.5.828 4.5 0" fill="#aad801"/></g><path d="M15 3H9v6h6V3z" fill="#fff"/><g><path d="M13.5 6c0-.828-.672-1.5-1.5-1.5s-1.5.672-1.5 1.5.672 1.5 1.5 1.5 1.5-.672 1.5-1.5" fill="#aad801"/></g><path d="M9 3H3v6h6V3z" fill="#fff"/><g><path d="M7.5 6c0-.828-.672-1.5-1.5-1.5S4.5 5.172 4.5 6 5.172 7.5 6 7.5 7.5 6.828 7.5 6" fill="#aad801"/></g><path d="M3 3h-6v6h6V3z" fill="#fff"/><g><path d="M1.5 6c0-.828-.672-1.5-1.5-1.5s-1.5.672-1.5 1.5.672 1.5 1.5 1.5S1.5 6.828 1.5 6" fill="#aad801"/></g><path d="M12 9H6v6h6V9z" fill="#fff"/><g><path d="M10.5 12c0-.828-.672-1.5-1.5-1.5s-1.5.672-1.5 1.5.672 1.5 1.5 1.5 1.5-.672 1.5-1.5" fill="#aad801"/></g><path d="M6 9H0v6h6V9z" fill="#fff"/><g><path d="M4.5 12c0-.828-.672-1.5-1.5-1.5s-1.5.672-1.5 1.5.672 1.5 1.5 1.5 1.5-.672 1.5-1.5" fill="#aad801"/></g></pattern><pattern height="12" width="12" patternUnits="userSpaceOnUse" patternTransform="matrix(.707 .707 -.707 .707 4183.02 7526.16)"><path d="M12-3H6v6h6v-6z" fill="#fff"/><g><path d="M10.5 0c0-.828-.672-1.5-1.5-1.5S7.5-.828 7.5 0 8.172 1.5 9 1.5 10.5.828 10.5 0" fill="#e49f65"/></g><path d="M6-3H0v6h6v-6z" fill="#fff"/><g><path d="M4.5 0c0-.828-.672-1.5-1.5-1.5S1.5-.828 1.5 0 2.172 1.5 3 1.5 4.5.828 4.5 0" fill="#e49f65"/></g><path d="M15 3H9v6h6V3z" fill="#fff"/><g><path d="M13.5 6c0-.828-.672-1.5-1.5-1.5s-1.5.672-1.5 1.5.672 1.5 1.5 1.5 1.5-.672 1.5-1.5" fill="#e49f65"/></g><path d="M9 3H3v6h6V3z" fill="#fff"/><g><path d="M7.5 6c0-.828-.672-1.5-1.5-1.5S4.5 5.172 4.5 6 5.172 7.5 6 7.5 7.5 6.828 7.5 6" fill="#e49f65"/></g><path d="M3 3h-6v6h6V3z" fill="#fff"/><g><path d="M1.5 6c0-.828-.672-1.5-1.5-1.5s-1.5.672-1.5 1.5.672 1.5 1.5 1.5S1.5 6.828 1.5 6" fill="#e49f65"/></g><path d="M12 9H6v6h6V9z" fill="#fff"/><g><path d="M10.5 12c0-.828-.672-1.5-1.5-1.5s-1.5.672-1.5 1.5.672 1.5 1.5 1.5 1.5-.672 1.5-1.5" fill="#e49f65"/></g><path d="M6 9H0v6h6V9z" fill="#fff"/><g><path d="M4.5 12c0-.828-.672-1.5-1.5-1.5s-1.5.672-1.5 1.5.672 1.5 1.5 1.5 1.5-.672 1.5-1.5" fill="#e49f65"/></g></pattern><pattern height="12" width="12" patternUnits="userSpaceOnUse" patternTransform="matrix(.707 .707 -.707 .707 4185.4 7526.35)"><path d="M12-3H6v6h6v-6z" fill="#fff"/><g><path d="M10.5 0c0-.828-.672-1.5-1.5-1.5S7.5-.828 7.5 0 8.172 1.5 9 1.5 10.5.828 10.5 0" fill="#4dc6dd"/></g><path d="M6-3H0v6h6v-6z" fill="#fff"/><g><path d="M4.5 0c0-.828-.672-1.5-1.5-1.5S1.5-.828 1.5 0 2.172 1.5 3 1.5 4.5.828 4.5 0" fill="#4dc6dd"/></g><path d="M15 3H9v6h6V3z" fill="#fff"/><g><path d="M13.5 6c0-.828-.672-1.5-1.5-1.5s-1.5.672-1.5 1.5.672 1.5 1.5 1.5 1.5-.672 1.5-1.5" fill="#4dc6dd"/></g><path d="M9 3H3v6h6V3z" fill="#fff"/><g><path d="M7.5 6c0-.828-.672-1.5-1.5-1.5S4.5 5.172 4.5 6 5.172 7.5 6 7.5 7.5 6.828 7.5 6" fill="#4dc6dd"/></g><path d="M3 3h-6v6h6V3z" fill="#fff"/><g><path d="M1.5 6c0-.828-.672-1.5-1.5-1.5s-1.5.672-1.5 1.5.672 1.5 1.5 1.5S1.5 6.828 1.5 6" fill="#4dc6dd"/></g><path d="M12 9H6v6h6V9z" fill="#fff"/><g><path d="M10.5 12c0-.828-.672-1.5-1.5-1.5s-1.5.672-1.5 1.5.672 1.5 1.5 1.5 1.5-.672 1.5-1.5" fill="#4dc6dd"/></g><path d="M6 9H0v6h6V9z" fill="#fff"/><g><path d="M4.5 12c0-.828-.672-1.5-1.5-1.5s-1.5.672-1.5 1.5.672 1.5 1.5 1.5 1.5-.672 1.5-1.5" fill="#4dc6dd"/></g></pattern><pattern height="12" width="12" patternUnits="userSpaceOnUse" patternTransform="matrix(.707 .707 -.707 .707 4183.02 7526.16)"><path d="M12-3H6v6h6v-6z" fill="#fff"/><g><path d="M10.5 0c0-.828-.672-1.5-1.5-1.5S7.5-.828 7.5 0 8.172 1.5 9 1.5 10.5.828 10.5 0" fill="#e49f65"/></g><path d="M6-3H0v6h6v-6z" fill="#fff"/><g><path d="M4.5 0c0-.828-.672-1.5-1.5-1.5S1.5-.828 1.5 0 2.172 1.5 3 1.5 4.5.828 4.5 0" fill="#e49f65"/></g><path d="M15 3H9v6h6V3z" fill="#fff"/><g><path d="M13.5 6c0-.828-.672-1.5-1.5-1.5s-1.5.672-1.5 1.5.672 1.5 1.5 1.5 1.5-.672 1.5-1.5" fill="#e49f65"/></g><path d="M9 3H3v6h6V3z" fill="#fff"/><g><path d="M7.5 6c0-.828-.672-1.5-1.5-1.5S4.5 5.172 4.5 6 5.172 7.5 6 7.5 7.5 6.828 7.5 6" fill="#e49f65"/></g><path d="M3 3h-6v6h6V3z" fill="#fff"/><g><path d="M1.5 6c0-.828-.672-1.5-1.5-1.5s-1.5.672-1.5 1.5.672 1.5 1.5 1.5S1.5 6.828 1.5 6" fill="#e49f65"/></g><path d="M12 9H6v6h6V9z" fill="#fff"/><g><path d="M10.5 12c0-.828-.672-1.5-1.5-1.5s-1.5.672-1.5 1.5.672 1.5 1.5 1.5 1.5-.672 1.5-1.5" fill="#e49f65"/></g><path d="M6 9H0v6h6V9z" fill="#fff"/><g><path d="M4.5 12c0-.828-.672-1.5-1.5-1.5s-1.5.672-1.5 1.5.672 1.5 1.5 1.5 1.5-.672 1.5-1.5" fill="#e49f65"/></g></pattern><pattern height="12" width="12" patternUnits="userSpaceOnUse" patternTransform="matrix(.707 .707 -.707 .707 4185.4 7526.35)"><path d="M12-3H6v6h6v-6z" fill="#fff"/><g><path d="M10.5 0c0-.828-.672-1.5-1.5-1.5S7.5-.828 7.5 0 8.172 1.5 9 1.5 10.5.828 10.5 0" fill="#4dc6dd"/></g><path d="M6-3H0v6h6v-6z" fill="#fff"/><g><path d="M4.5 0c0-.828-.672-1.5-1.5-1.5S1.5-.828 1.5 0 2.172 1.5 3 1.5 4.5.828 4.5 0" fill="#4dc6dd"/></g><path d="M15 3H9v6h6V3z" fill="#fff"/><g><path d="M13.5 6c0-.828-.672-1.5-1.5-1.5s-1.5.672-1.5 1.5.672 1.5 1.5 1.5 1.5-.672 1.5-1.5" fill="#4dc6dd"/></g><path d="M9 3H3v6h6V3z" fill="#fff"/><g><path d="M7.5 6c0-.828-.672-1.5-1.5-1.5S4.5 5.172 4.5 6 5.172 7.5 6 7.5 7.5 6.828 7.5 6" fill="#4dc6dd"/></g><path d="M3 3h-6v6h6V3z" fill="#fff"/><g><path d="M1.5 6c0-.828-.672-1.5-1.5-1.5s-1.5.672-1.5 1.5.672 1.5 1.5 1.5S1.5 6.828 1.5 6" fill="#4dc6dd"/></g><path d="M12 9H6v6h6V9z" fill="#fff"/><g><path d="M10.5 12c0-.828-.672-1.5-1.5-1.5s-1.5.672-1.5 1.5.672 1.5 1.5 1.5 1.5-.672 1.5-1.5" fill="#4dc6dd"/></g><path d="M6 9H0v6h6V9z" fill="#fff"/><g><path d="M4.5 12c0-.828-.672-1.5-1.5-1.5s-1.5.672-1.5 1.5.672 1.5 1.5 1.5 1.5-.672 1.5-1.5" fill="#4dc6dd"/></g></pattern><pattern height="12" width="12" patternUnits="userSpaceOnUse" patternTransform="matrix(.707 .707 -.707 .707 4183.52 7517.87)"><path d="M12-3H6v6h6v-6z" fill="#fff"/><g><path d="M10.5 0c0-.828-.672-1.5-1.5-1.5S7.5-.828 7.5 0 8.172 1.5 9 1.5 10.5.828 10.5 0" fill="#e31f26"/></g><path d="M6-3H0v6h6v-6z" fill="#fff"/><g><path d="M4.5 0c0-.828-.672-1.5-1.5-1.5S1.5-.828 1.5 0 2.172 1.5 3 1.5 4.5.828 4.5 0" fill="#e31f26"/></g><path d="M15 3H9v6h6V3z" fill="#fff"/><g><path d="M13.5 6c0-.828-.672-1.5-1.5-1.5s-1.5.672-1.5 1.5.672 1.5 1.5 1.5 1.5-.672 1.5-1.5" fill="#e31f26"/></g><path d="M9 3H3v6h6V3z" fill="#fff"/><g><path d="M7.5 6c0-.828-.672-1.5-1.5-1.5S4.5 5.172 4.5 6 5.172 7.5 6 7.5 7.5 6.828 7.5 6" fill="#e31f26"/></g><path d="M3 3h-6v6h6V3z" fill="#fff"/><g><path d="M1.5 6c0-.828-.672-1.5-1.5-1.5s-1.5.672-1.5 1.5.672 1.5 1.5 1.5S1.5 6.828 1.5 6" fill="#e31f26"/></g><path d="M12 9H6v6h6V9z" fill="#fff"/><g><path d="M10.5 12c0-.828-.672-1.5-1.5-1.5s-1.5.672-1.5 1.5.672 1.5 1.5 1.5 1.5-.672 1.5-1.5" fill="#e31f26"/></g><path d="M6 9H0v6h6V9z" fill="#fff"/><g><path d="M4.5 12c0-.828-.672-1.5-1.5-1.5s-1.5.672-1.5 1.5.672 1.5 1.5 1.5 1.5-.672 1.5-1.5" fill="#e31f26"/></g></pattern><pattern height="12" width="12" patternUnits="userSpaceOnUse" patternTransform="matrix(.707 .707 -.707 .707 4183.52 7517.87)"><path d="M12-3H6v6h6v-6z" fill="#fff"/><g><path d="M10.5 0c0-.828-.672-1.5-1.5-1.5S7.5-.828 7.5 0 8.172 1.5 9 1.5 10.5.828 10.5 0" fill="#e31f26"/></g><path d="M6-3H0v6h6v-6z" fill="#fff"/><g><path d="M4.5 0c0-.828-.672-1.5-1.5-1.5S1.5-.828 1.5 0 2.172 1.5 3 1.5 4.5.828 4.5 0" fill="#e31f26"/></g><path d="M15 3H9v6h6V3z" fill="#fff"/><g><path d="M13.5 6c0-.828-.672-1.5-1.5-1.5s-1.5.672-1.5 1.5.672 1.5 1.5 1.5 1.5-.672 1.5-1.5" fill="#e31f26"/></g><path d="M9 3H3v6h6V3z" fill="#fff"/><g><path d="M7.5 6c0-.828-.672-1.5-1.5-1.5S4.5 5.172 4.5 6 5.172 7.5 6 7.5 7.5 6.828 7.5 6" fill="#e31f26"/></g><path d="M3 3h-6v6h6V3z" fill="#fff"/><g><path d="M1.5 6c0-.828-.672-1.5-1.5-1.5s-1.5.672-1.5 1.5.672 1.5 1.5 1.5S1.5 6.828 1.5 6" fill="#e31f26"/></g><path d="M12 9H6v6h6V9z" fill="#fff"/><g><path d="M10.5 12c0-.828-.672-1.5-1.5-1.5s-1.5.672-1.5 1.5.672 1.5 1.5 1.5 1.5-.672 1.5-1.5" fill="#e31f26"/></g><path d="M6 9H0v6h6V9z" fill="#fff"/><g><path d="M4.5 12c0-.828-.672-1.5-1.5-1.5s-1.5.672-1.5 1.5.672 1.5 1.5 1.5 1.5-.672 1.5-1.5" fill="#e31f26"/></g></pattern><pattern height="12" width="12" patternUnits="userSpaceOnUse" patternTransform="matrix(.707 .707 -.707 .707 4183.52 7517.87)"><path d="M12-3H6v6h6v-6z" fill="#fff"/><g><path d="M10.5 0c0-.828-.672-1.5-1.5-1.5S7.5-.828 7.5 0 8.172 1.5 9 1.5 10.5.828 10.5 0" fill="#aad801"/></g><path d="M6-3H0v6h6v-6z" fill="#fff"/><g><path d="M4.5 0c0-.828-.672-1.5-1.5-1.5S1.5-.828 1.5 0 2.172 1.5 3 1.5 4.5.828 4.5 0" fill="#aad801"/></g><path d="M15 3H9v6h6V3z" fill="#fff"/><g><path d="M13.5 6c0-.828-.672-1.5-1.5-1.5s-1.5.672-1.5 1.5.672 1.5 1.5 1.5 1.5-.672 1.5-1.5" fill="#aad801"/></g><path d="M9 3H3v6h6V3z" fill="#fff"/><g><path d="M7.5 6c0-.828-.672-1.5-1.5-1.5S4.5 5.172 4.5 6 5.172 7.5 6 7.5 7.5 6.828 7.5 6" fill="#aad801"/></g><path d="M3 3h-6v6h6V3z" fill="#fff"/><g><path d="M1.5 6c0-.828-.672-1.5-1.5-1.5s-1.5.672-1.5 1.5.672 1.5 1.5 1.5S1.5 6.828 1.5 6" fill="#aad801"/></g><path d="M12 9H6v6h6V9z" fill="#fff"/><g><path d="M10.5 12c0-.828-.672-1.5-1.5-1.5s-1.5.672-1.5 1.5.672 1.5 1.5 1.5 1.5-.672 1.5-1.5" fill="#aad801"/></g><path d="M6 9H0v6h6V9z" fill="#fff"/><g><path d="M4.5 12c0-.828-.672-1.5-1.5-1.5s-1.5.672-1.5 1.5.672 1.5 1.5 1.5 1.5-.672 1.5-1.5" fill="#aad801"/></g></pattern><pattern height="12" width="12" patternUnits="userSpaceOnUse" patternTransform="matrix(.707 .707 -.707 .707 4183.52 7517.87)"><path d="M12-3H6v6h6v-6z" fill="#fff"/><g><path d="M10.5 0c0-.828-.672-1.5-1.5-1.5S7.5-.828 7.5 0 8.172 1.5 9 1.5 10.5.828 10.5 0" fill="#aad801"/></g><path d="M6-3H0v6h6v-6z" fill="#fff"/><g><path d="M4.5 0c0-.828-.672-1.5-1.5-1.5S1.5-.828 1.5 0 2.172 1.5 3 1.5 4.5.828 4.5 0" fill="#aad801"/></g><path d="M15 3H9v6h6V3z" fill="#fff"/><g><path d="M13.5 6c0-.828-.672-1.5-1.5-1.5s-1.5.672-1.5 1.5.672 1.5 1.5 1.5 1.5-.672 1.5-1.5" fill="#aad801"/></g><path d="M9 3H3v6h6V3z" fill="#fff"/><g><path d="M7.5 6c0-.828-.672-1.5-1.5-1.5S4.5 5.172 4.5 6 5.172 7.5 6 7.5 7.5 6.828 7.5 6" fill="#aad801"/></g><path d="M3 3h-6v6h6V3z" fill="#fff"/><g><path d="M1.5 6c0-.828-.672-1.5-1.5-1.5s-1.5.672-1.5 1.5.672 1.5 1.5 1.5S1.5 6.828 1.5 6" fill="#aad801"/></g><path d="M12 9H6v6h6V9z" fill="#fff"/><g><path d="M10.5 12c0-.828-.672-1.5-1.5-1.5s-1.5.672-1.5 1.5.672 1.5 1.5 1.5 1.5-.672 1.5-1.5" fill="#aad801"/></g><path d="M6 9H0v6h6V9z" fill="#fff"/><g><path d="M4.5 12c0-.828-.672-1.5-1.5-1.5s-1.5.672-1.5 1.5.672 1.5 1.5 1.5 1.5-.672 1.5-1.5" fill="#aad801"/></g></pattern><clipPath><path d="M0 863.584h938.953V0H0v863.584z"/></clipPath><clipPath><path d="M484.377 222.584l1.434-102.5c0-33.137 26.864-60 60-60 33.138 0 60.002 26.863 60.002 60v102.5H484.377z"/></clipPath><clipPath><path d="M528.878 164.014s-1.384-9.423 2.702-21.153l-1.714-.065s1.12-22.307-8.566-37.825c0 0-.37-2.52.32-4.795l14.23 1.574-1.57 26.68c0 3.03 2.9 3.163 2.9 3.163l39.864 1.99-.127.316-.922 9.307h-1.845s-.462 4.91-.758 6.096c0 0 1.63 1.334.89 2.224-.742.89-2.423 1.878-2.423 1.878s-.446.197-.643-.148c0 0-7.117 9.686-7.957 11.466l-.247.74s.84-2.718 1.63-4.496c.296-.664.845-1.844 1.41-3.07l.073.005 3.41-5.93c-1.087-.792-.543-3.213-.543-3.213.05-.94 1.63-5.636 1.63-5.636H535.98c-6.672 19.177-4.398 23.197-4.398 23.197-1.055-.13-2.702-2.306-2.702-2.306"/></clipPath><clipPath><path d="M484.377 222.584l1.434-102.5c0-33.137 26.864-60 60-60 33.138 0 60.002 26.863 60.002 60v102.5H484.377z"/></clipPath><pattern height="12" width="12" patternUnits="userSpaceOnUse" patternTransform="matrix(.707 .707 -.707 .707 4184.58 7528.7)"><path d="M12-3H6v6h6v-6z" fill="#fff"/><g><path d="M10.5 0c0-.828-.672-1.5-1.5-1.5S7.5-.828 7.5 0 8.172 1.5 9 1.5 10.5.828 10.5 0" fill="#ff9b0b"/></g><path d="M6-3H0v6h6v-6z" fill="#fff"/><g><path d="M4.5 0c0-.828-.672-1.5-1.5-1.5S1.5-.828 1.5 0 2.172 1.5 3 1.5 4.5.828 4.5 0" fill="#ff9b0b"/></g><path d="M15 3H9v6h6V3z" fill="#fff"/><g><path d="M13.5 6c0-.828-.672-1.5-1.5-1.5s-1.5.672-1.5 1.5.672 1.5 1.5 1.5 1.5-.672 1.5-1.5" fill="#ff9b0b"/></g><path d="M9 3H3v6h6V3z" fill="#fff"/><g><path d="M7.5 6c0-.828-.672-1.5-1.5-1.5S4.5 5.172 4.5 6 5.172 7.5 6 7.5 7.5 6.828 7.5 6" fill="#ff9b0b"/></g><path d="M3 3h-6v6h6V3z" fill="#fff"/><g><path d="M1.5 6c0-.828-.672-1.5-1.5-1.5s-1.5.672-1.5 1.5.672 1.5 1.5 1.5S1.5 6.828 1.5 6" fill="#ff9b0b"/></g><path d="M12 9H6v6h6V9z" fill="#fff"/><g><path d="M10.5 12c0-.828-.672-1.5-1.5-1.5s-1.5.672-1.5 1.5.672 1.5 1.5 1.5 1.5-.672 1.5-1.5" fill="#ff9b0b"/></g><path d="M6 9H0v6h6V9z" fill="#fff"/><g><path d="M4.5 12c0-.828-.672-1.5-1.5-1.5s-1.5.672-1.5 1.5.672 1.5 1.5 1.5 1.5-.672 1.5-1.5" fill="#ff9b0b"/></g></pattern><pattern height="12" width="12" patternUnits="userSpaceOnUse" patternTransform="matrix(.707 .707 -.707 .707 4188.39 7528.6)"><path d="M12-3H6v6h6v-6z" fill="#fff"/><g><path d="M10.5 0c0-.828-.672-1.5-1.5-1.5S7.5-.828 7.5 0 8.172 1.5 9 1.5 10.5.828 10.5 0" fill="#ff9b0b"/></g><path d="M6-3H0v6h6v-6z" fill="#fff"/><g><path d="M4.5 0c0-.828-.672-1.5-1.5-1.5S1.5-.828 1.5 0 2.172 1.5 3 1.5 4.5.828 4.5 0" fill="#ff9b0b"/></g><path d="M15 3H9v6h6V3z" fill="#fff"/><g><path d="M13.5 6c0-.828-.672-1.5-1.5-1.5s-1.5.672-1.5 1.5.672 1.5 1.5 1.5 1.5-.672 1.5-1.5" fill="#ff9b0b"/></g><path d="M9 3H3v6h6V3z" fill="#fff"/><g><path d="M7.5 6c0-.828-.672-1.5-1.5-1.5S4.5 5.172 4.5 6 5.172 7.5 6 7.5 7.5 6.828 7.5 6" fill="#ff9b0b"/></g><path d="M3 3h-6v6h6V3z" fill="#fff"/><g><path d="M1.5 6c0-.828-.672-1.5-1.5-1.5s-1.5.672-1.5 1.5.672 1.5 1.5 1.5S1.5 6.828 1.5 6" fill="#ff9b0b"/></g><path d="M12 9H6v6h6V9z" fill="#fff"/><g><path d="M10.5 12c0-.828-.672-1.5-1.5-1.5s-1.5.672-1.5 1.5.672 1.5 1.5 1.5 1.5-.672 1.5-1.5" fill="#ff9b0b"/></g><path d="M6 9H0v6h6V9z" fill="#fff"/><g><path d="M4.5 12c0-.828-.672-1.5-1.5-1.5s-1.5.672-1.5 1.5.672 1.5 1.5 1.5 1.5-.672 1.5-1.5" fill="#ff9b0b"/></g></pattern><clipPath><path d="M638.378 198.584l.58-78.5c0-33.137 26.863-60 60-60s60 26.863 60 60v78.5h-120.58z"/></clipPath><pattern height="12" width="12" patternUnits="userSpaceOnUse" patternTransform="matrix(.707 .707 -.707 .707 4184.32 7524.05)"><path d="M12-3H6v6h6v-6z" fill="#fff"/><g><path d="M10.5 0c0-.828-.672-1.5-1.5-1.5S7.5-.828 7.5 0 8.172 1.5 9 1.5 10.5.828 10.5 0" fill="#4dc6dd"/></g><path d="M6-3H0v6h6v-6z" fill="#fff"/><g><path d="M4.5 0c0-.828-.672-1.5-1.5-1.5S1.5-.828 1.5 0 2.172 1.5 3 1.5 4.5.828 4.5 0" fill="#4dc6dd"/></g><path d="M15 3H9v6h6V3z" fill="#fff"/><g><path d="M13.5 6c0-.828-.672-1.5-1.5-1.5s-1.5.672-1.5 1.5.672 1.5 1.5 1.5 1.5-.672 1.5-1.5" fill="#4dc6dd"/></g><path d="M9 3H3v6h6V3z" fill="#fff"/><g><path d="M7.5 6c0-.828-.672-1.5-1.5-1.5S4.5 5.172 4.5 6 5.172 7.5 6 7.5 7.5 6.828 7.5 6" fill="#4dc6dd"/></g><path d="M3 3h-6v6h6V3z" fill="#fff"/><g><path d="M1.5 6c0-.828-.672-1.5-1.5-1.5s-1.5.672-1.5 1.5.672 1.5 1.5 1.5S1.5 6.828 1.5 6" fill="#4dc6dd"/></g><path d="M12 9H6v6h6V9z" fill="#fff"/><g><path d="M10.5 12c0-.828-.672-1.5-1.5-1.5s-1.5.672-1.5 1.5.672 1.5 1.5 1.5 1.5-.672 1.5-1.5" fill="#4dc6dd"/></g><path d="M6 9H0v6h6V9z" fill="#fff"/><g><path d="M4.5 12c0-.828-.672-1.5-1.5-1.5s-1.5.672-1.5 1.5.672 1.5 1.5 1.5 1.5-.672 1.5-1.5" fill="#4dc6dd"/></g></pattern><clipPath><path d="M638.378 198.584l.58-78.5c0-33.137 26.863-60 60-60s60 26.863 60 60v78.5h-120.58z"/></clipPath><pattern height="12" width="12" patternUnits="userSpaceOnUse" patternTransform="matrix(.707 .707 -.707 .707 4184.32 7524.05)"><path d="M12-3H6v6h6v-6z" fill="#fff"/><g><path d="M10.5 0c0-.828-.672-1.5-1.5-1.5S7.5-.828 7.5 0 8.172 1.5 9 1.5 10.5.828 10.5 0" fill="#4dc6dd"/></g><path d="M6-3H0v6h6v-6z" fill="#fff"/><g><path d="M4.5 0c0-.828-.672-1.5-1.5-1.5S1.5-.828 1.5 0 2.172 1.5 3 1.5 4.5.828 4.5 0" fill="#4dc6dd"/></g><path d="M15 3H9v6h6V3z" fill="#fff"/><g><path d="M13.5 6c0-.828-.672-1.5-1.5-1.5s-1.5.672-1.5 1.5.672 1.5 1.5 1.5 1.5-.672 1.5-1.5" fill="#4dc6dd"/></g><path d="M9 3H3v6h6V3z" fill="#fff"/><g><path d="M7.5 6c0-.828-.672-1.5-1.5-1.5S4.5 5.172 4.5 6 5.172 7.5 6 7.5 7.5 6.828 7.5 6" fill="#4dc6dd"/></g><path d="M3 3h-6v6h6V3z" fill="#fff"/><g><path d="M1.5 6c0-.828-.672-1.5-1.5-1.5s-1.5.672-1.5 1.5.672 1.5 1.5 1.5S1.5 6.828 1.5 6" fill="#4dc6dd"/></g><path d="M12 9H6v6h6V9z" fill="#fff"/><g><path d="M10.5 12c0-.828-.672-1.5-1.5-1.5s-1.5.672-1.5 1.5.672 1.5 1.5 1.5 1.5-.672 1.5-1.5" fill="#4dc6dd"/></g><path d="M6 9H0v6h6V9z" fill="#fff"/><g><path d="M4.5 12c0-.828-.672-1.5-1.5-1.5s-1.5.672-1.5 1.5.672 1.5 1.5 1.5 1.5-.672 1.5-1.5" fill="#4dc6dd"/></g></pattern><clipPath><path d="M0 863.584h938.953V0H0v863.584z"/></clipPath><clipPath><path d="M484.377 222.584l1.434-102.5c0-33.137 26.864-60 60-60 33.138 0 60.002 26.863 60.002 60v102.5H484.377z"/></clipPath><clipPath><path d="M528.878 164.014s-1.384-9.423 2.702-21.153l-1.714-.065s1.12-22.307-8.566-37.825c0 0-.37-2.52.32-4.795l14.23 1.574-1.57 26.68c0 3.03 2.9 3.163 2.9 3.163l39.864 1.99-.127.316-.922 9.307h-1.845s-.462 4.91-.758 6.096c0 0 1.63 1.334.89 2.224-.742.89-2.423 1.878-2.423 1.878s-.446.197-.643-.148c0 0-7.117 9.686-7.957 11.466l-.247.74s.84-2.718 1.63-4.496c.296-.664.845-1.844 1.41-3.07l.073.005 3.41-5.93c-1.087-.792-.543-3.213-.543-3.213.05-.94 1.63-5.636 1.63-5.636H535.98c-6.672 19.177-4.398 23.197-4.398 23.197-1.055-.13-2.702-2.306-2.702-2.306"/></clipPath><clipPath><path d="M484.377 222.584l1.434-102.5c0-33.137 26.864-60 60-60 33.138 0 60.002 26.863 60.002 60v102.5H484.377z"/></clipPath><pattern height="12" width="12" patternUnits="userSpaceOnUse" patternTransform="matrix(.707 .707 -.707 .707 4184.58 7528.7)"><path d="M12-3H6v6h6v-6z" fill="#fff"/><g><path d="M10.5 0c0-.828-.672-1.5-1.5-1.5S7.5-.828 7.5 0 8.172 1.5 9 1.5 10.5.828 10.5 0" fill="#ff9b0b"/></g><path d="M6-3H0v6h6v-6z" fill="#fff"/><g><path d="M4.5 0c0-.828-.672-1.5-1.5-1.5S1.5-.828 1.5 0 2.172 1.5 3 1.5 4.5.828 4.5 0" fill="#ff9b0b"/></g><path d="M15 3H9v6h6V3z" fill="#fff"/><g><path d="M13.5 6c0-.828-.672-1.5-1.5-1.5s-1.5.672-1.5 1.5.672 1.5 1.5 1.5 1.5-.672 1.5-1.5" fill="#ff9b0b"/></g><path d="M9 3H3v6h6V3z" fill="#fff"/><g><path d="M7.5 6c0-.828-.672-1.5-1.5-1.5S4.5 5.172 4.5 6 5.172 7.5 6 7.5 7.5 6.828 7.5 6" fill="#ff9b0b"/></g><path d="M3 3h-6v6h6V3z" fill="#fff"/><g><path d="M1.5 6c0-.828-.672-1.5-1.5-1.5s-1.5.672-1.5 1.5.672 1.5 1.5 1.5S1.5 6.828 1.5 6" fill="#ff9b0b"/></g><path d="M12 9H6v6h6V9z" fill="#fff"/><g><path d="M10.5 12c0-.828-.672-1.5-1.5-1.5s-1.5.672-1.5 1.5.672 1.5 1.5 1.5 1.5-.672 1.5-1.5" fill="#ff9b0b"/></g><path d="M6 9H0v6h6V9z" fill="#fff"/><g><path d="M4.5 12c0-.828-.672-1.5-1.5-1.5s-1.5.672-1.5 1.5.672 1.5 1.5 1.5 1.5-.672 1.5-1.5" fill="#ff9b0b"/></g></pattern><pattern height="12" width="12" patternUnits="userSpaceOnUse" patternTransform="matrix(.707 .707 -.707 .707 4188.39 7528.6)"><path d="M12-3H6v6h6v-6z" fill="#fff"/><g><path d="M10.5 0c0-.828-.672-1.5-1.5-1.5S7.5-.828 7.5 0 8.172 1.5 9 1.5 10.5.828 10.5 0" fill="#ff9b0b"/></g><path d="M6-3H0v6h6v-6z" fill="#fff"/><g><path d="M4.5 0c0-.828-.672-1.5-1.5-1.5S1.5-.828 1.5 0 2.172 1.5 3 1.5 4.5.828 4.5 0" fill="#ff9b0b"/></g><path d="M15 3H9v6h6V3z" fill="#fff"/><g><path d="M13.5 6c0-.828-.672-1.5-1.5-1.5s-1.5.672-1.5 1.5.672 1.5 1.5 1.5 1.5-.672 1.5-1.5" fill="#ff9b0b"/></g><path d="M9 3H3v6h6V3z" fill="#fff"/><g><path d="M7.5 6c0-.828-.672-1.5-1.5-1.5S4.5 5.172 4.5 6 5.172 7.5 6 7.5 7.5 6.828 7.5 6" fill="#ff9b0b"/></g><path d="M3 3h-6v6h6V3z" fill="#fff"/><g><path d="M1.5 6c0-.828-.672-1.5-1.5-1.5s-1.5.672-1.5 1.5.672 1.5 1.5 1.5S1.5 6.828 1.5 6" fill="#ff9b0b"/></g><path d="M12 9H6v6h6V9z" fill="#fff"/><g><path d="M10.5 12c0-.828-.672-1.5-1.5-1.5s-1.5.672-1.5 1.5.672 1.5 1.5 1.5 1.5-.672 1.5-1.5" fill="#ff9b0b"/></g><path d="M6 9H0v6h6V9z" fill="#fff"/><g><path d="M4.5 12c0-.828-.672-1.5-1.5-1.5s-1.5.672-1.5 1.5.672 1.5 1.5 1.5 1.5-.672 1.5-1.5" fill="#ff9b0b"/></g></pattern><pattern id="a" height="12" width="12" patternUnits="userSpaceOnUse" patternTransform="matrix(.707 .707 -.707 .707 4183.84 7520.72)"><path d="M12-3H6v6h6v-6z" fill="#fff"/><g><path d="M10.5 0c0-.828-.672-1.5-1.5-1.5S7.5-.828 7.5 0 8.172 1.5 9 1.5 10.5.828 10.5 0" fill="#b3b3b4"/></g><path d="M6-3H0v6h6v-6z" fill="#fff"/><g><path d="M4.5 0c0-.828-.672-1.5-1.5-1.5S1.5-.828 1.5 0 2.172 1.5 3 1.5 4.5.828 4.5 0" fill="#b3b3b4"/></g><path d="M15 3H9v6h6V3z" fill="#fff"/><g><path d="M13.5 6c0-.828-.672-1.5-1.5-1.5s-1.5.672-1.5 1.5.672 1.5 1.5 1.5 1.5-.672 1.5-1.5" fill="#b3b3b4"/></g><path d="M9 3H3v6h6V3z" fill="#fff"/><g><path d="M7.5 6c0-.828-.672-1.5-1.5-1.5S4.5 5.172 4.5 6 5.172 7.5 6 7.5 7.5 6.828 7.5 6" fill="#b3b3b4"/></g><path d="M3 3h-6v6h6V3z" fill="#fff"/><g><path d="M1.5 6c0-.828-.672-1.5-1.5-1.5s-1.5.672-1.5 1.5.672 1.5 1.5 1.5S1.5 6.828 1.5 6" fill="#b3b3b4"/></g><path d="M12 9H6v6h6V9z" fill="#fff"/><g><path d="M10.5 12c0-.828-.672-1.5-1.5-1.5s-1.5.672-1.5 1.5.672 1.5 1.5 1.5 1.5-.672 1.5-1.5" fill="#b3b3b4"/></g><path d="M6 9H0v6h6V9z" fill="#fff"/><g><path d="M4.5 12c0-.828-.672-1.5-1.5-1.5s-1.5.672-1.5 1.5.672 1.5 1.5 1.5 1.5-.672 1.5-1.5" fill="#b3b3b4"/></g></pattern></defs><g><g><path d="M150.938 104.824c0 41.42-33.58 75-75 75s-75-33.58-75-75 33.58-75 75-75 75 33.58 75 75z" fill="none" stroke="#231f20" stroke-width="1.25.5"/></g><g><path d="M153.702 22.09c1.782 1 3.006 2.868 3.558 4.1.902 2.32.37 5.308.006 6.555-.366 1.248-.305 5.208-.305 5.208 2.128 11.202-6.982 27.83-18.402 34.805-11.42 6.974-22.737 7.736-32.08 5.86-9.345-1.878-17.684-9.49-19.15-11.055-1.467-1.564-4.515-1.855-4.515-1.855s-6.334-.64-8.03-.733c-1.695-.09-2.62-1.27-2.62-1.27L69.876 60.8c-1.41-1.805-1.512-3.484-1.512-3.484L67.46 47.11l-6.112 1.066c-.385.544-5.552 7.183-5.552 7.183 3.703 5.73-3.608 12.55-3.608 12.55l1.16 4.416s9.113-2.694 12.285-3.71c3.17-1.014 5.824 2.49 5.824 2.49s2.45 4.346 4.284 7.016c1.837 2.67 7.73 4.604 7.73 4.604 22.003 11.363 27.058 32.562 21.302 50.32-5.756 17.758-21.575 24.242-25.82 26.014-4.246 1.773-3.944 2.1-7.813 4.155-3.87 2.055-7.408-1.726-7.408-1.726-11.28-.184-24.956-3.616-34.665-19.515-9.707-15.897.43-37.09.43-37.09l-1.41-1.19c-1.82-1.415-1.564-3.347-1.564-3.347l.884-16.116c.042-3.51 4.42-5.294 4.42-5.294l13.496-4.075-1.344-7.473c-3.52-3.077-2.282-6.086-2.282-6.086l1.48-4.286c.002 0 .93-2.003 1.49-3.266.56-1.265 2.394-2.794 2.394-2.794-.005-.51 2.272-2.823 2.272-2.823l-.26-.762 3.907-4.845c1.887-2.28 4.876-1.75 4.876-1.75l8.88-1.733-1.2-13.713c-.302-4.018 4.076-6.077 4.076-6.077s12.303-5.36 15.085-6.342c2.782-.98 4.277 2.306 4.277 2.306C102.457-.29 119.716.954 119.716.954c25.562.582 33.536 21.023 33.536 21.023" fill="#fff"/></g><g><path d="M0 0s-.106-1.533-.595-3.417C-1.085-5.3-2.172-10.5-1.953-17.035c.22-6.534 3.263-14.294 8.635-18.884 5.37-4.59 21.115-9.786 33.978 4.682 0 0 7.13 8.015 4.153 19.424 0 0-1.67 3.627 2.312 6.057 3.98 2.43 6.68-1.178 7.503-3.02.722-1.855.297-4.246.005-5.244-.292-1-.244-4.166-.244-4.166 1.7-8.962-5.587-22.266-14.723-27.845-9.135-5.58-18.19-6.19-25.665-4.69-7.475 1.503-14.146 7.595-15.32 8.845-1.173 1.25-3.61 1.484-3.61 1.484s-5.068.51-6.425.585c-1.356.073-2.095 1.015-2.095 1.015l-1.83 2.326c-1.128 1.443-1.21 2.786-1.21 2.786l-.724 8.166-4.89-.854c-.307-.434-4.44-5.746-4.44-5.746 2.962-4.585-2.887-10.042-2.887-10.042l.93-3.532s7.29 2.156 9.827 2.968c2.537.812 4.66-1.99 4.66-1.99s1.958-3.478 3.426-5.614c1.47-2.137 6.184-3.684 6.184-3.684 17.602-9.09 21.646-26.05 17.04-40.255-4.604-14.208-17.26-19.394-20.655-20.813-3.397-1.418-3.155-1.68-6.25-3.324s-5.926 1.38-5.926 1.38c-9.025.147-19.965 2.894-27.73 15.612-7.768 12.718.343 29.673.343 29.673l-1.128.95c-1.457 1.133-1.253 2.68-1.253 2.68l.706 12.892c.034 2.808 3.535 4.235 3.535 4.235l10.8 3.26-1.076 5.978c-2.815 2.462-1.825 4.87-1.825 4.87l1.184 3.428s.743 1.603 1.19 2.614c.45 1.012 1.916 2.235 1.916 2.235-.004.407 1.818 2.257 1.818 2.257l-.21.61 3.127 3.876c1.51 1.824 3.9 1.4 3.9 1.4l7.105 1.386-.96 10.97c-.242 3.214 3.26 4.86 3.26 4.86s9.842 4.29 12.068 5.075C-1.196 2.63 0 0 0 0c10.786 12.407 24.593 11.41 24.593 11.41 20.45-.464 26.83-16.817 26.83-16.817" fill="url(#a)" transform="matrix(1.25 0 0 -1.25 88.974 15.219)"/></g><g><path d="M29.498 104.885s1.91.7 4.056-.93c2.148-1.63 11.41-8.24 20.456-10.577 9.05-2.338 14.646-2.794 19.796-1.522 0 0-11.313-.287-20.197 2.952-8.886 3.238-24.626 17.29-18.07 38.428 0 0 7.532 19.722 28.633 17.357 0 0 1.403-1.06 3.36-1.097 1.96-.035 20.282-3.707 25.48-22.047 5.196-18.34-6.047-29.438-12.592-33.945-6.544-4.51-28.516-6.258-46.994 9.125 0 0-2.264 1.998-4.984 1.404" fill="none" stroke="#231f20" stroke-width=".625"/></g><g><path d="M39.49 139.914s-5.995-12.837-3.584-20.97c2.413-8.134 6.735-19.176 22.474-24.28 0 0 14.284-5.135 27.764 3.85" fill="none" stroke="#231f20" stroke-width=".625"/></g><g><path d="M64.173 150.593s-3.085 1.884-2.874 5.923c.21 4.037 4.524 5.843 7.112 5.493 2.587-.35 4.716-3.017 7.47-3.878 2.752-.86 19.775-6.884 26.888-27.01 7.113-20.124-4.002-35.09-6.007-38.375" fill="none" stroke="#231f20" stroke-width=".625"/></g><g><path d="M70.197 153.954c.98 1.607.408 3.748-1.282 4.78-1.69 1.03-3.857.565-4.838-1.042-.983-1.608-.408-3.748 1.282-4.78s3.856-.565 4.837 1.042z" fill="none" stroke="#231f20" stroke-width=".625"/></g><g><path d="M31.448 92.08c.537.88.237 2.04-.67 2.595-.906.554-2.077.29-2.614-.59-.537-.88-.237-2.04.67-2.595.906-.554 2.076-.29 2.614.59z" fill="none" stroke="#231f20" stroke-width=".625"/></g><g><path d="M42.666 77.783c.537.88.237 2.04-.67 2.595-.906.554-2.078.29-2.614-.59-.537-.88-.237-2.04.67-2.595.906-.554 2.076-.29 2.614.59z" fill="none" stroke="#231f20" stroke-width=".625"/></g><g><path d="M58.187 72.882c.537.88.237 2.04-.67 2.595-.906.554-2.078.29-2.614-.59-.537-.88-.237-2.04.67-2.595.906-.554 2.076-.29 2.614.59z" fill="none" stroke="#231f20" stroke-width=".625"/></g><g><path d="M66.842 79.894c.352.578.126 1.358-.506 1.744-.633.386-1.43.23-1.783-.346-.352-.578-.126-1.358.507-1.744.632-.386 1.43-.23 1.782.346z" fill="none" stroke="#231f20" stroke-width=".625"/></g><g><path d="M74.37 78.576c.555.906.246 2.105-.688 2.675-.935.572-2.14.298-2.695-.608-.554-.906-.245-2.105.69-2.675.934-.57 2.14-.3 2.694.61z" fill="none" stroke="#231f20" stroke-width=".625"/></g><g><path d="M36.532 87.54c-.537-.88-1.708-1.144-2.615-.59-.906.554-1.206 1.716-.67 2.595.2.326.486.568.812.714.304.24.638.57.693.894.074.432.274 1.054.388 1.39.01.08.038.162.083.236.184.302.602.384.932.182.24-.146.366-.4.347-.646l.007-.002-.28-1.65s.017-.6.212-1.068c.426-.6.487-1.405.09-2.056z" fill="none" stroke="#231f20" stroke-width=".625"/></g><g><path d="M48.468 75.948s-2.572.934-2.43 1.985l.31 1.63s.266.66 1.05.454l3.965-1.192s1.056-.508.93-1.16l-.43-1.603s-.09-1.04-3.395-.114z" fill="none" stroke="#231f20" stroke-width=".625"/></g><g><path d="M45.255 63.563s2.662-2.24 5.35.15c0 0 2.08-4.207 2.284-6.11 0 0-3.44 1.417-5.474-1.576l-.868 1.486s.29 1.258-.717 1.736c0 0-1.255 3.088-.575 4.313z" fill="none" stroke="#231f20" stroke-width=".625"/></g><g><path d="M45.255 63.563s4.245 3.147-.607 6.725" fill="none" stroke="#231f20" stroke-width=".625"/></g><g><path d="M46.272 64.445s2.68-1.43 4.81-.068" fill="none" stroke="#231f20" stroke-width=".625"/></g><g><path d="M52.188 67.91s-.55-2.846-1.583-4.2" fill="none" stroke="#231f20" stroke-width=".625"/></g><g><path d="M47.416 56.027l.766-1.766s1.105-1.88 3.313.392" fill="none" stroke="#231f20" stroke-width=".625"/></g><g><path d="M49.167 53.523s1.29 2.56 3.204.435c1.913-2.125 7.4-9.027 7.4-9.027" fill="none" stroke="#231f20" stroke-width=".625"/></g><g><path d="M70.67 61.775s2.757 1.05 5.45 1.318c2.692.268 6.75 1.207 6.75 1.207s2.41.03 4.316 2.146c0 0 9.495 8.213 15.82 9.68 6.328 1.464 19.738 3.624 32.725-4.306 12.99-7.93 18.25-18.11 20.96-31.96 0 0-.586-5.996.003-7.38.588-1.385.926-4.357.827-5.526" fill="none" stroke="#231f20" stroke-width=".625"/></g><g><path d="M88.974 15.22s-.133 1.915-.744 4.27c-.612 2.354-1.97 8.855-1.697 17.023.273 8.167 4.078 17.867 10.793 23.605 6.714 5.737 26.394 12.233 42.473-5.852 0 0 8.91-10.018 5.19-24.28 0 0-2.086-4.533 2.89-7.57 4.976-3.04 8.35 1.472 9.38 3.774.9 2.32.37 5.308.005 6.555-.365 1.248-.305 5.207-.305 5.207 2.128 11.202-6.982 27.832-18.402 34.806-11.42 6.973-22.738 7.736-32.082 5.86-9.343-1.878-17.682-9.493-19.15-11.055-1.466-1.564-4.513-1.855-4.513-1.855s-6.334-.64-8.03-.733c-1.695-.09-2.62-1.27-2.62-1.27L69.876 60.8c-1.41-1.805-1.51-3.484-1.51-3.484l-.906-10.207-6.112 1.066c-.385.543-5.553 7.183-5.553 7.183 3.704 5.73-3.607 12.55-3.607 12.55l1.16 4.416s9.112-2.694 12.285-3.71c3.17-1.014 5.823 2.49 5.823 2.49s2.45 4.346 4.284 7.016c1.836 2.67 7.73 4.604 7.73 4.604 22.003 11.363 27.058 32.562 21.3 50.32-5.755 17.758-21.574 24.24-25.82 26.014-4.245 1.773-3.942 2.1-7.81 4.155-3.87 2.055-7.41-1.726-7.41-1.726-11.28-.184-24.955-3.617-34.662-19.515-9.71-15.897.43-37.09.43-37.09l-1.41-1.19c-1.82-1.415-1.565-3.347-1.565-3.347l.883-16.116c.043-3.51 4.42-5.294 4.42-5.294l13.497-4.075-1.344-7.473c-3.52-3.077-2.282-6.086-2.282-6.086l1.48-4.286s.93-2.003 1.49-3.266c.56-1.265 2.393-2.794 2.393-2.794-.004-.51 2.274-2.823 2.274-2.823l-.26-.762 3.906-4.845c1.886-2.28 4.876-1.75 4.876-1.75l8.88-1.733-1.2-13.715c-.302-4.016 4.075-6.075 4.075-6.075s12.304-5.36 15.086-6.342c2.783-.98 4.278 2.306 4.278 2.306C102.456-.29 119.714.954 119.714.954c25.564.582 33.537 21.023 33.537 21.023" fill="none" stroke="#231f20" stroke-width="1.25.5" stroke-linecap="round" stroke-linejoin="round"/></g><g><path d="M92.536 54.845s-5.63-11.795-3.453-22.212C91.26 22.215 100.89 11.69 114.365 9.816c13.474-1.875 25.965 4.708 30.037 17.865" fill="none" stroke="#231f20" stroke-width="1.25.5" stroke-linecap="round" stroke-linejoin="round"/></g><g><path d="M91.558 52.573s-4.776-14.983.892-25.276c5.67-10.294 17.903-17.56 29.053-16.306 11.15 1.254 16.938 7.49 20.823 11.948" fill="none" stroke="#231f20" stroke-width="1.25.5" stroke-linecap="round" stroke-linejoin="round"/></g><g><path d="M153.366 25.692c.84 1.374.36 3.195-1.07 4.07-1.427.87-3.266.464-4.105-.91-.838-1.374-.36-3.195 1.07-4.067 1.43-.874 3.267-.467 4.106.907z" fill="none" stroke="#231f20" stroke-width="1.25.5" stroke-linecap="round" stroke-linejoin="round"/></g><g><path d="M71.81 47.015c.528.866.22 2.016-.686 2.57-.906.554-2.07.3-2.6-.565-.528-.865-.22-2.016.686-2.57.907-.554 2.07-.3 2.6.565z" fill="none" stroke="#231f20" stroke-width="1.25.5" stroke-linecap="round" stroke-linejoin="round"/></g><g><path d="M70.64 31.846c.53.865.222 2.016-.685 2.57-.906.554-2.07.3-2.6-.565-.528-.864-.22-2.015.686-2.57.907-.553 2.07-.3 2.6.566z" fill="none" stroke="#231f20" stroke-width="1.25.5" stroke-linecap="round" stroke-linejoin="round"/></g><g><path d="M66.737 39.045l.722 8.064" fill="none" stroke="#231f20" stroke-width="1.25.5" stroke-linecap="round" stroke-linejoin="round"/></g><g><path d="M71.04 37.433l-1.304.25s-.87.214-.89 1.228c-.02 1.013.31 3.638.31 3.638s.165.945 1.15.844c.987-.102 1.797-.414 1.797-.414s1.07-.563.97-1.547c-.102-.986-.446-3.19-.446-3.19s-.082-1.178-1.586-.807z" fill="none" stroke="#231f20" stroke-width="1.25.5" stroke-linecap="round" stroke-linejoin="round"/></g><g><path d="M81.113 52.734c.314.512.077 1.23-.527 1.598-.606.368-1.35.252-1.663-.26-.313-.514-.076-1.23.527-1.598.606-.37 1.35-.252 1.663.26z" fill="none" stroke="#231f20" stroke-width="1.25.5" stroke-linecap="round" stroke-linejoin="round"/></g><g><path d="M83.66 58.694c.548.897.234 2.09-.7 2.66-.935.57-2.137.304-2.685-.594-.55-.897-.235-2.088.7-2.658.934-.57 2.135-.305 2.684.592z" fill="none" stroke="#231f20" stroke-width="1.25.5" stroke-linecap="round" stroke-linejoin="round"/></g><g><path d="M57.225 48.147s-2.15-1.056-2.345-2.35l-1.64 1.867s1.04.733.537 1.177c-.503.444-1.036.542-1.036.542l-1.433 1.604" fill="none" stroke="#231f20" stroke-width=".625"/></g><g><path d="M47.06 50.958s2.223-1.195 4.673.133c0 0 1.4.875 1.832 1.432" fill="none" stroke="#231f20" stroke-width=".625"/></g><g><path d="M49.334 48.135s.89-.268 1.5.135c.61.402 1.325.83 1.908 1.11" fill="none" stroke="#231f20" stroke-width=".625"/></g><g><path d="M54.88 45.8s-.96-3.513 2.86-4.936" fill="none" stroke="#231f20" stroke-width=".625"/></g><g><path d="M57.448 47.692s-1.49-1.32-.13-2.152c1.36-.83 3.603-1.335 4.798.622 1.194 1.958.253 1.76.253 1.76" fill="none" stroke="#231f20" stroke-width=".625"/></g><g><path d="M61.35 48.177s1.013-1.163.766-2.014" fill="none" stroke="#231f20" stroke-width="1.25.5" stroke-linecap="round" stroke-linejoin="round"/></g><g><path d="M52.888 57.604s.74.18 2.906-2.245" fill="none" stroke="#231f20" stroke-width="1.25.5" stroke-linecap="round" stroke-linejoin="round"/></g><g><path d="M69.437 60.248s2.652 1.66 5.775 1.905c3.12.245 6.62.774 6.62.774s2.49.22 4.08 1.812c1.586 1.592 12.54 11.81 25.212 11.757 12.674-.054 31.34-3.05 41.653-24.923 0 0 3.623-10.512 3.26-14.8-.364-4.286-.23-4.572 0-5.534.234-.96 1.33-4.705.54-6.168" fill="none" stroke="#231f20" stroke-width=".625"/></g><g><path d="M79.443 23.163l-.956.227s-.625.064-.974-.172c-.565-.72-1.675-.874-2.575-.324-.963.588-1.32 1.754-.8 2.605.52.852 1.72 1.067 2.684.48.247-.152.454-.342.616-.553l.004.002s.495-.644.91-.693c.32-.038 1.007-.215 1.3-.294.11-.016.222-.055.326-.12.357-.216.498-.64.314-.94-.163-.266-.522-.35-.85-.22z" fill="none" stroke="#231f20" stroke-width=".625"/></g><g><path d="M76.492 24.096c.21.344.08.806-.293 1.032-.37.227-.842.132-1.052-.212-.21-.343-.078-.805.293-1.03.372-.23.842-.134 1.052.21z" fill="none" stroke="#231f20" stroke-width=".625"/></g><g><path d="M35.678 88.267c.27.44.13 1.014-.31 1.282s-1.014.13-1.283-.31c-.268-.44-.13-1.014.31-1.283.44-.27 1.014-.13 1.283.31z" fill="none" stroke="#231f20" stroke-width=".625"/></g><g><path d="M86.34 98.616c5.5 5.924 10.464 15.45 6.67 28.832-5.195 18.34-23.516 22.013-25.476 22.048-1.96.036-3.36 1.096-3.36 1.096-13.21 1.48-21.103-5.694-25.158-11.266l.474.59s-5.994-12.84-3.582-20.972c2.41-8.133 6.735-19.175 22.473-24.278 0 0 14.285-5.136 27.764 3.848l.195.102z" fill="#fff"/></g><g><path d="M86.34 98.616c5.5 5.924 10.464 15.45 6.67 28.832-5.195 18.34-23.516 22.013-25.476 22.048-1.96.036-3.36 1.096-3.36 1.096-13.21 1.48-21.103-5.694-25.158-11.266l.474.59s-5.994-12.84-3.582-20.972c2.41-8.133 6.735-19.175 22.473-24.278 0 0 14.285-5.136 27.764 3.848l.195.102z" fill="none" stroke="#231f20" stroke-width=".625"/></g><g><path d="M144.61 26.947c-.234 1.706.38 3.04.38 3.04 3.72 14.26-5.19 24.28-5.19 24.28-16.08 18.085-35.76 11.587-42.474 5.85-1.846-1.576-3.472-3.454-4.864-5.515l-.904-2.03s-4.776-14.98.892-25.275c5.67-10.294 17.903-17.56 29.053-16.306 11.15 1.253 16.937 7.488 20.822 11.948l.08-.046c.797 1.482 1.468 3.08 1.997 4.79" fill="#fff" stroke="#231f20" stroke-width=".625"/></g><g><path d="M144.61 26.947c-.234 1.706.38 3.04.38 3.04 3.72 14.26-5.19 24.28-5.19 24.28-16.08 18.085-35.76 11.587-42.474 5.85-1.846-1.576-3.472-3.454-4.864-5.515l-.904-2.03s-4.776-14.98.892-25.275c5.67-10.294 17.903-17.56 29.053-16.306 11.15 1.253 16.937 7.488 20.822 11.948l.08-.046c.797 1.482 1.468 3.08 1.997 4.79" fill="#fff" stroke="#231f20" stroke-width=".625"/></g><g><path d="M153.702 22.09c1.782 1 3.006 2.868 3.558 4.1.902 2.32.37 5.308.006 6.555-.366 1.248-.305 5.208-.305 5.208 2.128 11.202-6.982 27.83-18.402 34.805-11.42 6.974-22.737 7.736-32.08 5.86-9.345-1.878-17.684-9.49-19.15-11.055-1.467-1.564-4.515-1.855-4.515-1.855s-6.334-.64-8.03-.733c-1.695-.09-2.62-1.27-2.62-1.27L69.876 60.8c-1.41-1.805-1.512-3.484-1.512-3.484L67.46 47.11l-6.112 1.066c-.385.544-5.552 7.183-5.552 7.183 3.703 5.73-3.608 12.55-3.608 12.55l1.16 4.416s9.113-2.694 12.285-3.71c3.17-1.014 5.824 2.49 5.824 2.49s2.45 4.346 4.284 7.016c1.837 2.67 7.73 4.604 7.73 4.604 22.003 11.363 27.058 32.562 21.302 50.32-5.756 17.758-21.575 24.242-25.82 26.014-4.246 1.773-3.944 2.1-7.813 4.155-3.87 2.055-7.408-1.726-7.408-1.726-11.28-.184-24.956-3.616-34.665-19.515-9.707-15.897.43-37.09.43-37.09l-1.41-1.19c-1.82-1.415-1.564-3.347-1.564-3.347l.884-16.116c.042-3.51 4.42-5.294 4.42-5.294l13.496-4.075-1.344-7.473c-3.52-3.077-2.282-6.086-2.282-6.086l1.48-4.286c.002 0 .93-2.003 1.49-3.266.56-1.265 2.394-2.794 2.394-2.794-.005-.51 2.272-2.823 2.272-2.823l-.26-.762 3.907-4.845c1.887-2.28 4.876-1.75 4.876-1.75l8.88-1.733-1.2-13.713c-.302-4.018 4.076-6.077 4.076-6.077s12.303-5.36 15.085-6.342c2.782-.98 4.277 2.306 4.277 2.306C102.457-.29 119.716.954 119.716.954c25.562.582 33.536 21.023 33.536 21.023" fill="none" stroke="#231f20" stroke-width="1.25.5"/></g><g><path d="M90.487 31.234c17.928 3.524 33.563 13.436 44.44 27.267" fill="none" stroke="#231f20" stroke-width="1.25.5"/></g></g></svg>