<?xml version="1.0" encoding="UTF-8" standalone="no"?>
<svg
   xmlns:dc="http://purl.org/dc/elements/1.1/"
   xmlns:cc="http://creativecommons.org/ns#"
   xmlns:rdf="http://www.w3.org/1999/02/22-rdf-syntax-ns#"
   xmlns:svg="http://www.w3.org/2000/svg"
   xmlns="http://www.w3.org/2000/svg"
   version="1.1"
   id="svg10845"
   height="195.60275"
   width="200.0005">
  <defs
     id="defs4809">
    <pattern
       id="polka"
       patternTransform="rotate(20)"
       height="5"
       width="5"
       patternUnits="userSpaceOnUse">
      <rect
         y="0"
         x="0"
         height="5"
         width="5"
         style="fill:#ffffff"
         id="rect10288" />
      <circle
         cx="2"
         style="fill:#ff0000"
         cy="2"
         r="1.5"
         id="polka__inner" />
    </pattern>
  </defs>
  <metadata
     id="metadata10850">
    <rdf:RDF>
      <cc:Work
         rdf:about="">
        <dc:format>image/svg+xml</dc:format>
        <dc:type
           rdf:resource="http://purl.org/dc/dcmitype/StillImage" />
        <dc:title></dc:title>
      </cc:Work>
    </rdf:RDF>
  </metadata>
  <g
     style="display:inline"
     transform="translate(-282.08096,-278.41122)"
     id="layer1">
    <ellipse
       style="color:#000000;display:inline;overflow:visible;visibility:visible;opacity:1;fill:none;fill-opacity:1;fill-rule:nonzero;stroke:#000000;stroke-width:2;stroke-miterlimit:4;stroke-dasharray:none;stroke-opacity:1;marker:none;enable-background:accumulate"
       id="path6022"
       cx="382.06821"
       cy="398.07648"
       rx="74.9505"
       ry="74.950493" />
    <g
       transform="translate(-0.01300321,7.0507814e-6)"
       id="g26520">
      <g
         transform="matrix(1.25,0,0,-1.25,381.83547,467.96785)"
         id="g7333">
        <path
           d="M 0,0 C -0.07,0 -0.142,0.01 -0.212,0.03 L -1.807,0.5 c -0.389,0.114 -0.616,0.517 -0.514,0.909 0,0 0.562,2.154 0.843,3.277 0.17,0.681 0.046,5.672 -0.102,9.202 -2.76,2.342 -3.719,8.083 -4.299,11.558 -0.076,0.449 -0.143,0.857 -0.208,1.211 -0.173,0.951 -4.575,3.246 -7.789,4.921 -6.466,3.369 -12.573,6.553 -11.464,9.681 0.768,2.162 2.983,2.412 4.583,2.412 0.798,0 1.635,-0.068 2.444,-0.134 0.779,-0.062 1.516,-0.122 2.188,-0.122 2.038,0 2.329,0.579 2.441,1.123 0.285,1.378 -5.508,5.647 -9.738,8.764 -7.233,5.33 -14.066,10.365 -12.597,13.762 0.811,1.874 2.617,2.786 5.522,2.786 1.589,0 3.307,-0.266 4.822,-0.501 1.195,-0.185 2.323,-0.36 3.126,-0.36 0.728,0 0.872,0.144 0.874,0.146 0.132,0.636 -2.117,2.988 -3.605,4.544 -3.226,3.373 -6.883,7.195 -5.518,10.023 1.369,2.835 4.314,3.282 6.464,3.609 0.793,0.12 1.992,0.302 2.105,0.576 -0.046,0.29 -1.063,1.413 -1.805,2.234 -2.238,2.472 -5.621,6.209 -3.655,9.933 1.813,3.434 4.148,3.844 5.692,4.115 0.939,0.165 1.309,0.261 1.46,0.616 0.228,0.53 -0.717,2.466 -1.407,3.88 -1.36,2.787 -2.902,5.946 -1.981,8.339 0.974,2.535 2.945,2.82 4.383,3.028 1.002,0.144 1.582,0.25 1.859,0.736 0.464,0.812 0.464,2.222 0.464,3.586 0,1.571 0,3.196 0.652,4.417 0.72,1.352 1.965,1.508 2.84,1.508 0.158,0 0.313,-0.005 0.458,-0.01 0.087,-0.003 0.17,-0.006 0.249,-0.007 -0.144,1.827 0.587,6.772 1.651,7.836 0.353,0.353 0.699,0.577 1.033,0.794 0.541,0.351 1.1,0.713 1.837,1.777 1.429,2.064 5.075,2.401 5.485,2.433 3.429,-0.11 3.966,-2.275 4.398,-4.014 0.215,-0.869 0.419,-1.689 0.905,-2.338 0.593,-0.79 0.972,-0.79 1.599,-0.79 l 0.143,0 c 0.992,0 2.072,-0.119 3.411,-1.537 1.505,-1.593 0.928,-3.773 0.418,-5.696 -0.505,-1.904 -0.757,-3.114 -0.01,-3.86 0.364,-0.364 0.765,-0.519 1.341,-0.519 0.465,0 1.003,0.101 1.573,0.208 0.697,0.131 1.487,0.28 2.332,0.28 1.566,0 2.963,-0.527 4.273,-1.611 2.737,-2.265 0.978,-6.734 -0.575,-10.677 -0.949,-2.41 -2.024,-5.143 -1.39,-6.094 0.218,-0.327 0.398,-0.354 0.563,-0.354 0.459,0 1.17,0.336 1.923,0.692 1.247,0.591 2.8,1.326 4.648,1.326 1.911,0 3.724,-0.772 5.544,-2.36 1.252,-1.093 1.856,-2.499 1.794,-4.181 -0.267,-7.195 -12.97,-17.157 -13.098,-17.253 -0.287,-0.242 -0.81,-1.798 -0.508,-2.623 0.087,-0.24 0.204,-0.321 0.465,-0.321 0.417,0 1.425,0.245 3.491,1.88 3.209,2.541 7.778,3.998 12.535,3.998 4.552,0 8.058,-1.359 9.152,-3.547 0.704,-1.407 0.773,-2.995 0.201,-4.592 C 41.178,76.511 38.713,74.268 36.761,73.4 34.677,72.474 34.116,69.336 33.966,67.548 33.773,65.234 28.409,62.224 23.715,61.797 21.1,61.559 18.368,59.966 16.918,57.833 16.21,56.791 15.487,55.14 16.062,53.184 c 0.41,-1.393 3.202,-1.426 6.159,-1.462 4.878,-0.06 11.56,-0.141 11.747,-7.176 C 34.17,37.006 22.815,35.289 14.524,34.035 11.567,33.588 7.886,33.03 7.482,32.404 7.336,31.265 8.322,30.412 9.732,29.338 10.872,28.471 12.05,27.573 11.863,26.262 11.471,23.522 8.007,22.007 7.316,21.731 6.169,21.271 5.394,19.651 4.365,16.822 3.902,15.55 3.041,14.602 1.855,14.047 L 1.498,12.833 1.313,4.581 1.406,2.282 C 1.411,2.169 1.389,2.056 1.344,1.951 L 0.687,0.449 C 0.565,0.171 0.292,0 0,0"
           id="path7335"
           style="fill:#ffffff;fill-opacity:1;fill-rule:nonzero;stroke:none" />
      </g>
      <g
         transform="matrix(1.25,0,0,-1.25,378.14034,288.15085)"
         id="g7337">
        <path
           d="M 0,0 C -0.038,0 -0.077,-0.001 -0.115,-0.004 -0.562,-0.039 -4.533,-0.408 -6.16,-2.758 -6.812,-3.7 -7.264,-3.993 -7.788,-4.333 c -0.35,-0.226 -0.746,-0.483 -1.155,-0.892 -1.119,-1.119 -1.851,-5.254 -1.891,-7.6 -1.617,-0.016 -2.774,-0.656 -3.439,-1.904 -0.74,-1.387 -0.74,-3.107 -0.74,-4.77 0,-1.208 0,-2.576 -0.365,-3.215 -0.109,-0.191 -0.75,-0.284 -1.315,-0.366 -1.438,-0.208 -3.844,-0.555 -4.976,-3.499 -1.038,-2.699 0.58,-6.014 2.007,-8.939 0.515,-1.055 1.274,-2.609 1.352,-3.241 -0.191,-0.069 -0.57,-0.135 -0.86,-0.186 -1.587,-0.279 -4.242,-0.745 -6.226,-4.505 -2.211,-4.188 1.383,-8.158 3.762,-10.786 0.391,-0.432 0.872,-0.964 1.211,-1.387 -0.334,-0.067 -0.734,-0.128 -1.067,-0.178 -2.185,-0.332 -5.487,-0.834 -7.027,-4.025 -1.591,-3.296 2.256,-7.318 5.651,-10.868 0.995,-1.04 2.381,-2.489 3.036,-3.415 -0.732,0.029 -1.727,0.183 -2.775,0.346 -1.542,0.239 -3.29,0.509 -4.936,0.509 -3.191,0.001 -5.281,-1.089 -6.21,-3.238 -1.591,-3.679 3.79,-7.994 12.841,-14.664 3.609,-2.66 9.04,-6.662 9.427,-8.088 -0.064,-0.182 -0.309,-0.445 -1.686,-0.445 -0.642,0 -1.364,0.058 -2.128,0.12 -0.824,0.067 -1.675,0.136 -2.503,0.136 l -0.017,0 c -1.07,0 -4.246,-0.015 -5.273,-2.911 -1.328,-3.743 4.766,-6.919 11.823,-10.596 2.725,-1.421 6.823,-3.556 7.415,-4.483 0.059,-0.328 0.121,-0.7 0.188,-1.105 0.618,-3.701 1.532,-9.173 4.305,-11.786 0.156,-3.844 0.236,-7.993 0.104,-8.694 -0.275,-1.099 -0.836,-3.247 -0.836,-3.247 -0.204,-0.784 0.251,-1.589 1.029,-1.818 l 1.595,-0.469 c 0.141,-0.041 0.283,-0.061 0.423,-0.061 0.583,0 1.13,0.341 1.374,0.899 l 0.657,1.501 c 0.091,0.208 0.134,0.434 0.125,0.661 l -0.092,2.3 0.182,8.106 0.237,0.805 c 1.209,0.652 2.094,1.689 2.587,3.043 0.908,2.499 1.648,4.118 2.525,4.469 0.758,0.303 4.56,1.975 5.01,5.122 0.25,1.747 -1.229,2.874 -2.418,3.779 -1.065,0.811 -1.81,1.426 -1.935,2.085 0.989,0.457 3.957,0.906 6.385,1.273 8.567,1.296 20.3,3.07 20.082,11.273 -0.207,7.755 -7.598,7.845 -12.489,7.905 -2.192,0.026 -5.195,0.063 -5.448,0.924 -0.493,1.674 0.139,3.108 0.756,4.015 1.331,1.958 3.841,3.42 6.245,3.639 4.715,0.429 10.685,3.483 10.931,6.437 0.109,1.306 0.556,4.43 2.352,5.228 2.097,0.932 4.747,3.344 5.753,6.151 0.644,1.794 0.563,3.586 -0.235,5.181 -1.222,2.443 -4.985,3.961 -9.822,3.961 -4.924,0 -9.662,-1.516 -13.001,-4.159 -1.61,-1.275 -2.474,-1.604 -2.832,-1.689 -0.042,0.463 0.159,1.309 0.376,1.624 1.081,0.848 13.049,10.421 13.321,17.767 0.069,1.891 -0.64,3.542 -2.051,4.773 -1.935,1.688 -3.966,2.544 -6.037,2.544 -2.017,0 -3.654,-0.775 -4.969,-1.397 -0.541,-0.257 -1.206,-0.571 -1.531,-0.616 -0.003,0.005 -0.007,0.01 -0.01,0.015 -0.417,0.626 0.807,3.734 1.464,5.404 1.646,4.18 3.511,8.918 0.355,11.529 -1.449,1.2 -3.004,1.784 -4.751,1.784 -0.915,0 -1.741,-0.156 -2.47,-0.293 -0.535,-0.101 -1.04,-0.196 -1.435,-0.196 -0.427,0 -0.621,0.11 -0.811,0.3 -0.495,0.495 -0.139,1.838 0.205,3.137 0.532,2.008 1.194,4.507 -0.597,6.404 -1.545,1.635 -2.853,1.772 -3.959,1.772 l -0.071,0 -0.068,-0.001 c -0.548,0 -0.633,0 -1.001,0.491 C 5.45,-6.126 5.264,-5.377 5.068,-4.585 4.627,-2.811 3.962,-0.131 0.05,-0.001 0.033,0 0.017,0 0,0 m 0,-1.5 c 4.223,-0.141 2.956,-3.8 4.645,-6.053 0.795,-1.059 1.465,-1.091 2.201,-1.091 0.046,0 0.093,10e-4 0.139,10e-4 0.792,0 1.672,-0.036 2.868,-1.302 2.393,-2.534 -1.83,-7.32 0.423,-9.572 0.563,-0.563 1.187,-0.739 1.871,-0.739 1.14,0 2.445,0.489 3.905,0.489 1.168,0 2.435,-0.313 3.795,-1.439 4.082,-3.378 -4.082,-13.654 -2.111,-16.61 0.332,-0.498 0.727,-0.688 1.188,-0.688 1.498,0 3.681,2.018 6.57,2.018 1.494,0 3.176,-0.539 5.051,-2.174 6.615,-5.771 -10.135,-19.425 -11.261,-20.269 -0.812,-0.61 -1.698,-4.294 0.407,-4.294 0.813,0 2.073,0.55 3.957,2.041 3.378,2.675 8.023,3.836 12.07,3.836 4.046,0 7.495,-1.161 8.48,-3.132 1.971,-3.941 -2.252,-8.164 -4.785,-9.29 -2.534,-1.126 -3.097,-4.786 -3.238,-6.475 -0.141,-1.689 -4.926,-4.645 -9.571,-5.067 -4.645,-0.422 -9.713,-4.786 -8.305,-9.572 1.407,-4.785 17.595,2.112 17.876,-8.445 0.282,-10.557 -26.04,-8.868 -26.462,-11.965 -0.423,-3.096 4.645,-4.222 4.363,-6.193 -0.281,-1.971 -2.674,-3.378 -4.082,-3.941 -1.408,-0.563 -2.252,-2.252 -3.378,-5.349 -0.561,-1.541 -1.679,-2.245 -2.661,-2.564 l 0.221,0.03 -0.469,-1.595 -0.188,-8.352 0.094,-2.346 -0.657,-1.501 -1.595,0.469 c 0,0 0.563,2.158 0.844,3.285 0.282,1.126 -0.093,9.759 -0.093,9.759 -3.097,2.252 -3.942,9.431 -4.505,12.527 -0.563,3.097 -20.832,9.853 -19.284,14.217 0.553,1.556 2.089,1.913 3.877,1.913 1.513,0 3.205,-0.256 4.631,-0.256 1.613,0 2.887,0.327 3.175,1.721 0.845,4.082 -24.632,17.173 -22.38,22.381 0.787,1.82 2.674,2.334 4.833,2.333 2.795,0 6.045,-0.86 7.948,-0.86 0.833,0 1.409,0.165 1.576,0.638 0.845,2.393 -11.12,10.416 -9.149,14.498 1.97,4.082 7.882,2.534 8.586,4.223 0.704,1.689 -8.164,7.038 -5.49,12.105 2.675,5.068 6.335,2.815 7.179,4.786 0.845,1.971 -4.786,8.586 -3.378,12.246 1.408,3.66 5.067,1.689 6.193,3.66 1.126,1.97 0,5.912 1.126,8.023 0.522,0.979 1.407,1.111 2.178,1.11 0.285,0 0.554,-0.017 0.783,-0.017 0.491,0 0.802,0.082 0.699,0.596 -0.281,1.408 0.563,6.616 1.408,7.46 0.844,0.845 1.689,0.845 2.956,2.675 C -3.66,-1.781 0,-1.5 0,-1.5"
           id="path7339"
           style="fill:#231f20;fill-opacity:1;fill-rule:nonzero;stroke:none" />
      </g>
      <g
         transform="matrix(1.25,0,0,-1.25,433.38822,363.7481)"
         id="g7341">
        <path
           d="m 0,0 c -1.971,3.941 -13.794,4.645 -20.551,-0.704 -6.756,-5.349 -5.489,1.408 -4.363,2.252 1.126,0.845 17.876,14.498 11.26,20.27 -6.615,5.771 -10.838,-2.112 -12.809,0.844 -1.97,2.956 6.194,13.231 2.112,16.61 -4.082,3.378 -7.32,-0.563 -9.572,1.689 -2.252,2.252 1.971,7.038 -0.422,9.571 -2.393,2.534 -3.519,0.141 -5.208,2.393 -1.689,2.252 -0.422,5.912 -4.645,6.053 0,0 -3.66,-0.282 -4.927,-2.112 -1.266,-1.829 -2.111,-1.829 -2.956,-2.674 -0.844,-0.844 -1.689,-6.053 -1.407,-7.46 0.281,-1.408 -2.534,0.422 -3.66,-1.689 -1.126,-2.112 0,-6.053 -1.126,-8.023 -1.126,-1.971 -4.786,0 -6.193,-3.66 -1.408,-3.66 4.222,-10.276 3.378,-12.246 -0.845,-1.971 -4.504,0.281 -7.179,-4.786 -2.674,-5.067 6.194,-10.416 5.49,-12.105 -0.704,-1.689 -6.616,-0.141 -8.587,-4.223 -1.97,-4.082 9.994,-12.105 9.15,-14.498 -0.845,-2.393 -12.105,3.096 -14.358,-2.111 -2.252,-5.209 23.225,-18.299 22.381,-22.381 -0.845,-4.082 -10.135,0.985 -11.683,-3.378 -1.548,-4.364 18.721,-11.12 19.284,-14.217 0.563,-3.097 1.407,-10.275 4.504,-12.528 0,0 0.376,-8.633 0.094,-9.759 -0.281,-1.126 -0.844,-3.284 -0.844,-3.284 l 1.595,-0.469 0.657,1.501 -0.094,2.346 0.187,8.352 0.47,1.595 -0.221,-0.03 c 0.982,0.319 2.1,1.022 2.661,2.564 1.126,3.096 1.97,4.786 3.378,5.348 1.407,0.564 3.8,1.971 4.082,3.942 0.281,1.97 -4.786,3.097 -4.364,6.193 0.423,3.097 26.744,1.408 26.463,11.965 -0.282,10.557 -16.469,3.659 -17.877,8.445 -1.407,4.786 3.66,9.149 8.305,9.572 4.645,0.422 9.431,3.378 9.572,5.067 0.141,1.689 0.704,5.349 3.237,6.475 C -2.252,-8.164 1.971,-3.941 0,0"
           id="path7387"
           style="fill:url(#polka);fill-opacity:1;fill-rule:nonzero;stroke:none" />
      </g>
      <g
         transform="matrix(1.25,0,0,-1.25,381.48347,449.78673)"
         id="g7389">
        <path
           d="m 0,0 c 0,0 -0.657,4.88 -0.844,9.196 -0.188,4.317 -0.751,8.821 -0.657,12.575 0.094,3.753 0.094,6.193 0.187,9.571 0.094,3.378 0.751,4.88 0.657,5.818 -0.094,0.939 -0.75,4.88 -1.032,9.29 -0.282,4.411 -0.282,4.692 -0.469,7.789 -0.188,3.097 -0.376,6.381 -0.376,6.381 0,0 -1.501,16.703 -1.689,21.02 -0.187,4.316 -0.844,13.044 -0.844,15.577 0,2.534 0,5.443 0.187,7.507 0.188,2.065 0.939,18.768 1.127,20.645"
           id="path7391"
           style="fill:none;stroke:#231f20;stroke-width:0.5;stroke-linecap:butt;stroke-linejoin:miter;stroke-miterlimit:4;stroke-dasharray:none;stroke-opacity:1" />
      </g>
      <g
         transform="matrix(1.25,0,0,-1.25,369.51909,297.53297)"
         id="g7393">
        <path
           d="M 0,0 C 0,0 2.346,-5.067 5.255,-6.287"
           id="path7395"
           style="fill:none;stroke:#231f20;stroke-width:0.5;stroke-linecap:butt;stroke-linejoin:miter;stroke-miterlimit:4;stroke-dasharray:none;stroke-opacity:1" />
      </g>
      <g
         transform="matrix(1.25,0,0,-1.25,376.32234,304.57085)"
         id="g7397">
        <path
           d="M 0,0 C 0,0 3.754,1.22 5.067,2.346"
           id="path7399"
           style="fill:none;stroke:#231f20;stroke-width:0.5;stroke-linecap:butt;stroke-linejoin:miter;stroke-miterlimit:4;stroke-dasharray:none;stroke-opacity:1" />
      </g>
      <g
         transform="matrix(1.25,0,0,-1.25,388.16959,301.99035)"
         id="g7401">
        <path
           d="M 0,0 C 0,0 -6.944,-7.882 -10.041,-10.135"
           id="path7403"
           style="fill:none;stroke:#231f20;stroke-width:0.5;stroke-linecap:butt;stroke-linejoin:miter;stroke-miterlimit:4;stroke-dasharray:none;stroke-opacity:1" />
      </g>
      <g
         transform="matrix(1.25,0,0,-1.25,364.35796,308.44173)"
         id="g7405">
        <path
           d="M 0,0 C 0,0 5.349,-7.601 8.821,-9.759"
           id="path7407"
           style="fill:none;stroke:#231f20;stroke-width:0.5;stroke-linecap:butt;stroke-linejoin:miter;stroke-miterlimit:4;stroke-dasharray:none;stroke-opacity:1" />
      </g>
      <g
         transform="matrix(1.25,0,0,-1.25,375.14934,326.74035)"
         id="g7409">
        <path
           d="m 0,0 c 0,0 0.751,1.595 1.501,2.158 0.751,0.563 8.071,5.349 9.384,6.757"
           id="path7411"
           style="fill:none;stroke:#231f20;stroke-width:0.5;stroke-linecap:butt;stroke-linejoin:miter;stroke-miterlimit:4;stroke-dasharray:none;stroke-opacity:1" />
      </g>
      <g
         transform="matrix(1.25,0,0,-1.25,375.97046,342.22372)"
         id="g7413">
        <path
           d="m 0,0 c 0,0 6.193,4.504 8.07,6.85 1.877,2.346 9.759,12.481 10.229,13.607"
           id="path7415"
           style="fill:none;stroke:#231f20;stroke-width:0.5;stroke-linecap:butt;stroke-linejoin:miter;stroke-miterlimit:4;stroke-dasharray:none;stroke-opacity:1" />
      </g>
      <g
         transform="matrix(1.25,0,0,-1.25,355.44322,321.57923)"
         id="g7417">
        <path
           d="m 0,0 c 0,0 4.88,-5.255 6.381,-6.944 1.502,-1.689 2.909,-3.003 3.66,-3.66 0.751,-0.657 4.879,-5.912 6.193,-6.944"
           id="path7419"
           style="fill:none;stroke:#231f20;stroke-width:0.5;stroke-linecap:butt;stroke-linejoin:miter;stroke-miterlimit:4;stroke-dasharray:none;stroke-opacity:1" />
      </g>
      <g
         transform="matrix(1.25,0,0,-1.25,351.57234,341.1681)"
         id="g7421">
        <path
           d="M 0,0 C 0,0 1.877,-1.971 3.097,-3.472 4.317,-4.973 18.58,-17.36 20.645,-18.205"
           id="path7423"
           style="fill:none;stroke:#231f20;stroke-width:0.5;stroke-linecap:butt;stroke-linejoin:miter;stroke-miterlimit:4;stroke-dasharray:none;stroke-opacity:1" />
      </g>
      <g
         transform="matrix(1.25,0,0,-1.25,378.31647,375.3021)"
         id="g7425">
        <path
           d="m 0,0 0.845,2.44 c 0,0 5.255,6.287 7.131,9.008 1.877,2.722 3.566,4.129 6.288,6.663 2.721,2.534 14.263,12.387 14.263,12.387"
           id="path7427"
           style="fill:none;stroke:#231f20;stroke-width:0.5;stroke-linecap:butt;stroke-linejoin:miter;stroke-miterlimit:4;stroke-dasharray:none;stroke-opacity:1" />
      </g>
      <g
         transform="matrix(1.25,0,0,-1.25,346.88034,363.68948)"
         id="g7429">
        <path
           d="m 0,0 c 0,0 3.191,-1.689 5.818,-3.66 2.627,-1.97 5.724,-3.659 7.038,-4.316 1.314,-0.657 11.73,-6.1 12.481,-7.789"
           id="path7431"
           style="fill:none;stroke:#231f20;stroke-width:0.5;stroke-linecap:butt;stroke-linejoin:miter;stroke-miterlimit:4;stroke-dasharray:none;stroke-opacity:1" />
      </g>
      <g
         transform="matrix(1.25,0,0,-1.25,340.54622,384.5686)"
         id="g7433">
        <path
           d="m 0,0 c 0,0 6.756,-3.566 9.102,-4.41 2.346,-0.845 4.974,-2.346 6.851,-3.379 1.876,-1.032 14.545,-7.694 14.545,-7.694 l 1.126,-1.783"
           id="path7435"
           style="fill:none;stroke:#231f20;stroke-width:0.5;stroke-linecap:butt;stroke-linejoin:miter;stroke-miterlimit:4;stroke-dasharray:none;stroke-opacity:1" />
      </g>
      <g
         transform="matrix(1.25,0,0,-1.25,380.66247,402.86723)"
         id="g7437">
        <path
           d="m 0,0 c 0,0 5.349,8.352 9.759,12.105 4.411,3.754 22.615,16.328 29.372,19.049"
           id="path7439"
           style="fill:none;stroke:#231f20;stroke-width:0.5;stroke-linecap:butt;stroke-linejoin:miter;stroke-miterlimit:4;stroke-dasharray:none;stroke-opacity:1" />
      </g>
      <g
         transform="matrix(1.25,0,0,-1.25,421.24784,410.8436)"
         id="g7441">
        <path
           d="M 0,0 C 0,0 -28.621,1.501 -33.313,-12.762"
           id="path7443"
           style="fill:none;stroke:#231f20;stroke-width:0.5;stroke-linecap:butt;stroke-linejoin:miter;stroke-miterlimit:4;stroke-dasharray:none;stroke-opacity:1" />
      </g>
      <g
         transform="matrix(1.25,0,0,-1.25,353.68371,417.64685)"
         id="g7445">
        <path
           d="M 0,0 C 0,0 14.92,-4.129 20.738,-8.915"
           id="path7447"
           style="fill:none;stroke:#231f20;stroke-width:0.5;stroke-linecap:butt;stroke-linejoin:miter;stroke-miterlimit:4;stroke-dasharray:none;stroke-opacity:1" />
      </g>
      <g
         transform="matrix(1.25,0,0,-1.25,381.01434,441.22397)"
         id="g7449">
        <path
           d="M 0,0 C 0,0 -0.188,2.909 2.815,3.941 5.818,4.973 9.102,6.193 9.102,6.193"
           id="path7451"
           style="fill:none;stroke:#231f20;stroke-width:0.5;stroke-linecap:butt;stroke-linejoin:miter;stroke-miterlimit:4;stroke-dasharray:none;stroke-opacity:1" />
      </g>
    </g>
  </g>
</svg>
