<svg xmlns="http://www.w3.org/2000/svg" width="185.5" height="182.52"><defs><clipPath><path d="M0 863.584h938.953V0H0v863.584z"/></clipPath><pattern height="12" width="12" patternUnits="userSpaceOnUse" patternTransform="matrix(.707 .707 -.707 .707 4185.04 7519.53)"><path d="M12-3H6v6h6v-6z" fill="#fff"/><g><path d="M10.5 0c0-.828-.672-1.5-1.5-1.5S7.5-.828 7.5 0 8.172 1.5 9 1.5 10.5.828 10.5 0" fill="#33a22b"/></g><path d="M6-3H0v6h6v-6z" fill="#fff"/><g><path d="M4.5 0c0-.828-.672-1.5-1.5-1.5S1.5-.828 1.5 0 2.172 1.5 3 1.5 4.5.828 4.5 0" fill="#33a22b"/></g><path d="M15 3H9v6h6V3z" fill="#fff"/><g><path d="M13.5 6c0-.828-.672-1.5-1.5-1.5s-1.5.672-1.5 1.5.672 1.5 1.5 1.5 1.5-.672 1.5-1.5" fill="#33a22b"/></g><path d="M9 3H3v6h6V3z" fill="#fff"/><g><path d="M7.5 6c0-.828-.672-1.5-1.5-1.5S4.5 5.172 4.5 6 5.172 7.5 6 7.5 7.5 6.828 7.5 6" fill="#33a22b"/></g><path d="M3 3h-6v6h6V3z" fill="#fff"/><g><path d="M1.5 6c0-.828-.672-1.5-1.5-1.5s-1.5.672-1.5 1.5.672 1.5 1.5 1.5S1.5 6.828 1.5 6" fill="#33a22b"/></g><path d="M12 9H6v6h6V9z" fill="#fff"/><g><path d="M10.5 12c0-.828-.672-1.5-1.5-1.5s-1.5.672-1.5 1.5.672 1.5 1.5 1.5 1.5-.672 1.5-1.5" fill="#33a22b"/></g><path d="M6 9H0v6h6V9z" fill="#fff"/><g><path d="M4.5 12c0-.828-.672-1.5-1.5-1.5s-1.5.672-1.5 1.5.672 1.5 1.5 1.5 1.5-.672 1.5-1.5" fill="#33a22b"/></g></pattern><clipPath><path d="M0 863.584h938.953V0H0v863.584z"/></clipPath><clipPath><path d="M348.652 307.12c-3.405-17.55 4.312-33.81 17.236-36.317 12.923-2.508 26.16 9.687 29.565 27.237 2.52 12.993-1.054 25.277-8.323 31.8l-6.74 3.953c-.706.232-1.432.42-2.173.565-1.134.22-2.27.327-3.4.327-11.77 0-23.06-11.554-26.165-27.565"/></clipPath><pattern height="12" width="12" patternUnits="userSpaceOnUse" patternTransform="matrix(.707 .707 -.707 .707 4185.04 7519.53)"><path d="M12-3H6v6h6v-6z" fill="#fff"/><g><path d="M10.5 0c0-.828-.672-1.5-1.5-1.5S7.5-.828 7.5 0 8.172 1.5 9 1.5 10.5.828 10.5 0" fill="#33a22b"/></g><path d="M6-3H0v6h6v-6z" fill="#fff"/><g><path d="M4.5 0c0-.828-.672-1.5-1.5-1.5S1.5-.828 1.5 0 2.172 1.5 3 1.5 4.5.828 4.5 0" fill="#33a22b"/></g><path d="M15 3H9v6h6V3z" fill="#fff"/><g><path d="M13.5 6c0-.828-.672-1.5-1.5-1.5s-1.5.672-1.5 1.5.672 1.5 1.5 1.5 1.5-.672 1.5-1.5" fill="#33a22b"/></g><path d="M9 3H3v6h6V3z" fill="#fff"/><g><path d="M7.5 6c0-.828-.672-1.5-1.5-1.5S4.5 5.172 4.5 6 5.172 7.5 6 7.5 7.5 6.828 7.5 6" fill="#33a22b"/></g><path d="M3 3h-6v6h6V3z" fill="#fff"/><g><path d="M1.5 6c0-.828-.672-1.5-1.5-1.5s-1.5.672-1.5 1.5.672 1.5 1.5 1.5S1.5 6.828 1.5 6" fill="#33a22b"/></g><path d="M12 9H6v6h6V9z" fill="#fff"/><g><path d="M10.5 12c0-.828-.672-1.5-1.5-1.5s-1.5.672-1.5 1.5.672 1.5 1.5 1.5 1.5-.672 1.5-1.5" fill="#33a22b"/></g><path d="M6 9H0v6h6V9z" fill="#fff"/><g><path d="M4.5 12c0-.828-.672-1.5-1.5-1.5s-1.5.672-1.5 1.5.672 1.5 1.5 1.5 1.5-.672 1.5-1.5" fill="#33a22b"/></g></pattern><clipPath><path d="M0 863.584h938.953V0H0v863.584z"/></clipPath><clipPath><path d="M348.652 307.12c-3.405-17.55 4.312-33.81 17.236-36.317 12.923-2.508 26.16 9.687 29.565 27.237 2.52 12.993-1.054 25.277-8.323 31.8l-6.74 3.953c-.706.232-1.432.42-2.173.565-1.134.22-2.27.327-3.4.327-11.77 0-23.06-11.554-26.165-27.565"/></clipPath><pattern height="12" width="12" patternUnits="userSpaceOnUse" patternTransform="matrix(.707 .707 -.707 .707 4185.04 7519.53)"><path d="M12-3H6v6h6v-6z" fill="#fff"/><g><path d="M10.5 0c0-.828-.672-1.5-1.5-1.5S7.5-.828 7.5 0 8.172 1.5 9 1.5 10.5.828 10.5 0" fill="#33a22b"/></g><path d="M6-3H0v6h6v-6z" fill="#fff"/><g><path d="M4.5 0c0-.828-.672-1.5-1.5-1.5S1.5-.828 1.5 0 2.172 1.5 3 1.5 4.5.828 4.5 0" fill="#33a22b"/></g><path d="M15 3H9v6h6V3z" fill="#fff"/><g><path d="M13.5 6c0-.828-.672-1.5-1.5-1.5s-1.5.672-1.5 1.5.672 1.5 1.5 1.5 1.5-.672 1.5-1.5" fill="#33a22b"/></g><path d="M9 3H3v6h6V3z" fill="#fff"/><g><path d="M7.5 6c0-.828-.672-1.5-1.5-1.5S4.5 5.172 4.5 6 5.172 7.5 6 7.5 7.5 6.828 7.5 6" fill="#33a22b"/></g><path d="M3 3h-6v6h6V3z" fill="#fff"/><g><path d="M1.5 6c0-.828-.672-1.5-1.5-1.5s-1.5.672-1.5 1.5.672 1.5 1.5 1.5S1.5 6.828 1.5 6" fill="#33a22b"/></g><path d="M12 9H6v6h6V9z" fill="#fff"/><g><path d="M10.5 12c0-.828-.672-1.5-1.5-1.5s-1.5.672-1.5 1.5.672 1.5 1.5 1.5 1.5-.672 1.5-1.5" fill="#33a22b"/></g><path d="M6 9H0v6h6V9z" fill="#fff"/><g><path d="M4.5 12c0-.828-.672-1.5-1.5-1.5s-1.5.672-1.5 1.5.672 1.5 1.5 1.5 1.5-.672 1.5-1.5" fill="#33a22b"/></g></pattern><pattern height="12" width="12" patternUnits="userSpaceOnUse" patternTransform="matrix(.707 .707 -.707 .707 4190.17 7522.35)"><path d="M12-3H6v6h6v-6z" fill="#fff"/><g><path d="M10.5 0c0-.828-.672-1.5-1.5-1.5S7.5-.828 7.5 0 8.172 1.5 9 1.5 10.5.828 10.5 0" fill="#aad801"/></g><path d="M6-3H0v6h6v-6z" fill="#fff"/><g><path d="M4.5 0c0-.828-.672-1.5-1.5-1.5S1.5-.828 1.5 0 2.172 1.5 3 1.5 4.5.828 4.5 0" fill="#aad801"/></g><path d="M15 3H9v6h6V3z" fill="#fff"/><g><path d="M13.5 6c0-.828-.672-1.5-1.5-1.5s-1.5.672-1.5 1.5.672 1.5 1.5 1.5 1.5-.672 1.5-1.5" fill="#aad801"/></g><path d="M9 3H3v6h6V3z" fill="#fff"/><g><path d="M7.5 6c0-.828-.672-1.5-1.5-1.5S4.5 5.172 4.5 6 5.172 7.5 6 7.5 7.5 6.828 7.5 6" fill="#aad801"/></g><path d="M3 3h-6v6h6V3z" fill="#fff"/><g><path d="M1.5 6c0-.828-.672-1.5-1.5-1.5s-1.5.672-1.5 1.5.672 1.5 1.5 1.5S1.5 6.828 1.5 6" fill="#aad801"/></g><path d="M12 9H6v6h6V9z" fill="#fff"/><g><path d="M10.5 12c0-.828-.672-1.5-1.5-1.5s-1.5.672-1.5 1.5.672 1.5 1.5 1.5 1.5-.672 1.5-1.5" fill="#aad801"/></g><path d="M6 9H0v6h6V9z" fill="#fff"/><g><path d="M4.5 12c0-.828-.672-1.5-1.5-1.5s-1.5.672-1.5 1.5.672 1.5 1.5 1.5 1.5-.672 1.5-1.5" fill="#aad801"/></g></pattern><pattern height="12" width="12" patternUnits="userSpaceOnUse" patternTransform="matrix(.707 .707 -.707 .707 4183.02 7526.16)"><path d="M12-3H6v6h6v-6z" fill="#fff"/><g><path d="M10.5 0c0-.828-.672-1.5-1.5-1.5S7.5-.828 7.5 0 8.172 1.5 9 1.5 10.5.828 10.5 0" fill="#e49f65"/></g><path d="M6-3H0v6h6v-6z" fill="#fff"/><g><path d="M4.5 0c0-.828-.672-1.5-1.5-1.5S1.5-.828 1.5 0 2.172 1.5 3 1.5 4.5.828 4.5 0" fill="#e49f65"/></g><path d="M15 3H9v6h6V3z" fill="#fff"/><g><path d="M13.5 6c0-.828-.672-1.5-1.5-1.5s-1.5.672-1.5 1.5.672 1.5 1.5 1.5 1.5-.672 1.5-1.5" fill="#e49f65"/></g><path d="M9 3H3v6h6V3z" fill="#fff"/><g><path d="M7.5 6c0-.828-.672-1.5-1.5-1.5S4.5 5.172 4.5 6 5.172 7.5 6 7.5 7.5 6.828 7.5 6" fill="#e49f65"/></g><path d="M3 3h-6v6h6V3z" fill="#fff"/><g><path d="M1.5 6c0-.828-.672-1.5-1.5-1.5s-1.5.672-1.5 1.5.672 1.5 1.5 1.5S1.5 6.828 1.5 6" fill="#e49f65"/></g><path d="M12 9H6v6h6V9z" fill="#fff"/><g><path d="M10.5 12c0-.828-.672-1.5-1.5-1.5s-1.5.672-1.5 1.5.672 1.5 1.5 1.5 1.5-.672 1.5-1.5" fill="#e49f65"/></g><path d="M6 9H0v6h6V9z" fill="#fff"/><g><path d="M4.5 12c0-.828-.672-1.5-1.5-1.5s-1.5.672-1.5 1.5.672 1.5 1.5 1.5 1.5-.672 1.5-1.5" fill="#e49f65"/></g></pattern><pattern height="12" width="12" patternUnits="userSpaceOnUse" patternTransform="matrix(.707 .707 -.707 .707 4185.4 7526.35)"><path d="M12-3H6v6h6v-6z" fill="#fff"/><g><path d="M10.5 0c0-.828-.672-1.5-1.5-1.5S7.5-.828 7.5 0 8.172 1.5 9 1.5 10.5.828 10.5 0" fill="#4dc6dd"/></g><path d="M6-3H0v6h6v-6z" fill="#fff"/><g><path d="M4.5 0c0-.828-.672-1.5-1.5-1.5S1.5-.828 1.5 0 2.172 1.5 3 1.5 4.5.828 4.5 0" fill="#4dc6dd"/></g><path d="M15 3H9v6h6V3z" fill="#fff"/><g><path d="M13.5 6c0-.828-.672-1.5-1.5-1.5s-1.5.672-1.5 1.5.672 1.5 1.5 1.5 1.5-.672 1.5-1.5" fill="#4dc6dd"/></g><path d="M9 3H3v6h6V3z" fill="#fff"/><g><path d="M7.5 6c0-.828-.672-1.5-1.5-1.5S4.5 5.172 4.5 6 5.172 7.5 6 7.5 7.5 6.828 7.5 6" fill="#4dc6dd"/></g><path d="M3 3h-6v6h6V3z" fill="#fff"/><g><path d="M1.5 6c0-.828-.672-1.5-1.5-1.5s-1.5.672-1.5 1.5.672 1.5 1.5 1.5S1.5 6.828 1.5 6" fill="#4dc6dd"/></g><path d="M12 9H6v6h6V9z" fill="#fff"/><g><path d="M10.5 12c0-.828-.672-1.5-1.5-1.5s-1.5.672-1.5 1.5.672 1.5 1.5 1.5 1.5-.672 1.5-1.5" fill="#4dc6dd"/></g><path d="M6 9H0v6h6V9z" fill="#fff"/><g><path d="M4.5 12c0-.828-.672-1.5-1.5-1.5s-1.5.672-1.5 1.5.672 1.5 1.5 1.5 1.5-.672 1.5-1.5" fill="#4dc6dd"/></g></pattern><pattern height="12" width="12" patternUnits="userSpaceOnUse" patternTransform="matrix(.707 .707 -.707 .707 4183.02 7526.16)"><path d="M12-3H6v6h6v-6z" fill="#fff"/><g><path d="M10.5 0c0-.828-.672-1.5-1.5-1.5S7.5-.828 7.5 0 8.172 1.5 9 1.5 10.5.828 10.5 0" fill="#e49f65"/></g><path d="M6-3H0v6h6v-6z" fill="#fff"/><g><path d="M4.5 0c0-.828-.672-1.5-1.5-1.5S1.5-.828 1.5 0 2.172 1.5 3 1.5 4.5.828 4.5 0" fill="#e49f65"/></g><path d="M15 3H9v6h6V3z" fill="#fff"/><g><path d="M13.5 6c0-.828-.672-1.5-1.5-1.5s-1.5.672-1.5 1.5.672 1.5 1.5 1.5 1.5-.672 1.5-1.5" fill="#e49f65"/></g><path d="M9 3H3v6h6V3z" fill="#fff"/><g><path d="M7.5 6c0-.828-.672-1.5-1.5-1.5S4.5 5.172 4.5 6 5.172 7.5 6 7.5 7.5 6.828 7.5 6" fill="#e49f65"/></g><path d="M3 3h-6v6h6V3z" fill="#fff"/><g><path d="M1.5 6c0-.828-.672-1.5-1.5-1.5s-1.5.672-1.5 1.5.672 1.5 1.5 1.5S1.5 6.828 1.5 6" fill="#e49f65"/></g><path d="M12 9H6v6h6V9z" fill="#fff"/><g><path d="M10.5 12c0-.828-.672-1.5-1.5-1.5s-1.5.672-1.5 1.5.672 1.5 1.5 1.5 1.5-.672 1.5-1.5" fill="#e49f65"/></g><path d="M6 9H0v6h6V9z" fill="#fff"/><g><path d="M4.5 12c0-.828-.672-1.5-1.5-1.5s-1.5.672-1.5 1.5.672 1.5 1.5 1.5 1.5-.672 1.5-1.5" fill="#e49f65"/></g></pattern><pattern height="12" width="12" patternUnits="userSpaceOnUse" patternTransform="matrix(.707 .707 -.707 .707 4185.4 7526.35)"><path d="M12-3H6v6h6v-6z" fill="#fff"/><g><path d="M10.5 0c0-.828-.672-1.5-1.5-1.5S7.5-.828 7.5 0 8.172 1.5 9 1.5 10.5.828 10.5 0" fill="#4dc6dd"/></g><path d="M6-3H0v6h6v-6z" fill="#fff"/><g><path d="M4.5 0c0-.828-.672-1.5-1.5-1.5S1.5-.828 1.5 0 2.172 1.5 3 1.5 4.5.828 4.5 0" fill="#4dc6dd"/></g><path d="M15 3H9v6h6V3z" fill="#fff"/><g><path d="M13.5 6c0-.828-.672-1.5-1.5-1.5s-1.5.672-1.5 1.5.672 1.5 1.5 1.5 1.5-.672 1.5-1.5" fill="#4dc6dd"/></g><path d="M9 3H3v6h6V3z" fill="#fff"/><g><path d="M7.5 6c0-.828-.672-1.5-1.5-1.5S4.5 5.172 4.5 6 5.172 7.5 6 7.5 7.5 6.828 7.5 6" fill="#4dc6dd"/></g><path d="M3 3h-6v6h6V3z" fill="#fff"/><g><path d="M1.5 6c0-.828-.672-1.5-1.5-1.5s-1.5.672-1.5 1.5.672 1.5 1.5 1.5S1.5 6.828 1.5 6" fill="#4dc6dd"/></g><path d="M12 9H6v6h6V9z" fill="#fff"/><g><path d="M10.5 12c0-.828-.672-1.5-1.5-1.5s-1.5.672-1.5 1.5.672 1.5 1.5 1.5 1.5-.672 1.5-1.5" fill="#4dc6dd"/></g><path d="M6 9H0v6h6V9z" fill="#fff"/><g><path d="M4.5 12c0-.828-.672-1.5-1.5-1.5s-1.5.672-1.5 1.5.672 1.5 1.5 1.5 1.5-.672 1.5-1.5" fill="#4dc6dd"/></g></pattern><pattern height="12" width="12" patternUnits="userSpaceOnUse" patternTransform="matrix(.707 .707 -.707 .707 4183.52 7517.87)"><path d="M12-3H6v6h6v-6z" fill="#fff"/><g><path d="M10.5 0c0-.828-.672-1.5-1.5-1.5S7.5-.828 7.5 0 8.172 1.5 9 1.5 10.5.828 10.5 0" fill="#e31f26"/></g><path d="M6-3H0v6h6v-6z" fill="#fff"/><g><path d="M4.5 0c0-.828-.672-1.5-1.5-1.5S1.5-.828 1.5 0 2.172 1.5 3 1.5 4.5.828 4.5 0" fill="#e31f26"/></g><path d="M15 3H9v6h6V3z" fill="#fff"/><g><path d="M13.5 6c0-.828-.672-1.5-1.5-1.5s-1.5.672-1.5 1.5.672 1.5 1.5 1.5 1.5-.672 1.5-1.5" fill="#e31f26"/></g><path d="M9 3H3v6h6V3z" fill="#fff"/><g><path d="M7.5 6c0-.828-.672-1.5-1.5-1.5S4.5 5.172 4.5 6 5.172 7.5 6 7.5 7.5 6.828 7.5 6" fill="#e31f26"/></g><path d="M3 3h-6v6h6V3z" fill="#fff"/><g><path d="M1.5 6c0-.828-.672-1.5-1.5-1.5s-1.5.672-1.5 1.5.672 1.5 1.5 1.5S1.5 6.828 1.5 6" fill="#e31f26"/></g><path d="M12 9H6v6h6V9z" fill="#fff"/><g><path d="M10.5 12c0-.828-.672-1.5-1.5-1.5s-1.5.672-1.5 1.5.672 1.5 1.5 1.5 1.5-.672 1.5-1.5" fill="#e31f26"/></g><path d="M6 9H0v6h6V9z" fill="#fff"/><g><path d="M4.5 12c0-.828-.672-1.5-1.5-1.5s-1.5.672-1.5 1.5.672 1.5 1.5 1.5 1.5-.672 1.5-1.5" fill="#e31f26"/></g></pattern><pattern height="12" width="12" patternUnits="userSpaceOnUse" patternTransform="matrix(.707 .707 -.707 .707 4183.52 7517.87)"><path d="M12-3H6v6h6v-6z" fill="#fff"/><g><path d="M10.5 0c0-.828-.672-1.5-1.5-1.5S7.5-.828 7.5 0 8.172 1.5 9 1.5 10.5.828 10.5 0" fill="#e31f26"/></g><path d="M6-3H0v6h6v-6z" fill="#fff"/><g><path d="M4.5 0c0-.828-.672-1.5-1.5-1.5S1.5-.828 1.5 0 2.172 1.5 3 1.5 4.5.828 4.5 0" fill="#e31f26"/></g><path d="M15 3H9v6h6V3z" fill="#fff"/><g><path d="M13.5 6c0-.828-.672-1.5-1.5-1.5s-1.5.672-1.5 1.5.672 1.5 1.5 1.5 1.5-.672 1.5-1.5" fill="#e31f26"/></g><path d="M9 3H3v6h6V3z" fill="#fff"/><g><path d="M7.5 6c0-.828-.672-1.5-1.5-1.5S4.5 5.172 4.5 6 5.172 7.5 6 7.5 7.5 6.828 7.5 6" fill="#e31f26"/></g><path d="M3 3h-6v6h6V3z" fill="#fff"/><g><path d="M1.5 6c0-.828-.672-1.5-1.5-1.5s-1.5.672-1.5 1.5.672 1.5 1.5 1.5S1.5 6.828 1.5 6" fill="#e31f26"/></g><path d="M12 9H6v6h6V9z" fill="#fff"/><g><path d="M10.5 12c0-.828-.672-1.5-1.5-1.5s-1.5.672-1.5 1.5.672 1.5 1.5 1.5 1.5-.672 1.5-1.5" fill="#e31f26"/></g><path d="M6 9H0v6h6V9z" fill="#fff"/><g><path d="M4.5 12c0-.828-.672-1.5-1.5-1.5s-1.5.672-1.5 1.5.672 1.5 1.5 1.5 1.5-.672 1.5-1.5" fill="#e31f26"/></g></pattern><pattern height="12" width="12" patternUnits="userSpaceOnUse" patternTransform="matrix(.707 .707 -.707 .707 4183.52 7517.87)"><path d="M12-3H6v6h6v-6z" fill="#fff"/><g><path d="M10.5 0c0-.828-.672-1.5-1.5-1.5S7.5-.828 7.5 0 8.172 1.5 9 1.5 10.5.828 10.5 0" fill="#aad801"/></g><path d="M6-3H0v6h6v-6z" fill="#fff"/><g><path d="M4.5 0c0-.828-.672-1.5-1.5-1.5S1.5-.828 1.5 0 2.172 1.5 3 1.5 4.5.828 4.5 0" fill="#aad801"/></g><path d="M15 3H9v6h6V3z" fill="#fff"/><g><path d="M13.5 6c0-.828-.672-1.5-1.5-1.5s-1.5.672-1.5 1.5.672 1.5 1.5 1.5 1.5-.672 1.5-1.5" fill="#aad801"/></g><path d="M9 3H3v6h6V3z" fill="#fff"/><g><path d="M7.5 6c0-.828-.672-1.5-1.5-1.5S4.5 5.172 4.5 6 5.172 7.5 6 7.5 7.5 6.828 7.5 6" fill="#aad801"/></g><path d="M3 3h-6v6h6V3z" fill="#fff"/><g><path d="M1.5 6c0-.828-.672-1.5-1.5-1.5s-1.5.672-1.5 1.5.672 1.5 1.5 1.5S1.5 6.828 1.5 6" fill="#aad801"/></g><path d="M12 9H6v6h6V9z" fill="#fff"/><g><path d="M10.5 12c0-.828-.672-1.5-1.5-1.5s-1.5.672-1.5 1.5.672 1.5 1.5 1.5 1.5-.672 1.5-1.5" fill="#aad801"/></g><path d="M6 9H0v6h6V9z" fill="#fff"/><g><path d="M4.5 12c0-.828-.672-1.5-1.5-1.5s-1.5.672-1.5 1.5.672 1.5 1.5 1.5 1.5-.672 1.5-1.5" fill="#aad801"/></g></pattern><pattern height="12" width="12" patternUnits="userSpaceOnUse" patternTransform="matrix(.707 .707 -.707 .707 4183.52 7517.87)"><path d="M12-3H6v6h6v-6z" fill="#fff"/><g><path d="M10.5 0c0-.828-.672-1.5-1.5-1.5S7.5-.828 7.5 0 8.172 1.5 9 1.5 10.5.828 10.5 0" fill="#aad801"/></g><path d="M6-3H0v6h6v-6z" fill="#fff"/><g><path d="M4.5 0c0-.828-.672-1.5-1.5-1.5S1.5-.828 1.5 0 2.172 1.5 3 1.5 4.5.828 4.5 0" fill="#aad801"/></g><path d="M15 3H9v6h6V3z" fill="#fff"/><g><path d="M13.5 6c0-.828-.672-1.5-1.5-1.5s-1.5.672-1.5 1.5.672 1.5 1.5 1.5 1.5-.672 1.5-1.5" fill="#aad801"/></g><path d="M9 3H3v6h6V3z" fill="#fff"/><g><path d="M7.5 6c0-.828-.672-1.5-1.5-1.5S4.5 5.172 4.5 6 5.172 7.5 6 7.5 7.5 6.828 7.5 6" fill="#aad801"/></g><path d="M3 3h-6v6h6V3z" fill="#fff"/><g><path d="M1.5 6c0-.828-.672-1.5-1.5-1.5s-1.5.672-1.5 1.5.672 1.5 1.5 1.5S1.5 6.828 1.5 6" fill="#aad801"/></g><path d="M12 9H6v6h6V9z" fill="#fff"/><g><path d="M10.5 12c0-.828-.672-1.5-1.5-1.5s-1.5.672-1.5 1.5.672 1.5 1.5 1.5 1.5-.672 1.5-1.5" fill="#aad801"/></g><path d="M6 9H0v6h6V9z" fill="#fff"/><g><path d="M4.5 12c0-.828-.672-1.5-1.5-1.5s-1.5.672-1.5 1.5.672 1.5 1.5 1.5 1.5-.672 1.5-1.5" fill="#aad801"/></g></pattern></defs><g><g><path d="M168.653 104.673c0 41.42-33.58 75-75 75s-75-33.58-75-75 33.58-75 75-75 75 33.58 75 75" fill="#fff"/></g><g><path d="M168.653 104.673c0 41.42-33.58 75-75 75s-75-33.58-75-75 33.58-75 75-75 75 33.58 75 75z" fill="none" stroke="#231f20" stroke-width="1.25.5"/></g><path d="M670.132 465.604c-.15-.716-1.338-1.196-1.73-1.73-.695-.952-1.013-2.574-1.945-3.242-.668-.48-5.58-1.98-6.7-1.73-1.19.257-1.183 2.055-2.81 1.946-1.034-.074-1.15-.94-1.513-1.73-.27 0-.84.122-1.08 0 .648-.37 5.07-3.444 5.186-3.89.29-1.203-.668-5.108-1.08-5.836-.196-.345-.986-.812-1.297-1.082l.216-.648c.722.115.992.135 1.728.216-.33-2.215-1.19-3.614-1.513-5.62-.027-.135.06-1.358-.216-1.08-.643.627.094-.54.432-.866.107-.108.512-.338.647-.432-.21-1.83-.493-1.83-.865-3.027-.365-1.148-.196-1.796-.648-2.81-.034-.068-.405-.17-.433-.216-.284-.433-.17-.858-.432-1.297-.088-.142-.56-.31-.648-.432-.79-1.04-1.155-2.25-2.162-3.026-.29-.23-1.858-.845-1.945-1.082-.358-.918.087-2.472 0-3.458-.13-1.4-.797-3.405-.865-4.757-.068-1.31.54-2.526.648-3.675.318-3.566-.945-9.39-2.377-11.025-.223-.256-.568-.033-.96-.298-.263-.305-.4-1.087-.77-1.214h-.43c-.34-.365-1.325-2.034-1.73-2.16-1.08-.353-3.41.302-4.54.43l-.216-.648c.553-.35 2.458-1.892 2.81-1.946.722-.122.98.384 1.297.432 1.135.148 2.16-.4 3.026-.65-.108-.23.08-.627 0-.863-.142-.413-1.162-.846-1.513-1.082.222 0 .222-1.73 0-1.73.5.06.587-.256.865-.216.33.04.87.615 1.728.432l.217-.432c.506-.33 1.14-.4 1.513-.864.277-.365.257-.926.648-1.298.486-.466 2.256-1.478 2.594-1.945.305-.432.115-1.055.432-1.513.446-.663 1.493-.993 1.946-1.73.588-.973.675-2.277 1.297-3.243.202-.33.865-.547 1.08-.865.27-.418.142-.898.432-1.297.21-.304.96-.466 1.08-.865.25-.878-.1-2.54-.432-3.026-.66-.973-2.344-.697-3.674-1.082-.36-.107-.73-.715-1.08-.863-.704-.304-1.136-.17-1.73-.433-.156-.076-.29-.602-.432-.65-.568-.202-1.392.217-1.945 0l-.65-1.08c-.452-.31-1.864-.83-2.377-.865-1.1-.09-1.25.527-2.162.432-.236-.027-.506-.487-1.08-.432-.5.04-1.486 1.013-1.945 1.08-.44.054-1.824-.067-2.38 0v-.43c.13-.387 1.184-.86 1.515-1.082 1.034-.724 1.91-1.514 3.026-2.163 1.114-.655-1.595-.803-2.16-.863l-.217-.865c.918-.38 2.113-1.028 3.026-1.298.627-.19.95.034 1.512-.216.175-.088.278-.554.433-.648.486-.31.92-.19 1.512-.432.568-.244 1.15-.85 1.73-1.08.622-.258 1.195-.13 1.73-.434.593-.35 2.485-2.897 2.593-3.675.142-1.115-.108-1.095-.65-1.513-1.728-1.332-1.525.282-3.456-.217-.345-.095-.183-.986-1.298-.865-.257.02-.487.487-1.082.433-.648-.068-1.43-1.216-1.945-1.298-.493-.087-1.554.602-2.16.433-.15-.048-.313-.77-.434-.865-.345-.27-.912-.21-1.297-.433-.278-.16-.595-.708-.865-.863-.764-.447-1.83-.663-2.594-1.082-.595.405-1.196.804-1.297 1.73-.034.263.122.838 0 1.08-.006.007-.622 0-.648 0-.352.737-.643 1.358-.866 2.378-.77-.033-1.702-.18-2.16-.215-.03.155-.076 1.364-.217 1.73-.095.22-.385.12-.65.215 0 0-.283.972-.215 1.297.02.108.337.567.432.864-.244.114-.4-.102-.65 0-.275.1-.606.695-.862.864-.21-.175-.663-.317-.865-.432v-.433h-1.947c-.857.338-1.08 2.81-1.08 2.81l-.432.215c-.13.407.135.893 0 1.298-.115.337-.858.392-1.08.65-.466.505-.86 2.586-.433 3.457.108.23.263-.176.432.217.656-.23.52.377.648.432l-.432.215c-.243.364-.02.635-.216 1.08-.344-.155-.73-.58-1.08-.648-.413-.088-.905.136-1.298 0-.095-.034-.203-.385-.432-.432-.13-1.148-.068-1.702-.216-2.81.79-.555 1.417-.662 1.296-2.162l-.433-.65c-.1-.485 0-1.025 0-1.51-.276-.05-.31-.394-.43-.434-1.596-.548-1.427 1.02-1.515 2.16-.08-.128-.553-.053-.648-.216-.29-.492-.237-.83-.433-1.296h-.432c-.946 1.87.242.614-1.73 1.296-.094.028-.203.38-.433.433.102.222-.087.62 0 .865.17.492 1.487 1.012 1.947 1.297-.217 1.58-.09 2.08 0 3.24.297.103.506-.012.647.217.203.325-.08.642.215.865.447.338.94.196 1.514.432-.73 1.655-.77 1.98 1.295 1.946-.08.094-.135.568-.216.648-.203.17-.5-.013-.648.216-.494.73-.75 3.175-1.514 3.46-.526.19-2.088.19-2.378.215.155.114 1.237.932 1.298 1.08.08.223-.143.453 0 .65-.77-.203-1.466-.427-2.38-.65-.06.074-.363.615-.43.65-.25.093-.42-.13-.65 0 0 0-.18.857-.215 1.08.39.182.945.148 1.296.215-.115.305.108.77 0 1.082-.06.155-.547.29-.648.432-.784 1.025-.643.654-2.162.864 0 .108.074 1.034 0 1.08.52.04 1.52.36 2.378.216.377-.067.635-.546 1.296-.432.1.014 1.31.92 1.514 1.08-.318.11.56.23.647.217.157-.04.554-.62.65-.648l.432-.433c.128-.607-.264-1.5-.433-2.16.54 0 .588.336 1.298.215.155-.035.708-.616.863-.65.143-.04.508.095.65 0 0 0 .783-1.195.864-1.297.404.13 1.073.184 1.295.216-1.64 1.33-3.316 2.777-4.538 4.54-.554.79-.953 1.485-1.082 2.377-.06.406.244 1.007.217 1.08-.29.67-1.824.643-2.162 1.298-.64 1.203-.135 3.168-.648 4.54-.257.668-1.588 1.263-1.945 1.945-.527.98-.298 2.237-.865 3.243-.175.297-.892.33-1.08.65-.17.255-.048.43-.217.647 1.19.81.905.58 2.378.648.31-1.425 2.147-6.08 3.242-6.27.52-.093.46.245 1.08.217l.217-1.296c.142-.103.803.147 1.08.214.102-.14.507-1.034.65-1.08h.432c-.432 2.864-.176 2.898 1.513 1.296-.082.488.1 1.028 0 1.514l-.433.216c0 .67-.135 1.507 0 2.162.034.176.608.682.65.865.134.648.02 1.817-.217 2.377-.11.236-1.284 1.393-1.513 1.514-.406.21-.757-.04-1.08.216l-.866 1.08c-.082.216.12.663 0 .865-.068.094-2.485 2.317-2.594 2.378-.276.14-.98 0-1.296 0 .02.35.21 1.52.216 1.512.128.223-.095.4 0 .65.08.215.385.12.648.215-.223 1.953-.378 2.507 0 4.324.19-.495.71-1.217.865-1.73.1-.366 0-.92 0-1.298.378-.04.202-.257.432-.432.85.487.985.155 1.512 1.08.25.447.156.974.432 1.514.075.14.56.298.65.433.208.343.25.762.43 1.08.238-.06.845-.223.865-.217.35-.986.425-1.54.864-2.377h.433c.06.095.865 1.73.865 1.73.478.29 2.262.42 3.026.216.06-.022.647-.65.647-.65 1.074-.135.994.602 2.162.433.432-.068.825-.81 1.08-.865.63-.14 1.048.03 1.63.31 0 0 .135.066.316.122-.276.433-.318.933-.65 1.297-.416.446-1.383.73-1.728 1.297-.148.236-.033.48-.216.65-.257.22-.662.168-.865.43-.243.3-.196.77-.432 1.08-.23.293-1.446 1.17-1.514 1.515-.17.797.378 1.02.432 1.297.196 1.046-.298 2.303-.217 3.026 0 .014.65 1.512.65 1.512.148.13.56.034.648.217.297.635.1 1.128.216 1.946.208-.135.634.107.863 0v-.433c.31-.918 1.142-.575 1.946-.648-.09-.467.485 1.208.432 1.513-.022.094-.59.33-.65.433-.215.337-.033.68-.215 1.08-.92-.034-.824-.014-1.514 0 .1.4.44 1.236.432 1.297-.033.197-.533.102-.648.217-.318.31-.06 1.04-.215 1.512-.23.648-.987 1-1.298 1.513-.662 1.06-.696 2.094-.865 3.675-.513.21-.743.093-1.297.216v.433c-.405.067-1.635-.44-1.946-.433-.94.014-1.5.743-2.593.216-.466-.223-.527-1.257-1.297-1.297-.338-.02-.858.595-1.082.65-.66.147-1.7 0-2.377 0 1.027-1.886.86-1.136-.65-1.3-.62-2.376-.634-1.944-3.456-1.944-.27.64-.758 1.18-.65 2.16.197 1.865 3.075 2.197.65 3.892-1.034.716-2.412 1.047-3.892 1.297-.047.222-.405.337-.432.43-.128.365.102.704 0 1.082.466.067 1.06-.163 1.514 0 .026.007.405.642.432.648 1.06.135 2.263-.823 3.24-.865.63-.033.535.23 1.083.217-.122.783.075 1.73-.217 2.593-.162.454-1.16.953-1.296 1.514-.204.81-.095 2.04-.216 2.593-.06.244.08.62 0 .865l-1.73 1.945c-1.648 1.202-4.626.487-6.916 1.08-.554.136-1.06.852-1.945.65v-.216c-.304-.155-.792-.42-1.082-.65-.803.48-1.64 1.217-2.377 1.73 3.296 2.033-2.048 2.19 0 3.46.365.222.662.02 1.08.216 0 0 .36.736-.43.432-.19.378-.008.094-.434.215 0 .04.034.623 0 .65.933.297 2.223 1.06 3.46.864.126-.027.573-.63.646-.65.818-.25 2.155 0 3.027 0 .12.4.325 1.5.648 1.73.318.224.54-.013.865.218l-.216.432c-.392.148-1.1 0-1.514 0 .095.304-.303.546 0 1.08.258.46 2.608 1.548 3.46 1.298 0 0 .378-.98.648-1.082.23-.095.432.135.647 0 1.075 1.838 1.69 5.878 5.404 4.973.223-.062 1.864-1.506 1.945-1.514.75-.136 1.237.62 1.73.648.803.04.898-.514 1.297-.65.66-.235 1.04-.073 1.728-.215-.23.317.006.54-.216.865-.635.9-3.046 1.127-4.106 1.73-1.048.587-1.19 1.215-1.73 2.377-.784-.12-1.75.074-2.594-.216-.12-.048-.405-.86-.432-.866-.392-.175-.912.17-1.297 0 0 0-.37-.837-.432-.865-.358-.162-.716.128-1.08 0-.34-.122-.643-.966-1.08-1.08-.265-.076-3.488.242-4.11.43-.91.272-.85 1.068-1.295 1.298-.784.385-2.16.216-3.243.216-.458 1.175-.58 3.17-1.512 3.89-.623.474-1.29.448-1.946.866-.21.128-.648.784-.864.864-.92.31-1.37-.02-2.16-.43-.11.086-.813.343-.866.43-.13.19.073.643 0 .865-.122.337-2.034 1.412-2.378 1.513-1.406.39-2.358.033-3.676.432-.357.102-.932.77-1.296.864-.1.02-.575-.068-.65 0-.553.445-.296 1.033-.43 1.945.68.155 1.31.675 2.16.217.17-.095.257-.562.432-.65 1.298.92 1.642 1.196 1.513 3.027.662-.223 1.61-.243 2.162-.65.17-.127.195-.925.433-1.08.175-.128.655.054.864 0 .31-.09.62-.77.865-.865.195-.08.573.277 1.08 0 .338-.196.432-.972.865-1.08.756-.203 1.432.392 1.945.432.837.053 1.06-.413 1.946-.217 1.08.23 2.08 2.115 2.594 3.027 1.417-.42 1.978-.582 2.593.648.122.244-.007.5.217.65.35.235.668-.008 1.08.215.932-.763 1.675-1.56 2.81-2.162-.128-.824-.088-1.08-.217-1.945.9-.534 2.014-1.35 3.243-1.514 1.655-.23 4.18-.102 4.97.648.265.244.197.777.434 1.08.797 1.035 1.33 1.095 1.945 2.595.473-.216.19-.21.432-.65.46.05 1.318-.194 1.73 0 .033.015.195.995.215 1.082.702.115 1.777.622 2.593.433.797-.19.77-1.048.216-1.514.85 0 1.98-.216 2.81 0 0 0 .79.365.864.433.19.182-.19.567-.216.648.972.683 1.69 1.4 2.377 2.378 1.568-.405 3.52-.425 1.514-1.945-.143-.11-.272-.588-.433-.65-.905-.364-1.197.15-1.73.217-.344.034-.162-.317-.648-.216v-.433c.863-.257 1.633-.568 2.377-.865.52.737 1.026 2.337 2.593 1.946.04-.014.487-.46.65-.433.525.074 1.02 1.108 1.295 1.514 2-.163 5.654-.562 7.35.215.69.318 1.668 1.837 2.593 2.378.216-.143.642-.08.865-.216.48-.304.857-1.15 1.514-1.298.627-.156 1.526.128 2.16 0 .15-.035.878-.615 1.08-.65.663-.127 1.495.15 2.163 0 .215-.053 1.027-.782 1.297-.863 1.33-.427 2.633-.5 3.89-.865.142-.663.19-1.493.432-2.162.195-.56 1.21-1.426 1.297-1.946.08-.492-.318-.33-.217-.65-.357.096-1.297.434-1.297.434-1.066.11-3.148-.236-3.674-.65-.305-.235-.278-1.066-.65-1.295-.168-.1-1.006-.1-1.08-.216-.223-.325-.142-1.23-.216-1.514.223 0 1 .156 1.513.216.73-1.055 1.492-1.818 2.16-3.027 1.777.264 2.513-.054 3.892-.65-.028-.14.134-.87-.217-.648l-.216-.43c.682-.205 1.56-.306 2.16-.65.305-.182.575-.865.866-1.08.256-.203.6-.02.864-.217.622-.486.54-2.128.865-3.026.35-.993 1.236-1.818 1.728-2.81.385-.784 1.312-2.967 1.082-4.108" fill="url(#pattern41148)" transform="translate(-522.291 -350.093)"/><path d="M147.84 115.51c-.148-.715-1.337-1.195-1.728-1.728-.696-.953-1.014-2.575-1.946-3.243-.668-.48-5.58-1.98-6.7-1.73-1.19.256-1.183 2.054-2.81 1.945-1.034-.074-1.15-.94-1.513-1.73-.27 0-.84.122-1.08 0 .648-.37 5.07-3.444 5.186-3.89.29-1.203-.67-5.108-1.082-5.836-.195-.346-.985-.813-1.296-1.083l.216-.648c.723.114.993.134 1.73.215-.332-2.215-1.19-3.614-1.514-5.62-.027-.135.06-1.358-.216-1.08-.642.627.095-.54.433-.866.108-.11.513-.34.648-.433-.21-1.83-.492-1.83-.864-3.027-.365-1.148-.196-1.796-.648-2.81-.034-.068-.405-.17-.433-.216-.284-.433-.17-.858-.432-1.297-.087-.142-.56-.31-.647-.432-.79-1.04-1.155-2.25-2.162-3.026-.29-.23-1.857-.846-1.944-1.083-.358-.918.087-2.472 0-3.458-.13-1.4-.797-3.406-.865-4.758-.067-1.31.542-2.526.65-3.675.317-3.566-.946-9.39-2.378-11.025-.223-.256-.568-.033-.96-.298-.263-.305-.4-1.087-.77-1.214h-.43c-.34-.365-1.325-2.034-1.73-2.16-1.08-.353-3.41.302-4.54.43l-.216-.648c.553-.35 2.458-1.892 2.81-1.946.722-.12.98.385 1.297.433 1.135.147 2.16-.4 3.026-.65-.11-.23.08-.628 0-.864-.143-.412-1.163-.845-1.514-1.08.222 0 .222-1.73 0-1.73.5.06.587-.257.865-.217.332.04.872.614 1.73.43l.216-.43c.506-.33 1.14-.4 1.513-.865.276-.365.256-.926.647-1.298.486-.466 2.256-1.478 2.594-1.945.306-.432.116-1.055.433-1.513.446-.664 1.493-.994 1.946-1.73.587-.974.674-2.278 1.296-3.244.202-.33.865-.546 1.08-.864.27-.418.142-.898.432-1.297.21-.304.96-.466 1.08-.865.25-.878-.1-2.54-.43-3.026-.662-.973-2.345-.697-3.675-1.082-.36-.107-.73-.715-1.08-.863-.704-.305-1.136-.17-1.73-.434-.156-.075-.29-.6-.432-.65-.567-.2-1.39.218-1.944 0l-.65-1.08c-.452-.31-1.864-.83-2.377-.864-1.102-.09-1.25.527-2.163.432-.236-.027-.506-.487-1.08-.432-.5.04-1.486 1.013-1.945 1.08-.44.054-1.824-.067-2.38 0v-.43c.13-.387 1.184-.86 1.515-1.082 1.034-.724 1.91-1.514 3.026-2.163 1.114-.655-1.595-.803-2.16-.863l-.217-.865c.918-.38 2.113-1.03 3.026-1.3.627-.188.95.035 1.512-.215.175-.088.278-.554.433-.648.486-.31.92-.19 1.512-.432.567-.244 1.148-.85 1.73-1.08.62-.258 1.194-.13 1.728-.434.594-.35 2.486-2.896 2.594-3.674.142-1.114-.108-1.094-.65-1.512-1.728-1.332-1.525.282-3.456-.217-.345-.095-.183-.986-1.298-.865-.256.02-.486.487-1.08.433-.65-.068-1.432-1.216-1.946-1.298-.493-.087-1.554.602-2.16.433-.15-.048-.313-.77-.434-.865-.344-.27-.91-.21-1.296-.433-.278-.16-.595-.708-.865-.863-.764-.448-1.83-.664-2.594-1.083-.595.405-1.196.804-1.297 1.73-.034.263.122.838 0 1.08-.006.007-.622 0-.648 0-.35.737-.642 1.358-.865 2.378-.77-.033-1.702-.18-2.16-.215-.03.155-.076 1.364-.217 1.73-.095.22-.385.12-.65.215 0 0-.283.972-.215 1.297.02.108.338.567.433.864-.244.115-.4-.1-.65 0-.275.1-.606.696-.862.865-.21-.174-.662-.316-.864-.43v-.434h-1.947c-.858.34-1.08 2.81-1.08 2.81l-.433.216c-.13.407.135.893 0 1.298-.115.337-.858.392-1.08.65-.466.505-.86 2.586-.433 3.457.108.23.263-.176.432.217.656-.23.52.377.648.432l-.432.216c-.243.364-.02.635-.216 1.08-.344-.155-.73-.58-1.08-.648-.413-.088-.905.136-1.298 0-.094-.034-.202-.385-.43-.432-.13-1.148-.07-1.702-.217-2.81.79-.555 1.418-.662 1.297-2.162l-.433-.65c-.1-.485 0-1.025 0-1.51-.276-.05-.31-.394-.43-.434-1.596-.547-1.427 1.02-1.515 2.16-.082-.127-.554-.052-.65-.215-.29-.49-.236-.83-.432-1.295h-.43c-.947 1.87.24.614-1.73 1.296-.095.03-.204.38-.434.434.102.222-.087.62 0 .865.17.49 1.487 1.01 1.947 1.296-.216 1.58-.088 2.08 0 3.24.298.104.507-.01.648.218.204.325-.08.642.216.865.447.337.94.195 1.514.43-.73 1.656-.77 1.98 1.296 1.947-.08.094-.135.568-.216.648-.202.17-.5-.013-.647.216-.493.73-.75 3.176-1.513 3.46-.526.19-2.088.19-2.378.216.154.115 1.236.933 1.297 1.08.08.224-.143.454 0 .65-.77-.202-1.466-.426-2.38-.65-.06.075-.363.616-.43.65-.25.094-.42-.13-.65 0 0 0-.18.858-.215 1.08.39.183.945.15 1.296.216-.114.305.11.77 0 1.082-.06.155-.546.29-.647.432-.783 1.026-.642.655-2.16.865 0 .11.073 1.035 0 1.08.52.042 1.518.36 2.377.217.377-.067.635-.546 1.296-.432.1.014 1.31.92 1.514 1.08-.318.11.56.23.647.217.157-.04.554-.62.65-.648l.432-.433c.128-.606-.264-1.498-.433-2.16.54 0 .588.337 1.298.216.156-.034.71-.615.864-.65.143-.04.508.096.65 0 0 0 .783-1.194.864-1.296.405.13 1.074.184 1.296.216-1.64 1.33-3.316 2.778-4.538 4.54-.554.79-.953 1.486-1.082 2.378-.06.406.244 1.007.217 1.08-.29.67-1.823.643-2.16 1.298-.642 1.203-.136 3.168-.65 4.54-.256.668-1.587 1.263-1.944 1.945-.527.98-.298 2.237-.865 3.243-.174.297-.89.33-1.08.65-.168.255-.047.43-.216.647 1.19.81.905.58 2.378.648.31-1.425 2.147-6.08 3.242-6.27.52-.093.46.245 1.08.217l.217-1.296c.143-.102.804.148 1.082.215.1-.14.506-1.033.65-1.08h.43c-.43 2.865-.175 2.9 1.514 1.297-.082.488.1 1.028 0 1.514l-.433.217c0 .67-.135 1.507 0 2.162.034.175.608.68.65.864.134.648.02 1.817-.217 2.377-.11.237-1.284 1.394-1.513 1.515-.406.21-.757-.04-1.08.216l-.866 1.08c-.082.217.12.664 0 .866-.068.095-2.485 2.318-2.594 2.38-.276.14-.98 0-1.296 0 .02.35.21 1.52.216 1.51.128.224-.095.4 0 .65.08.216.385.12.648.216-.222 1.953-.377 2.507 0 4.324.19-.494.71-1.216.866-1.73.1-.365 0-.92 0-1.297.378-.04.202-.258.432-.433.85.487.986.155 1.513 1.08.25.447.157.974.433 1.514.075.142.56.3.65.434.208.343.25.762.43 1.08.238-.06.845-.223.865-.217.35-.986.426-1.54.865-2.377h.433c.06.095.865 1.73.865 1.73.48.29 2.263.42 3.027.216.06-.02.647-.65.647-.65 1.074-.134.994.603 2.162.434.432-.068.825-.81 1.08-.865.63-.14 1.048.03 1.63.31 0 0 .135.066.316.122-.276.433-.318.933-.65 1.297-.416.446-1.383.73-1.728 1.297-.148.237-.033.48-.216.65-.256.222-.66.17-.864.432-.243.298-.196.77-.432 1.08-.23.292-1.446 1.17-1.514 1.514-.17.798.38 1.02.433 1.298.197 1.046-.297 2.303-.216 3.026 0 .014.65 1.512.65 1.512.148.13.56.034.648.217.297.634.1 1.127.216 1.945.21-.135.635.107.864 0v-.433c.31-.918 1.142-.575 1.946-.648-.09-.467.486 1.208.433 1.513-.02.094-.588.33-.648.433-.216.337-.034.68-.216 1.08-.92-.034-.824-.014-1.514 0 .1.4.44 1.236.432 1.297-.033.197-.533.102-.648.217-.318.31-.06 1.04-.215 1.512-.23.65-.986 1-1.297 1.514-.662 1.06-.696 2.094-.865 3.675-.512.21-.742.093-1.296.216v.434c-.405.067-1.635-.44-1.946-.433-.94.015-1.5.744-2.593.217-.466-.223-.527-1.257-1.297-1.297-.338-.02-.858.595-1.082.65-.66.147-1.7 0-2.377 0 1.027-1.886.86-1.136-.65-1.3-.62-2.376-.634-1.944-3.456-1.944-.27.64-.757 1.18-.648 2.16.196 1.866 3.074 2.198.65 3.893-1.035.715-2.413 1.046-3.893 1.296-.048.223-.406.338-.433.43-.128.366.102.705 0 1.083.466.066 1.06-.164 1.514 0 .027.006.406.64.433.647 1.06.135 2.263-.823 3.24-.865.63-.033.535.23 1.083.217-.122.782.075 1.73-.217 2.592-.163.454-1.162.953-1.297 1.514-.204.81-.095 2.04-.216 2.594-.06.244.08.62 0 .865l-1.73 1.945c-1.648 1.202-4.626.487-6.916 1.08-.553.136-1.06.852-1.944.65v-.216c-.304-.155-.792-.42-1.082-.65-.803.48-1.64 1.217-2.377 1.73 3.296 2.033-2.048 2.19 0 3.46.365.222.662.02 1.08.216 0 0 .36.736-.43.432-.19.378-.008.094-.434.215 0 .04.034.623 0 .65.933.297 2.223 1.06 3.46.864.126-.026.573-.628.646-.648.817-.25 2.154 0 3.026 0 .12.4.325 1.5.648 1.73.318.223.54-.014.865.217l-.217.43c-.392.15-1.1 0-1.514 0 .094.305-.304.547 0 1.08.257.46 2.607 1.55 3.458 1.3 0 0 .38-.98.65-1.083.228-.095.43.135.646 0 1.075 1.838 1.69 5.878 5.404 4.973.224-.062 1.865-1.506 1.946-1.514.75-.135 1.237.62 1.73.65.803.04.898-.515 1.297-.65.662-.236 1.04-.074 1.73-.216-.23.317.005.54-.217.865-.635.9-3.046 1.127-4.106 1.73-1.048.587-1.19 1.215-1.73 2.377-.784-.12-1.75.074-2.594-.216-.12-.047-.405-.86-.432-.865-.39-.174-.91.17-1.296 0 0 0-.37-.836-.432-.864-.358-.16-.716.13-1.08 0-.34-.12-.643-.965-1.08-1.08-.265-.075-3.488.243-4.11.43-.91.273-.85 1.07-1.295 1.3-.784.384-2.16.215-3.243.215-.458 1.176-.58 3.17-1.512 3.892-.623.473-1.29.447-1.946.865-.21.128-.648.784-.864.864-.92.312-1.37-.02-2.16-.43-.11.087-.813.344-.866.43-.13.19.073.644 0 .866-.122.338-2.034 1.413-2.378 1.514-1.405.39-2.357.033-3.675.432-.357.102-.932.77-1.296.864-.1.02-.575-.067-.65 0-.553.446-.296 1.034-.43 1.946.68.155 1.31.675 2.16.217.17-.096.257-.563.432-.65 1.297.92 1.64 1.195 1.512 3.026.662-.222 1.61-.242 2.162-.65.17-.126.195-.924.433-1.08.175-.127.655.055.864 0 .312-.088.622-.77.866-.864.195-.08.573.277 1.08 0 .338-.196.432-.972.865-1.08.757-.203 1.433.392 1.946.432.837.053 1.06-.413 1.946-.217 1.08.23 2.08 2.115 2.594 3.027 1.417-.42 1.978-.582 2.593.648.12.244-.008.5.216.65.35.235.668-.008 1.08.215.932-.763 1.675-1.56 2.81-2.162-.128-.824-.088-1.08-.217-1.945.898-.534 2.013-1.35 3.242-1.514 1.655-.23 4.18-.1 4.97.65.265.243.197.776.434 1.08.797 1.034 1.33 1.094 1.945 2.594.474-.216.19-.21.433-.65.46.05 1.318-.194 1.73 0 .033.015.195.995.215 1.082.703.115 1.778.622 2.594.433.797-.19.77-1.048.216-1.514.85 0 1.98-.215 2.81 0 0 0 .79.366.865.434.19.182-.19.567-.216.648.972.683 1.69 1.4 2.377 2.378 1.568-.405 3.52-.425 1.514-1.945-.142-.11-.27-.588-.432-.65-.905-.364-1.197.15-1.73.217-.344.034-.162-.317-.648-.216v-.432c.864-.257 1.634-.568 2.378-.865.52.736 1.026 2.336 2.593 1.945.04-.014.486-.46.648-.433.526.074 1.02 1.108 1.296 1.514 2-.162 5.654-.56 7.35.216.69.318 1.668 1.837 2.593 2.378.216-.143.642-.08.865-.216.48-.304.857-1.15 1.514-1.298.627-.155 1.526.13 2.16 0 .15-.034.878-.614 1.08-.65.663-.126 1.495.15 2.163 0 .214-.052 1.026-.78 1.296-.862 1.33-.427 2.633-.5 3.89-.865.142-.664.19-1.494.432-2.163.196-.56 1.21-1.426 1.298-1.946.08-.49-.318-.33-.217-.648-.358.095-1.298.433-1.298.433-1.066.11-3.148-.236-3.674-.65-.304-.235-.277-1.066-.65-1.295-.167-.1-1.005-.1-1.08-.216-.222-.325-.14-1.23-.215-1.514.223 0 1 .156 1.513.216.73-1.054 1.492-1.817 2.16-3.026 1.777.264 2.513-.054 3.892-.65-.027-.14.135-.87-.216-.648l-.216-.43c.682-.205 1.56-.306 2.16-.65.305-.182.575-.865.866-1.08.256-.203.6-.02.864-.217.622-.486.54-2.128.865-3.026.352-.994 1.237-1.82 1.73-2.81.384-.785 1.31-2.968 1.08-4.11z" fill="none" stroke="#231f20" stroke-width="1.875" stroke-linecap="round" stroke-linejoin="round"/><path d="M590.156 453.066c.062.06.608.155.65.216.364-.58 1.012-1.283 1.295-1.946.245-.58.136-1.04.434-1.512.44-.717 1.486-1.467 1.945-2.162.27-.42.155-.892.43-1.297.59-.87 1.684-1.38 2.38-2.16.715-.82 1.06-1.718 1.73-2.596.053-.083.626-.34.648-.434.113-.607-.407-.837-.433-1.08-.095-.696.1-2.074.216-3.027.02-.21.27-1.486.433-1.73l.432-.216c.62-2.108.284-3.777.65-6.27.04-.323.72-1.5.648-1.944-.042-.21-.555-.636-.65-.865.392-.08.116-.088.217-.433.588 0 1.608.183 2.16 0 .3-.108.346-.763.65-.865.44-.158.464.252 1.08.217.785-.122 1.506-1.4 1.946-1.945 1.392.41.965.215 2.162 0 .095-1.015.135-2.05 0-2.596.513.06.472-.378 1.08-.217.06.014.378.575.432.65 0 0 .575.033.216-.217 0 0 .852-.026.217-.216.053-.034.426-.21.432-.217.278-.566.068-1.107.216-1.728.508-2.19.52-2.143-1.51-3.028.376-.547.47-.892.863-1.513.385.37-.088-1.02-.65-1.298h-.214c-.562-1.615.418-4.127.214-5.405-.128-.77-.816-.87-1.296-1.297-.53-.468-.685-.645-.877-.77-.207-.136-.46-.21-1.284-.526l-.216-.433c-.764-.086-.797.366-1.08.434-1.316.283-2.56-.384-3.244-.433-.587-.046-.985.4-1.296.434-.642.066-.355-.148.085-.38.406-.215.944-.447.996-.485.176-.143.08-.764.216-.866-.635-1.088-1.405-2.053-2.16-3.027-.298.224-.588.697-.865.865-.5.29-1.094.088-1.512.433l-.65 1.297c-.255-.216-.56-.533-.863-.648.088-.338.405-.548.433-.65.127-.54-.305-.277-.217-.648-.546-.135-.782-.23-1.296-.432-.163.142-.345.696-.65.648-.073-.013-.39-.783-.43-.865-1.014.11-2.64-.27-3.46 0-.18.055-.29.73-.43.865-.325.284-.954.163-1.3.433-.81.62-.533 1.79-.43 2.81-2.48-.67-.946.15-1.946.432-.67.183-.797-.256-1.297-.216-.35.02-1.012.54-1.296.65.48.925.865 1.67 1.297 2.594.42 0 1.365-.175 1.73 0 .048.02 0 .966 0 1.08.325.075.75 0 1.08 0l.218.433c-.298.183-.73.763-1.082.865-1.208.338-1.857 0-2.81.432-1.405.628-.87 2.08-1.296 2.162-.33.06-.297-.392-.432-.432-.4-.143-.893.087-1.298 0-.076-.02-.16-.062-.25-.12-.345-.222-.762-.665-1.046-.745-.744-.21-1.413.086-1.946-.218l-.217-.865c-.16-.222-3.194-2.302-3.456-2.377-1.594-.486-2.4.054-3.89-.433-.4.36-1.426 1.163-1.514 1.73-.087.487.31.324.216.65.588-.13.682-.23 1.297-.218 0 .06-.034.85 0 .864-.33 1.486-1.027 2.486-1.513 4.107.23.05.338.4.433.434.397.135.885-.122 1.296 0 .1.027.5.553.648.648.438-.325-.217.865-.217.865-.977-.148-1.465-.128-2.592-.216-.92 2.865-.358 1.345-2.162 1.514l-.432.432c-.345.088-.73 0-1.08 0 .066.284.316.92.215 1.08-.027.04-.602 0-.65 0-.046.083-.17.406-.215.434h-.216c.356.452.985 1.98 1.51 2.16.238.082.636-.106.866 0-.473 1.79-.73 1.515 1.73 1.515.128.39.243 1.405.432 1.73.12.215.776.187.865.43v.434c.85.485 1.796.046 2.808.43.44.162.75.785 1.083 1.08l-.217.65c-.796 0-1.81-.155-2.593 0-.25.04-.905.6-1.08.65-.163.032-.508-.103-.65 0-.965.614-1.067 2.52-2.16 3.025-.582.264-1.224-.04-1.947.216-.14.05-.303.562-.43.65-.475.29-1.102.014-1.73.216-.27.08-.602.52-.865.65l.218.863c.43.094.843 0 1.296 0-.1.087-.13.566-.216.647-.487.42-1.054.635-1.513 1.082-.047-.063-.4-.643-.432-.65-.528-.135-.318.357-.65.216-.21.92-.37 1.716-.648 2.594-.04-.06-.587-.155-.647-.216-.407-.392.026-1.074-1.082-.865-.06.007-.277.262-.648.215v-.43c-1.763 0-3.648.092-4.107 1.295-.094.23.136.432 0 .65 1.028.262 2.196 1.072 3.028 1.296 1.316.344 2.35.25 3.673.433-.086.025-.694.6-.862.646-1.947.494-4.71-.195-6.053.865-1.074.832-.554 2.332-.432 1.73.337.055 1.29.36 1.728.434.21.627-.072 1.02.434 1.296.972.527 2.19.047 3.026-.216-.087.317.223.405-.216.432l-.216.433c-.473.16-1.04-.156-1.513 0-.33.1-.817.755-1.08.864-.57.208-.974.073-1.514.216 0 0-.44 1.087.65 1.296.89.17 6.105-.952 3.458.865-.217.144-.65-.134-.864 0-.07.035 0 .77 0 .866-.244.06-.926.048-1.298.216-.148.06-.345.81-.432.864.23.048.337.4.432.433 1.27.43 2.662-.48 3.675-.218.123.028 1.426 1.453 1.73 1.514.844.163 1.405-.42 1.513-.432.52-.082 2.607.027 3.026.216.007 0 0 .615 0 .65.31.106.803.24 1.08.43.163-.1.338-.688.433-.864.64.256.978.244 1.512.433v.215c.4.04.08-.38.65-.216.14-.258.195-.77.43-.866.083-.034.663.303 1.08.216.488-.11 1.75-1.594.65-1.945.095-.196.278-.176.216-.433.386.082.893 0 1.298 0-.195.068.04.554-.648.433.04.182.216.864.216.864.568-.083 2.154-.56 2.594-.434.594.163.23 1.028 1.296 1.08.325.015 2.534-.707 3.027-.864-.142-.12-.102-.546-.217-.647-.168-.15-.492-.08-.648-.216.04-.09.325-.326.216-.434 2.067.628 2.21-.392 4.324 0 .593.108 1.566 1.074 2.81.65.087-.035.195-.386.432-.434.1.29.283.818.43 1.08.346-.08.55-.41.65-.432 0 0 2.703.994 2.81 1.08.11.096.088.737.216.866" fill="url(#pattern41144)" transform="translate(-522.291 -350.093)"/><path d="M67.865 102.973c.062.06.608.155.65.216.364-.582 1.012-1.284 1.295-1.947.244-.58.135-1.04.433-1.512.44-.716 1.486-1.466 1.945-2.16.27-.42.156-.893.432-1.298.588-.87 1.683-1.38 2.378-2.16.716-.82 1.06-1.718 1.73-2.596.054-.082.627-.338.65-.433.112-.607-.408-.837-.434-1.08-.095-.696.1-2.074.216-3.027.02-.21.27-1.485.432-1.73l.432-.215c.62-2.107.284-3.776.65-6.268.04-.324.72-1.5.648-1.945-.042-.21-.555-.636-.65-.865.392-.08.116-.088.217-.433.587 0 1.607.182 2.16 0 .298-.11.345-.764.65-.866.438-.158.463.252 1.08.217.784-.12 1.505-1.398 1.945-1.944 1.392.41.965.216 2.162 0 .095-1.014.135-2.048 0-2.595.513.062.472-.377 1.08-.216.06.014.378.575.432.65 0 0 .574.033.215-.217 0 0 .852-.026.217-.216.053-.033.426-.208.432-.216.278-.566.068-1.107.216-1.728.507-2.19.52-2.142-1.512-3.027.377-.548.472-.893.864-1.514.385.37-.088-1.02-.65-1.297h-.214c-.56-1.616.42-4.128.215-5.406-.128-.77-.816-.87-1.296-1.297-.53-.468-.685-.645-.877-.77-.208-.136-.46-.21-1.285-.526l-.216-.432c-.765-.087-.798.365-1.082.433-1.315.284-2.56-.383-3.243-.432-.587-.047-.985.4-1.296.433-.643.067-.356-.147.084-.38.406-.214.944-.446.996-.484.175-.142.08-.763.215-.865-.635-1.087-1.405-2.052-2.16-3.026-.298.224-.588.697-.865.865-.5.29-1.095.087-1.513.432l-.65 1.297c-.255-.217-.56-.534-.863-.65.088-.337.405-.547.433-.648.127-.54-.305-.278-.217-.65-.547-.134-.783-.23-1.297-.43-.163.14-.345.695-.65.647-.073-.014-.39-.784-.43-.866-1.014.11-2.64-.27-3.46 0-.18.055-.29.73-.43.865-.325.283-.954.162-1.3.432-.81.62-.533 1.79-.43 2.81-2.48-.67-.946.15-1.946.432-.67.183-.797-.256-1.297-.216-.35.02-1.013.54-1.297.65.48.924.865 1.668 1.297 2.593.42 0 1.364-.174 1.73 0 .047.02 0 .967 0 1.082.324.074.75 0 1.08 0l.217.432c-.298.183-.73.763-1.082.865-1.208.337-1.857 0-2.81.43-1.405.63-.87 2.082-1.296 2.163-.332.06-.298-.392-.433-.432-.4-.142-.893.088-1.298 0-.077-.018-.162-.06-.25-.118-.346-.223-.763-.666-1.047-.746-.744-.21-1.413.087-1.946-.217l-.217-.866c-.16-.222-3.195-2.302-3.457-2.377-1.594-.486-2.4.054-3.89-.433-.4.36-1.426 1.163-1.514 1.73-.088.487.31.324.215.65.588-.13.682-.23 1.297-.218 0 .06-.034.85 0 .865-.33 1.487-1.027 2.487-1.513 4.108.23.048.337.4.432.433.397.136.885-.12 1.296 0 .1.028.5.554.65.65.437-.326-.218.864-.218.864-.978-.148-1.466-.128-2.593-.216-.92 2.864-.358 1.344-2.162 1.513l-.432.433c-.345.088-.73 0-1.08 0 .066.284.316.92.215 1.08-.026.04-.6 0-.65 0-.045.083-.168.406-.214.434h-.216c.357.452.986 1.98 1.512 2.16.237.082.635-.106.865 0-.473 1.79-.73 1.515 1.73 1.515.128.39.243 1.405.432 1.73.12.215.776.187.865.43v.434c.85.486 1.796.047 2.808.432.44.16.75.784 1.082 1.08l-.217.65c-.796 0-1.81-.156-2.593 0-.25.04-.905.6-1.08.648-.163.033-.508-.102-.65 0-.965.615-1.067 2.52-2.16 3.026-.582.264-1.224-.04-1.947.216-.14.048-.303.56-.43.65-.475.29-1.102.013-1.73.215-.27.08-.602.52-.865.65l.217.863c.43.095.843 0 1.296 0-.1.088-.13.567-.216.648-.487.42-1.054.635-1.513 1.082-.047-.062-.4-.642-.432-.65-.528-.134-.318.358-.65.217-.21.92-.37 1.716-.648 2.594-.04-.06-.587-.155-.647-.216-.407-.39.026-1.073-1.082-.864-.06.008-.277.263-.648.216v-.43c-1.763 0-3.648.092-4.107 1.295-.095.23.135.432 0 .65 1.027.262 2.195 1.072 3.027 1.296 1.316.344 2.35.25 3.673.433-.087.026-.695.6-.863.647-1.947.494-4.71-.195-6.053.865-1.074.83-.554 2.33-.432 1.73.337.054 1.29.358 1.728.433.21.628-.073 1.02.433 1.297.972.527 2.19.047 3.026-.216-.088.318.222.406-.217.433l-.216.433c-.473.162-1.04-.155-1.513 0-.33.1-.817.756-1.08.865-.57.21-.974.074-1.514.217 0 0-.44 1.087.648 1.296.892.17 6.106-.952 3.46.865-.218.143-.65-.135-.865 0-.07.034 0 .77 0 .865-.244.06-.926.048-1.298.216-.148.06-.345.81-.432.863.23.048.337.4.432.433 1.27.432 2.662-.48 3.675-.217.122.027 1.425 1.452 1.73 1.513.843.163 1.404-.42 1.512-.432.52-.08 2.607.028 3.026.217.008 0 0 .615 0 .65.31.106.804.24 1.08.43.164-.1.34-.688.434-.864.64.256.978.244 1.512.433v.216c.4.04.08-.38.65-.216.14-.257.195-.77.43-.865.083-.033.663.304 1.08.217.488-.11 1.75-1.594.65-1.945.095-.196.278-.176.216-.433.385.08.892 0 1.297 0-.195.067.04.553-.648.432.04.182.215.864.215.864.568-.082 2.154-.56 2.594-.433.593.163.228 1.028 1.295 1.08.325.015 2.534-.707 3.027-.864-.142-.122-.102-.547-.217-.648-.168-.15-.492-.08-.648-.216.04-.09.325-.325.216-.433 2.067.628 2.21-.392 4.324 0 .593.108 1.566 1.074 2.81.65.087-.035.195-.386.432-.434.1.29.282.817.43 1.08.345-.08.548-.412.65-.433 0 0 2.702.994 2.81 1.08.108.096.087.737.215.866z" fill="none" stroke="#231f20" stroke-width="1.875" stroke-linecap="round" stroke-linejoin="round"/><path d="M96.18 78.33c.183-.028.11-.582.217-.65.42-.29 1.013 0 1.513-.215.162-.074.283-.54.432-.65.986-.748 2.39-1.714 1.514-3.673-.068-.15-.818-.345-.865-.432-.46.37-1.033 1.27-1.512 1.512-1.33.65-1.69-.242-2.378 1.298-.352.77-.195 1.222-.432 2.16.467.116.567.048.864.217.25.143-.067.514.65.433" fill="#fff"/><path d="M96.18 78.33c.183-.028.11-.582.217-.65.42-.29 1.013 0 1.513-.215.162-.074.283-.54.432-.65.986-.748 2.39-1.714 1.514-3.673-.068-.15-.818-.345-.865-.432-.46.37-1.033 1.27-1.512 1.512-1.33.65-1.69-.242-2.378 1.298-.352.77-.195 1.222-.432 2.16.467.116.567.048.864.217.25.143-.067.514.65.433z" fill="none" stroke="#231f20" stroke-width="1.875" stroke-linecap="round" stroke-linejoin="round"/><path d="M137.25 2.453c.107.028.013.256.432.216.486-.062.762-.73 1.08-.866.31-.14.952 0 1.297 0-.163-.58.297-.843-.433-.865-.9-.027-1.986.79-2.594 1.08 0 0-.034.804.216.433" fill="#fff"/><path d="M137.25 2.453c.107.028.013.256.432.216.486-.062.762-.73 1.08-.866.31-.14.952 0 1.297 0-.163-.58.297-.843-.433-.865-.9-.027-1.986.79-2.594 1.08 0 0-.034.804.216.433z" fill="none" stroke="#231f20" stroke-width="1.875" stroke-linecap="round" stroke-linejoin="round"/><path d="M132.278 7.21c-.318-2.34-.324-1.845 1.73-2.38.29.615.81 1.244 1.08 1.946.067 0 .587-.047.65 0 .126-.087.56-.62.646-.648 0 0 1.236.128-.215-.65.113-.64.16-.803.214-1.512-1 .298-1.56.52-2.16 0 0 0-.38-1.865-.434-2.16-.18 0-.715.087-.863 0-.54.512-1.953 1.81-.865 2.593-1.98.795-1.453.76-1.082 2.81.413 0 .9-.11 1.298 0" fill="#fff"/><path d="M132.278 7.21c-.318-2.34-.324-1.845 1.73-2.38.29.615.81 1.244 1.08 1.946.067 0 .587-.047.65 0 .126-.087.56-.62.646-.648 0 0 1.236.128-.215-.65.113-.64.16-.803.214-1.512-1 .298-1.56.52-2.16 0 0 0-.38-1.865-.434-2.16-.18 0-.715.087-.863 0-.54.512-1.953 1.81-.865 2.593-1.98.795-1.453.76-1.082 2.81.413 0 .9-.11 1.298 0z" fill="none" stroke="#231f20" stroke-width="1.875" stroke-linecap="round" stroke-linejoin="round"/><path d="M137.898 4.4c.837-.427.837-.664 0-1.082v1.08z" fill="#fff"/><path d="M137.898 4.4c.837-.427.837-.664 0-1.082v1.08z" fill="none" stroke="#231f20" stroke-width="1.875" stroke-linecap="round" stroke-linejoin="round"/><path d="M95.532 12.397c.447.1.987.64 1.945.433.345-.082.595-.757.865-.865.96-.4 1.9 0 3.027-.217.29-.06.836-.533 1.08-.648h.215c.466-.69.047-1.763.432-2.594.19-.425.9-.588 1.298-.865 1.69-1.208 1.87-1.464 1.73-3.89l-.65-.215c-1.114.296-2.235.992-3.24 1.296-.616.183-1-.067-1.515.217-.175.088-.264.554-.433.65-.337-.265-.573-.596-.863-.866-.427.25-.69-.033-1.082.217v.433S96.87 6.722 96.83 6.777c.127.304.5.62.43 1.08 0 0-.633.58-.646.65-.224.816.147 1.586.216 2.16-.176.115-1.23.696-1.298.865-.1.224.122.65 0 .865" fill="#fff"/><path d="M95.532 12.397c.447.1.987.64 1.945.433.345-.082.595-.757.865-.865.96-.4 1.9 0 3.027-.217.29-.06.836-.533 1.08-.648h.215c.466-.69.047-1.763.432-2.594.19-.425.9-.588 1.298-.865 1.69-1.208 1.87-1.464 1.73-3.89l-.65-.215c-1.114.296-2.235.992-3.24 1.296-.616.183-1-.067-1.515.217-.175.088-.264.554-.433.65-.337-.265-.573-.596-.863-.866-.427.25-.69-.033-1.082.217v.433S96.87 6.722 96.83 6.777c.127.304.5.62.43 1.08 0 0-.633.58-.646.65-.224.816.147 1.586.216 2.16-.176.115-1.23.696-1.298.865-.1.224.122.65 0 .865z" fill="none" stroke="#231f20" stroke-width="1.875" stroke-linecap="round" stroke-linejoin="round"/><path d="M84.293 6.56c.446.4 0-1.08 0-1.08-.284 0-.818.114-1.08 0 .087.148 0 .682 0 .864 0 0 1.81.602 1.08.217" fill="#fff"/><path d="M84.293 6.56c.446.4 0-1.08 0-1.08-.284 0-.818.114-1.08 0 .087.148 0 .682 0 .864 0 0 1.81.602 1.08.217z" fill="none" stroke="#231f20" stroke-width="1.875" stroke-linecap="round" stroke-linejoin="round"/><path d="M134.007 8.506c.06-.345 1.006-1.67-.216-1.513-1.06.128.17 1.364.217 1.513" fill="#fff"/><path d="M134.007 8.506c.06-.345 1.006-1.67-.216-1.513-1.06.128.17 1.364.217 1.513z" fill="none" stroke="#231f20" stroke-width="1.875" stroke-linecap="round" stroke-linejoin="round"/><path d="M91.426 13.262c.797 1.986.446 2.783 2.593 1.73-.048-.014.418-.635.432-.65-.075-.142-.514-1.007-.65-1.08-.566-.312-1.24-.115-1.944-.217.324 0-.432.217-.432.217" fill="#fff"/><path d="M91.426 13.262c.797 1.986.446 2.783 2.593 1.73-.048-.014.418-.635.432-.65-.075-.142-.514-1.007-.65-1.08-.566-.312-1.24-.115-1.944-.217.324 0-.432.217-.432.217z" fill="none" stroke="#231f20" stroke-width="1.875" stroke-linecap="round" stroke-linejoin="round"/><path d="M91.858 16.072s-.203.39-.216.432c-.304-.256-.02.75 0 .865.06 0 .595-.048.648 0-.1-.582.31-1.338-.432-1.298" fill="#fff"/><path d="M91.858 16.072s-.203.39-.216.432c-.304-.256-.02.75 0 .865.06 0 .595-.048.648 0-.1-.582.31-1.338-.432-1.298z" fill="none" stroke="#231f20" stroke-width="1.875" stroke-linecap="round" stroke-linejoin="round"/><path d="M89.696 22.125c.243.095.413-.13.65 0l.215-1.945.865-.216c.318-1.115-.37-2.095-.647-2.812h-.433c-.635 1.548-1.236 2.014-1.514 4.108l.434.216c.087.02.337.608.432.65" fill="#fff"/><path d="M89.696 22.125c.243.095.413-.13.65 0l.215-1.945.865-.216c.318-1.115-.37-2.095-.647-2.812h-.433c-.635 1.548-1.236 2.014-1.514 4.108l.434.216c.087.02.337.608.432.65z" fill="none" stroke="#231f20" stroke-width="1.875" stroke-linecap="round" stroke-linejoin="round"/><path d="M87.32 24.503c.1-.304-.015-.514.215-.65.264-.168.736.076.865-.215.155-.365-.162-.723 0-1.08-.156 0-.744.087-.865 0-1.216.91-.675.702-.865 1.945.068 0 .595-.048.65 0" fill="#fff"/><path d="M87.32 24.503c.1-.304-.015-.514.215-.65.264-.168.736.076.865-.215.155-.365-.162-.723 0-1.08-.156 0-.744.087-.865 0-1.216.91-.675.702-.865 1.945.068 0 .595-.048.65 0z" fill="none" stroke="#231f20" stroke-width="1.875" stroke-linecap="round" stroke-linejoin="round"/><path d="M97.262 28.394c.202-.52 1.047-.67.648-2.16-.04-.136-.628-.583-.648-.65-.27.073-.737.17-1.298.216.27 1.054.305 1.5.65 2.378.445-.13.37.115.648.216" fill="#fff"/><path d="M97.262 28.394c.202-.52 1.047-.67.648-2.16-.04-.136-.628-.583-.648-.65-.27.073-.737.17-1.298.216.27 1.054.305 1.5.65 2.378.445-.13.37.115.648.216z" fill="none" stroke="#231f20" stroke-width="1.875" stroke-linecap="round" stroke-linejoin="round"/><path d="M93.37 31.204c-.513.074-2.228 1.703-.864 1.73.798.012 3.14-2.095.865-1.73" fill="#fff"/><path d="M93.37 31.204c-.513.074-2.228 1.703-.864 1.73.798.012 3.14-2.095.865-1.73z" fill="none" stroke="#231f20" stroke-width="1.875" stroke-linecap="round" stroke-linejoin="round"/><path d="M89.913 33.582c1.14-.12.303-1.453-.65-1.298-.6.095-.944 1.453.65 1.298" fill="#fff"/><path d="M89.913 33.582c1.14-.12.303-1.453-.65-1.298-.6.095-.944 1.453.65 1.298z" fill="none" stroke="#231f20" stroke-width="1.875" stroke-linecap="round" stroke-linejoin="round"/><path d="M92.94 41.148c.134.13 0 1.074 0 1.297.134-.055.647-.216.647-.216 0-.102-.067-.818 0-.866l-.648-.216z" fill="#fff"/><path d="M92.94 41.148c.134.13 0 1.074 0 1.297.134-.055.647-.216.647-.216 0-.102-.067-.818 0-.866l-.648-.216z" fill="none" stroke="#231f20" stroke-width="1.875" stroke-linecap="round" stroke-linejoin="round"/><path d="M96.613 42.23h-.216c-1.324.77-1.743 1.674-2.81 2.593h-.433l-.216-1.08c-1.18.385-2.154.41-3.026 1.08-.203.148-1.046 1.067-1.08 1.297-.088.486.31.324.216.65.385 0 .92-.102 1.296 0 .508 2.228-.08.978 1.514 1.728.65-.838.736-1.088 1.08-2.378.514-.067.474.37 1.08.216.353-.1 2.555-2.58 3.028-3.026-.082-.196 0-.662 0-.865-.075-.04-.427-.176-.433-.216" fill="#fff"/><path d="M96.613 42.23h-.216c-1.324.77-1.743 1.674-2.81 2.593h-.433l-.216-1.08c-1.18.385-2.154.41-3.026 1.08-.203.148-1.046 1.067-1.08 1.297-.088.486.31.324.216.65.385 0 .92-.102 1.296 0 .508 2.228-.08.978 1.514 1.728.65-.838.736-1.088 1.08-2.378.514-.067.474.37 1.08.216.353-.1 2.555-2.58 3.028-3.026-.082-.196 0-.662 0-.865-.075-.04-.427-.176-.433-.216z" fill="none" stroke="#231f20" stroke-width="1.875" stroke-linecap="round" stroke-linejoin="round"/><path d="M98.99 50.227c-.104.33-.432.65-.432.65l-.216-1.082-.216-.217c-.675 1.29-.864 2.405-.864 4.54.554.298 1.088.568 1.73.865-.184.4.614-.426.648-.648.168-1.17-.115-2.433 0-3.892-.304-.167-.473-.055-.65-.216" fill="#fff"/><path d="M98.99 50.227c-.104.33-.432.65-.432.65l-.216-1.082-.216-.217c-.675 1.29-.864 2.405-.864 4.54.554.298 1.088.568 1.73.865-.184.4.614-.426.648-.648.168-1.17-.115-2.433 0-3.892-.304-.167-.473-.055-.65-.216z" fill="none" stroke="#231f20" stroke-width="1.875" stroke-linecap="round" stroke-linejoin="round"/><path d="M82.05 73.47c-.302-.33-.62-.336-.97-.61-.422-.333-.437-1.044-.97-.978-.407.05-.357.63-.755.732-.484.127-.71-.33-1.185-.488-.332-.112-.635.02-.862-.244-.38-.44.506-.78.646-1.344.08-.326.35-.62.107-.855-.21-.205-.477.104-.752 0-.545-.204-.503-.78-.648-1.344-.117-.463-.086-.744-.107-1.222-.022-.476.068-.75 0-1.22-.08-.546.107-1.234-.432-1.345-.462-.095-.572.473-.97.734-.402.265-.84.19-1.076.61-.285.502.614 1.047.215 1.466-.27.28-.61.093-.97.244-.47.197-.686 1.055-1.08.732-.23-.19.016-.544-.215-.733-.295-.24-.592.177-.97.122-.36-.053-.582-.133-.862-.367-.502-.42-.102-1.102-.54-1.59-.21-.234-.468-.225-.645-.486-.27-.396.045-.77-.11-1.223-.184-.552-.513-.752-.86-1.22-.288-.387-.684-.502-.755-.977-.044-.286.122-.445.107-.734-.027-.52-.65-.712-.54-1.22.165-.736 1.12-.374 1.834-.61.336.19.482.413.862.488.374.073.6-.032.97-.122.393-.096.743-.032.97-.366.378-.556-.877-.703-1.077-1.344-.088-.276-.236-.474-.11-.732.173-.352.606-.385.97-.245.408.158.185.726.54.978.58.413 1.124-.31 1.8-.31.31 0 .57-.387.9-.677.28-.246.363-.474.676-.676.317-.203.57-.166.902-.338.746-.387.818-1.107 1.577-1.465.49-.232.78-.187 1.31-.32.406-.214.943-.446.995-.484.175-.142.08-.763.216-.864-.635-1.09-1.405-2.054-2.162-3.028-.296.224-.588.697-.864.865-.5.29-1.095.087-1.514.432L75 52.39c-.26-.217-.562-.534-.866-.65.087-.337.405-.547.432-.648.128-.54-.303-.276-.216-.65-.547-.134-.784-.228-1.297-.43-.162.14-.344.695-.648.647-.075-.015-.392-.784-.432-.866-1.014.11-2.642-.27-3.46 0-.182.055-.29.73-.432.865-.322.283-.95.162-1.295.432-.81.62-.534 1.79-.432 2.81-2.48-.67-.947.15-1.947.432-.667.183-.796-.256-1.296-.216-.35.02-1.012.54-1.297.65.48.924.865 1.668 1.297 2.593.42 0 1.365-.174 1.73 0 .046.02 0 .967 0 1.082.324.073.75 0 1.08 0l.216.432c-.297.183-.73.764-1.08.865-1.21.337-1.858 0-2.81.43-1.406.63-.872 2.082-1.297 2.163-.332.06-.3-.392-.434-.432-.398-.142-.89.088-1.296 0-.077-.018-.16-.06-.25-.118-.346-.223-.762-.665-1.047-.746-.743-.21-1.412.087-1.945-.217l-.217-.864c-.16-.224-3.194-2.304-3.457-2.38-1.594-.485-2.398.054-3.89-.432-.4.36-1.427 1.163-1.514 1.73-.09.487.31.324.215.65.588-.13.683-.23 1.298-.217 0 .06-.034.85 0 .864-.332 1.487-1.028 2.487-1.514 4.108.23.048.336.4.43.433.4.136.886-.12 1.298 0 .1.028.5.554.648.65.44-.324-.216.864-.216.864-.98-.148-1.465-.128-2.594-.216-.918 2.864-.357 1.344-2.16 1.513l-.433.433c-.344.09-.73 0-1.08 0 .067.284.317.92.215 1.08-.027.04-.6 0-.648 0-.047.083-.17.406-.216.434h-.216c.357.452.986 1.98 1.512 2.16.236.082.635-.106.865 0-.472 1.79-.73 1.515 1.73 1.515.128.39.243 1.405.43 1.73.123.215.78.19.866.43v.434c.853.486 1.798.047 2.81.432.44.163.75.784 1.08 1.08l-.215.65c-.796 0-1.81-.156-2.592 0-.25.04-.907.6-1.082.648-.16.033-.505-.102-.647 0-.967.615-1.068 2.52-2.162 3.026-.58.264-1.22-.04-1.944.216-.142.048-.305.56-.432.65-.473.29-1.1.012-1.73.215-.27.08-.6.52-.864.65l.216.864c.433.093.844 0 1.297 0-.102.087-.13.567-.217.647-.486.42-1.053.635-1.512 1.082-.048-.062-.4-.642-.433-.65-.525-.134-.316.36-.647.217-.21.92-.372 1.716-.65 2.594-.04-.06-.587-.155-.647-.216-.406-.39.028-1.073-1.08-.863-.06.006-.277.264-.65.216v-.432c-1.762 0-3.646.094-4.106 1.297-.095.23.135.432 0 .65 1.026.262 2.195 1.074 3.026 1.296 1.318.344 2.35.25 3.674.433-.087.026-.695.6-.864.648-1.946.493-4.708-.196-6.052.864-1.074.83-.554 2.33-.433 1.73.34.054 1.29.358 1.73.433.21.628-.074 1.02.433 1.297.973.527 2.188.047 3.026-.216-.09.318.223.407-.217.433l-.217.433c-.472.162-1.04-.155-1.512 0-.33.1-.818.756-1.08.865-.57.21-.974.074-1.514.217 0 0-.44 1.087.65 1.296.89.17 6.105-.952 3.456.865-.216.143-.647-.135-.863 0-.068.034 0 .77 0 .865-.244.06-.927.048-1.298.216-.15.06-.344.81-.432.864.23.047.338.398.432.433 1.27.43 2.66-.48 3.675-.216.12.027 1.425 1.453 1.73 1.513.844.163 1.404-.42 1.513-.432.52-.08 2.606.028 3.025.217.007 0 0 .615 0 .65.31.106.803.24 1.08.43.163-.1.338-.688.433-.864.643.258.98.244 1.514.433v.216c.4.04.08-.38.65-.216.14-.257.195-.77.43-.865.082-.033.662.304 1.082.217.487-.108 1.75-1.594.648-1.945.095-.196.277-.176.216-.433.385.08.893 0 1.298 0-.197.067.04.553-.65.432.04.182.217.865.217.865.568-.08 2.155-.56 2.594-.433.593.162.23 1.027 1.296 1.08.324.014 2.533-.708 3.025-.863-.14-.122-.1-.547-.215-.648-.17-.15-.492-.08-.647-.216.04-.088.323-.325.216-.433 2.066.628 2.21-.392 4.322 0 .595.108 1.568 1.074 2.81.65.088-.035.197-.386.433-.434.1.29.283.817.43 1.08.345-.08.548-.412.65-.432 0 0 2.7.993 2.81 1.08.108.095.088.736.215.865.06.06.61.155.65.216.364-.582 1.013-1.284 1.295-1.946.244-.58.136-1.04.433-1.513.44-.716 1.486-1.466 1.946-2.16.27-.42.154-.893.43-1.298.59-.87 1.683-1.38 2.38-2.16.714-.82 1.06-1.718 1.728-2.596.053-.08.628-.338.648-.432.115-.608-.406-.838-.432-1.08-.095-.697.1-2.075.216-3.027.02-.21.27-1.486.433-1.73l.43-.216c.623-2.107.285-3.776.65-6.268.04-.324.722-1.5.648-1.945-.04-.21-.552-.635-.647-.865.392-.082.115-.088.216-.433.586 0 1.606.182 2.16 0 .298-.108.345-.764.65-.866.438-.158.464.252.98.227-.247-.402-.252-1-.63-1.41z" fill="none" stroke="#231f20" stroke-width=".625"/><path d="M147.84 115.51c-.148-.715-1.337-1.195-1.728-1.728-.696-.953-1.014-2.575-1.946-3.243-.668-.48-5.58-1.98-6.7-1.73-1.19.256-1.183 2.054-2.81 1.945-1.034-.074-1.15-.94-1.513-1.73-.27 0-.84.122-1.08 0 .648-.37 5.07-3.444 5.186-3.89.29-1.203-.67-5.108-1.082-5.836-.195-.346-.985-.813-1.296-1.083l.216-.648c.723.114.993.134 1.73.215-.332-2.215-1.19-3.614-1.514-5.62-.027-.135.06-1.358-.216-1.08-.642.627.095-.54.433-.866.108-.11.513-.34.648-.433-.21-1.83-.492-1.83-.864-3.027-.365-1.148-.196-1.796-.648-2.81-.034-.068-.405-.17-.433-.216-.284-.433-.17-.858-.432-1.297-.087-.142-.56-.31-.647-.432-.79-1.04-1.155-2.25-2.162-3.026-.29-.23-1.857-.846-1.944-1.083-.358-.918.087-2.472 0-3.458-.13-1.4-.797-3.406-.865-4.758-.067-1.31.542-2.526.65-3.675.317-3.566-.946-9.39-2.378-11.025-.223-.256-.568-.033-.96-.298-.263-.305-.4-1.087-.77-1.214h-.43c-.34-.365-1.325-2.034-1.73-2.16-1.08-.353-3.41.302-4.54.43l-.216-.648c.553-.35 2.458-1.892 2.81-1.946.722-.12.98.385 1.297.433 1.135.147 2.16-.4 3.026-.65-.11-.23.08-.628 0-.864-.143-.412-1.163-.845-1.514-1.08.222 0 .222-1.73 0-1.73.5.06.587-.257.865-.217.332.04.872.614 1.73.43l.216-.43c.506-.33 1.14-.4 1.513-.865.276-.365.256-.926.647-1.298.486-.466 2.256-1.478 2.594-1.945.306-.432.116-1.055.433-1.513.446-.664 1.493-.994 1.946-1.73.587-.974.674-2.278 1.296-3.244.202-.33.865-.546 1.08-.864.27-.418.142-.898.432-1.297.21-.304.96-.466 1.08-.865.25-.878-.1-2.54-.43-3.026-.662-.973-2.345-.697-3.675-1.082-.36-.107-.73-.715-1.08-.863-.704-.305-1.136-.17-1.73-.434-.156-.075-.29-.6-.432-.65-.567-.2-1.39.218-1.944 0l-.65-1.08c-.452-.31-1.864-.83-2.377-.864-1.102-.09-1.25.527-2.163.432-.236-.027-.506-.487-1.08-.432-.5.04-1.486 1.013-1.945 1.08-.44.054-1.824-.067-2.38 0v-.43c.13-.387 1.184-.86 1.515-1.082 1.034-.724 1.91-1.514 3.026-2.163 1.114-.655-1.595-.803-2.16-.863l-.217-.865c.918-.38 2.113-1.03 3.026-1.3.627-.188.95.035 1.512-.215.175-.088.278-.554.433-.648.486-.31.92-.19 1.512-.432.567-.244 1.148-.85 1.73-1.08.62-.258 1.194-.13 1.728-.434.594-.35 2.486-2.896 2.594-3.674.142-1.114-.108-1.094-.65-1.512-1.728-1.332-1.525.282-3.456-.217-.345-.095-.183-.986-1.298-.865-.256.02-.486.487-1.08.433-.65-.068-1.432-1.216-1.946-1.298-.493-.087-1.554.602-2.16.433-.15-.048-.313-.77-.434-.865-.344-.27-.91-.21-1.296-.433-.278-.16-.595-.708-.865-.863-.764-.448-1.83-.664-2.594-1.083-.595.405-1.196.804-1.297 1.73-.034.263.122.838 0 1.08-.006.007-.622 0-.648 0-.35.737-.642 1.358-.865 2.378-.77-.033-1.702-.18-2.16-.215-.03.155-.076 1.364-.217 1.73-.095.22-.385.12-.65.215 0 0-.283.972-.215 1.297.02.108.338.567.433.864-.244.115-.4-.1-.65 0-.275.1-.606.696-.862.865-.21-.174-.662-.316-.864-.43v-.434h-1.947c-.858.34-1.08 2.81-1.08 2.81l-.433.216c-.13.407.135.893 0 1.298-.115.337-.858.392-1.08.65-.466.505-.86 2.586-.433 3.457.108.23.263-.176.432.217.656-.23.52.377.648.432l-.432.216c-.243.364-.02.635-.216 1.08-.344-.155-.73-.58-1.08-.648-.413-.088-.905.136-1.298 0-.094-.034-.202-.385-.43-.432-.13-1.148-.07-1.702-.217-2.81.79-.555 1.418-.662 1.297-2.162l-.433-.65c-.1-.485 0-1.025 0-1.51-.276-.05-.31-.394-.43-.434-1.596-.547-1.427 1.02-1.515 2.16-.082-.127-.554-.052-.65-.215-.29-.49-.236-.83-.432-1.295h-.43c-.947 1.87.24.614-1.73 1.296-.095.03-.204.38-.434.434.102.222-.087.62 0 .865.17.49 1.487 1.01 1.947 1.296-.216 1.58-.088 2.08 0 3.24.298.104.507-.01.648.218.204.325-.08.642.216.865.447.337.94.195 1.514.43-.73 1.656-.77 1.98 1.296 1.947-.08.094-.135.568-.216.648-.202.17-.5-.013-.647.216-.493.73-.75 3.176-1.513 3.46-.526.19-2.088.19-2.378.216.154.115 1.236.933 1.297 1.08.08.224-.143.454 0 .65-.77-.202-1.466-.426-2.38-.65-.06.075-.363.616-.43.65-.25.094-.42-.13-.65 0 0 0-.18.858-.215 1.08.39.183.945.15 1.296.216-.114.305.11.77 0 1.082-.06.155-.546.29-.647.432-.783 1.026-.642.655-2.16.865 0 .11.073 1.035 0 1.08.52.042 1.518.36 2.377.217.377-.067.635-.546 1.296-.432.1.014 1.31.92 1.514 1.08-.318.11.56.23.647.217.157-.04.554-.62.65-.648l.432-.433c.128-.606-.264-1.498-.433-2.16.54 0 .588.337 1.298.216.156-.034.71-.615.864-.65.143-.04.508.096.65 0 0 0 .783-1.194.864-1.296.405.13 1.074.184 1.296.216-1.64 1.33-3.316 2.778-4.538 4.54-.554.79-.953 1.486-1.082 2.378-.06.406.244 1.007.217 1.08-.29.67-1.823.643-2.16 1.298-.642 1.203-.136 3.168-.65 4.54-.256.668-1.587 1.263-1.944 1.945-.527.98-.298 2.237-.865 3.243-.174.297-.89.33-1.08.65-.168.255-.047.43-.216.647 1.19.81.905.58 2.378.648.31-1.425 2.147-6.08 3.242-6.27.52-.093.46.245 1.08.217l.217-1.296c.143-.102.804.148 1.082.215.1-.14.506-1.033.65-1.08h.43c-.43 2.865-.175 2.9 1.514 1.297-.082.488.1 1.028 0 1.514l-.433.217c0 .67-.135 1.507 0 2.162.034.175.608.68.65.864.134.648.02 1.817-.217 2.377-.11.237-1.284 1.394-1.513 1.515-.406.21-.757-.04-1.08.216l-.866 1.08c-.082.217.12.664 0 .866-.068.095-2.485 2.318-2.594 2.38-.276.14-.98 0-1.296 0 .02.35.21 1.52.216 1.51.128.224-.095.4 0 .65.08.216.385.12.648.216-.222 1.953-.377 2.507 0 4.324.19-.494.71-1.216.866-1.73.1-.365 0-.92 0-1.297.378-.04.202-.258.432-.433.85.487.986.155 1.513 1.08.25.447.157.974.433 1.514.075.142.56.3.65.434.208.343.25.762.43 1.08.238-.06.845-.223.865-.217.35-.986.426-1.54.865-2.377h.433c.06.095.865 1.73.865 1.73.48.29 2.263.42 3.027.216.06-.02.647-.65.647-.65 1.074-.134.994.603 2.162.434.432-.068.825-.81 1.08-.865.63-.14 1.048.03 1.63.31 0 0 .135.066.316.122-.276.433-.318.933-.65 1.297-.416.446-1.383.73-1.728 1.297-.148.237-.033.48-.216.65-.256.222-.66.17-.864.432-.243.298-.196.77-.432 1.08-.23.292-1.446 1.17-1.514 1.514-.17.798.38 1.02.433 1.298.197 1.046-.297 2.303-.216 3.026 0 .014.65 1.512.65 1.512.148.13.56.034.648.217.297.634.1 1.127.216 1.945.21-.135.635.107.864 0v-.433c.31-.918 1.142-.575 1.946-.648-.09-.467.486 1.208.433 1.513-.02.094-.588.33-.648.433-.216.337-.034.68-.216 1.08-.92-.034-.824-.014-1.514 0 .1.4.44 1.236.432 1.297-.033.197-.533.102-.648.217-.318.31-.06 1.04-.215 1.512-.23.65-.986 1-1.297 1.514-.662 1.06-.696 2.094-.865 3.675-.512.21-.742.093-1.296.216v.434c-.405.067-1.635-.44-1.946-.433-.94.015-1.5.744-2.593.217-.466-.223-.527-1.257-1.297-1.297-.338-.02-.858.595-1.082.65-.66.147-1.7 0-2.377 0 1.027-1.886.86-1.136-.65-1.3-.62-2.376-.634-1.944-3.456-1.944-.27.64-.757 1.18-.648 2.16.196 1.866 3.074 2.198.65 3.893-1.035.715-2.413 1.046-3.893 1.296-.048.223-.406.338-.433.43-.128.366.102.705 0 1.083.466.066 1.06-.164 1.514 0 .027.006.406.64.433.647 1.06.135 2.263-.823 3.24-.865.63-.033.535.23 1.083.217-.122.782.075 1.73-.217 2.592-.163.454-1.162.953-1.297 1.514-.204.81-.095 2.04-.216 2.594-.06.244.08.62 0 .865l-1.73 1.945c-1.648 1.202-4.626.487-6.916 1.08-.553.136-1.06.852-1.944.65v-.216c-.304-.155-.792-.42-1.082-.65-.803.48-1.64 1.217-2.377 1.73 3.296 2.033-2.048 2.19 0 3.46.365.222.662.02 1.08.216 0 0 .36.736-.43.432-.19.378-.008.094-.434.215 0 .04.034.623 0 .65.933.297 2.223 1.06 3.46.864.126-.026.573-.628.646-.648.817-.25 2.154 0 3.026 0 .12.4.325 1.5.648 1.73.318.223.54-.014.865.217l-.217.43c-.392.15-1.1 0-1.514 0 .094.305-.304.547 0 1.08.257.46 2.607 1.55 3.458 1.3 0 0 .38-.98.65-1.083.228-.095.43.135.646 0 1.075 1.838 1.69 5.878 5.404 4.973.224-.062 1.865-1.506 1.946-1.514.75-.135 1.237.62 1.73.65.803.04.898-.515 1.297-.65.662-.236 1.04-.074 1.73-.216-.23.317.005.54-.217.865-.635.9-3.046 1.127-4.106 1.73-1.048.587-1.19 1.215-1.73 2.377-.784-.12-1.75.074-2.594-.216-.12-.047-.405-.86-.432-.865-.39-.174-.91.17-1.296 0 0 0-.37-.836-.432-.864-.358-.16-.716.13-1.08 0-.34-.12-.643-.965-1.08-1.08-.265-.075-3.488.243-4.11.43-.91.273-.85 1.07-1.295 1.3-.784.384-2.16.215-3.243.215-.458 1.176-.58 3.17-1.512 3.892-.623.473-1.29.447-1.946.865-.21.128-.648.784-.864.864-.92.312-1.37-.02-2.16-.43-.11.087-.813.344-.866.43-.13.19.073.644 0 .866-.122.338-2.034 1.413-2.378 1.514-1.405.39-2.357.033-3.675.432-.357.102-.932.77-1.296.864-.1.02-.575-.067-.65 0-.553.446-.296 1.034-.43 1.946.68.155 1.31.675 2.16.217.17-.096.257-.563.432-.65 1.297.92 1.64 1.195 1.512 3.026.662-.222 1.61-.242 2.162-.65.17-.126.195-.924.433-1.08.175-.127.655.055.864 0 .312-.088.622-.77.866-.864.195-.08.573.277 1.08 0 .338-.196.432-.972.865-1.08.757-.203 1.433.392 1.946.432.837.053 1.06-.413 1.946-.217 1.08.23 2.08 2.115 2.594 3.027 1.417-.42 1.978-.582 2.593.648.12.244-.008.5.216.65.35.235.668-.008 1.08.215.932-.763 1.675-1.56 2.81-2.162-.128-.824-.088-1.08-.217-1.945.898-.534 2.013-1.35 3.242-1.514 1.655-.23 4.18-.1 4.97.65.265.243.197.776.434 1.08.797 1.034 1.33 1.094 1.945 2.594.474-.216.19-.21.433-.65.46.05 1.318-.194 1.73 0 .033.015.195.995.215 1.082.703.115 1.778.622 2.594.433.797-.19.77-1.048.216-1.514.85 0 1.98-.215 2.81 0 0 0 .79.366.865.434.19.182-.19.567-.216.648.972.683 1.69 1.4 2.377 2.378 1.568-.405 3.52-.425 1.514-1.945-.142-.11-.27-.588-.432-.65-.905-.364-1.197.15-1.73.217-.344.034-.162-.317-.648-.216v-.432c.864-.257 1.634-.568 2.378-.865.52.736 1.026 2.336 2.593 1.945.04-.014.486-.46.648-.433.526.074 1.02 1.108 1.296 1.514 2-.162 5.654-.56 7.35.216.69.318 1.668 1.837 2.593 2.378.216-.143.642-.08.865-.216.48-.304.857-1.15 1.514-1.298.627-.155 1.526.13 2.16 0 .15-.034.878-.614 1.08-.65.663-.126 1.495.15 2.163 0 .214-.052 1.026-.78 1.296-.862 1.33-.427 2.633-.5 3.89-.865.142-.664.19-1.494.432-2.163.196-.56 1.21-1.426 1.298-1.946.08-.49-.318-.33-.217-.648-.358.095-1.298.433-1.298.433-1.066.11-3.148-.236-3.674-.65-.304-.235-.277-1.066-.65-1.295-.167-.1-1.005-.1-1.08-.216-.222-.325-.14-1.23-.215-1.514.223 0 1 .156 1.513.216.73-1.054 1.492-1.817 2.16-3.026 1.777.264 2.513-.054 3.892-.65-.027-.14.135-.87-.216-.648l-.216-.43c.682-.205 1.56-.306 2.16-.65.305-.182.575-.865.866-1.08.256-.203.6-.02.864-.217.622-.486.54-2.128.865-3.026.352-.994 1.237-1.82 1.73-2.81.384-.785 1.31-2.968 1.08-4.11z" fill="none" stroke="#231f20" stroke-width="1.875" stroke-linecap="round" stroke-linejoin="round"/><path d="M82.05 73.47c-.302-.33-.62-.336-.97-.61-.422-.333-.437-1.044-.97-.978-.407.05-.357.63-.755.732-.484.127-.71-.33-1.185-.488-.332-.112-.635.02-.862-.244-.38-.44.506-.78.646-1.344.08-.326.35-.62.107-.855-.21-.205-.477.104-.752 0-.545-.204-.503-.78-.648-1.344-.117-.463-.086-.744-.107-1.222-.022-.476.068-.75 0-1.22-.08-.546.107-1.234-.432-1.345-.462-.095-.572.473-.97.734-.402.265-.84.19-1.076.61-.285.502.614 1.047.215 1.466-.27.28-.61.093-.97.244-.47.197-.686 1.055-1.08.732-.23-.19.016-.544-.215-.733-.295-.24-.592.177-.97.122-.36-.053-.582-.133-.862-.367-.502-.42-.102-1.102-.54-1.59-.21-.234-.468-.225-.645-.486-.27-.396.045-.77-.11-1.223-.184-.552-.513-.752-.86-1.22-.288-.387-.684-.502-.755-.977-.044-.286.122-.445.107-.734-.027-.52-.65-.712-.54-1.22.165-.736 1.12-.374 1.834-.61.336.19.482.413.862.488.374.073.6-.032.97-.122.393-.096.743-.032.97-.366.378-.556-.877-.703-1.077-1.344-.088-.276-.236-.474-.11-.732.173-.352.606-.385.97-.245.408.158.185.726.54.978.58.413 1.124-.31 1.8-.31.31 0 .57-.387.9-.677.28-.246.363-.474.676-.676.317-.203.57-.166.902-.338.746-.387.818-1.107 1.577-1.465.49-.232.78-.187 1.31-.32.406-.214.943-.446.995-.484.175-.142.08-.763.216-.864-.635-1.09-1.405-2.054-2.162-3.028-.296.224-.588.697-.864.865-.5.29-1.095.087-1.514.432L75 52.39c-.26-.217-.562-.534-.866-.65.087-.337.405-.547.432-.648.128-.54-.303-.276-.216-.65-.547-.134-.784-.228-1.297-.43-.162.14-.344.695-.648.647-.075-.015-.392-.784-.432-.866-1.014.11-2.642-.27-3.46 0-.182.055-.29.73-.432.865-.322.283-.95.162-1.295.432-.81.62-.534 1.79-.432 2.81-2.48-.67-.947.15-1.947.432-.667.183-.796-.256-1.296-.216-.35.02-1.012.54-1.297.65.48.924.865 1.668 1.297 2.593.42 0 1.365-.174 1.73 0 .046.02 0 .967 0 1.082.324.073.75 0 1.08 0l.216.432c-.297.183-.73.764-1.08.865-1.21.337-1.858 0-2.81.43-1.406.63-.872 2.082-1.297 2.163-.332.06-.3-.392-.434-.432-.398-.142-.89.088-1.296 0-.077-.018-.16-.06-.25-.118-.346-.223-.762-.665-1.047-.746-.743-.21-1.412.087-1.945-.217l-.217-.864c-.16-.224-3.194-2.304-3.457-2.38-1.594-.485-2.398.054-3.89-.432-.4.36-1.427 1.163-1.514 1.73-.09.487.31.324.215.65.588-.13.683-.23 1.298-.217 0 .06-.034.85 0 .864-.332 1.487-1.028 2.487-1.514 4.108.23.048.336.4.43.433.4.136.886-.12 1.298 0 .1.028.5.554.648.65.44-.324-.216.864-.216.864-.98-.148-1.465-.128-2.594-.216-.918 2.864-.357 1.344-2.16 1.513l-.433.433c-.344.09-.73 0-1.08 0 .067.284.317.92.215 1.08-.027.04-.6 0-.648 0-.047.083-.17.406-.216.434h-.216c.357.452.986 1.98 1.512 2.16.236.082.635-.106.865 0-.472 1.79-.73 1.515 1.73 1.515.128.39.243 1.405.43 1.73.123.215.78.19.866.43v.434c.853.486 1.798.047 2.81.432.44.163.75.784 1.08 1.08l-.215.65c-.796 0-1.81-.156-2.592 0-.25.04-.907.6-1.082.648-.16.033-.505-.102-.647 0-.967.615-1.068 2.52-2.162 3.026-.58.264-1.22-.04-1.944.216-.142.048-.305.56-.432.65-.473.29-1.1.012-1.73.215-.27.08-.6.52-.864.65l.216.864c.433.093.844 0 1.297 0-.102.087-.13.567-.217.647-.486.42-1.053.635-1.512 1.082-.048-.062-.4-.642-.433-.65-.525-.134-.316.36-.647.217-.21.92-.372 1.716-.65 2.594-.04-.06-.587-.155-.647-.216-.406-.39.028-1.073-1.08-.863-.06.006-.277.264-.65.216v-.432c-1.762 0-3.646.094-4.106 1.297-.095.23.135.432 0 .65 1.026.262 2.195 1.074 3.026 1.296 1.318.344 2.35.25 3.674.433-.087.026-.695.6-.864.648-1.946.493-4.708-.196-6.052.864-1.074.83-.554 2.33-.433 1.73.34.054 1.29.358 1.73.433.21.628-.074 1.02.433 1.297.973.527 2.188.047 3.026-.216-.09.318.223.407-.217.433l-.217.433c-.472.162-1.04-.155-1.512 0-.33.1-.818.756-1.08.865-.57.21-.974.074-1.514.217 0 0-.44 1.087.65 1.296.89.17 6.105-.952 3.456.865-.216.143-.647-.135-.863 0-.068.034 0 .77 0 .865-.244.06-.927.048-1.298.216-.15.06-.344.81-.432.864.23.047.338.398.432.433 1.27.43 2.66-.48 3.675-.216.12.027 1.425 1.453 1.73 1.513.844.163 1.404-.42 1.513-.432.52-.08 2.606.028 3.025.217.007 0 0 .615 0 .65.31.106.803.24 1.08.43.163-.1.338-.688.433-.864.643.258.98.244 1.514.433v.216c.4.04.08-.38.65-.216.14-.257.195-.77.43-.865.082-.033.662.304 1.082.217.487-.108 1.75-1.594.648-1.945.095-.196.277-.176.216-.433.385.08.893 0 1.298 0-.197.067.04.553-.65.432.04.182.217.865.217.865.568-.08 2.155-.56 2.594-.433.593.162.23 1.027 1.296 1.08.324.014 2.533-.708 3.025-.863-.14-.122-.1-.547-.215-.648-.17-.15-.492-.08-.647-.216.04-.088.323-.325.216-.433 2.066.628 2.21-.392 4.322 0 .595.108 1.568 1.074 2.81.65.088-.035.197-.386.433-.434.1.29.283.817.43 1.08.345-.08.548-.412.65-.432 0 0 2.7.993 2.81 1.08.108.095.088.736.215.865.06.06.61.155.65.216.364-.582 1.013-1.284 1.295-1.946.244-.58.136-1.04.433-1.513.44-.716 1.486-1.466 1.946-2.16.27-.42.154-.893.43-1.298.59-.87 1.683-1.38 2.38-2.16.714-.82 1.06-1.718 1.728-2.596.053-.08.628-.338.648-.432.115-.608-.406-.838-.432-1.08-.095-.697.1-2.075.216-3.027.02-.21.27-1.486.433-1.73l.43-.216c.623-2.107.285-3.776.65-6.268.04-.324.722-1.5.648-1.945-.04-.21-.552-.635-.647-.865.392-.082.115-.088.216-.433.586 0 1.606.182 2.16 0 .298-.108.345-.764.65-.866.438-.158.464.252.98.227-.247-.402-.252-1-.63-1.41" fill="#fff"/><path d="M82.05 73.47c-.302-.33-.62-.336-.97-.61-.422-.333-.437-1.044-.97-.978-.407.05-.357.63-.755.732-.484.127-.71-.33-1.185-.488-.332-.112-.635.02-.862-.244-.38-.44.506-.78.646-1.344.08-.326.35-.62.107-.855-.21-.205-.477.104-.752 0-.545-.204-.503-.78-.648-1.344-.117-.463-.086-.744-.107-1.222-.022-.476.068-.75 0-1.22-.08-.546.107-1.234-.432-1.345-.462-.095-.572.473-.97.734-.402.265-.84.19-1.076.61-.285.502.614 1.047.215 1.466-.27.28-.61.093-.97.244-.47.197-.686 1.055-1.08.732-.23-.19.016-.544-.215-.733-.295-.24-.592.177-.97.122-.36-.053-.582-.133-.862-.367-.502-.42-.102-1.102-.54-1.59-.21-.234-.468-.225-.645-.486-.27-.396.045-.77-.11-1.223-.184-.552-.513-.752-.86-1.22-.288-.387-.684-.502-.755-.977-.044-.286.122-.445.107-.734-.027-.52-.65-.712-.54-1.22.165-.736 1.12-.374 1.834-.61.336.19.482.413.862.488.374.073.6-.032.97-.122.393-.096.743-.032.97-.366.378-.556-.877-.703-1.077-1.344-.088-.276-.236-.474-.11-.732.173-.352.606-.385.97-.245.408.158.185.726.54.978.58.413 1.124-.31 1.8-.31.31 0 .57-.387.9-.677.28-.246.363-.474.676-.676.317-.203.57-.166.902-.338.746-.387.818-1.107 1.577-1.465.49-.232.78-.187 1.31-.32.406-.214.943-.446.995-.484.175-.142.08-.763.216-.864-.635-1.09-1.405-2.054-2.162-3.028-.296.224-.588.697-.864.865-.5.29-1.095.087-1.514.432L75 52.39c-.26-.217-.562-.534-.866-.65.087-.337.405-.547.432-.648.128-.54-.303-.276-.216-.65-.547-.134-.784-.228-1.297-.43-.162.14-.344.695-.648.647-.075-.015-.392-.784-.432-.866-1.014.11-2.642-.27-3.46 0-.182.055-.29.73-.432.865-.322.283-.95.162-1.295.432-.81.62-.534 1.79-.432 2.81-2.48-.67-.947.15-1.947.432-.667.183-.796-.256-1.296-.216-.35.02-1.012.54-1.297.65.48.924.865 1.668 1.297 2.593.42 0 1.365-.174 1.73 0 .046.02 0 .967 0 1.082.324.073.75 0 1.08 0l.216.432c-.297.183-.73.764-1.08.865-1.21.337-1.858 0-2.81.43-1.406.63-.872 2.082-1.297 2.163-.332.06-.3-.392-.434-.432-.398-.142-.89.088-1.296 0-.077-.018-.16-.06-.25-.118-.346-.223-.762-.665-1.047-.746-.743-.21-1.412.087-1.945-.217l-.217-.864c-.16-.224-3.194-2.304-3.457-2.38-1.594-.485-2.398.054-3.89-.432-.4.36-1.427 1.163-1.514 1.73-.09.487.31.324.215.65.588-.13.683-.23 1.298-.217 0 .06-.034.85 0 .864-.332 1.487-1.028 2.487-1.514 4.108.23.048.336.4.43.433.4.136.886-.12 1.298 0 .1.028.5.554.648.65.44-.324-.216.864-.216.864-.98-.148-1.465-.128-2.594-.216-.918 2.864-.357 1.344-2.16 1.513l-.433.433c-.344.09-.73 0-1.08 0 .067.284.317.92.215 1.08-.027.04-.6 0-.648 0-.047.083-.17.406-.216.434h-.216c.357.452.986 1.98 1.512 2.16.236.082.635-.106.865 0-.472 1.79-.73 1.515 1.73 1.515.128.39.243 1.405.43 1.73.123.215.78.19.866.43v.434c.853.486 1.798.047 2.81.432.44.163.75.784 1.08 1.08l-.215.65c-.796 0-1.81-.156-2.592 0-.25.04-.907.6-1.082.648-.16.033-.505-.102-.647 0-.967.615-1.068 2.52-2.162 3.026-.58.264-1.22-.04-1.944.216-.142.048-.305.56-.432.65-.473.29-1.1.012-1.73.215-.27.08-.6.52-.864.65l.216.864c.433.093.844 0 1.297 0-.102.087-.13.567-.217.647-.486.42-1.053.635-1.512 1.082-.048-.062-.4-.642-.433-.65-.525-.134-.316.36-.647.217-.21.92-.372 1.716-.65 2.594-.04-.06-.587-.155-.647-.216-.406-.39.028-1.073-1.08-.863-.06.006-.277.264-.65.216v-.432c-1.762 0-3.646.094-4.106 1.297-.095.23.135.432 0 .65 1.026.262 2.195 1.074 3.026 1.296 1.318.344 2.35.25 3.674.433-.087.026-.695.6-.864.648-1.946.493-4.708-.196-6.052.864-1.074.83-.554 2.33-.433 1.73.34.054 1.29.358 1.73.433.21.628-.074 1.02.433 1.297.973.527 2.188.047 3.026-.216-.09.318.223.407-.217.433l-.217.433c-.472.162-1.04-.155-1.512 0-.33.1-.818.756-1.08.865-.57.21-.974.074-1.514.217 0 0-.44 1.087.65 1.296.89.17 6.105-.952 3.456.865-.216.143-.647-.135-.863 0-.068.034 0 .77 0 .865-.244.06-.927.048-1.298.216-.15.06-.344.81-.432.864.23.047.338.398.432.433 1.27.43 2.66-.48 3.675-.216.12.027 1.425 1.453 1.73 1.513.844.163 1.404-.42 1.513-.432.52-.08 2.606.028 3.025.217.007 0 0 .615 0 .65.31.106.803.24 1.08.43.163-.1.338-.688.433-.864.643.258.98.244 1.514.433v.216c.4.04.08-.38.65-.216.14-.257.195-.77.43-.865.082-.033.662.304 1.082.217.487-.108 1.75-1.594.648-1.945.095-.196.277-.176.216-.433.385.08.893 0 1.298 0-.197.067.04.553-.65.432.04.182.217.865.217.865.568-.08 2.155-.56 2.594-.433.593.162.23 1.027 1.296 1.08.324.014 2.533-.708 3.025-.863-.14-.122-.1-.547-.215-.648-.17-.15-.492-.08-.647-.216.04-.088.323-.325.216-.433 2.066.628 2.21-.392 4.322 0 .595.108 1.568 1.074 2.81.65.088-.035.197-.386.433-.434.1.29.283.817.43 1.08.345-.08.548-.412.65-.432 0 0 2.7.993 2.81 1.08.108.095.088.736.215.865.06.06.61.155.65.216.364-.582 1.013-1.284 1.295-1.946.244-.58.136-1.04.433-1.513.44-.716 1.486-1.466 1.946-2.16.27-.42.154-.893.43-1.298.59-.87 1.683-1.38 2.38-2.16.714-.82 1.06-1.718 1.728-2.596.053-.08.628-.338.648-.432.115-.608-.406-.838-.432-1.08-.095-.697.1-2.075.216-3.027.02-.21.27-1.486.433-1.73l.43-.216c.623-2.107.285-3.776.65-6.268.04-.324.722-1.5.648-1.945-.04-.21-.552-.635-.647-.865.392-.082.115-.088.216-.433.586 0 1.606.182 2.16 0 .298-.108.345-.764.65-.866.438-.158.464.252.98.227-.247-.402-.252-1-.63-1.41z" fill="none" stroke="#231f20" stroke-width=".625"/><path d="M67.865 102.973c.062.06.608.155.65.216.364-.582 1.012-1.284 1.295-1.947.244-.58.135-1.04.433-1.512.44-.716 1.486-1.466 1.945-2.16.27-.42.156-.893.432-1.298.588-.87 1.683-1.38 2.378-2.16.716-.82 1.06-1.718 1.73-2.596.054-.082.627-.338.65-.433.112-.607-.408-.837-.434-1.08-.095-.696.1-2.074.216-3.027.02-.21.27-1.485.432-1.73l.432-.215c.62-2.107.284-3.776.65-6.268.04-.324.72-1.5.648-1.945-.042-.21-.555-.636-.65-.865.392-.08.116-.088.217-.433.587 0 1.607.182 2.16 0 .298-.11.345-.764.65-.866.438-.158.463.252 1.08.217.784-.12 1.505-1.398 1.945-1.944 1.392.41.965.216 2.162 0 .095-1.014.135-2.048 0-2.595.513.062.472-.377 1.08-.216.06.014.378.575.432.65 0 0 .574.033.215-.217 0 0 .852-.026.217-.216.053-.033.426-.208.432-.216.278-.566.068-1.107.216-1.728.507-2.19.52-2.142-1.512-3.027.377-.548.472-.893.864-1.514.385.37-.088-1.02-.65-1.297h-.214c-.56-1.616.42-4.128.215-5.406-.128-.77-.816-.87-1.296-1.297-.53-.468-.685-.645-.877-.77-.208-.136-.46-.21-1.285-.526l-.216-.432c-.765-.087-.798.365-1.082.433-1.315.284-2.56-.383-3.243-.432-.587-.047-.985.4-1.296.433-.643.067-.356-.147.084-.38.406-.214.944-.446.996-.484.175-.142.08-.763.215-.865-.635-1.087-1.405-2.052-2.16-3.026-.298.224-.588.697-.865.865-.5.29-1.095.087-1.513.432l-.65 1.297c-.255-.217-.56-.534-.863-.65.088-.337.405-.547.433-.648.127-.54-.305-.278-.217-.65-.547-.134-.783-.23-1.297-.43-.163.14-.345.695-.65.647-.073-.014-.39-.784-.43-.866-1.014.11-2.64-.27-3.46 0-.18.055-.29.73-.43.865-.325.283-.954.162-1.3.432-.81.62-.533 1.79-.43 2.81-2.48-.67-.946.15-1.946.432-.67.183-.797-.256-1.297-.216-.35.02-1.013.54-1.297.65.48.924.865 1.668 1.297 2.593.42 0 1.364-.174 1.73 0 .047.02 0 .967 0 1.082.324.074.75 0 1.08 0l.217.432c-.298.183-.73.763-1.082.865-1.208.337-1.857 0-2.81.43-1.405.63-.87 2.082-1.296 2.163-.332.06-.298-.392-.433-.432-.4-.142-.893.088-1.298 0-.077-.018-.162-.06-.25-.118-.346-.223-.763-.666-1.047-.746-.744-.21-1.413.087-1.946-.217l-.217-.866c-.16-.222-3.195-2.302-3.457-2.377-1.594-.486-2.4.054-3.89-.433-.4.36-1.426 1.163-1.514 1.73-.088.487.31.324.215.65.588-.13.682-.23 1.297-.218 0 .06-.034.85 0 .865-.33 1.487-1.027 2.487-1.513 4.108.23.048.337.4.432.433.397.136.885-.12 1.296 0 .1.028.5.554.65.65.437-.326-.218.864-.218.864-.978-.148-1.466-.128-2.593-.216-.92 2.864-.358 1.344-2.162 1.513l-.432.433c-.345.088-.73 0-1.08 0 .066.284.316.92.215 1.08-.026.04-.6 0-.65 0-.045.083-.168.406-.214.434h-.216c.357.452.986 1.98 1.512 2.16.237.082.635-.106.865 0-.473 1.79-.73 1.515 1.73 1.515.128.39.243 1.405.432 1.73.12.215.776.187.865.43v.434c.85.486 1.796.047 2.808.432.44.16.75.784 1.082 1.08l-.217.65c-.796 0-1.81-.156-2.593 0-.25.04-.905.6-1.08.648-.163.033-.508-.102-.65 0-.965.615-1.067 2.52-2.16 3.026-.582.264-1.224-.04-1.947.216-.14.048-.303.56-.43.65-.475.29-1.102.013-1.73.215-.27.08-.602.52-.865.65l.217.863c.43.095.843 0 1.296 0-.1.088-.13.567-.216.648-.487.42-1.054.635-1.513 1.082-.047-.062-.4-.642-.432-.65-.528-.134-.318.358-.65.217-.21.92-.37 1.716-.648 2.594-.04-.06-.587-.155-.647-.216-.407-.39.026-1.073-1.082-.864-.06.008-.277.263-.648.216v-.43c-1.763 0-3.648.092-4.107 1.295-.095.23.135.432 0 .65 1.027.262 2.195 1.072 3.027 1.296 1.316.344 2.35.25 3.673.433-.087.026-.695.6-.863.647-1.947.494-4.71-.195-6.053.865-1.074.83-.554 2.33-.432 1.73.337.054 1.29.358 1.728.433.21.628-.073 1.02.433 1.297.972.527 2.19.047 3.026-.216-.088.318.222.406-.217.433l-.216.433c-.473.162-1.04-.155-1.513 0-.33.1-.817.756-1.08.865-.57.21-.974.074-1.514.217 0 0-.44 1.087.648 1.296.892.17 6.106-.952 3.46.865-.218.143-.65-.135-.865 0-.07.034 0 .77 0 .865-.244.06-.926.048-1.298.216-.148.06-.345.81-.432.863.23.048.337.4.432.433 1.27.432 2.662-.48 3.675-.217.122.027 1.425 1.452 1.73 1.513.843.163 1.404-.42 1.512-.432.52-.08 2.607.028 3.026.217.008 0 0 .615 0 .65.31.106.804.24 1.08.43.164-.1.34-.688.434-.864.64.256.978.244 1.512.433v.216c.4.04.08-.38.65-.216.14-.257.195-.77.43-.865.083-.033.663.304 1.08.217.488-.11 1.75-1.594.65-1.945.095-.196.278-.176.216-.433.385.08.892 0 1.297 0-.195.067.04.553-.648.432.04.182.215.864.215.864.568-.082 2.154-.56 2.594-.433.593.163.228 1.028 1.295 1.08.325.015 2.534-.707 3.027-.864-.142-.122-.102-.547-.217-.648-.168-.15-.492-.08-.648-.216.04-.09.325-.325.216-.433 2.067.628 2.21-.392 4.324 0 .593.108 1.566 1.074 2.81.65.087-.035.195-.386.432-.434.1.29.282.817.43 1.08.345-.08.548-.412.65-.433 0 0 2.702.994 2.81 1.08.108.096.087.737.215.866z" fill="none" stroke="#231f20" stroke-width="1.875" stroke-linecap="round" stroke-linejoin="round"/><path d="M96.18 78.33c.183-.028.11-.582.217-.65.42-.29 1.013 0 1.513-.215.162-.074.283-.54.432-.65.986-.748 2.39-1.714 1.514-3.673-.068-.15-.818-.345-.865-.432-.46.37-1.033 1.27-1.512 1.512-1.33.65-1.69-.242-2.378 1.298-.352.77-.195 1.222-.432 2.16.467.116.567.048.864.217.25.143-.067.514.65.433z" fill="none" stroke="#231f20" stroke-width="1.875" stroke-linecap="round" stroke-linejoin="round"/><path d="M137.25 2.453c.107.028.013.256.432.216.486-.062.762-.73 1.08-.866.31-.14.952 0 1.297 0-.163-.58.297-.843-.433-.865-.9-.027-1.986.79-2.594 1.08 0 0-.034.804.216.433z" fill="none" stroke="#231f20" stroke-width="1.875" stroke-linecap="round" stroke-linejoin="round"/><path d="M132.278 7.21c-.318-2.34-.324-1.845 1.73-2.38.29.615.81 1.244 1.08 1.946.067 0 .587-.047.65 0 .126-.087.56-.62.646-.648 0 0 1.236.128-.215-.65.113-.64.16-.803.214-1.512-1 .298-1.56.52-2.16 0 0 0-.38-1.865-.434-2.16-.18 0-.715.087-.863 0-.54.512-1.953 1.81-.865 2.593-1.98.795-1.453.76-1.082 2.81.413 0 .9-.11 1.298 0z" fill="none" stroke="#231f20" stroke-width="1.875" stroke-linecap="round" stroke-linejoin="round"/><path d="M137.898 4.4c.837-.427.837-.664 0-1.082v1.08z" fill="none" stroke="#231f20" stroke-width="1.875" stroke-linecap="round" stroke-linejoin="round"/><path d="M95.532 12.397c.447.1.987.64 1.945.433.345-.082.595-.757.865-.865.96-.4 1.9 0 3.027-.217.29-.06.836-.533 1.08-.648h.215c.466-.69.047-1.763.432-2.594.19-.425.9-.588 1.298-.865 1.69-1.208 1.87-1.464 1.73-3.89l-.65-.215c-1.114.296-2.235.992-3.24 1.296-.616.183-1-.067-1.515.217-.175.088-.264.554-.433.65-.337-.265-.573-.596-.863-.866-.427.25-.69-.033-1.082.217v.433S96.87 6.722 96.83 6.777c.127.304.5.62.43 1.08 0 0-.633.58-.646.65-.224.816.147 1.586.216 2.16-.176.115-1.23.696-1.298.865-.1.224.122.65 0 .865z" fill="none" stroke="#231f20" stroke-width="1.875" stroke-linecap="round" stroke-linejoin="round"/><path d="M84.293 6.56c.446.4 0-1.08 0-1.08-.284 0-.818.114-1.08 0 .087.148 0 .682 0 .864 0 0 1.81.602 1.08.217z" fill="none" stroke="#231f20" stroke-width="1.875" stroke-linecap="round" stroke-linejoin="round"/><path d="M134.007 8.506c.06-.345 1.006-1.67-.216-1.513-1.06.128.17 1.364.217 1.513z" fill="none" stroke="#231f20" stroke-width="1.875" stroke-linecap="round" stroke-linejoin="round"/><path d="M91.426 13.262c.797 1.986.446 2.783 2.593 1.73-.048-.014.418-.635.432-.65-.075-.142-.514-1.007-.65-1.08-.566-.312-1.24-.115-1.944-.217.324 0-.432.217-.432.217z" fill="none" stroke="#231f20" stroke-width="1.875" stroke-linecap="round" stroke-linejoin="round"/><path d="M91.858 16.072s-.203.39-.216.432c-.304-.256-.02.75 0 .865.06 0 .595-.048.648 0-.1-.582.31-1.338-.432-1.298z" fill="none" stroke="#231f20" stroke-width="1.875" stroke-linecap="round" stroke-linejoin="round"/><path d="M89.696 22.125c.243.095.413-.13.65 0l.215-1.945.865-.216c.318-1.115-.37-2.095-.647-2.812h-.433c-.635 1.548-1.236 2.014-1.514 4.108l.434.216c.087.02.337.608.432.65z" fill="none" stroke="#231f20" stroke-width="1.875" stroke-linecap="round" stroke-linejoin="round"/><path d="M87.32 24.503c.1-.304-.015-.514.215-.65.264-.168.736.076.865-.215.155-.365-.162-.723 0-1.08-.156 0-.744.087-.865 0-1.216.91-.675.702-.865 1.945.068 0 .595-.048.65 0z" fill="none" stroke="#231f20" stroke-width="1.875" stroke-linecap="round" stroke-linejoin="round"/><path d="M97.262 28.394c.202-.52 1.047-.67.648-2.16-.04-.136-.628-.583-.648-.65-.27.073-.737.17-1.298.216.27 1.054.305 1.5.65 2.378.445-.13.37.115.648.216z" fill="none" stroke="#231f20" stroke-width="1.875" stroke-linecap="round" stroke-linejoin="round"/><path d="M93.37 31.204c-.513.074-2.228 1.703-.864 1.73.798.012 3.14-2.095.865-1.73z" fill="none" stroke="#231f20" stroke-width="1.875" stroke-linecap="round" stroke-linejoin="round"/><path d="M89.913 33.582c1.14-.12.303-1.453-.65-1.298-.6.095-.944 1.453.65 1.298z" fill="none" stroke="#231f20" stroke-width="1.875" stroke-linecap="round" stroke-linejoin="round"/><path d="M92.94 41.148c.134.13 0 1.074 0 1.297.134-.055.647-.216.647-.216 0-.102-.067-.818 0-.866l-.648-.216z" fill="none" stroke="#231f20" stroke-width="1.875" stroke-linecap="round" stroke-linejoin="round"/><path d="M96.613 42.23h-.216c-1.324.77-1.743 1.674-2.81 2.593h-.433l-.216-1.08c-1.18.385-2.154.41-3.026 1.08-.203.148-1.046 1.067-1.08 1.297-.088.486.31.324.216.65.385 0 .92-.102 1.296 0 .508 2.228-.08.978 1.514 1.728.65-.838.736-1.088 1.08-2.378.514-.067.474.37 1.08.216.353-.1 2.555-2.58 3.028-3.026-.082-.196 0-.662 0-.865-.075-.04-.427-.176-.433-.216z" fill="none" stroke="#231f20" stroke-width="1.875" stroke-linecap="round" stroke-linejoin="round"/><path d="M98.99 50.227c-.104.33-.432.65-.432.65l-.216-1.082-.216-.217c-.675 1.29-.864 2.405-.864 4.54.554.298 1.088.568 1.73.865-.184.4.614-.426.648-.648.168-1.17-.115-2.433 0-3.892-.304-.167-.473-.055-.65-.216z" fill="none" stroke="#231f20" stroke-width="1.875" stroke-linecap="round" stroke-linejoin="round"/><path d="M100.053 7.133c.706 0 1.28.572 1.28 1.278 0 .708-.574 1.28-1.28 1.28-.706 0-1.28-.572-1.28-1.28 0-.705.574-1.277 1.28-1.277" fill="#aad801"/><path d="M691.916 506.872l-26.737-26.737 9.942-9.944H631.37v43.754l9.944-9.944 26.737 26.737 23.866-23.865z" fill="url(#pattern41083)" transform="translate(-522.291 -350.093)"/><path d="M152.838 118.223H109.08c-1.036 0-1.876.84-1.876 1.875v43.753c0 .76.458 1.442 1.158 1.733.232.095.476.143.717.143.487 0 .967-.192 1.325-.55l8.618-8.618 25.41 25.41c.367.368.847.55 1.327.55s.96-.182 1.327-.55l23.865-23.862c.35-.353.548-.83.548-1.327 0-.498-.197-.974-.548-1.327l-25.413-25.41 8.574-8.576c.366-.34.595-.83.595-1.37 0-1.034-.837-1.874-1.872-1.874m-.006 1.875l-9.944 9.944 26.738 26.737-23.865 23.864-26.737-26.737-9.944 9.944V120.1h43.752m0 0h.006" fill="#231f20"/><path d="M169.625 156.78l-26.737-26.738 9.943-9.944h-43.75v43.753l9.943-9.943 26.737 26.737 23.865-23.865z" fill="none" stroke="#231f20" stroke-width=".625"/><path d="M154.34 119.473h-45.887v45.888l1.068-1.068 9.5-9.5 26.296 26.294.442.442.443-.442 23.865-23.864.44-.443-.44-.443-26.296-26.295 9.5-9.5 1.068-1.07zm-1.508.625l-9.944 9.944 26.737 26.737-23.865 23.864-26.737-26.737-9.944 9.944V120.1h43.752z" fill="#231f20"/><path d="M533.29 495.16l36.405-10.22 3.8 13.538 21.423-38.148-38.148-21.423 3.8 13.54-36.404 10.22 9.124 32.494z" fill="url(#pattern41077)" transform="translate(-522.291 -350.093)"/><path d="M34.48 86.94c-.412 0-.822.134-1.16.4-.596.47-.85 1.25-.646 1.98l3.294 11.734-34.6 9.715c-.478.134-.884.453-1.128.887-.243.433-.305.946-.17 1.425l9.123 32.492c.232.828.986 1.37 1.805 1.37.167 0 .34-.024.507-.07l34.6-9.715 3.294 11.733c.204.73.83 1.265 1.583 1.355.074.01.15.012.222.012.672 0 1.3-.36 1.635-.956l21.423-38.15c.242-.432.304-.945.17-1.424-.135-.478-.454-.885-.888-1.128L35.397 87.18c-.287-.162-.603-.24-.918-.24m0 1.874l38.148 21.423-21.423 38.148-3.8-13.538-36.406 10.22-9.125-32.493 36.405-10.22-3.8-13.54" fill="#231f20"/><path d="M11 145.068l36.404-10.22 3.8 13.537 21.423-38.148L34.48 88.814l3.8 13.54-36.405 10.22L11 145.068z" fill="none" stroke="#231f20" stroke-width=".625"/><path d="M33.47 87.53l.407 1.453 3.632 12.937-35.803 10.053-.603.17.17.6 9.123 32.494.17.6.6-.168 35.804-10.053 3.633 12.937.408 1.453.74-1.315 21.423-38.15.305-.544-.544-.306-38.15-21.423-1.315-.74zm1.01 1.284l38.148 21.423-21.424 38.148-3.8-13.538-36.406 10.22-9.122-32.493 36.405-10.22-3.8-13.54z" fill="#231f20"/></g></svg>