<svg xmlns="http://www.w3.org/2000/svg" width="151.875" height="167.573"><defs><clipPath><path d="M0 863.584h938.953V0H0v863.584z"/></clipPath><pattern height="12" width="12" patternUnits="userSpaceOnUse" patternTransform="matrix(.707 .707 -.707 .707 4185.04 7519.53)"><path d="M12-3H6v6h6v-6z" fill="#fff"/><g><path d="M10.5 0c0-.828-.672-1.5-1.5-1.5S7.5-.828 7.5 0 8.172 1.5 9 1.5 10.5.828 10.5 0" fill="#33a22b"/></g><path d="M6-3H0v6h6v-6z" fill="#fff"/><g><path d="M4.5 0c0-.828-.672-1.5-1.5-1.5S1.5-.828 1.5 0 2.172 1.5 3 1.5 4.5.828 4.5 0" fill="#33a22b"/></g><path d="M15 3H9v6h6V3z" fill="#fff"/><g><path d="M13.5 6c0-.828-.672-1.5-1.5-1.5s-1.5.672-1.5 1.5.672 1.5 1.5 1.5 1.5-.672 1.5-1.5" fill="#33a22b"/></g><path d="M9 3H3v6h6V3z" fill="#fff"/><g><path d="M7.5 6c0-.828-.672-1.5-1.5-1.5S4.5 5.172 4.5 6 5.172 7.5 6 7.5 7.5 6.828 7.5 6" fill="#33a22b"/></g><path d="M3 3h-6v6h6V3z" fill="#fff"/><g><path d="M1.5 6c0-.828-.672-1.5-1.5-1.5s-1.5.672-1.5 1.5.672 1.5 1.5 1.5S1.5 6.828 1.5 6" fill="#33a22b"/></g><path d="M12 9H6v6h6V9z" fill="#fff"/><g><path d="M10.5 12c0-.828-.672-1.5-1.5-1.5s-1.5.672-1.5 1.5.672 1.5 1.5 1.5 1.5-.672 1.5-1.5" fill="#33a22b"/></g><path d="M6 9H0v6h6V9z" fill="#fff"/><g><path d="M4.5 12c0-.828-.672-1.5-1.5-1.5s-1.5.672-1.5 1.5.672 1.5 1.5 1.5 1.5-.672 1.5-1.5" fill="#33a22b"/></g></pattern><clipPath><path d="M0 863.584h938.953V0H0v863.584z"/></clipPath><clipPath><path d="M348.652 307.12c-3.405-17.55 4.312-33.81 17.236-36.317 12.923-2.508 26.16 9.687 29.565 27.237 2.52 12.993-1.054 25.277-8.323 31.8l-6.74 3.953c-.706.232-1.432.42-2.173.565-1.134.22-2.27.327-3.4.327-11.77 0-23.06-11.554-26.165-27.565"/></clipPath><pattern height="12" width="12" patternUnits="userSpaceOnUse" patternTransform="matrix(.707 .707 -.707 .707 4185.04 7519.53)"><path d="M12-3H6v6h6v-6z" fill="#fff"/><g><path d="M10.5 0c0-.828-.672-1.5-1.5-1.5S7.5-.828 7.5 0 8.172 1.5 9 1.5 10.5.828 10.5 0" fill="#33a22b"/></g><path d="M6-3H0v6h6v-6z" fill="#fff"/><g><path d="M4.5 0c0-.828-.672-1.5-1.5-1.5S1.5-.828 1.5 0 2.172 1.5 3 1.5 4.5.828 4.5 0" fill="#33a22b"/></g><path d="M15 3H9v6h6V3z" fill="#fff"/><g><path d="M13.5 6c0-.828-.672-1.5-1.5-1.5s-1.5.672-1.5 1.5.672 1.5 1.5 1.5 1.5-.672 1.5-1.5" fill="#33a22b"/></g><path d="M9 3H3v6h6V3z" fill="#fff"/><g><path d="M7.5 6c0-.828-.672-1.5-1.5-1.5S4.5 5.172 4.5 6 5.172 7.5 6 7.5 7.5 6.828 7.5 6" fill="#33a22b"/></g><path d="M3 3h-6v6h6V3z" fill="#fff"/><g><path d="M1.5 6c0-.828-.672-1.5-1.5-1.5s-1.5.672-1.5 1.5.672 1.5 1.5 1.5S1.5 6.828 1.5 6" fill="#33a22b"/></g><path d="M12 9H6v6h6V9z" fill="#fff"/><g><path d="M10.5 12c0-.828-.672-1.5-1.5-1.5s-1.5.672-1.5 1.5.672 1.5 1.5 1.5 1.5-.672 1.5-1.5" fill="#33a22b"/></g><path d="M6 9H0v6h6V9z" fill="#fff"/><g><path d="M4.5 12c0-.828-.672-1.5-1.5-1.5s-1.5.672-1.5 1.5.672 1.5 1.5 1.5 1.5-.672 1.5-1.5" fill="#33a22b"/></g></pattern><clipPath><path d="M0 863.584h938.953V0H0v863.584z"/></clipPath><clipPath><path d="M348.652 307.12c-3.405-17.55 4.312-33.81 17.236-36.317 12.923-2.508 26.16 9.687 29.565 27.237 2.52 12.993-1.054 25.277-8.323 31.8l-6.74 3.953c-.706.232-1.432.42-2.173.565-1.134.22-2.27.327-3.4.327-11.77 0-23.06-11.554-26.165-27.565"/></clipPath><pattern height="12" width="12" patternUnits="userSpaceOnUse" patternTransform="matrix(.707 .707 -.707 .707 4185.04 7519.53)"><path d="M12-3H6v6h6v-6z" fill="#fff"/><g><path d="M10.5 0c0-.828-.672-1.5-1.5-1.5S7.5-.828 7.5 0 8.172 1.5 9 1.5 10.5.828 10.5 0" fill="#33a22b"/></g><path d="M6-3H0v6h6v-6z" fill="#fff"/><g><path d="M4.5 0c0-.828-.672-1.5-1.5-1.5S1.5-.828 1.5 0 2.172 1.5 3 1.5 4.5.828 4.5 0" fill="#33a22b"/></g><path d="M15 3H9v6h6V3z" fill="#fff"/><g><path d="M13.5 6c0-.828-.672-1.5-1.5-1.5s-1.5.672-1.5 1.5.672 1.5 1.5 1.5 1.5-.672 1.5-1.5" fill="#33a22b"/></g><path d="M9 3H3v6h6V3z" fill="#fff"/><g><path d="M7.5 6c0-.828-.672-1.5-1.5-1.5S4.5 5.172 4.5 6 5.172 7.5 6 7.5 7.5 6.828 7.5 6" fill="#33a22b"/></g><path d="M3 3h-6v6h6V3z" fill="#fff"/><g><path d="M1.5 6c0-.828-.672-1.5-1.5-1.5s-1.5.672-1.5 1.5.672 1.5 1.5 1.5S1.5 6.828 1.5 6" fill="#33a22b"/></g><path d="M12 9H6v6h6V9z" fill="#fff"/><g><path d="M10.5 12c0-.828-.672-1.5-1.5-1.5s-1.5.672-1.5 1.5.672 1.5 1.5 1.5 1.5-.672 1.5-1.5" fill="#33a22b"/></g><path d="M6 9H0v6h6V9z" fill="#fff"/><g><path d="M4.5 12c0-.828-.672-1.5-1.5-1.5s-1.5.672-1.5 1.5.672 1.5 1.5 1.5 1.5-.672 1.5-1.5" fill="#33a22b"/></g></pattern><pattern height="12" width="12" patternUnits="userSpaceOnUse" patternTransform="matrix(.707 .707 -.707 .707 4190.17 7522.35)"><path d="M12-3H6v6h6v-6z" fill="#fff"/><g><path d="M10.5 0c0-.828-.672-1.5-1.5-1.5S7.5-.828 7.5 0 8.172 1.5 9 1.5 10.5.828 10.5 0" fill="#aad801"/></g><path d="M6-3H0v6h6v-6z" fill="#fff"/><g><path d="M4.5 0c0-.828-.672-1.5-1.5-1.5S1.5-.828 1.5 0 2.172 1.5 3 1.5 4.5.828 4.5 0" fill="#aad801"/></g><path d="M15 3H9v6h6V3z" fill="#fff"/><g><path d="M13.5 6c0-.828-.672-1.5-1.5-1.5s-1.5.672-1.5 1.5.672 1.5 1.5 1.5 1.5-.672 1.5-1.5" fill="#aad801"/></g><path d="M9 3H3v6h6V3z" fill="#fff"/><g><path d="M7.5 6c0-.828-.672-1.5-1.5-1.5S4.5 5.172 4.5 6 5.172 7.5 6 7.5 7.5 6.828 7.5 6" fill="#aad801"/></g><path d="M3 3h-6v6h6V3z" fill="#fff"/><g><path d="M1.5 6c0-.828-.672-1.5-1.5-1.5s-1.5.672-1.5 1.5.672 1.5 1.5 1.5S1.5 6.828 1.5 6" fill="#aad801"/></g><path d="M12 9H6v6h6V9z" fill="#fff"/><g><path d="M10.5 12c0-.828-.672-1.5-1.5-1.5s-1.5.672-1.5 1.5.672 1.5 1.5 1.5 1.5-.672 1.5-1.5" fill="#aad801"/></g><path d="M6 9H0v6h6V9z" fill="#fff"/><g><path d="M4.5 12c0-.828-.672-1.5-1.5-1.5s-1.5.672-1.5 1.5.672 1.5 1.5 1.5 1.5-.672 1.5-1.5" fill="#aad801"/></g></pattern><pattern height="12" width="12" patternUnits="userSpaceOnUse" patternTransform="matrix(.707 .707 -.707 .707 4183.02 7526.16)"><path d="M12-3H6v6h6v-6z" fill="#fff"/><g><path d="M10.5 0c0-.828-.672-1.5-1.5-1.5S7.5-.828 7.5 0 8.172 1.5 9 1.5 10.5.828 10.5 0" fill="#e49f65"/></g><path d="M6-3H0v6h6v-6z" fill="#fff"/><g><path d="M4.5 0c0-.828-.672-1.5-1.5-1.5S1.5-.828 1.5 0 2.172 1.5 3 1.5 4.5.828 4.5 0" fill="#e49f65"/></g><path d="M15 3H9v6h6V3z" fill="#fff"/><g><path d="M13.5 6c0-.828-.672-1.5-1.5-1.5s-1.5.672-1.5 1.5.672 1.5 1.5 1.5 1.5-.672 1.5-1.5" fill="#e49f65"/></g><path d="M9 3H3v6h6V3z" fill="#fff"/><g><path d="M7.5 6c0-.828-.672-1.5-1.5-1.5S4.5 5.172 4.5 6 5.172 7.5 6 7.5 7.5 6.828 7.5 6" fill="#e49f65"/></g><path d="M3 3h-6v6h6V3z" fill="#fff"/><g><path d="M1.5 6c0-.828-.672-1.5-1.5-1.5s-1.5.672-1.5 1.5.672 1.5 1.5 1.5S1.5 6.828 1.5 6" fill="#e49f65"/></g><path d="M12 9H6v6h6V9z" fill="#fff"/><g><path d="M10.5 12c0-.828-.672-1.5-1.5-1.5s-1.5.672-1.5 1.5.672 1.5 1.5 1.5 1.5-.672 1.5-1.5" fill="#e49f65"/></g><path d="M6 9H0v6h6V9z" fill="#fff"/><g><path d="M4.5 12c0-.828-.672-1.5-1.5-1.5s-1.5.672-1.5 1.5.672 1.5 1.5 1.5 1.5-.672 1.5-1.5" fill="#e49f65"/></g></pattern><pattern height="12" width="12" patternUnits="userSpaceOnUse" patternTransform="matrix(.707 .707 -.707 .707 4185.4 7526.35)"><path d="M12-3H6v6h6v-6z" fill="#fff"/><g><path d="M10.5 0c0-.828-.672-1.5-1.5-1.5S7.5-.828 7.5 0 8.172 1.5 9 1.5 10.5.828 10.5 0" fill="#4dc6dd"/></g><path d="M6-3H0v6h6v-6z" fill="#fff"/><g><path d="M4.5 0c0-.828-.672-1.5-1.5-1.5S1.5-.828 1.5 0 2.172 1.5 3 1.5 4.5.828 4.5 0" fill="#4dc6dd"/></g><path d="M15 3H9v6h6V3z" fill="#fff"/><g><path d="M13.5 6c0-.828-.672-1.5-1.5-1.5s-1.5.672-1.5 1.5.672 1.5 1.5 1.5 1.5-.672 1.5-1.5" fill="#4dc6dd"/></g><path d="M9 3H3v6h6V3z" fill="#fff"/><g><path d="M7.5 6c0-.828-.672-1.5-1.5-1.5S4.5 5.172 4.5 6 5.172 7.5 6 7.5 7.5 6.828 7.5 6" fill="#4dc6dd"/></g><path d="M3 3h-6v6h6V3z" fill="#fff"/><g><path d="M1.5 6c0-.828-.672-1.5-1.5-1.5s-1.5.672-1.5 1.5.672 1.5 1.5 1.5S1.5 6.828 1.5 6" fill="#4dc6dd"/></g><path d="M12 9H6v6h6V9z" fill="#fff"/><g><path d="M10.5 12c0-.828-.672-1.5-1.5-1.5s-1.5.672-1.5 1.5.672 1.5 1.5 1.5 1.5-.672 1.5-1.5" fill="#4dc6dd"/></g><path d="M6 9H0v6h6V9z" fill="#fff"/><g><path d="M4.5 12c0-.828-.672-1.5-1.5-1.5s-1.5.672-1.5 1.5.672 1.5 1.5 1.5 1.5-.672 1.5-1.5" fill="#4dc6dd"/></g></pattern><pattern height="12" width="12" patternUnits="userSpaceOnUse" patternTransform="matrix(.707 .707 -.707 .707 4183.02 7526.16)"><path d="M12-3H6v6h6v-6z" fill="#fff"/><g><path d="M10.5 0c0-.828-.672-1.5-1.5-1.5S7.5-.828 7.5 0 8.172 1.5 9 1.5 10.5.828 10.5 0" fill="#e49f65"/></g><path d="M6-3H0v6h6v-6z" fill="#fff"/><g><path d="M4.5 0c0-.828-.672-1.5-1.5-1.5S1.5-.828 1.5 0 2.172 1.5 3 1.5 4.5.828 4.5 0" fill="#e49f65"/></g><path d="M15 3H9v6h6V3z" fill="#fff"/><g><path d="M13.5 6c0-.828-.672-1.5-1.5-1.5s-1.5.672-1.5 1.5.672 1.5 1.5 1.5 1.5-.672 1.5-1.5" fill="#e49f65"/></g><path d="M9 3H3v6h6V3z" fill="#fff"/><g><path d="M7.5 6c0-.828-.672-1.5-1.5-1.5S4.5 5.172 4.5 6 5.172 7.5 6 7.5 7.5 6.828 7.5 6" fill="#e49f65"/></g><path d="M3 3h-6v6h6V3z" fill="#fff"/><g><path d="M1.5 6c0-.828-.672-1.5-1.5-1.5s-1.5.672-1.5 1.5.672 1.5 1.5 1.5S1.5 6.828 1.5 6" fill="#e49f65"/></g><path d="M12 9H6v6h6V9z" fill="#fff"/><g><path d="M10.5 12c0-.828-.672-1.5-1.5-1.5s-1.5.672-1.5 1.5.672 1.5 1.5 1.5 1.5-.672 1.5-1.5" fill="#e49f65"/></g><path d="M6 9H0v6h6V9z" fill="#fff"/><g><path d="M4.5 12c0-.828-.672-1.5-1.5-1.5s-1.5.672-1.5 1.5.672 1.5 1.5 1.5 1.5-.672 1.5-1.5" fill="#e49f65"/></g></pattern><pattern height="12" width="12" patternUnits="userSpaceOnUse" patternTransform="matrix(.707 .707 -.707 .707 4185.4 7526.35)"><path d="M12-3H6v6h6v-6z" fill="#fff"/><g><path d="M10.5 0c0-.828-.672-1.5-1.5-1.5S7.5-.828 7.5 0 8.172 1.5 9 1.5 10.5.828 10.5 0" fill="#4dc6dd"/></g><path d="M6-3H0v6h6v-6z" fill="#fff"/><g><path d="M4.5 0c0-.828-.672-1.5-1.5-1.5S1.5-.828 1.5 0 2.172 1.5 3 1.5 4.5.828 4.5 0" fill="#4dc6dd"/></g><path d="M15 3H9v6h6V3z" fill="#fff"/><g><path d="M13.5 6c0-.828-.672-1.5-1.5-1.5s-1.5.672-1.5 1.5.672 1.5 1.5 1.5 1.5-.672 1.5-1.5" fill="#4dc6dd"/></g><path d="M9 3H3v6h6V3z" fill="#fff"/><g><path d="M7.5 6c0-.828-.672-1.5-1.5-1.5S4.5 5.172 4.5 6 5.172 7.5 6 7.5 7.5 6.828 7.5 6" fill="#4dc6dd"/></g><path d="M3 3h-6v6h6V3z" fill="#fff"/><g><path d="M1.5 6c0-.828-.672-1.5-1.5-1.5s-1.5.672-1.5 1.5.672 1.5 1.5 1.5S1.5 6.828 1.5 6" fill="#4dc6dd"/></g><path d="M12 9H6v6h6V9z" fill="#fff"/><g><path d="M10.5 12c0-.828-.672-1.5-1.5-1.5s-1.5.672-1.5 1.5.672 1.5 1.5 1.5 1.5-.672 1.5-1.5" fill="#4dc6dd"/></g><path d="M6 9H0v6h6V9z" fill="#fff"/><g><path d="M4.5 12c0-.828-.672-1.5-1.5-1.5s-1.5.672-1.5 1.5.672 1.5 1.5 1.5 1.5-.672 1.5-1.5" fill="#4dc6dd"/></g></pattern><pattern height="12" width="12" patternUnits="userSpaceOnUse" patternTransform="matrix(.707 .707 -.707 .707 4183.52 7517.87)"><path d="M12-3H6v6h6v-6z" fill="#fff"/><g><path d="M10.5 0c0-.828-.672-1.5-1.5-1.5S7.5-.828 7.5 0 8.172 1.5 9 1.5 10.5.828 10.5 0" fill="#e31f26"/></g><path d="M6-3H0v6h6v-6z" fill="#fff"/><g><path d="M4.5 0c0-.828-.672-1.5-1.5-1.5S1.5-.828 1.5 0 2.172 1.5 3 1.5 4.5.828 4.5 0" fill="#e31f26"/></g><path d="M15 3H9v6h6V3z" fill="#fff"/><g><path d="M13.5 6c0-.828-.672-1.5-1.5-1.5s-1.5.672-1.5 1.5.672 1.5 1.5 1.5 1.5-.672 1.5-1.5" fill="#e31f26"/></g><path d="M9 3H3v6h6V3z" fill="#fff"/><g><path d="M7.5 6c0-.828-.672-1.5-1.5-1.5S4.5 5.172 4.5 6 5.172 7.5 6 7.5 7.5 6.828 7.5 6" fill="#e31f26"/></g><path d="M3 3h-6v6h6V3z" fill="#fff"/><g><path d="M1.5 6c0-.828-.672-1.5-1.5-1.5s-1.5.672-1.5 1.5.672 1.5 1.5 1.5S1.5 6.828 1.5 6" fill="#e31f26"/></g><path d="M12 9H6v6h6V9z" fill="#fff"/><g><path d="M10.5 12c0-.828-.672-1.5-1.5-1.5s-1.5.672-1.5 1.5.672 1.5 1.5 1.5 1.5-.672 1.5-1.5" fill="#e31f26"/></g><path d="M6 9H0v6h6V9z" fill="#fff"/><g><path d="M4.5 12c0-.828-.672-1.5-1.5-1.5s-1.5.672-1.5 1.5.672 1.5 1.5 1.5 1.5-.672 1.5-1.5" fill="#e31f26"/></g></pattern><pattern height="12" width="12" patternUnits="userSpaceOnUse" patternTransform="matrix(.707 .707 -.707 .707 4183.52 7517.87)"><path d="M12-3H6v6h6v-6z" fill="#fff"/><g><path d="M10.5 0c0-.828-.672-1.5-1.5-1.5S7.5-.828 7.5 0 8.172 1.5 9 1.5 10.5.828 10.5 0" fill="#e31f26"/></g><path d="M6-3H0v6h6v-6z" fill="#fff"/><g><path d="M4.5 0c0-.828-.672-1.5-1.5-1.5S1.5-.828 1.5 0 2.172 1.5 3 1.5 4.5.828 4.5 0" fill="#e31f26"/></g><path d="M15 3H9v6h6V3z" fill="#fff"/><g><path d="M13.5 6c0-.828-.672-1.5-1.5-1.5s-1.5.672-1.5 1.5.672 1.5 1.5 1.5 1.5-.672 1.5-1.5" fill="#e31f26"/></g><path d="M9 3H3v6h6V3z" fill="#fff"/><g><path d="M7.5 6c0-.828-.672-1.5-1.5-1.5S4.5 5.172 4.5 6 5.172 7.5 6 7.5 7.5 6.828 7.5 6" fill="#e31f26"/></g><path d="M3 3h-6v6h6V3z" fill="#fff"/><g><path d="M1.5 6c0-.828-.672-1.5-1.5-1.5s-1.5.672-1.5 1.5.672 1.5 1.5 1.5S1.5 6.828 1.5 6" fill="#e31f26"/></g><path d="M12 9H6v6h6V9z" fill="#fff"/><g><path d="M10.5 12c0-.828-.672-1.5-1.5-1.5s-1.5.672-1.5 1.5.672 1.5 1.5 1.5 1.5-.672 1.5-1.5" fill="#e31f26"/></g><path d="M6 9H0v6h6V9z" fill="#fff"/><g><path d="M4.5 12c0-.828-.672-1.5-1.5-1.5s-1.5.672-1.5 1.5.672 1.5 1.5 1.5 1.5-.672 1.5-1.5" fill="#e31f26"/></g></pattern><pattern height="12" width="12" patternUnits="userSpaceOnUse" patternTransform="matrix(.707 .707 -.707 .707 4183.52 7517.87)"><path d="M12-3H6v6h6v-6z" fill="#fff"/><g><path d="M10.5 0c0-.828-.672-1.5-1.5-1.5S7.5-.828 7.5 0 8.172 1.5 9 1.5 10.5.828 10.5 0" fill="#aad801"/></g><path d="M6-3H0v6h6v-6z" fill="#fff"/><g><path d="M4.5 0c0-.828-.672-1.5-1.5-1.5S1.5-.828 1.5 0 2.172 1.5 3 1.5 4.5.828 4.5 0" fill="#aad801"/></g><path d="M15 3H9v6h6V3z" fill="#fff"/><g><path d="M13.5 6c0-.828-.672-1.5-1.5-1.5s-1.5.672-1.5 1.5.672 1.5 1.5 1.5 1.5-.672 1.5-1.5" fill="#aad801"/></g><path d="M9 3H3v6h6V3z" fill="#fff"/><g><path d="M7.5 6c0-.828-.672-1.5-1.5-1.5S4.5 5.172 4.5 6 5.172 7.5 6 7.5 7.5 6.828 7.5 6" fill="#aad801"/></g><path d="M3 3h-6v6h6V3z" fill="#fff"/><g><path d="M1.5 6c0-.828-.672-1.5-1.5-1.5s-1.5.672-1.5 1.5.672 1.5 1.5 1.5S1.5 6.828 1.5 6" fill="#aad801"/></g><path d="M12 9H6v6h6V9z" fill="#fff"/><g><path d="M10.5 12c0-.828-.672-1.5-1.5-1.5s-1.5.672-1.5 1.5.672 1.5 1.5 1.5 1.5-.672 1.5-1.5" fill="#aad801"/></g><path d="M6 9H0v6h6V9z" fill="#fff"/><g><path d="M4.5 12c0-.828-.672-1.5-1.5-1.5s-1.5.672-1.5 1.5.672 1.5 1.5 1.5 1.5-.672 1.5-1.5" fill="#aad801"/></g></pattern><pattern height="12" width="12" patternUnits="userSpaceOnUse" patternTransform="matrix(.707 .707 -.707 .707 4183.52 7517.87)"><path d="M12-3H6v6h6v-6z" fill="#fff"/><g><path d="M10.5 0c0-.828-.672-1.5-1.5-1.5S7.5-.828 7.5 0 8.172 1.5 9 1.5 10.5.828 10.5 0" fill="#aad801"/></g><path d="M6-3H0v6h6v-6z" fill="#fff"/><g><path d="M4.5 0c0-.828-.672-1.5-1.5-1.5S1.5-.828 1.5 0 2.172 1.5 3 1.5 4.5.828 4.5 0" fill="#aad801"/></g><path d="M15 3H9v6h6V3z" fill="#fff"/><g><path d="M13.5 6c0-.828-.672-1.5-1.5-1.5s-1.5.672-1.5 1.5.672 1.5 1.5 1.5 1.5-.672 1.5-1.5" fill="#aad801"/></g><path d="M9 3H3v6h6V3z" fill="#fff"/><g><path d="M7.5 6c0-.828-.672-1.5-1.5-1.5S4.5 5.172 4.5 6 5.172 7.5 6 7.5 7.5 6.828 7.5 6" fill="#aad801"/></g><path d="M3 3h-6v6h6V3z" fill="#fff"/><g><path d="M1.5 6c0-.828-.672-1.5-1.5-1.5s-1.5.672-1.5 1.5.672 1.5 1.5 1.5S1.5 6.828 1.5 6" fill="#aad801"/></g><path d="M12 9H6v6h6V9z" fill="#fff"/><g><path d="M10.5 12c0-.828-.672-1.5-1.5-1.5s-1.5.672-1.5 1.5.672 1.5 1.5 1.5 1.5-.672 1.5-1.5" fill="#aad801"/></g><path d="M6 9H0v6h6V9z" fill="#fff"/><g><path d="M4.5 12c0-.828-.672-1.5-1.5-1.5s-1.5.672-1.5 1.5.672 1.5 1.5 1.5 1.5-.672 1.5-1.5" fill="#aad801"/></g></pattern><clipPath><path d="M0 863.584h938.953V0H0v863.584z"/></clipPath><clipPath><path d="M484.377 222.584l1.434-102.5c0-33.137 26.864-60 60-60 33.138 0 60.002 26.863 60.002 60v102.5H484.377z"/></clipPath><clipPath><path d="M528.878 164.014s-1.384-9.423 2.702-21.153l-1.714-.065s1.12-22.307-8.566-37.825c0 0-.37-2.52.32-4.795l14.23 1.574-1.57 26.68c0 3.03 2.9 3.163 2.9 3.163l39.864 1.99-.127.316-.922 9.307h-1.845s-.462 4.91-.758 6.096c0 0 1.63 1.334.89 2.224-.742.89-2.423 1.878-2.423 1.878s-.446.197-.643-.148c0 0-7.117 9.686-7.957 11.466l-.247.74s.84-2.718 1.63-4.496c.296-.664.845-1.844 1.41-3.07l.073.005 3.41-5.93c-1.087-.792-.543-3.213-.543-3.213.05-.94 1.63-5.636 1.63-5.636H535.98c-6.672 19.177-4.398 23.197-4.398 23.197-1.055-.13-2.702-2.306-2.702-2.306"/></clipPath><clipPath><path d="M484.377 222.584l1.434-102.5c0-33.137 26.864-60 60-60 33.138 0 60.002 26.863 60.002 60v102.5H484.377z"/></clipPath><pattern height="12" width="12" patternUnits="userSpaceOnUse" patternTransform="matrix(.707 .707 -.707 .707 4184.58 7528.7)"><path d="M12-3H6v6h6v-6z" fill="#fff"/><g><path d="M10.5 0c0-.828-.672-1.5-1.5-1.5S7.5-.828 7.5 0 8.172 1.5 9 1.5 10.5.828 10.5 0" fill="#ff9b0b"/></g><path d="M6-3H0v6h6v-6z" fill="#fff"/><g><path d="M4.5 0c0-.828-.672-1.5-1.5-1.5S1.5-.828 1.5 0 2.172 1.5 3 1.5 4.5.828 4.5 0" fill="#ff9b0b"/></g><path d="M15 3H9v6h6V3z" fill="#fff"/><g><path d="M13.5 6c0-.828-.672-1.5-1.5-1.5s-1.5.672-1.5 1.5.672 1.5 1.5 1.5 1.5-.672 1.5-1.5" fill="#ff9b0b"/></g><path d="M9 3H3v6h6V3z" fill="#fff"/><g><path d="M7.5 6c0-.828-.672-1.5-1.5-1.5S4.5 5.172 4.5 6 5.172 7.5 6 7.5 7.5 6.828 7.5 6" fill="#ff9b0b"/></g><path d="M3 3h-6v6h6V3z" fill="#fff"/><g><path d="M1.5 6c0-.828-.672-1.5-1.5-1.5s-1.5.672-1.5 1.5.672 1.5 1.5 1.5S1.5 6.828 1.5 6" fill="#ff9b0b"/></g><path d="M12 9H6v6h6V9z" fill="#fff"/><g><path d="M10.5 12c0-.828-.672-1.5-1.5-1.5s-1.5.672-1.5 1.5.672 1.5 1.5 1.5 1.5-.672 1.5-1.5" fill="#ff9b0b"/></g><path d="M6 9H0v6h6V9z" fill="#fff"/><g><path d="M4.5 12c0-.828-.672-1.5-1.5-1.5s-1.5.672-1.5 1.5.672 1.5 1.5 1.5 1.5-.672 1.5-1.5" fill="#ff9b0b"/></g></pattern><pattern height="12" width="12" patternUnits="userSpaceOnUse" patternTransform="matrix(.707 .707 -.707 .707 4188.39 7528.6)"><path d="M12-3H6v6h6v-6z" fill="#fff"/><g><path d="M10.5 0c0-.828-.672-1.5-1.5-1.5S7.5-.828 7.5 0 8.172 1.5 9 1.5 10.5.828 10.5 0" fill="#ff9b0b"/></g><path d="M6-3H0v6h6v-6z" fill="#fff"/><g><path d="M4.5 0c0-.828-.672-1.5-1.5-1.5S1.5-.828 1.5 0 2.172 1.5 3 1.5 4.5.828 4.5 0" fill="#ff9b0b"/></g><path d="M15 3H9v6h6V3z" fill="#fff"/><g><path d="M13.5 6c0-.828-.672-1.5-1.5-1.5s-1.5.672-1.5 1.5.672 1.5 1.5 1.5 1.5-.672 1.5-1.5" fill="#ff9b0b"/></g><path d="M9 3H3v6h6V3z" fill="#fff"/><g><path d="M7.5 6c0-.828-.672-1.5-1.5-1.5S4.5 5.172 4.5 6 5.172 7.5 6 7.5 7.5 6.828 7.5 6" fill="#ff9b0b"/></g><path d="M3 3h-6v6h6V3z" fill="#fff"/><g><path d="M1.5 6c0-.828-.672-1.5-1.5-1.5s-1.5.672-1.5 1.5.672 1.5 1.5 1.5S1.5 6.828 1.5 6" fill="#ff9b0b"/></g><path d="M12 9H6v6h6V9z" fill="#fff"/><g><path d="M10.5 12c0-.828-.672-1.5-1.5-1.5s-1.5.672-1.5 1.5.672 1.5 1.5 1.5 1.5-.672 1.5-1.5" fill="#ff9b0b"/></g><path d="M6 9H0v6h6V9z" fill="#fff"/><g><path d="M4.5 12c0-.828-.672-1.5-1.5-1.5s-1.5.672-1.5 1.5.672 1.5 1.5 1.5 1.5-.672 1.5-1.5" fill="#ff9b0b"/></g></pattern><clipPath><path d="M638.378 198.584l.58-78.5c0-33.137 26.863-60 60-60s60 26.863 60 60v78.5h-120.58z"/></clipPath><pattern height="12" width="12" patternUnits="userSpaceOnUse" patternTransform="matrix(.707 .707 -.707 .707 4184.32 7524.05)"><path d="M12-3H6v6h6v-6z" fill="#fff"/><g><path d="M10.5 0c0-.828-.672-1.5-1.5-1.5S7.5-.828 7.5 0 8.172 1.5 9 1.5 10.5.828 10.5 0" fill="#4dc6dd"/></g><path d="M6-3H0v6h6v-6z" fill="#fff"/><g><path d="M4.5 0c0-.828-.672-1.5-1.5-1.5S1.5-.828 1.5 0 2.172 1.5 3 1.5 4.5.828 4.5 0" fill="#4dc6dd"/></g><path d="M15 3H9v6h6V3z" fill="#fff"/><g><path d="M13.5 6c0-.828-.672-1.5-1.5-1.5s-1.5.672-1.5 1.5.672 1.5 1.5 1.5 1.5-.672 1.5-1.5" fill="#4dc6dd"/></g><path d="M9 3H3v6h6V3z" fill="#fff"/><g><path d="M7.5 6c0-.828-.672-1.5-1.5-1.5S4.5 5.172 4.5 6 5.172 7.5 6 7.5 7.5 6.828 7.5 6" fill="#4dc6dd"/></g><path d="M3 3h-6v6h6V3z" fill="#fff"/><g><path d="M1.5 6c0-.828-.672-1.5-1.5-1.5s-1.5.672-1.5 1.5.672 1.5 1.5 1.5S1.5 6.828 1.5 6" fill="#4dc6dd"/></g><path d="M12 9H6v6h6V9z" fill="#fff"/><g><path d="M10.5 12c0-.828-.672-1.5-1.5-1.5s-1.5.672-1.5 1.5.672 1.5 1.5 1.5 1.5-.672 1.5-1.5" fill="#4dc6dd"/></g><path d="M6 9H0v6h6V9z" fill="#fff"/><g><path d="M4.5 12c0-.828-.672-1.5-1.5-1.5s-1.5.672-1.5 1.5.672 1.5 1.5 1.5 1.5-.672 1.5-1.5" fill="#4dc6dd"/></g></pattern><clipPath id="a"><path d="M638.378 198.584l.58-78.5c0-33.137 26.863-60 60-60s60 26.863 60 60v78.5h-120.58z"/></clipPath><pattern id="b" height="12" width="12" patternUnits="userSpaceOnUse" patternTransform="matrix(.707 .707 -.707 .707 4184.32 7524.05)"><path d="M12-3H6v6h6v-6z" fill="#fff"/><g><path d="M10.5 0c0-.828-.672-1.5-1.5-1.5S7.5-.828 7.5 0 8.172 1.5 9 1.5 10.5.828 10.5 0" fill="#4dc6dd"/></g><path d="M6-3H0v6h6v-6z" fill="#fff"/><g><path d="M4.5 0c0-.828-.672-1.5-1.5-1.5S1.5-.828 1.5 0 2.172 1.5 3 1.5 4.5.828 4.5 0" fill="#4dc6dd"/></g><path d="M15 3H9v6h6V3z" fill="#fff"/><g><path d="M13.5 6c0-.828-.672-1.5-1.5-1.5s-1.5.672-1.5 1.5.672 1.5 1.5 1.5 1.5-.672 1.5-1.5" fill="#4dc6dd"/></g><path d="M9 3H3v6h6V3z" fill="#fff"/><g><path d="M7.5 6c0-.828-.672-1.5-1.5-1.5S4.5 5.172 4.5 6 5.172 7.5 6 7.5 7.5 6.828 7.5 6" fill="#4dc6dd"/></g><path d="M3 3h-6v6h6V3z" fill="#fff"/><g><path d="M1.5 6c0-.828-.672-1.5-1.5-1.5s-1.5.672-1.5 1.5.672 1.5 1.5 1.5S1.5 6.828 1.5 6" fill="#4dc6dd"/></g><path d="M12 9H6v6h6V9z" fill="#fff"/><g><path d="M10.5 12c0-.828-.672-1.5-1.5-1.5s-1.5.672-1.5 1.5.672 1.5 1.5 1.5 1.5-.672 1.5-1.5" fill="#4dc6dd"/></g><path d="M6 9H0v6h6V9z" fill="#fff"/><g><path d="M4.5 12c0-.828-.672-1.5-1.5-1.5s-1.5.672-1.5 1.5.672 1.5 1.5 1.5 1.5-.672 1.5-1.5" fill="#4dc6dd"/></g></pattern></defs><g><g><path d="M150.938 91.635c0 41.42-33.58 75-75 75s-75-33.58-75-75 33.58-75 75-75 75 33.58 75 75" fill="#fff"/></g><g><path d="M150.938 91.635c0 41.42-33.58 75-75 75s-75-33.58-75-75 33.58-75 75-75 75 33.58 75 75z" fill="none" stroke="#231f20" stroke-width="1.25.5"/></g><g><g clip-path="url(#a)" transform="matrix(1.25 0 0 -1.25 -797.76 241.74)"><g><path d="M0 0s-2.92 2.003-4.556-.83c0 0-.82-.82-1.183-4.564 0 0 2.92-.87 2.19-4.846 0 0 7.42-5.943 11.483.498 0 0 2.37 2.38 2.824 10.84 0 0-3.51 1.14-6.428-3.804 0 0-1.823-3.56-2.367.05 0 0-.186 8.09-1.37 9.922 0 0-.543 1.143.69 1.278 0 0 .45-.18.77-.915.322-.73 2.457-4.53 7.93-3.197 0 0 1.685 6.124-7.562 7.724 0 0-.32 1.555 1.134 2.013 0 0 2.593-1.147 7.38-1.192 4.787-.046 6.795.14 9.755 1.056 0 0 1.776.408 1.508-1.967 0 0-8.753-.96-7.475-7.684 0 0 5.417-1.46 7.924 3.382 0 0 .363.825 1.052.78 0 0 1.086-.413.09-1.782 0 0-1.143-3.935-1.184-9.51 0 0 .345-1.002-.408-1.32 0 0-.734-.78-1.555.957 0 0-2.683 5.213-6.695 4.207 0 0 .136-9.103 4.143-12.434 0 0 3.424-3.844 10.074 1.142 0 0-.776 3.608 2.185 4.8 0 0-.133 8.772-5.786 5.345 0 0 .73 10.245 7.294.55 0 0 .45 8.598 5.512 10.057 0 0 2.32-4.116-.916-11.66 0 0 11.396 6.175 5.93-4.704 0 0-3.423 6.124-7.203-.78 0 0 1.823-3.29-.643-4.252 0 0 0-9.137 10.213-3.652 0 0 2.783.816 5.698 4.664 0 0 1.228.866.23 2.376-1.005 1.505-2.787.453-2.968.317-.177-.14-2.783-1.768-3.413-2.15 0 0-1.954-.556-.594 1.28 0 0 .37.37.74.815.787.966 1.744 3.305 1.535 8.97 0 0-.086 1.048.64 1.048 0 0 .775.14.915-.725.136-.87.358-7.14 5.648-7.325 0 0 4.42 4.306-.638 10.063 0 0-1.138.736-.64 1.647 0 0 .46.87 1.642.23L60.61 2.58 45.43-23.13v-76.254h-2.865L36.278-84.71h2.733v9.466h-8.748v-9.333h3.006l-5.88-14.674-6.155 14.54h3.15v9.598h-9.297v-9.465h3.282l-6.156-14.805-6.147 14.537h3.14v9.733H-.226v-9.597H3.19l-6.01-14.54-6.155 14.54h3.01v9.466h-8.754v-9.333h2.875l-6.292-14.805h-2.87v75.56L-36.313 2.517s6.15 3.608 6.877 3.925c.73.323 3.513 1.053 1.595-1.458-1.913-2.516-3.554-4.892-1.69-8.826 0 0 .716-2.23 3.145-.775 2.144 1.28 2.87 2.15 3.423 6.08 0 0 0 1.735 1.092 1.328 0 0 .5.312.5-1.555 0-1.877-.042-5.993 1.413-8.232l.912-1.092s1.278-2.103-.956-1.006c0 0-3.92 3.246-5.426 2.244 0 0-2.09-1.378-.182-3.296 0 0 2.144-3.526 7.842-5.344 0 0 7.61-3.21 7.793 4.655 0 0-2.23.69-.594 4.167 0 0-3.006 6.99-7.245.82 0 0-3.282 6.215.363 6.537 0 0 2.325.09 5.648-1.972 0 0-3.046 7.498-.956 11.845 0 0 5.15-1.097 5.425-10.33C-7.335.227-1.37 10.42.14 0H0z" fill="url(#b)" transform="translate(686.539 177.627)"/></g><g><path d="M686.54 177.627s-2.92 2.003-4.557-.83c0 0-.82-.82-1.183-4.564 0 0 2.92-.87 2.19-4.846 0 0 7.42-5.943 11.482.498 0 0 2.37 2.38 2.824 10.84 0 0-3.51 1.14-6.428-3.804 0 0-1.822-3.558-2.366.05 0 0-.186 8.092-1.37 9.923 0 0-.543 1.143.69 1.278 0 0 .45-.18.77-.914.322-.73 2.457-4.53 7.93-3.196 0 0 1.685 6.124-7.562 7.724 0 0-.322 1.555 1.133 2.013 0 0 2.593-1.147 7.38-1.192 4.787-.046 6.795.14 9.755 1.056 0 0 1.777.41 1.51-1.966 0 0-8.754-.96-7.476-7.684 0 0 5.417-1.46 7.924 3.382 0 0 .363.825 1.052.78 0 0 1.087-.413.09-1.782 0 0-1.142-3.935-1.183-9.51 0 0 .345-1.002-.408-1.32 0 0-.734-.78-1.555.957 0 0-2.683 5.213-6.695 4.207 0 0 .136-9.103 4.143-12.434 0 0 3.423-3.844 10.073 1.142 0 0-.776 3.608 2.185 4.8 0 0-.132 8.772-5.785 5.345 0 0 .73 10.245 7.294.55 0 0 .45 8.598 5.512 10.057 0 0 2.32-4.116-.917-11.66 0 0 11.396 6.175 5.93-4.704 0 0-3.423 6.124-7.203-.78 0 0 1.822-3.29-.644-4.252 0 0 0-9.138 10.213-3.653 0 0 2.782.816 5.697 4.664 0 0 1.228.865.23 2.375-1.005 1.505-2.787.453-2.968.317-.178-.14-2.784-1.768-3.414-2.15 0 0-1.954-.556-.594 1.28 0 0 .37.37.74.815.787.966 1.744 3.305 1.535 8.97 0 0-.086 1.048.64 1.048 0 0 .775.14.915-.725.136-.87.358-7.14 5.648-7.325 0 0 4.42 4.306-.64 10.063 0 0-1.137.735-.638 1.646 0 0 .458.87 1.64.23l7.068-4.138-15.18-25.707V78.244h-2.866l-6.287 14.673h2.733v9.465h-8.75V93.05h3.007l-5.88-14.674-6.155 14.542h3.15v9.597h-9.297V93.05h3.282l-6.156-14.805-6.146 14.537h3.14v9.733h-9.432v-9.597h3.418l-6.01-14.542-6.156 14.542h3.01v9.465h-8.754V93.05h2.874l-6.292-14.805h-2.87v75.56l-15.307 26.338s6.15 3.608 6.877 3.925c.73.322 3.513 1.052 1.595-1.46-1.913-2.515-3.554-4.89-1.69-8.825 0 0 .716-2.23 3.145-.775 2.144 1.278 2.87 2.148 3.423 6.078 0 0 0 1.736 1.092 1.33 0 0 .5.31.5-1.556 0-1.877-.042-5.993 1.413-8.232l.91-1.093s1.28-2.103-.955-1.006c0 0-3.92 3.245-5.426 2.243 0 0-2.09-1.378-.183-3.296 0 0 2.144-3.526 7.842-5.344 0 0 7.61-3.21 7.792 4.655 0 0-2.23.69-.594 4.166 0 0-3.005 6.99-7.244.82 0 0-3.282 6.215.363 6.537 0 0 2.325.092 5.648-1.97 0 0-3.046 7.497-.956 11.844 0 0 5.148-1.097 5.424-10.33 0 0 5.966 10.194 7.476-.227h-.14z" fill="none" stroke="#231f20" stroke-width=".5"/></g><g><path d="M668.73 165.946c0 1.07.857 1.935 1.93 1.935 1.066 0 1.932-.864 1.932-1.934 0-1.075-.866-1.94-1.93-1.94-1.075 0-1.932.865-1.932 1.94" fill="#fff" stroke="#231f20" stroke-width=".5"/></g><g><path d="M686.77 169.514c0 1.07.862 1.935 1.937 1.935 1.065 0 1.93-.866 1.93-1.936 0-1.075-.865-1.945-1.93-1.945-1.075 0-1.936.87-1.936 1.944" fill="#fff" stroke="#231f20" stroke-width=".5"/></g><g><path d="M707.072 169.44c0 1.078.866 1.943 1.936 1.943 1.065 0 1.93-.865 1.93-1.944 0-1.07-.865-1.937-1.93-1.937-1.07 0-1.936.866-1.936 1.936" fill="#fff" stroke="#231f20" stroke-width=".5"/></g><g><path d="M725.12 166.012c0 1.07.867 1.94 1.932 1.94s1.93-.87 1.93-1.94c.002-1.07-.864-1.94-1.93-1.94-1.065 0-1.93.87-1.93 1.94" fill="#fff" stroke="#231f20" stroke-width=".5"/></g><g><path d="M649.728 151.135c0 3.454 2.797 6.25 6.228 6.25 3.45 0 6.242-2.796 6.242-6.25s-2.792-6.26-6.242-6.26c-3.43 0-6.228 2.806-6.228 6.26" fill="none" stroke="#231f20" stroke-width=".5"/></g><g><path d="M658.92 125.484h-6.328c-1.505 0-2.71 1.22-2.71 2.73v10.737c0 1.506 1.205 2.72 2.71 2.72h6.328c1.505 0 2.715-1.214 2.715-2.72v-10.737c0-1.51-1.21-2.73-2.715-2.73" fill="none" stroke="#231f20" stroke-width=".5"/></g><g><path d="M658.85 106.29h-6.323c-1.505 0-2.72 1.22-2.72 2.72v10.735c0 1.514 1.215 2.73 2.72 2.73h6.324c1.5 0 2.716-1.216 2.716-2.73V109.01c0-1.5-1.215-2.72-2.715-2.72" fill="none" stroke="#231f20" stroke-width=".5"/></g><g><path d="M658.85 87.224h-6.323c-1.505 0-2.72 1.22-2.72 2.73v10.733c0 1.496 1.215 2.73 2.72 2.73h6.324c1.5 0 2.716-1.234 2.716-2.73V89.953c0-1.51-1.215-2.73-2.715-2.73" fill="none" stroke="#231f20" stroke-width=".5"/></g><g><path d="M649.728 77.76c0 3.46 2.797 6.256 6.228 6.256 3.45 0 6.242-2.797 6.242-6.255 0-3.45-2.792-6.25-6.242-6.25-3.43 0-6.228 2.8-6.228 6.25m1.93 0c0-2.38 1.928-4.32 4.298-4.32 2.385 0 4.31 1.94 4.31 4.32 0 2.39-1.925 4.32-4.31 4.32-2.37 0-4.297-1.93-4.297-4.32" fill="none" stroke="#231f20" stroke-width=".5"/></g><path d="M656.785 83.593h-2.054v8.232h2.055v-8.232z" fill="#fff" stroke="#231f20" stroke-width=".5"/><g><path d="M657.808 151.133h8.064" fill="#fff" stroke="#231f20" stroke-width=".5"/></g><g><path d="M735.717 151.135c0 3.454 2.792 6.25 6.237 6.25 3.436 0 6.233-2.796 6.233-6.25s-2.797-6.26-6.233-6.26c-3.445 0-6.237 2.806-6.237 6.26" fill="none" stroke="#231f20" stroke-width=".5"/></g><g><path d="M738.99 125.484c-1.495 0-2.71 1.22-2.71 2.73v10.737c0 1.506 1.215 2.72 2.71 2.72h6.338c1.496 0 2.706-1.214 2.706-2.72v-10.737c0-1.51-1.21-2.73-2.706-2.73h-6.337z" fill="none" stroke="#231f20" stroke-width=".5"/></g><g><path d="M739.06 106.29c-1.497 0-2.712 1.22-2.712 2.72v10.735c0 1.514 1.215 2.73 2.71 2.73h6.334c1.495 0 2.715-1.216 2.715-2.73V109.01c0-1.5-1.22-2.72-2.715-2.72h-6.333z" fill="none" stroke="#231f20" stroke-width=".5"/></g><g><path d="M739.06 87.224c-1.497 0-2.712 1.22-2.712 2.73v10.733c0 1.496 1.215 2.73 2.71 2.73h6.334c1.495 0 2.715-1.234 2.715-2.73V89.953c0-1.51-1.22-2.73-2.715-2.73h-6.333z" fill="none" stroke="#231f20" stroke-width=".5"/></g><g><path d="M735.717 77.76c0 3.46 2.792 6.256 6.237 6.256 3.436 0 6.233-2.797 6.233-6.255 0-3.45-2.797-6.25-6.233-6.25-3.445 0-6.237 2.8-6.237 6.25m1.93 0c0-2.38 1.928-4.32 4.307-4.32 2.376 0 4.298 1.94 4.298 4.32 0 2.39-1.922 4.32-4.298 4.32-2.38 0-4.306-1.93-4.306-4.32" fill="none" stroke="#231f20" stroke-width=".5"/></g><g><path d="M737.65 151.135c0-2.384 1.926-4.316 4.305-4.316 2.376 0 4.298 1.93 4.298 4.315 0 2.39-1.922 4.315-4.298 4.315-2.38 0-4.306-1.926-4.306-4.315" fill="#fff" stroke="#231f20" stroke-width=".5"/></g><path d="M740.11 150.103h-8.616v2.058h8.617v-2.057z" fill="#fff" stroke="#231f20" stroke-width=".5"/><g><path d="M670.66 169.38c-1.89 0-3.43-1.54-3.43-3.434 0-1.897 1.54-3.44 3.43-3.44 1.893 0 3.432 1.543 3.432 3.44 0 1.894-1.54 3.435-3.43 3.435m0-1.5c1.064 0 1.93-.865 1.93-1.934 0-1.075-.866-1.94-1.93-1.94-1.075 0-1.932.865-1.932 1.94 0 1.07.857 1.935 1.93 1.935" fill="#231f20"/></g><g><path d="M688.707 172.95c-1.894 0-3.436-1.542-3.436-3.436 0-1.9 1.543-3.445 3.437-3.445 1.892 0 3.43 1.544 3.43 3.444 0 1.894-1.538 3.435-3.43 3.435m0-1.5c1.065 0 1.93-.867 1.93-1.936 0-1.075-.865-1.945-1.93-1.945-1.074 0-1.936.87-1.936 1.944 0 1.07.863 1.935 1.937 1.935" fill="#231f20"/></g><g><path d="M709.008 172.884c-1.894 0-3.436-1.545-3.436-3.444 0-1.895 1.542-3.436 3.436-3.436 1.892 0 3.43 1.54 3.43 3.436 0 1.9-1.538 3.444-3.43 3.444m0-1.5c1.065 0 1.93-.866 1.93-1.944 0-1.07-.865-1.936-1.93-1.936-1.07 0-1.936.866-1.936 1.936 0 1.078.866 1.944 1.936 1.944" fill="#231f20"/></g><g><path d="M727.053 169.452c-1.892 0-3.43-1.543-3.43-3.44s1.538-3.44 3.43-3.44c1.892 0 3.43 1.543 3.43 3.44s-1.538 3.44-3.43 3.44m0-1.5c1.065 0 1.93-.87 1.93-1.94 0-1.07-.865-1.94-1.93-1.94s-1.93.87-1.93 1.94c0 1.07.865 1.94 1.93 1.94" fill="#231f20"/></g><g><path d="M673.32 100.883h5.753v-6.465h-2.168l.056.132h-3.64v6.333zm44.98 0h5.75v-6.465h-2.079l.053.132H718.3v6.333zm-30.488.132h6.433v-6.733h-2.328l.056.136h-4.161v6.597zm15.313 0h6.297v-6.597H707.1l.055.132h-4.03v6.465zm-34.023 68.66l.858 1.25c.827 1.204 1.65 1.894 2.26 1.894.78 0 1.62-1.093 2.095-1.92-.55-1.446-.594-2.704-.133-3.75.223-.503.526-.874.827-1.144-.3-2.657-1.736-3.02-2.995-3.02-1.367 0-2.654.525-2.667.53l-.058.025-.065.022c-5.03 1.604-7.002 4.673-7.022 4.704l-.09.14-.123.13c-.304.305-.372.507-.366.57.01.107.15.267.24.355.784-.055 2.552-1.124 3.714-2.087l.137-.112.16-.078c.652-.32 1.173-.47 1.638-.47.688 0 1.288.338 1.607.905.377.67.25 1.42-.018 2.06m54.306 1.28c.753 1.196 1.507 1.868 2.117 1.868.853 0 1.83-1.273 2.088-1.737l.855-1.53c-.215-.51-.327-1.142-.012-1.767.155-.308.645-1.027 1.827-1.027.45 0 .85.105.964.138l.193.056.17.103c.245.147 2.958 1.822 3.504 2.207l-.007-.005c.116.074.43.214.66.214.078 0 .114 0 .204-.135.116-.174.14-.283.138-.308l-.19-.134-.127-.193c-2.53-3.34-4.915-4.128-4.94-4.136l-.132-.043-.14-.07c-1.944-1.046-3.578-1.575-4.855-1.575-2.248 0-2.89 1.94-3.075 3.102.457.375.796.854 1 1.42.466 1.287.104 2.68-.24 3.553m-31.227 3.237c1.27 2.13 2.58 2.85 3.507 3.063-.57-6.333-2.287-8.32-2.306-8.342l-.116-.118-.06-.112c-.976-1.546-2.216-2.298-3.792-2.298-1.905 0-3.84 1.07-4.823 1.708.174 2.594-1.01 4.177-2.18 4.99.243 1.73.574 2.473.69 2.69l.22.153-.038.12c.39.675.773.766 1.096.766.57 0 1.19-.34 1.312-.424l.384-.263h.887c.018-.403.03-.802.04-1.19l.002-.096.014-.094c.36-2.39 1.476-2.892 2.35-2.892 1.382 0 2.348 1.445 2.813 2.34m16.184-7.82c-1.725 0-2.605.904-2.614.913l-.074.084-.087.073c-2.378 1.977-3.272 6.915-3.523 9.85 1.808-.396 3.33-2.598 3.77-3.443.777-1.622 1.774-1.964 2.475-1.964.553 0 .97.212 1.234.4 1.048.575 1.342 1.76 1.1 2.792l.01.473 1.225.744c.787.477 1.292.577 1.576.577 1.156 0 1.698-2.263 1.87-3.777-1.85-1.256-2.282-3.393-2.215-4.955-1.728-1.17-3.322-1.763-4.746-1.763m-18.183 27.017l-.538-.164c-2.016-.635-2.39-2.59-2.15-3.748l.205-1 1.007-.174c2.88-.498 4.894-1.535 5.822-2.998.454-.716.59-1.44.61-1.98-.28-.032-.555-.05-.82-.05-3.176 0-4.305 2.478-4.35 2.583-.526 1.2-1.345 1.606-1.583 1.702l-.35.142-.375-.042c-1.14-.125-1.66-.77-1.87-1.145-.56-1.005-.106-2.066-.01-2.27l.042-.086.053-.08c.14-.216.272-.65.396-1.24-.622.65-1.37.978-2.248.978-1.383 0-2.697-.942-3.764-2.05-1.464 6.795-5.946 7.836-6.167 7.883l-1.153.247-.51-1.063c-1.397-2.905-.857-6.852-.16-9.646-1.676.58-2.83.624-3.135.624h-.03l-.075-.002-.036-.002-.035-.003c-.956-.084-1.748-.47-2.29-1.103v.157c0 2.497-1.008 3.055-1.874 3.074-.144.028-.29.043-.432.043-.786 0-1.758-.47-2.13-1.79-.112-.397-.142-.776-.15-.974-.518-3.62-1.116-3.976-2.694-4.917-.436-.26-.668-.28-.73-.28-.115 0-.22.223-.22.225l-.03.095-.042.09c-1.462 3.087-.37 4.776 1.53 7.276.38.5 1.398 1.833.767 3.11-.166.333-.693 1.11-2.018 1.11-.836 0-1.742-.302-2.146-.48-.744-.325-5.57-3.147-7.03-4.004l-1.29-.755.752-1.29 14.954-25.73h-.61c-1.054 3.093-3.953 5.225-7.316 5.225-4.26 0-7.728-3.477-7.728-7.75 0-3.26 2.043-6.14 5.003-7.262v-.702h-.638c-2.32 0-4.21-1.892-4.21-4.22v-10.737c0-2.332 1.89-4.23 4.21-4.23h.64v-.01h-.704c-2.327 0-4.22-1.897-4.22-4.23V109.01c0-2.08 1.512-3.813 3.494-4.157-1.982-.346-3.494-2.083-3.494-4.167V89.952c0-2.33 1.893-4.23 4.22-4.23h.703v-.704c-2.96-1.12-5.002-4-5.002-7.257 0-4.273 3.467-7.75 7.728-7.75 4.27 0 7.742 3.477 7.742 7.75 0 3.417-2.25 6.392-5.412 7.392v.57h.565c2.325 0 4.216 1.9 4.216 4.23v10.734c0 2.084-1.51 3.82-3.49 4.167 1.98.344 3.49 2.077 3.49 4.157v10.734c0 2.332-1.89 4.23-4.215 4.23h-.564v.01h.634c2.325 0 4.216 1.897 4.216 4.23v10.737c0 2.328-1.89 4.22-4.216 4.22h-.634v.57c2.314.74 4.18 2.56 4.98 4.863h.767V76.745h5.362l.388.913 6.292 14.805.026.062.082-.19 6.156-14.543 1.398-3.303 1.37 3.313 6.01 14.542.022.053.084-.2 6.147-14.537 1.392-3.294 1.374 3.303 6.156 14.804.02.046.078-.186 6.156-14.542 1.42-3.354 1.354 3.38 5.88 14.674.08.203.158-.367 6.287-14.674.39-.91h5.354v71.86h1.18c.8-2.305 2.667-4.126 4.983-4.865v-.57h-.642c-2.32 0-4.21-1.892-4.21-4.22v-10.737c0-2.332 1.89-4.23 4.21-4.23h.643v-.01h-.574c-2.323 0-4.21-1.897-4.21-4.23V109.01c0-2.08 1.507-3.813 3.486-4.157-1.98-.346-3.487-2.083-3.487-4.167V89.952c0-2.33 1.887-4.23 4.21-4.23h.573v-.568c-3.164-.998-5.415-3.973-5.415-7.393 0-4.273 3.47-7.75 7.737-7.75 4.264 0 7.733 3.477 7.733 7.75 0 3.258-2.043 6.136-5.005 7.258v.705h.71c2.323 0 4.214 1.898 4.214 4.23v10.733c0 2.084-1.51 3.82-3.49 4.167 1.98.344 3.49 2.077 3.49 4.157v10.734c0 2.332-1.89 4.23-4.215 4.23h-.71v.01h.646c2.32 0 4.206 1.897 4.206 4.23v10.737c0 2.328-1.887 4.22-4.206 4.22h-.645v.71c2.975 1.148 5.058 4.086 5.005 7.28-.073 4.332-3.47 7.725-7.733 7.725-3.36 0-6.258-2.132-7.31-5.224h-1.176v.43l14.97 25.353.767 1.297-1.3.76-7.066 4.14-.022.012-.022.012c-.51.276-1.02.415-1.515.415-1.106 0-1.858-.684-2.166-1.27-.71-1.296-.08-2.685.953-3.462 3.04-3.56 1.798-6.266 1.017-7.368-1.996.385-3.11 2.188-3.483 5.602-.018.165-.033.294-.046.38-.195 1.2-1.11 2.002-2.28 2.002-.087 0-.166-.005-.23-.012-.545-.028-1.04-.257-1.404-.652-.638-.692-.643-1.637-.62-1.972l.015-.54c-.494.518-1.306.982-2.625.982-.918 0-1.937-.232-2.88-.536 1.65 6.084-.22 9.52-.314 9.687l-.583 1.034-1.14-.33c-3.675-1.058-5.313-4.934-6.036-7.882-1.332 1.39-2.555 2.055-3.748 2.055-.897 0-1.627-.36-2.21-.946.088.412.163.72.21.907.634.996.597 1.804.443 2.322-.24.805-.872 1.3-1.384 1.494l-.21.08-.224.014c-.052.003-.103.005-.153.005-1.178 0-1.992-.862-2.346-1.624-.956-1.823-2.544-2.746-4.718-2.746-.174 0-.336.006-.486.016.003.836.237 1.56.706 2.193 1.627 2.2 5.522 2.685 5.56 2.69l1.193.13.135 1.193c.133 1.188-.1 2.128-.697 2.795-.498.56-1.215.868-2.018.868-.306 0-.536-.046-.62-.065l-.055-.013-.053-.016c-2.526-.782-4.265-.996-8.09-.996-.382 0-.784.003-1.207.007-4.36.04-6.77 1.057-6.794 1.067l-.512.22zm-.087-1.595s2.593-1.147 7.38-1.192c.428-.004.834-.007 1.22-.007 3.933 0 5.84.23 8.535 1.063 0 0 .116.028.284.028.49 0 1.424-.227 1.225-1.994 0 0-8.753-.962-7.475-7.684 0 0 .766-.206 1.857-.206 1.806 0 4.502.568 6.066 3.588 0 0 .343.78.997.78h.054s1.088-.413.09-1.782c0 0-1.14-3.935-1.182-9.51 0 0 .344-1.002-.408-1.32 0 0-.164-.174-.425-.174-.29 0-.698.216-1.13 1.13 0 0-2.232 4.337-5.667 4.337-.332 0-.675-.04-1.028-.13 0 0 .136-9.102 4.143-12.433 0 0 1.26-1.415 3.734-1.415 1.605 0 3.723.595 6.34 2.557 0 0-.777 3.608 2.183 4.8 0 0-.09 6.14-3.43 6.14-.653 0-1.43-.235-2.354-.795 0 0 .336 4.72 2.605 4.72 1.074 0 2.58-1.058 4.69-4.172 0 0 .448 8.6 5.51 10.06 0 0 2.322-4.117-.915-11.66 0 0 3.22 1.745 5.417 1.745 1.934 0 3.073-1.355.512-6.45 0 0-1.4 2.505-3.397 2.505-1.126 0-2.443-.796-3.806-3.285 0 0 1.822-3.29-.644-4.252 0 0 0-5.406 4.647-5.406 1.395 0 3.21.487 5.566 1.753 0 0 2.782.816 5.697 4.664 0 0 1.228.865.23 2.374-.408.612-.946.802-1.45.802-.74 0-1.41-.404-1.518-.484-.178-.14-2.784-1.768-3.414-2.15 0 0-.28-.08-.553-.08-.45 0-.887.217-.04 1.36 0 0 .37.37.738.815.79.966 1.746 3.305 1.537 8.97 0 0-.086 1.048.64 1.048 0 0 .046.01.118.01.223 0 .69-.08.797-.735.136-.87.358-7.14 5.648-7.325 0 0 4.42 4.306-.64 10.063 0 0-1.137.734-.638 1.645 0 0 .245.466.84.466.218 0 .483-.064.8-.235l7.068-4.14-15.18-25.706v-2.34h3.84c.488 2.965 3.05 5.225 6.145 5.225 3.436 0 6.175-2.797 6.233-6.25.05-2.94-2.146-5.546-5.005-6.138v-3.326h2.145c1.496 0 2.706-1.213 2.706-2.72v-10.737c0-1.51-1.21-2.73-2.706-2.73h-2.145v-3.01h2.21c1.495 0 2.714-1.215 2.714-2.73V109.01c0-1.5-1.22-2.72-2.715-2.72h-2.21v-2.875h2.21c1.496 0 2.715-1.233 2.715-2.73V89.953c0-1.51-1.22-2.73-2.715-2.73h-2.21v-3.33c2.85-.57 5.006-3.096 5.006-6.13 0-3.45-2.797-6.252-6.233-6.252-3.445 0-6.237 2.8-6.237 6.25 0 3.18 2.36 5.792 5.415 6.196v3.267h-2.074c-1.497 0-2.71 1.22-2.71 2.73v10.733c0 1.496 1.213 2.73 2.71 2.73h2.073v2.874h-2.074c-1.497 0-2.71 1.22-2.71 2.72v10.734c0 1.514 1.213 2.73 2.71 2.73h2.073v3.01h-2.142c-1.495 0-2.71 1.22-2.71 2.73v10.737c0 1.507 1.215 2.72 2.71 2.72h2.143v3.265c-2.716.36-4.877 2.472-5.324 5.168h-3.84V78.245h-2.866l-6.287 14.673h2.733v9.465h-8.75V93.05h3.007l-5.88-14.674-6.156 14.542h3.152v9.597h-9.297V93.05h3.282l-6.156-14.805-6.146 14.537h3.14v9.733h-9.432v-9.597h3.418l-6.01-14.542-6.157 14.542h3.01v9.465h-8.753V93.05h2.874l-6.292-14.805h-2.87v71.858h-3.426c-.446-2.694-2.604-4.805-5.32-5.167v-3.265h2.134c1.505 0 2.716-1.213 2.716-2.72v-10.737c0-1.51-1.21-2.73-2.716-2.73h-2.134v-3.01h2.065c1.5 0 2.716-1.215 2.716-2.73V109.01c0-1.5-1.215-2.72-2.715-2.72h-2.064v-2.875h2.065c1.5 0 2.716-1.233 2.716-2.73V89.953c0-1.51-1.215-2.73-2.715-2.73h-2.064v-3.267c3.055-.407 5.412-3.018 5.412-6.194 0-3.45-2.792-6.25-6.242-6.25-3.43 0-6.228 2.8-6.228 6.25 0 3.037 2.156 5.562 5.003 6.134v3.33h-2.202c-1.505 0-2.72 1.22-2.72 2.728v10.734c0 1.496 1.215 2.73 2.72 2.73h2.203v2.874h-2.202c-1.505 0-2.72 1.22-2.72 2.72v10.734c0 1.514 1.215 2.73 2.72 2.73h2.203v3.01h-2.138c-1.505 0-2.71 1.22-2.71 2.73v10.737c0 1.507 1.205 2.72 2.71 2.72h2.14v3.327c-2.848.574-5.004 3.105-5.004 6.137 0 3.454 2.797 6.25 6.228 6.25 3.1 0 5.66-2.26 6.15-5.223h3.427v1.646l-15.308 26.337s6.15 3.608 6.876 3.925c.315.138 1.006.35 1.542.35.712 0 1.15-.376.055-1.81-1.913-2.515-3.554-4.89-1.69-8.825 0 0 .406-1.268 1.648-1.268.405 0 .9.135 1.497.492 2.144 1.28 2.87 2.15 3.423 6.08 0 0 0 1.39.782 1.39.092 0 .195-.02.31-.062 0 0 .03.02.078.02.14 0 .42-.176.42-1.575 0-1.877-.04-5.993 1.415-8.232l.91-1.093s.806-1.323.023-1.323c-.204 0-.516.09-.978.317 0 0-2.943 2.435-4.708 2.435-.273 0-.517-.058-.718-.192 0 0-2.09-1.378-.183-3.296 0 0 2.144-3.526 7.842-5.344 0 0 1.536-.648 3.245-.648 2.094 0 4.447.973 4.547 5.303 0 0-2.23.69-.594 4.166 0 0-1.447 3.365-3.75 3.365-1.014 0-2.196-.657-3.494-2.545 0 0-3.282 6.214.363 6.536 0 0 .015.002.045.002.337 0 2.55-.077 5.603-1.973 0 0-3.046 7.497-.957 11.844 0 0 5.15-1.097 5.426-10.33 0 0 2.613 4.465 4.817 4.464 1.128 0 2.15-1.167 2.66-4.69h-.14s-1.003.686-2.162.686c-.82 0-1.717-.344-2.395-1.517 0 0-.82-.82-1.183-4.565 0 0 2.92-.87 2.19-4.845 0 0 3.12-2.5 6.422-2.5 1.79 0 3.632.734 5.06 2.998 0 0 2.37 2.38 2.824 10.84 0 0-.35.113-.922.113-1.237 0-3.51-.535-5.506-3.918 0 0-.803-1.566-1.5-1.566-.356 0-.683.402-.866 1.616 0 0-.186 8.092-1.37 9.923 0 0-.543 1.143.69 1.278 0 0 .448-.18.77-.914.275-.623 1.868-3.477 5.725-3.477.665 0 1.398.084 2.204.28 0 0 1.687 6.124-7.56 7.724 0 0-.322 1.555 1.133 2.013" fill="#231f20"/></g></g></g><g><path d="M130.262 39.925c12.81 13.455 20.676 31.664 20.676 51.71 0 41.42-33.578 75-75 75-41.42 0-75-33.58-75-75 0-19.678 7.578-37.585 19.975-50.964" fill="none" stroke="#231f20" stroke-width="1.25.5"/></g><g><path d="M16.814 52.822c0 2.98 2.41 5.395 5.37 5.395 2.982 0 5.39-2.415 5.39-5.395 0-2.986-2.408-5.394-5.39-5.394-2.96 0-5.37 2.408-5.37 5.394" fill="#fff" stroke="#231f20" stroke-width=".625"/></g><g><path d="M18.207 68.08c-.532 0-.97.43-.97.98v11.416c0 .544.438.98.97.98h7.633c.532 0 .963-.436.963-.98V69.06c0-.55-.43-.98-.963-.98h-7.633z" fill="#fff"/></g><g><path d="M18.207 68.08c-.532 0-.97.43-.97.98v11.416c0 .544.438.98.97.98h7.633c.532 0 .963-.436.963-.98V69.06c0-.55-.43-.98-.963-.98h-7.633z" fill="none" stroke="#231f20" stroke-width=".625"/></g><g><path d="M18.12 92.082c-.54 0-.97.43-.97.958v11.434c0 .533.43.974.97.974h7.633c.532 0 .968-.44.968-.974V93.04c0-.527-.435-.958-.967-.958H18.12z" fill="#fff"/></g><g><path d="M18.12 92.082c-.54 0-.97.43-.97.958v11.434c0 .533.43.974.97.974h7.633c.532 0 .968-.44.968-.974V93.04c0-.527-.435-.958-.967-.958H18.12z" fill="none" stroke="#231f20" stroke-width=".625"/></g><g><path d="M18.12 115.91c-.54 0-.97.436-.97.97v11.44c0 .526.43.963.97.963h7.633c.532 0 .968-.437.968-.964v-11.44c0-.534-.435-.97-.967-.97H18.12z" fill="#fff"/></g><g><path d="M18.12 115.91c-.54 0-.97.436-.97.97v11.44c0 .526.43.963.97.963h7.633c.532 0 .968-.437.968-.964v-11.44c0-.534-.435-.97-.967-.97H18.12z" fill="none" stroke="#231f20" stroke-width=".625"/></g><path d="M23.22 118.297h-2.566v-15.934h2.567v15.934z" fill="#fff" stroke="#231f20" stroke-width=".625"/><path d="M23.22 94.642h-2.566v-15.6h2.567v15.6z" fill="#fff" stroke="#231f20" stroke-width=".625"/><path d="M23.22 70.648h-2.566V55.304h2.567v15.344z" fill="#fff" stroke="#231f20" stroke-width=".625"/><path d="M34.583 54.112H24.5V51.54h10.083v2.572z" fill="#fff" stroke="#231f20" stroke-width=".625"/><g><path d="M133.668 68.08h-7.633c-.532 0-.968.43-.968.98v11.416c0 .544.436.98.97.98h7.63c.534 0 .97-.436.97-.98V69.06c0-.55-.436-.98-.97-.98" fill="#fff" stroke="#231f20" stroke-width=".625"/></g><g><path d="M133.753 92.082h-7.633c-.532 0-.975.43-.975.958v11.434c0 .533.443.974.976.974h7.633c.532 0 .975-.44.975-.974V93.04c0-.527-.443-.958-.975-.958" fill="#fff" stroke="#231f20" stroke-width=".625"/></g><g><path d="M133.753 115.91h-7.633c-.532 0-.975.436-.975.97v11.44c0 .526.443.963.976.963h7.633c.532 0 .975-.437.975-.964v-11.44c0-.534-.443-.97-.975-.97" fill="#fff" stroke="#231f20" stroke-width=".625"/></g><path d="M131.22 137.25h-2.563v-10.29h2.562v10.29z" fill="#fff" stroke="#231f20" stroke-width=".625"/><path d="M131.22 118.297h-2.563v-15.934h2.562v15.934z" fill="#fff" stroke="#231f20" stroke-width=".625"/><path d="M131.22 94.642h-2.563v-15.6h2.562v15.6z" fill="#fff" stroke="#231f20" stroke-width=".625"/><path d="M131.22 70.648h-2.563V55.304h2.562v15.344z" fill="#fff" stroke="#231f20" stroke-width=".625"/><g><path d="M36.292 53.308c0 1.338 1.087 2.425 2.42 2.425 1.336 0 2.42-1.087 2.42-2.425 0-1.338-1.084-2.42-2.42-2.42-1.332 0-2.42 1.082-2.42 2.42" fill="#fff" stroke="#231f20" stroke-width=".625"/></g><g><path d="M54.81 53.308c0 1.338 1.083 2.425 2.42 2.425 1.336 0 2.408-1.087 2.408-2.425 0-1.338-1.072-2.42-2.408-2.42-1.337 0-2.42 1.082-2.42 2.42" fill="#fff" stroke="#231f20" stroke-width=".625"/></g><g><path d="M73.44 53.296c0 1.343 1.076 2.414 2.414 2.414 1.33 0 2.413-1.072 2.413-2.414 0-1.343-1.082-2.425-2.413-2.425-1.338 0-2.414 1.084-2.414 2.426" fill="#fff" stroke="#231f20" stroke-width=".625"/></g><g><path d="M91.946 53.296c0 1.343 1.083 2.414 2.414 2.414 1.337 0 2.42-1.072 2.42-2.414 0-1.343-1.083-2.425-2.42-2.425-1.332 0-2.414 1.084-2.414 2.426" fill="#fff" stroke="#231f20" stroke-width=".625"/></g><g><path d="M113.048 50.917c-1.338 0-2.42 1.076-2.42 2.42 0 1.336 1.083 2.425 2.42 2.425 1.338 0 2.414-1.09 2.414-2.425 0-1.344-1.077-2.42-2.414-2.42" fill="#fff" stroke="#231f20" stroke-width=".625"/></g><g><path d="M39.528 49h72.38v-1.977s-32.864-14.84-72.403.018l.023 1.96z" fill="#fff"/></g><g><path d="M39.528 49h72.38v-1.977s-32.864-14.84-72.403.018l.023 1.96z" fill="none" stroke="#231f20" stroke-width=".625"/></g><path d="M42.1 68.59h11.107V56.763H42.1V68.59z" fill="#fff" stroke="#231f20" stroke-width=".625"/><path d="M60.215 68.59h11.877V56.763H60.215V68.59z" fill="#fff" stroke="#231f20" stroke-width=".625"/><path d="M79.35 68.59h11.543V56.85H79.35v11.74z" fill="#fff" stroke="#231f20" stroke-width=".625"/><path d="M98.322 68.59h11.02V56.763h-11.02V68.59z" fill="#fff" stroke="#231f20" stroke-width=".625"/><g><path d="M94.417 69.842c-1.33 0-2.41 1.083-2.41 2.42 0 1.336 1.08 2.42 2.41 2.42s2.425-1.084 2.425-2.42c0-1.337-1.094-2.42-2.425-2.42" fill="#fff" stroke="#231f20" stroke-width=".625"/></g><g><path d="M73.44 72.26c0 1.338 1.076 2.42 2.414 2.42 1.33 0 2.413-1.082 2.413-2.42 0-1.337-1.082-2.42-2.413-2.42-1.338 0-2.414 1.083-2.414 2.42" fill="#fff" stroke="#231f20" stroke-width=".625"/></g><g><path d="M110.696 72.307c0 1.33 1.076 2.414 2.402 2.414 1.35 0 2.42-1.082 2.42-2.413 0-1.337-1.07-2.425-2.42-2.425-1.326 0-2.402 1.088-2.402 2.425" fill="#fff" stroke="#231f20" stroke-width=".625"/></g><g><path d="M54.866 72.278c0 1.35 1.083 2.42 2.42 2.42 1.336 0 2.414-1.07 2.414-2.42 0-1.338-1.078-2.43-2.414-2.43-1.337 0-2.42 1.093-2.42 2.43" fill="#fff" stroke="#231f20" stroke-width=".625"/></g><g><path d="M36.292 72.278c0 1.35 1.087 2.42 2.42 2.42 1.336 0 2.42-1.07 2.42-2.42 0-1.338-1.084-2.43-2.42-2.43-1.332 0-2.42 1.093-2.42 2.43" fill="#fff" stroke="#231f20" stroke-width=".625"/></g><g><path d="M94.36 88.778c-1.33 0-2.414 1.087-2.414 2.425 0 1.344 1.083 2.42 2.414 2.42 1.337 0 2.42-1.076 2.42-2.42 0-1.337-1.083-2.425-2.42-2.425" fill="#fff" stroke="#231f20" stroke-width=".625"/></g><g><path d="M75.854 88.778c-1.338 0-2.414 1.087-2.414 2.425 0 1.344 1.076 2.42 2.414 2.42 1.33 0 2.414-1.076 2.414-2.42 0-1.337-1.083-2.425-2.414-2.425" fill="#fff" stroke="#231f20" stroke-width=".625"/></g><g><path d="M113.048 88.818c-1.338 0-2.42 1.083-2.42 2.43 0 1.34 1.083 2.415 2.42 2.415 1.338 0 2.414-1.076 2.414-2.414 0-1.35-1.077-2.432-2.414-2.432" fill="#fff" stroke="#231f20" stroke-width=".625"/></g><g><path d="M38.712 88.778c-1.33 0-2.42 1.065-2.42 2.425 0 1.326 1.09 2.414 2.42 2.414 1.338 0 2.42-1.088 2.42-2.414 0-1.36-1.082-2.425-2.42-2.425" fill="#fff" stroke="#231f20" stroke-width=".625"/></g><g><path d="M57.23 88.778c-1.338 0-2.42 1.065-2.42 2.425 0 1.326 1.08 2.414 2.42 2.414 1.337 0 2.408-1.088 2.408-2.414 0-1.36-1.072-2.425-2.41-2.425" fill="#fff" stroke="#231f20" stroke-width=".625"/></g><path d="M42.1 87.708h11.107V75.872H42.1v11.836z" fill="#fff" stroke="#231f20" stroke-width=".625"/><path d="M60.3 87.793h11.792V75.865H60.3v11.928z" fill="#fff" stroke="#231f20" stroke-width=".625"/><path d="M79.35 87.793h11.543V75.798H79.35v11.995z" fill="#fff" stroke="#231f20" stroke-width=".625"/><path d="M98.407 87.708h10.94V75.872h-10.94v11.836z" fill="#fff" stroke="#231f20" stroke-width=".625"/><path d="M79.35 106.65h11.543V94.813H79.35v11.837z" fill="#fff" stroke="#231f20" stroke-width=".625"/><path d="M98.407 106.65h10.94V94.813h-10.94v11.837z" fill="#fff" stroke="#231f20" stroke-width=".625"/><path d="M42.1 106.65h11.107V94.904H42.1v11.746z" fill="#fff" stroke="#231f20" stroke-width=".625"/><path d="M60.3 106.747h11.707V94.904H60.3v11.843z" fill="#fff" stroke="#231f20" stroke-width=".625"/><g><path d="M73.44 110.174c0 1.338 1.076 2.42 2.414 2.42 1.33 0 2.413-1.082 2.413-2.42 0-1.338-1.082-2.43-2.413-2.43-1.338 0-2.414 1.093-2.414 2.43" fill="#fff" stroke="#231f20" stroke-width=".625"/></g><g><path d="M94.417 107.744c-1.33 0-2.41 1.094-2.41 2.43 0 1.337 1.08 2.42 2.41 2.42s2.425-1.082 2.425-2.42c0-1.336-1.094-2.43-2.425-2.43" fill="#fff" stroke="#231f20" stroke-width=".625"/></g><g><path d="M110.696 110.214c0 1.343 1.076 2.425 2.402 2.425 1.35 0 2.42-1.084 2.42-2.426 0-1.338-1.07-2.43-2.42-2.43-1.326 0-2.402 1.092-2.402 2.43" fill="#fff" stroke="#231f20" stroke-width=".625"/></g><g><path d="M38.712 107.738c-1.33 0-2.42 1.087-2.42 2.425 0 1.344 1.09 2.42 2.42 2.42 1.338 0 2.42-1.076 2.42-2.42 0-1.337-1.082-2.425-2.42-2.425" fill="#fff" stroke="#231f20" stroke-width=".625"/></g><g><path d="M57.286 107.738c-1.338 0-2.42 1.087-2.42 2.425 0 1.344 1.083 2.42 2.42 2.42 1.338 0 2.414-1.076 2.414-2.42 0-1.337-1.077-2.425-2.414-2.425" fill="#fff" stroke="#231f20" stroke-width=".625"/></g></g></svg>