<?xml version="1.0" encoding="UTF-8" standalone="no"?>
<svg
   xmlns:dc="http://purl.org/dc/elements/1.1/"
   xmlns:cc="http://creativecommons.org/ns#"
   xmlns:rdf="http://www.w3.org/1999/02/22-rdf-syntax-ns#"
   xmlns:svg="http://www.w3.org/2000/svg"
   xmlns="http://www.w3.org/2000/svg"
   version="1.1"
   id="svg10845"
   height="195.60275"
   width="200.0005">
  <defs
     id="defs4809">
    <pattern
       id="polka"
       patternTransform="rotate(20)"
       height="5"
       width="5"
       patternUnits="userSpaceOnUse">
      <rect
         y="0"
         x="0"
         height="5"
         width="5"
         style="fill:#ffffff"
         id="polka__bg" />
      <circle
         cx="2"
         style="fill:#ff0000"
         cy="2"
         r="1.5"
         id="polka__inner" />
    </pattern>
  </defs>
  <metadata
     id="metadata10850">
    <rdf:RDF>
      <cc:Work
         rdf:about="">
        <dc:format>image/svg+xml</dc:format>
        <dc:type
           rdf:resource="http://purl.org/dc/dcmitype/StillImage" />
        <dc:title></dc:title>
      </cc:Work>
    </rdf:RDF>
  </metadata>
  <g
     style="display:inline"
     transform="translate(-282.08096,-278.41122)"
     id="layer1">
    <ellipse
       style="color:#000000;overflow:visible;visibility:visible;opacity:1;fill:none;fill-opacity:1;fill-rule:nonzero;stroke:#000000;stroke-width:2;stroke-miterlimit:4;stroke-dasharray:none;stroke-opacity:1;marker:none;enable-background:accumulate"
       id="path6022"
       cx="382.06821"
       cy="398.07648"
       rx="74.9505"
       ry="74.950493" />
    <g
       id="layer1-3"
       transform="translate(-0.01300114,9.1221813e-6)">
      <g
         transform="matrix(1.0057947,0,0,1.0057947,305.70317,321.69843)"
         id="g387">
        <path
           d="m 0,0 c -23.44,0 -42.512,-19.07 -42.512,-42.512 0,-23.44 19.07,-42.512 42.512,-42.512 23.44,0 42.512,19.07 42.512,42.512 C 42.512,-19.072 23.442,0 0,0"
           transform="matrix(1.25,0,0,-1.25,74.702,22.996)"
           id="path389"
           style="fill:url(#polka)" />
      </g>
      <g
         transform="matrix(1.0057947,0,0,1.0057947,305.70317,321.69843)"
         id="g391">
        <path
           d="m 98.02,114.047 c 1.52,-2.805 2.86,-5.895 4.01,-9.247 1.68,0.652 3.277,1.367 4.78,2.14 -2.624,2.73 -5.587,5.123 -8.79,7.107 m -55.425,-7.11 c 1.5,-0.77 3.096,-1.486 4.778,-2.138 1.15,3.352 2.492,6.442 4.01,9.247 -3.202,-1.984 -6.165,-4.38 -8.788,-7.11 m 37.35,12.227 0,-18.913 c 4.106,0.247 8.113,0.78 11.958,1.595 -2.973,8.426 -7.274,14.626 -11.958,17.32 M 57.5,101.84 c 3.844,-0.813 7.85,-1.346 11.96,-1.593 l 0,18.914 C 64.775,116.468 60.474,110.267 57.5,101.839 M 30.496,81.38 l 12.53,0 c 0.236,4.54 0.78,8.974 1.624,13.226 -3.03,1.12 -5.86,2.412 -8.446,3.86 -3.045,-5.235 -4.995,-11.075 -5.71,-17.086 m 23.04,0 15.926,0 0,8.36 c -5.056,0.263 -9.974,0.91 -14.665,1.93 -0.626,-3.322 -1.047,-6.77 -1.26,-10.29 m 26.41,0 15.925,0 c -0.213,3.522 -0.635,6.97 -1.26,10.292 -4.695,-1.02 -9.612,-1.667 -14.665,-1.932 l 0,-8.36 z m 26.434,0 12.53,0 c -0.715,6.01 -2.665,11.85 -5.71,17.087 -2.587,-1.45 -5.416,-2.74 -8.445,-3.86 0.844,-4.25 1.388,-8.687 1.624,-13.227 M 53.534,70.893 c 0.213,-3.522 0.634,-6.97 1.26,-10.29 4.69,1.018 9.607,1.665 14.664,1.93 l 0,8.36 -15.924,0 z m 26.41,-8.36 c 5.053,-0.266 9.97,-0.913 14.664,-1.933 0.625,3.322 1.047,6.77 1.26,10.293 l -15.924,0 0,-8.36 z m -49.45,8.36 c 0.714,-6.012 2.664,-11.852 5.71,-17.087 2.586,1.447 5.415,2.74 8.444,3.86 -0.845,4.25 -1.39,8.686 -1.625,13.227 l -12.53,0 z m 74.26,-13.227 c 3.03,-1.12 5.857,-2.413 8.445,-3.86 3.045,5.235 4.995,11.075 5.71,17.087 l -12.53,0 c -0.238,-4.54 -0.78,-8.977 -1.625,-13.227 M 42.594,45.333 c 2.622,-2.73 5.586,-5.125 8.79,-7.108 -1.52,2.805 -2.86,5.896 -4.013,9.248 -1.68,-0.652 -3.278,-1.367 -4.777,-2.14 m 59.436,2.14 c -1.15,-3.353 -2.49,-6.443 -4.01,-9.248 3.202,1.983 6.166,4.377 8.79,7.107 -1.503,0.773 -3.1,1.49 -4.78,2.14 m -22.085,4.55 0,-18.915 C 84.63,35.8 88.93,42 91.902,50.427 c -3.845,0.814 -7.85,1.35 -11.957,1.595 M 57.5,50.43 C 60.474,42.002 64.775,35.8 69.46,33.107 l 0,18.915 C 65.35,51.776 61.344,51.242 57.5,50.429 m 17.202,-29.31 c -30.336,0 -55.015,24.68 -55.015,55.016 0,30.335 24.68,55.015 55.015,55.015 30.335,0 55.015,-24.68 55.015,-55.014 0,-30.335 -24.68,-55.015 -55.015,-55.015 m 17.973,97.796 c 6.634,-2.798 12.477,-7.103 17.122,-12.473 -2.658,-1.557 -5.66,-2.927 -8.94,-4.073 -2.043,6.512 -4.832,12.146 -8.182,16.546 m -35.945,0 c -3.35,-4.4 -6.14,-10.034 -8.183,-16.548 -3.28,1.147 -6.283,2.515 -8.94,4.074 4.643,5.37 10.488,9.676 17.123,12.474 m 21.34,3.107 c 6.776,-2.07 12.697,-10.256 16.267,-21.55 -5.086,-1.223 -10.59,-1.977 -16.267,-2.192 l 0,23.743 m -6.736,0 0,-23.745 c -5.68,0.215 -11.183,0.968 -16.268,2.19 3.57,11.296 9.49,19.483 16.268,21.553 m -35.773,-21.01 c 3.34,-2.035 7.124,-3.775 11.257,-5.19 -1.11,-5.08 -1.8,-10.56 -1.996,-16.318 l -16.387,0 C 29,87.377 31.54,94.71 35.56,101.013 M 53.337,93.928 C 58.954,92.57 65.022,91.75 71.334,91.535 l 0,-12.03 -19.768,0 c 0.19,5.05 0.803,9.908 1.77,14.423 m 42.73,0.003 c 0.97,-4.514 1.58,-9.374 1.77,-14.426 l -19.766,0 0,12.03 c 6.31,0.216 12.377,1.037 17.995,2.397 m 17.78,7.083 c 4.02,-6.304 6.558,-13.636 7.125,-21.51 l -16.387,0.002 c -0.196,5.758 -0.886,11.238 -1.997,16.32 4.134,1.414 7.92,3.154 11.258,5.188 m -62.278,-28.247 19.768,0 0,-12.03 c -6.312,-0.216 -12.38,-1.036 -17.997,-2.395 -0.968,4.515 -1.58,9.374 -1.77,14.425 m 26.503,0 19.767,0 c -0.19,-5.052 -0.802,-9.912 -1.772,-14.427 -5.617,1.36 -11.686,2.182 -17.995,2.397 l 0,12.03 m -49.636,0 16.386,0 c 0.196,-5.758 0.886,-11.238 1.997,-16.32 -4.133,-1.414 -7.918,-3.154 -11.256,-5.19 -4.02,6.305 -6.56,13.637 -7.126,21.51 m 76.148,0 16.388,0 c -0.567,-7.873 -3.105,-15.205 -7.126,-21.51 -3.34,2.036 -7.124,3.775 -11.258,5.19 1.112,5.08 1.802,10.56 1.997,16.32 M 48.548,49.904 C 50.59,43.39 53.378,37.757 56.73,33.357 50.095,36.154 44.25,40.46 39.606,45.83 c 2.658,1.558 5.662,2.927 8.942,4.073 m 52.308,0 c 3.282,-1.146 6.283,-2.516 8.942,-4.075 -4.646,-5.37 -10.49,-9.675 -17.123,-12.472 3.35,4.4 6.14,10.033 8.18,16.546 m -29.52,4.09 0,-23.745 c -6.777,2.07 -12.7,10.258 -16.27,21.554 5.086,1.222 10.59,1.975 16.27,2.19 m 6.735,0 C 83.746,53.776 89.25,53.021 94.338,51.798 90.768,40.502 84.846,32.316 78.07,30.246 l 0,23.744 M 74.703,22.996 c 29.3,0 53.14,23.838 53.14,53.14 0,29.3 -23.84,53.14 -53.14,53.14 -29.302,0 -53.14,-23.84 -53.14,-53.14 0,-29.3 23.838,-53.14 53.14,-53.14"
           id="path393"
           style="fill:#231f20" />
      </g>
      <g
         transform="matrix(1.0057947,0,0,1.0057947,305.70317,321.69843)"
         id="g395">
        <path
           d="m 78.07,60.736 c 6.31,-0.215 12.377,-1.036 17.995,-2.395 0.97,4.516 1.58,9.375 1.772,14.427 l -19.767,0 0,-12.03 z"
           id="path397"
           style="fill:#ffffff" />
      </g>
      <g
         transform="matrix(1.0057947,0,0,1.0057947,305.70317,321.69843)"
         id="g399">
        <path
           d="m 78.07,60.736 c 6.31,-0.215 12.377,-1.036 17.995,-2.395 0.97,4.516 1.58,9.375 1.772,14.427 l -19.767,0 0,-12.03 z"
           id="path401"
           style="fill:none;stroke:#231f20" />
      </g>
      <g
         transform="matrix(1.0057947,0,0,1.0057947,305.70317,321.69843)"
         id="g403">
        <path
           d="m 78.07,53.99 0,-23.74 c 6.776,2.07 12.697,10.257 16.266,21.552 -5.085,1.222 -10.59,1.976 -16.266,2.19"
           id="path405"
           style="fill:#ffffff" />
      </g>
      <g
         transform="matrix(1.0057947,0,0,1.0057947,305.70317,321.69843)"
         id="g407">
        <path
           d="m 78.07,53.99 0,-23.74 c 6.776,2.07 12.697,10.257 16.266,21.552 -5.085,1.222 -10.59,1.976 -16.266,2.19 z"
           id="path409"
           style="fill:none;stroke:#231f20" />
      </g>
      <g
         transform="matrix(1.0057947,0,0,1.0057947,305.70317,321.69843)"
         id="g411">
        <path
           d="m 71.334,30.248 0,23.742 C 65.654,53.777 60.15,53.023 55.067,51.8 58.637,40.504 64.557,32.318 71.334,30.248"
           id="path413"
           style="fill:#ffffff" />
      </g>
      <g
         transform="matrix(1.0057947,0,0,1.0057947,305.70317,321.69843)"
         id="g415">
        <path
           d="m 71.334,30.248 0,23.742 C 65.654,53.777 60.15,53.023 55.067,51.8 58.637,40.504 64.557,32.318 71.334,30.248 Z"
           id="path417"
           style="fill:none;stroke:#231f20" />
      </g>
      <g
         transform="matrix(1.0057947,0,0,1.0057947,305.70317,321.69843)"
         id="g419">
        <path
           d="m 71.334,60.737 0,12.03 -19.767,0 c 0.19,-5.05 0.8,-9.91 1.77,-14.424 5.617,1.36 11.686,2.18 17.997,2.394"
           id="path421"
           style="fill:#ffffff" />
      </g>
      <g
         transform="matrix(1.0057947,0,0,1.0057947,305.70317,321.69843)"
         id="g423">
        <path
           d="m 71.334,60.737 0,12.03 -19.767,0 c 0.19,-5.05 0.8,-9.91 1.77,-14.424 5.617,1.36 11.686,2.18 17.997,2.394 z"
           id="path425"
           style="fill:none;stroke:#231f20" />
      </g>
      <g
         transform="matrix(1.0057947,0,0,1.0057947,305.70317,321.69843)"
         id="g427">
        <path
           d="m 44.822,72.767 -16.39,0 c 0.57,-7.874 3.108,-15.205 7.13,-21.51 3.336,2.036 7.123,3.775 11.256,5.19 -1.11,5.08 -1.802,10.56 -1.996,16.32"
           id="path429"
           style="fill:#ffffff" />
      </g>
      <g
         transform="matrix(1.0057947,0,0,1.0057947,305.70317,321.69843)"
         id="g431">
        <path
           d="m 44.822,72.767 -16.39,0 c 0.57,-7.874 3.108,-15.205 7.13,-21.51 3.336,2.036 7.123,3.775 11.256,5.19 -1.11,5.08 -1.802,10.56 -1.996,16.32 z"
           id="path433"
           style="fill:none;stroke:#231f20" />
      </g>
      <g
         transform="matrix(1.0057947,0,0,1.0057947,305.70317,321.69843)"
         id="g435">
        <path
           d="m 44.822,79.504 c 0.194,5.76 0.885,11.24 1.996,16.32 -4.133,1.415 -7.92,3.154 -11.257,5.19 -4.02,-6.305 -6.558,-13.636 -7.127,-21.51 l 16.39,0 z"
           id="path437"
           style="fill:#ffffff" />
      </g>
      <g
         transform="matrix(1.0057947,0,0,1.0057947,305.70317,321.69843)"
         id="g439">
        <path
           d="m 44.822,79.504 c 0.194,5.76 0.885,11.24 1.996,16.32 -4.133,1.415 -7.92,3.154 -11.257,5.19 -4.02,-6.305 -6.558,-13.636 -7.127,-21.51 l 16.39,0 z"
           id="path441"
           style="fill:none;stroke:#231f20" />
      </g>
      <g
         transform="matrix(1.0057947,0,0,1.0057947,305.70317,321.69843)"
         id="g443">
        <path
           d="m 51.566,79.504 19.767,0 0,12.03 c -6.31,0.215 -12.38,1.035 -17.996,2.394 -0.97,-4.514 -1.58,-9.373 -1.77,-14.424"
           id="path445"
           style="fill:#ffffff" />
      </g>
      <g
         transform="matrix(1.0057947,0,0,1.0057947,305.70317,321.69843)"
         id="g447">
        <path
           d="m 51.566,79.504 19.767,0 0,12.03 c -6.31,0.215 -12.38,1.035 -17.996,2.394 -0.97,-4.514 -1.58,-9.373 -1.77,-14.424 z"
           id="path449"
           style="fill:none;stroke:#231f20" />
      </g>
      <g
         transform="matrix(1.0057947,0,0,1.0057947,305.70317,321.69843)"
         id="g451">
        <path
           d="m 71.334,98.28 0,23.742 C 64.558,119.952 58.637,111.766 55.067,100.47 60.15,99.248 65.655,98.495 71.334,98.28"
           id="path453"
           style="fill:#ffffff" />
      </g>
      <g
         transform="matrix(1.0057947,0,0,1.0057947,305.70317,321.69843)"
         id="g455">
        <path
           d="m 71.334,98.28 0,23.742 C 64.558,119.952 58.637,111.766 55.067,100.47 60.15,99.248 65.655,98.495 71.334,98.28 Z"
           id="path457"
           style="fill:none;stroke:#231f20" />
      </g>
      <g
         transform="matrix(1.0057947,0,0,1.0057947,305.70317,321.69843)"
         id="g459">
        <path
           d="m 78.07,122.023 0,-23.743 c 5.676,0.215 11.18,0.97 16.266,2.192 -3.57,11.296 -9.49,19.48 -16.266,21.55"
           id="path461"
           style="fill:#ffffff" />
      </g>
      <g
         transform="matrix(1.0057947,0,0,1.0057947,305.70317,321.69843)"
         id="g463">
        <path
           d="m 78.07,122.023 0,-23.743 c 5.676,0.215 11.18,0.97 16.266,2.192 -3.57,11.296 -9.49,19.48 -16.266,21.55 z"
           id="path465"
           style="fill:none;stroke:#231f20" />
      </g>
      <g
         transform="matrix(1.0057947,0,0,1.0057947,305.70317,321.69843)"
         id="g467">
        <path
           d="m 78.07,91.535 0,-12.03 19.767,0 c -0.19,5.05 -0.802,9.91 -1.772,14.426 -5.618,-1.36 -11.686,-2.18 -17.995,-2.395"
           id="path469"
           style="fill:#ffffff" />
      </g>
      <g
         transform="matrix(1.0057947,0,0,1.0057947,305.70317,321.69843)"
         id="g471">
        <path
           d="m 78.07,91.535 0,-12.03 19.767,0 c -0.19,5.05 -0.802,9.91 -1.772,14.426 -5.618,-1.36 -11.686,-2.18 -17.995,-2.395 z"
           id="path473"
           style="fill:none;stroke:#231f20" />
      </g>
      <g
         transform="matrix(1.0057947,0,0,1.0057947,305.70317,321.69843)"
         id="g475">
        <path
           d="m 104.582,79.504 16.39,0 c -0.57,7.874 -3.107,15.205 -7.13,21.51 -3.336,-2.035 -7.123,-3.775 -11.256,-5.19 1.11,-5.08 1.802,-10.56 1.996,-16.32"
           id="path477"
           style="fill:#ffffff" />
      </g>
      <g
         transform="matrix(1.0057947,0,0,1.0057947,305.70317,321.69843)"
         id="g479">
        <path
           d="m 104.582,79.504 16.39,0 c -0.57,7.874 -3.107,15.205 -7.13,21.51 -3.336,-2.035 -7.123,-3.775 -11.256,-5.19 1.11,-5.08 1.802,-10.56 1.996,-16.32 z"
           id="path481"
           style="fill:none;stroke:#231f20" />
      </g>
      <g
         transform="matrix(1.0057947,0,0,1.0057947,305.70317,321.69843)"
         id="g483">
        <path
           d="m 104.582,72.767 c -0.194,-5.76 -0.885,-11.24 -1.996,-16.32 4.133,-1.415 7.92,-3.155 11.257,-5.19 4.02,6.305 6.56,13.636 7.128,21.51 l -16.388,0 z"
           id="path485"
           style="fill:#ffffff" />
      </g>
      <g
         transform="matrix(1.0057947,0,0,1.0057947,305.70317,321.69843)"
         id="g487">
        <path
           d="m 104.582,72.767 c -0.194,-5.76 -0.885,-11.24 -1.996,-16.32 4.133,-1.415 7.92,-3.155 11.257,-5.19 4.02,6.305 6.56,13.636 7.128,21.51 l -16.388,0 z"
           id="path489"
           style="fill:none;stroke:#231f20" />
      </g>
      <g
         transform="matrix(1.0057947,0,0,1.0057947,305.70317,321.69843)"
         id="g491">
        <path
           d="m 109.797,45.828 c -2.657,1.558 -5.66,2.928 -8.94,4.074 -2.044,-6.513 -4.833,-12.147 -8.183,-16.547 6.634,2.798 12.48,7.103 17.123,12.473"
           id="path493"
           style="fill:#ffffff" />
      </g>
      <g
         transform="matrix(1.0057947,0,0,1.0057947,305.70317,321.69843)"
         id="g495">
        <path
           d="m 109.797,45.828 c -2.657,1.558 -5.66,2.928 -8.94,4.074 -2.044,-6.513 -4.833,-12.147 -8.183,-16.547 6.634,2.798 12.48,7.103 17.123,12.473 z"
           id="path497"
           style="fill:none;stroke:#231f20" />
      </g>
      <g
         transform="matrix(1.0057947,0,0,1.0057947,305.70317,321.69843)"
         id="g499">
        <path
           d="m 56.73,33.355 c -3.35,4.4 -6.14,10.034 -8.183,16.547 -3.28,-1.145 -6.282,-2.515 -8.94,-4.073 4.644,-5.37 10.488,-9.677 17.123,-12.475"
           id="path501"
           style="fill:#ffffff" />
      </g>
      <g
         transform="matrix(1.0057947,0,0,1.0057947,305.70317,321.69843)"
         id="g503">
        <path
           d="m 56.73,33.355 c -3.35,4.4 -6.14,10.034 -8.183,16.547 -3.28,-1.145 -6.282,-2.515 -8.94,-4.073 4.644,-5.37 10.488,-9.677 17.123,-12.475 z"
           id="path505"
           style="fill:none;stroke:#231f20" />
      </g>
      <g
         transform="matrix(1.0057947,0,0,1.0057947,305.70317,321.69843)"
         id="g507">
        <path
           d="m 39.606,106.44 c 2.657,-1.558 5.66,-2.926 8.94,-4.073 2.045,6.514 4.833,12.148 8.184,16.548 -6.635,-2.798 -12.48,-7.103 -17.124,-12.474"
           id="path509"
           style="fill:#ffffff" />
      </g>
      <g
         transform="matrix(1.0057947,0,0,1.0057947,305.70317,321.69843)"
         id="g511">
        <path
           d="m 39.606,106.44 c 2.657,-1.558 5.66,-2.926 8.94,-4.073 2.045,6.514 4.833,12.148 8.184,16.548 -6.635,-2.798 -12.48,-7.103 -17.124,-12.474 z"
           id="path513"
           style="fill:none;stroke:#231f20" />
      </g>
      <g
         transform="matrix(1.0057947,0,0,1.0057947,305.70317,321.69843)"
         id="g515">
        <path
           d="m 92.675,118.916 c 3.35,-4.4 6.14,-10.034 8.183,-16.546 3.28,1.145 6.282,2.515 8.94,4.073 -4.644,5.37 -10.49,9.676 -17.123,12.473"
           id="path517"
           style="fill:#ffffff" />
      </g>
      <g
         transform="matrix(1.0057947,0,0,1.0057947,305.70317,321.69843)"
         id="g519">
        <path
           d="m 92.675,118.916 c 3.35,-4.4 6.14,-10.034 8.183,-16.546 3.28,1.145 6.282,2.515 8.94,4.073 -4.644,5.37 -10.49,9.676 -17.123,12.473 z"
           id="path521"
           style="fill:none;stroke:#231f20" />
      </g>
      <path
         d="m 411.53289,452.19023 c -1.93716,0 -5.60831,-0.42243 -8.43057,-3.24268 l -69.4622,-69.46219 c -3.87231,-3.87231 -3.21452,-9.33981 -3.18434,-9.57014 0.81871,-4.97466 3.12802,-9.46453 6.67847,-13.01699 3.55448,-3.55448 8.04636,-5.86379 12.98481,-6.67647 0.0342,-0.005 0.46569,-0.0624 1.17477,-0.0624 1.93716,0 5.60831,0.42042 8.42856,3.24168 l 69.4632,69.4642 c 3.87231,3.87231 3.21653,9.34082 3.18636,9.57115 -0.81972,4.97365 -3.12802,9.46452 -6.6815,13.01498 -3.55246,3.55548 -8.04233,5.86378 -12.98481,6.67647 -0.0302,0.005 -0.46266,0.0623 -1.17275,0.0623"
         id="path523"
         style="fill:#ffffff;stroke:#000000;stroke-opacity:1;stroke-width:2;stroke-miterlimit:4;stroke-dasharray:none" />
      <path
         d="m 428.51875,423.53112 c 3.58867,3.59069 2.9168,8.78361 2.9168,8.78361 -0.75233,4.5663 -2.88965,8.94755 -6.41194,12.46883 -3.52229,3.5233 -7.90555,5.66062 -12.47185,6.41396 0,0 -5.19292,0.67086 -8.7826,-2.91882 l -69.4622,-69.46018 c -3.59068,-3.59069 -2.9168,-8.78361 -2.9168,-8.78361 0.75435,-4.5663 2.89065,-8.95157 6.41194,-12.47185 3.52229,-3.5233 7.90555,-5.66061 12.47185,-6.41194 0,0 5.19393,-0.67388 8.7826,2.9168 l 69.4622,69.46018 z"
         id="path527"
         style="fill:url(#pattern41153-0)" />
      <path
         d="m 402.179,405.06272 -16.87724,16.87924 c -1.47047,1.46846 -3.85219,1.46846 -5.32065,0 l -19.3364,-19.33439 c -1.46846,-1.46846 -1.46846,-3.85219 0,-5.32065 l 16.87924,-16.87724 c 1.46846,-1.47047 3.8522,-1.47047 5.32066,0 l 19.33439,19.33339 c 1.46846,1.46846 1.46846,3.85018 0,5.31864 z"
         id="path529"
         style="fill:none;stroke:#231f20;stroke-width:0.6286217" />
    </g>
  </g>
</svg>
