<?xml version="1.0" encoding="UTF-8" standalone="no"?>
<svg
   xmlns:dc="http://purl.org/dc/elements/1.1/"
   xmlns:cc="http://creativecommons.org/ns#"
   xmlns:rdf="http://www.w3.org/1999/02/22-rdf-syntax-ns#"
   xmlns:svg="http://www.w3.org/2000/svg"
   xmlns="http://www.w3.org/2000/svg"
   version="1.1"
   id="svg10845"
   height="195.60275"
   width="200.0005">
  <defs
     id="defs4809">
    <pattern
       style="fill:#ffffff"
       id="polka"
       patternTransform="rotate(20)"
       height="5"
       width="5"
       patternUnits="userSpaceOnUse">
      <rect
         style="fill:#ffffff"
         y="0"
         x="0"
         height="5"
         width="5"
         id="polka__fill" />
      <circle
         cx="2"
         style="fill:#ff0000"
         cy="2"
         r="1.5"
         id="polka__inner" />
    </pattern>
    <clipPath
       id="a-4">
      <path
         id="path707"
         d="m 638.378,198.584 0.58,-78.5 c 0,-33.137 26.863,-60 60,-60 33.137,0 60,26.863 60,60 l 0,78.5 -120.58,0 z" />
    </clipPath>
  </defs>
  <metadata
     id="metadata10850">
    <rdf:RDF>
      <cc:Work
         rdf:about="">
        <dc:format>image/svg+xml</dc:format>
        <dc:type
           rdf:resource="http://purl.org/dc/dcmitype/StillImage" />
        <dc:title></dc:title>
      </cc:Work>
    </rdf:RDF>
  </metadata>
  <g
     style="display:inline"
     transform="translate(-282.08096,-278.41122)"
     id="layer1">
    <ellipse
       style="color:#000000;display:inline;overflow:visible;visibility:visible;opacity:1;fill:none;fill-opacity:1;fill-rule:nonzero;stroke:#000000;stroke-width:2;stroke-miterlimit:4;stroke-dasharray:none;stroke-opacity:1;marker:none;enable-background:accumulate"
       id="path6022"
       cx="382.06821"
       cy="398.07648"
       rx="74.9505"
       ry="74.950493" />
  </g>
  <g
     id="layer1-5"
     transform="translate(-36.51871,-295.83934)">
    <g
       id="g764"
       clip-path="url(#a-4)"
       transform="matrix(1.25,0,0,-1.25,-737.19204,565.6096)">
      <g
         id="g766">
        <path
           style="fill:none"
           id="path768"
           transform="translate(686.539,177.627)"
           d="m 0,0 c 0,0 -2.92,2.003 -4.556,-0.83 0,0 -0.82,-0.82 -1.183,-4.564 0,0 2.92,-0.87 2.19,-4.846 0,0 7.42,-5.943 11.483,0.498 0,0 2.37,2.38 2.824,10.84 0,0 -3.51,1.14 -6.428,-3.804 0,0 -1.823,-3.56 -2.367,0.05 0,0 -0.186,8.09 -1.37,9.922 0,0 -0.543,1.143 0.69,1.278 0,0 0.45,-0.18 0.77,-0.915 0.322,-0.73 2.457,-4.53 7.93,-3.197 0,0 1.685,6.124 -7.562,7.724 0,0 -0.32,1.555 1.134,2.013 0,0 2.593,-1.147 7.38,-1.192 4.787,-0.046 6.795,0.14 9.755,1.056 0,0 1.776,0.408 1.508,-1.967 0,0 -8.753,-0.96 -7.475,-7.684 0,0 5.417,-1.46 7.924,3.382 0,0 0.363,0.825 1.052,0.78 0,0 1.086,-0.413 0.09,-1.782 0,0 -1.143,-3.935 -1.184,-9.51 0,0 0.345,-1.002 -0.408,-1.32 0,0 -0.734,-0.78 -1.555,0.957 0,0 -2.683,5.213 -6.695,4.207 0,0 0.136,-9.103 4.143,-12.434 0,0 3.424,-3.844 10.074,1.142 0,0 -0.776,3.608 2.185,4.8 0,0 -0.133,8.772 -5.786,5.345 0,0 0.73,10.245 7.294,0.55 0,0 0.45,8.598 5.512,10.057 0,0 2.32,-4.116 -0.916,-11.66 0,0 11.396,6.175 5.93,-4.704 0,0 -3.423,6.124 -7.203,-0.78 0,0 1.823,-3.29 -0.643,-4.252 0,0 0,-9.137 10.213,-3.652 0,0 2.783,0.816 5.698,4.664 0,0 1.228,0.866 0.23,2.376 -1.005,1.505 -2.787,0.453 -2.968,0.317 -0.177,-0.14 -2.783,-1.768 -3.413,-2.15 0,0 -1.954,-0.556 -0.594,1.28 0,0 0.37,0.37 0.74,0.815 0.787,0.966 1.744,3.305 1.535,8.97 0,0 -0.086,1.048 0.64,1.048 0,0 0.775,0.14 0.915,-0.725 0.136,-0.87 0.358,-7.14 5.648,-7.325 0,0 4.42,4.306 -0.638,10.063 0,0 -1.138,0.736 -0.64,1.647 0,0 0.46,0.87 1.642,0.23 L 60.61,2.58 45.43,-23.13 l 0,-76.254 -2.865,0 -6.287,14.674 2.733,0 0,9.466 -8.748,0 0,-9.333 3.006,0 -5.88,-14.674 -6.155,14.54 3.15,0 0,9.598 -9.297,0 0,-9.465 3.282,0 -6.156,-14.805 -6.147,14.537 3.14,0 0,9.733 -9.432,0 0,-9.597 3.416,0 -6.01,-14.54 -6.155,14.54 3.01,0 0,9.466 -8.754,0 0,-9.333 2.875,0 -6.292,-14.805 -2.87,0 0,75.56 -15.307,26.339 c 0,0 6.15,3.608 6.877,3.925 0.73,0.323 3.513,1.053 1.595,-1.458 -1.913,-2.516 -3.554,-4.892 -1.69,-8.826 0,0 0.716,-2.23 3.145,-0.775 2.144,1.28 2.87,2.15 3.423,6.08 0,0 0,1.735 1.092,1.328 0,0 0.5,0.312 0.5,-1.555 0,-1.877 -0.042,-5.993 1.413,-8.232 l 0.912,-1.092 c 0,0 1.278,-2.103 -0.956,-1.006 0,0 -3.92,3.246 -5.426,2.244 0,0 -2.09,-1.378 -0.182,-3.296 0,0 2.144,-3.526 7.842,-5.344 0,0 7.61,-3.21 7.793,4.655 0,0 -2.23,0.69 -0.594,4.167 0,0 -3.006,6.99 -7.245,0.82 0,0 -3.282,6.215 0.363,6.537 0,0 2.325,0.09 5.648,-1.972 0,0 -3.046,7.498 -0.956,11.845 0,0 5.15,-1.097 5.425,-10.33 C -7.335,0.227 -1.37,10.42 0.14,0 L 0,0 Z" />
      </g>
      <g
         id="g770">
        <path
           style="fill:url(#polka);stroke:#231f20;stroke-width:0.5;fill-opacity:1.0"
           id="path772"
           d="m 686.54,177.627 c 0,0 -2.92,2.003 -4.557,-0.83 0,0 -0.82,-0.82 -1.183,-4.564 0,0 2.92,-0.87 2.19,-4.846 0,0 7.42,-5.943 11.482,0.498 0,0 2.37,2.38 2.824,10.84 0,0 -3.51,1.14 -6.428,-3.804 0,0 -1.822,-3.558 -2.366,0.05 0,0 -0.186,8.092 -1.37,9.923 0,0 -0.543,1.143 0.69,1.278 0,0 0.45,-0.18 0.77,-0.914 0.322,-0.73 2.457,-4.53 7.93,-3.196 0,0 1.685,6.124 -7.562,7.724 0,0 -0.322,1.555 1.133,2.013 0,0 2.593,-1.147 7.38,-1.192 4.787,-0.046 6.795,0.14 9.755,1.056 0,0 1.777,0.41 1.51,-1.966 0,0 -8.754,-0.96 -7.476,-7.684 0,0 5.417,-1.46 7.924,3.382 0,0 0.363,0.825 1.052,0.78 0,0 1.087,-0.413 0.09,-1.782 0,0 -1.142,-3.935 -1.183,-9.51 0,0 0.345,-1.002 -0.408,-1.32 0,0 -0.734,-0.78 -1.555,0.957 0,0 -2.683,5.213 -6.695,4.207 0,0 0.136,-9.103 4.143,-12.434 0,0 3.423,-3.844 10.073,1.142 0,0 -0.776,3.608 2.185,4.8 0,0 -0.132,8.772 -5.785,5.345 0,0 0.73,10.245 7.294,0.55 0,0 0.45,8.598 5.512,10.057 0,0 2.32,-4.116 -0.917,-11.66 0,0 11.396,6.175 5.93,-4.704 0,0 -3.423,6.124 -7.203,-0.78 0,0 1.822,-3.29 -0.644,-4.252 0,0 0,-9.138 10.213,-3.653 0,0 2.782,0.816 5.697,4.664 0,0 1.228,0.865 0.23,2.375 -1.005,1.505 -2.787,0.453 -2.968,0.317 -0.178,-0.14 -2.784,-1.768 -3.414,-2.15 0,0 -1.954,-0.556 -0.594,1.28 0,0 0.37,0.37 0.74,0.815 0.787,0.966 1.744,3.305 1.535,8.97 0,0 -0.086,1.048 0.64,1.048 0,0 0.775,0.14 0.915,-0.725 0.136,-0.87 0.358,-7.14 5.648,-7.325 0,0 4.42,4.306 -0.64,10.063 0,0 -1.137,0.735 -0.638,1.646 0,0 0.458,0.87 1.64,0.23 l 7.068,-4.138 -15.18,-25.707 0,-76.257 -2.866,0 -6.287,14.673 2.733,0 0,9.465 -8.75,0 0,-9.332 3.007,0 -5.88,-14.674 -6.155,14.542 3.15,0 0,9.597 -9.297,0 0,-9.465 3.282,0 -6.156,-14.805 -6.146,14.537 3.14,0 0,9.733 -9.432,0 0,-9.597 3.418,0 -6.01,-14.542 -6.156,14.542 3.01,0 0,9.465 -8.754,0 0,-9.333 2.874,0 -6.292,-14.805 -2.87,0 0,75.56 -15.307,26.338 c 0,0 6.15,3.608 6.877,3.925 0.73,0.322 3.513,1.052 1.595,-1.46 -1.913,-2.515 -3.554,-4.89 -1.69,-8.825 0,0 0.716,-2.23 3.145,-0.775 2.144,1.278 2.87,2.148 3.423,6.078 0,0 0,1.736 1.092,1.33 0,0 0.5,0.31 0.5,-1.556 0,-1.877 -0.042,-5.993 1.413,-8.232 l 0.91,-1.093 c 0,0 1.28,-2.103 -0.955,-1.006 0,0 -3.92,3.245 -5.426,2.243 0,0 -2.09,-1.378 -0.183,-3.296 0,0 2.144,-3.526 7.842,-5.344 0,0 7.61,-3.21 7.792,4.655 0,0 -2.23,0.69 -0.594,4.166 0,0 -3.005,6.99 -7.244,0.82 0,0 -3.282,6.215 0.363,6.537 0,0 2.325,0.092 5.648,-1.97 0,0 -3.046,7.497 -0.956,11.844 0,0 5.148,-1.097 5.424,-10.33 0,0 5.966,10.194 7.476,-0.227 l -0.14,0 z" />
      </g>
      <g
         id="g774">
        <path
           style="fill:#ffffff;stroke:#231f20;stroke-width:0.5"
           id="path776"
           d="m 668.73,165.946 c 0,1.07 0.857,1.935 1.93,1.935 1.066,0 1.932,-0.864 1.932,-1.934 0,-1.075 -0.866,-1.94 -1.93,-1.94 -1.075,0 -1.932,0.865 -1.932,1.94" />
      </g>
      <g
         id="g778">
        <path
           style="fill:#ffffff;stroke:#231f20;stroke-width:0.5"
           id="path780"
           d="m 686.77,169.514 c 0,1.07 0.862,1.935 1.937,1.935 1.065,0 1.93,-0.866 1.93,-1.936 0,-1.075 -0.865,-1.945 -1.93,-1.945 -1.075,0 -1.936,0.87 -1.936,1.944" />
      </g>
      <g
         id="g782">
        <path
           style="fill:#ffffff;stroke:#231f20;stroke-width:0.5"
           id="path784"
           d="m 707.072,169.44 c 0,1.078 0.866,1.943 1.936,1.943 1.065,0 1.93,-0.865 1.93,-1.944 0,-1.07 -0.865,-1.937 -1.93,-1.937 -1.07,0 -1.936,0.866 -1.936,1.936" />
      </g>
      <g
         id="g786">
        <path
           style="fill:#ffffff;stroke:#231f20;stroke-width:0.5"
           id="path788"
           d="m 725.12,166.012 c 0,1.07 0.867,1.94 1.932,1.94 1.065,0 1.93,-0.87 1.93,-1.94 0.002,-1.07 -0.864,-1.94 -1.93,-1.94 -1.065,0 -1.93,0.87 -1.93,1.94" />
      </g>
      <g
         id="g790">
        <path
           style="fill:none;stroke:#231f20;stroke-width:0.5"
           id="path792"
           d="m 649.728,151.135 c 0,3.454 2.797,6.25 6.228,6.25 3.45,0 6.242,-2.796 6.242,-6.25 0,-3.454 -2.792,-6.26 -6.242,-6.26 -3.43,0 -6.228,2.806 -6.228,6.26" />
      </g>
      <g
         id="g794">
        <path
           style="fill:none;stroke:#231f20;stroke-width:0.5"
           id="path796"
           d="m 658.92,125.484 -6.328,0 c -1.505,0 -2.71,1.22 -2.71,2.73 l 0,10.737 c 0,1.506 1.205,2.72 2.71,2.72 l 6.328,0 c 1.505,0 2.715,-1.214 2.715,-2.72 l 0,-10.737 c 0,-1.51 -1.21,-2.73 -2.715,-2.73" />
      </g>
      <g
         id="g798">
        <path
           style="fill:none;stroke:#231f20;stroke-width:0.5"
           id="path800"
           d="m 658.85,106.29 -6.323,0 c -1.505,0 -2.72,1.22 -2.72,2.72 l 0,10.735 c 0,1.514 1.215,2.73 2.72,2.73 l 6.324,0 c 1.5,0 2.716,-1.216 2.716,-2.73 l 0,-10.735 c 0,-1.5 -1.215,-2.72 -2.715,-2.72" />
      </g>
      <g
         id="g802">
        <path
           style="fill:none;stroke:#231f20;stroke-width:0.5"
           id="path804"
           d="m 658.85,87.224 -6.323,0 c -1.505,0 -2.72,1.22 -2.72,2.73 l 0,10.733 c 0,1.496 1.215,2.73 2.72,2.73 l 6.324,0 c 1.5,0 2.716,-1.234 2.716,-2.73 l 0,-10.734 c 0,-1.51 -1.215,-2.73 -2.715,-2.73" />
      </g>
      <g
         id="g806">
        <path
           style="fill:none;stroke:#231f20;stroke-width:0.5;fill-opacity:1"
           id="path808"
           d="m 649.728,77.76 c 0,3.46 2.797,6.256 6.228,6.256 3.45,0 6.242,-2.797 6.242,-6.255 0,-3.45 -2.792,-6.25 -6.242,-6.25 -3.43,0 -6.228,2.8 -6.228,6.25 m 1.93,0 c 0,-2.38 1.928,-4.32 4.298,-4.32 2.385,0 4.31,1.94 4.31,4.32 0,2.39 -1.925,4.32 -4.31,4.32 -2.37,0 -4.297,-1.93 -4.297,-4.32" />
      </g>
      <path
         style="fill:#ffffff;stroke:#231f20;stroke-width:0.5"
         id="path810"
         d="m 656.785,83.593 -2.054,0 0,8.232 2.055,0 0,-8.232 z" />
      <g
         id="g812">
        <path
           style="fill:#ffffff;stroke:#231f20;stroke-width:0.5"
           id="path814"
           d="m 657.808,151.133 8.064,0" />
      </g>
      <g
         id="g816">
        <path
           style="fill:none;stroke:#231f20;stroke-width:0.5"
           id="path818"
           d="m 735.717,151.135 c 0,3.454 2.792,6.25 6.237,6.25 3.436,0 6.233,-2.796 6.233,-6.25 0,-3.454 -2.797,-6.26 -6.233,-6.26 -3.445,0 -6.237,2.806 -6.237,6.26" />
      </g>
      <g
         id="g820">
        <path
           style="fill:none;stroke:#231f20;stroke-width:0.5"
           id="path822"
           d="m 738.99,125.484 c -1.495,0 -2.71,1.22 -2.71,2.73 l 0,10.737 c 0,1.506 1.215,2.72 2.71,2.72 l 6.338,0 c 1.496,0 2.706,-1.214 2.706,-2.72 l 0,-10.737 c 0,-1.51 -1.21,-2.73 -2.706,-2.73 l -6.337,0 z" />
      </g>
      <g
         id="g824">
        <path
           style="fill:none;stroke:#231f20;stroke-width:0.5"
           id="path826"
           d="m 739.06,106.29 c -1.497,0 -2.712,1.22 -2.712,2.72 l 0,10.735 c 0,1.514 1.215,2.73 2.71,2.73 l 6.334,0 c 1.495,0 2.715,-1.216 2.715,-2.73 l 0,-10.735 c 0,-1.5 -1.22,-2.72 -2.715,-2.72 l -6.333,0 z" />
      </g>
      <g
         id="g828">
        <path
           style="fill:none;stroke:#231f20;stroke-width:0.5"
           id="path830"
           d="m 739.06,87.224 c -1.497,0 -2.712,1.22 -2.712,2.73 l 0,10.733 c 0,1.496 1.215,2.73 2.71,2.73 l 6.334,0 c 1.495,0 2.715,-1.234 2.715,-2.73 l 0,-10.734 c 0,-1.51 -1.22,-2.73 -2.715,-2.73 l -6.333,0 z" />
      </g>
      <g
         id="g832">
        <path
           style="fill:none;stroke:#231f20;stroke-width:0.5"
           id="path834"
           d="m 735.717,77.76 c 0,3.46 2.792,6.256 6.237,6.256 3.436,0 6.233,-2.797 6.233,-6.255 0,-3.45 -2.797,-6.25 -6.233,-6.25 -3.445,0 -6.237,2.8 -6.237,6.25 m 1.93,0 c 0,-2.38 1.928,-4.32 4.307,-4.32 2.376,0 4.298,1.94 4.298,4.32 0,2.39 -1.922,4.32 -4.298,4.32 -2.38,0 -4.306,-1.93 -4.306,-4.32" />
      </g>
      <g
         id="g836">
        <path
           style="fill:#ffffff;stroke:#231f20;stroke-width:0.5"
           id="path838"
           d="m 737.65,151.135 c 0,-2.384 1.926,-4.316 4.305,-4.316 2.376,0 4.298,1.93 4.298,4.315 0,2.39 -1.922,4.315 -4.298,4.315 -2.38,0 -4.306,-1.926 -4.306,-4.315" />
      </g>
      <path
         style="fill:#ffffff;stroke:#231f20;stroke-width:0.5"
         id="path840"
         d="m 740.11,150.103 -8.616,0 0,2.058 8.617,0 0,-2.057 z" />
      <g
         id="g842">
        <path
           style="fill:#231f20"
           id="path844"
           d="m 670.66,169.38 c -1.89,0 -3.43,-1.54 -3.43,-3.434 0,-1.897 1.54,-3.44 3.43,-3.44 1.893,0 3.432,1.543 3.432,3.44 0,1.894 -1.54,3.435 -3.43,3.435 m 0,-1.5 c 1.064,0 1.93,-0.865 1.93,-1.934 0,-1.075 -0.866,-1.94 -1.93,-1.94 -1.075,0 -1.932,0.865 -1.932,1.94 0,1.07 0.857,1.935 1.93,1.935" />
      </g>
      <g
         id="g846">
        <path
           style="fill:#231f20"
           id="path848"
           d="m 688.707,172.95 c -1.894,0 -3.436,-1.542 -3.436,-3.436 0,-1.9 1.543,-3.445 3.437,-3.445 1.892,0 3.43,1.544 3.43,3.444 0,1.894 -1.538,3.435 -3.43,3.435 m 0,-1.5 c 1.065,0 1.93,-0.867 1.93,-1.936 0,-1.075 -0.865,-1.945 -1.93,-1.945 -1.074,0 -1.936,0.87 -1.936,1.944 0,1.07 0.863,1.935 1.937,1.935" />
      </g>
      <g
         id="g850">
        <path
           style="fill:#231f20"
           id="path852"
           d="m 709.008,172.884 c -1.894,0 -3.436,-1.545 -3.436,-3.444 0,-1.895 1.542,-3.436 3.436,-3.436 1.892,0 3.43,1.54 3.43,3.436 0,1.9 -1.538,3.444 -3.43,3.444 m 0,-1.5 c 1.065,0 1.93,-0.866 1.93,-1.944 0,-1.07 -0.865,-1.936 -1.93,-1.936 -1.07,0 -1.936,0.866 -1.936,1.936 0,1.078 0.866,1.944 1.936,1.944" />
      </g>
      <g
         id="g854">
        <path
           style="fill:#231f20"
           id="path856"
           d="m 727.053,169.452 c -1.892,0 -3.43,-1.543 -3.43,-3.44 0,-1.897 1.538,-3.44 3.43,-3.44 1.892,0 3.43,1.543 3.43,3.44 0,1.897 -1.538,3.44 -3.43,3.44 m 0,-1.5 c 1.065,0 1.93,-0.87 1.93,-1.94 0,-1.07 -0.865,-1.94 -1.93,-1.94 -1.065,0 -1.93,0.87 -1.93,1.94 0,1.07 0.865,1.94 1.93,1.94" />
      </g>
      <g
         id="g858">
        <path
           style="fill:#231f20"
           id="path860"
           d="m 673.32,100.883 5.753,0 0,-6.465 -2.168,0 0.056,0.132 -3.64,0 0,6.333 z m 44.98,0 5.75,0 0,-6.465 -2.079,0 0.053,0.132 -3.724,0 0,6.333 z m -30.488,0.132 6.433,0 0,-6.733 -2.328,0 0.056,0.136 -4.161,0 0,6.597 z m 15.313,0 6.297,0 0,-6.597 -2.322,0 0.055,0.132 -4.03,0 0,6.465 z m -34.023,68.66 0.858,1.25 c 0.827,1.204 1.65,1.894 2.26,1.894 0.78,0 1.62,-1.093 2.095,-1.92 -0.55,-1.446 -0.594,-2.704 -0.133,-3.75 0.223,-0.503 0.526,-0.874 0.827,-1.144 -0.3,-2.657 -1.736,-3.02 -2.995,-3.02 -1.367,0 -2.654,0.525 -2.667,0.53 l -0.058,0.025 -0.065,0.022 c -5.03,1.604 -7.002,4.673 -7.022,4.704 l -0.09,0.14 -0.123,0.13 c -0.304,0.305 -0.372,0.507 -0.366,0.57 0.01,0.107 0.15,0.267 0.24,0.355 0.784,-0.055 2.552,-1.124 3.714,-2.087 l 0.137,-0.112 0.16,-0.078 c 0.652,-0.32 1.173,-0.47 1.638,-0.47 0.688,0 1.288,0.338 1.607,0.905 0.377,0.67 0.25,1.42 -0.018,2.06 m 54.306,1.28 c 0.753,1.196 1.507,1.868 2.117,1.868 0.853,0 1.83,-1.273 2.088,-1.737 l 0.855,-1.53 c -0.215,-0.51 -0.327,-1.142 -0.012,-1.767 0.155,-0.308 0.645,-1.027 1.827,-1.027 0.45,0 0.85,0.105 0.964,0.138 l 0.193,0.056 0.17,0.103 c 0.245,0.147 2.958,1.822 3.504,2.207 l -0.007,-0.005 c 0.116,0.074 0.43,0.214 0.66,0.214 0.078,0 0.114,0 0.204,-0.135 0.116,-0.174 0.14,-0.283 0.138,-0.308 l -0.19,-0.134 -0.127,-0.193 c -2.53,-3.34 -4.915,-4.128 -4.94,-4.136 l -0.132,-0.043 -0.14,-0.07 c -1.944,-1.046 -3.578,-1.575 -4.855,-1.575 -2.248,0 -2.89,1.94 -3.075,3.102 0.457,0.375 0.796,0.854 1,1.42 0.466,1.287 0.104,2.68 -0.24,3.553 m -31.227,3.237 c 1.27,2.13 2.58,2.85 3.507,3.063 -0.57,-6.333 -2.287,-8.32 -2.306,-8.342 l -0.116,-0.118 -0.06,-0.112 c -0.976,-1.546 -2.216,-2.298 -3.792,-2.298 -1.905,0 -3.84,1.07 -4.823,1.708 0.174,2.594 -1.01,4.177 -2.18,4.99 0.243,1.73 0.574,2.473 0.69,2.69 l 0.22,0.153 -0.038,0.12 c 0.39,0.675 0.773,0.766 1.096,0.766 0.57,0 1.19,-0.34 1.312,-0.424 l 0.384,-0.263 0.887,0 c 0.018,-0.403 0.03,-0.802 0.04,-1.19 l 0.002,-0.096 0.014,-0.094 c 0.36,-2.39 1.476,-2.892 2.35,-2.892 1.382,0 2.348,1.445 2.813,2.34 m 16.184,-7.82 c -1.725,0 -2.605,0.904 -2.614,0.913 l -0.074,0.084 -0.087,0.073 c -2.378,1.977 -3.272,6.915 -3.523,9.85 1.808,-0.396 3.33,-2.598 3.77,-3.443 0.777,-1.622 1.774,-1.964 2.475,-1.964 0.553,0 0.97,0.212 1.234,0.4 1.048,0.575 1.342,1.76 1.1,2.792 l 0.01,0.473 1.225,0.744 c 0.787,0.477 1.292,0.577 1.576,0.577 1.156,0 1.698,-2.263 1.87,-3.777 -1.85,-1.256 -2.282,-3.393 -2.215,-4.955 -1.728,-1.17 -3.322,-1.763 -4.746,-1.763 m -18.183,27.017 -0.538,-0.164 c -2.016,-0.635 -2.39,-2.59 -2.15,-3.748 l 0.205,-1 1.007,-0.174 c 2.88,-0.498 4.894,-1.535 5.822,-2.998 0.454,-0.716 0.59,-1.44 0.61,-1.98 -0.28,-0.032 -0.555,-0.05 -0.82,-0.05 -3.176,0 -4.305,2.478 -4.35,2.583 -0.526,1.2 -1.345,1.606 -1.583,1.702 l -0.35,0.142 -0.375,-0.042 c -1.14,-0.125 -1.66,-0.77 -1.87,-1.145 -0.56,-1.005 -0.106,-2.066 -0.01,-2.27 l 0.042,-0.086 0.053,-0.08 c 0.14,-0.216 0.272,-0.65 0.396,-1.24 -0.622,0.65 -1.37,0.978 -2.248,0.978 -1.383,0 -2.697,-0.942 -3.764,-2.05 -1.464,6.795 -5.946,7.836 -6.167,7.883 l -1.153,0.247 -0.51,-1.063 c -1.397,-2.905 -0.857,-6.852 -0.16,-9.646 -1.676,0.58 -2.83,0.624 -3.135,0.624 l -0.03,0 -0.075,-0.002 -0.036,-0.002 -0.035,-0.003 c -0.956,-0.084 -1.748,-0.47 -2.29,-1.103 l 0,0.157 c 0,2.497 -1.008,3.055 -1.874,3.074 -0.144,0.028 -0.29,0.043 -0.432,0.043 -0.786,0 -1.758,-0.47 -2.13,-1.79 -0.112,-0.397 -0.142,-0.776 -0.15,-0.974 -0.518,-3.62 -1.116,-3.976 -2.694,-4.917 -0.436,-0.26 -0.668,-0.28 -0.73,-0.28 -0.115,0 -0.22,0.223 -0.22,0.225 l -0.03,0.095 -0.042,0.09 c -1.462,3.087 -0.37,4.776 1.53,7.276 0.38,0.5 1.398,1.833 0.767,3.11 -0.166,0.333 -0.693,1.11 -2.018,1.11 -0.836,0 -1.742,-0.302 -2.146,-0.48 -0.744,-0.325 -5.57,-3.147 -7.03,-4.004 l -1.29,-0.755 0.752,-1.29 14.954,-25.73 -0.61,0 c -1.054,3.093 -3.953,5.225 -7.316,5.225 -4.26,0 -7.728,-3.477 -7.728,-7.75 0,-3.26 2.043,-6.14 5.003,-7.262 l 0,-0.702 -0.638,0 c -2.32,0 -4.21,-1.892 -4.21,-4.22 l 0,-10.737 c 0,-2.332 1.89,-4.23 4.21,-4.23 l 0.64,0 0,-0.01 -0.704,0 c -2.327,0 -4.22,-1.897 -4.22,-4.23 l 0,-10.746 c 0,-2.08 1.512,-3.813 3.494,-4.157 -1.982,-0.346 -3.494,-2.083 -3.494,-4.167 l 0,-10.734 c 0,-2.33 1.893,-4.23 4.22,-4.23 l 0.703,0 0,-0.704 c -2.96,-1.12 -5.002,-4 -5.002,-7.257 0,-4.273 3.467,-7.75 7.728,-7.75 4.27,0 7.742,3.477 7.742,7.75 0,3.417 -2.25,6.392 -5.412,7.392 l 0,0.57 0.565,0 c 2.325,0 4.216,1.9 4.216,4.23 l 0,10.734 c 0,2.084 -1.51,3.82 -3.49,4.167 1.98,0.344 3.49,2.077 3.49,4.157 l 0,10.734 c 0,2.332 -1.89,4.23 -4.215,4.23 l -0.564,0 0,0.01 0.634,0 c 2.325,0 4.216,1.897 4.216,4.23 l 0,10.737 c 0,2.328 -1.89,4.22 -4.216,4.22 l -0.634,0 0,0.57 c 2.314,0.74 4.18,2.56 4.98,4.863 l 0.767,0 0,-71.86 5.362,0 0.388,0.913 6.292,14.805 0.026,0.062 0.082,-0.19 6.156,-14.543 1.398,-3.303 1.37,3.313 6.01,14.542 0.022,0.053 0.084,-0.2 6.147,-14.537 1.392,-3.294 1.374,3.303 6.156,14.804 0.02,0.046 0.078,-0.186 6.156,-14.542 1.42,-3.354 1.354,3.38 5.88,14.674 0.08,0.203 0.158,-0.367 6.287,-14.674 0.39,-0.91 5.354,0 0,71.86 1.18,0 c 0.8,-2.305 2.667,-4.126 4.983,-4.865 l 0,-0.57 -0.642,0 c -2.32,0 -4.21,-1.892 -4.21,-4.22 l 0,-10.737 c 0,-2.332 1.89,-4.23 4.21,-4.23 l 0.643,0 0,-0.01 -0.574,0 c -2.323,0 -4.21,-1.897 -4.21,-4.23 l 0,-10.731 c 0,-2.08 1.507,-3.813 3.486,-4.157 -1.98,-0.346 -3.487,-2.083 -3.487,-4.167 l 0,-10.734 c 0,-2.33 1.887,-4.23 4.21,-4.23 l 0.573,0 0,-0.568 c -3.164,-0.998 -5.415,-3.973 -5.415,-7.393 0,-4.273 3.47,-7.75 7.737,-7.75 4.264,0 7.733,3.477 7.733,7.75 0,3.258 -2.043,6.136 -5.005,7.258 l 0,0.705 0.71,0 c 2.323,0 4.214,1.898 4.214,4.23 l 0,10.733 c 0,2.084 -1.51,3.82 -3.49,4.167 1.98,0.344 3.49,2.077 3.49,4.157 l 0,10.734 c 0,2.332 -1.89,4.23 -4.215,4.23 l -0.71,0 0,0.01 0.646,0 c 2.32,0 4.206,1.897 4.206,4.23 l 0,10.737 c 0,2.328 -1.887,4.22 -4.206,4.22 l -0.645,0 0,0.71 c 2.975,1.148 5.058,4.086 5.005,7.28 -0.073,4.332 -3.47,7.725 -7.733,7.725 -3.36,0 -6.258,-2.132 -7.31,-5.224 l -1.176,0 0,0.43 14.97,25.353 0.767,1.297 -1.3,0.76 -7.066,4.14 -0.022,0.012 -0.022,0.012 c -0.51,0.276 -1.02,0.415 -1.515,0.415 -1.106,0 -1.858,-0.684 -2.166,-1.27 -0.71,-1.296 -0.08,-2.685 0.953,-3.462 3.04,-3.56 1.798,-6.266 1.017,-7.368 -1.996,0.385 -3.11,2.188 -3.483,5.602 -0.018,0.165 -0.033,0.294 -0.046,0.38 -0.195,1.2 -1.11,2.002 -2.28,2.002 -0.087,0 -0.166,-0.005 -0.23,-0.012 -0.545,-0.028 -1.04,-0.257 -1.404,-0.652 -0.638,-0.692 -0.643,-1.637 -0.62,-1.972 l 0.015,-0.54 c -0.494,0.518 -1.306,0.982 -2.625,0.982 -0.918,0 -1.937,-0.232 -2.88,-0.536 1.65,6.084 -0.22,9.52 -0.314,9.687 l -0.583,1.034 -1.14,-0.33 c -3.675,-1.058 -5.313,-4.934 -6.036,-7.882 -1.332,1.39 -2.555,2.055 -3.748,2.055 -0.897,0 -1.627,-0.36 -2.21,-0.946 0.088,0.412 0.163,0.72 0.21,0.907 0.634,0.996 0.597,1.804 0.443,2.322 -0.24,0.805 -0.872,1.3 -1.384,1.494 l -0.21,0.08 -0.224,0.014 c -0.052,0.003 -0.103,0.005 -0.153,0.005 -1.178,0 -1.992,-0.862 -2.346,-1.624 -0.956,-1.823 -2.544,-2.746 -4.718,-2.746 -0.174,0 -0.336,0.006 -0.486,0.016 0.003,0.836 0.237,1.56 0.706,2.193 1.627,2.2 5.522,2.685 5.56,2.69 l 1.193,0.13 0.135,1.193 c 0.133,1.188 -0.1,2.128 -0.697,2.795 -0.498,0.56 -1.215,0.868 -2.018,0.868 -0.306,0 -0.536,-0.046 -0.62,-0.065 l -0.055,-0.013 -0.053,-0.016 c -2.526,-0.782 -4.265,-0.996 -8.09,-0.996 -0.382,0 -0.784,0.003 -1.207,0.007 -4.36,0.04 -6.77,1.057 -6.794,1.067 l -0.512,0.22 z m -0.087,-1.595 c 0,0 2.593,-1.147 7.38,-1.192 0.428,-0.004 0.834,-0.007 1.22,-0.007 3.933,0 5.84,0.23 8.535,1.063 0,0 0.116,0.028 0.284,0.028 0.49,0 1.424,-0.227 1.225,-1.994 0,0 -8.753,-0.962 -7.475,-7.684 0,0 0.766,-0.206 1.857,-0.206 1.806,0 4.502,0.568 6.066,3.588 0,0 0.343,0.78 0.997,0.78 l 0.054,0 c 0,0 1.088,-0.413 0.09,-1.782 0,0 -1.14,-3.935 -1.182,-9.51 0,0 0.344,-1.002 -0.408,-1.32 0,0 -0.164,-0.174 -0.425,-0.174 -0.29,0 -0.698,0.216 -1.13,1.13 0,0 -2.232,4.337 -5.667,4.337 -0.332,0 -0.675,-0.04 -1.028,-0.13 0,0 0.136,-9.102 4.143,-12.433 0,0 1.26,-1.415 3.734,-1.415 1.605,0 3.723,0.595 6.34,2.557 0,0 -0.777,3.608 2.183,4.8 0,0 -0.09,6.14 -3.43,6.14 -0.653,0 -1.43,-0.235 -2.354,-0.795 0,0 0.336,4.72 2.605,4.72 1.074,0 2.58,-1.058 4.69,-4.172 0,0 0.448,8.6 5.51,10.06 0,0 2.322,-4.117 -0.915,-11.66 0,0 3.22,1.745 5.417,1.745 1.934,0 3.073,-1.355 0.512,-6.45 0,0 -1.4,2.505 -3.397,2.505 -1.126,0 -2.443,-0.796 -3.806,-3.285 0,0 1.822,-3.29 -0.644,-4.252 0,0 0,-5.406 4.647,-5.406 1.395,0 3.21,0.487 5.566,1.753 0,0 2.782,0.816 5.697,4.664 0,0 1.228,0.865 0.23,2.374 -0.408,0.612 -0.946,0.802 -1.45,0.802 -0.74,0 -1.41,-0.404 -1.518,-0.484 -0.178,-0.14 -2.784,-1.768 -3.414,-2.15 0,0 -0.28,-0.08 -0.553,-0.08 -0.45,0 -0.887,0.217 -0.04,1.36 0,0 0.37,0.37 0.738,0.815 0.79,0.966 1.746,3.305 1.537,8.97 0,0 -0.086,1.048 0.64,1.048 0,0 0.046,0.01 0.118,0.01 0.223,0 0.69,-0.08 0.797,-0.735 0.136,-0.87 0.358,-7.14 5.648,-7.325 0,0 4.42,4.306 -0.64,10.063 0,0 -1.137,0.734 -0.638,1.645 0,0 0.245,0.466 0.84,0.466 0.218,0 0.483,-0.064 0.8,-0.235 l 7.068,-4.14 -15.18,-25.706 0,-2.34 3.84,0 c 0.488,2.965 3.05,5.225 6.145,5.225 3.436,0 6.175,-2.797 6.233,-6.25 0.05,-2.94 -2.146,-5.546 -5.005,-6.138 l 0,-3.326 2.145,0 c 1.496,0 2.706,-1.213 2.706,-2.72 l 0,-10.737 c 0,-1.51 -1.21,-2.73 -2.706,-2.73 l -2.145,0 0,-3.01 2.21,0 c 1.495,0 2.714,-1.215 2.714,-2.73 l 0,-10.739 c 0,-1.5 -1.22,-2.72 -2.715,-2.72 l -2.21,0 0,-2.875 2.21,0 c 1.496,0 2.715,-1.233 2.715,-2.73 l 0,-10.732 c 0,-1.51 -1.22,-2.73 -2.715,-2.73 l -2.21,0 0,-3.33 c 2.85,-0.57 5.006,-3.096 5.006,-6.13 0,-3.45 -2.797,-6.252 -6.233,-6.252 -3.445,0 -6.237,2.8 -6.237,6.25 0,3.18 2.36,5.792 5.415,6.196 l 0,3.267 -2.074,0 c -1.497,0 -2.71,1.22 -2.71,2.73 l 0,10.733 c 0,1.496 1.213,2.73 2.71,2.73 l 2.073,0 0,2.874 -2.074,0 c -1.497,0 -2.71,1.22 -2.71,2.72 l 0,10.734 c 0,1.514 1.213,2.73 2.71,2.73 l 2.073,0 0,3.01 -2.142,0 c -1.495,0 -2.71,1.22 -2.71,2.73 l 0,10.737 c 0,1.507 1.215,2.72 2.71,2.72 l 2.143,0 0,3.265 c -2.716,0.36 -4.877,2.472 -5.324,5.168 l -3.84,0 0,-71.86 -2.866,0 -6.287,14.673 2.733,0 0,9.465 -8.75,0 0,-9.333 3.007,0 -5.88,-14.674 -6.156,14.542 3.152,0 0,9.597 -9.297,0 0,-9.465 3.282,0 -6.156,-14.805 -6.146,14.537 3.14,0 0,9.733 -9.432,0 0,-9.597 3.418,0 -6.01,-14.542 -6.157,14.542 3.01,0 0,9.465 -8.753,0 0,-9.333 2.874,0 -6.292,-14.805 -2.87,0 0,71.858 -3.426,0 c -0.446,-2.694 -2.604,-4.805 -5.32,-5.167 l 0,-3.265 2.134,0 c 1.505,0 2.716,-1.213 2.716,-2.72 l 0,-10.737 c 0,-1.51 -1.21,-2.73 -2.716,-2.73 l -2.134,0 0,-3.01 2.065,0 c 1.5,0 2.716,-1.215 2.716,-2.73 l 0,-10.734 c 0,-1.5 -1.215,-2.72 -2.715,-2.72 l -2.064,0 0,-2.875 2.065,0 c 1.5,0 2.716,-1.233 2.716,-2.73 l 0,-10.732 c 0,-1.51 -1.215,-2.73 -2.715,-2.73 l -2.064,0 0,-3.267 c 3.055,-0.407 5.412,-3.018 5.412,-6.194 0,-3.45 -2.792,-6.25 -6.242,-6.25 -3.43,0 -6.228,2.8 -6.228,6.25 0,3.037 2.156,5.562 5.003,6.134 l 0,3.33 -2.202,0 c -1.505,0 -2.72,1.22 -2.72,2.728 l 0,10.734 c 0,1.496 1.215,2.73 2.72,2.73 l 2.203,0 0,2.874 -2.202,0 c -1.505,0 -2.72,1.22 -2.72,2.72 l 0,10.734 c 0,1.514 1.215,2.73 2.72,2.73 l 2.203,0 0,3.01 -2.138,0 c -1.505,0 -2.71,1.22 -2.71,2.73 l 0,10.737 c 0,1.507 1.205,2.72 2.71,2.72 l 2.14,0 0,3.327 c -2.848,0.574 -5.004,3.105 -5.004,6.137 0,3.454 2.797,6.25 6.228,6.25 3.1,0 5.66,-2.26 6.15,-5.223 l 3.427,0 0,1.646 -15.308,26.337 c 0,0 6.15,3.608 6.876,3.925 0.315,0.138 1.006,0.35 1.542,0.35 0.712,0 1.15,-0.376 0.055,-1.81 -1.913,-2.515 -3.554,-4.89 -1.69,-8.825 0,0 0.406,-1.268 1.648,-1.268 0.405,0 0.9,0.135 1.497,0.492 2.144,1.28 2.87,2.15 3.423,6.08 0,0 0,1.39 0.782,1.39 0.092,0 0.195,-0.02 0.31,-0.062 0,0 0.03,0.02 0.078,0.02 0.14,0 0.42,-0.176 0.42,-1.575 0,-1.877 -0.04,-5.993 1.415,-8.232 l 0.91,-1.093 c 0,0 0.806,-1.323 0.023,-1.323 -0.204,0 -0.516,0.09 -0.978,0.317 0,0 -2.943,2.435 -4.708,2.435 -0.273,0 -0.517,-0.058 -0.718,-0.192 0,0 -2.09,-1.378 -0.183,-3.296 0,0 2.144,-3.526 7.842,-5.344 0,0 1.536,-0.648 3.245,-0.648 2.094,0 4.447,0.973 4.547,5.303 0,0 -2.23,0.69 -0.594,4.166 0,0 -1.447,3.365 -3.75,3.365 -1.014,0 -2.196,-0.657 -3.494,-2.545 0,0 -3.282,6.214 0.363,6.536 0,0 0.015,0.002 0.045,0.002 0.337,0 2.55,-0.077 5.603,-1.973 0,0 -3.046,7.497 -0.957,11.844 0,0 5.15,-1.097 5.426,-10.33 0,0 2.613,4.465 4.817,4.464 1.128,0 2.15,-1.167 2.66,-4.69 l -0.14,0 c 0,0 -1.003,0.686 -2.162,0.686 -0.82,0 -1.717,-0.344 -2.395,-1.517 0,0 -0.82,-0.82 -1.183,-4.565 0,0 2.92,-0.87 2.19,-4.845 0,0 3.12,-2.5 6.422,-2.5 1.79,0 3.632,0.734 5.06,2.998 0,0 2.37,2.38 2.824,10.84 0,0 -0.35,0.113 -0.922,0.113 -1.237,0 -3.51,-0.535 -5.506,-3.918 0,0 -0.803,-1.566 -1.5,-1.566 -0.356,0 -0.683,0.402 -0.866,1.616 0,0 -0.186,8.092 -1.37,9.923 0,0 -0.543,1.143 0.69,1.278 0,0 0.448,-0.18 0.77,-0.914 0.275,-0.623 1.868,-3.477 5.725,-3.477 0.665,0 1.398,0.084 2.204,0.28 0,0 1.687,6.124 -7.56,7.724 0,0 -0.322,1.555 1.133,2.013" />
      </g>
    </g>
    <path
       style="fill:#ffffff;stroke:#231f20;stroke-width:0.625"
       id="path868"
       d="m 77.381957,376.6916 c 0,2.98 2.41,5.395 5.37,5.395 2.982,0 5.39,-2.415 5.39,-5.395 0,-2.986 -2.408,-5.394 -5.39,-5.394 -2.96,0 -5.37,2.408 -5.37,5.394" />
    <path
       style="fill:#ffffff"
       id="path872"
       d="m 78.774957,391.9496 c -0.532,0 -0.97,0.43 -0.97,0.98 l 0,11.416 c 0,0.544 0.438,0.98 0.97,0.98 l 7.633,0 c 0.532,0 0.963,-0.436 0.963,-0.98 l 0,-11.416 c 0,-0.55 -0.43,-0.98 -0.963,-0.98 l -7.633,0 z" />
    <path
       style="fill:none;stroke:#231f20;stroke-width:0.625"
       id="path876"
       d="m 78.774957,391.9496 c -0.532,0 -0.97,0.43 -0.97,0.98 l 0,11.416 c 0,0.544 0.438,0.98 0.97,0.98 l 7.633,0 c 0.532,0 0.963,-0.436 0.963,-0.98 l 0,-11.416 c 0,-0.55 -0.43,-0.98 -0.963,-0.98 l -7.633,0 z" />
    <path
       style="fill:#ffffff"
       id="path880"
       d="m 78.687957,415.9516 c -0.54,0 -0.97,0.43 -0.97,0.958 l 0,11.434 c 0,0.533 0.43,0.974 0.97,0.974 l 7.633,0 c 0.532,0 0.968,-0.44 0.968,-0.974 l 0,-11.434 c 0,-0.527 -0.435,-0.958 -0.967,-0.958 l -7.634,0 z" />
    <path
       style="fill:none;stroke:#231f20;stroke-width:0.625"
       id="path884"
       d="m 78.687957,415.9516 c -0.54,0 -0.97,0.43 -0.97,0.958 l 0,11.434 c 0,0.533 0.43,0.974 0.97,0.974 l 7.633,0 c 0.532,0 0.968,-0.44 0.968,-0.974 l 0,-11.434 c 0,-0.527 -0.435,-0.958 -0.967,-0.958 l -7.634,0 z" />
    <path
       style="fill:#ffffff"
       id="path888"
       d="m 78.687957,439.7796 c -0.54,0 -0.97,0.436 -0.97,0.97 l 0,11.44 c 0,0.526 0.43,0.963 0.97,0.963 l 7.633,0 c 0.532,0 0.968,-0.437 0.968,-0.964 l 0,-11.44 c 0,-0.534 -0.435,-0.97 -0.967,-0.97 l -7.634,0 z" />
    <path
       style="fill:none;stroke:#231f20;stroke-width:0.625"
       id="path892"
       d="m 78.687957,439.7796 c -0.54,0 -0.97,0.436 -0.97,0.97 l 0,11.44 c 0,0.526 0.43,0.963 0.97,0.963 l 7.633,0 c 0.532,0 0.968,-0.437 0.968,-0.964 l 0,-11.44 c 0,-0.534 -0.435,-0.97 -0.967,-0.97 l -7.634,0 z" />
    <path
       d="m 83.787957,442.1666 -2.566,0 0,-15.934 2.567,0 0,15.934 z"
       id="path894"
       style="fill:#ffffff;stroke:#231f20;stroke-width:0.625" />
    <path
       d="m 83.787957,418.5116 -2.566,0 0,-15.6 2.567,0 0,15.6 z"
       id="path896"
       style="fill:#ffffff;stroke:#231f20;stroke-width:0.625" />
    <path
       d="m 83.787957,394.5176 -2.566,0 0,-15.344 2.567,0 0,15.344 z"
       id="path898"
       style="fill:#ffffff;stroke:#231f20;stroke-width:0.625" />
    <path
       d="m 95.150957,377.9816 -10.083,0 0,-2.572 10.083,0 0,2.572 z"
       id="path900"
       style="fill:#ffffff;stroke:#231f20;stroke-width:0.625" />
    <path
       style="fill:#ffffff;stroke:#231f20;stroke-width:0.625"
       id="path904"
       d="m 194.23596,391.9496 -7.633,0 c -0.532,0 -0.968,0.43 -0.968,0.98 l 0,11.416 c 0,0.544 0.436,0.98 0.97,0.98 l 7.63,0 c 0.534,0 0.97,-0.436 0.97,-0.98 l 0,-11.416 c 0,-0.55 -0.436,-0.98 -0.97,-0.98" />
    <path
       style="fill:#ffffff;stroke:#231f20;stroke-width:0.625"
       id="path908"
       d="m 194.32096,415.9516 -7.633,0 c -0.532,0 -0.975,0.43 -0.975,0.958 l 0,11.434 c 0,0.533 0.443,0.974 0.976,0.974 l 7.633,0 c 0.532,0 0.975,-0.44 0.975,-0.974 l 0,-11.434 c 0,-0.527 -0.443,-0.958 -0.975,-0.958" />
    <path
       style="fill:#ffffff;stroke:#231f20;stroke-width:0.625"
       id="path912"
       d="m 194.32096,439.7796 -7.633,0 c -0.532,0 -0.975,0.436 -0.975,0.97 l 0,11.44 c 0,0.526 0.443,0.963 0.976,0.963 l 7.633,0 c 0.532,0 0.975,-0.437 0.975,-0.964 l 0,-11.44 c 0,-0.534 -0.443,-0.97 -0.975,-0.97" />
    <path
       d="m 191.78796,461.1196 -2.563,0 0,-10.29 2.562,0 0,10.29 z"
       id="path914"
       style="fill:#ffffff;stroke:#231f20;stroke-width:0.625" />
    <path
       d="m 191.78796,442.1666 -2.563,0 0,-15.934 2.562,0 0,15.934 z"
       id="path916"
       style="fill:#ffffff;stroke:#231f20;stroke-width:0.625" />
    <path
       d="m 191.78796,418.5116 -2.563,0 0,-15.6 2.562,0 0,15.6 z"
       id="path918"
       style="fill:#ffffff;stroke:#231f20;stroke-width:0.625" />
    <path
       d="m 191.78796,394.5176 -2.563,0 0,-15.344 2.562,0 0,15.344 z"
       id="path920"
       style="fill:#ffffff;stroke:#231f20;stroke-width:0.625" />
    <path
       style="fill:#ffffff;stroke:#231f20;stroke-width:0.625"
       id="path924"
       d="m 96.859957,377.1776 c 0,1.338 1.087,2.425 2.42,2.425 1.336003,0 2.420003,-1.087 2.420003,-2.425 0,-1.338 -1.084,-2.42 -2.420003,-2.42 -1.332,0 -2.42,1.082 -2.42,2.42" />
    <path
       style="fill:#ffffff;stroke:#231f20;stroke-width:0.625"
       id="path928"
       d="m 115.37796,377.1776 c 0,1.338 1.083,2.425 2.42,2.425 1.336,0 2.408,-1.087 2.408,-2.425 0,-1.338 -1.072,-2.42 -2.408,-2.42 -1.337,0 -2.42,1.082 -2.42,2.42" />
    <path
       style="fill:#ffffff;stroke:#231f20;stroke-width:0.625"
       id="path932"
       d="m 134.00796,377.1656 c 0,1.343 1.076,2.414 2.414,2.414 1.33,0 2.413,-1.072 2.413,-2.414 0,-1.343 -1.082,-2.425 -2.413,-2.425 -1.338,0 -2.414,1.084 -2.414,2.426" />
    <path
       style="fill:#ffffff;stroke:#231f20;stroke-width:0.625"
       id="path936"
       d="m 152.51396,377.1656 c 0,1.343 1.083,2.414 2.414,2.414 1.337,0 2.42,-1.072 2.42,-2.414 0,-1.343 -1.083,-2.425 -2.42,-2.425 -1.332,0 -2.414,1.084 -2.414,2.426" />
    <path
       style="fill:#ffffff;stroke:#231f20;stroke-width:0.625"
       id="path940"
       d="m 173.61596,374.7866 c -1.338,0 -2.42,1.076 -2.42,2.42 0,1.336 1.083,2.425 2.42,2.425 1.338,0 2.414,-1.09 2.414,-2.425 0,-1.344 -1.077,-2.42 -2.414,-2.42" />
    <path
       style="fill:#ffffff"
       id="path944"
       d="m 100.09596,372.8696 72.38,0 0,-1.977 c 0,0 -32.864,-14.84 -72.403,0.018 l 0.023,1.96 z" />
    <path
       style="fill:none;stroke:#231f20;stroke-width:0.625"
       id="path948"
       d="m 100.09596,372.8696 72.38,0 0,-1.977 c 0,0 -32.864,-14.84 -72.403,0.018 l 0.023,1.96 z" />
    <path
       d="m 102.66796,392.4596 11.107,0 0,-11.827 -11.107,0 0,11.827 z"
       id="path950"
       style="fill:#ffffff;stroke:#231f20;stroke-width:0.625" />
    <path
       d="m 120.78296,392.4596 11.877,0 0,-11.827 -11.877,0 0,11.827 z"
       id="path952"
       style="fill:#ffffff;stroke:#231f20;stroke-width:0.625" />
    <path
       d="m 139.91796,392.4596 11.543,0 0,-11.74 -11.543,0 0,11.74 z"
       id="path954"
       style="fill:#ffffff;stroke:#231f20;stroke-width:0.625" />
    <path
       d="m 158.88996,392.4596 11.02,0 0,-11.827 -11.02,0 0,11.827 z"
       id="path956"
       style="fill:#ffffff;stroke:#231f20;stroke-width:0.625" />
    <path
       style="fill:#ffffff;stroke:#231f20;stroke-width:0.625"
       id="path960"
       d="m 154.98496,393.7116 c -1.33,0 -2.41,1.083 -2.41,2.42 0,1.336 1.08,2.42 2.41,2.42 1.33,0 2.425,-1.084 2.425,-2.42 0,-1.337 -1.094,-2.42 -2.425,-2.42" />
    <path
       style="fill:#ffffff;stroke:#231f20;stroke-width:0.625"
       id="path964"
       d="m 134.00796,396.1296 c 0,1.338 1.076,2.42 2.414,2.42 1.33,0 2.413,-1.082 2.413,-2.42 0,-1.337 -1.082,-2.42 -2.413,-2.42 -1.338,0 -2.414,1.083 -2.414,2.42" />
    <path
       style="fill:#ffffff;stroke:#231f20;stroke-width:0.625"
       id="path968"
       d="m 171.26396,396.1766 c 0,1.33 1.076,2.414 2.402,2.414 1.35,0 2.42,-1.082 2.42,-2.413 0,-1.337 -1.07,-2.425 -2.42,-2.425 -1.326,0 -2.402,1.088 -2.402,2.425" />
    <path
       style="fill:#ffffff;stroke:#231f20;stroke-width:0.625"
       id="path972"
       d="m 115.43396,396.1476 c 0,1.35 1.083,2.42 2.42,2.42 1.336,0 2.414,-1.07 2.414,-2.42 0,-1.338 -1.078,-2.43 -2.414,-2.43 -1.337,0 -2.42,1.093 -2.42,2.43" />
    <path
       style="fill:#ffffff;stroke:#231f20;stroke-width:0.625"
       id="path976"
       d="m 96.859957,396.1476 c 0,1.35 1.087,2.42 2.42,2.42 1.336003,0 2.420003,-1.07 2.420003,-2.42 0,-1.338 -1.084,-2.43 -2.420003,-2.43 -1.332,0 -2.42,1.093 -2.42,2.43" />
    <path
       style="fill:#ffffff;stroke:#231f20;stroke-width:0.625"
       id="path980"
       d="m 154.92796,412.6476 c -1.33,0 -2.414,1.087 -2.414,2.425 0,1.344 1.083,2.42 2.414,2.42 1.337,0 2.42,-1.076 2.42,-2.42 0,-1.337 -1.083,-2.425 -2.42,-2.425" />
    <path
       style="fill:#ffffff;stroke:#231f20;stroke-width:0.625"
       id="path984"
       d="m 136.42196,412.6476 c -1.338,0 -2.414,1.087 -2.414,2.425 0,1.344 1.076,2.42 2.414,2.42 1.33,0 2.414,-1.076 2.414,-2.42 0,-1.337 -1.083,-2.425 -2.414,-2.425" />
    <path
       style="fill:#ffffff;stroke:#231f20;stroke-width:0.625"
       id="path988"
       d="m 173.61596,412.6876 c -1.338,0 -2.42,1.083 -2.42,2.43 0,1.34 1.083,2.415 2.42,2.415 1.338,0 2.414,-1.076 2.414,-2.414 0,-1.35 -1.077,-2.432 -2.414,-2.432" />
    <path
       style="fill:#ffffff;stroke:#231f20;stroke-width:0.625"
       id="path992"
       d="m 99.279957,412.6476 c -1.33,0 -2.42,1.065 -2.42,2.425 0,1.326 1.09,2.414 2.42,2.414 1.338003,0 2.420003,-1.088 2.420003,-2.414 0,-1.36 -1.082,-2.425 -2.420003,-2.425" />
    <path
       style="fill:#ffffff;stroke:#231f20;stroke-width:0.625"
       id="path996"
       d="m 117.79796,412.6476 c -1.338,0 -2.42,1.065 -2.42,2.425 0,1.326 1.08,2.414 2.42,2.414 1.337,0 2.408,-1.088 2.408,-2.414 0,-1.36 -1.072,-2.425 -2.41,-2.425" />
    <path
       d="m 102.66796,411.5776 11.107,0 0,-11.836 -11.107,0 0,11.836 z"
       id="path998"
       style="fill:#ffffff;stroke:#231f20;stroke-width:0.625" />
    <path
       d="m 120.86796,411.6626 11.792,0 0,-11.928 -11.792,0 0,11.928 z"
       id="path1000"
       style="fill:#ffffff;stroke:#231f20;stroke-width:0.625" />
    <path
       d="m 139.91796,411.6626 11.543,0 0,-11.995 -11.543,0 0,11.995 z"
       id="path1002"
       style="fill:#ffffff;stroke:#231f20;stroke-width:0.625" />
    <path
       d="m 158.97496,411.5776 10.94,0 0,-11.836 -10.94,0 0,11.836 z"
       id="path1004"
       style="fill:#ffffff;stroke:#231f20;stroke-width:0.625" />
    <path
       d="m 139.91796,430.5196 11.543,0 0,-11.837 -11.543,0 0,11.837 z"
       id="path1006"
       style="fill:#ffffff;stroke:#231f20;stroke-width:0.625" />
    <path
       d="m 158.97496,430.5196 10.94,0 0,-11.837 -10.94,0 0,11.837 z"
       id="path1008"
       style="fill:#ffffff;stroke:#231f20;stroke-width:0.625" />
    <path
       d="m 102.66796,430.5196 11.107,0 0,-11.746 -11.107,0 0,11.746 z"
       id="path1010"
       style="fill:#ffffff;stroke:#231f20;stroke-width:0.625" />
    <path
       d="m 120.86796,430.6166 11.707,0 0,-11.843 -11.707,0 0,11.843 z"
       id="path1012"
       style="fill:#ffffff;stroke:#231f20;stroke-width:0.625" />
    <path
       style="fill:#ffffff;stroke:#231f20;stroke-width:0.625"
       id="path1016"
       d="m 134.00796,434.0436 c 0,1.338 1.076,2.42 2.414,2.42 1.33,0 2.413,-1.082 2.413,-2.42 0,-1.338 -1.082,-2.43 -2.413,-2.43 -1.338,0 -2.414,1.093 -2.414,2.43" />
    <path
       style="fill:#ffffff;stroke:#231f20;stroke-width:0.625"
       id="path1020"
       d="m 154.98496,431.6136 c -1.33,0 -2.41,1.094 -2.41,2.43 0,1.337 1.08,2.42 2.41,2.42 1.33,0 2.425,-1.082 2.425,-2.42 0,-1.336 -1.094,-2.43 -2.425,-2.43" />
    <path
       style="fill:#ffffff;stroke:#231f20;stroke-width:0.625"
       id="path1024"
       d="m 171.26396,434.0836 c 0,1.343 1.076,2.425 2.402,2.425 1.35,0 2.42,-1.084 2.42,-2.426 0,-1.338 -1.07,-2.43 -2.42,-2.43 -1.326,0 -2.402,1.092 -2.402,2.43" />
    <path
       style="fill:#ffffff;stroke:#231f20;stroke-width:0.625"
       id="path1028"
       d="m 99.279957,431.6076 c -1.33,0 -2.42,1.087 -2.42,2.425 0,1.344 1.09,2.42 2.42,2.42 1.338003,0 2.420003,-1.076 2.420003,-2.42 0,-1.337 -1.082,-2.425 -2.420003,-2.425" />
    <path
       style="fill:#ffffff;stroke:#231f20;stroke-width:0.625"
       id="path1032"
       d="m 117.85396,431.6076 c -1.338,0 -2.42,1.087 -2.42,2.425 0,1.344 1.083,2.42 2.42,2.42 1.338,0 2.414,-1.076 2.414,-2.42 0,-1.337 -1.077,-2.425 -2.414,-2.425" />
  </g>
</svg>
