<?xml version="1.0" encoding="UTF-8" standalone="no"?>
<svg
   xmlns:dc="http://purl.org/dc/elements/1.1/"
   xmlns:cc="http://creativecommons.org/ns#"
   xmlns:rdf="http://www.w3.org/1999/02/22-rdf-syntax-ns#"
   xmlns:svg="http://www.w3.org/2000/svg"
   xmlns="http://www.w3.org/2000/svg"
   version="1.1"
   id="svg10845"
   height="195.60275"
   width="200.0005">
  <defs
     id="defs4809">
    <pattern
       id="polka"
       patternTransform="rotate(20)"
       height="5"
       width="5"
       patternUnits="userSpaceOnUse">
      <rect
         y="0"
         x="0"
         height="5"
         width="5"
         style="fill:#ffffff"
         id="polka__bg" />
      <circle
         cx="2"
         style="fill:#ff0000"
         cy="2"
         r="1.5"
         id="polka__inner" />
    </pattern>
    <clipPath
       id="clipPath25214"
       clipPathUnits="userSpaceOnUse">
      <path
         id="path25216"
         d="m -9.7043724,-14.876283 0,181.250003 178.0000024,0 0,-181.250003 -178.0000024,0 z M 119.4011,10.854185 c 0.70347,0.01315 1.40469,0.05834 2.10156,0.136719 11.15,1.253 16.93727,7.487266 20.82227,11.947266 l 0.0801,-0.04492 c 0.797,1.482 1.46709,3.079062 1.99609,4.789062 l 0.20898,-0.734375 c -0.234,1.706 0.38086,3.039063 0.38086,3.039063 3.72,14.26 -5.1914,24.279297 -5.1914,24.279297 -16.08,18.085 -35.75866,11.588562 -42.472662,5.851562 -1.846,-1.576 -3.47323,-3.454625 -4.86523,-5.515625 l -0.9043,-2.029297 c 0,0 -4.77542,-14.98039 0.89258,-25.27539 5.31562,-9.650625 16.399132,-16.640659 26.951172,-16.44336 z M 69.254608,93.217467 c 4.94189,0.137689 10.99357,1.366374 16.89063,5.296874 l 0.19531,0.10156 c 5.5,5.923999 10.46392,15.450029 6.66992,28.832029 -5.195,18.34 -23.51656,22.01383 -25.47656,22.04883 -1.96,0.036 -3.35937,1.09571 -3.35937,1.09571 -13.21,1.48 -21.10321,-5.69363 -25.15821,-11.26563 l 0.47461,0.58984 c 0,0 -5.99403,-12.84065 -3.58203,-20.97265 2.41,-8.133 6.73466,-19.174349 22.47266,-24.277349 0,0 4.51919,-1.626244 10.87304,-1.449214 z"
         style="color:#000000;display:inline;overflow:visible;visibility:visible;opacity:0.61699997;fill:#000000;fill-opacity:1;fill-rule:nonzero;stroke:#ff0000;stroke-width:1.97399998;stroke-miterlimit:4;stroke-dasharray:none;stroke-opacity:1;marker:none;enable-background:accumulate" />
    </clipPath>
  </defs>
  <metadata
     id="metadata10850">
    <rdf:RDF>
      <cc:Work
         rdf:about="">
        <dc:format>image/svg+xml</dc:format>
        <dc:type
           rdf:resource="http://purl.org/dc/dcmitype/StillImage" />
        <dc:title></dc:title>
      </cc:Work>
    </rdf:RDF>
  </metadata>
  <g
     style="display:inline"
     transform="translate(-282.08096,-278.41122)"
     id="layer1">
    <ellipse
       style="color:#000000;display:inline;overflow:visible;visibility:visible;opacity:1;fill:none;fill-opacity:1;fill-rule:nonzero;stroke:#000000;stroke-width:2;stroke-miterlimit:4;stroke-dasharray:none;stroke-opacity:1;marker:none;enable-background:accumulate"
       id="path6022"
       cx="382.06821"
       cy="398.07648"
       rx="74.9505"
       ry="74.950493" />
    <g
       id="g901"
       transform="translate(306.13021,293.25248)">
      <g
         transform="translate(0.00283593,0.00220407)"
         id="g987" />
      <g
         id="g25218">
        <g
           id="g911"
           clip-path="url(#clipPath25214)">
          <path
             d="m 0,0 c 0,0 -0.106,-1.533 -0.595,-3.417 -0.49,-1.883 -1.577,-7.083 -1.358,-13.618 0.22,-6.534 3.263,-14.294 8.635,-18.884 5.37,-4.59 21.115,-9.786 33.978,4.682 0,0 7.13,8.015 4.153,19.424 0,0 -1.67,3.627 2.312,6.057 3.98,2.43 6.68,-1.178 7.503,-3.02 0.722,-1.855 0.297,-4.246 0.005,-5.244 -0.292,-1 -0.244,-4.166 -0.244,-4.166 1.7,-8.962 -5.587,-22.266 -14.723,-27.845 -9.135,-5.58 -18.19,-6.19 -25.665,-4.69 -7.475,1.503 -14.146,7.595 -15.32,8.845 -1.173,1.25 -3.61,1.484 -3.61,1.484 0,0 -5.068,0.51 -6.425,0.585 -1.356,0.073 -2.095,1.015 -2.095,1.015 l -1.83,2.326 c -1.128,1.443 -1.21,2.786 -1.21,2.786 l -0.724,8.166 -4.89,-0.854 c -0.307,-0.434 -4.44,-5.746 -4.44,-5.746 2.962,-4.585 -2.887,-10.042 -2.887,-10.042 l 0.93,-3.532 c 0,0 7.29,2.156 9.827,2.968 2.537,0.812 4.66,-1.99 4.66,-1.99 0,0 1.958,-3.478 3.426,-5.614 1.47,-2.137 6.184,-3.684 6.184,-3.684 17.602,-9.09 21.646,-26.05 17.04,-40.255 -4.604,-14.208 -17.26,-19.394 -20.655,-20.813 -3.397,-1.418 -3.155,-1.68 -6.25,-3.324 -3.095,-1.644 -5.926,1.38 -5.926,1.38 -9.025,0.147 -19.965,2.894 -27.73,15.612 -7.768,12.718 0.343,29.673 0.343,29.673 l -1.128,0.95 c -1.457,1.133 -1.253,2.68 -1.253,2.68 l 0.706,12.892 c 0.034,2.808 3.535,4.235 3.535,4.235 l 10.8,3.26 -1.076,5.978 c -2.815,2.462 -1.825,4.87 -1.825,4.87 l 1.184,3.428 c 0,0 0.743,1.603 1.19,2.614 0.45,1.012 1.916,2.235 1.916,2.235 -0.004,0.407 1.818,2.257 1.818,2.257 l -0.21,0.61 3.127,3.876 c 1.51,1.824 3.9,1.4 3.9,1.4 l 7.105,1.386 -0.96,10.97 c -0.242,3.214 3.26,4.86 3.26,4.86 0,0 9.842,4.29 12.068,5.075 C -1.196,2.63 0,0 0,0 10.786,12.407 24.593,11.41 24.593,11.41 45.043,10.946 51.423,-5.407 51.423,-5.407"
             id="path913"
             style="fill:url(#polka);fill-opacity:1"
             transform="matrix(1.25,0,0,-1.25,88.974,15.219)" />
        </g>
        <g
           id="g915">
          <path
             d="m 29.498,104.885 c 0,0 1.91,0.7 4.056,-0.93 2.148,-1.63 11.41,-8.24 20.456,-10.577 9.05,-2.338 14.646,-2.794 19.796,-1.522 0,0 -11.313,-0.287 -20.197,2.952 -8.886,3.238 -24.626,17.29 -18.07,38.428 0,0 7.532,19.722 28.633,17.357 0,0 1.403,-1.06 3.36,-1.097 1.96,-0.035 20.282,-3.707 25.48,-22.047 5.196,-18.34 -6.047,-29.438 -12.592,-33.945 -6.544,-4.51 -28.516,-6.258 -46.994,9.125 0,0 -2.264,1.998 -4.984,1.404"
             id="path917"
             style="fill:none;stroke:#231f20;stroke-width:0.625" />
        </g>
        <g
           id="g919">
          <path
             d="m 39.49,139.914 c 0,0 -5.995,-12.837 -3.584,-20.97 2.413,-8.134 6.735,-19.176 22.474,-24.28 0,0 14.284,-5.135 27.764,3.85"
             id="path921"
             style="fill:none;stroke:#231f20;stroke-width:0.625" />
        </g>
        <g
           id="g923">
          <path
             d="m 64.173,150.593 c 0,0 -3.085,1.884 -2.874,5.923 0.21,4.037 4.524,5.843 7.112,5.493 2.587,-0.35 4.716,-3.017 7.47,-3.878 2.752,-0.86 19.775,-6.884 26.888,-27.01 7.113,-20.124 -4.002,-35.09 -6.007,-38.375"
             id="path925"
             style="fill:none;stroke:#231f20;stroke-width:0.625" />
        </g>
        <g
           id="g927">
          <path
             d="m 70.197,153.954 c 0.98,1.607 0.408,3.748 -1.282,4.78 -1.69,1.03 -3.857,0.565 -4.838,-1.042 -0.983,-1.608 -0.408,-3.748 1.282,-4.78 1.69,-1.032 3.856,-0.565 4.837,1.042 z"
             id="path929"
             style="fill:none;stroke:#231f20;stroke-width:0.625" />
        </g>
        <g
           id="g931">
          <path
             d="m 31.448,92.08 c 0.537,0.88 0.237,2.04 -0.67,2.595 -0.906,0.554 -2.077,0.29 -2.614,-0.59 -0.537,-0.88 -0.237,-2.04 0.67,-2.595 0.906,-0.554 2.076,-0.29 2.614,0.59 z"
             id="path933"
             style="fill:none;stroke:#231f20;stroke-width:0.625" />
        </g>
        <g
           id="g935">
          <path
             d="m 42.666,77.783 c 0.537,0.88 0.237,2.04 -0.67,2.595 -0.906,0.554 -2.078,0.29 -2.614,-0.59 -0.537,-0.88 -0.237,-2.04 0.67,-2.595 0.906,-0.554 2.076,-0.29 2.614,0.59 z"
             id="path937"
             style="fill:none;stroke:#231f20;stroke-width:0.625" />
        </g>
        <g
           id="g939">
          <path
             d="m 58.187,72.882 c 0.537,0.88 0.237,2.04 -0.67,2.595 -0.906,0.554 -2.078,0.29 -2.614,-0.59 -0.537,-0.88 -0.237,-2.04 0.67,-2.595 0.906,-0.554 2.076,-0.29 2.614,0.59 z"
             id="path941"
             style="fill:none;stroke:#231f20;stroke-width:0.625" />
        </g>
        <g
           id="g943">
          <path
             d="m 66.842,79.894 c 0.352,0.578 0.126,1.358 -0.506,1.744 -0.633,0.386 -1.43,0.23 -1.783,-0.346 -0.352,-0.578 -0.126,-1.358 0.507,-1.744 0.632,-0.386 1.43,-0.23 1.782,0.346 z"
             id="path945"
             style="fill:none;stroke:#231f20;stroke-width:0.625" />
        </g>
        <g
           id="g947">
          <path
             d="m 74.37,78.576 c 0.555,0.906 0.246,2.105 -0.688,2.675 -0.935,0.572 -2.14,0.298 -2.695,-0.608 -0.554,-0.906 -0.245,-2.105 0.69,-2.675 0.934,-0.57 2.14,-0.3 2.694,0.61 z"
             id="path949"
             style="fill:none;stroke:#231f20;stroke-width:0.625" />
        </g>
        <g
           id="g951">
          <path
             d="m 36.532,87.54 c -0.537,-0.88 -1.708,-1.144 -2.615,-0.59 -0.906,0.554 -1.206,1.716 -0.67,2.595 0.2,0.326 0.486,0.568 0.812,0.714 0.304,0.24 0.638,0.57 0.693,0.894 0.074,0.432 0.274,1.054 0.388,1.39 0.01,0.08 0.038,0.162 0.083,0.236 0.184,0.302 0.602,0.384 0.932,0.182 0.24,-0.146 0.366,-0.4 0.347,-0.646 l 0.007,-0.002 -0.28,-1.65 c 0,0 0.017,-0.6 0.212,-1.068 0.426,-0.6 0.487,-1.405 0.09,-2.056 z"
             id="path953"
             style="fill:none;stroke:#231f20;stroke-width:0.625" />
        </g>
        <g
           id="g955">
          <path
             d="m 48.468,75.948 c 0,0 -2.572,0.934 -2.43,1.985 l 0.31,1.63 c 0,0 0.266,0.66 1.05,0.454 l 3.965,-1.192 c 0,0 1.056,-0.508 0.93,-1.16 l -0.43,-1.603 c 0,0 -0.09,-1.04 -3.395,-0.114 z"
             id="path957"
             style="fill:none;stroke:#231f20;stroke-width:0.625" />
        </g>
        <g
           id="g959">
          <path
             d="m 45.255,63.563 c 0,0 2.662,-2.24 5.35,0.15 0,0 2.08,-4.207 2.284,-6.11 0,0 -3.44,1.417 -5.474,-1.576 l -0.868,1.486 c 0,0 0.29,1.258 -0.717,1.736 0,0 -1.255,3.088 -0.575,4.313 z"
             id="path961"
             style="fill:none;stroke:#231f20;stroke-width:0.625" />
        </g>
        <g
           id="g963">
          <path
             d="m 45.255,63.563 c 0,0 4.245,3.147 -0.607,6.725"
             id="path965"
             style="fill:none;stroke:#231f20;stroke-width:0.625" />
        </g>
        <g
           id="g967">
          <path
             d="m 46.272,64.445 c 0,0 2.68,-1.43 4.81,-0.068"
             id="path969"
             style="fill:none;stroke:#231f20;stroke-width:0.625" />
        </g>
        <g
           id="g971">
          <path
             d="m 52.188,67.91 c 0,0 -0.55,-2.846 -1.583,-4.2"
             id="path973"
             style="fill:none;stroke:#231f20;stroke-width:0.625" />
        </g>
        <g
           id="g975">
          <path
             d="m 47.416,56.027 0.766,-1.766 c 0,0 1.105,-1.88 3.313,0.392"
             id="path977"
             style="fill:none;stroke:#231f20;stroke-width:0.625" />
        </g>
        <g
           id="g979">
          <path
             d="m 49.167,53.523 c 0,0 1.29,2.56 3.204,0.435 1.913,-2.125 7.4,-9.027 7.4,-9.027"
             id="path981"
             style="fill:none;stroke:#231f20;stroke-width:0.625" />
        </g>
        <g
           id="g983">
          <path
             d="m 70.67,61.775 c 0,0 2.757,1.05 5.45,1.318 2.692,0.268 6.75,1.207 6.75,1.207 0,0 2.41,0.03 4.316,2.146 0,0 9.495,8.213 15.82,9.68 6.328,1.464 19.738,3.624 32.725,-4.306 12.99,-7.93 18.25,-18.11 20.96,-31.96 0,0 -0.586,-5.996 0.003,-7.38 0.588,-1.385 0.926,-4.357 0.827,-5.526"
             id="path985"
             style="fill:none;stroke:#231f20;stroke-width:0.625" />
        </g>
        <g
           id="g991">
          <path
             d="m 92.536,54.845 c 0,0 -5.63,-11.795 -3.453,-22.212 2.177,-10.418 11.807,-20.943 25.282,-22.817 13.474,-1.875 25.965,4.708 30.037,17.865"
             id="path993"
             style="fill:none;stroke:#231f20;stroke-linecap:round;stroke-linejoin:round" />
        </g>
        <g
           id="g995"
           transform="translate(-36.969198,-25.897648)">
          <path
             id="path997"
             style="fill:none;stroke:#231f20;stroke-linecap:round;stroke-linejoin:round"
             d="m 128.52718,78.474402 c 0,0 -4.776,-14.983 0.892,-25.276 5.67,-10.294 17.903,-17.56 29.053,-16.306 11.15,1.254 16.938,7.49 20.823,11.948 m -53.34917,-7.716796 c 0,0 -0.133,1.915 -0.744,4.27 -0.612,2.354 -1.97,8.855 -1.697,17.023 0.273,8.167 4.078,17.867 10.793,23.605 6.71401,5.737 26.39401,12.233 42.47301,-5.852 0,0 8.91,-10.018 5.19,-24.28 0,0 -2.086,-4.533 2.89,-7.57 4.976,-3.04 8.35,1.472 9.38,3.774 0.9,2.32 0.37,5.308 0.005,6.555 -0.365,1.248 -0.305,5.207 -0.305,5.207 2.128,11.202 -6.982,27.832 -18.402,34.806 -11.42,6.973004 -22.738,7.736004 -32.082,5.860004 -9.34301,-1.878 -17.68201,-9.493004 -19.15001,-11.055004 -1.466,-1.564 -4.513,-1.855 -4.513,-1.855 0,0 -6.334,-0.64 -8.03,-0.733 -1.695,-0.09 -2.62,-1.27 -2.62,-1.27 l -2.286,-2.905 c -1.41,-1.805 -1.51,-3.484 -1.51,-3.484 l -0.906,-10.207 -6.111998,1.066 c -0.385,0.543 -5.553,7.183 -5.553,7.183 3.704,5.73 -3.607,12.55 -3.607,12.55 l 1.16,4.416 c 0,0 9.112,-2.694 12.284998,-3.71 3.17,-1.014 5.823,2.49 5.823,2.49 0,0 2.45,4.346004 4.284,7.016004 1.836,2.67 7.73,4.604 7.73,4.604 22.00301,11.363 27.05801,32.56199 21.30001,50.31999 -5.75501,17.758 -21.57401,24.24 -25.82001,26.014 -4.245,1.773 -3.942,2.1 -7.81,4.155 -3.87,2.055 -7.41,-1.726 -7.41,-1.726 -11.279998,-0.184 -24.954998,-3.617 -34.661998,-19.515 -9.71,-15.897 0.43,-37.09 0.43,-37.09 l -1.41,-1.19 c -1.82,-1.415 -1.565,-3.347 -1.565,-3.347 l 0.883,-16.11599 c 0.043,-3.51 4.42,-5.294 4.42,-5.294 l 13.497,-4.075 -1.344,-7.473004 c -3.52,-3.077 -2.282,-6.086 -2.282,-6.086 l 1.48,-4.286 c 0,0 0.93,-2.003 1.49,-3.266 0.56,-1.265 2.393,-2.794 2.393,-2.794 -0.004,-0.51 2.274,-2.823 2.274,-2.823 l -0.26,-0.762 3.906,-4.845 c 1.886,-2.28 4.876,-1.75 4.876,-1.75 l 8.879998,-1.733 -1.2,-13.715 c -0.302,-4.016 4.075,-6.075 4.075,-6.075 0,0 12.304,-5.36 15.086,-6.342 2.783,-0.98 4.278,2.306 4.278,2.306 13.48101,-15.506 30.73901,-14.262 30.73901,-14.262 25.564,0.582 33.537,21.023 33.537,21.023" />
        </g>
        <g
           id="g999">
          <path
             d="m 153.366,25.692 c 0.84,1.374 0.36,3.195 -1.07,4.07 -1.427,0.87 -3.266,0.464 -4.105,-0.91 -0.838,-1.374 -0.36,-3.195 1.07,-4.067 1.43,-0.874 3.267,-0.467 4.106,0.907 z"
             id="path1001"
             style="fill:none;stroke:#231f20;stroke-linecap:round;stroke-linejoin:round" />
        </g>
        <g
           id="g1003">
          <path
             d="m 71.81,47.015 c 0.528,0.866 0.22,2.016 -0.686,2.57 -0.906,0.554 -2.07,0.3 -2.6,-0.565 -0.528,-0.865 -0.22,-2.016 0.686,-2.57 0.907,-0.554 2.07,-0.3 2.6,0.565 z"
             id="path1005"
             style="fill:none;stroke:#231f20;stroke-linecap:round;stroke-linejoin:round" />
        </g>
        <g
           id="g1007">
          <path
             d="m 70.64,31.846 c 0.53,0.865 0.222,2.016 -0.685,2.57 -0.906,0.554 -2.07,0.3 -2.6,-0.565 -0.528,-0.864 -0.22,-2.015 0.686,-2.57 0.907,-0.553 2.07,-0.3 2.6,0.566 z"
             id="path1009"
             style="fill:none;stroke:#231f20;stroke-linecap:round;stroke-linejoin:round" />
        </g>
        <g
           id="g1011">
          <path
             d="m 66.737,39.045 0.722,8.064"
             id="path1013"
             style="fill:none;stroke:#231f20;stroke-linecap:round;stroke-linejoin:round" />
        </g>
        <g
           id="g1015">
          <path
             d="m 71.04,37.433 -1.304,0.25 c 0,0 -0.87,0.214 -0.89,1.228 -0.02,1.013 0.31,3.638 0.31,3.638 0,0 0.165,0.945 1.15,0.844 0.987,-0.102 1.797,-0.414 1.797,-0.414 0,0 1.07,-0.563 0.97,-1.547 -0.102,-0.986 -0.446,-3.19 -0.446,-3.19 0,0 -0.082,-1.178 -1.586,-0.807 z"
             id="path1017"
             style="fill:none;stroke:#231f20;stroke-linecap:round;stroke-linejoin:round" />
        </g>
        <g
           id="g1019">
          <path
             d="m 81.113,52.734 c 0.314,0.512 0.077,1.23 -0.527,1.598 -0.606,0.368 -1.35,0.252 -1.663,-0.26 -0.313,-0.514 -0.076,-1.23 0.527,-1.598 0.606,-0.37 1.35,-0.252 1.663,0.26 z"
             id="path1021"
             style="fill:none;stroke:#231f20;stroke-linecap:round;stroke-linejoin:round" />
        </g>
        <g
           id="g1023">
          <path
             d="m 83.66,58.694 c 0.548,0.897 0.234,2.09 -0.7,2.66 -0.935,0.57 -2.137,0.304 -2.685,-0.594 -0.55,-0.897 -0.235,-2.088 0.7,-2.658 0.934,-0.57 2.135,-0.305 2.684,0.592 z"
             id="path1025"
             style="fill:none;stroke:#231f20;stroke-linecap:round;stroke-linejoin:round" />
        </g>
        <g
           id="g1027">
          <path
             d="m 57.225,48.147 c 0,0 -2.15,-1.056 -2.345,-2.35 l -1.64,1.867 c 0,0 1.04,0.733 0.537,1.177 -0.503,0.444 -1.036,0.542 -1.036,0.542 l -1.433,1.604"
             id="path1029"
             style="fill:none;stroke:#231f20;stroke-width:0.625" />
        </g>
        <g
           id="g1031">
          <path
             d="m 47.06,50.958 c 0,0 2.223,-1.195 4.673,0.133 0,0 1.4,0.875 1.832,1.432"
             id="path1033"
             style="fill:none;stroke:#231f20;stroke-width:0.625" />
        </g>
        <g
           id="g1035">
          <path
             d="m 49.334,48.135 c 0,0 0.89,-0.268 1.5,0.135 0.61,0.402 1.325,0.83 1.908,1.11"
             id="path1037"
             style="fill:none;stroke:#231f20;stroke-width:0.625" />
        </g>
        <g
           id="g1039">
          <path
             d="m 54.88,45.8 c 0,0 -0.96,-3.513 2.86,-4.936"
             id="path1041"
             style="fill:none;stroke:#231f20;stroke-width:0.625" />
        </g>
        <g
           id="g1043">
          <path
             d="m 57.448,47.692 c 0,0 -1.49,-1.32 -0.13,-2.152 1.36,-0.83 3.603,-1.335 4.798,0.622 1.194,1.958 0.253,1.76 0.253,1.76"
             id="path1045"
             style="fill:none;stroke:#231f20;stroke-width:0.625" />
        </g>
        <g
           id="g1047">
          <path
             d="m 61.35,48.177 c 0,0 1.013,-1.163 0.766,-2.014"
             id="path1049"
             style="fill:none;stroke:#231f20;stroke-linecap:round;stroke-linejoin:round" />
        </g>
        <g
           id="g1051">
          <path
             d="m 52.888,57.604 c 0,0 0.74,0.18 2.906,-2.245"
             id="path1053"
             style="fill:none;stroke:#231f20;stroke-linecap:round;stroke-linejoin:round" />
        </g>
        <g
           id="g1055">
          <path
             d="m 69.437,60.248 c 0,0 2.652,1.66 5.775,1.905 3.12,0.245 6.62,0.774 6.62,0.774 0,0 2.49,0.22 4.08,1.812 1.586,1.592 12.54,11.81 25.212,11.757 12.674,-0.054 31.34,-3.05 41.653,-24.923 0,0 3.623,-10.512 3.26,-14.8 -0.364,-4.286 -0.23,-4.572 0,-5.534 0.234,-0.96 1.33,-4.705 0.54,-6.168"
             id="path1057"
             style="fill:none;stroke:#231f20;stroke-width:0.625" />
        </g>
        <g
           id="g1059">
          <path
             d="m 79.443,23.163 -0.956,0.227 c 0,0 -0.625,0.064 -0.974,-0.172 -0.565,-0.72 -1.675,-0.874 -2.575,-0.324 -0.963,0.588 -1.32,1.754 -0.8,2.605 0.52,0.852 1.72,1.067 2.684,0.48 0.247,-0.152 0.454,-0.342 0.616,-0.553 l 0.004,0.002 c 0,0 0.495,-0.644 0.91,-0.693 0.32,-0.038 1.007,-0.215 1.3,-0.294 0.11,-0.016 0.222,-0.055 0.326,-0.12 0.357,-0.216 0.498,-0.64 0.314,-0.94 -0.163,-0.266 -0.522,-0.35 -0.85,-0.22 z"
             id="path1061"
             style="fill:none;stroke:#231f20;stroke-width:0.625" />
        </g>
        <g
           id="g1063">
          <path
             d="m 76.492,24.096 c 0.21,0.344 0.08,0.806 -0.293,1.032 -0.37,0.227 -0.842,0.132 -1.052,-0.212 -0.21,-0.343 -0.078,-0.805 0.293,-1.03 0.372,-0.23 0.842,-0.134 1.052,0.21 z"
             id="path1065"
             style="fill:none;stroke:#231f20;stroke-width:0.625" />
        </g>
        <g
           id="g1067">
          <path
             d="m 35.678,88.267 c 0.27,0.44 0.13,1.014 -0.31,1.282 -0.44,0.268 -1.014,0.13 -1.283,-0.31 -0.268,-0.44 -0.13,-1.014 0.31,-1.283 0.44,-0.27 1.014,-0.13 1.283,0.31 z"
             id="path1069"
             style="fill:none;stroke:#231f20;stroke-width:0.625" />
        </g>
        <g
           id="g1075">
          <path
             d="m 86.34,98.616 c 5.5,5.924 10.464,15.45 6.67,28.832 -5.195,18.34 -23.516,22.013 -25.476,22.048 -1.96,0.036 -3.36,1.096 -3.36,1.096 -13.21,1.48 -21.103,-5.694 -25.158,-11.266 l 0.474,0.59 c 0,0 -5.994,-12.84 -3.582,-20.972 2.41,-8.133 6.735,-19.175 22.473,-24.278 0,0 14.285,-5.136 27.764,3.848 l 0.195,0.102 z"
             id="path1077"
             style="fill:none;stroke:#231f20;stroke-width:0.625" />
        </g>
      </g>
    </g>
  </g>
</svg>
