<?xml version="1.0" encoding="UTF-8" standalone="no"?>
<svg
   xmlns:dc="http://purl.org/dc/elements/1.1/"
   xmlns:cc="http://creativecommons.org/ns#"
   xmlns:rdf="http://www.w3.org/1999/02/22-rdf-syntax-ns#"
   xmlns:svg="http://www.w3.org/2000/svg"
   xmlns="http://www.w3.org/2000/svg"
   version="1.1"
   id="svg10845"
   height="195.60275"
   width="200.0005">
  <defs
     id="defs4809">
    <pattern
       id="polka"
       patternTransform="rotate(20)"
       height="5"
       width="5"
       patternUnits="userSpaceOnUse">
      <rect
         y="0"
         x="0"
         height="5"
         width="5"
         style="fill:#ffffff"
         id="polka__bg" />
      <circle
         cx="2"
         style="fill:#ff0000"
         cy="2"
         r="1.5"
         id="polka__inner" />
    </pattern>
  </defs>
  <metadata
     id="metadata10850">
    <rdf:RDF>
      <cc:Work
         rdf:about="">
        <dc:format>image/svg+xml</dc:format>
        <dc:type
           rdf:resource="http://purl.org/dc/dcmitype/StillImage" />
        <dc:title></dc:title>
      </cc:Work>
    </rdf:RDF>
  </metadata>
  <g
     style="display:inline"
     transform="translate(-282.08096,-278.41122)"
     id="layer1">
    <ellipse
       style="color:#000000;display:inline;overflow:visible;visibility:visible;opacity:1;fill:none;fill-opacity:1;fill-rule:nonzero;stroke:#000000;stroke-width:2;stroke-miterlimit:4;stroke-dasharray:none;stroke-opacity:1;marker:none;enable-background:accumulate"
       id="path6022"
       cx="382.06821"
       cy="398.07648"
       rx="74.9505"
       ry="74.950493" />
    <g
       id="layer1-2"
       transform="translate(-0.01300321,7.0507813e-6)">
      <g
         id="g30947">
        <path
           id="path7563"
           d="m 436.37578,408.78879 c -2.31915,-4.65007 -8.74717,-9.18997 -13.185,-4.75625 -6.54879,-2.67711 6.16399,-4.06751 2.11235,-9.60644 0.0996,-1.74995 -3.88111,-4.31804 0.0489,-3.36356 -1.14257,-4.00186 -2.25405,-6.81277 -1.01969,-9.74938 0.0159,-5.61263 -6.4801,-8.06142 -6.77492,-12.76957 -1.75212,-5.63595 1.03389,-11.38997 -1.1149,-17.01699 -1.59041,-4.08516 -5.45993,-8.17963 -9.99771,-6.81446 0.44484,-3.76617 10.19578,-0.45883 5.63113,-4.71991 -0.35464,-2.88769 4.73069,-0.30195 5.40904,-4.27223 3.93453,-2.9492 5.68611,-8.02643 8.38402,-11.79713 -1.01199,-5.05681 -8.30225,-3.54479 -11.19322,-6.89455 -3.04849,-1.10106 -6.40613,1.47262 -8.7775,0.32047 2.33831,-1.94733 7.0029,-3.68194 2.22196,-4.73466 3.57948,-2.58698 9.64188,-2.62116 12.10966,-7.16751 1.0896,-4.79227 -6.01377,-1.55247 -8.06287,-4.31158 -2.90247,1.80457 -8.12414,-6.42462 -8.64625,0 -1.66663,0.31533 -0.97683,3.72868 -3.67375,2.1625 -0.77454,3.44166 -0.9158,5.38963 -4.64242,4.10625 -1.10751,2.55134 -4.3372,5.76262 -2.92383,8.6475 1.65555,3.34542 -6.61392,-0.35304 -1.76904,-3.43111 0.4081,-2.27843 -2.12522,-5.72144 -2.33721,-1.32514 -0.94864,-2.43931 -3.15362,-0.7386 -3.675,1.08125 3.28057,1.03328 0.52416,5.72665 4.32375,6.0525 -1.55764,2.60061 2.73526,1.4906 0.0951,3.6185 0.2816,3.89024 -5.08313,1.66888 -2.25633,4.5965 -2.52213,-1.59819 -4.76945,0.81142 -2.38062,1.83453 -0.90933,1.81732 -5.04869,3.06297 -0.42938,3.13672 1.88604,-0.26768 5.76611,2.21121 4.10625,-2.3775 2.02164,0.65493 6.79898,-3.71004 3.13625,0.043 -3.34593,3.04703 -4.20961,6.701 -6.10219,9.94556 0.22533,3.36891 -5.33716,7.23787 -3.30047,9.4211 2.5478,-0.6058 3.24933,-6.42199 5.77723,-6.96367 2.24728,-2.02342 1.79772,-0.36665 2.72209,0.96718 2.13603,-1.82561 -0.45078,3.66525 1.25693,5.10258 -1.82093,2.74881 -4.19232,4.41627 -6.29984,7.20922 -2.6229,0.5214 0.35708,4.19511 -0.4325,6.70125 0.22762,-2.97137 2.53452,-4.77238 3.2425,-0.865 1.60926,3.05934 2.08864,0.0438 3.2425,-1.08125 1.02859,5.31705 9.9654,-1.90791 9.0775,2.59375 -3.45688,2.36077 -5.6767,5.79348 -4.21438,10.05768 1.56439,2.48077 1.07821,3.32366 3.99938,1.83232 0.75165,3.4342 -2.57728,2.75137 -2.3775,6.0525 -2.54212,2.9711 -1.77461,7.15265 -6.64313,5.71564 -2.23792,-0.86041 -3.3279,-1.44529 -6.11062,-0.74314 2.02398,-2.29471 -6.04863,-5.56419 -4.57132,-0.44811 5.5906,4.10472 -8.73652,4.39561 -1.91243,6.71686 5.30413,-2.66777 4.34412,1.68647 2.67094,4.85219 0.55558,4.85503 -5.29213,5.00163 -8.72344,5.09156 -1.53692,1.12693 -6.13557,-0.75302 -4.54135,2.19383 0.19514,1.63906 -2.54105,2.58396 0.29885,3.32508 -2.67637,1.9817 3.84875,1.64353 5.46205,1.14718 1.50029,1.04517 3.11735,2.71816 0.43092,2.86766 1.4524,4.32436 5.68707,-1.78621 6.03593,3.46195 1.96343,4.62805 6.23978,0.55924 9.1736,0.8393 5.02179,0.41535 -4.59294,1.7824 -4.32375,4.75625 -4.16876,0.20446 -7.78872,-5.68287 -12.05734,-1.55912 -3.11797,0.19879 -4.081,1.29024 -5.01766,4.36912 -1.84362,1.86818 -4.44753,1.33577 -5.85689,2.14906 -0.85526,3.17335 -11.97944,1.95237 -6.84895,5.59873 2.69491,-2.69575 2.26234,5.0813 4.89881,1.01752 2.36982,-1.72832 6.38566,-3.96969 9.31625,-1.02265 1.2276,1.97947 3.28656,1.78584 4.97453,3.28234 2.96046,-2.83478 4.32955,-7.37007 9.9302,-5.42244 2.23883,1.44731 2.46217,5.09912 5.4173,3.47619 0.40753,2.82528 4.06389,1.04276 3.70646,-0.0304 3.58778,-1.54 4.18154,5.88952 7.49883,2.43236 -1.02888,-2.50167 -6.3063,-0.9953 -1.26279,-2.83445 2.89177,3.90701 7.88772,1.78232 12.45379,3.67307 2.55584,3.66979 6.70567,-1.1308 10.43746,-0.63586 3.53495,-0.51196 5.95055,-2.5201 6.0725,-6.06346 -3.16036,2.17121 -9.74265,-3.14318 -4.85213,-3.77367 1.6012,-2.89316 5.34821,-2.38235 6.17947,-4.27945 4.0413,-1.79325 5.14119,-7.56086 6.45391,-11.61813 z"
           style="fill:url(#polka);fill-opacity:1;fill-rule:nonzero;stroke:none" />
        <path
           id="path7567"
           d="m 436.26858,408.91535 c -2.31915,-4.65007 -8.74717,-9.18997 -13.185,-4.75625 -6.54879,-2.67711 6.16399,-4.06751 2.11235,-9.60644 0.0992,-1.74656 -3.87933,-4.32372 0.0489,-3.36356 -1.14257,-4.00186 -2.25405,-6.81277 -1.01969,-9.74937 0.0159,-5.61264 -6.4801,-8.06143 -6.77492,-12.76958 -1.75212,-5.63595 1.03389,-11.38997 -1.1149,-17.01699 -1.58871,-4.091 -5.4675,-8.17341 -9.99934,-6.81935 1.15475,-3.85189 9.91905,-0.26812 5.67447,-5.30971 0.42815,-1.53967 4.6116,-0.32869 5.36733,-3.67754 3.93453,-2.9492 5.68611,-8.02643 8.38402,-11.79713 -1.01342,-5.05439 -8.30033,-3.54828 -11.19322,-6.89455 -3.04891,-1.10068 -6.40546,1.47202 -8.7775,0.32047 2.35615,-1.95646 6.98914,-3.67467 2.21946,-4.74467 3.60419,-2.57059 9.63914,-2.61754 12.11216,-7.1575 0.88174,-4.82309 -5.89486,-1.53488 -8.06287,-4.31158 -2.90247,1.80457 -8.12414,-6.42462 -8.64625,0 -1.66663,0.31533 -0.97683,3.72868 -3.67375,2.1625 -0.77247,3.46356 -0.92367,5.3788 -4.66819,4.10625 -0.72139,2.3137 -5.30661,6.80865 -2.3754,8.75687 -0.59202,3.78903 -6.28803,-1.29957 -2.2917,-3.54048 0.4052,-2.27685 -2.12355,-5.72234 -2.33721,-1.32514 -0.94949,-2.43892 -3.1534,-0.73919 -3.675,1.08125 3.28057,1.03328 0.52416,5.72665 4.32375,6.0525 -1.55764,2.60061 2.73526,1.4906 0.0951,3.6185 0.2816,3.89024 -5.08313,1.66888 -2.25633,4.5965 -2.52213,-1.59819 -4.76945,0.81142 -2.38063,1.83453 -0.90932,1.81732 -5.04868,3.06297 -0.42937,3.13672 1.88545,-0.26692 5.76712,2.21004 4.10625,-2.3775 2.02164,0.65493 6.79898,-3.71004 3.13625,0.043 -3.34593,3.04703 -4.20961,6.701 -6.10219,9.94556 0.22533,3.36891 -5.33716,7.23787 -3.30047,9.4211 2.70027,-0.26279 2.79895,-6.65618 5.72573,-6.65501 0.85384,-1.33609 3.07741,-2.39767 2.23146,0.80907 3.1321,-2.34976 -0.0829,3.14183 1.79906,4.95203 -1.81754,2.75144 -4.19532,4.41532 -6.29984,7.20922 -2.6229,0.5214 0.35708,4.19511 -0.4325,6.70125 0.47338,-4.20927 2.54879,-3.67213 3.89125,-0.4325 1.27999,3.80504 2.31486,-4.98863 3.45875,0.21625 2.7739,1.36746 7.57663,-2.24428 8.5575,0.24141 -3.19596,2.89556 -6.27555,6.02853 -4.55938,10.68002 1.56481,2.48165 1.07695,3.32126 3.99938,1.83232 0.75165,3.4342 -2.57728,2.75137 -2.3775,6.0525 -2.54286,2.97027 -1.77306,7.15425 -6.64313,5.71564 -2.23792,-0.86041 -3.3279,-1.44529 -6.11062,-0.74314 2.02398,-2.29471 -6.04863,-5.56419 -4.57132,-0.44811 5.5906,4.10472 -8.73652,4.39561 -1.91243,6.71686 5.30413,-2.66777 4.34412,1.68647 2.67094,4.85219 0.55405,5.48666 -6.19504,4.40027 -9.57172,5.5425 -2.089,-0.62873 -5.41662,0.003 -3.64679,2.71551 -3.20628,1.77887 1.68862,1.83969 -0.69243,3.31855 3.01511,1.68412 7.74844,-1.53111 8.43,2.595 -4.42722,0.18976 2.21634,3.97689 3.24125,1.29625 0.75766,3.97972 4.67749,6.81452 7.86727,3.4993 1.8475,0.92917 6.71105,-1.03651 2.12773,1.58414 -3.22977,0.44099 -4.70307,5.21894 -7.61922,2.04797 -3.32978,-3.60347 -7.77855,-0.39498 -11.88578,0.002 0.11663,4.4786 -4.97294,5.626 -7.36939,6.04031 -0.85526,3.17335 -11.97944,1.95237 -6.84895,5.59873 2.69491,-2.69575 2.26234,5.0813 4.89881,1.01752 2.40145,-2.04627 7.57508,-4.26543 9.93064,-0.079 1.5348,0.39909 2.78038,1.47391 4.36014,2.33869 3.17824,-2.27286 3.2786,-6.91898 8.64625,-5.66391 3.53876,-0.005 3.25099,5.77666 6.70125,3.71766 0.52434,3.03499 4.00507,0.93692 3.70646,-0.0304 3.58778,-1.54 4.18154,5.88952 7.49883,2.43236 -0.84467,-2.61404 -6.57249,-0.83311 -1.26279,-2.83445 2.89177,3.90701 7.88772,1.78232 12.45379,3.67307 2.55584,3.66979 6.70567,-1.1308 10.43746,-0.63586 3.58511,-0.54365 5.85999,-2.4576 6.0725,-6.06346 -3.18944,2.19375 -9.82529,-3.10636 -4.85213,-3.77367 1.60248,-2.89254 5.34666,-2.3831 6.17947,-4.27945 3.9617,-1.68101 5.20312,-7.66197 6.45391,-11.61813 z"
           style="fill:none;stroke:#231f20;stroke-width:1.875;stroke-linecap:round;stroke-linejoin:round;stroke-miterlimit:4;stroke-dasharray:none;stroke-opacity:1" />
        <path
           d="m 356.29345,396.37748 c 0.0612,0.0613 0.6075,0.155 0.64875,0.21625 0.365,-0.58125 1.0125,-1.28375 1.29625,-1.94625 0.24375,-0.58 0.135,-1.04 0.4325,-1.5125 0.43875,-0.71625 1.48625,-1.46625 1.945,-2.16125 0.27,-0.42 0.15625,-0.8925 0.4325,-1.2975 0.5875,-0.87125 1.6825,-1.37875 2.3775,-2.16125 0.71625,-0.8175 1.06125,-1.71625 1.73,-2.595 0.0537,-0.0813 0.6275,-0.3375 0.64875,-0.4325 0.11375,-0.6075 -0.40625,-0.8375 -0.4325,-1.08 -0.095,-0.69625 0.10125,-2.07375 0.21625,-3.0275 0.02,-0.20875 0.27,-1.485 0.43125,-1.72875 l 0.4325,-0.21625 c 0.62125,-2.1075 0.28375,-3.77625 0.64875,-6.26875 0.04,-0.32375 0.7225,-1.5 0.64875,-1.945 -0.0412,-0.21 -0.555,-0.63625 -0.64875,-0.865 0.39125,-0.0812 0.115,-0.0875 0.21625,-0.4325 0.5875,0 1.6075,0.1825 2.16125,0 0.2975,-0.10875 0.345,-0.76375 0.64875,-0.865 0.43875,-0.15875 0.46375,0.25125 1.08125,0.21625 0.78375,-0.12125 1.505,-1.39875 1.945,-1.945 1.39125,0.41125 0.965,0.21625 2.16125,0 0.095,-1.01375 0.135,-2.0475 0,-2.595 0.51375,0.0612 0.4725,-0.3775 1.08125,-0.21625 0.06,0.0138 0.3775,0.575 0.43125,0.64875 0,0 0.575,0.0337 0.21625,-0.21625 0,0 0.85125,-0.0263 0.21625,-0.21625 0.0537,-0.0337 0.42625,-0.20875 0.4325,-0.21625 0.2775,-0.56625 0.0675,-1.1075 0.21625,-1.72875 0.50625,-2.18875 0.52,-2.14125 -1.5125,-3.02625 0.3775,-0.5475 0.4725,-0.8925 0.86375,-1.51375 0.385,0.37125 -0.0875,-1.02 -0.64875,-1.29625 l -0.215,0 c -0.56125,-1.615 0.41875,-4.1275 0.215,-5.405 -0.1275,-0.77 -0.81625,-0.87125 -1.29625,-1.2975 -0.52875,-0.4675 -0.685,-0.645 -0.87625,-0.77 -0.20875,-0.13625 -0.46,-0.20875 -1.285,-0.52625 l -0.21625,-0.4325 c -0.76375,-0.0875 -0.7975,0.365 -1.08125,0.4325 -1.315,0.28375 -2.55875,-0.38375 -3.2425,-0.4325 -0.5875,-0.0475 -0.985,0.39875 -1.29625,0.4325 -0.6425,0.0663 -0.355,-0.1475 0.085,-0.38 0.40625,-0.215 0.94375,-0.44625 0.99625,-0.485 0.175,-0.14125 0.08,-0.7625 0.215,-0.865 -0.635,-1.0875 -1.405,-2.0525 -2.16125,-3.02625 -0.2975,0.22375 -0.5875,0.69625 -0.86375,0.865 -0.5,0.29 -1.095,0.0875 -1.51375,0.4325 l -0.64875,1.2975 c -0.25625,-0.21625 -0.56,-0.53375 -0.86375,-0.64875 0.0875,-0.3375 0.405,-0.5475 0.4325,-0.64875 0.1275,-0.54 -0.305,-0.2775 -0.21625,-0.64875 -0.5475,-0.135 -0.78375,-0.23 -1.2975,-0.4325 -0.1625,0.1425 -0.345,0.69625 -0.64875,0.64875 -0.0738,-0.0138 -0.39125,-0.78375 -0.4325,-0.865 -1.0125,0.10875 -2.64,-0.27 -3.4575,0 -0.1825,0.055 -0.29125,0.73 -0.4325,0.865 -0.32375,0.28375 -0.9525,0.1625 -1.2975,0.4325 -0.81,0.62125 -0.53375,1.79 -0.43125,2.81 -2.48,-0.66875 -0.94625,0.14875 -1.94625,0.4325 -0.66875,0.1825 -0.79625,-0.25625 -1.29625,-0.21625 -0.35125,0.02 -1.01375,0.54 -1.2975,0.64875 0.48,0.925 0.865,1.66875 1.2975,2.59375 0.41875,0 1.36375,-0.175 1.72875,0 0.0475,0.02 0,0.96625 0,1.08125 0.325,0.0738 0.75,0 1.08125,0 l 0.21625,0.4325 c -0.2975,0.1825 -0.73,0.7625 -1.08125,0.865 -1.20875,0.3375 -1.8575,0 -2.81,0.43125 -1.405,0.62875 -0.87125,2.08125 -1.29625,2.1625 -0.33125,0.06 -0.2975,-0.3925 -0.4325,-0.4325 -0.39875,-0.1425 -0.8925,0.0875 -1.2975,0 -0.0763,-0.0188 -0.16125,-0.0612 -0.25,-0.11875 -0.345,-0.2225 -0.7625,-0.66625 -1.04625,-0.74625 -0.74375,-0.20875 -1.4125,0.0875 -1.94625,-0.21625 l -0.21625,-0.865 c -0.16125,-0.2225 -3.195,-2.3025 -3.4575,-2.3775 -1.59375,-0.48625 -2.39875,0.0538 -3.89125,-0.4325 -0.39875,0.35875 -1.425,1.1625 -1.5125,1.73 -0.0875,0.48625 0.31,0.32375 0.21625,0.64875 0.5875,-0.12875 0.68125,-0.23 1.29625,-0.2175 0,0.0613 -0.0337,0.85125 0,0.865 -0.33,1.48625 -1.02625,2.48625 -1.5125,4.1075 0.23,0.0475 0.3375,0.39875 0.4325,0.4325 0.3975,0.135 0.885,-0.12125 1.29625,0 0.10125,0.0275 0.5,0.55375 0.64875,0.64875 0.43875,-0.325 -0.21625,0.865 -0.21625,0.865 -0.97875,-0.14875 -1.46625,-0.12875 -2.59375,-0.21625 -0.91875,2.86375 -0.3575,1.34375 -2.16125,1.5125 l -0.4325,0.4325 c -0.345,0.0875 -0.73,0 -1.08125,0 0.0675,0.28375 0.3175,0.91875 0.21625,1.08125 -0.0263,0.04 -0.60125,0 -0.64875,0 -0.0462,0.0812 -0.16875,0.405 -0.215,0.4325 l -0.21625,0 c 0.3575,0.4525 0.98625,1.97875 1.5125,2.16125 0.23625,0.0812 0.635,-0.1075 0.865,0 -0.47375,1.79 -0.73,1.51375 1.72875,1.51375 0.12875,0.39125 0.24375,1.405 0.4325,1.72875 0.12125,0.21625 0.77625,0.18875 0.865,0.4325 l 0,0.4325 c 0.85125,0.48625 1.79625,0.0475 2.80875,0.4325 0.44,0.16125 0.75,0.78375 1.08125,1.08 l -0.21625,0.64875 c -0.79625,0 -1.81,-0.155 -2.59375,0 -0.25,0.0413 -0.905,0.60125 -1.08,0.64875 -0.1625,0.0337 -0.5075,-0.10125 -0.64875,0 -0.96625,0.615 -1.0675,2.52 -2.16125,3.02625 -0.58125,0.26375 -1.22375,-0.04 -1.94625,0.21625 -0.14125,0.0475 -0.30375,0.56125 -0.43125,0.64875 -0.47375,0.29 -1.10125,0.0138 -1.73,0.21625 -0.27,0.0813 -0.60125,0.52 -0.86375,0.64875 l 0.21625,0.86375 c 0.43125,0.095 0.84375,0 1.29625,0 -0.10125,0.0888 -0.12875,0.5675 -0.21625,0.64875 -0.48625,0.41875 -1.05375,0.635 -1.5125,1.08125 -0.0475,-0.0613 -0.39875,-0.64125 -0.4325,-0.64875 -0.5275,-0.135 -0.3175,0.3575 -0.64875,0.21625 -0.21,0.91875 -0.37125,1.71625 -0.64875,2.59375 -0.04,-0.06 -0.5875,-0.155 -0.6475,-0.21625 -0.40625,-0.39125 0.0263,-1.07375 -1.08125,-0.865 -0.0612,0.007 -0.2775,0.26375 -0.64875,0.21625 l 0,-0.43125 c -1.7625,0 -3.6475,0.0937 -4.10625,1.29625 -0.095,0.23 0.135,0.4325 0,0.64875 1.02625,0.26375 2.195,1.07375 3.02625,1.2975 1.31625,0.34375 2.35,0.25 3.67375,0.4325 -0.0875,0.0262 -0.695,0.60125 -0.86375,0.6475 -1.94625,0.49375 -4.70875,-0.195 -6.0525,0.865 -1.07375,0.83125 -0.55375,2.33125 -0.4325,1.73 0.3375,0.0538 1.29,0.3575 1.72875,0.4325 0.21,0.6275 -0.0737,1.02 0.4325,1.29625 0.9725,0.5275 2.18875,0.0475 3.02625,-0.21625 -0.0875,0.3175 0.2225,0.405 -0.21625,0.4325 l -0.21625,0.4325 c -0.4725,0.1625 -1.04,-0.155 -1.5125,0 -0.33125,0.10125 -0.8175,0.75625 -1.08125,0.865 -0.5675,0.20875 -0.9725,0.0738 -1.5125,0.21625 0,0 -0.44,1.0875 0.6475,1.29625 0.8925,0.16875 6.10625,-0.9525 3.45875,0.865 -0.21625,0.1425 -0.64875,-0.135 -0.86375,0 -0.0688,0.0337 0,0.77 0,0.865 -0.24375,0.06 -0.92625,0.0475 -1.2975,0.21625 -0.14875,0.06 -0.345,0.81 -0.4325,0.86375 0.23,0.0475 0.3375,0.39875 0.4325,0.4325 1.27,0.4325 2.66125,-0.47875 3.675,-0.21625 0.12125,0.0275 1.425,1.4525 1.72875,1.51375 0.84375,0.1625 1.405,-0.41875 1.5125,-0.4325 0.52,-0.0813 2.6075,0.0275 3.02625,0.21625 0.007,0 0,0.615 0,0.64875 0.31125,0.1075 0.80375,0.2425 1.08125,0.4325 0.1625,-0.10125 0.3375,-0.68875 0.4325,-0.865 0.64125,0.25625 0.97875,0.24375 1.5125,0.4325 l 0,0.21625 c 0.39875,0.04 0.0813,-0.37875 0.64875,-0.21625 0.14125,-0.25625 0.19625,-0.77 0.4325,-0.865 0.0813,-0.0337 0.66125,0.30375 1.08,0.21625 0.48625,-0.10875 1.75,-1.59375 0.64875,-1.945 0.095,-0.19625 0.2775,-0.17625 0.21625,-0.4325 0.385,0.0813 0.89125,0 1.29625,0 -0.195,0.0675 0.0412,0.55375 -0.6475,0.4325 0.04,0.1825 0.21625,0.86375 0.21625,0.86375 0.5675,-0.0812 2.15375,-0.56 2.59375,-0.4325 0.59375,0.1625 0.22875,1.0275 1.29625,1.08125 0.325,0.0138 2.53375,-0.70875 3.02625,-0.865 -0.14125,-0.12125 -0.10125,-0.54625 -0.21625,-0.6475 -0.16875,-0.14875 -0.4925,-0.0813 -0.64875,-0.21625 0.0412,-0.0888 0.325,-0.325 0.21625,-0.4325 2.0675,0.6275 2.20875,-0.3925 4.32375,0 0.59375,0.1075 1.56625,1.07375 2.81,0.64875 0.0875,-0.0337 0.195,-0.385 0.4325,-0.4325 0.10125,0.29 0.2825,0.8175 0.43125,1.08 0.345,-0.08 0.5475,-0.41125 0.64875,-0.4325 0,0 2.7025,0.99375 2.81,1.08125 0.10875,0.095 0.0875,0.73625 0.21625,0.865"
           id="path7615"
           style="fill:url(#polka);fill-opacity:1;fill-rule:nonzero;stroke:none" />
        <path
           d="m 384.60895,371.73385 c 0.1825,-0.0275 0.10875,-0.58125 0.21625,-0.64875 0.41875,-0.29 1.0125,0 1.5125,-0.21625 0.1625,-0.0738 0.28375,-0.54 0.4325,-0.64875 0.98625,-0.74875 2.39125,-1.715 1.51375,-3.67375 -0.0675,-0.14875 -0.8175,-0.345 -0.865,-0.4325 -0.46,0.37125 -1.03375,1.27 -1.5125,1.5125 -1.33125,0.64875 -1.69,-0.2425 -2.37875,1.2975 -0.35125,0.77 -0.195,1.2225 -0.43125,2.16125 0.46625,0.115 0.56625,0.0475 0.86375,0.21625 0.25,0.1425 -0.0675,0.51375 0.64875,0.4325"
           id="path7623"
           style="fill:#ffffff;fill-opacity:1;fill-rule:nonzero;stroke:none" />
        <path
           d="m 384.60895,371.73385 c 0.1825,-0.0275 0.10875,-0.58125 0.21625,-0.64875 0.41875,-0.29 1.0125,0 1.5125,-0.21625 0.1625,-0.0738 0.28375,-0.54 0.4325,-0.64875 0.98625,-0.74875 2.39125,-1.715 1.51375,-3.67375 -0.0675,-0.14875 -0.8175,-0.345 -0.865,-0.4325 -0.46,0.37125 -1.03375,1.27 -1.5125,1.5125 -1.33125,0.64875 -1.69,-0.2425 -2.37875,1.2975 -0.35125,0.77 -0.195,1.2225 -0.43125,2.16125 0.46625,0.115 0.56625,0.0475 0.86375,0.21625 0.25,0.1425 -0.0675,0.51375 0.64875,0.4325 z"
           id="path7627"
           style="fill:none;stroke:#231f20;stroke-width:1.875;stroke-linecap:round;stroke-linejoin:round;stroke-miterlimit:4;stroke-dasharray:none;stroke-opacity:1" />
        <path
           id="path7631"
           d="m 425.67733,295.85748 c 0.34119,0.53737 0.97935,-0.0364 1.21926,-0.40065 0.35496,-0.49651 1.01763,-0.25808 1.52273,-0.24965 0.0425,-0.19516 0.23368,-1.01119 -0.36449,-0.86345 -0.97194,0.0164 -1.76035,0.66487 -2.59375,1.08125 -0.006,0.11209 -0.0161,0.76701 0.21625,0.4325 z"
           style="fill:#ffffff;fill-opacity:1;fill-rule:nonzero;stroke:none" />
        <path
           id="path7635"
           d="m 425.67733,295.85748 c 0.34119,0.53737 0.97935,-0.0364 1.21926,-0.40065 0.35496,-0.49651 1.01763,-0.25808 1.52273,-0.24965 0.0425,-0.19516 0.23368,-1.01119 -0.36449,-0.86345 -0.97194,0.0164 -1.76035,0.66487 -2.59375,1.08125 -0.006,0.11209 -0.0161,0.76701 0.21625,0.4325 z"
           style="fill:none;stroke:#231f20;stroke-width:1.875;stroke-linecap:round;stroke-linejoin:round;stroke-miterlimit:4;stroke-dasharray:none;stroke-opacity:1" />
        <path
           id="path7639"
           d="m 420.70595,300.61322 c -0.0428,-0.58292 -0.25403,-1.18823 -0.0917,-1.76534 0.28341,-0.40655 0.8664,-0.34463 1.29599,-0.48596 0.36738,-0.15678 0.62985,-0.13606 0.74338,0.27934 0.29967,0.50568 0.64913,0.9877 0.86229,1.53946 0.57612,0.12819 0.91228,-0.20026 1.24854,-0.61657 0.26906,0.0158 0.79772,-0.0966 0.33111,-0.3789 -0.37467,-0.17142 -0.61326,-0.36923 -0.40896,-0.79422 -0.005,-0.34189 0.39896,-1.27328 -0.2294,-0.91357 -0.5582,0.17694 -1.25368,0.37334 -1.75003,-0.0601 -0.20603,-0.47461 -0.22852,-1.05898 -0.36408,-1.57531 -0.004,-0.4998 -0.19011,-0.75003 -0.69756,-0.59409 -0.59036,-0.0916 -0.91395,0.68162 -1.27802,1.06594 -0.34163,0.43652 -0.4177,1.16962 0.12215,1.48936 -0.47404,0.22835 -1.07635,0.34708 -1.38144,0.81227 -0.15655,0.49097 0.12264,0.98871 0.19388,1.47435 0.0365,0.34221 0.094,0.65824 0.50971,0.50148 0.29689,-0.0228 0.60208,-0.0553 0.8941,0.0219 z"
           style="fill:#ffffff;fill-opacity:1;fill-rule:nonzero;stroke:none" />
        <path
           id="path7643"
           d="m 420.70595,300.61322 c -0.0428,-0.58292 -0.25403,-1.18823 -0.0917,-1.76534 0.28341,-0.40655 0.8664,-0.34463 1.29599,-0.48596 0.36738,-0.15678 0.62985,-0.13606 0.74338,0.27934 0.29967,0.50568 0.64913,0.9877 0.86229,1.53946 0.57612,0.12819 0.91228,-0.20026 1.24854,-0.61657 0.26906,0.0158 0.79772,-0.0966 0.33111,-0.3789 -0.37467,-0.17142 -0.61326,-0.36923 -0.40896,-0.79422 -0.005,-0.34189 0.39896,-1.27328 -0.2294,-0.91357 -0.5582,0.17694 -1.25368,0.37334 -1.75003,-0.0601 -0.20603,-0.47461 -0.22852,-1.05898 -0.36408,-1.57531 -0.004,-0.4998 -0.19011,-0.75003 -0.69756,-0.59409 -0.59036,-0.0916 -0.91395,0.68162 -1.27802,1.06594 -0.34163,0.43652 -0.4177,1.16962 0.12215,1.48936 -0.47404,0.22835 -1.07635,0.34708 -1.38144,0.81227 -0.15655,0.49097 0.12264,0.98871 0.19388,1.47435 0.0365,0.34221 0.094,0.65824 0.50971,0.50148 0.29689,-0.0228 0.60208,-0.0553 0.8941,0.0219 z"
           style="fill:none;stroke:#231f20;stroke-width:1.875;stroke-linecap:round;stroke-linejoin:round;stroke-miterlimit:4;stroke-dasharray:none;stroke-opacity:1" />
        <path
           id="path7647"
           d="m 426.32583,297.8031 c 0.50928,-0.1258 0.90998,-0.74699 0.21346,-0.96798 -0.31688,-0.29154 -0.18874,0.16338 -0.21346,0.3586 0,0.20313 0,0.40625 0,0.60938 z"
           style="fill:#ffffff;fill-opacity:1;fill-rule:nonzero;stroke:none" />
        <path
           id="path7651"
           d="m 426.32583,297.8031 c 0.50928,-0.1258 0.90998,-0.74699 0.21346,-0.96798 -0.31688,-0.29154 -0.18874,0.16338 -0.21346,0.3586 0,0.20313 0,0.40625 0,0.60938 z"
           style="fill:none;stroke:#231f20;stroke-width:1.875;stroke-linecap:round;stroke-linejoin:round;stroke-miterlimit:4;stroke-dasharray:none;stroke-opacity:1" />
        <path
           d="m 383.96045,305.80135 c 0.44625,0.10125 0.98625,0.64125 1.945,0.4325 0.345,-0.0813 0.595,-0.75625 0.865,-0.865 0.95875,-0.39875 1.89875,0 3.02625,-0.21625 0.29,-0.06 0.8375,-0.53375 1.08125,-0.64875 l 0.215,0 c 0.46625,-0.68875 0.0475,-1.7625 0.4325,-2.59375 0.19,-0.425 0.89875,-0.5875 1.2975,-0.865 1.68875,-1.20875 1.87125,-1.465 1.72875,-3.89125 l -0.64875,-0.215 c -1.11375,0.29625 -2.235,0.9925 -3.24125,1.29625 -0.615,0.1825 -1,-0.0675 -1.51375,0.21625 -0.175,0.0875 -0.26375,0.55375 -0.4325,0.64875 -0.3375,-0.26375 -0.57375,-0.595 -0.86375,-0.865 -0.42625,0.25 -0.69,-0.0337 -1.08125,0.21625 l 0,0.4325 c 0,0 -1.4725,1.2425 -1.5125,1.2975 0.1275,0.30375 0.49875,0.62125 0.43125,1.08 0,0 -0.63375,0.58125 -0.6475,0.64875 -0.22375,0.8175 0.1475,1.5875 0.21625,2.1625 -0.17625,0.11375 -1.23,0.695 -1.2975,0.86375 -0.10125,0.22375 0.12125,0.64875 0,0.865"
           id="path7655"
           style="fill:#ffffff;fill-opacity:1;fill-rule:nonzero;stroke:none" />
        <path
           d="m 383.96045,305.80135 c 0.44625,0.10125 0.98625,0.64125 1.945,0.4325 0.345,-0.0813 0.595,-0.75625 0.865,-0.865 0.95875,-0.39875 1.89875,0 3.02625,-0.21625 0.29,-0.06 0.8375,-0.53375 1.08125,-0.64875 l 0.215,0 c 0.46625,-0.68875 0.0475,-1.7625 0.4325,-2.59375 0.19,-0.425 0.89875,-0.5875 1.2975,-0.865 1.68875,-1.20875 1.87125,-1.465 1.72875,-3.89125 l -0.64875,-0.215 c -1.11375,0.29625 -2.235,0.9925 -3.24125,1.29625 -0.615,0.1825 -1,-0.0675 -1.51375,0.21625 -0.175,0.0875 -0.26375,0.55375 -0.4325,0.64875 -0.3375,-0.26375 -0.57375,-0.595 -0.86375,-0.865 -0.42625,0.25 -0.69,-0.0337 -1.08125,0.21625 l 0,0.4325 c 0,0 -1.4725,1.2425 -1.5125,1.2975 0.1275,0.30375 0.49875,0.62125 0.43125,1.08 0,0 -0.63375,0.58125 -0.6475,0.64875 -0.22375,0.8175 0.1475,1.5875 0.21625,2.1625 -0.17625,0.11375 -1.23,0.695 -1.2975,0.86375 -0.10125,0.22375 0.12125,0.64875 0,0.865 z"
           id="path7659"
           style="fill:none;stroke:#231f20;stroke-width:1.875;stroke-linecap:round;stroke-linejoin:round;stroke-miterlimit:4;stroke-dasharray:none;stroke-opacity:1" />
        <path
           d="m 372.72083,299.96485 c 0.44625,0.39875 0,-1.08125 0,-1.08125 -0.28375,0 -0.8175,0.115 -1.08125,0 0.0888,0.14875 0,0.6825 0,0.865 0,0 1.81,0.60125 1.08125,0.21625"
           id="path7663"
           style="fill:#ffffff;fill-opacity:1;fill-rule:nonzero;stroke:none" />
        <path
           d="m 372.72083,299.96485 c 0.44625,0.39875 0,-1.08125 0,-1.08125 -0.28375,0 -0.8175,0.115 -1.08125,0 0.0888,0.14875 0,0.6825 0,0.865 0,0 1.81,0.60125 1.08125,0.21625 z"
           id="path7667"
           style="fill:none;stroke:#231f20;stroke-width:1.875;stroke-linecap:round;stroke-linejoin:round;stroke-miterlimit:4;stroke-dasharray:none;stroke-opacity:1" />
        <path
           id="path7671"
           d="m 422.43508,301.91022 c 0.12103,-0.43213 0.46578,-0.8301 0.38794,-1.30043 -0.23797,-0.48093 -1.31994,-0.1834 -0.97178,0.40802 0.1367,0.33249 0.38916,0.59627 0.58384,0.89241 z"
           style="fill:#ffffff;fill-opacity:1;fill-rule:nonzero;stroke:none" />
        <path
           id="path7675"
           d="m 422.43508,301.91022 c 0.12103,-0.43213 0.46578,-0.8301 0.38794,-1.30043 -0.23797,-0.48093 -1.31994,-0.1834 -0.97178,0.40802 0.1367,0.33249 0.38916,0.59627 0.58384,0.89241 z"
           style="fill:none;stroke:#231f20;stroke-width:1.875;stroke-linecap:round;stroke-linejoin:round;stroke-miterlimit:4;stroke-dasharray:none;stroke-opacity:1" />
        <path
           d="m 379.85371,306.66598 c 0.7975,1.98625 0.44625,2.78375 2.59375,1.73 -0.0475,-0.0138 0.41875,-0.635 0.4325,-0.64875 -0.075,-0.1425 -0.51375,-1.0075 -0.64875,-1.08125 -0.5675,-0.31125 -1.2425,-0.115 -1.945,-0.21625 0.32375,0 -0.4325,0.21625 -0.4325,0.21625"
           id="path7679"
           style="fill:#ffffff;fill-opacity:1;fill-rule:nonzero;stroke:none" />
        <path
           d="m 379.85371,306.66598 c 0.7975,1.98625 0.44625,2.78375 2.59375,1.73 -0.0475,-0.0138 0.41875,-0.635 0.4325,-0.64875 -0.075,-0.1425 -0.51375,-1.0075 -0.64875,-1.08125 -0.5675,-0.31125 -1.2425,-0.115 -1.945,-0.21625 0.32375,0 -0.4325,0.21625 -0.4325,0.21625 z"
           id="path7683"
           style="fill:none;stroke:#231f20;stroke-width:1.875;stroke-linecap:round;stroke-linejoin:round;stroke-miterlimit:4;stroke-dasharray:none;stroke-opacity:1" />
        <path
           d="m 380.28596,309.47623 c 0,0 -0.2025,0.39125 -0.21625,0.4325 -0.30375,-0.25625 -0.02,0.75 0,0.865 0.0613,0 0.595,-0.0475 0.64875,0 -0.10125,-0.58125 0.31,-1.3375 -0.4325,-1.2975"
           id="path7687"
           style="fill:#ffffff;fill-opacity:1;fill-rule:nonzero;stroke:none" />
        <path
           d="m 380.28596,309.47623 c 0,0 -0.2025,0.39125 -0.21625,0.4325 -0.30375,-0.25625 -0.02,0.75 0,0.865 0.0613,0 0.595,-0.0475 0.64875,0 -0.10125,-0.58125 0.31,-1.3375 -0.4325,-1.2975 z"
           id="path7691"
           style="fill:none;stroke:#231f20;stroke-width:1.875;stroke-linecap:round;stroke-linejoin:round;stroke-miterlimit:4;stroke-dasharray:none;stroke-opacity:1" />
        <path
           d="m 378.12446,315.5291 c 0.2425,0.095 0.4125,-0.12875 0.64875,0 l 0.21625,-1.945 0.86375,-0.21625 c 0.3175,-1.115 -0.37125,-2.095 -0.6475,-2.81125 l -0.4325,0 c -0.635,1.5475 -1.23625,2.01375 -1.51375,4.1075 l 0.4325,0.21625 c 0.0875,0.02 0.3375,0.6075 0.4325,0.64875"
           id="path7695"
           style="fill:#ffffff;fill-opacity:1;fill-rule:nonzero;stroke:none" />
        <path
           d="m 378.12446,315.5291 c 0.2425,0.095 0.4125,-0.12875 0.64875,0 l 0.21625,-1.945 0.86375,-0.21625 c 0.3175,-1.115 -0.37125,-2.095 -0.6475,-2.81125 l -0.4325,0 c -0.635,1.5475 -1.23625,2.01375 -1.51375,4.1075 l 0.4325,0.21625 c 0.0875,0.02 0.3375,0.6075 0.4325,0.64875 z"
           id="path7699"
           style="fill:none;stroke:#231f20;stroke-width:1.875;stroke-linecap:round;stroke-linejoin:round;stroke-miterlimit:4;stroke-dasharray:none;stroke-opacity:1" />
        <path
           d="m 375.74683,317.90697 c 0.10125,-0.30375 -0.0138,-0.51375 0.21625,-0.64875 0.26375,-0.16875 0.73625,0.075 0.865,-0.21625 0.155,-0.365 -0.1625,-0.7225 0,-1.08 -0.15625,0 -0.74375,0.0875 -0.865,0 -1.21625,0.91125 -0.675,0.7025 -0.865,1.945 0.0675,0 0.595,-0.0475 0.64875,0"
           id="path7703"
           style="fill:#ffffff;fill-opacity:1;fill-rule:nonzero;stroke:none" />
        <path
           d="m 375.74683,317.90697 c 0.10125,-0.30375 -0.0138,-0.51375 0.21625,-0.64875 0.26375,-0.16875 0.73625,0.075 0.865,-0.21625 0.155,-0.365 -0.1625,-0.7225 0,-1.08 -0.15625,0 -0.74375,0.0875 -0.865,0 -1.21625,0.91125 -0.675,0.7025 -0.865,1.945 0.0675,0 0.595,-0.0475 0.64875,0 z"
           id="path7707"
           style="fill:none;stroke:#231f20;stroke-width:1.875;stroke-linecap:round;stroke-linejoin:round;stroke-miterlimit:4;stroke-dasharray:none;stroke-opacity:1" />
        <path
           d="m 385.6897,321.7981 c 0.2025,-0.52 1.0475,-0.66875 0.64875,-2.16125 -0.0413,-0.135 -0.62875,-0.58125 -0.64875,-0.64875 -0.27,0.0738 -0.73625,0.16875 -1.2975,0.21625 0.27125,1.05375 0.305,1.49875 0.64875,2.3775 0.44625,-0.12875 0.37125,0.115 0.64875,0.21625"
           id="path7711"
           style="fill:#ffffff;fill-opacity:1;fill-rule:nonzero;stroke:none" />
        <path
           d="m 385.6897,321.7981 c 0.2025,-0.52 1.0475,-0.66875 0.64875,-2.16125 -0.0413,-0.135 -0.62875,-0.58125 -0.64875,-0.64875 -0.27,0.0738 -0.73625,0.16875 -1.2975,0.21625 0.27125,1.05375 0.305,1.49875 0.64875,2.3775 0.44625,-0.12875 0.37125,0.115 0.64875,0.21625 z"
           id="path7715"
           style="fill:none;stroke:#231f20;stroke-width:1.875;stroke-linecap:round;stroke-linejoin:round;stroke-miterlimit:4;stroke-dasharray:none;stroke-opacity:1" />
        <path
           d="m 381.79908,324.60835 c -0.51375,0.0738 -2.22875,1.7025 -0.865,1.72875 0.7975,0.0137 3.14125,-2.09375 0.865,-1.72875"
           id="path7719"
           style="fill:#ffffff;fill-opacity:1;fill-rule:nonzero;stroke:none" />
        <path
           d="m 381.79908,324.60835 c -0.51375,0.0738 -2.22875,1.7025 -0.865,1.72875 0.7975,0.0137 3.14125,-2.09375 0.865,-1.72875 z"
           id="path7723"
           style="fill:none;stroke:#231f20;stroke-width:1.875;stroke-linecap:round;stroke-linejoin:round;stroke-miterlimit:4;stroke-dasharray:none;stroke-opacity:1" />
        <path
           d="m 378.34058,326.98622 c 1.14125,-0.12125 0.30375,-1.4525 -0.64875,-1.2975 -0.60125,0.095 -0.945,1.4525 0.64875,1.2975"
           id="path7727"
           style="fill:#ffffff;fill-opacity:1;fill-rule:nonzero;stroke:none" />
        <path
           d="m 378.34058,326.98622 c 1.14125,-0.12125 0.30375,-1.4525 -0.64875,-1.2975 -0.60125,0.095 -0.945,1.4525 0.64875,1.2975 z"
           id="path7731"
           style="fill:none;stroke:#231f20;stroke-width:1.875;stroke-linecap:round;stroke-linejoin:round;stroke-miterlimit:4;stroke-dasharray:none;stroke-opacity:1" />
        <path
           d="m 381.3667,334.55223 c 0.135,0.12875 0,1.07375 0,1.2975 0.135,-0.055 0.64875,-0.21625 0.64875,-0.21625 0,-0.10125 -0.0675,-0.8175 0,-0.865 l -0.64875,-0.21625 z"
           id="path7735"
           style="fill:#ffffff;fill-opacity:1;fill-rule:nonzero;stroke:none" />
        <path
           d="m 381.3667,334.55223 c 0.135,0.12875 0,1.07375 0,1.2975 0.135,-0.055 0.64875,-0.21625 0.64875,-0.21625 0,-0.10125 -0.0675,-0.8175 0,-0.865 l -0.64875,-0.21625 z"
           id="path7739"
           style="fill:none;stroke:#231f20;stroke-width:1.875;stroke-linecap:round;stroke-linejoin:round;stroke-miterlimit:4;stroke-dasharray:none;stroke-opacity:1" />
        <path
           d="m 385.0412,335.6331 -0.21625,0 c -1.32375,0.77 -1.7425,1.675 -2.81,2.59375 l -0.4325,0 -0.21625,-1.08 c -1.18125,0.385 -2.15375,0.41125 -3.02625,1.08 -0.2025,0.14875 -1.04625,1.0675 -1.08,1.2975 -0.0875,0.48625 0.31,0.32375 0.21625,0.64875 0.385,0 0.91875,-0.10125 1.29625,0 0.5075,2.22875 -0.08,0.97875 1.51375,1.72875 0.64875,-0.8375 0.73625,-1.0875 1.08,-2.3775 0.51375,-0.0675 0.47375,0.37125 1.08125,0.21625 0.35125,-0.10125 2.55375,-2.58125 3.02625,-3.02625 -0.0813,-0.19625 0,-0.6625 0,-0.865 -0.075,-0.0412 -0.42625,-0.17625 -0.4325,-0.21625"
           id="path7743"
           style="fill:#ffffff;fill-opacity:1;fill-rule:nonzero;stroke:none" />
        <path
           d="m 385.0412,335.6331 -0.21625,0 c -1.32375,0.77 -1.7425,1.675 -2.81,2.59375 l -0.4325,0 -0.21625,-1.08 c -1.18125,0.385 -2.15375,0.41125 -3.02625,1.08 -0.2025,0.14875 -1.04625,1.0675 -1.08,1.2975 -0.0875,0.48625 0.31,0.32375 0.21625,0.64875 0.385,0 0.91875,-0.10125 1.29625,0 0.5075,2.22875 -0.08,0.97875 1.51375,1.72875 0.64875,-0.8375 0.73625,-1.0875 1.08,-2.3775 0.51375,-0.0675 0.47375,0.37125 1.08125,0.21625 0.35125,-0.10125 2.55375,-2.58125 3.02625,-3.02625 -0.0813,-0.19625 0,-0.6625 0,-0.865 -0.075,-0.0412 -0.42625,-0.17625 -0.4325,-0.21625 z"
           id="path7747"
           style="fill:none;stroke:#231f20;stroke-width:1.875;stroke-linecap:round;stroke-linejoin:round;stroke-miterlimit:4;stroke-dasharray:none;stroke-opacity:1" />
        <path
           d="m 387.41883,343.63148 c -0.105,0.33 -0.4325,0.64875 -0.4325,0.64875 l -0.21625,-1.08125 -0.21625,-0.21625 c -0.675,1.29 -0.86375,2.405 -0.86375,4.54 0.55375,0.2975 1.0875,0.5675 1.72875,0.865 -0.1825,0.39875 0.615,-0.42625 0.64875,-0.64875 0.16875,-1.16875 -0.115,-2.4325 0,-3.89125 -0.30375,-0.1675 -0.4725,-0.055 -0.64875,-0.21625"
           id="path7751"
           style="fill:#ffffff;fill-opacity:1;fill-rule:nonzero;stroke:none" />
        <path
           d="m 387.41883,343.63148 c -0.105,0.33 -0.4325,0.64875 -0.4325,0.64875 l -0.21625,-1.08125 -0.21625,-0.21625 c -0.675,1.29 -0.86375,2.405 -0.86375,4.54 0.55375,0.2975 1.0875,0.5675 1.72875,0.865 -0.1825,0.39875 0.615,-0.42625 0.64875,-0.64875 0.16875,-1.16875 -0.115,-2.4325 0,-3.89125 -0.30375,-0.1675 -0.4725,-0.055 -0.64875,-0.21625 z"
           id="path7755"
           style="fill:none;stroke:#231f20;stroke-width:1.875;stroke-linecap:round;stroke-linejoin:round;stroke-miterlimit:4;stroke-dasharray:none;stroke-opacity:1" />
        <path
           d="m 370.47808,366.8736 c -0.3025,-0.32875 -0.61875,-0.335 -0.97,-0.61 -0.4225,-0.3325 -0.4375,-1.04375 -0.97,-0.9775 -0.4075,0.05 -0.3575,0.62875 -0.755,0.7325 -0.48375,0.12625 -0.71125,-0.33 -1.185,-0.48875 -0.3325,-0.11125 -0.635,0.0213 -0.8625,-0.24375 -0.38,-0.44125 0.50625,-0.77875 0.64625,-1.34375 0.0813,-0.32625 0.34875,-0.62 0.1075,-0.855 -0.21,-0.205 -0.47875,0.10375 -0.75375,0 -0.545,-0.20375 -0.5025,-0.78 -0.6475,-1.34375 -0.1175,-0.4625 -0.0863,-0.74375 -0.1075,-1.22125 -0.0212,-0.47625 0.0688,-0.75 0,-1.22125 -0.0787,-0.545 0.1075,-1.2325 -0.43125,-1.34375 -0.46375,-0.095 -0.57375,0.4725 -0.97,0.73375 -0.40375,0.265 -0.84,0.19 -1.0775,0.61 -0.285,0.5025 0.61375,1.0475 0.215,1.46625 -0.26875,0.28125 -0.61,0.0925 -0.97,0.24375 -0.46875,0.1975 -0.685,1.055 -1.0775,0.7325 -0.23,-0.18875 0.015,-0.54375 -0.21625,-0.7325 -0.295,-0.24125 -0.5925,0.1775 -0.97,0.1225 -0.36125,-0.0525 -0.5825,-0.1325 -0.8625,-0.36625 -0.50125,-0.42 -0.10125,-1.1025 -0.53875,-1.58875 -0.21125,-0.235 -0.46875,-0.22625 -0.64625,-0.4875 -0.26875,-0.39625 0.045,-0.76875 -0.10875,-1.2225 -0.185,-0.5525 -0.51375,-0.7525 -0.86125,-1.22125 -0.2875,-0.38625 -0.68375,-0.50125 -0.755,-0.97625 -0.0437,-0.28625 0.1225,-0.445 0.1075,-0.73375 -0.0275,-0.52 -0.65125,-0.7125 -0.53875,-1.22125 0.16375,-0.735 1.1175,-0.3725 1.8325,-0.61 0.33625,0.19 0.4825,0.41375 0.8625,0.48875 0.37375,0.0725 0.6,-0.0325 0.97,-0.1225 0.3925,-0.0962 0.7425,-0.0325 0.97,-0.36625 0.3775,-0.55625 -0.8775,-0.7025 -1.0775,-1.34375 -0.0863,-0.27625 -0.235,-0.47375 -0.1075,-0.7325 0.17125,-0.35125 0.605,-0.385 0.97,-0.245 0.40625,0.1575 0.18375,0.725 0.53875,0.9775 0.58,0.4125 1.12375,-0.31125 1.79875,-0.31125 0.3125,0 0.57125,-0.38625 0.90125,-0.67625 0.28125,-0.24625 0.3625,-0.475 0.67625,-0.67625 0.31625,-0.20375 0.56875,-0.16625 0.90125,-0.33875 0.74625,-0.38625 0.81875,-1.10625 1.5775,-1.465 0.49125,-0.2325 0.78125,-0.1875 1.30875,-0.32 0.4075,-0.215 0.94375,-0.44625 0.99625,-0.485 0.175,-0.14125 0.0813,-0.7625 0.21625,-0.86375 -0.635,-1.08875 -1.405,-2.05375 -2.1625,-3.0275 -0.29625,0.22375 -0.5875,0.69625 -0.86375,0.865 -0.5,0.29125 -1.095,0.0875 -1.51375,0.4325 l -0.6475,1.2975 c -0.2575,-0.21625 -0.56125,-0.53375 -0.865,-0.64875 0.0875,-0.3375 0.405,-0.5475 0.4325,-0.64875 0.1275,-0.54 -0.30375,-0.27625 -0.21625,-0.64875 -0.5475,-0.135 -0.78375,-0.22875 -1.2975,-0.4325 -0.16125,0.1425 -0.34375,0.69625 -0.6475,0.64875 -0.075,-0.0138 -0.3925,-0.78375 -0.4325,-0.865 -1.01375,0.10875 -2.64125,-0.27 -3.45875,0 -0.1825,0.055 -0.29,0.73 -0.4325,0.865 -0.32375,0.28375 -0.9525,0.1625 -1.29625,0.4325 -0.81125,0.62125 -0.53375,1.79 -0.4325,2.81 -2.47875,-0.66875 -0.94625,0.14875 -1.94625,0.4325 -0.6675,0.1825 -0.79625,-0.25625 -1.29625,-0.21625 -0.35125,0.02 -1.0125,0.54125 -1.2975,0.64875 0.48,0.925 0.865,1.66875 1.2975,2.59375 0.41875,0 1.365,-0.175 1.72875,0 0.0475,0.02 0,0.96625 0,1.08125 0.325,0.0738 0.75,0 1.08125,0 l 0.21625,0.4325 c -0.2975,0.1825 -0.73,0.76375 -1.08125,0.865 -1.20875,0.3375 -1.8575,0 -2.81,0.43125 -1.405,0.62875 -0.87125,2.08125 -1.29625,2.1625 -0.33125,0.06 -0.2975,-0.3925 -0.4325,-0.4325 -0.39875,-0.1425 -0.89125,0.0875 -1.29625,0 -0.0775,-0.0188 -0.16125,-0.0612 -0.25125,-0.11875 -0.345,-0.2225 -0.76125,-0.665 -1.04625,-0.74625 -0.7425,-0.20875 -1.41125,0.0875 -1.945,-0.21625 l -0.21625,-0.86375 c -0.1625,-0.22375 -3.195,-2.30375 -3.45875,-2.37875 -1.59375,-0.48625 -2.3975,0.0537 -3.89,-0.4325 -0.39875,0.35875 -1.42625,1.1625 -1.51375,1.73 -0.0875,0.48625 0.31125,0.32375 0.21625,0.64875 0.5875,-0.12875 0.6825,-0.23 1.2975,-0.21625 0,0.06 -0.0337,0.85125 0,0.86375 -0.33125,1.48625 -1.0275,2.48625 -1.51375,4.1075 0.23,0.0475 0.3375,0.39875 0.4325,0.4325 0.39875,0.135 0.885,-0.12125 1.29625,0 0.10125,0.0275 0.5,0.55375 0.64875,0.64875 0.43875,-0.32375 -0.21625,0.865 -0.21625,0.865 -0.97875,-0.14875 -1.465,-0.12875 -2.59375,-0.21625 -0.91875,2.86375 -0.3575,1.34375 -2.16125,1.5125 l -0.4325,0.4325 c -0.34375,0.0888 -0.73,0 -1.08,0 0.0675,0.28375 0.3175,0.91875 0.215,1.08125 -0.0263,0.04 -0.6,0 -0.6475,0 -0.0475,0.0813 -0.16875,0.405 -0.21625,0.4325 l -0.21625,0 c 0.3575,0.4525 0.98625,1.97875 1.5125,2.16125 0.23625,0.0813 0.635,-0.1075 0.865,0 -0.4725,1.79 -0.73,1.51375 1.72875,1.51375 0.12875,0.39125 0.24375,1.405 0.4325,1.72875 0.12125,0.21625 0.7775,0.19 0.865,0.4325 l 0,0.4325 c 0.85125,0.48625 1.79625,0.0475 2.81,0.4325 0.43875,0.1625 0.75,0.78375 1.08,1.08 l -0.21625,0.64875 c -0.79625,0 -1.81,-0.155 -2.5925,0 -0.25,0.0412 -0.90625,0.60125 -1.08125,0.64875 -0.1625,0.0337 -0.50625,-0.10125 -0.64875,0 -0.96625,0.615 -1.0675,2.52 -2.16125,3.02625 -0.58125,0.26375 -1.2225,-0.04 -1.945,0.21625 -0.1425,0.0475 -0.305,0.56125 -0.4325,0.64875 -0.4725,0.29 -1.10125,0.0138 -1.73,0.21625 -0.27,0.0813 -0.6,0.52 -0.86375,0.64875 l 0.21625,0.865 c 0.4325,0.0937 0.84375,0 1.29625,0 -0.10125,0.0875 -0.12875,0.5675 -0.21625,0.6475 -0.48625,0.41875 -1.05375,0.635 -1.5125,1.08125 -0.0475,-0.0612 -0.39875,-0.64125 -0.4325,-0.64875 -0.52625,-0.135 -0.3175,0.35875 -0.64875,0.21625 -0.20875,0.91875 -0.37125,1.71625 -0.64875,2.59375 -0.04,-0.06 -0.5875,-0.155 -0.6475,-0.21625 -0.40625,-0.39125 0.0275,-1.07375 -1.08125,-0.86375 -0.06,0.006 -0.27625,0.26375 -0.64875,0.21625 l 0,-0.4325 c -1.7625,0 -3.64625,0.0937 -4.10625,1.29625 -0.095,0.23 0.135,0.4325 0,0.64875 1.02625,0.26375 2.195,1.075 3.02625,1.2975 1.3175,0.34375 2.35,0.25 3.67375,0.4325 -0.0875,0.0263 -0.695,0.60125 -0.86375,0.64875 -1.94625,0.4925 -4.70875,-0.19625 -6.0525,0.86375 -1.07375,0.83125 -0.55375,2.33125 -0.4325,1.73 0.3375,0.0537 1.29,0.3575 1.73,0.4325 0.20875,0.6275 -0.075,1.02 0.43125,1.29625 0.97375,0.5275 2.18875,0.0475 3.02625,-0.21625 -0.0875,0.3175 0.22375,0.40625 -0.21625,0.4325 l -0.21625,0.4325 c -0.4725,0.1625 -1.04,-0.155 -1.5125,0 -0.33125,0.10125 -0.8175,0.75625 -1.08125,0.865 -0.5675,0.20875 -0.9725,0.0737 -1.5125,0.21625 0,0 -0.43875,1.0875 0.64875,1.29625 0.89125,0.17 6.10625,-0.9525 3.4575,0.865 -0.21625,0.1425 -0.6475,-0.135 -0.86375,0 -0.0675,0.0337 0,0.77 0,0.865 -0.24375,0.0613 -0.92625,0.0475 -1.2975,0.21625 -0.14875,0.0613 -0.34375,0.81 -0.4325,0.865 0.23,0.0462 0.33875,0.3975 0.4325,0.4325 1.27,0.43125 2.66125,-0.48 3.675,-0.21625 0.12125,0.0263 1.425,1.4525 1.72875,1.5125 0.845,0.1625 1.405,-0.41875 1.51375,-0.4325 0.52,-0.0812 2.60625,0.0275 3.025,0.21625 0.007,0 0,0.615 0,0.64875 0.31125,0.1075 0.80375,0.2425 1.08125,0.4325 0.1625,-0.10125 0.3375,-0.68875 0.4325,-0.865 0.64125,0.2575 0.97875,0.24375 1.5125,0.4325 l 0,0.21625 c 0.39875,0.04 0.0812,-0.37875 0.64875,-0.21625 0.1425,-0.25625 0.19625,-0.77 0.4325,-0.865 0.0813,-0.0337 0.66125,0.30375 1.08125,0.21625 0.48625,-0.1075 1.74875,-1.59375 0.6475,-1.945 0.095,-0.19625 0.2775,-0.17625 0.21625,-0.4325 0.385,0.0813 0.8925,0 1.2975,0 -0.19625,0.0675 0.04,0.55375 -0.64875,0.4325 0.04,0.1825 0.21625,0.865 0.21625,0.865 0.5675,-0.0813 2.155,-0.56125 2.59375,-0.4325 0.59375,0.16125 0.23,1.02625 1.2975,1.08 0.32375,0.0138 2.5325,-0.70875 3.025,-0.86375 -0.14125,-0.1225 -0.10125,-0.5475 -0.21625,-0.64875 -0.16875,-0.14875 -0.4925,-0.0813 -0.6475,-0.21625 0.04,-0.0875 0.32375,-0.325 0.21625,-0.4325 2.06625,0.6275 2.20875,-0.3925 4.3225,0 0.595,0.1075 1.5675,1.07375 2.81,0.64875 0.0875,-0.0337 0.19625,-0.385 0.4325,-0.4325 0.10125,0.29 0.28375,0.8175 0.4325,1.08125 0.34375,-0.0813 0.54625,-0.4125 0.6475,-0.4325 0,0 2.7025,0.9925 2.81,1.08 0.10875,0.095 0.0888,0.73625 0.21625,0.865 0.0613,0.0613 0.60875,0.155 0.64875,0.21625 0.365,-0.58125 1.01375,-1.28375 1.29625,-1.945 0.24375,-0.58125 0.13625,-1.04125 0.4325,-1.51375 0.44,-0.71625 1.48625,-1.46625 1.94625,-2.16125 0.27,-0.41875 0.155,-0.8925 0.43125,-1.2975 0.58875,-0.87125 1.6825,-1.37875 2.37875,-2.16125 0.715,-0.8175 1.06,-1.71625 1.72875,-2.595 0.0538,-0.08 0.62875,-0.3375 0.64875,-0.43125 0.115,-0.60875 -0.40625,-0.83875 -0.4325,-1.08125 -0.095,-0.69625 0.10125,-2.07375 0.21625,-3.02625 0.02,-0.21 0.27,-1.48625 0.4325,-1.73 l 0.43125,-0.21625 c 0.6225,-2.1075 0.28375,-3.77625 0.64875,-6.26875 0.0413,-0.32375 0.7225,-1.5 0.64875,-1.945 -0.04,-0.21 -0.55375,-0.635 -0.64875,-0.865 0.3925,-0.0813 0.115,-0.0875 0.21625,-0.4325 0.5875,0 1.6075,0.1825 2.16125,0 0.2975,-0.1075 0.345,-0.76375 0.64875,-0.865 0.43875,-0.15875 0.465,0.25125 0.98,0.22625 -0.24625,-0.4025 -0.25125,-1 -0.62875,-1.41125"
           id="path7767"
           style="fill:#ffffff;fill-opacity:1;fill-rule:nonzero;stroke:none" />
        <path
           d="m 370.47808,366.8736 c -0.3025,-0.32875 -0.61875,-0.335 -0.97,-0.61 -0.4225,-0.3325 -0.4375,-1.04375 -0.97,-0.9775 -0.4075,0.05 -0.3575,0.62875 -0.755,0.7325 -0.48375,0.12625 -0.71125,-0.33 -1.185,-0.48875 -0.3325,-0.11125 -0.635,0.0213 -0.8625,-0.24375 -0.38,-0.44125 0.50625,-0.77875 0.64625,-1.34375 0.0813,-0.32625 0.34875,-0.62 0.1075,-0.855 -0.21,-0.205 -0.47875,0.10375 -0.75375,0 -0.545,-0.20375 -0.5025,-0.78 -0.6475,-1.34375 -0.1175,-0.4625 -0.0863,-0.74375 -0.1075,-1.22125 -0.0212,-0.47625 0.0688,-0.75 0,-1.22125 -0.0787,-0.545 0.1075,-1.2325 -0.43125,-1.34375 -0.46375,-0.095 -0.57375,0.4725 -0.97,0.73375 -0.40375,0.265 -0.84,0.19 -1.0775,0.61 -0.285,0.5025 0.61375,1.0475 0.215,1.46625 -0.26875,0.28125 -0.61,0.0925 -0.97,0.24375 -0.46875,0.1975 -0.685,1.055 -1.0775,0.7325 -0.23,-0.18875 0.015,-0.54375 -0.21625,-0.7325 -0.295,-0.24125 -0.5925,0.1775 -0.97,0.1225 -0.36125,-0.0525 -0.5825,-0.1325 -0.8625,-0.36625 -0.50125,-0.42 -0.10125,-1.1025 -0.53875,-1.58875 -0.21125,-0.235 -0.46875,-0.22625 -0.64625,-0.4875 -0.26875,-0.39625 0.045,-0.76875 -0.10875,-1.2225 -0.185,-0.5525 -0.51375,-0.7525 -0.86125,-1.22125 -0.2875,-0.38625 -0.68375,-0.50125 -0.755,-0.97625 -0.0437,-0.28625 0.1225,-0.445 0.1075,-0.73375 -0.0275,-0.52 -0.65125,-0.7125 -0.53875,-1.22125 0.16375,-0.735 1.1175,-0.3725 1.8325,-0.61 0.33625,0.19 0.4825,0.41375 0.8625,0.48875 0.37375,0.0725 0.6,-0.0325 0.97,-0.1225 0.3925,-0.0962 0.7425,-0.0325 0.97,-0.36625 0.3775,-0.55625 -0.8775,-0.7025 -1.0775,-1.34375 -0.0863,-0.27625 -0.235,-0.47375 -0.1075,-0.7325 0.17125,-0.35125 0.605,-0.385 0.97,-0.245 0.40625,0.1575 0.18375,0.725 0.53875,0.9775 0.58,0.4125 1.12375,-0.31125 1.79875,-0.31125 0.3125,0 0.57125,-0.38625 0.90125,-0.67625 0.28125,-0.24625 0.3625,-0.475 0.67625,-0.67625 0.31625,-0.20375 0.56875,-0.16625 0.90125,-0.33875 0.74625,-0.38625 0.81875,-1.10625 1.5775,-1.465 0.49125,-0.2325 0.78125,-0.1875 1.30875,-0.32 0.4075,-0.215 0.94375,-0.44625 0.99625,-0.485 0.175,-0.14125 0.0813,-0.7625 0.21625,-0.86375 -0.635,-1.08875 -1.405,-2.05375 -2.1625,-3.0275 -0.29625,0.22375 -0.5875,0.69625 -0.86375,0.865 -0.5,0.29125 -1.095,0.0875 -1.51375,0.4325 l -0.6475,1.2975 c -0.2575,-0.21625 -0.56125,-0.53375 -0.865,-0.64875 0.0875,-0.3375 0.405,-0.5475 0.4325,-0.64875 0.1275,-0.54 -0.30375,-0.27625 -0.21625,-0.64875 -0.5475,-0.135 -0.78375,-0.22875 -1.2975,-0.4325 -0.16125,0.1425 -0.34375,0.69625 -0.6475,0.64875 -0.075,-0.0138 -0.3925,-0.78375 -0.4325,-0.865 -1.01375,0.10875 -2.64125,-0.27 -3.45875,0 -0.1825,0.055 -0.29,0.73 -0.4325,0.865 -0.32375,0.28375 -0.9525,0.1625 -1.29625,0.4325 -0.81125,0.62125 -0.53375,1.79 -0.4325,2.81 -2.47875,-0.66875 -0.94625,0.14875 -1.94625,0.4325 -0.6675,0.1825 -0.79625,-0.25625 -1.29625,-0.21625 -0.35125,0.02 -1.0125,0.54125 -1.2975,0.64875 0.48,0.925 0.865,1.66875 1.2975,2.59375 0.41875,0 1.365,-0.175 1.72875,0 0.0475,0.02 0,0.96625 0,1.08125 0.325,0.0738 0.75,0 1.08125,0 l 0.21625,0.4325 c -0.2975,0.1825 -0.73,0.76375 -1.08125,0.865 -1.20875,0.3375 -1.8575,0 -2.81,0.43125 -1.405,0.62875 -0.87125,2.08125 -1.29625,2.1625 -0.33125,0.06 -0.2975,-0.3925 -0.4325,-0.4325 -0.39875,-0.1425 -0.89125,0.0875 -1.29625,0 -0.0775,-0.0188 -0.16125,-0.0612 -0.25125,-0.11875 -0.345,-0.2225 -0.76125,-0.665 -1.04625,-0.74625 -0.7425,-0.20875 -1.41125,0.0875 -1.945,-0.21625 l -0.21625,-0.86375 c -0.1625,-0.22375 -3.195,-2.30375 -3.45875,-2.37875 -1.59375,-0.48625 -2.3975,0.0537 -3.89,-0.4325 -0.39875,0.35875 -1.42625,1.1625 -1.51375,1.73 -0.0875,0.48625 0.31125,0.32375 0.21625,0.64875 0.5875,-0.12875 0.6825,-0.23 1.2975,-0.21625 0,0.06 -0.0337,0.85125 0,0.86375 -0.33125,1.48625 -1.0275,2.48625 -1.51375,4.1075 0.23,0.0475 0.3375,0.39875 0.4325,0.4325 0.39875,0.135 0.885,-0.12125 1.29625,0 0.10125,0.0275 0.5,0.55375 0.64875,0.64875 0.43875,-0.32375 -0.21625,0.865 -0.21625,0.865 -0.97875,-0.14875 -1.465,-0.12875 -2.59375,-0.21625 -0.91875,2.86375 -0.3575,1.34375 -2.16125,1.5125 l -0.4325,0.4325 c -0.34375,0.0888 -0.73,0 -1.08,0 0.0675,0.28375 0.3175,0.91875 0.215,1.08125 -0.0263,0.04 -0.6,0 -0.6475,0 -0.0475,0.0813 -0.16875,0.405 -0.21625,0.4325 l -0.21625,0 c 0.3575,0.4525 0.98625,1.97875 1.5125,2.16125 0.23625,0.0813 0.635,-0.1075 0.865,0 -0.4725,1.79 -0.73,1.51375 1.72875,1.51375 0.12875,0.39125 0.24375,1.405 0.4325,1.72875 0.12125,0.21625 0.7775,0.19 0.865,0.4325 l 0,0.4325 c 0.85125,0.48625 1.79625,0.0475 2.81,0.4325 0.43875,0.1625 0.75,0.78375 1.08,1.08 l -0.21625,0.64875 c -0.79625,0 -1.81,-0.155 -2.5925,0 -0.25,0.0412 -0.90625,0.60125 -1.08125,0.64875 -0.1625,0.0337 -0.50625,-0.10125 -0.64875,0 -0.96625,0.615 -1.0675,2.52 -2.16125,3.02625 -0.58125,0.26375 -1.2225,-0.04 -1.945,0.21625 -0.1425,0.0475 -0.305,0.56125 -0.4325,0.64875 -0.4725,0.29 -1.10125,0.0138 -1.73,0.21625 -0.27,0.0813 -0.6,0.52 -0.86375,0.64875 l 0.21625,0.865 c 0.4325,0.0937 0.84375,0 1.29625,0 -0.10125,0.0875 -0.12875,0.5675 -0.21625,0.6475 -0.48625,0.41875 -1.05375,0.635 -1.5125,1.08125 -0.0475,-0.0612 -0.39875,-0.64125 -0.4325,-0.64875 -0.52625,-0.135 -0.3175,0.35875 -0.64875,0.21625 -0.20875,0.91875 -0.37125,1.71625 -0.64875,2.59375 -0.04,-0.06 -0.5875,-0.155 -0.6475,-0.21625 -0.40625,-0.39125 0.0275,-1.07375 -1.08125,-0.86375 -0.06,0.006 -0.27625,0.26375 -0.64875,0.21625 l 0,-0.4325 c -1.7625,0 -3.64625,0.0937 -4.10625,1.29625 -0.095,0.23 0.135,0.4325 0,0.64875 1.02625,0.26375 2.195,1.075 3.02625,1.2975 1.3175,0.34375 2.35,0.25 3.67375,0.4325 -0.0875,0.0263 -0.695,0.60125 -0.86375,0.64875 -1.94625,0.4925 -4.70875,-0.19625 -6.0525,0.86375 -1.07375,0.83125 -0.55375,2.33125 -0.4325,1.73 0.3375,0.0537 1.29,0.3575 1.73,0.4325 0.20875,0.6275 -0.075,1.02 0.43125,1.29625 0.97375,0.5275 2.18875,0.0475 3.02625,-0.21625 -0.0875,0.3175 0.22375,0.40625 -0.21625,0.4325 l -0.21625,0.4325 c -0.4725,0.1625 -1.04,-0.155 -1.5125,0 -0.33125,0.10125 -0.8175,0.75625 -1.08125,0.865 -0.5675,0.20875 -0.9725,0.0737 -1.5125,0.21625 0,0 -0.43875,1.0875 0.64875,1.29625 0.89125,0.17 6.10625,-0.9525 3.4575,0.865 -0.21625,0.1425 -0.6475,-0.135 -0.86375,0 -0.0675,0.0337 0,0.77 0,0.865 -0.24375,0.0613 -0.92625,0.0475 -1.2975,0.21625 -0.14875,0.0613 -0.34375,0.81 -0.4325,0.865 0.23,0.0462 0.33875,0.3975 0.4325,0.4325 1.27,0.43125 2.66125,-0.48 3.675,-0.21625 0.12125,0.0263 1.425,1.4525 1.72875,1.5125 0.845,0.1625 1.405,-0.41875 1.51375,-0.4325 0.52,-0.0812 2.60625,0.0275 3.025,0.21625 0.007,0 0,0.615 0,0.64875 0.31125,0.1075 0.80375,0.2425 1.08125,0.4325 0.1625,-0.10125 0.3375,-0.68875 0.4325,-0.865 0.64125,0.2575 0.97875,0.24375 1.5125,0.4325 l 0,0.21625 c 0.39875,0.04 0.0812,-0.37875 0.64875,-0.21625 0.1425,-0.25625 0.19625,-0.77 0.4325,-0.865 0.0813,-0.0337 0.66125,0.30375 1.08125,0.21625 0.48625,-0.1075 1.74875,-1.59375 0.6475,-1.945 0.095,-0.19625 0.2775,-0.17625 0.21625,-0.4325 0.385,0.0813 0.8925,0 1.2975,0 -0.19625,0.0675 0.04,0.55375 -0.64875,0.4325 0.04,0.1825 0.21625,0.865 0.21625,0.865 0.5675,-0.0813 2.155,-0.56125 2.59375,-0.4325 0.59375,0.16125 0.23,1.02625 1.2975,1.08 0.32375,0.0138 2.5325,-0.70875 3.025,-0.86375 -0.14125,-0.1225 -0.10125,-0.5475 -0.21625,-0.64875 -0.16875,-0.14875 -0.4925,-0.0813 -0.6475,-0.21625 0.04,-0.0875 0.32375,-0.325 0.21625,-0.4325 2.06625,0.6275 2.20875,-0.3925 4.3225,0 0.595,0.1075 1.5675,1.07375 2.81,0.64875 0.0875,-0.0337 0.19625,-0.385 0.4325,-0.4325 0.10125,0.29 0.28375,0.8175 0.4325,1.08125 0.34375,-0.0813 0.54625,-0.4125 0.6475,-0.4325 0,0 2.7025,0.9925 2.81,1.08 0.10875,0.095 0.0888,0.73625 0.21625,0.865 0.0613,0.0613 0.60875,0.155 0.64875,0.21625 0.365,-0.58125 1.01375,-1.28375 1.29625,-1.945 0.24375,-0.58125 0.13625,-1.04125 0.4325,-1.51375 0.44,-0.71625 1.48625,-1.46625 1.94625,-2.16125 0.27,-0.41875 0.155,-0.8925 0.43125,-1.2975 0.58875,-0.87125 1.6825,-1.37875 2.37875,-2.16125 0.715,-0.8175 1.06,-1.71625 1.72875,-2.595 0.0538,-0.08 0.62875,-0.3375 0.64875,-0.43125 0.115,-0.60875 -0.40625,-0.83875 -0.4325,-1.08125 -0.095,-0.69625 0.10125,-2.07375 0.21625,-3.02625 0.02,-0.21 0.27,-1.48625 0.4325,-1.73 l 0.43125,-0.21625 c 0.6225,-2.1075 0.28375,-3.77625 0.64875,-6.26875 0.0413,-0.32375 0.7225,-1.5 0.64875,-1.945 -0.04,-0.21 -0.55375,-0.635 -0.64875,-0.865 0.3925,-0.0813 0.115,-0.0875 0.21625,-0.4325 0.5875,0 1.6075,0.1825 2.16125,0 0.2975,-0.1075 0.345,-0.76375 0.64875,-0.865 0.43875,-0.15875 0.465,0.25125 0.98,0.22625 -0.24625,-0.4025 -0.25125,-1 -0.62875,-1.41125 z"
           id="path7771"
           style="fill:none;stroke:#231f20;stroke-width:0.625;stroke-linecap:butt;stroke-linejoin:miter;stroke-miterlimit:4;stroke-dasharray:none;stroke-opacity:1" />
        <path
           d="m 384.60895,371.73385 c 0.1825,-0.0275 0.10875,-0.58125 0.21625,-0.64875 0.41875,-0.29 1.0125,0 1.5125,-0.21625 0.1625,-0.0738 0.28375,-0.54 0.4325,-0.64875 0.98625,-0.74875 2.39125,-1.715 1.51375,-3.67375 -0.0675,-0.14875 -0.8175,-0.345 -0.865,-0.4325 -0.46,0.37125 -1.03375,1.27 -1.5125,1.5125 -1.33125,0.64875 -1.69,-0.2425 -2.37875,1.2975 -0.35125,0.77 -0.195,1.2225 -0.43125,2.16125 0.46625,0.115 0.56625,0.0475 0.86375,0.21625 0.25,0.1425 -0.0675,0.51375 0.64875,0.4325 z"
           id="path7779"
           style="fill:none;stroke:#231f20;stroke-width:1.875;stroke-linecap:round;stroke-linejoin:round;stroke-miterlimit:4;stroke-dasharray:none;stroke-opacity:1" />
        <path
           id="path7783"
           d="m 425.67733,295.85748 c 0.34119,0.53737 0.97935,-0.0364 1.21926,-0.40065 0.35496,-0.49651 1.01763,-0.25808 1.52273,-0.24965 0.0425,-0.19516 0.23368,-1.01119 -0.36449,-0.86345 -0.97194,0.0164 -1.76035,0.66487 -2.59375,1.08125 -0.006,0.11209 -0.0161,0.76701 0.21625,0.4325 z"
           style="fill:none;stroke:#231f20;stroke-width:1.875;stroke-linecap:round;stroke-linejoin:round;stroke-miterlimit:4;stroke-dasharray:none;stroke-opacity:1" />
        <path
           id="path7787"
           d="m 420.70595,300.61322 c -0.0428,-0.58292 -0.25403,-1.18823 -0.0917,-1.76534 0.28341,-0.40655 0.8664,-0.34463 1.29599,-0.48596 0.36738,-0.15678 0.62985,-0.13606 0.74338,0.27934 0.29967,0.50568 0.64913,0.9877 0.86229,1.53946 0.57612,0.12819 0.91228,-0.20026 1.24854,-0.61657 0.26906,0.0158 0.79772,-0.0966 0.33111,-0.3789 -0.37467,-0.17142 -0.61326,-0.36923 -0.40896,-0.79422 -0.005,-0.34189 0.39896,-1.27328 -0.2294,-0.91357 -0.5582,0.17694 -1.25368,0.37334 -1.75003,-0.0601 -0.20603,-0.47461 -0.22852,-1.05898 -0.36408,-1.57531 -0.004,-0.4998 -0.19011,-0.75003 -0.69756,-0.59409 -0.59036,-0.0916 -0.91395,0.68162 -1.27802,1.06594 -0.34163,0.43652 -0.4177,1.16962 0.12215,1.48936 -0.47404,0.22835 -1.07635,0.34708 -1.38144,0.81227 -0.15655,0.49097 0.12264,0.98871 0.19388,1.47435 0.0365,0.34221 0.094,0.65824 0.50971,0.50148 0.29689,-0.0228 0.60208,-0.0553 0.8941,0.0219 z"
           style="fill:none;stroke:#231f20;stroke-width:1.875;stroke-linecap:round;stroke-linejoin:round;stroke-miterlimit:4;stroke-dasharray:none;stroke-opacity:1" />
        <path
           id="path7791"
           d="m 426.32583,297.8031 c 0.50928,-0.1258 0.90998,-0.74699 0.21346,-0.96798 -0.31688,-0.29154 -0.18874,0.16338 -0.21346,0.3586 0,0.20313 0,0.40625 0,0.60938 z"
           style="fill:none;stroke:#231f20;stroke-width:1.875;stroke-linecap:round;stroke-linejoin:round;stroke-miterlimit:4;stroke-dasharray:none;stroke-opacity:1" />
        <path
           d="m 383.96045,305.80135 c 0.44625,0.10125 0.98625,0.64125 1.945,0.4325 0.345,-0.0813 0.595,-0.75625 0.865,-0.865 0.95875,-0.39875 1.89875,0 3.02625,-0.21625 0.29,-0.06 0.8375,-0.53375 1.08125,-0.64875 l 0.215,0 c 0.46625,-0.68875 0.0475,-1.7625 0.4325,-2.59375 0.19,-0.425 0.89875,-0.5875 1.2975,-0.865 1.68875,-1.20875 1.87125,-1.465 1.72875,-3.89125 l -0.64875,-0.215 c -1.11375,0.29625 -2.235,0.9925 -3.24125,1.29625 -0.615,0.1825 -1,-0.0675 -1.51375,0.21625 -0.175,0.0875 -0.26375,0.55375 -0.4325,0.64875 -0.3375,-0.26375 -0.57375,-0.595 -0.86375,-0.865 -0.42625,0.25 -0.69,-0.0337 -1.08125,0.21625 l 0,0.4325 c 0,0 -1.4725,1.2425 -1.5125,1.2975 0.1275,0.30375 0.49875,0.62125 0.43125,1.08 0,0 -0.63375,0.58125 -0.6475,0.64875 -0.22375,0.8175 0.1475,1.5875 0.21625,2.1625 -0.17625,0.11375 -1.23,0.695 -1.2975,0.86375 -0.10125,0.22375 0.12125,0.64875 0,0.865 z"
           id="path7795"
           style="fill:url(#polka);fill-opacity:1;stroke:#231f20;stroke-width:1.875;stroke-linecap:round;stroke-linejoin:round;stroke-miterlimit:4;stroke-dasharray:none;stroke-opacity:1" />
        <path
           d="m 372.72083,299.96485 c 0.44625,0.39875 0,-1.08125 0,-1.08125 -0.28375,0 -0.8175,0.115 -1.08125,0 0.0888,0.14875 0,0.6825 0,0.865 0,0 1.81,0.60125 1.08125,0.21625 z"
           id="path7799"
           style="fill:none;stroke:#231f20;stroke-width:1.875;stroke-linecap:round;stroke-linejoin:round;stroke-miterlimit:4;stroke-dasharray:none;stroke-opacity:1" />
        <path
           id="path7803"
           d="m 422.43508,301.91022 c 0.12103,-0.43213 0.46578,-0.8301 0.38794,-1.30043 -0.23797,-0.48093 -1.31994,-0.1834 -0.97178,0.40802 0.1367,0.33249 0.38916,0.59627 0.58384,0.89241 z"
           style="fill:none;stroke:#231f20;stroke-width:1.875;stroke-linecap:round;stroke-linejoin:round;stroke-miterlimit:4;stroke-dasharray:none;stroke-opacity:1" />
        <path
           d="m 379.85371,306.66598 c 0.7975,1.98625 0.44625,2.78375 2.59375,1.73 -0.0475,-0.0138 0.41875,-0.635 0.4325,-0.64875 -0.075,-0.1425 -0.51375,-1.0075 -0.64875,-1.08125 -0.5675,-0.31125 -1.2425,-0.115 -1.945,-0.21625 0.32375,0 -0.4325,0.21625 -0.4325,0.21625 z"
           id="path7807"
           style="fill:none;stroke:#231f20;stroke-width:1.875;stroke-linecap:round;stroke-linejoin:round;stroke-miterlimit:4;stroke-dasharray:none;stroke-opacity:1" />
        <path
           d="m 380.28596,309.47623 c 0,0 -0.2025,0.39125 -0.21625,0.4325 -0.30375,-0.25625 -0.02,0.75 0,0.865 0.0613,0 0.595,-0.0475 0.64875,0 -0.10125,-0.58125 0.31,-1.3375 -0.4325,-1.2975 z"
           id="path7811"
           style="fill:none;stroke:#231f20;stroke-width:1.875;stroke-linecap:round;stroke-linejoin:round;stroke-miterlimit:4;stroke-dasharray:none;stroke-opacity:1" />
        <path
           d="m 378.12446,315.5291 c 0.2425,0.095 0.4125,-0.12875 0.64875,0 l 0.21625,-1.945 0.86375,-0.21625 c 0.3175,-1.115 -0.37125,-2.095 -0.6475,-2.81125 l -0.4325,0 c -0.635,1.5475 -1.23625,2.01375 -1.51375,4.1075 l 0.4325,0.21625 c 0.0875,0.02 0.3375,0.6075 0.4325,0.64875 z"
           id="path7815"
           style="fill:none;stroke:#231f20;stroke-width:1.875;stroke-linecap:round;stroke-linejoin:round;stroke-miterlimit:4;stroke-dasharray:none;stroke-opacity:1" />
        <path
           d="m 375.74683,317.90697 c 0.10125,-0.30375 -0.0138,-0.51375 0.21625,-0.64875 0.26375,-0.16875 0.73625,0.075 0.865,-0.21625 0.155,-0.365 -0.1625,-0.7225 0,-1.08 -0.15625,0 -0.74375,0.0875 -0.865,0 -1.21625,0.91125 -0.675,0.7025 -0.865,1.945 0.0675,0 0.595,-0.0475 0.64875,0 z"
           id="path7819"
           style="fill:none;stroke:#231f20;stroke-width:1.875;stroke-linecap:round;stroke-linejoin:round;stroke-miterlimit:4;stroke-dasharray:none;stroke-opacity:1" />
        <path
           d="m 385.6897,321.7981 c 0.2025,-0.52 1.0475,-0.66875 0.64875,-2.16125 -0.0413,-0.135 -0.62875,-0.58125 -0.64875,-0.64875 -0.27,0.0738 -0.73625,0.16875 -1.2975,0.21625 0.27125,1.05375 0.305,1.49875 0.64875,2.3775 0.44625,-0.12875 0.37125,0.115 0.64875,0.21625 z"
           id="path7823"
           style="fill:none;stroke:#231f20;stroke-width:1.875;stroke-linecap:round;stroke-linejoin:round;stroke-miterlimit:4;stroke-dasharray:none;stroke-opacity:1" />
        <path
           d="m 381.79908,324.60835 c -0.51375,0.0738 -2.22875,1.7025 -0.865,1.72875 0.7975,0.0137 3.14125,-2.09375 0.865,-1.72875 z"
           id="path7827"
           style="fill:none;stroke:#231f20;stroke-width:1.875;stroke-linecap:round;stroke-linejoin:round;stroke-miterlimit:4;stroke-dasharray:none;stroke-opacity:1" />
        <path
           d="m 378.34058,326.98622 c 1.14125,-0.12125 0.30375,-1.4525 -0.64875,-1.2975 -0.60125,0.095 -0.945,1.4525 0.64875,1.2975 z"
           id="path7831"
           style="fill:none;stroke:#231f20;stroke-width:1.875;stroke-linecap:round;stroke-linejoin:round;stroke-miterlimit:4;stroke-dasharray:none;stroke-opacity:1" />
        <path
           d="m 381.3667,334.55223 c 0.135,0.12875 0,1.07375 0,1.2975 0.135,-0.055 0.64875,-0.21625 0.64875,-0.21625 0,-0.10125 -0.0675,-0.8175 0,-0.865 l -0.64875,-0.21625 z"
           id="path7835"
           style="fill:none;stroke:#231f20;stroke-width:1.875;stroke-linecap:round;stroke-linejoin:round;stroke-miterlimit:4;stroke-dasharray:none;stroke-opacity:1" />
        <path
           d="m 385.0412,335.6331 -0.21625,0 c -1.32375,0.77 -1.7425,1.675 -2.81,2.59375 l -0.4325,0 -0.21625,-1.08 c -1.18125,0.385 -2.15375,0.41125 -3.02625,1.08 -0.2025,0.14875 -1.04625,1.0675 -1.08,1.2975 -0.0875,0.48625 0.31,0.32375 0.21625,0.64875 0.385,0 0.91875,-0.10125 1.29625,0 0.5075,2.22875 -0.08,0.97875 1.51375,1.72875 0.64875,-0.8375 0.73625,-1.0875 1.08,-2.3775 0.51375,-0.0675 0.47375,0.37125 1.08125,0.21625 0.35125,-0.10125 2.55375,-2.58125 3.02625,-3.02625 -0.0813,-0.19625 0,-0.6625 0,-0.865 -0.075,-0.0412 -0.42625,-0.17625 -0.4325,-0.21625 z"
           id="path7839"
           style="fill:none;stroke:#231f20;stroke-width:1.875;stroke-linecap:round;stroke-linejoin:round;stroke-miterlimit:4;stroke-dasharray:none;stroke-opacity:1" />
        <path
           d="m 387.41883,343.63148 c -0.105,0.33 -0.4325,0.64875 -0.4325,0.64875 l -0.21625,-1.08125 -0.21625,-0.21625 c -0.675,1.29 -0.86375,2.405 -0.86375,4.54 0.55375,0.2975 1.0875,0.5675 1.72875,0.865 -0.1825,0.39875 0.615,-0.42625 0.64875,-0.64875 0.16875,-1.16875 -0.115,-2.4325 0,-3.89125 -0.30375,-0.1675 -0.4725,-0.055 -0.64875,-0.21625 z"
           id="path7843"
           style="fill:none;stroke:#231f20;stroke-width:1.875;stroke-linecap:round;stroke-linejoin:round;stroke-miterlimit:4;stroke-dasharray:none;stroke-opacity:1" />
        <path
           d="m 458.05321,446.18372 -26.7375,-26.7375 9.94375,-9.94375 -43.7525,0 0,43.7525 9.94375,-9.94375 26.7375,26.7375 23.865,-23.865 z"
           id="path7895"
           style="fill:url(#polka);fill-opacity:1;fill-rule:nonzero;stroke:#000000;stroke-width:2;stroke-miterlimit:4;stroke-dasharray:none;stroke-opacity:1" />
        <path
           id="path7619"
           d="m 356.29349,396.38365 c 2.31327,-0.17876 2.02373,-4.26473 4.3225,-5.40375 0.50387,-2.49848 3.5263,-3.26394 4.30304,-5.72348 1.61848,-1.44773 -0.43145,-4.67582 1.2494,-6.67337 1.26197,-1.85555 0.32669,-4.63796 1.06117,-6.78856 1.21581,-1.55391 -1.34991,-3.48168 1.7602,-2.7876 1.23178,-1.27342 3.33853,-0.38784 4.16369,-2.67074 2.35998,1.24517 2.26774,-1.52698 2.46133,-2.62565 1.40674,-0.0401 1.9523,1.06158 2.23383,-1.02935 0.2804,-1.5812 0.81806,-3.63395 -1.45266,-3.91125 2.3002,-1.97317 -1.37757,-3.39794 0.0309,-6.0077 1.25716,-2.80578 -2.10183,-4.4276 -3.94088,-5.21238 -1.64394,1.26368 -3.8795,-0.63775 -5.53219,0.33338 3.25672,-0.36634 0.3093,-4.80671 -0.9414,-4.22518 -0.96389,0.71409 -2.32691,0.67653 -2.58641,2.14188 -0.8456,-0.55934 -0.27441,-3.10246 -2.21641,-1.98313 -0.79228,-0.3594 -4.17667,-1.72783 -4.99064,0.40245 -2.76937,-0.0763 -0.23747,4.07694 -2.96608,2.95224 -0.53856,1.03178 -4.28321,-0.0739 -2.34531,2.30281 -0.0384,2.1639 2.94044,0.26444 2.35969,2.37813 3.10385,0.0248 -1.00731,2.13873 -2.24911,1.60025 -1.78949,0.24652 -0.92472,3.22749 -2.7198,1.83788 -1.77334,-0.66062 -3.76664,-0.62636 -4.68119,-2.38043 -2.09132,-1.88436 -6.04676,-3.49768 -8.07273,-1.08448 -1.02152,1.92629 2.41405,0.0545 1.15554,2.29224 -0.4131,1.42386 -2.59366,4.59424 0.35604,4.00329 2.41289,1.83374 -1.82961,0.98714 -2.31711,1.78456 0.0956,2.46885 -4.11871,0.0251 -3.30289,2.53919 -2.73546,0.24075 1.25679,2.81563 1.13492,3.17272 -0.74725,1.95581 2.92078,-0.10023 2.19473,2.31185 0.80209,1.98317 3.33916,0.82271 4.63728,2.45813 0.72811,1.88322 -3.24163,0.14768 -3.97552,1.54322 -1.6094,0.89866 -1.78502,3.99037 -4.42391,3.26783 -0.43751,1.37131 -3.71892,0.34254 -2.80875,2.3775 2.87715,-0.68399 -0.46583,2.74715 -1.14232,1.07795 -0.86525,0.79649 -0.81891,4.35025 -2.16987,1.72412 -1.49499,0.2514 -4.98574,-1.12751 -5.33406,1.73793 1.67615,1.3639 5.82548,1.41235 6.29859,2.04623 -2.1013,1.43266 -6.0161,-0.71968 -7.15552,2.26748 -0.1446,1.4551 2.49045,0.47391 2.36943,2.38754 1.06481,0.58369 4.36723,-0.64563 2.22453,0.69551 -1.30472,-0.0377 -3.1928,0.84523 -3.82109,1.60433 0.34827,1.85347 6.70382,-0.67016 3.99435,1.63254 -1.10904,-0.27748 -0.46319,1.37906 -1.96529,1.04012 -1.04302,3.07866 4.2303,-0.50389 5.02254,2.33525 1.69254,0.43639 4.56971,-1.11233 5.47324,0.87631 0.70234,0.217 1.66525,-1.21567 2.47297,0.0309 0.63323,-1.36712 3.45205,-0.38778 3.11825,-2.63004 -1.10884,-0.94007 2.4652,-0.60643 0.55675,-0.17996 0.21056,1.91967 3.19139,-0.81085 3.76842,1.45727 1.4828,0.0415 4.39126,-0.79271 2.66344,-1.88276 2.07819,-0.58548 4.89686,0.0758 7.18564,0.42549 0.67795,-1.33062 0.59597,1.6737 1.5125,0.215 0.9935,0.62604 3.00904,0.44846 3.02625,1.94625 z"
           style="fill:none;stroke:#231f20;stroke-width:1.875;stroke-linecap:round;stroke-linejoin:round;stroke-miterlimit:4;stroke-dasharray:none;stroke-opacity:1" />
        <path
           d="m 299.4267,438.47222 36.405,-10.22125 3.80125,13.53875 21.4225,-38.14875 -38.14875,-21.4225 3.80125,13.53875 -36.405,10.22125 9.12375,32.49375 z"
           id="path7955"
           style="fill:url(#polka);fill-opacity:1;fill-rule:nonzero;stroke:#000000;stroke-width:2;stroke-miterlimit:4;stroke-dasharray:none;stroke-opacity:1" />
      </g>
    </g>
  </g>
</svg>
