<?xml version="1.0" encoding="UTF-8" standalone="no"?>
<svg
   xmlns:dc="http://purl.org/dc/elements/1.1/"
   xmlns:cc="http://creativecommons.org/ns#"
   xmlns:rdf="http://www.w3.org/1999/02/22-rdf-syntax-ns#"
   xmlns:svg="http://www.w3.org/2000/svg"
   xmlns="http://www.w3.org/2000/svg"
   version="1.1"
   id="svg10845"
   height="195.60275"
   width="200.0005">
  <defs
     id="defs4809">
    <pattern
       id="polka"
       patternTransform="rotate(20)"
       height="5"
       width="5"
       patternUnits="userSpaceOnUse">
      <rect
         y="0"
         x="0"
         height="5"
         width="5"
         style="fill:#ffffff"
         id="polka__bg" />
      <circle
         cx="2"
         style="fill:#aad801"
         cy="2"
         r="1.5"
         id="polka__inner" />
    </pattern>
    <clipPath
       id="clipPath368"
       clipPathUnits="userSpaceOnUse">
      <path
         id="path370"
         d="m 0,1000 1000,0 L 1000,0 0,0 0,1000 Z" />
    </clipPath>
  </defs>
  <metadata
     id="metadata10850">
    <rdf:RDF>
      <cc:Work
         rdf:about="">
        <dc:format>image/svg+xml</dc:format>
        <dc:type
           rdf:resource="http://purl.org/dc/dcmitype/StillImage" />
        <dc:title></dc:title>
      </cc:Work>
    </rdf:RDF>
  </metadata>
  <g
     style="display:inline"
     transform="translate(-282.08096,-278.41122)"
     id="layer1">
    <g
       transform="matrix(1.25,0,0,-1.25,-435.19742,1129.5224)"
       id="g364">
      <g
         clip-path="url(#clipPath368)"
         id="g366">
        <g
           transform="translate(713.8125,585.1567)"
           id="g372">
          <path
             id="path374"
             style="fill:none;stroke:#2f2d2e;stroke-width:1.5;stroke-linecap:round;stroke-linejoin:round;stroke-miterlimit:4;stroke-dasharray:none;stroke-opacity:1"
             d="m 0,0 c 0,-33.137 -26.863,-60 -60,-60 -33.137,0 -60,26.863 -60,60 0,33.137 26.863,60 60,60 C -26.863,60 0,33.137 0,0 Z" />
        </g>
      </g>
    </g>
    <path
       d="m 382.15858,472.70415 c 41.30875,0 74.795,-33.48625 74.795,-74.795 0,-41.30875 -33.48625,-74.79625 -74.795,-74.79625 -41.3075,0 -74.795,33.4875 -74.795,74.79625 0,41.30875 33.4875,74.795 74.795,74.795"
       style="fill:url(#polka);fill-opacity:1;fill-rule:nonzero;stroke:none"
       id="path1114" />
    <path
       d="m 415.54595,449.75977 c 0,0 -0.5675,2.26376 -1.41499,2.54376 l 1.01375,0.16625 1.25,-2.71001 -0.84875,0 z"
       style="fill:none;stroke:#1d1d1d;stroke-width:0.625;stroke-linecap:round;stroke-linejoin:round;stroke-miterlimit:10;stroke-dasharray:none;stroke-opacity:1"
       id="path3074" />
    <path
       d="m 427.33433,373.17653 c 0,0 -0.85,1.60375 -0.33125,3.4425 0.51875,1.83875 0.33125,1.2725 0.33125,1.2725 0,0 0.3775,-0.9425 0.3775,-1.6975 0,-0.75375 0.7525,-2.45125 -0.3775,-3.0175 z"
       style="fill:none;stroke:#1d1d1d;stroke-width:0.625;stroke-linecap:round;stroke-linejoin:round;stroke-miterlimit:10;stroke-dasharray:none;stroke-opacity:1"
       id="path3078" />
    <path
       d="m 382.25133,328.75515 -0.755,0 0,0.37625 1.03875,0.19 -0.28375,-0.56625 z"
       style="fill:none;stroke:#1d1d1d;stroke-width:0.625;stroke-linecap:round;stroke-linejoin:round;stroke-miterlimit:4;stroke-dasharray:none;stroke-opacity:1"
       id="path3082" />
    <path
       d="M 382.57483,472.66515 382.48858,353.4414"
       style="fill:none;stroke:#1d1d1d;stroke-width:0.625;stroke-linecap:round;stroke-linejoin:round;stroke-miterlimit:4;stroke-dasharray:none;stroke-opacity:1"
       id="path3086" />
    <path
       d="m 382.57845,335.21878 -0.09,-12.16"
       style="fill:none;stroke:#1d1d1d;stroke-width:0.625;stroke-linecap:round;stroke-linejoin:round;stroke-miterlimit:4;stroke-dasharray:none;stroke-opacity:1"
       id="path3090" />
    <path
       d="m 361.46645,469.7464 c -2.83625,-8.4675 -11.075,-43.48125 12.865,-117.885"
       style="fill:none;stroke:#1d1d1d;stroke-width:0.625;stroke-linecap:round;stroke-linejoin:round;stroke-miterlimit:4;stroke-dasharray:none;stroke-opacity:1"
       id="path3094" />
    <path
       d="m 404.97595,469.15802 c 2.815,-9.55124 9.815,-45.43625 -13.67,-118.42749"
       style="fill:none;stroke:#1d1d1d;stroke-width:0.625;stroke-linecap:round;stroke-linejoin:round;stroke-miterlimit:4;stroke-dasharray:none;stroke-opacity:1"
       id="path3098" />
    <path
       d="m 339.1947,459.13365 c -1.015,-4.9175 -16.23625,-82.62625 30.51376,-110.385"
       style="fill:none;stroke:#1d1d1d;stroke-width:0.625;stroke-linecap:round;stroke-linejoin:round;stroke-miterlimit:4;stroke-dasharray:none;stroke-opacity:1"
       id="path3102" />
    <path
       d="m 425.16883,459.37778 c 0,0 16.9775,-82.6175 -31.31125,-111.2875"
       style="fill:none;stroke:#1d1d1d;stroke-width:0.625;stroke-linecap:round;stroke-linejoin:round;stroke-miterlimit:4;stroke-dasharray:none;stroke-opacity:1"
       id="path3106" />
    <path
       d="m 368.10583,345.35428 c 0,0 -74.19625,19.52749 -51.29625,89.02625"
       style="fill:none;stroke:#1d1d1d;stroke-width:0.625;stroke-linecap:round;stroke-linejoin:round;stroke-miterlimit:4;stroke-dasharray:none;stroke-opacity:1"
       id="path3110" />
    <path
       d="m 312.83971,368.83815 c 0,0 14.89999,-27.16125 55.26624,-25.27625"
       style="fill:none;stroke:#1d1d1d;stroke-width:0.625;stroke-linecap:round;stroke-linejoin:round;stroke-miterlimit:4;stroke-dasharray:none;stroke-opacity:1"
       id="path3114" />
    <path
       d="m 335.3812,339.51203 c 6.24,-2.9675 17.04375,-5.01125 34.705,-0.1925"
       style="fill:none;stroke:#1d1d1d;stroke-width:0.625;stroke-linecap:round;stroke-linejoin:round;stroke-miterlimit:4;stroke-dasharray:none;stroke-opacity:1"
       id="path3118" />
    <path
       d="m 350.68145,330.12965 c 5.3425,-0.54 14.1575,-0.003 22.5175,6.925"
       style="fill:none;stroke:#1d1d1d;stroke-width:0.625;stroke-linecap:round;stroke-linejoin:round;stroke-miterlimit:4;stroke-dasharray:none;stroke-opacity:1"
       id="path3122" />
    <path
       d="m 378.95295,335.26278 c 0,0 -4.7,-8.17125 -10.74,-10.86"
       style="fill:none;stroke:#1d1d1d;stroke-width:0.625;stroke-linecap:round;stroke-linejoin:round;stroke-miterlimit:4;stroke-dasharray:none;stroke-opacity:1"
       id="path3126" />
    <path
       d="m 387.53446,336.01715 c 0,0 1.82875,-8.8825 6.5725,-11.8625"
       style="fill:none;stroke:#1d1d1d;stroke-width:0.625;stroke-linecap:round;stroke-linejoin:round;stroke-miterlimit:4;stroke-dasharray:none;stroke-opacity:1"
       id="path3130" />
    <path
       d="m 393.94808,340.45078 c 0,0 20.38625,-7.00875 37.36625,1.175"
       style="fill:none;stroke:#1d1d1d;stroke-width:0.625;stroke-linecap:round;stroke-linejoin:round;stroke-miterlimit:4;stroke-dasharray:none;stroke-opacity:1"
       id="path3134" />
    <path
       d="m 395.45808,342.80665 c 0,0 34.97,-2.39875 54.57875,23.52625"
       style="fill:none;stroke:#1d1d1d;stroke-width:0.625;stroke-linecap:round;stroke-linejoin:round;stroke-miterlimit:4;stroke-dasharray:none;stroke-opacity:1"
       id="path3138" />
    <path
       d="m 394.70245,346.20265 c 0,0 54.84251,9.02 61.84876,59.52375"
       style="fill:none;stroke:#1d1d1d;stroke-width:0.625;stroke-linecap:round;stroke-linejoin:round;stroke-miterlimit:4;stroke-dasharray:none;stroke-opacity:1"
       id="path3142" />
    <path
       d="m 381.49696,353.38778 c 7.51499,0 13.60749,-4.10375 13.60749,-9.165 0,-5.06375 -6.0925,-9.1675 -13.60749,-9.1675 -7.51251,0 -13.60376,4.10375 -13.60376,9.1675 0,5.06125 6.09125,9.165 13.60376,9.165 z"
       style="fill:none;stroke:#1d1d1d;stroke-width:0.625;stroke-linecap:round;stroke-linejoin:round;stroke-miterlimit:4;stroke-dasharray:none;stroke-opacity:1"
       id="path3146" />
    <path
       d="m 381.75321,373.05328 c 20.39249,0 36.93125,-11.13625 36.93125,-24.87625 0,-13.74125 -16.53876,-24.885 -36.93125,-24.885 -20.39,0 -36.925,11.14375 -36.925,24.885 0,13.74 16.535,24.87625 36.925,24.87625 z"
       style="fill:none;stroke:#1d1d1d;stroke-width:0.625;stroke-linecap:round;stroke-linejoin:round;stroke-miterlimit:4;stroke-dasharray:none;stroke-opacity:1"
       id="path3150" />
    <path
       d="m 383.0057,403.1864 c 32.34875,0 58.57125,-17.66625 58.57125,-39.46125 0,-21.79375 -26.2225,-39.46125 -58.57125,-39.46125 -32.34624,0 -58.56875,17.6675 -58.56875,39.46125 0,21.795 26.2225,39.46125 58.56875,39.46125 z"
       style="fill:none;stroke:#1d1d1d;stroke-width:0.625;stroke-linecap:round;stroke-linejoin:round;stroke-miterlimit:4;stroke-dasharray:none;stroke-opacity:1"
       id="path3154" />
    <path
       d="m 312.83971,368.83815 c -0.6875,2.7775 -1.04625,7.8975 -1.04625,10.8125 0,27.4625 31.81124,49.7225 71.05249,49.7225 39.24125,0 71.05375,-22.26 71.05375,-49.7225 0,-1.16125 -0.0562,-2.31375 -0.16875,-3.45625"
       style="fill:none;stroke:#1d1d1d;stroke-width:0.625;stroke-linecap:round;stroke-linejoin:round;stroke-miterlimit:4;stroke-dasharray:none;stroke-opacity:1"
       id="path3158" />
    <path
       d="m 307.82258,407.2464 c 4.9175,24.545 37.42875,44.16375 75.02375,44.16375 33.36125,0 62.36875,-14.8825 71.86625,-35.305"
       style="fill:none;stroke:#1d1d1d;stroke-width:0.625;stroke-linecap:round;stroke-linejoin:round;stroke-miterlimit:4;stroke-dasharray:none;stroke-opacity:1"
       id="path3162" />
    <path
       d="m 328.39995,450.04065 c 13.37875,8.9975 34.0325,16.23375 54.44625,16.23375 18.85375,0 36.06,-4.74875 49.12,-12.56125"
       style="fill:none;stroke:#1d1d1d;stroke-width:0.625;stroke-linecap:round;stroke-linejoin:round;stroke-miterlimit:4;stroke-dasharray:none;stroke-opacity:1"
       id="path3166" />
    <path
       d="m 391.02445,337.62115 c 0,0 7.71625,-7.5475 23.3075,-7.0425"
       style="fill:none;stroke:#1d1d1d;stroke-width:0.625;stroke-linecap:round;stroke-linejoin:round;stroke-miterlimit:4;stroke-dasharray:none;stroke-opacity:1"
       id="path3170" />
    <path
       d="m 332.51983,452.98615 2.74875,0.61 c 0,0 1.83375,2.4425 1.83375,0.61125 0,-1.8325 -1.2225,-2.44375 -0.915,-3.36 0.305,-0.91625 1.525,-2.1375 1.525,-2.1375 0,0 2.44375,0.305 2.13875,-0.61125 -0.305,-0.91625 -1.5275,-3.055 -2.74875,-3.36 -1.2225,-0.305 -1.52625,-0.61 -1.52625,-0.61 l -0.3075,-0.915 -1.83125,-2.75 c 0,0 -1.8325,-1.52875 -3.05625,-2.44625 -1.22125,-0.9125 -2.13625,-2.4425 -2.13625,-2.4425 l -1.2225,-1.22125 -1.22125,-0.61125 c 0,0 -1.22375,0.61125 -1.22375,-1.22125 l 0,-2.4425 c 0,0 -0.61,-2.44375 -1.22,-3.36125 -0.61,-0.915 -2.44125,-3.96875 -3.05375,-4.88625 -0.61125,-0.91625 -1.22125,-4.58125 -1.22125,-4.58125 l -0.915,-3.05375 c 0,0 -1.22375,-2.74875 -2.13875,-3.665 -0.91625,-0.91625 -0.61125,-2.13875 -1.22375,-3.36 -0.61,-1.2225 -0.915,-3.36 -2.44125,-4.27625 -1.52875,-0.9175 -1.52875,-0.305 -1.52875,-1.52625 0,-1.2225 -0.30625,-2.74875 -0.30625,-2.74875 0,0 0.30625,-1.83375 0.30625,-3.055 0,-1.22125 -0.9175,-3.665 0,-4.275 0.91875,-0.6125 0.91875,-1.22375 0.91875,-2.445 0,-1.22125 -0.91875,-2.74875 0,-3.66375 0.915,-0.9175 1.525,-1.8325 1.525,-3.055 l 0,-2.1375 c 0,0 -1.8325,-1.2225 -1.22,-2.1375 0.61,-0.9175 0.915,-3.055 1.52625,-3.97125 0.61,-0.91625 2.44375,-3.97125 2.44375,-3.97125 0,0 2.74875,-1.8325 2.13875,-0.305 -0.61125,1.52875 -1.22375,2.13875 -0.91875,3.05375 0.3075,0.9175 1.52875,3.66625 0.91875,4.5825 -0.61125,0.91625 -2.13875,2.1375 -2.13875,3.665 0,1.5275 0.305,2.44375 1.5275,0.61125 1.22125,-1.83375 1.22125,-4.5825 2.13625,-4.5825 0.91625,0 1.22375,1.2225 3.36,0.61125 l 1.83375,-1.5275 c 0,0 1.22,-0.305 2.74875,-0.305 1.525,0 2.74625,-0.305 2.74625,-0.305 0,0 1.83375,-0.30625 2.75125,0 0.91625,0.305 2.13625,0.61 2.7475,-0.30625 0.6125,-0.91625 1.5275,-2.44375 1.5275,-2.44375 l -0.915,-1.22 c 0,0 0.61,-0.6125 1.525,0.60875 0.91875,1.22375 1.83375,1.22375 2.75,1.83375 0.915,0.61125 2.13875,0.305 2.13875,0.305 0,0 0.305,0.91625 0.915,-0.305 0.61,-1.2225 1.52875,-1.5275 1.52875,-2.4425 0,-0.9175 -0.3075,-2.44375 -0.3075,-2.44375 0,0 0.6125,-1.2225 1.5275,-2.1375 0.91625,-0.9175 1.83375,-2.44375 1.83375,-2.44375 0,0 0,-0.6125 -0.9175,-0.9175 -0.91625,-0.30375 -2.13625,-0.61 -2.13625,-0.61 0,0 0.61,-0.91625 1.525,-1.8325 0.91875,-0.91625 2.75,-1.8325 2.13875,-2.74875 -0.61,-0.91625 -2.13875,-2.44375 -2.13875,-2.44375 0,0 -0.915,1.5275 -1.8325,1.8325 -0.91625,0.305 -2.7475,1.8325 -2.7475,1.8325 0,0 -0.6125,0.91625 -1.8325,0.91625 -1.22125,0 -1.52625,-0.305 -1.52625,-0.305 0,0 0,-1.2225 0.915,-2.44375 0.91625,-1.22125 0,-2.4425 0.61125,-3.36 0.61,-0.915 0.61,-2.1375 1.525,-2.44375 0.91875,-0.305 1.52875,-1.83125 2.44375,-1.83125 0.91875,0 2.13875,-0.30625 3.055,0 0.9175,0.305 2.13875,0.61125 2.13875,1.83125 l 0,2.44375 c 0,0 1.83,0 1.5275,-1.22 -0.3075,-1.22375 0.3025,-0.9175 1.22125,-0.9175 0.915,0 0.61,0.305 1.52625,0 0.915,-0.30625 2.1375,-0.91625 2.1375,-0.91625 l 0.61125,0.91625 -0.61125,1.8325 -1.2225,1.2225 -0.6075,1.52625 -0.3075,1.22125 0,1.5275 1.5275,-0.91625 c 0,0 1.52875,-0.305 1.83375,-1.52625 0.305,-1.2225 1.22125,-2.14 1.22125,-2.14 l 0.61,-2.1375 0.915,-1.83125 0.6125,-1.2225 0,-2.1375 -1.8325,0.61 -2.13875,1.83375 c 0,0 -3.0525,-0.91625 -1.52625,-1.5275 0,0 1.355,-0.36125 1.755,-0.535 0.4025,-0.17125 1.03125,-0.11375 1.20375,-0.80125 0.1725,-0.68875 0.28625,-0.915 -0.28625,-0.915 -0.5725,0 -0.22875,0.34125 -0.6875,0.11375 -0.45875,-0.23125 -0.45875,0.15375 -0.6875,-0.30625 -0.22875,-0.4575 -0.6875,-1.06875 -0.83875,-0.305 -0.15375,0.765 0.305,1.2225 -0.45875,1.75625 -0.76375,0.53375 -0.535,0.915 -0.99375,0.4575 -0.4575,-0.4575 -1.22,-0.305 -0.7625,-0.91625 0.45875,-0.61125 0.91625,-1.06875 0.91625,-1.06875 0,0 0.4575,-0.61125 0.84,-0.91625 0.38125,-0.30625 0.68625,-0.45875 0.68625,-0.9925 0,-0.535 -0.0763,-1.06875 0,-1.52625 0.0775,-0.45875 0.3825,-1.22375 -0.15125,-1.375 -0.535,-0.15375 -0.99375,-0.4575 -0.9175,-0.99375 0.075,-0.5325 0.15375,-0.61125 0,-0.83875 -0.1525,-0.23 0,-0.6875 0.45875,-0.6875 0.45875,0 0.53375,-0.535 0.9925,-0.535 0.4575,0 1.22125,-0.1525 1.07,0.3825 -0.15375,0.53375 -0.0788,0.305 -0.15375,0.9925 -0.0775,0.68625 -0.15125,0.5325 -0.45875,0.76375 -0.305,0.22875 -0.61125,0.075 -0.4575,0.38125 0.1525,0.30625 -0.53375,0.76375 0.38,0.68625 0.9175,-0.0763 0.69,-0.15125 1.3,-0.305 0.61125,-0.1525 0.765,0.15375 1.145,-0.4575 0.38125,-0.61 0.2275,-1.29875 0.68625,-1.06875 0.45875,0.22875 0.99375,-0.0775 0.9175,-0.3825 -0.0775,-0.305 0.4575,-0.61 0.4575,-0.61 l 0.84,-0.30625 0,-0.915 0.83875,-0.23 c 0,0 0.30625,-0.22875 0.38375,-0.6875 0.0762,-0.45875 0,-0.83875 0.61,-0.83875 0.61125,0 1.2225,0.1525 1.605,-0.0787 0.38125,-0.2275 0.45625,-0.0738 1.06625,0 0.6125,0.0787 0.53625,0.30625 0.53625,-0.305 0,-0.61 -0.84125,-0.915 0.53375,-0.83875 1.37375,0.0763 0.84,0.1525 1.5275,-0.0763 0.6875,-0.22875 1.22375,-0.0775 1.6025,-0.22875 0.38375,-0.1525 0.15375,-0.30625 0.6125,-0.45875 0.45875,-0.1525 1.145,-0.22875 1.145,-0.22875 0,0 0.3825,-0.15375 0.68875,-0.38 0.305,-0.23125 0.99125,-0.3075 0.99125,-0.3075 0,0 -0.38125,-0.4575 0,-0.84 0.3825,-0.38125 0.76375,-0.30625 0.91625,-0.76375 0.1525,-0.4575 0.2275,-0.84 -0.1525,-0.9925 -0.38125,-0.1525 -0.4575,0.0763 -0.535,-0.305 -0.075,-0.3825 -0.15375,-0.61125 -0.45875,-0.68875 -0.305,-0.0737 -0.83875,-0.305 -0.83875,-0.305 l 0.6875,-0.38 c 0,0 0,-0.84 -0.23,-1.07 -0.22875,-0.22875 -0.075,-0.22875 -0.68625,-0.22875 -0.6125,0 -0.53375,-0.15375 -0.84125,-0.0762 -0.305,0.0762 -0.61,0.23 -1.22,0.23 -0.61125,0 -0.53625,0.075 -0.99375,-0.0775 -0.45875,-0.1525 -0.91625,-0.23 -0.53375,-0.4575 0.38125,-0.23 0.53375,-0.3825 1.14375,-0.4575 0.6125,-0.0775 0.99375,-0.30625 0.99375,-0.30625 l -1.14625,0 c -0.68875,0 -0.84,-0.3825 -1.45,0.15375 -0.6125,0.5325 -0.305,0.305 -1.06875,0.38 -0.765,0.0775 -0.0763,0.0775 -0.91625,0.4575 -0.84125,0.3825 -0.45875,0.15375 -0.45875,0.15375 l -0.61,0.15375 0.0763,0.61 c 0,0 -0.38125,0.61 -0.61125,0.68875 -0.23,0.0738 -0.30625,0.15125 -0.61125,0.15125 -0.305,0 -0.61125,0.2275 -0.61125,0.2275 l -0.91625,0 c -0.23,0 -0.23,0.6125 -0.23,0.6125 0,0 -0.38,0.38125 -0.76375,0.4575 -0.38125,0.0763 -0.305,0.1525 -0.61,0.30625 -0.305,0.15125 -1.2975,0.075 -1.2975,0.075 0,0 -0.305,0.45875 -0.3825,0.765 -0.075,0.305 -0.305,0.305 -0.76375,0.305 -0.45625,0 -0.91625,0.1525 -0.91625,0.1525 0,0 -0.075,0.30625 -0.61,0.3825 -0.535,0.075 -1.45,0.15125 -1.45,0.15125 0,0 0.15125,0.1525 -0.15375,0.30625 -0.305,0.15125 -0.7625,0.305 -0.99375,0.3825 -0.2275,0.075 -1.985,0.075 -2.13625,0.45875 -0.15125,0.38 0.075,0.30375 -0.535,0.61 -0.61,0.30375 -0.84,0.30375 -1.06875,0.30375 -0.23,0 -0.38125,0.15375 -0.76375,0.3825 -0.38125,0.22875 0.0775,-0.22875 -0.68625,0.1525 -0.765,0.38375 -1.68,0.91625 -1.985,1.45125 l -0.305,0.535 c 0,0 -0.30875,0 -1.375,0.0762 -1.07,0.0763 -1.75625,0.15125 -1.75625,0.15125 0,0 -0.6125,0.23 -0.6875,0.6875 -0.0775,0.45875 0,0.61125 -0.45875,0.61125 -0.45875,0 -0.535,0.0775 -0.84,0.45875 -0.305,0.38125 -0.4575,0.99375 -1.06875,1.14625 -0.61125,0.1525 -0.68625,0.61 -1.68,0.38 -0.99125,-0.2275 -1.37375,-0.15375 -1.67875,0 -0.30625,0.1525 -0.1525,0.84 -0.6875,0.765 -0.535,-0.0775 -0.68875,-0.22875 -1.14625,-0.15375 -0.4575,0.0762 -1.375,0.0762 -1.375,0.0762 0,0 -12.75,8.705 -21.9125,30.0075 0,0 0.91625,0.3825 0.61,1.45125 -0.305,1.07 -1.06875,2.44375 -1.37375,3.055 -0.305,0.61 -0.765,2.90125 -0.61,3.66375 0.15125,0.76375 0.61,0.76375 0,1.83375 -0.61125,1.06875 -1.68125,3.05375 -1.3775,4.42875 0.30625,1.375 0.15375,2.595 0.15375,2.595 l -0.305,2.74875 c 0,0 -1.0675,0.9175 -0.9175,2.13875 0.15625,1.22125 0.30625,3.5125 0.15625,4.58125 -0.15625,1.07 0,1.985 0.30375,2.9025 0.305,0.915 0.4575,2.29 0.4575,3.35875 0,1.07 -0.1525,2.44375 -0.1525,2.44375 0,0 -0.915,0.305 -0.915,-0.61125 0,-0.91625 -0.6125,-1.8325 -0.6125,-1.8325 0,0 -0.4575,26.42 23.51875,48.86875 l 0.915,0.45875 z"
       style="fill:#ffffff;fill-opacity:1;fill-rule:nonzero;stroke:none"
       id="path3174" />
    <path
       d="m 332.51983,452.98615 2.74875,0.61 c 0,0 1.83375,2.4425 1.83375,0.61125 0,-1.8325 -1.2225,-2.44375 -0.915,-3.36 0.305,-0.91625 1.525,-2.1375 1.525,-2.1375 0,0 2.44375,0.305 2.13875,-0.61125 -0.305,-0.91625 -1.5275,-3.055 -2.74875,-3.36 -1.2225,-0.305 -1.52625,-0.61 -1.52625,-0.61 l -0.3075,-0.915 -1.83125,-2.75 c 0,0 -1.8325,-1.52875 -3.05625,-2.44625 -1.22125,-0.9125 -2.13625,-2.4425 -2.13625,-2.4425 l -1.2225,-1.22125 -1.22125,-0.61125 c 0,0 -1.22375,0.61125 -1.22375,-1.22125 l 0,-2.4425 c 0,0 -0.61,-2.44375 -1.22,-3.36125 -0.61,-0.915 -2.44125,-3.96875 -3.05375,-4.88625 -0.61125,-0.91625 -1.22125,-4.58125 -1.22125,-4.58125 l -0.915,-3.05375 c 0,0 -1.22375,-2.74875 -2.13875,-3.665 -0.91625,-0.91625 -0.61125,-2.13875 -1.22375,-3.36 -0.61,-1.2225 -0.915,-3.36 -2.44125,-4.27625 -1.52875,-0.9175 -1.52875,-0.305 -1.52875,-1.52625 0,-1.2225 -0.30625,-2.74875 -0.30625,-2.74875 0,0 0.30625,-1.83375 0.30625,-3.055 0,-1.22125 -0.9175,-3.665 0,-4.275 0.91875,-0.6125 0.91875,-1.22375 0.91875,-2.445 0,-1.22125 -0.91875,-2.74875 0,-3.66375 0.915,-0.9175 1.525,-1.8325 1.525,-3.055 l 0,-2.1375 c 0,0 -1.8325,-1.2225 -1.22,-2.1375 0.61,-0.9175 0.915,-3.055 1.52625,-3.97125 0.61,-0.91625 2.44375,-3.97125 2.44375,-3.97125 0,0 2.74875,-1.8325 2.13875,-0.305 -0.61125,1.52875 -1.22375,2.13875 -0.91875,3.05375 0.3075,0.9175 1.52875,3.66625 0.91875,4.5825 -0.61125,0.91625 -2.13875,2.1375 -2.13875,3.665 0,1.5275 0.305,2.44375 1.5275,0.61125 1.22125,-1.83375 1.22125,-4.5825 2.13625,-4.5825 0.91625,0 1.22375,1.2225 3.36,0.61125 l 1.83375,-1.5275 c 0,0 1.22,-0.305 2.74875,-0.305 1.525,0 2.74625,-0.305 2.74625,-0.305 0,0 1.83375,-0.30625 2.75125,0 0.91625,0.305 2.13625,0.61 2.7475,-0.30625 0.6125,-0.91625 1.5275,-2.44375 1.5275,-2.44375 l -0.915,-1.22 c 0,0 0.61,-0.6125 1.525,0.60875 0.91875,1.22375 1.83375,1.22375 2.75,1.83375 0.915,0.61125 2.13875,0.305 2.13875,0.305 0,0 0.305,0.91625 0.915,-0.305 0.61,-1.2225 1.52875,-1.5275 1.52875,-2.4425 0,-0.9175 -0.3075,-2.44375 -0.3075,-2.44375 0,0 0.6125,-1.2225 1.5275,-2.1375 0.91625,-0.9175 1.83375,-2.44375 1.83375,-2.44375 0,0 0,-0.6125 -0.9175,-0.9175 -0.91625,-0.30375 -2.13625,-0.61 -2.13625,-0.61 0,0 0.61,-0.91625 1.525,-1.8325 0.91875,-0.91625 2.75,-1.8325 2.13875,-2.74875 -0.61,-0.91625 -2.13875,-2.44375 -2.13875,-2.44375 0,0 -0.915,1.5275 -1.8325,1.8325 -0.91625,0.305 -2.7475,1.8325 -2.7475,1.8325 0,0 -0.6125,0.91625 -1.8325,0.91625 -1.22125,0 -1.52625,-0.305 -1.52625,-0.305 0,0 0,-1.2225 0.915,-2.44375 0.91625,-1.22125 0,-2.4425 0.61125,-3.36 0.61,-0.915 0.61,-2.1375 1.525,-2.44375 0.91875,-0.305 1.52875,-1.83125 2.44375,-1.83125 0.91875,0 2.13875,-0.30625 3.055,0 0.9175,0.305 2.13875,0.61125 2.13875,1.83125 l 0,2.44375 c 0,0 1.83,0 1.5275,-1.22 -0.3075,-1.22375 0.3025,-0.9175 1.22125,-0.9175 0.915,0 0.61,0.305 1.52625,0 0.915,-0.30625 2.1375,-0.91625 2.1375,-0.91625 l 0.61125,0.91625 -0.61125,1.8325 -1.2225,1.2225 -0.6075,1.52625 -0.3075,1.22125 0,1.5275 1.5275,-0.91625 c 0,0 1.52875,-0.305 1.83375,-1.52625 0.305,-1.2225 1.22125,-2.14 1.22125,-2.14 l 0.61,-2.1375 0.915,-1.83125 0.6125,-1.2225 0,-2.1375 -1.8325,0.61 -2.13875,1.83375 c 0,0 -3.0525,-0.91625 -1.52625,-1.5275 0,0 1.355,-0.36125 1.755,-0.535 0.4025,-0.17125 1.03125,-0.11375 1.20375,-0.80125 0.1725,-0.68875 0.28625,-0.915 -0.28625,-0.915 -0.5725,0 -0.22875,0.34125 -0.6875,0.11375 -0.45875,-0.23125 -0.45875,0.15375 -0.6875,-0.30625 -0.22875,-0.4575 -0.6875,-1.06875 -0.83875,-0.305 -0.15375,0.765 0.305,1.2225 -0.45875,1.75625 -0.76375,0.53375 -0.535,0.915 -0.99375,0.4575 -0.4575,-0.4575 -1.22,-0.305 -0.7625,-0.91625 0.45875,-0.61125 0.91625,-1.06875 0.91625,-1.06875 0,0 0.4575,-0.61125 0.84,-0.91625 0.38125,-0.30625 0.68625,-0.45875 0.68625,-0.9925 0,-0.535 -0.0763,-1.06875 0,-1.52625 0.0775,-0.45875 0.3825,-1.22375 -0.15125,-1.375 -0.535,-0.15375 -0.99375,-0.4575 -0.9175,-0.99375 0.075,-0.5325 0.15375,-0.61125 0,-0.83875 -0.1525,-0.23 0,-0.6875 0.45875,-0.6875 0.45875,0 0.53375,-0.535 0.9925,-0.535 0.4575,0 1.22125,-0.1525 1.07,0.3825 -0.15375,0.53375 -0.0788,0.305 -0.15375,0.9925 -0.0775,0.68625 -0.15125,0.5325 -0.45875,0.76375 -0.305,0.22875 -0.61125,0.075 -0.4575,0.38125 0.1525,0.30625 -0.53375,0.76375 0.38,0.68625 0.9175,-0.0763 0.69,-0.15125 1.3,-0.305 0.61125,-0.1525 0.765,0.15375 1.145,-0.4575 0.38125,-0.61 0.2275,-1.29875 0.68625,-1.06875 0.45875,0.22875 0.99375,-0.0775 0.9175,-0.3825 -0.0775,-0.305 0.4575,-0.61 0.4575,-0.61 l 0.84,-0.30625 0,-0.915 0.83875,-0.23 c 0,0 0.30625,-0.22875 0.38375,-0.6875 0.0762,-0.45875 0,-0.83875 0.61,-0.83875 0.61125,0 1.2225,0.1525 1.605,-0.0787 0.38125,-0.2275 0.45625,-0.0738 1.06625,0 0.6125,0.0787 0.53625,0.30625 0.53625,-0.305 0,-0.61 -0.84125,-0.915 0.53375,-0.83875 1.37375,0.0763 0.84,0.1525 1.5275,-0.0763 0.6875,-0.22875 1.22375,-0.0775 1.6025,-0.22875 0.38375,-0.1525 0.15375,-0.30625 0.6125,-0.45875 0.45875,-0.1525 1.145,-0.22875 1.145,-0.22875 0,0 0.3825,-0.15375 0.68875,-0.38 0.305,-0.23125 0.99125,-0.3075 0.99125,-0.3075 0,0 -0.38125,-0.4575 0,-0.84 0.3825,-0.38125 0.76375,-0.30625 0.91625,-0.76375 0.1525,-0.4575 0.2275,-0.84 -0.1525,-0.9925 -0.38125,-0.1525 -0.4575,0.0763 -0.535,-0.305 -0.075,-0.3825 -0.15375,-0.61125 -0.45875,-0.68875 -0.305,-0.0737 -0.83875,-0.305 -0.83875,-0.305 l 0.6875,-0.38 c 0,0 0,-0.84 -0.23,-1.07 -0.22875,-0.22875 -0.075,-0.22875 -0.68625,-0.22875 -0.6125,0 -0.53375,-0.15375 -0.84125,-0.0762 -0.305,0.0762 -0.61,0.23 -1.22,0.23 -0.61125,0 -0.53625,0.075 -0.99375,-0.0775 -0.45875,-0.1525 -0.91625,-0.23 -0.53375,-0.4575 0.38125,-0.23 0.53375,-0.3825 1.14375,-0.4575 0.6125,-0.0775 0.99375,-0.30625 0.99375,-0.30625 l -1.14625,0 c -0.68875,0 -0.84,-0.3825 -1.45,0.15375 -0.6125,0.5325 -0.305,0.305 -1.06875,0.38 -0.765,0.0775 -0.0763,0.0775 -0.91625,0.4575 -0.84125,0.3825 -0.45875,0.15375 -0.45875,0.15375 l -0.61,0.15375 0.0763,0.61 c 0,0 -0.38125,0.61 -0.61125,0.68875 -0.23,0.0738 -0.30625,0.15125 -0.61125,0.15125 -0.305,0 -0.61125,0.2275 -0.61125,0.2275 l -0.91625,0 c -0.23,0 -0.23,0.6125 -0.23,0.6125 0,0 -0.38,0.38125 -0.76375,0.4575 -0.38125,0.0763 -0.305,0.1525 -0.61,0.30625 -0.305,0.15125 -1.2975,0.075 -1.2975,0.075 0,0 -0.305,0.45875 -0.3825,0.765 -0.075,0.305 -0.305,0.305 -0.76375,0.305 -0.45625,0 -0.91625,0.1525 -0.91625,0.1525 0,0 -0.075,0.30625 -0.61,0.3825 -0.535,0.075 -1.45,0.15125 -1.45,0.15125 0,0 0.15125,0.1525 -0.15375,0.30625 -0.305,0.15125 -0.7625,0.305 -0.99375,0.3825 -0.2275,0.075 -1.985,0.075 -2.13625,0.45875 -0.15125,0.38 0.075,0.30375 -0.535,0.61 -0.61,0.30375 -0.84,0.30375 -1.06875,0.30375 -0.23,0 -0.38125,0.15375 -0.76375,0.3825 -0.38125,0.22875 0.0775,-0.22875 -0.68625,0.1525 -0.765,0.38375 -1.68,0.91625 -1.985,1.45125 l -0.305,0.535 c 0,0 -0.30875,0 -1.375,0.0762 -1.07,0.0763 -1.75625,0.15125 -1.75625,0.15125 0,0 -0.6125,0.23 -0.6875,0.6875 -0.0775,0.45875 0,0.61125 -0.45875,0.61125 -0.45875,0 -0.535,0.0775 -0.84,0.45875 -0.305,0.38125 -0.4575,0.99375 -1.06875,1.14625 -0.61125,0.1525 -0.68625,0.61 -1.68,0.38 -0.99125,-0.2275 -1.37375,-0.15375 -1.67875,0 -0.30625,0.1525 -0.1525,0.84 -0.6875,0.765 -0.535,-0.0775 -0.68875,-0.22875 -1.14625,-0.15375 -0.4575,0.0762 -1.375,0.0762 -1.375,0.0762 0,0 -12.75,8.705 -21.9125,30.0075 0,0 0.91625,0.3825 0.61,1.45125 -0.305,1.07 -1.06875,2.44375 -1.37375,3.055 -0.305,0.61 -0.765,2.90125 -0.61,3.66375 0.15125,0.76375 0.61,0.76375 0,1.83375 -0.61125,1.06875 -1.68125,3.05375 -1.3775,4.42875 0.30625,1.375 0.15375,2.595 0.15375,2.595 l -0.305,2.74875 c 0,0 -1.0675,0.9175 -0.9175,2.13875 0.15625,1.22125 0.30625,3.5125 0.15625,4.58125 -0.15625,1.07 0,1.985 0.30375,2.9025 0.305,0.915 0.4575,2.29 0.4575,3.35875 0,1.07 -0.1525,2.44375 -0.1525,2.44375 0,0 -0.915,0.305 -0.915,-0.61125 0,-0.91625 -0.6125,-1.8325 -0.6125,-1.8325 0,0 -0.4575,26.42 23.51875,48.86875 l 0.915,0.45875 z"
       style="fill:none;stroke:#1d1d1d;stroke-width:0.625;stroke-linecap:round;stroke-linejoin:round;stroke-miterlimit:10;stroke-dasharray:none;stroke-opacity:1"
       id="path3178" />
    <path
       d="m 333.60383,377.85802 c 0,0 0,-0.45874 0.76375,-0.45874 l 1.375,0 c 0,0 0.45875,-0.1525 0.76125,0.305 0.3075,0.45875 0.3075,0.30625 0.46,0.91625 0.15375,0.61125 -0.1525,1.07 -0.1525,1.07 l -0.45875,-0.765 c 0,0 -0.45875,-0.305 -1.06875,-0.61001 -0.61125,-0.30499 -1.68,-0.4575 -1.68,-0.4575"
       style="fill:#ffffff;fill-opacity:1;fill-rule:nonzero;stroke:none"
       id="path3182" />
    <path
       d="m 333.60383,377.85802 c 0,0 0,-0.45874 0.76375,-0.45874 l 1.375,0 c 0,0 0.45875,-0.1525 0.76125,0.305 0.3075,0.45875 0.3075,0.30625 0.46,0.91625 0.15375,0.61125 -0.1525,1.07 -0.1525,1.07 l -0.45875,-0.765 c 0,0 -0.45875,-0.305 -1.06875,-0.61001 -0.61125,-0.30499 -1.68,-0.4575 -1.68,-0.4575 z"
       style="fill:none;stroke:#1d1d1d;stroke-width:0.625;stroke-linecap:round;stroke-linejoin:round;stroke-miterlimit:10;stroke-dasharray:none;stroke-opacity:1"
       id="path3186" />
    <path
       d="m 340.47645,378.6209 c 0,0 -1.375,-0.61 -0.76375,-0.91625 0.61,-0.30625 0.61,-0.61125 1.37376,-0.61125 0.76249,0 0.30499,0 1.22124,-0.305 0.915,-0.305 0.915,-0.61 1.52875,-0.45875 0.61,0.15375 0,0.76375 -0.61375,1.06875 -0.61,0.30625 -0.76125,0 -0.45625,0.9175 0.305,0.915 0.61001,0.1525 0.15375,1.37375 -0.45874,1.2225 -0.15375,1.68 -0.76375,1.68 -0.61125,0 -0.91625,0.61125 -0.91625,-0.1525 0,-0.76375 -0.30749,-1.5275 -0.30749,-1.5275 0,0 -0.915,-0.76375 -0.45625,-1.06875"
       style="fill:#ffffff;fill-opacity:1;fill-rule:nonzero;stroke:none"
       id="path3190" />
    <path
       d="m 340.47645,378.6209 c 0,0 -1.375,-0.61 -0.76375,-0.91625 0.61,-0.30625 0.61,-0.61125 1.37376,-0.61125 0.76249,0 0.30499,0 1.22124,-0.305 0.915,-0.305 0.915,-0.61 1.52875,-0.45875 0.61,0.15375 0,0.76375 -0.61375,1.06875 -0.61,0.30625 -0.76125,0 -0.45625,0.9175 0.305,0.915 0.61001,0.1525 0.15375,1.37375 -0.45874,1.2225 -0.15375,1.68 -0.76375,1.68 -0.61125,0 -0.91625,0.61125 -0.91625,-0.1525 0,-0.76375 -0.30749,-1.5275 -0.30749,-1.5275 0,0 -0.915,-0.76375 -0.45625,-1.06875 z"
       style="fill:none;stroke:#1d1d1d;stroke-width:0.625;stroke-linecap:round;stroke-linejoin:round;stroke-miterlimit:10;stroke-dasharray:none;stroke-opacity:1"
       id="path3194" />
    <path
       d="m 349.18008,353.88215 -1.22125,0 -0.61,0.61 c 0,0 0,0.305 0.61,0.305 0.61125,0 1.22125,-0.915 1.22125,-0.915"
       style="fill:#ffffff;fill-opacity:1;fill-rule:nonzero;stroke:none"
       id="path3198" />
    <path
       d="m 349.18008,353.88215 -1.22125,0 -0.61,0.61 c 0,0 0,0.305 0.61,0.305 0.61125,0 1.22125,-0.915 1.22125,-0.915 z"
       style="fill:none;stroke:#1d1d1d;stroke-width:0.625;stroke-linecap:round;stroke-linejoin:round;stroke-miterlimit:10;stroke-dasharray:none;stroke-opacity:1"
       id="path3202" />
    <path
       d="m 351.01345,355.56178 c 0,0 -0.61,-0.1525 0.15125,0.4575 0.76375,0.61125 1.07001,0.305 0.45875,1.22249 -0.61,0.91625 -1.22,1.68001 -1.22,1.68001 0,0 0,0.305 -0.15375,1.06875 -0.15375,0.7625 0,1.8325 0,1.8325 l 0.61,0.1525 0.61001,-1.2225 c 0,0 0,0.9175 0.45874,1.07 0.4575,0.1525 1.22376,0.7625 1.375,0 0.15125,-0.76375 0.305,-0.4575 0.15125,-1.68 -0.15125,-1.22125 0.15375,-1.22125 0.45875,-1.68 0.3075,-0.45876 0.46,-1.22126 0.46,-1.22126 0,0 0.45875,-1.22249 -0.46,-1.375 -0.915,-0.15249 -1.22,-0.91625 -1.67874,-0.91625 -0.4575,0 -0.4575,-0.15249 -1.22126,0.1525 l 0,0.45875 z"
       style="fill:#ffffff;fill-opacity:1;fill-rule:nonzero;stroke:none"
       id="path3206" />
    <path
       d="m 351.01345,355.56178 c 0,0 -0.61,-0.1525 0.15125,0.4575 0.76375,0.61125 1.07001,0.305 0.45875,1.22249 -0.61,0.91625 -1.22,1.68001 -1.22,1.68001 0,0 0,0.305 -0.15375,1.06875 -0.15375,0.7625 0,1.8325 0,1.8325 l 0.61,0.1525 0.61001,-1.2225 c 0,0 0,0.9175 0.45874,1.07 0.4575,0.1525 1.22376,0.7625 1.375,0 0.15125,-0.76375 0.305,-0.4575 0.15125,-1.68 -0.15125,-1.22125 0.15375,-1.22125 0.45875,-1.68 0.3075,-0.45876 0.46,-1.22126 0.46,-1.22126 0,0 0.45875,-1.22249 -0.46,-1.375 -0.915,-0.15249 -1.22,-0.91625 -1.67874,-0.91625 -0.4575,0 -0.4575,-0.15249 -1.22126,0.1525 l 0,0.45875 z"
       style="fill:none;stroke:#1d1d1d;stroke-width:0.625;stroke-linecap:round;stroke-linejoin:round;stroke-miterlimit:10;stroke-dasharray:none;stroke-opacity:1"
       id="path3210" />
    <path
       d="m 354.22158,354.3399 -0.3075,-0.61 1.68,0 c 0,0 0,0.1525 -0.46,0.61 -0.45625,0.4575 -0.9125,0 -0.9125,0"
       style="fill:#ffffff;fill-opacity:1;fill-rule:nonzero;stroke:none"
       id="path3214" />
    <path
       d="m 354.22158,354.3399 -0.3075,-0.61 1.68,0 c 0,0 0,0.1525 -0.46,0.61 -0.45625,0.4575 -0.9125,0 -0.9125,0 z"
       style="fill:none;stroke:#1d1d1d;stroke-width:0.625;stroke-linecap:round;stroke-linejoin:round;stroke-miterlimit:10;stroke-dasharray:none;stroke-opacity:1"
       id="path3218" />
    <path
       d="m 360.17608,347.00953 c 0,0 -1.52875,-0.4575 -1.06875,-0.915 0.45625,-0.46001 0.61,-0.61125 0.61,-0.61125 l -0.61,-0.30626 -1.52625,0 c 0,0 -0.91875,0 -0.45875,-0.61124 0.45875,-0.61001 -0.30625,-1.06876 0.15125,-1.37376 0.45875,-0.305 0,-0.305 0.6125,-0.76375 0.61,-0.4575 0.15125,-0.61 0.915,-0.61 0.7625,0 0.61125,0.1525 1.83125,-0.305 1.22375,-0.45875 2.90375,-1.07 1.68,-0.155 -1.22125,0.9175 -1.68,0.765 -1.22125,1.2225 0.46,0.45875 0.765,0 0.765,0.61125 0,0.61125 -0.15375,0.76375 -0.765,0.9175 -0.61,0.15125 -0.45875,0.91375 -0.45875,0.91375 0,0 0.91875,0 0.765,0.76375 -0.1525,0.765 -0.61125,1.37625 -0.61125,1.37625 l -0.61,-0.61125"
       style="fill:#ffffff;fill-opacity:1;fill-rule:nonzero;stroke:#1d1d1d;stroke-width:0.625;stroke-linecap:round;stroke-linejoin:round;stroke-miterlimit:10;stroke-dasharray:none;stroke-opacity:1"
       id="path3222" />
    <path
       d="m 363.07645,338.76378 -0.915,0.61 c 0,0 0.15125,0.1525 0.915,0.4575 0.76375,0.3075 0.61001,0.9175 0.61001,0.9175 l 1.3775,0 0,-1.2225 c 0,0 0.15125,-0.305 -0.6125,-0.305 -0.765,0 -1.37501,-0.4575 -1.37501,-0.4575"
       style="fill:#ffffff;fill-opacity:1;fill-rule:nonzero;stroke:none"
       id="path3226" />
    <path
       d="m 363.07645,338.76378 -0.915,0.61 c 0,0 0.15125,0.1525 0.915,0.4575 0.76375,0.3075 0.61001,0.9175 0.61001,0.9175 l 1.3775,0 0,-1.2225 c 0,0 0.15125,-0.305 -0.6125,-0.305 -0.765,0 -1.37501,-0.4575 -1.37501,-0.4575 z"
       style="fill:none;stroke:#1d1d1d;stroke-width:0.625;stroke-linecap:round;stroke-linejoin:round;stroke-miterlimit:10;stroke-dasharray:none;stroke-opacity:1"
       id="path3230" />
    <path
       d="m 366.58971,340.74865 c 0,0 0,-0.61 0.61,-0.4575 0.61125,0.1525 1.375,0.61 1.375,0.61 l -0.76375,0.61125 c 0,0 -0.1525,-0.91625 -1.22125,-0.76375"
       style="fill:#ffffff;fill-opacity:1;fill-rule:nonzero;stroke:none"
       id="path3234" />
    <path
       d="m 366.58971,340.74865 c 0,0 0,-0.61 0.61,-0.4575 0.61125,0.1525 1.375,0.61 1.375,0.61 l -0.76375,0.61125 c 0,0 -0.1525,-0.91625 -1.22125,-0.76375 z"
       style="fill:none;stroke:#1d1d1d;stroke-width:0.625;stroke-linecap:round;stroke-linejoin:round;stroke-miterlimit:10;stroke-dasharray:none;stroke-opacity:1"
       id="path3238" />
    <path
       d="m 363.3817,344.87215 c 0,0 0.45875,-0.45875 0.45875,-0.91625 0,-0.45875 -0.45875,-0.45875 -0.15375,-0.91625 0.3075,-0.45875 0,-0.61125 0.76375,-0.91625 0.765,-0.305 0.30625,-0.61125 0.91875,-0.305 0.61,0.305 1.22,0.1525 0.915,0.91625 -0.305,0.7625 -0.915,0.4575 -1.37375,1.06875 -0.46,0.61 0,0.4575 -0.15375,1.22 -0.15125,0.76375 0.915,0.61125 -1.375,-0.15125"
       style="fill:#ffffff;fill-opacity:1;fill-rule:nonzero;stroke:none"
       id="path3242" />
    <path
       d="m 363.3817,344.87215 c 0,0 0.45875,-0.45875 0.45875,-0.91625 0,-0.45875 -0.45875,-0.45875 -0.15375,-0.91625 0.3075,-0.45875 0,-0.61125 0.76375,-0.91625 0.765,-0.305 0.30625,-0.61125 0.91875,-0.305 0.61,0.305 1.22,0.1525 0.915,0.91625 -0.305,0.7625 -0.915,0.4575 -1.37375,1.06875 -0.46,0.61 0,0.4575 -0.15375,1.22 -0.15125,0.76375 0.915,0.61125 -1.375,-0.15125 z"
       style="fill:none;stroke:#1d1d1d;stroke-width:0.625;stroke-linecap:round;stroke-linejoin:round;stroke-miterlimit:10;stroke-dasharray:none;stroke-opacity:1"
       id="path3246" />
    <path
       d="m 363.53546,345.94153 -1.06876,0 -0.46,0.61 1.52875,0.30625 0,-0.91625 z"
       style="fill:#ffffff;fill-opacity:1;fill-rule:nonzero;stroke:none"
       id="path3250" />
    <path
       d="m 363.53546,345.94153 -1.06876,0 -0.46,0.61 1.52875,0.30625 0,-0.91625 z"
       style="fill:none;stroke:#1d1d1d;stroke-width:0.625;stroke-linecap:round;stroke-linejoin:round;stroke-miterlimit:10;stroke-dasharray:none;stroke-opacity:1"
       id="path3254" />
    <path
       d="m 314.51445,383.5074 c 0,0 1.22376,0.305 1.375,0.76375 0.15376,0.45875 0,0.61125 0,1.2225 0,0.61 -0.46,-0.1525 -0.30625,0.915 0.15501,1.07 0,0.9175 0.15501,1.5275 0.15124,0.61125 0.305,1.375 0.305,1.83375 0,0.4575 -0.15376,1.22 -0.15376,1.22 0,0 0.15376,0.9175 0.15376,1.68 0,0.76375 0.15124,1.375 0.15124,1.375 0,0 -0.76499,0 -0.91624,-0.76375 -0.15375,-0.7625 0.305,0.305 -0.305,-1.06875 -0.61,-1.37375 -0.9175,-0.91625 -0.61,-1.68 0.30499,-0.7625 0.76125,-0.91625 0.61,-1.37375 -0.15376,-0.45875 -0.30501,-0.61125 -0.15376,-1.06875 0.15376,-0.4575 0.30501,-1.37625 0.30501,-1.37625 0,0 -0.30501,-0.7625 -0.30501,-1.3725 0,-0.61125 -0.45624,-1.07 -0.45624,-1.07 l 0.15124,-0.76375 z"
       style="fill:#ffffff;fill-opacity:1;fill-rule:nonzero;stroke:none"
       id="path3258" />
    <path
       d="m 314.51445,383.5074 c 0,0 1.22376,0.305 1.375,0.76375 0.15376,0.45875 0,0.61125 0,1.2225 0,0.61 -0.46,-0.1525 -0.30625,0.915 0.15501,1.07 0,0.9175 0.15501,1.5275 0.15124,0.61125 0.305,1.375 0.305,1.83375 0,0.4575 -0.15376,1.22 -0.15376,1.22 0,0 0.15376,0.9175 0.15376,1.68 0,0.76375 0.15124,1.375 0.15124,1.375 0,0 -0.76499,0 -0.91624,-0.76375 -0.15375,-0.7625 0.305,0.305 -0.305,-1.06875 -0.61,-1.37375 -0.9175,-0.91625 -0.61,-1.68 0.30499,-0.7625 0.76125,-0.91625 0.61,-1.37375 -0.15376,-0.45875 -0.30501,-0.61125 -0.15376,-1.06875 0.15376,-0.4575 0.30501,-1.37625 0.30501,-1.37625 0,0 -0.30501,-0.7625 -0.30501,-1.3725 0,-0.61125 -0.45624,-1.07 -0.45624,-1.07 l 0.15124,-0.76375 z"
       style="fill:none;stroke:#1d1d1d;stroke-width:0.625;stroke-linecap:round;stroke-linejoin:round;stroke-miterlimit:10;stroke-dasharray:none;stroke-opacity:1"
       id="path3262" />
    <path
       d="m 316.65321,385.95128 c 0,0 -0.15376,-0.1525 -0.15376,0.7625 0,0.91875 0.305,1.37625 0.305,1.37625 0,0 0.45875,-0.15375 0.3075,-0.61125 -0.15375,-0.45875 -0.45874,-1.5275 -0.45874,-1.5275"
       style="fill:#ffffff;fill-opacity:1;fill-rule:nonzero;stroke:none"
       id="path3266" />
    <path
       d="m 316.65321,385.95128 c 0,0 -0.15376,-0.1525 -0.15376,0.7625 0,0.91875 0.305,1.37625 0.305,1.37625 0,0 0.45875,-0.15375 0.3075,-0.61125 -0.15375,-0.45875 -0.45874,-1.5275 -0.45874,-1.5275 z"
       style="fill:none;stroke:#1d1d1d;stroke-width:0.625;stroke-linecap:round;stroke-linejoin:round;stroke-miterlimit:10;stroke-dasharray:none;stroke-opacity:1"
       id="path3270" />
    <path
       d="m 315.73758,394.8074 c 0,0 0.45625,0.45875 0.15125,1.22375 -0.305,0.7625 -0.45875,1.37375 -0.45875,1.37375 0,0 0,0.61 0.45875,0.7625 0.45875,0.15375 1.07,0.46 1.07,0.46 l 0.915,1.525 c 0,0 0.15375,-0.61 -0.15375,-1.3725 -0.305,-0.765 -1.0675,-2.29125 -1.0675,-2.29125 l -0.305,-1.375 -0.61,-0.30625 z"
       style="fill:#ffffff;fill-opacity:1;fill-rule:nonzero;stroke:none"
       id="path3274" />
    <path
       d="m 315.73758,394.8074 c 0,0 0.45625,0.45875 0.15125,1.22375 -0.305,0.7625 -0.45875,1.37375 -0.45875,1.37375 0,0 0,0.61 0.45875,0.7625 0.45875,0.15375 1.07,0.46 1.07,0.46 l 0.915,1.525 c 0,0 0.15375,-0.61 -0.15375,-1.3725 -0.305,-0.765 -1.0675,-2.29125 -1.0675,-2.29125 l -0.305,-1.375 -0.61,-0.30625 z"
       style="fill:none;stroke:#1d1d1d;stroke-width:0.625;stroke-linecap:round;stroke-linejoin:round;stroke-miterlimit:10;stroke-dasharray:none;stroke-opacity:1"
       id="path3278" />
    <path
       d="m 318.18145,401.37477 c 0,0 -0.46125,0 -0.3075,0.4575 0.15376,0.4575 -0.305,0.15376 0.45875,0.4575 0.76375,0.3075 0.76375,-0.60874 0.76375,-0.60874 l -0.915,-0.30626 z"
       style="fill:#ffffff;fill-opacity:1;fill-rule:nonzero;stroke:none"
       id="path3282" />
    <path
       d="m 318.18145,401.37477 c 0,0 -0.46125,0 -0.3075,0.4575 0.15376,0.4575 -0.305,0.15376 0.45875,0.4575 0.76375,0.3075 0.76375,-0.60874 0.76375,-0.60874 l -0.915,-0.30626 z"
       style="fill:none;stroke:#1d1d1d;stroke-width:0.625;stroke-linecap:round;stroke-linejoin:round;stroke-miterlimit:10;stroke-dasharray:none;stroke-opacity:1"
       id="path3286" />
    <path
       d="m 313.4452,387.78353 -0.15125,-1.2225 -0.305,-0.7625 c 0,0 0.61,0.305 0.76125,0.7625 0.15376,0.46 -0.305,1.2225 -0.305,1.2225"
       style="fill:#ffffff;fill-opacity:1;fill-rule:nonzero;stroke:none"
       id="path3290" />
    <path
       d="m 313.4452,387.78353 -0.15125,-1.2225 -0.305,-0.7625 c 0,0 0.61,0.305 0.76125,0.7625 0.15376,0.46 -0.305,1.2225 -0.305,1.2225 z"
       style="fill:none;stroke:#1d1d1d;stroke-width:0.625;stroke-linecap:round;stroke-linejoin:round;stroke-miterlimit:10;stroke-dasharray:none;stroke-opacity:1"
       id="path3294" />
    <path
       d="m 313.2572,391.0379 c -0.1175,0.34625 -0.1175,0.23125 -0.1175,0.5775 0,0.34875 -0.34625,0.9275 -0.34625,0.9275 l -0.23375,0.69375 c 0,0 0.465,-0.23125 0.92875,-0.69375 0.4625,-0.4625 0.23,-0.9275 0.23,-0.9275 l -0.46125,-0.5775 z"
       style="fill:#ffffff;fill-opacity:1;fill-rule:nonzero;stroke:none"
       id="path3298" />
    <path
       d="m 313.2572,391.0379 c -0.1175,0.34625 -0.1175,0.23125 -0.1175,0.5775 0,0.34875 -0.34625,0.9275 -0.34625,0.9275 l -0.23375,0.69375 c 0,0 0.465,-0.23125 0.92875,-0.69375 0.4625,-0.4625 0.23,-0.9275 0.23,-0.9275 l -0.46125,-0.5775 z"
       style="fill:none;stroke:#1d1d1d;stroke-width:0.625;stroke-linecap:round;stroke-linejoin:round;stroke-miterlimit:10;stroke-dasharray:none;stroke-opacity:1"
       id="path3302" />
    <path
       d="m 383.61845,328.37915 c 0,0 0,0.22875 -0.9175,0 -0.91625,-0.23 -1.375,0.22875 -1.375,0.22875 0,0 0,-0.6875 -1.375,-0.45875 -1.37375,0.23 -2.06125,0.45875 -2.06125,0.45875 0,0 -1.375,0.4575 -0.4575,0.6875 0.91625,0.22875 1.8325,0.68625 1.8325,0.68625 l 1.605,0.4575 1.145,0.23 c 0,0 0.68625,0.23 1.3725,0.4575 0.6875,0.23 2.29125,0.23 2.9775,0.23 0.68875,0 1.375,-0.4575 2.06375,-0.23 0.685,0.23 1.60375,0.45875 1.60375,0.45875 0,0 0,0.9175 0.915,1.145 0.91625,0.23 1.83125,0.6875 1.83125,0.6875 0,0 0.91875,0.23 1.3775,0.9175 0.45625,0.685 1.37125,1.83125 1.37125,1.83125 l 1.60625,0.22875 1.83125,0.68875 1.37375,0.68625 0.22875,1.37375 c 0,0 -0.22875,0.23 0.23,1.375 0.4575,1.145 1.6025,2.29 1.6025,2.29 0,0 -1.37375,-1.37375 -2.06125,-1.37375 -0.6875,0 -0.4575,0.22875 -0.915,1.37375 -0.45875,1.14625 -1.14625,1.37625 -1.14625,1.37625 0,0 -0.91625,0.2275 1.14625,1.145 2.06125,0.91625 1.37375,0.685 1.6025,1.37375 0.22875,0.6875 0.6875,0.9175 1.14625,1.8325 0.4575,0.91625 0.6875,1.375 0.6875,1.375 l 1.145,0.2275 c 0,0 -0.23,0.9175 0.6875,1.83375 0.91625,0.915 1.145,0.4575 1.83125,1.6025 0.6875,1.145 1.145,1.60375 1.145,1.60375 0,0 -2.97625,-1.60375 -3.66375,-2.06125 -0.68625,-0.4575 -2.06125,-0.91625 -1.375,-0.23 0.68875,0.6875 0.45875,1.14625 1.375,1.8325 0.91625,0.68875 2.29125,1.60375 2.29125,1.60375 l -0.23125,0.68625 c 0,0 -1.14375,-0.4575 -1.14375,0.45875 0,0.9175 0.4575,0.68875 0.4575,1.375 0,0.68875 0.23,0.68875 -0.4575,1.14625 -0.6875,0.4575 -1.14625,0.4575 -1.14625,1.375 l 0,2.06 c 0,0 -0.91499,-0.68625 -1.6025,-0.915 -0.6875,-0.23 -1.375,-0.46 -0.9175,0.4575 0.45875,0.915 0.68875,0.915 1.375,1.60375 0.68875,0.68625 0.45875,1.37375 0.45875,1.37375 l -0.91625,0 0.4575,1.6025 -0.68625,0 -0.23,1.60375 -1.60375,-1.145 c 0,0 -1.60375,-0.68625 -0.68625,-0.91625 0.915,-0.22875 1.37376,-0.68625 1.37376,-0.68625 l 0.45749,-0.91625 -1.60375,-0.6875 -1.145,0 c 0,0 -0.68625,-0.22875 -1.3725,-0.22875 -0.6875,0 -1.14625,-0.68875 -1.14625,-0.68875 l -1.145,-0.68625 -1.605,0.45875 -1.145,0.91625 c 0,0 -1.145,1.37375 -1.8325,1.6025 -0.68625,0.23 -0.68625,1.37375 -0.68625,1.37375 l -0.22875,1.375 c 0,0 -0.4575,0.91625 -0.23125,1.605 0.23125,0.68625 0,0.91625 -0.685,1.83125 -0.68875,0.9175 -1.145,1.8325 -1.145,1.8325 l -1.14625,0.9175 c 0,0 -0.9175,0.2275 -0.9175,1.145 0,0.915 -0.22875,2.7475 -0.22875,2.7475 0,0 0.6875,1.14625 1.37375,1.37625 0.68875,0.22875 1.14625,0.68625 1.14625,0.68625 l 1.14625,-0.4575 0.6875,-1.1475 c 0,0 -0.23125,0.46 0.22875,1.1475 0.45875,0.6875 1.145,1.60375 1.145,1.60375 l 0.4575,1.14375 0.91625,0.23125 0.68625,-0.68875 0.68875,-0.2275 0.45875,-1.375 -0.45875,-1.14625 0,-0.91625 0.45875,-0.68625 0,-0.91875 -0.91625,-0.915 0,-1.145 0.4575,-0.915 c 0,0 0.45875,-0.23 0.45875,-0.9175 l 0,-2.06125 c 0,0 -0.22875,-0.68625 0.4575,-0.9175 0.6875,-0.2275 0.6875,-0.2275 0.6875,0.68875 0,0.915 -0.22875,1.37375 -0.22875,2.06125 l 0,2.06125 c 0,0.6875 0.22875,1.145 0.22875,1.145 0,0 0.22875,0 0.91625,0.23 0.68625,0.2275 0.45875,0.4575 1.14625,0.2275 0.68625,-0.2275 0.68625,0 0.68625,0 l 0,1.14625 0.68625,0.91625 -1.3725,0.45875 -0.23125,1.83375 0.45875,1.3725 -0.6875,0.91625 -1.14625,0.23 c 0,0 -0.685,0.68625 -1.37125,0.9175 -0.68875,0.2275 -1.605,0.2275 -1.605,0.2275 0,0 0,-0.45875 -0.91625,0 -0.91625,0.4575 -1.6025,0.6875 -1.6025,0 0,-0.6875 -0.23125,-1.145 -0.23125,-1.145 0,0 0,-0.4575 -0.2275,-1.14625 -0.22875,-0.68625 -0.68625,-0.68625 -0.68625,-0.68625 l -0.68875,1.14375 0.23,1.83375 c 0,0 0.45875,0.4575 0,1.14625 -0.45875,0.68625 -0.9175,0.68625 -0.9175,0.68625 0,0 -0.6875,-0.22875 -1.14625,0.4575 -0.45625,0.6875 -0.45625,0.9175 -0.45625,0.9175 l -1.14625,0.915 -0.4575,0.9175 -0.68625,0.915 -0.9175,0.45875 -0.91625,0.4575 -1.14625,-0.4575 -0.2275,0.6875 -0.6875,0.4575 c 0,0 0,-0.2275 -0.9175,0 -0.91625,0.22875 -0.91625,0.45875 -0.91625,0.45875 l 0.91625,1.375 c 0,0 0,0.2275 0.68875,0.91625 0.68625,0.68625 0.68625,0.45875 0.91625,1.375 0.2275,0.915 0.2275,0.68625 0.2275,1.60125 0,0.9175 -0.2275,1.375 -0.2275,1.375 0,0 -0.46,0.23 -1.375,0.23 -0.9175,0 -1.14625,-0.23 -1.83375,-0.23 -0.6875,0 -1.6025,-0.22875 -1.6025,-0.22875 0,0 -0.6875,0.22875 -1.37375,0.45875 -0.6875,0.22875 -0.6875,-0.23 -0.6875,0.68625 0,0.9175 -0.22875,2.74875 -0.22875,2.74875 l -0.22875,1.37375 -0.6875,0.91625 c 0,0 0.2275,0.23 0.6875,1.14625 0.4575,0.9175 0.22875,0.46 0.91625,0.9175 0.6875,0.4575 0.45625,0.2275 1.145,0.68625 0.68625,0.4575 0.68625,0.68625 1.3725,0.4575 0.6875,-0.22875 0.9175,-0.22875 1.60375,0 0.6875,0.22875 0.6875,0.45875 1.605,-0.22875 0.915,-0.6875 1.37375,-0.915 1.37375,-0.915 0,0 0.22875,-0.23125 0.45875,-0.9175 0.22875,-0.6875 0.22875,-0.91625 0.45875,-1.60375 0.22875,-0.68625 0.4575,-0.91625 1.145,-1.37375 0.6875,-0.45875 0.6875,0 0.915,-0.6875 0.23,-0.6875 0,-0.6875 0,-0.6875 0,0 0.6875,-0.6875 0.91625,-1.375 0.22875,-0.685 0.22875,-0.915 1.14625,-0.915 0.91625,0 0.4575,0 1.37375,0.23 0.9175,0.2275 0.6875,0.2275 1.37625,-0.45875 0.68625,-0.6875 0.4575,-0.6875 1.3725,-0.9175 0.91625,-0.22875 0.6875,-0.4575 1.375,0.6875 0.6875,1.14625 2.9775,1.83375 2.9775,1.83375 l 1.375,0.915 c 0.68625,0.4575 0.68625,0.6875 1.37375,0.91625 0.6875,0.23 0.91625,0.23 0.91625,0.91625 l 0,1.14625 0.9175,-1.375 0,-1.14625 1.3725,-0.2275 -0.22875,-0.6875 c 0,0 -0.22875,0 -0.915,-0.23 -0.6875,-0.2275 -1.14625,-0.4575 -1.14625,-0.4575 l -1.375,-0.6875 -0.915,-0.4575 -0.91625,-0.91625 c 0,0 -1.145,-0.45875 -1.145,-1.375 0,-0.91625 -0.91625,-1.375 0,-1.375 0,0 2.06125,0.9175 2.97625,1.375 0.9175,0.4575 1.14625,0.4575 1.83375,1.145 0.6875,0.6875 1.83125,0.45875 1.83125,0.45875 0,0 0.6875,-0.22875 0.45875,0.6875 -0.22875,0.915 -0.45875,1.145 0.22875,1.6025 0.68875,0.45875 1.375,0.6875 1.375,1.375 0,0.6875 0.68875,1.145 0.68875,1.145 l 1.37375,1.14625 c 0,0 0.68625,0.68625 0.68625,-0.23 0,-0.91625 -0.91625,-1.37375 -0.91625,-1.37375 l 1.14625,0 -1.14625,-1.375 -0.4575,-1.145 1.37375,-0.6875 c 0,0 0.23,-0.68625 0.9175,-0.91625 0.68625,-0.22875 0.915,-0.4575 0.915,-0.4575 0,0 0,0.91625 0.4575,1.60375 0.4575,0.6875 0,1.145 0.91625,1.8325 0.9175,0.68625 1.60375,1.145 1.60375,1.145 l 1.60375,0.4575 0.91625,0 c 0,0 -0.68625,-0.68625 0,-1.145 0.6875,-0.4575 2.0625,-0.6875 2.0625,-0.6875 l 0.68625,-0.915 0.9175,-0.6875 c 0,0 0.68625,1.145 0.915,2.29 0.23,1.145 0.23,1.375 0.23,2.51875 0,1.14625 0.6875,2.06375 0,2.75 -0.6875,0.68625 -0.6875,0.4575 -1.605,0.68625 -0.91625,0.23 -0.6875,0 -1.6025,0.6875 -0.91625,0.68875 -2.52,0.68875 -3.20625,0.68875 -0.68875,0 -1.37375,0.22875 -2.06125,0.4575 -0.6875,0.22875 -0.91875,0.4575 -1.83375,0.22875 -0.915,-0.22875 -1.14625,-1.145 -1.8325,-0.22875 -0.68625,0.91625 -1.145,2.06125 -1.145,2.06125 l -0.915,1.37375 c 0,0 -0.23,-0.68625 -1.375,-0.68625 l -1.605,0 c -0.6875,0 -0.4575,0.68625 -1.14375,-0.22875 -0.68875,-0.91625 -0.23,-0.91625 -1.14625,-0.91625 -0.915,0 -0.6875,0 -1.6025,-0.23 -0.91875,-0.22875 -1.375,-0.22875 -1.375,-0.22875 0,0 -1.37375,0 -1.37375,-0.91625 0,-0.9175 0.45875,-1.145 0.45875,-1.145 0,0 -0.45875,-0.23 -0.45875,-0.9175 0,-0.68625 -0.23,-1.60375 -0.91875,-1.145 -0.68625,0.45875 -1.14375,0 -2.29,0 -1.14375,0 -1.83125,0 -2.74875,0.23 -0.91625,0.22875 -1.83125,-0.23 -2.52,0.22875 -0.68625,0.4575 -1.145,0.91625 -2.06,1.37375 -0.91625,0.4575 -2.52125,0.68875 -2.52125,0.68875 l -2.06125,0 c -1.375,0 -0.45875,-0.68875 -1.83125,0 -1.375,0.68625 -1.60375,0.22875 -2.06125,0.915 -0.45875,0.6875 -1.8325,1.60375 -1.8325,1.60375 l -1.145,1.60375 -0.68875,1.375 c 0,0 -0.23,1.14375 -1.14625,1.83125 -0.915,0.6875 -2.06125,0.9175 -2.06125,0.9175 0,0 -1.14625,0.2275 -1.60375,1.145 -0.4575,0.915 -1.6025,2.51875 -2.52,3.20625 -0.91625,0.6875 -1.60375,0.6875 -1.375,2.29 0.23,1.605 -0.22875,1.605 -0.22875,2.97875 l 0,2.06125 c 0,0.6875 -0.2275,1.37375 -0.4575,2.29 -0.22875,0.9175 -1.145,1.8325 -0.68625,2.52125 0.4575,0.68625 0,1.83125 1.6025,2.29 1.60375,0.45875 1.37375,0.45875 2.0625,1.37625 0.68625,0.915 1.83125,1.145 1.83125,1.8325 l 0,1.83125 c 0,0 0.45875,-0.68625 1.60375,0.91625 1.145,1.60375 2.06125,2.0625 2.06125,2.0625 0,0 1.60625,0.22875 2.2925,0.22875 0.6875,0 1.8325,-0.22875 2.51875,-0.22875 0.6875,0 2.52,0.68625 2.52,0.68625 0,0 0.4575,0.4575 1.60375,0.23 1.145,-0.23 1.145,-0.23 2.06125,-0.6875 0.9175,-0.45875 2.52125,-0.6875 2.52125,-0.6875 0,0 1.60125,-0.4575 2.51875,-0.23 0.91625,0.23 1.37375,0 2.06125,0.23 0.68875,0.22875 1.14625,1.145 1.14625,1.145 0,0 0.22875,0 1.6025,-0.4575 1.375,-0.45875 2.29,-0.45875 2.29,-0.45875 0,0 0.91875,0 1.14625,0.6875 0.22875,0.68625 1.14375,0.91625 0.45875,1.8325 -0.68625,0.91625 -0.91625,2.0625 -0.91625,2.0625 0,0 -0.22875,0.2275 0.68625,1.145 0.915,0.91625 0.6875,0.91625 1.375,1.60375 0.68625,0.6875 1.14625,0.6875 1.37375,1.3725 0.23,0.68875 1.145,2.06375 1.145,2.06375 0,0 0.9175,1.14375 0.68875,2.06 -0.23,0.91625 -0.9175,1.60375 -0.9175,1.60375 l -1.14375,1.60375 c 0,0 -0.46,0.6875 0,1.37375 0.4575,0.68875 1.83125,1.605 1.83125,2.52125 0,0.915 0.23,1.145 0.23,1.145 0,0 0.45625,-0.91625 1.14375,0.45625 0.6875,1.375 0.6875,1.375 1.605,1.83375 0.91625,0.45625 1.6025,0.23 1.6025,0.23 0,0 3.43625,-1.605 4.58,-2.29125 1.14625,-0.6875 3.20875,-1.145 4.355,-1.83125 1.14375,-0.68875 2.29,-1.605 2.97625,-2.29125 0.6875,-0.68875 0.9175,-1.375 2.29125,-1.83375 1.375,-0.4575 2.74875,-1.60375 2.74875,-1.60375 0,0 0.6875,-0.22875 0.915,-1.37375 0.23125,-1.145 -1.3725,-0.6875 0.9175,-1.8325 2.29125,-1.145 0.68625,-1.83375 1.8325,-2.29125 1.14625,-0.4575 2.97625,-1.83375 2.97625,-1.83375 l 1.375,-1.83 c 0,0 0.23,-1.375 0,-2.75125 -0.22875,-1.3725 -0.68625,-4.12125 0,-4.8075 0.6875,-0.68875 1.83375,-2.97875 2.52,-3.6675 0.68875,-0.68625 2.06375,-2.74875 2.06375,-2.74875 0,0 1.8325,-3.2075 2.7475,-4.81 0.91625,-1.60375 1.375,-3.20625 1.8325,-4.3525 0.4575,-1.145 0,-1.6025 0.6875,-2.52 0.6875,-0.915 0.6875,-0.6875 0.45875,-2.06125 -0.23,-1.375 0.45625,-1.8325 -0.23,-1.8325 -0.6875,0 -0.91625,0 -2.06,1.145 -1.14625,1.14625 -1.375,1.60375 -1.375,1.60375 0,0 -0.45875,0.91625 -1.37375,1.37375 -0.91875,0.4575 -1.37625,0.23 -2.0625,-0.4575 -0.68875,-0.68625 -0.68875,-0.68625 -1.605,-0.91625 -0.91625,-0.22875 -2.51875,-0.6875 -2.51875,-0.6875 l -1.83375,-1.37375 -1.14375,-0.4575 c 0,0 -0.6875,-2.29 -1.375,-2.97875 -0.6875,-0.68625 -2.06125,-1.6025 -2.06125,-1.6025 l -1.145,-1.375 -0.91625,-1.145 -0.91625,-0.91625 0.91625,-0.45875 c 0,0 0.45875,-0.6875 1.37375,0 0.915,0.6875 2.74875,1.83125 2.74875,1.83125 l 1.375,1.37625 c 0,0 0.2275,0.4575 0.915,1.60375 0.6875,1.14375 1.6025,0.68625 2.29125,1.6025 0.68625,0.91625 1.8325,1.60375 1.8325,1.60375 0,0 0.4575,0 1.14375,1.14375 0.68875,1.14625 0.45875,3.2075 2.29375,0.9175 1.8325,-2.29 1.8325,-2.29 2.51875,-2.9775 0.6875,-0.6875 1.37375,-1.14625 1.60375,-1.8325 0.22875,-0.68875 0.915,-1.60375 0.915,-1.60375 l 0.23,-1.375 c 0,0 -0.91625,-0.915 0.45875,-1.6025 1.375,-0.6875 1.83125,-0.91625 1.83125,-0.91625 l 0.45875,-3.895 -0.22875,-1.8325 0,-1.8325 -0.23,-1.6025 -1.145,0 c 0,0 -0.23,0.68625 -0.91625,0 -0.6875,-0.6875 -0.91625,-0.6875 -0.91625,-0.6875 0,0 -1.14375,0.915 -1.14375,1.60375 l 0,1.375 -0.68875,0.685 -1.145,-0.2275 c 0,0 0,-0.91625 -1.37375,-0.91625 -1.37625,0 -2.06375,-0.6875 -2.06375,-0.6875 l -0.915,-0.9175 c 0,0 -0.45875,-1.8325 0.45625,-1.6025 0.91875,0.23 1.3775,0.4575 1.3775,0.4575 l 1.83125,0.45875 1.14625,0 c 0.91625,0 1.375,0 1.6025,-0.68625 0.22875,-0.6875 0.22875,-0.46 1.145,-0.46 0.9175,0 2.52,-1.6025 2.52,-1.6025 l 1.14625,-1.14625 c 0,0 -0.45875,-0.68625 0.6875,-1.60125 1.14375,-0.91625 0.4575,-1.605 1.6025,-1.605 1.145,0 1.145,-0.22875 1.83375,0 0.6875,0.23 0.2275,0.68875 0.91625,0.68875 0.685,0 2.29,-0.45875 2.29,-0.45875 0,0 0.22875,0.45875 1.14625,1.375 0.915,0.915 1.83125,2.51875 1.83125,2.51875 0,0 0.68625,0.6875 0.68625,1.37375 0,0.6875 1.375,1.375 1.375,1.375 0,0 0.6875,-1.6025 0.6875,-2.29125 0,-0.6875 -0.22875,-1.375 -0.22875,-1.375 l -1.14625,-1.8325 c 0,0 0,-3.435 -0.4575,-4.35125 -0.4575,-0.91625 -1.145,-2.29 -1.145,-3.20625 0,-0.9175 0.22875,-2.74875 0.22875,-2.74875 l -0.22875,-2.29125 0.22875,-2.97875 c 0,0 -0.45875,-1.37375 0.45875,-0.91625 0.915,0.45875 1.14625,-0.4575 1.14625,-0.4575 0,0 -6.8725,-33.9025 -38.48625,-47.645 0,0 -0.68625,1.14375 -1.37375,0.2275 -0.6875,-0.91625 -0.91625,-1.60375 -0.91625,-1.60375 0,0 -0.91625,0 -1.6025,0.23 -0.68875,0.2275 -2.2925,0.2275 -2.2925,0.2275 0,0 0,0.23 1.14625,0.6875 1.14625,0.45875 1.6025,1.14625 1.6025,1.14625 l -1.83,-0.23 -1.375,-0.91625 c 0,0 -2.06125,-0.22875 -2.74875,-0.4575 -0.6875,-0.23 -3.20875,-1.375 -3.20875,-1.375 l -1.8325,-0.68625 -2.06125,0 -2.29,-0.23 c 0,0 -2.74875,-1.145 -1.37375,-0.91625 1.37375,0.23 2.51875,0.23 2.51875,0.23 l 1.83375,0 1.14375,-0.91625 c 0,0 -1.37375,-0.6875 -2.29,-0.6875 -0.915,0 -1.14625,-0.45875 -2.29,-0.22875 -1.14625,0.22875 -2.74875,0.68625 -2.74875,0.68625 0,0 -0.6875,-0.68625 -1.375,-0.22875 -0.6875,0.45875 -1.83375,0.68625 -1.83375,0.68625 l -0.6875,-0.915 c 0,0 -0.685,0 -2.06,0.22875 -1.375,0.22875 -1.83375,0 -2.52,0 l -1.37375,0 0.45875,0.68625"
       style="fill:#ffffff;fill-opacity:1;fill-rule:nonzero;stroke:#1d1d1d;stroke-width:0.625;stroke-linecap:round;stroke-linejoin:round;stroke-miterlimit:10;stroke-dasharray:none;stroke-opacity:1"
       id="path3306" />
    <path
       d="m 391.63483,334.79278 0.22875,0.91625 1.14625,0.9175 c 0,0 0.2275,0.68625 0.91625,0.915 0.68625,0.22875 1.145,0.4575 1.145,0.4575 0,0 0.22875,-1.14625 -0.915,-1.83126 -1.14625,-0.68875 -2.52125,-1.375 -2.52125,-1.375"
       style="fill:#ffffff;fill-opacity:1;fill-rule:nonzero;stroke:none"
       id="path3310" />
    <path
       d="m 391.63483,334.79278 0.22875,0.91625 1.14625,0.9175 c 0,0 0.2275,0.68625 0.91625,0.915 0.68625,0.22875 1.145,0.4575 1.145,0.4575 0,0 0.22875,-1.14625 -0.915,-1.83126 -1.14625,-0.68875 -2.52125,-1.375 -2.52125,-1.375 z"
       style="fill:none;stroke:#1d1d1d;stroke-width:0.625;stroke-linecap:round;stroke-linejoin:round;stroke-miterlimit:10;stroke-dasharray:none;stroke-opacity:1"
       id="path3314" />
    <path
       d="m 397.36121,344.1849 c 0,0 -0.45875,-0.45875 -1.14501,0 -0.68875,0.4575 -1.145,0.915 -1.145,0.915 l -1.145,0.45875 c 0,0 0.23,0.4575 1.60125,0.22875 1.375,-0.22875 1.83375,-0.4575 1.83375,-0.4575 l 0,-1.145 z"
       style="fill:#ffffff;fill-opacity:1;fill-rule:nonzero;stroke:none"
       id="path3318" />
    <path
       d="m 397.36121,344.1849 c 0,0 -0.45875,-0.45875 -1.14501,0 -0.68875,0.4575 -1.145,0.915 -1.145,0.915 l -1.145,0.45875 c 0,0 0.23,0.4575 1.60125,0.22875 1.375,-0.22875 1.83375,-0.4575 1.83375,-0.4575 l 0,-1.145 z"
       style="fill:none;stroke:#1d1d1d;stroke-width:0.625;stroke-linecap:round;stroke-linejoin:round;stroke-miterlimit:10;stroke-dasharray:none;stroke-opacity:1"
       id="path3322" />
    <path
       d="m 392.32208,349.68165 0,1.60375 c 0,0 0.45625,0.91625 1.145,0.22875 0.68875,-0.68625 0,-1.14375 0,-1.14375 l -1.145,-0.68875 z"
       style="fill:#ffffff;fill-opacity:1;fill-rule:nonzero;stroke:none"
       id="path3326" />
    <path
       d="m 392.32208,349.68165 0,1.60375 c 0,0 0.45625,0.91625 1.145,0.22875 0.68875,-0.68625 0,-1.14375 0,-1.14375 l -1.145,-0.68875 z"
       style="fill:none;stroke:#1d1d1d;stroke-width:0.625;stroke-linecap:round;stroke-linejoin:round;stroke-miterlimit:10;stroke-dasharray:none;stroke-opacity:1"
       id="path3330" />
    <path
       d="m 385.44958,356.32478 c 0,0 0.45875,0.22875 1.375,0.22875 0.915,0 1.37375,0.23 1.37375,0.23 -0.6875,0.2275 -1.37375,1.14374 -1.37375,1.14374 l -1.375,-1.6025 z"
       style="fill:#ffffff;fill-opacity:1;fill-rule:nonzero;stroke:none"
       id="path3334" />
    <path
       d="m 385.44958,356.32478 c 0,0 0.45875,0.22875 1.375,0.22875 0.915,0 1.37375,0.23 1.37375,0.23 -0.6875,0.2275 -1.37375,1.14374 -1.37375,1.14374 l -1.375,-1.6025 z"
       style="fill:none;stroke:#1d1d1d;stroke-width:0.625;stroke-linecap:round;stroke-linejoin:round;stroke-miterlimit:10;stroke-dasharray:none;stroke-opacity:1"
       id="path3338" />
    <path
       d="m 398.04846,351.51403 0,1.14625 c 0,0.915 -0.22875,0.915 0.22875,1.8325 0.45875,0.91625 0.9175,1.6025 0.9175,1.6025 l 0.45625,1.375 c 0,0 0,0.6875 0.91624,0.91625 0.91751,0.23 1.8325,0.23 1.8325,0.23 0,0 0.46001,-0.45875 -0.22749,-0.68876 -0.6875,-0.22749 -1.375,-0.9175 -1.375,-0.9175 0,0 -0.23001,-0.685 -0.45876,-1.37249 -0.22874,-0.6875 -0.68749,-0.9175 -0.68749,-0.9175 0,0 -0.68625,-0.4575 -0.68625,-1.14501 0,-0.68625 -0.22875,-1.37375 -0.22875,-1.37375 l -0.6875,-0.6875 z"
       style="fill:#ffffff;fill-opacity:1;fill-rule:nonzero;stroke:none"
       id="path3342" />
    <path
       d="m 398.04846,351.51403 0,1.14625 c 0,0.915 -0.22875,0.915 0.22875,1.8325 0.45875,0.91625 0.9175,1.6025 0.9175,1.6025 l 0.45625,1.375 c 0,0 0,0.6875 0.91624,0.91625 0.91751,0.23 1.8325,0.23 1.8325,0.23 0,0 0.46001,-0.45875 -0.22749,-0.68876 -0.6875,-0.22749 -1.375,-0.9175 -1.375,-0.9175 0,0 -0.23001,-0.685 -0.45876,-1.37249 -0.22874,-0.6875 -0.68749,-0.9175 -0.68749,-0.9175 0,0 -0.68625,-0.4575 -0.68625,-1.14501 0,-0.68625 -0.22875,-1.37375 -0.22875,-1.37375 l -0.6875,-0.6875 z"
       style="fill:none;stroke:#1d1d1d;stroke-width:0.625;stroke-linecap:round;stroke-linejoin:round;stroke-miterlimit:10;stroke-dasharray:none;stroke-opacity:1"
       id="path3346" />
    <path
       d="m 362.31233,350.06378 -0.15125,-1.2225 c 0,0 -0.305,-0.61001 0.305,-0.7625 0.61,-0.1525 0.305,-0.4575 1.07,-0.61125 0.76125,-0.15125 -0.155,-0.15125 1.06875,-0.76375 1.22125,-0.61001 1.22125,-0.7625 1.22125,-0.7625 0,0 -0.30625,0.61 -0.15375,1.52625 0.15375,0.91625 0.9175,0.61125 0.9175,0.61125 l 0.76375,-0.7625 1.3725,-1.375 c 0,0 0.6125,-0.4575 1.07125,-0.30625 0.4575,0.15249 0.3025,0.45874 0.3025,1.06875 0,0.6125 -0.3025,0.46 0.46,0.30625 0.765,-0.15125 1.07,-0.30625 1.5275,0 0.4575,0.30625 0.765,1.22124 0.765,1.22124 l 0.915,0.765 c 0,0 -0.1525,0.76251 -0.915,0.915 -0.765,0.1525 0.15125,0.45875 1.0675,0.76375 0.9175,0.305 0.30625,-0.1525 1.8325,0.4575 1.5275,0.61125 2.59625,-0.4575 2.74875,0.61125 0.15375,1.06875 0.305,1.8325 0.305,1.8325 0,0 0.9175,0.30625 0.765,0.76375 -0.1525,0.4575 0,0.76251 -1.07,0.915 -1.06875,0.15375 -1.06875,-0.4575 -1.22125,0.9175 -0.1525,1.37376 -0.91625,3.97 -1.37375,4.43 -0.45875,0.4575 -0.61125,0.61001 -1.52875,1.0675 -0.9175,0.4575 -0.9175,1.07 -0.9175,1.07 l 0.3075,1.22125 c 0,0 1.8325,-0.4575 0.61,0.15125 -1.2225,0.6125 -1.67875,0.6125 -1.67875,0.6125 l -0.91625,-0.6125 c 0,0 -0.4575,0.6125 -0.305,1.07 0.1525,0.45875 0.915,1.22125 0.4575,1.22125 -0.4575,0 -1.52875,-0.45875 -1.98625,-0.305 -0.45875,0.1525 -1.37375,0.1525 -1.37375,0.1525 0,0 -0.61125,0.1525 -1.07,0.305 -0.45875,0.1525 -0.15125,0.1525 -0.76375,0.45875 -0.61,0.30625 -0.76125,0.45875 -2.13625,0.45875 -1.3775,0 -0.9175,-0.305 -1.83375,0 -0.915,0.305 -1.52625,1.22 -1.52625,1.22 0,0 -1.06875,0.765 -1.8325,1.37625 -0.765,0.61 -1.07,0.15125 -1.22125,0.91625 -0.15375,0.76375 -0.45875,1.22125 -0.45875,1.22125 0,0 -0.305,-0.61125 -0.915,-1.68 -0.61125,-1.06875 -0.765,-0.91625 -0.765,-1.68 0,-0.76375 -0.45875,-0.91625 0.45875,-1.98625 0.91625,-1.06875 0,-1.22 0.7625,-1.67875 0.76375,-0.4575 0.3075,-1.5275 1.06875,-1.8325 0.765,-0.305 0.91875,-0.61 1.68,-1.2225 0.76375,-0.61 1.375,-0.61 1.52875,-1.22 0.15125,-0.61125 0.15125,-1.22375 0.915,-1.8325 0.76125,-0.61125 0.76125,-0.61125 1.375,-1.52875 0.61,-0.915 1.2225,-0.7625 1.2225,-1.52625 0,-0.765 0.45625,-0.765 0.45625,-0.765 0,0 0.61125,-0.61 0.61125,-1.525 l 0,-1.375 c 0,0 -0.91625,-0.76375 0.305,-1.2225 1.2225,-0.4575 0.61,-1.06875 0.61,-1.06875 0,0 0.9175,-0.61 -0.15125,-0.4575 -1.06875,0.1525 -1.2225,0.4575 -1.68,0.1525 -0.45875,-0.305 0.305,-1.375 -0.61,-0.305 -0.9175,1.06875 -1.52875,1.22125 -1.52875,1.22125 0,0 -0.915,0 -0.76375,-0.61125"
       style="fill:#ffffff;fill-opacity:1;fill-rule:nonzero;stroke:none"
       id="path3350" />
    <path
       d="m 362.31233,350.06378 -0.15125,-1.2225 c 0,0 -0.305,-0.61001 0.305,-0.7625 0.61,-0.1525 0.305,-0.4575 1.07,-0.61125 0.76125,-0.15125 -0.155,-0.15125 1.06875,-0.76375 1.22125,-0.61001 1.22125,-0.7625 1.22125,-0.7625 0,0 -0.30625,0.61 -0.15375,1.52625 0.15375,0.91625 0.9175,0.61125 0.9175,0.61125 l 0.76375,-0.7625 1.3725,-1.375 c 0,0 0.6125,-0.4575 1.07125,-0.30625 0.4575,0.15249 0.3025,0.45874 0.3025,1.06875 0,0.6125 -0.3025,0.46 0.46,0.30625 0.765,-0.15125 1.07,-0.30625 1.5275,0 0.4575,0.30625 0.765,1.22124 0.765,1.22124 l 0.915,0.765 c 0,0 -0.1525,0.76251 -0.915,0.915 -0.765,0.1525 0.15125,0.45875 1.0675,0.76375 0.9175,0.305 0.30625,-0.1525 1.8325,0.4575 1.5275,0.61125 2.59625,-0.4575 2.74875,0.61125 0.15375,1.06875 0.305,1.8325 0.305,1.8325 0,0 0.9175,0.30625 0.765,0.76375 -0.1525,0.4575 0,0.76251 -1.07,0.915 -1.06875,0.15375 -1.06875,-0.4575 -1.22125,0.9175 -0.1525,1.37376 -0.91625,3.97 -1.37375,4.43 -0.45875,0.4575 -0.61125,0.61001 -1.52875,1.0675 -0.9175,0.4575 -0.9175,1.07 -0.9175,1.07 l 0.3075,1.22125 c 0,0 1.8325,-0.4575 0.61,0.15125 -1.2225,0.6125 -1.67875,0.6125 -1.67875,0.6125 l -0.91625,-0.6125 c 0,0 -0.4575,0.6125 -0.305,1.07 0.1525,0.45875 0.915,1.22125 0.4575,1.22125 -0.4575,0 -1.52875,-0.45875 -1.98625,-0.305 -0.45875,0.1525 -1.37375,0.1525 -1.37375,0.1525 0,0 -0.61125,0.1525 -1.07,0.305 -0.45875,0.1525 -0.15125,0.1525 -0.76375,0.45875 -0.61,0.30625 -0.76125,0.45875 -2.13625,0.45875 -1.3775,0 -0.9175,-0.305 -1.83375,0 -0.915,0.305 -1.52625,1.22 -1.52625,1.22 0,0 -1.06875,0.765 -1.8325,1.37625 -0.765,0.61 -1.07,0.15125 -1.22125,0.91625 -0.15375,0.76375 -0.45875,1.22125 -0.45875,1.22125 0,0 -0.305,-0.61125 -0.915,-1.68 -0.61125,-1.06875 -0.765,-0.91625 -0.765,-1.68 0,-0.76375 -0.45875,-0.91625 0.45875,-1.98625 0.91625,-1.06875 0,-1.22 0.7625,-1.67875 0.76375,-0.4575 0.3075,-1.5275 1.06875,-1.8325 0.765,-0.305 0.91875,-0.61 1.68,-1.2225 0.76375,-0.61 1.375,-0.61 1.52875,-1.22 0.15125,-0.61125 0.15125,-1.22375 0.915,-1.8325 0.76125,-0.61125 0.76125,-0.61125 1.375,-1.52875 0.61,-0.915 1.2225,-0.7625 1.2225,-1.52625 0,-0.765 0.45625,-0.765 0.45625,-0.765 0,0 0.61125,-0.61 0.61125,-1.525 l 0,-1.375 c 0,0 -0.91625,-0.76375 0.305,-1.2225 1.2225,-0.4575 0.61,-1.06875 0.61,-1.06875 0,0 0.9175,-0.61 -0.15125,-0.4575 -1.06875,0.1525 -1.2225,0.4575 -1.68,0.1525 -0.45875,-0.305 0.305,-1.375 -0.61,-0.305 -0.9175,1.06875 -1.52875,1.22125 -1.52875,1.22125 0,0 -0.915,0 -0.76375,-0.61125 z"
       style="fill:none;stroke:#1d1d1d;stroke-width:0.625;stroke-linecap:round;stroke-linejoin:round;stroke-miterlimit:10;stroke-dasharray:none;stroke-opacity:1"
       id="path3354" />
    <path
       d="m 370.3312,369.3814 -0.68749,0.4575 0.45625,0.68875 0,0.91625 -0.45625,0.915 1.145,0.22875 c 0,0 0.23,0.46 1.14625,0.46 l 1.8325,0 1.145,-0.46 0,-0.915 c 0,0 0.45875,-0.91625 -0.45875,-1.145 -0.91625,-0.23125 0,-0.23125 -1.14375,-0.23125 -1.14625,0 -1.6025,-0.22625 -1.6025,-0.22625 l -1.37625,-0.68875 z"
       style="fill:#ffffff;fill-opacity:1;fill-rule:nonzero;stroke:none"
       id="path3358" />
    <path
       d="m 370.3312,369.3814 -0.68749,0.4575 0.45625,0.68875 0,0.91625 -0.45625,0.915 1.145,0.22875 c 0,0 0.23,0.46 1.14625,0.46 l 1.8325,0 1.145,-0.46 0,-0.915 c 0,0 0.45875,-0.91625 -0.45875,-1.145 -0.91625,-0.23125 0,-0.23125 -1.14375,-0.23125 -1.14625,0 -1.6025,-0.22625 -1.6025,-0.22625 l -1.37625,-0.68875 z"
       style="fill:none;stroke:#1d1d1d;stroke-width:0.625;stroke-linecap:round;stroke-linejoin:round;stroke-miterlimit:10;stroke-dasharray:none;stroke-opacity:1"
       id="path3362" />
    <path
       d="m 376.28695,385.41778 0,0 -1.6025,0.68625 -0.23125,0.91625 0.45875,1.145 -0.45875,0.6875 0.91876,-0.22875 1.14374,-0.22875 0.68625,-1.14501 0.23,-1.14625 c 0,0 -0.4575,-0.91625 -1.145,-0.68625"
       style="fill:#ffffff;fill-opacity:1;fill-rule:nonzero;stroke:none"
       id="path3366" />
    <path
       d="m 376.28695,385.41778 0,0 -1.6025,0.68625 -0.23125,0.91625 0.45875,1.145 -0.45875,0.6875 0.91876,-0.22875 1.14374,-0.22875 0.68625,-1.14501 0.23,-1.14625 c 0,0 -0.4575,-0.91625 -1.145,-0.68625 z"
       style="fill:none;stroke:#1d1d1d;stroke-width:0.625;stroke-linecap:round;stroke-linejoin:round;stroke-miterlimit:10;stroke-dasharray:none;stroke-opacity:1"
       id="path3370" />
    <path
       d="m 378.34871,381.52377 0,0 -0.6875,1.14501 0,0.68625 0.22875,1.14625 c 0,0 -0.6875,0.6875 0,0.91625 0.6875,0.22875 1.14625,0.22875 1.14625,0.22875 0,0 0.6875,0.22875 0.45875,0.915 -0.23125,0.68875 0,0 -0.45875,0.68875 -0.45875,0.68625 -0.6875,0.915 -0.6875,0.915 l 0.22875,0.6875 0.9175,0.68749 c 0,0 0.22875,0.6875 -0.68875,0.91625 l -0.91625,0.22875 -0.4575,0.6875 1.37375,-0.4575 1.145,0 c 0.6875,0 1.60375,-0.23 1.60375,-0.23 l 0.9175,0 0.2275,-0.68625 0,-0.68875 c 0,0 1.14625,0 0.91875,-0.685 -0.23125,-0.68875 -0.68875,-0.9175 -0.68875,-0.9175 l -0.68625,-1.14625 -1.14625,-0.915 -0.6875,-1.145 -0.45875,-0.68875 c 0,0 -0.915,-0.68625 0,-0.915 l 0.91875,-0.22875 -1.375,-0.6875 0.45625,-0.91625 -0.6875,-0.9175 -1.14625,0 0.23125,2.06375"
       style="fill:#ffffff;fill-opacity:1;fill-rule:nonzero;stroke:#1d1d1d;stroke-width:0.625;stroke-linecap:round;stroke-linejoin:round;stroke-miterlimit:10;stroke-dasharray:none;stroke-opacity:1"
       id="path3374" />
    <path
       d="m 428.05696,454.36802 c 0,0 -0.23,-1.375 0.68625,-1.60375 0.91624,-0.23 1.60375,-0.23 1.60375,-1.14625 0,-0.91625 0.45625,-1.8325 0.45625,-1.8325 l 2.75125,-2.52125 c 0,0 0.68625,-0.2275 0.9175,-1.14375 0.2275,-0.91624 0.6875,-1.60375 0.6875,-1.60375 l 0.91499,-1.145 c 0,0 0.23001,0.68625 0,1.8325 -0.22999,1.145 0.915,1.145 0,2.06 -0.91499,0.9175 -0.91499,1.37625 -1.6025,1.83375 -0.68749,0.4575 -2.06375,1.145 -2.06375,1.145 l -1.60499,2.29125 c 0,0 -0.68625,2.06125 -2.06,2.06125"
       style="fill:#ffffff;fill-opacity:1;fill-rule:nonzero;stroke:#1d1d1d;stroke-width:0.625;stroke-linecap:round;stroke-linejoin:round;stroke-miterlimit:10;stroke-dasharray:none;stroke-opacity:1"
       id="path3378" />
    <path
       d="m 407.66883,399.6194 c 0,0 0.23,0.22875 0.4575,-0.91625 0.23125,-1.145 -0.2275,-0.91625 -0.2275,-2.0625 0,-1.14375 -0.46,-0.2275 0,-1.6025 0.45875,-1.375 0.2275,-1.375 0.2275,-2.52 0,-1.14625 -0.915,-1.14625 0.4575,-1.375 1.37625,-0.22875 0.68875,-0.91625 1.37625,0.22875 0.6875,1.14625 1.375,1.14625 1.375,1.14625 0,0 0,-1.60375 0.2275,-2.29125 0.23,-0.68625 1.14625,-1.37375 1.14625,-1.37375 l 1.14375,-0.9175 c 0,0 0.23125,0.23 -0.2275,1.375 -0.45875,1.14625 -1.14375,1.8325 -1.14375,1.8325 l 2.29,-0.4575 c 0,0 1.14375,-0.22875 1.60375,0.4575 0.4575,0.68875 1.3725,0.91625 1.3725,0.91625 0,0 0.6875,0.45875 -0.2275,1.14625 -0.91875,0.68625 -1.145,1.60125 -1.83375,1.60125 -0.6875,0 -0.6875,-0.915 -1.6025,-0.22625 -0.9175,0.68625 -0.9175,0.4575 -1.375,1.145 -0.45875,0.6875 -2.06125,1.8325 -2.06125,1.8325 l -0.6875,0.915 -2.29125,1.14625 z"
       style="fill:none;stroke:#1d1d1d;stroke-width:0.625;stroke-linecap:round;stroke-linejoin:round;stroke-miterlimit:10;stroke-dasharray:none;stroke-opacity:1"
       id="path3382" />
    <path
       d="m 425.30796,389.76965 c -1.14626,-0.6875 -1.60376,-0.91625 -2.52126,-1.145 -0.915,-0.23 -1.37375,-0.91625 -1.37375,-0.91625 0,0 -0.91625,-0.91625 -0.91625,-1.605 0,-0.685 -0.68625,-0.915 0,-1.6025 0.6875,-0.68875 0.6875,-1.8325 0.6875,-1.8325 0,0 0.6875,-2.74875 1.375,-1.37375 0.6875,1.37375 0.915,2.06 0.915,2.06 0,0 0.23,-0.68625 -0.2275,0.68875 -0.46,1.375 1.37375,1.8325 1.37375,1.8325 l 1.14375,0.68625 1.605,0 c 0,0 -0.23,-0.2275 0,0.6875 0.22875,0.91625 0.45875,1.375 0.45875,1.375 0,0 0.4575,0.22875 0.685,0.915 0.23,0.6875 0,-0.22875 0.46,1.60375 0.45875,1.83125 -0.91625,1.60375 -1.60375,1.60375 l -1.37375,0 -0.45875,-1.145 -0.22875,-1.8325 z"
       style="fill:none;stroke:#1d1d1d;stroke-width:0.625;stroke-linecap:round;stroke-linejoin:round;stroke-miterlimit:10;stroke-dasharray:none;stroke-opacity:1"
       id="path3386" />
    <path
       d="m 382.15858,472.70415 c 41.30875,0 74.795,-33.48625 74.795,-74.795 0,-41.30875 -33.48625,-74.79625 -74.795,-74.79625 -41.3075,0 -74.795,33.4875 -74.795,74.79625 0,41.30875 33.4875,74.795 74.795,74.795 z"
       style="fill:none;stroke:#1d1d1d;stroke-width:0.625;stroke-linecap:round;stroke-linejoin:round;stroke-miterlimit:4;stroke-dasharray:none;stroke-opacity:1"
       id="path3390" />
  </g>
</svg>
