<?xml version="1.0" encoding="UTF-8" standalone="no"?>
<svg
   xmlns:dc="http://purl.org/dc/elements/1.1/"
   xmlns:cc="http://creativecommons.org/ns#"
   xmlns:rdf="http://www.w3.org/1999/02/22-rdf-syntax-ns#"
   xmlns:svg="http://www.w3.org/2000/svg"
   xmlns="http://www.w3.org/2000/svg"
   version="1.1"
   id="svg10845"
   height="195.60275"
   width="200.0005">
  <defs
     id="defs4809">
    <pattern
       id="polka"
       patternTransform="rotate(20)"
       height="5"
       width="5"
       patternUnits="userSpaceOnUse">
      <rect
         y="0"
         x="0"
         height="5"
         width="5"
         style="fill:#ffffff"
         id="polka__bg" />
      <circle
         cx="2"
         style="fill:#ff0000"
         cy="2"
         r="1.5"
         id="polka__inner" />
    </pattern>
    <clipPath
       id="clipPath32"
       clipPathUnits="userSpaceOnUse">
      <path
         id="path34"
         d="m 223.012,509.109 -0.355,-99.887 5.722,-3.002 c 6.332,-32.136 27.629,-59.194 60.765,-59.194 l 0,0 c 33.137,0 60.168,26.947 60.168,60.084 l 0,0 0,102.999 -126.3,-1 z" />
    </clipPath>
    <clipPath
       id="clipPath264"
       clipPathUnits="userSpaceOnUse">
      <path
         id="path266"
         d="m 0,841.89 595.28,0 L 595.28,0 0,0 0,841.89 Z" />
    </clipPath>
  </defs>
  <metadata
     id="metadata10850">
    <rdf:RDF>
      <cc:Work
         rdf:about="">
        <dc:format>image/svg+xml</dc:format>
        <dc:type
           rdf:resource="http://purl.org/dc/dcmitype/StillImage" />
        <dc:title></dc:title>
      </cc:Work>
    </rdf:RDF>
  </metadata>
  <g
     style="display:inline"
     transform="translate(-282.08096,-278.41122)"
     id="layer1">
    <ellipse
       style="color:#000000;display:inline;overflow:visible;visibility:visible;opacity:1;fill:none;fill-opacity:1;fill-rule:nonzero;stroke:#000000;stroke-width:2;stroke-miterlimit:4;stroke-dasharray:none;stroke-opacity:1;marker:none;enable-background:accumulate"
       id="path6022"
       cx="382.06821"
       cy="398.07648"
       rx="74.9505"
       ry="74.950493" />
    <g
       transform="translate(-227.69093,229.73491)"
       id="g13478">
      <g
         style="fill:#ffffff;fill-opacity:1"
         transform="matrix(1.25,0,0,-1.25,248.13101,677.64456)"
         clip-path="url(#clipPath32)"
         id="g30">
        <g
           style="fill:#ffffff;fill-opacity:1"
           transform="translate(234.5825,442.8896)"
           id="g36">
          <path
             id="path38"
             style="fill:#ffffff;stroke:#373536;stroke-width:1.5;stroke-linecap:round;stroke-linejoin:round;stroke-miterlimit:4;stroke-dasharray:none;stroke-opacity:1;fill-opacity:1"
             d="m 0,0 c -2.3,-0.657 -6.243,-2.957 -6.736,-4.437 -1.807,-2.299 -4.929,-9.693 1.15,-15.772 -0.72,-0.359 0.314,-2.736 1.179,-4.376 0.319,-0.604 0.615,-1.108 0.793,-1.374 0.657,-0.985 2.464,-2.136 3.614,-1.478 1.314,-1.315 3.45,-3.451 2.136,-5.751 -1.314,-0.165 -2.464,-0.986 -2.464,-1.643 l 0,-0.657 c 0,0 -0.658,-0.986 -1.808,-1.808 -1.15,-0.821 -4.107,-6.407 -6.407,-11.993 -2.301,-5.587 -6.079,-13.637 -5.586,-19.88 0.492,-6.243 -0.986,-8.544 1.15,-14.787 2.135,-6.243 4.436,-14.951 2.464,-18.73 -1.971,-3.779 -1.807,-5.092 -1.807,-5.092 l 152.96,0 0,3.942 c -1.642,2.3 -3.449,3.614 -4.435,5.093 -0.987,1.478 -2.301,2.301 -1.807,3.451 0.492,1.149 0.82,2.464 0.164,3.121 -0.658,0.657 -1.314,1.15 -1.314,1.972 0,0.821 0.492,1.314 -0.329,1.971 -0.822,0.658 -1.314,1.479 -0.822,1.972 0.492,0.493 -0.822,7.23 -1.15,10.515 -0.328,3.286 1.314,11.336 -2.465,19.88 -3.778,8.544 -7.064,12.815 -10.186,16.429 1.643,-1.642 4.108,-1.149 4.108,-1.149 -1.973,1.643 -3.615,1.478 -5.75,3.942 -2.137,2.465 -4.766,5.094 -4.766,5.094 0,0 -4.107,5.093 -6.243,11.501 -2.136,6.407 -10.022,20.208 -16.101,16.43 -1.807,1.149 -9.693,0.164 -12.486,-7.394 -0.329,2.629 -0.822,16.101 -9.529,16.594 -1.479,1.15 -2.958,1.478 -3.78,0.821 C 62.598,7.064 60.461,6.9 59.804,6.243 58.818,6.736 55.04,5.422 53.068,2.957 c 0.493,2.3 -0.164,7.394 -1.314,10.022 -0.165,1.315 -0.165,4.601 -0.165,4.601 l -0.985,1.807 -0.329,1.807 c 0,0 0,1.479 -0.164,2.136 -0.165,0.657 -2.465,4.272 -2.465,4.272 l 0.329,0.821 c 0,0 0,-0.492 -3.122,1.314 -3.122,1.808 -11.008,2.629 -13.472,0.329 -1.807,0.329 -3.122,-0.164 -4.272,-1.643 -1.15,-1.479 -2.464,-1.807 -3.614,-2.957 -1.15,-1.15 -2.136,-2.136 -2.136,-2.136 l 1.314,0.329 c 0,0 -0.821,-1.643 -1.15,-3.451 -0.329,-1.807 -0.986,-5.257 0.164,-6.735 1.15,-1.479 0.658,-3.122 0.658,-3.122 l 0.985,0.164 c 0,0 1.479,-2.957 1.808,-3.615 0.328,-0.657 0.328,-1.643 0.657,-2.135 0.328,-1.315 1.15,-3.944 1.807,-4.765 0.657,-0.821 1.643,-2.629 1.643,-2.629 l -0.657,-0.164 -0.657,-5.751 c 0,0 -0.494,-0.657 -1.315,-2.464 -0.821,-1.807 -2.629,-7.229 -2.629,-7.229 0,0 -4.107,-5.257 -4.764,-6.737 0.164,3.78 -0.493,4.93 -0.493,4.93 1.15,0 0.657,1.807 0.493,3.943 -0.164,2.135 -0.658,2.793 -1.15,2.793 0.164,1.971 -1.315,7.722 -2.465,8.871 -1.15,1.151 -1.971,1.48 -2.464,2.137 -0.493,0.656 -1.972,2.136 -2.629,1.971 C 10.176,-0.414 9.313,0.681 7.566,1.243 7.457,1.278 7.345,1.312 7.229,1.343 5.598,1.771 3.27,1.709 0,0 Z" />
        </g>
        <g
           style="fill:#ffffff;fill-opacity:1"
           transform="translate(263.1284,434.8887)"
           id="g40">
          <path
             id="path86"
             style="fill:#ffffff;fill-opacity:1;fill-rule:nonzero;stroke:none"
             d="m 0,0 c 0.25,-0.75 -3,-8.25 -3,-9 0,-0.75 -3,-4 -3.5,-4.75 -0.5,-0.75 -3.75,-3.75 -4,-4.75 -0.25,-1 -1.5,-8.25 -1.25,-9.25 0.25,-1 -1.25,-3.75 -1,-6 0.25,-2.25 1.5,-13.75 1.5,-14.5 0,-0.75 1.25,-14 1.25,-15.75 0,-1.75 0.25,-9.75 0.25,-9.75 L -8,-75.5 c 0,0 3.25,2 5,2.5 1.75,0.5 9.75,4.75 12,5.5 2.25,0.75 4.5,3.75 5.75,4.5 1.25,0.75 6.25,4.25 6.25,4.25 L 28,-64 c 0,0 0.5,-3.25 0.25,-4 -0.25,-0.75 -2.25,-4.25 -2.5,-5 -0.25,-0.75 0.75,-1.75 -1.25,-1.75 l -5.25,0 c 0,0 -3.75,-2 -4.5,-2.75 -0.75,-0.75 -3.75,-1 -6.25,-2.25 -2.5,-1.25 -6,-2.75 -5.25,-3 0.75,-0.25 5.5,-4 8,-2.25 2.5,1.75 7.75,4.75 9.5,5.25 1.75,0.5 5.5,2.5 7,2.75 1.5,0.25 4.25,1.5 5.75,2.75 C 35,-73 37,-70 37,-70 c 0,0 11,-6.75 12,-7 1,-0.25 9,-1.25 9,-1.25 0,0 15,11.75 14,12.25 -1,0.5 -5.75,2.75 -7,3.25 -1.25,0.5 -4.25,1.5 -4.25,1.5 0,0 -3.75,1.25 -6.5,3.5 -2.75,2.25 -6,6 -7,6 -1,0 -2,-0.75 -2.5,0.25 -0.5,1 -1.25,1.75 -3.25,2.5 -2,0.75 -2,2.25 -2,2.25 0,0 1,1.5 -1.25,2.5 -2.25,1 -4.5,1.5 -3.5,3 1,1.5 0.25,6 -2.25,9 -2.5,3 -4,3.75 -4,5.25 l 0,4.25 c 0,0 -5.75,9.25 -6.5,9.75 -0.75,0.5 -5,1.5 -5,2.75 0,1.25 0.5,8.5 0.5,8.5 0,0 -4,-0.25 -5.25,1 -1.25,1.25 -6.75,5 -6.75,5" />
        </g>
        <g
           style="fill:#ffffff;fill-opacity:1"
           transform="translate(324.125,439.2754)"
           id="g88">
          <path
             id="path90"
             style="fill:#ffffff;stroke:#373536;stroke-width:0.5;stroke-linecap:butt;stroke-linejoin:miter;stroke-miterlimit:4;stroke-dasharray:none;stroke-opacity:1;fill-opacity:1"
             d="m 0,0 0.82,-4.601 c -0.984,-1.314 -5.091,-2.464 -6.242,-7.393 0,1.642 0.656,4.107 0.656,4.107 -2.793,-5.586 -5.586,-14.623 -2.629,-19.222 0.823,-1.315 4.438,-4.765 6.409,-5.915 1.971,-1.15 5.093,-1.15 6.572,-0.494 1.478,0.659 5.732,5.825 6.243,7.559 0.821,2.793 1.644,4.107 -0.329,9.693 -1.971,5.586 -3.613,8.872 -9.365,11.336" />
        </g>
        <g
           style="fill:#ffffff;fill-opacity:1"
           transform="translate(336.7754,417.5879)"
           id="g92">
          <path
             id="path94"
             style="fill:#ffffff;stroke:#373536;stroke-width:0.5;stroke-linecap:butt;stroke-linejoin:miter;stroke-miterlimit:4;stroke-dasharray:none;stroke-opacity:1;fill-opacity:1"
             d="m 0,0 c 0.822,-8.708 -2.793,-19.88 -5.094,-23.494 1.315,1.149 3.615,6.571 3.615,6.571 -0.822,-4.107 -3.121,-8.379 -2.3,-10.843 0.658,2.628 2.3,8.543 4.929,11.172 2.629,2.629 3.121,5.586 3.286,6.243 2.628,-1.479 4.765,-1.971 6.572,-2.793 1.806,-0.821 3.451,-1.15 4.93,-2.958 -0.823,1.808 -3.288,3.944 -3.288,3.944" />
        </g>
        <g
           style="fill:#ffffff;fill-opacity:1"
           transform="translate(260.5415,446.833)"
           id="g96">
          <path
             id="path98"
             style="fill:#ffffff;stroke:#373536;stroke-width:0.5;stroke-linecap:butt;stroke-linejoin:miter;stroke-miterlimit:4;stroke-dasharray:none;stroke-opacity:1;fill-opacity:1"
             d="m 0,0 c 0.986,-1.479 2.136,-2.136 2.958,-3.286 0.821,-1.151 1.807,-0.821 2.135,0.164 1.807,-3.121 5.258,-7.394 7.722,-8.872 2.465,-1.479 6.244,-2.629 8.379,-1.808" />
        </g>
        <g
           style="fill:#ffffff;fill-opacity:1"
           transform="translate(264.6489,443.0537)"
           id="g100">
          <path
             id="path102"
             style="fill:#ffffff;stroke:#373536;stroke-width:0.5;stroke-linecap:butt;stroke-linejoin:miter;stroke-miterlimit:4;stroke-dasharray:none;stroke-opacity:1;fill-opacity:1"
             d="M 0,0 0.657,-3.121" />
        </g>
        <g
           style="fill:#ffffff;fill-opacity:1"
           transform="translate(269.5776,438.125)"
           id="g104">
          <path
             id="path106"
             style="fill:#ffffff;stroke:#373536;stroke-width:0.5;stroke-linecap:butt;stroke-linejoin:miter;stroke-miterlimit:4;stroke-dasharray:none;stroke-opacity:1;fill-opacity:1"
             d="M 0,0 C -1.643,1.314 -4.6,2.136 -6.407,1.972" />
        </g>
        <g
           style="fill:#ffffff;fill-opacity:1"
           transform="translate(263.1704,434.1816)"
           id="g108">
          <path
             id="path110"
             style="fill:#ffffff;stroke:#373536;stroke-width:0.5;stroke-linecap:butt;stroke-linejoin:miter;stroke-miterlimit:4;stroke-dasharray:none;stroke-opacity:1;fill-opacity:1"
             d="M 0,0 C 4.765,-0.657 13.801,-4.601 16.923,-8.215" />
        </g>
        <g
           style="fill:#ffffff;fill-opacity:1"
           transform="translate(287.6509,445.8467)"
           id="g112">
          <path
             id="path114"
             style="fill:#ffffff;stroke:#373536;stroke-width:0.5;stroke-linecap:butt;stroke-linejoin:miter;stroke-miterlimit:4;stroke-dasharray:none;stroke-opacity:1;fill-opacity:1"
             d="M 0,0 C -2.958,-3.121 -7.722,-13.965 -7.229,-21.194" />
        </g>
        <g
           style="fill:#ffffff;fill-opacity:1"
           transform="translate(286.3364,455.8691)"
           id="g116">
          <path
             id="path118"
             style="fill:#ffffff;stroke:#373536;stroke-width:0.5;stroke-linecap:butt;stroke-linejoin:miter;stroke-miterlimit:4;stroke-dasharray:none;stroke-opacity:1;fill-opacity:1"
             d="m 0,0 c -0.986,2.793 -3.943,10.515 -6.408,12.486 0.658,-0.821 0.986,-1.971 0.986,-1.971 l -2.629,1.971 1.315,-2.135 c 0,0 -1.479,1.15 -2.958,1.807 -1.478,0.657 -6.243,1.972 -6.243,1.972 l 3.943,-2.793 c 0,0 -5.257,1.149 -7.558,2.957 l 1.315,-2.793 -1.807,0.657 c 0,0 0.821,-1.15 0.985,-1.807 0.164,-0.658 -1.15,-0.164 -1.15,-0.164 l -1.971,1.15 c 0,0 0.328,-3.122 -0.822,-5.422 -1.15,-2.301 -0.821,-6.408 -0.821,-6.408 l 1.478,2.465 c 0,0 -0.821,-2.136 -1.15,-3.451 l 1.15,1.807 c -0.985,-0.657 -0.657,-5.421 -0.492,-6.735 -1.972,0.492 -3.122,2.136 -3.122,2.136 0,0 -1.314,-0.823 -0.657,-1.808" />
        </g>
        <g
           style="fill:#ffffff;fill-opacity:1"
           transform="translate(268.7563,431.2246)"
           id="g120">
          <path
             id="path122"
             style="fill:#ffffff;stroke:#373536;stroke-width:0.5;stroke-linecap:butt;stroke-linejoin:miter;stroke-miterlimit:4;stroke-dasharray:none;stroke-opacity:1;fill-opacity:1"
             d="m 0,0 c 2.793,-1.479 5.258,-3.45 6.9,-4.107 1.643,-0.658 3.779,-2.465 6.079,-3.78 2.301,-1.314 9.037,-5.092 10.187,-15.772" />
        </g>
        <g
           style="fill:#ffffff;fill-opacity:1"
           transform="translate(282.0645,420.709)"
           id="g124">
          <path
             id="path126"
             style="fill:#ffffff;stroke:#373536;stroke-width:0.5;stroke-linecap:butt;stroke-linejoin:miter;stroke-miterlimit:4;stroke-dasharray:none;stroke-opacity:1;fill-opacity:1"
             d="m 0,0 c 1.972,-1.807 6.408,-9.857 6.408,-9.857 0,0 2.793,-1.643 5.586,-5.422 2.793,-3.779 4.6,-6.078 4.6,-9.2 0,-3.123 -1.478,-3.615 0.493,-4.601 1.972,-0.986 4.272,-1.315 3.286,-2.957 -0.986,-1.644 -0.493,-2.301 0.986,-2.465 1.479,-0.164 3.943,-1.15 4.436,-2.465 0.492,-1.314 2.136,0.329 3.614,-1.642 1.48,-1.972 12.98,-9.037 12.98,-9.037 1.314,0.329 0,1.479 1.97,0.329 1.973,-1.15 8.545,-4.272 8.545,-4.272 l 7.393,-0.985" />
        </g>
        <g
           style="fill:#ffffff;fill-opacity:1"
           transform="translate(324.9453,373.7207)"
           id="g128">
          <path
             id="path130"
             style="fill:#ffffff;stroke:#373536;stroke-width:0.5;stroke-linecap:butt;stroke-linejoin:miter;stroke-miterlimit:4;stroke-dasharray:none;stroke-opacity:1;fill-opacity:1"
             d="m 0,0 c 0.165,-2.301 -13.307,-8.708 -16.429,-8.051 -3.122,0.657 -12.815,4.436 -15.115,6.079 -2.3,1.643 -17.416,18.895 -20.373,23.002 -2.958,4.107 -6.736,10.351 -7.229,11.336 -0.493,0.987 -2.793,12.322 5.586,15.445" />
        </g>
        <g
           style="fill:#ffffff;fill-opacity:1"
           transform="translate(307.8594,383.7422)"
           id="g132">
          <path
             id="path134"
             style="fill:#ffffff;stroke:#373536;stroke-width:0.5;stroke-linecap:butt;stroke-linejoin:miter;stroke-miterlimit:4;stroke-dasharray:none;stroke-opacity:1;fill-opacity:1"
             d="M 0,0 C 0.492,-1.971 -0.328,-5.421 -3.286,-5.75" />
        </g>
        <g
           style="fill:#ffffff;fill-opacity:1"
           transform="translate(351.0693,400.9941)"
           id="g136">
          <path
             id="path138"
             style="fill:#ffffff;stroke:#373536;stroke-width:0.5;stroke-linecap:butt;stroke-linejoin:miter;stroke-miterlimit:4;stroke-dasharray:none;stroke-opacity:1;fill-opacity:1"
             d="m 0,0 c -2.136,1.314 -14.622,4.436 -13.637,-10.352 0.493,-2.793 1.48,-9.857 2.464,-12.322 0.986,-2.464 2.629,-11.993 2.629,-14.129 0,-2.135 1.643,-5.093 2.137,-6.572 5.586,-1.643 8.871,-3.614 10.021,-5.914" />
        </g>
        <g
           style="fill:#ffffff;fill-opacity:1"
           transform="translate(352.3838,351.8691)"
           id="g140">
          <path
             id="path142"
             style="fill:#ffffff;stroke:#373536;stroke-width:0.5;stroke-linecap:butt;stroke-linejoin:miter;stroke-miterlimit:4;stroke-dasharray:none;stroke-opacity:1;fill-opacity:1"
             d="m 0,0 c -1.479,1.808 -6.407,4.107 -8.216,4.929 -2.135,-0.329 -2.627,-0.822 -3.777,-1.315 -1.151,-0.493 -1.479,-1.15 -2.465,-0.985 -0.986,0.164 -1.15,0 -1.643,-0.329 -0.494,-0.328 -0.494,1.15 -1.972,0 -1.479,-1.15 -1.971,-0.821 -3.779,-0.986 -1.807,-0.164 -4.108,-0.821 -4.108,-0.821 0,0 -9.035,-0.329 -10.021,-0.329 -0.986,0 -3.45,1.479 -5.915,1.972" />
        </g>
        <g
           style="fill:#ffffff;fill-opacity:1"
           transform="translate(302.6016,347.1045)"
           id="g144">
          <path
             id="path146"
             style="fill:#ffffff;stroke:#373536;stroke-width:0.5;stroke-linecap:butt;stroke-linejoin:miter;stroke-miterlimit:4;stroke-dasharray:none;stroke-opacity:1;fill-opacity:1"
             d="m 0,0 c -0.492,-1.314 0,-2.136 0.822,-2.793 0.821,-0.657 1.314,-0.657 1.314,-1.314 0,-0.658 1.15,-0.986 1.15,-0.986 0,0 1.808,-1.972 3.778,-1.807" />
        </g>
        <g
           style="fill:#ffffff;fill-opacity:1"
           transform="translate(299.1514,346.1182)"
           id="g148">
          <path
             id="path150"
             style="fill:#ffffff;stroke:#373536;stroke-width:0.5;stroke-linecap:butt;stroke-linejoin:miter;stroke-miterlimit:4;stroke-dasharray:none;stroke-opacity:1;fill-opacity:1"
             d="m 0,0 c 0.165,-1.643 1.479,-1.972 1.479,-1.972 0.165,-1.314 1.643,-2.134 1.643,-2.134 -0.493,-1.48 0.164,-3.123 1.15,-2.958 L 5.257,-6.9 c 0,0 -0.656,1.479 0,0 0.658,-1.479 0.494,-1.479 2.465,-0.986 1.972,0.492 4.107,2.465 5.915,2.465 1.807,0 2.628,1.643 4.271,2.135 1.644,0.493 1.48,1.643 4.109,0.822 2.629,-0.822 8.214,-0.657 8.214,-0.657 0.493,-1.315 1.643,-0.985 1.643,-0.985 0,0 3.943,0.492 5.914,0.328 1.973,-0.164 11.172,0.492 13.637,1.314 2.465,0.821 3.121,0.986 4.6,0.821 1.48,-0.164 4.929,1.808 4.929,5.915 0,4.108 -1.807,22.508 -4.929,34.666 1.314,1.151 -0.821,8.708 -0.821,8.708" />
        </g>
        <g
           style="fill:#ffffff;fill-opacity:1"
           transform="translate(289.6221,415.7803)"
           id="g152">
          <path
             id="path154"
             style="fill:#ffffff;stroke:#373536;stroke-width:0.5;stroke-linecap:butt;stroke-linejoin:miter;stroke-miterlimit:4;stroke-dasharray:none;stroke-opacity:1;fill-opacity:1"
             d="m 0,0 c 2.3,-2.793 4.272,-4.601 7.065,-4.436 2.793,0.165 8.872,2.136 10.844,10.844 l 0,1.479 C 18.565,7.394 19.716,7.558 19.716,9.529 19.88,8.38 18.401,3.286 22.837,-1.972 23.001,-2.3 24.151,-3.614 27.108,-3.614" />
        </g>
        <g
           style="fill:#ffffff;fill-opacity:1"
           transform="translate(309.3379,425.3096)"
           id="g156">
          <path
             id="path158"
             style="fill:#ffffff;stroke:#373536;stroke-width:0.5;stroke-linecap:butt;stroke-linejoin:miter;stroke-miterlimit:4;stroke-dasharray:none;stroke-opacity:1;fill-opacity:1"
             d="m 0,0 -0.821,1.972 c 0,0 0.328,-0.164 -0.822,-2.3 0.164,1.149 0.657,2.957 -0.658,5.75 -1.314,2.793 -2.793,4.107 -2.957,5.093 -0.164,0.986 -1.15,2.629 -1.15,2.629 l -1.15,-0.329 0.494,1.315 -0.987,0 0,1.314" />
        </g>
        <g
           style="fill:#ffffff;fill-opacity:1"
           transform="translate(314.4316,412.4941)"
           id="g160">
          <path
             id="path162"
             style="fill:#ffffff;stroke:#373536;stroke-width:0.5;stroke-linecap:butt;stroke-linejoin:miter;stroke-miterlimit:4;stroke-dasharray:none;stroke-opacity:1;fill-opacity:1"
             d="m 0,0 c 1.15,13.145 -5.915,18.566 -6.9,22.509 -0.987,3.943 -5.916,6.901 -7.887,6.079 -0.986,-0.657 -2.465,0.493 1.642,1.314 -3.614,0.494 -9.857,-0.821 -11.007,-11.501 -0.329,2.301 1.15,8.38 1.15,8.38 -1.808,-2.465 -4.436,-14.951 -3.615,-20.702" />
        </g>
        <g
           style="fill:#ffffff;fill-opacity:1"
           transform="translate(292.7437,412.4941)"
           id="g164">
          <path
             id="path166"
             style="fill:#ffffff;stroke:#373536;stroke-width:0.5;stroke-linecap:butt;stroke-linejoin:miter;stroke-miterlimit:4;stroke-dasharray:none;stroke-opacity:1;fill-opacity:1"
             d="M 0,0 C -0.164,-1.149 -0.164,-1.479 0.822,-2.3 1.808,-3.121 2.958,-5.586 4.107,-7.722" />
        </g>
        <g
           style="fill:#ffffff;fill-opacity:1"
           transform="translate(306.709,411.8379)"
           id="g168">
          <path
             id="path170"
             style="fill:#ffffff;stroke:#373536;stroke-width:0.5;stroke-linecap:butt;stroke-linejoin:miter;stroke-miterlimit:4;stroke-dasharray:none;stroke-opacity:1;fill-opacity:1"
             d="M 0,0 C -0.492,-1.644 -1.643,-3.122 -3.614,-4.107 -5.586,-5.094 -9.693,-6.736 -11.5,-8.051" />
        </g>
        <g
           style="fill:#ffffff;fill-opacity:1"
           transform="translate(311.1445,409.373)"
           id="g172">
          <path
             id="path174"
             style="fill:#ffffff;stroke:#373536;stroke-width:0.5;stroke-linecap:butt;stroke-linejoin:miter;stroke-miterlimit:4;stroke-dasharray:none;stroke-opacity:1;fill-opacity:1"
             d="M 0,0 C -4.928,-1.479 -12.157,-4.601 -11.008,-17.908" />
        </g>
        <g
           style="fill:#ffffff;fill-opacity:1"
           transform="translate(301.4512,390.9717)"
           id="g176">
          <path
             id="path178"
             style="fill:#ffffff;stroke:#373536;stroke-width:0.5;stroke-linecap:butt;stroke-linejoin:miter;stroke-miterlimit:4;stroke-dasharray:none;stroke-opacity:1;fill-opacity:1"
             d="M 0,0 C 0.329,4.765 3.286,10.515 3.286,10.515" />
        </g>
        <g
           style="fill:#ffffff;fill-opacity:1"
           transform="translate(316.4023,408.2227)"
           id="g180">
          <path
             id="path182"
             style="fill:#ffffff;stroke:#373536;stroke-width:0.5;stroke-linecap:butt;stroke-linejoin:miter;stroke-miterlimit:4;stroke-dasharray:none;stroke-opacity:1;fill-opacity:1"
             d="M 0,0 C 3.286,-2.3 6.736,-12.322 6.9,-14.787 7.064,-17.251 6.736,-28.259 4.437,-32.531" />
        </g>
        <g
           style="fill:#ffffff;fill-opacity:1"
           transform="translate(323.7969,406.0869)"
           id="g184">
          <path
             id="path186"
             style="fill:#ffffff;stroke:#373536;stroke-width:0.5;stroke-linecap:butt;stroke-linejoin:miter;stroke-miterlimit:4;stroke-dasharray:none;stroke-opacity:1;fill-opacity:1"
             d="m 0,0 c 1.807,-1.643 4.436,-5.75 4.764,-7.722 0.328,-1.971 0.822,-2.957 1.15,-3.614 0.328,-0.657 0.492,-2.465 0.656,-3.943 0.165,-1.479 0.823,-2.629 1.315,-4.765 0.494,-2.136 0.822,-5.094 0.164,-7.064 -0.656,-1.972 1.808,-4.437 0.165,-8.544" />
        </g>
        <g
           style="fill:#ffffff;fill-opacity:1"
           transform="translate(334.9687,402.4727)"
           id="g188">
          <path
             id="path190"
             style="fill:#ffffff;stroke:#373536;stroke-width:0.5;stroke-linecap:butt;stroke-linejoin:miter;stroke-miterlimit:4;stroke-dasharray:none;stroke-opacity:1;fill-opacity:1"
             d="M 0,0 C -2.137,-2.957 -3.943,-7.558 -6.08,-5.915" />
        </g>
        <g
           style="fill:#ffffff;fill-opacity:1"
           transform="translate(334.9687,369.1201)"
           id="g192">
          <path
             id="path194"
             style="fill:#ffffff;stroke:#373536;stroke-width:0.5;stroke-linecap:butt;stroke-linejoin:miter;stroke-miterlimit:4;stroke-dasharray:none;stroke-opacity:1;fill-opacity:1"
             d="m 0,0 c 0.985,-1.972 0.985,-5.915 0.985,-5.915 0,0 0.658,0.493 -2.794,2.137 -3.449,1.642 -7.72,1.314 -7.72,1.314" />
        </g>
        <g
           style="fill:#ffffff;fill-opacity:1"
           transform="translate(335.625,360.9053)"
           id="g196">
          <path
             id="path198"
             style="fill:#ffffff;stroke:#373536;stroke-width:0.5;stroke-linecap:butt;stroke-linejoin:miter;stroke-miterlimit:4;stroke-dasharray:none;stroke-opacity:1;fill-opacity:1"
             d="m 0,0 c -2.629,0.329 -5.914,-0.164 -9.529,0.821 -3.615,0.987 -7.393,2.629 -7.393,2.629" />
        </g>
        <g
           style="fill:#ffffff;fill-opacity:1"
           transform="translate(333.4902,357.127)"
           id="g200">
          <path
             id="path202"
             style="fill:#ffffff;stroke:#373536;stroke-width:0.5;stroke-linecap:butt;stroke-linejoin:miter;stroke-miterlimit:4;stroke-dasharray:none;stroke-opacity:1;fill-opacity:1"
             d="m 0,0 c -2.793,-0.493 -15.115,-0.822 -18.238,0.164 -3.121,0.985 -12.487,5.914 -15.116,7.394 -2.628,1.478 -29.244,21.358 -40.909,36.966" />
        </g>
        <g
           style="fill:#ffffff;fill-opacity:1"
           transform="translate(323.6309,356.4687)"
           id="g204">
          <path
             id="path206"
             style="fill:#ffffff;stroke:#373536;stroke-width:0.5;stroke-linecap:butt;stroke-linejoin:miter;stroke-miterlimit:4;stroke-dasharray:none;stroke-opacity:1;fill-opacity:1"
             d="M 0,0 C 2.793,-0.656 8.709,-2.957 10.68,-2.3" />
        </g>
        <g
           style="fill:#ffffff;fill-opacity:1"
           transform="translate(312.9531,358.1123)"
           id="g208">
          <path
             id="path210"
             style="fill:#ffffff;stroke:#373536;stroke-width:0.5;stroke-linecap:butt;stroke-linejoin:miter;stroke-miterlimit:4;stroke-dasharray:none;stroke-opacity:1;fill-opacity:1"
             d="m 0,0 c -2.301,-3.286 -1.809,-3.778 -3.779,-5.915 -1.973,-2.136 -8.873,-6.407 -14.787,-8.051 -5.915,-1.642 -21.359,-6.078 -21.359,-6.078" />
        </g>
        <g
           style="fill:#ffffff;fill-opacity:1"
           transform="translate(299.3164,364.8486)"
           id="g212">
          <path
             id="path214"
             style="fill:#ffffff;stroke:#373536;stroke-width:0.5;stroke-linecap:butt;stroke-linejoin:miter;stroke-miterlimit:4;stroke-dasharray:none;stroke-opacity:1;fill-opacity:1"
             d="m 0,0 c -0.329,-1.314 -0.329,-0.329 -0.329,-1.314 0,-0.986 -0.493,-0.986 -0.986,-0.986 -0.493,0 -0.986,0.164 -0.493,-0.822 0.493,-0.985 -1.643,-0.328 -0.821,-1.479 0.821,-1.15 -0.658,0.494 -1.315,-0.985 -0.657,-1.479 1.151,0.328 -3.45,-1.314 -4.601,-1.644 -6.079,-1.644 -7.394,-2.793 -1.314,-1.151 -10.35,-5.258 -11.336,-5.751 -0.986,-0.493 -4.272,-0.164 -4.929,-0.493 -0.657,-0.329 -3.943,-1.971 -3.943,-1.971" />
        </g>
        <g
           style="fill:#ffffff;fill-opacity:1"
           transform="translate(284.6934,376.0205)"
           id="g216">
          <path
             id="path218"
             style="fill:#ffffff;stroke:#373536;stroke-width:0.5;stroke-linecap:butt;stroke-linejoin:miter;stroke-miterlimit:4;stroke-dasharray:none;stroke-opacity:1;fill-opacity:1"
             d="m 0,0 c -0.657,-0.164 -1.643,-1.15 -2.793,-1.808 -1.15,-0.656 -4.272,-2.957 -4.272,-2.957 0,0 -0.821,0.329 -1.643,-0.657 -0.821,-0.985 -6.407,-4.436 -9.201,-5.75 -2.793,-1.314 -8.379,-3.45 -9.2,-4.272 -0.822,-0.821 -5.258,-3.121 -6.572,-3.285 -1.315,-0.165 -1.807,0.328 -3.286,-0.165 -1.479,-0.493 -1.15,-0.329 -2.957,-1.807 -1.807,-1.479 -7.394,-5.751 -7.887,-9.201 -0.492,-3.451 0.329,-4.108 1.15,-1.479 0.822,2.629 3.78,7.23 3.78,7.23" />
        </g>
        <g
           style="fill:#ffffff;fill-opacity:1"
           transform="translate(247.7266,357.127)"
           id="g220">
          <path
             id="path222"
             style="fill:#ffffff;stroke:#373536;stroke-width:0.5;stroke-linecap:butt;stroke-linejoin:miter;stroke-miterlimit:4;stroke-dasharray:none;stroke-opacity:1;fill-opacity:1"
             d="m 0,0 c 0.821,1.807 0.493,2.957 0.164,4.271 -0.329,1.315 -0.986,6.901 -0.657,9.53 0.328,2.629 3.286,10.844 -0.493,15.443 -3.779,4.601 -8.215,6.901 -8.872,6.901 -0.657,0 -6.9,-3.286 -8.543,-6.244 -1.643,-2.957 -6.572,-12.322 -6.408,-13.307 0.164,-0.987 2.3,-4.437 3.615,-7.887 1.314,-3.45 4.436,-15.772 4.928,-17.087 0.493,-1.313 3.451,-11.008 5.258,-12.322 1.807,-1.314 7.393,-0.492 10.351,1.15 2.957,1.643 9.365,4.272 10.515,5.093 1.15,0.822 8.05,9.036 8.872,9.365 0.821,0.329 4.6,2.629 5.586,2.793 0.985,0.164 4.6,0.822 6.079,1.479 1.479,0.657 5.093,4.107 5.093,4.107 -0.164,2.957 -2.957,8.872 -5.586,10.844" />
        </g>
        <g
           style="fill:#ffffff;fill-opacity:1"
           transform="translate(283.2144,360.4121)"
           id="g224">
          <path
             id="path226"
             style="fill:#ffffff;stroke:#373536;stroke-width:0.5;stroke-linecap:butt;stroke-linejoin:miter;stroke-miterlimit:4;stroke-dasharray:none;stroke-opacity:1;fill-opacity:1"
             d="M 0,0 C 3.45,-0.328 4.601,-0.656 5.422,0.329 6.244,1.314 5.75,1.644 6.408,2.137 7.065,2.629 7.723,3.943 7.558,4.601 7.394,5.258 7.065,5.094 7.722,5.915 8.379,6.736 8.708,6.736 8.215,7.559 7.722,8.379 8.379,8.708 8.379,10.352" />
        </g>
        <g
           style="fill:#ffffff;fill-opacity:1"
           transform="translate(288.4722,373.3916)"
           id="g228">
          <path
             id="path230"
             style="fill:#ffffff;stroke:#373536;stroke-width:0.5;stroke-linecap:butt;stroke-linejoin:miter;stroke-miterlimit:4;stroke-dasharray:none;stroke-opacity:1;fill-opacity:1"
             d="M 0,0 C -1.314,0.165 -5.915,-0.821 -5.915,-0.821" />
        </g>
        <g
           style="fill:#ffffff;fill-opacity:1"
           transform="translate(253.1479,358.1123)"
           id="g232">
          <path
             id="path234"
             style="fill:#ffffff;stroke:#373536;stroke-width:0.5;stroke-linecap:butt;stroke-linejoin:miter;stroke-miterlimit:4;stroke-dasharray:none;stroke-opacity:1;fill-opacity:1"
             d="m 0,0 c -0.493,1.479 -0.328,6.243 0,7.229 0.329,0.986 0.493,2.629 0.165,5.586 -0.329,2.957 -2.301,18.237 -2.629,21.03 -0.329,2.794 -0.329,6.736 -0.329,7.558 0,0.822 -1.15,4.107 0.329,5.75 1.479,1.643 0.328,1.972 1.15,4.765 0.821,2.793 -0.658,4.601 1.971,7.886" />
        </g>
        <g
           style="fill:#ffffff;fill-opacity:1"
           transform="translate(234.2544,407.4014)"
           id="g236">
          <path
             id="path238"
             style="fill:#ffffff;stroke:#373536;stroke-width:0.5;stroke-linecap:butt;stroke-linejoin:miter;stroke-miterlimit:4;stroke-dasharray:none;stroke-opacity:1;fill-opacity:1"
             d="m 0,0 c 1.314,-1.15 2.3,0 3.614,-1.808 1.315,-1.806 8.544,-8.543 12.323,-7.721" />
        </g>
        <g
           style="fill:#ffffff;fill-opacity:1"
           transform="translate(237.8687,405.5937)"
           id="g240">
          <path
             id="path242"
             style="fill:#ffffff;stroke:#373536;stroke-width:0.5;stroke-linecap:butt;stroke-linejoin:miter;stroke-miterlimit:4;stroke-dasharray:none;stroke-opacity:1;fill-opacity:1"
             d="M 0,0 C 0,0 -0.986,-2.464 -0.657,-3.285 -0.329,-4.107 0.657,-7.557 0,-12.322" />
        </g>
        <g
           style="fill:#ffffff;fill-opacity:1"
           transform="translate(229.8179,380.457)"
           id="g244">
          <path
             id="path246"
             style="fill:#ffffff;stroke:#373536;stroke-width:0.5;stroke-linecap:butt;stroke-linejoin:miter;stroke-miterlimit:4;stroke-dasharray:none;stroke-opacity:1;fill-opacity:1"
             d="M 0,0 C 0,-5.422 -3.45,-13.145 1.643,-31.71" />
        </g>
        <g
           style="fill:#ffffff;fill-opacity:1"
           transform="translate(242.1401,360.248)"
           id="g248">
          <path
             id="path250"
             style="fill:#ffffff;stroke:#373536;stroke-width:0.5;stroke-linecap:butt;stroke-linejoin:miter;stroke-miterlimit:4;stroke-dasharray:none;stroke-opacity:1;fill-opacity:1"
             d="M 0,0 C -5.915,-6.407 -7.886,-10.022 -7.722,-12.65" />
        </g>
        <g
           style="fill:#ffffff;fill-opacity:1"
           transform="translate(252.6553,429.582)"
           id="g252">
          <path
             id="path254"
             style="fill:#ffffff;stroke:#373536;stroke-width:0.5;stroke-linecap:butt;stroke-linejoin:miter;stroke-miterlimit:4;stroke-dasharray:none;stroke-opacity:1;fill-opacity:1"
             d="M 0,0 C 0,0 0.822,-2.794 0.493,-4.601 0.329,-2.958 -0.821,-0.986 -1.314,0.328 -1.807,1.643 -3.286,4.6 -3.286,4.6 L -4.929,7.229 -5.093,5.914 -6.408,7.722 -7.886,8.214 -6.408,4.764 -7.393,4.107 c 0,0 -2.465,1.15 -4.601,3.451 L -11.5,2.793 c -1.151,1.971 -2.629,4.271 -2.629,4.271 0,0 0.328,-3.286 0,-4.436 -0.329,-1.149 -0.494,3.122 -0.494,3.122 l -1.149,-2.465 c 0,0 0.164,1.808 -0.329,3.944 -0.091,-0.772 -0.207,-1.431 -0.345,-2.004 -0.359,-1.503 -0.868,-2.421 -1.462,-3.254 0,0 -1.15,1.643 -0.986,1.15 0.164,-0.493 -0.821,-2.793 -0.821,-2.793 l -1.315,0.164 c 0,0 0.493,-1.971 0.328,-3.614 -0.164,-1.643 -0.328,-3.286 -0.164,-3.943 0.164,-0.658 0.164,-1.479 1.151,-3.122 -1.479,1.314 -2.465,1.314 -3.944,3.286" />
        </g>
        <g
           style="fill:#ffffff;fill-opacity:1"
           transform="translate(233.5967,417.4238)"
           id="g256">
          <path
             id="path258"
             style="fill:#ffffff;stroke:#373536;stroke-width:0.5;stroke-linecap:butt;stroke-linejoin:miter;stroke-miterlimit:4;stroke-dasharray:none;stroke-opacity:1;fill-opacity:1"
             d="m 0,0 c 1.15,-1.808 3.615,-4.601 6.079,-6.079 2.464,-1.479 5.751,-2.136 8.544,-0.986 2.793,1.15 3.778,3.615 4.272,5.421" />
        </g>
      </g>
      <g
         transform="matrix(1.25,0,0,-1.25,248.13101,677.64456)"
         clip-path="url(#clipPath264)"
         id="g262">
        <path
           d="m 348.9785,407.4424 c 0,-33.137 -26.863,-60 -60,-60 -33.137,0 -59.587,26.836 -59.587,59.973"
           style="fill:none;stroke:#373536;stroke-width:1.5;stroke-linecap:butt;stroke-linejoin:miter;stroke-miterlimit:4;stroke-dasharray:none;stroke-opacity:1"
           id="path270" />
      </g>
      <g
         transform="matrix(1.25,0,0,-1.25,248.13101,677.64456)"
         id="g13288"
         clip-path="url(#clipPath32)">
        <path
           id="path13296"
           style="fill:url(#polka);fill-opacity:1;fill-rule:nonzero;stroke:none"
           d="m 263.1284,434.8887 c 0.25,-0.75 -3,-8.25 -3,-9 0,-0.75 -3,-4 -3.5,-4.75 -0.5,-0.75 -3.75,-3.75 -4,-4.75 -0.25,-1 -1.5,-8.25 -1.25,-9.25 0.25,-1 -1.25,-3.75 -1,-6 0.25,-2.25 1.5,-13.75 1.5,-14.5 0,-0.75 1.25,-14 1.25,-15.75 0,-1.75 0.25,-9.75 0.25,-9.75 l 1.75,-1.75 c 0,0 3.25,2 5,2.5 1.75,0.5 9.75,4.75 12,5.5 2.25,0.75 4.5,3.75 5.75,4.5 1.25,0.75 6.25,4.25 6.25,4.25 l 7,-5.25 c 0,0 0.5,-3.25 0.25,-4 -0.25,-0.75 -2.25,-4.25 -2.5,-5 -0.25,-0.75 0.75,-1.75 -1.25,-1.75 l -5.25,0 c 0,0 -3.75,-2 -4.5,-2.75 -0.75,-0.75 -3.75,-1 -6.25,-2.25 -2.5,-1.25 -6,-2.75 -5.25,-3 0.75,-0.25 5.5,-4 8,-2.25 2.5,1.75 7.75,4.75 9.5,5.25 1.75,0.5 5.5,2.5 7,2.75 1.5,0.25 4.25,1.5 5.75,2.75 1.5,1.25 3.5,4.25 3.5,4.25 0,0 11,-6.75 12,-7 1,-0.25 9,-1.25 9,-1.25 0,0 15,11.75 14,12.25 -1,0.5 -5.75,2.75 -7,3.25 -1.25,0.5 -4.25,1.5 -4.25,1.5 0,0 -3.75,1.25 -6.5,3.5 -2.75,2.25 -6,6 -7,6 -1,0 -2,-0.75 -2.5,0.25 -0.5,1 -1.25,1.75 -3.25,2.5 -2,0.75 -2,2.25 -2,2.25 0,0 1,1.5 -1.25,2.5 -2.25,1 -4.5,1.5 -3.5,3 1,1.5 0.25,6 -2.25,9 -2.5,3 -4,3.75 -4,5.25 l 0,4.25 c 0,0 -5.75,9.25 -6.5,9.75 -0.75,0.5 -5,1.5 -5,2.75 0,1.25 0.5,8.5 0.5,8.5 0,0 -4,-0.25 -5.25,1 -1.25,1.25 -6.75,5 -6.75,5" />
        <path
           id="path13300"
           style="fill:none;stroke:#373536;stroke-width:0.5;stroke-linecap:butt;stroke-linejoin:miter;stroke-miterlimit:4;stroke-dasharray:none;stroke-opacity:1"
           d="m 324.125,439.2754 0.82,-4.601 c -0.984,-1.314 -5.091,-2.464 -6.242,-7.393 0,1.642 0.656,4.107 0.656,4.107 -2.793,-5.586 -5.586,-14.623 -2.629,-19.222 0.823,-1.315 4.438,-4.765 6.409,-5.915 1.971,-1.15 5.093,-1.15 6.572,-0.494 1.478,0.659 5.732,5.825 6.243,7.559 0.821,2.793 1.644,4.107 -0.329,9.693 -1.971,5.586 -3.613,8.872 -9.365,11.336" />
        <path
           id="path13304"
           style="fill:none;stroke:#373536;stroke-width:0.5;stroke-linecap:butt;stroke-linejoin:miter;stroke-miterlimit:4;stroke-dasharray:none;stroke-opacity:1"
           d="m 336.7754,417.5879 c 0.822,-8.708 -2.793,-19.88 -5.094,-23.494 1.315,1.149 3.615,6.571 3.615,6.571 -0.822,-4.107 -3.121,-8.379 -2.3,-10.843 0.658,2.628 2.3,8.543 4.929,11.172 2.629,2.629 3.121,5.586 3.286,6.243 2.628,-1.479 4.765,-1.971 6.572,-2.793 1.806,-0.821 3.451,-1.15 4.93,-2.958 -0.823,1.808 -3.288,3.944 -3.288,3.944" />
        <path
           id="path13308"
           style="fill:none;stroke:#373536;stroke-width:0.5;stroke-linecap:butt;stroke-linejoin:miter;stroke-miterlimit:4;stroke-dasharray:none;stroke-opacity:1"
           d="m 260.5415,446.833 c 0.986,-1.479 2.136,-2.136 2.958,-3.286 0.821,-1.151 1.807,-0.821 2.135,0.164 1.807,-3.121 5.258,-7.394 7.722,-8.872 2.465,-1.479 6.244,-2.629 8.379,-1.808" />
        <path
           id="path13312"
           style="fill:none;stroke:#373536;stroke-width:0.5;stroke-linecap:butt;stroke-linejoin:miter;stroke-miterlimit:4;stroke-dasharray:none;stroke-opacity:1"
           d="m 264.6489,443.0537 0.657,-3.121" />
        <path
           id="path13316"
           style="fill:none;stroke:#373536;stroke-width:0.5;stroke-linecap:butt;stroke-linejoin:miter;stroke-miterlimit:4;stroke-dasharray:none;stroke-opacity:1"
           d="m 269.5776,438.125 c -1.643,1.314 -4.6,2.136 -6.407,1.972" />
        <path
           id="path13320"
           style="fill:none;stroke:#373536;stroke-width:0.5;stroke-linecap:butt;stroke-linejoin:miter;stroke-miterlimit:4;stroke-dasharray:none;stroke-opacity:1"
           d="m 263.1704,434.1816 c 4.765,-0.657 13.801,-4.601 16.923,-8.215" />
        <path
           id="path13324"
           style="fill:none;stroke:#373536;stroke-width:0.5;stroke-linecap:butt;stroke-linejoin:miter;stroke-miterlimit:4;stroke-dasharray:none;stroke-opacity:1"
           d="m 287.6509,445.8467 c -2.958,-3.121 -7.722,-13.965 -7.229,-21.194" />
        <path
           id="path13328"
           style="fill:none;stroke:#373536;stroke-width:0.5;stroke-linecap:butt;stroke-linejoin:miter;stroke-miterlimit:4;stroke-dasharray:none;stroke-opacity:1"
           d="m 286.3364,455.8691 c -0.986,2.793 -3.943,10.515 -6.408,12.486 0.658,-0.821 0.986,-1.971 0.986,-1.971 l -2.629,1.971 1.315,-2.135 c 0,0 -1.479,1.15 -2.958,1.807 -1.478,0.657 -6.243,1.972 -6.243,1.972 l 3.943,-2.793 c 0,0 -5.257,1.149 -7.558,2.957 l 1.315,-2.793 -1.807,0.657 c 0,0 0.821,-1.15 0.985,-1.807 0.164,-0.658 -1.15,-0.164 -1.15,-0.164 l -1.971,1.15 c 0,0 0.328,-3.122 -0.822,-5.422 -1.15,-2.301 -0.821,-6.408 -0.821,-6.408 l 1.478,2.465 c 0,0 -0.821,-2.136 -1.15,-3.451 l 1.15,1.807 c -0.985,-0.657 -0.657,-5.421 -0.492,-6.735 -1.972,0.492 -3.122,2.136 -3.122,2.136 0,0 -1.314,-0.823 -0.657,-1.808" />
        <path
           id="path13332"
           style="fill:none;stroke:#373536;stroke-width:0.5;stroke-linecap:butt;stroke-linejoin:miter;stroke-miterlimit:4;stroke-dasharray:none;stroke-opacity:1"
           d="m 268.7563,431.2246 c 2.793,-1.479 5.258,-3.45 6.9,-4.107 1.643,-0.658 3.779,-2.465 6.079,-3.78 2.301,-1.314 9.037,-5.092 10.187,-15.772" />
        <path
           id="path13336"
           style="fill:none;stroke:#373536;stroke-width:0.5;stroke-linecap:butt;stroke-linejoin:miter;stroke-miterlimit:4;stroke-dasharray:none;stroke-opacity:1"
           d="m 282.0645,420.709 c 1.972,-1.807 6.408,-9.857 6.408,-9.857 0,0 2.793,-1.643 5.586,-5.422 2.793,-3.779 4.6,-6.078 4.6,-9.2 0,-3.123 -1.478,-3.615 0.493,-4.601 1.972,-0.986 4.272,-1.315 3.286,-2.957 -0.986,-1.644 -0.493,-2.301 0.986,-2.465 1.479,-0.164 3.943,-1.15 4.436,-2.465 0.492,-1.314 2.136,0.329 3.614,-1.642 1.48,-1.972 12.98,-9.037 12.98,-9.037 1.314,0.329 0,1.479 1.97,0.329 1.973,-1.15 8.545,-4.272 8.545,-4.272 l 7.393,-0.985" />
        <path
           id="path13340"
           style="fill:none;stroke:#373536;stroke-width:0.5;stroke-linecap:butt;stroke-linejoin:miter;stroke-miterlimit:4;stroke-dasharray:none;stroke-opacity:1"
           d="m 324.9453,373.7207 c 0.165,-2.301 -13.307,-8.708 -16.429,-8.051 -3.122,0.657 -12.815,4.436 -15.115,6.079 -2.3,1.643 -17.416,18.895 -20.373,23.002 -2.958,4.107 -6.736,10.351 -7.229,11.336 -0.493,0.987 -2.793,12.322 5.586,15.445" />
        <path
           id="path13344"
           style="fill:none;stroke:#373536;stroke-width:0.5;stroke-linecap:butt;stroke-linejoin:miter;stroke-miterlimit:4;stroke-dasharray:none;stroke-opacity:1"
           d="m 307.8594,383.7422 c 0.492,-1.971 -0.328,-5.421 -3.286,-5.75" />
        <path
           id="path13348"
           style="fill:none;stroke:#373536;stroke-width:0.5;stroke-linecap:butt;stroke-linejoin:miter;stroke-miterlimit:4;stroke-dasharray:none;stroke-opacity:1"
           d="m 351.0693,400.9941 c -2.136,1.314 -14.622,4.436 -13.637,-10.352 0.493,-2.793 1.48,-9.857 2.464,-12.322 0.986,-2.464 2.629,-11.993 2.629,-14.129 0,-2.135 1.643,-5.093 2.137,-6.572 5.586,-1.643 8.871,-3.614 10.021,-5.914" />
        <path
           id="path13352"
           style="fill:none;stroke:#373536;stroke-width:0.5;stroke-linecap:butt;stroke-linejoin:miter;stroke-miterlimit:4;stroke-dasharray:none;stroke-opacity:1"
           d="m 352.3838,351.8691 c -1.479,1.808 -6.407,4.107 -8.216,4.929 -2.135,-0.329 -2.627,-0.822 -3.777,-1.315 -1.151,-0.493 -1.479,-1.15 -2.465,-0.985 -0.986,0.164 -1.15,0 -1.643,-0.329 -0.494,-0.328 -0.494,1.15 -1.972,0 -1.479,-1.15 -1.971,-0.821 -3.779,-0.986 -1.807,-0.164 -4.108,-0.821 -4.108,-0.821 0,0 -9.035,-0.329 -10.021,-0.329 -0.986,0 -3.45,1.479 -5.915,1.972" />
        <path
           id="path13356"
           style="fill:none;stroke:#373536;stroke-width:0.5;stroke-linecap:butt;stroke-linejoin:miter;stroke-miterlimit:4;stroke-dasharray:none;stroke-opacity:1"
           d="m 302.6016,347.1045 c -0.492,-1.314 0,-2.136 0.822,-2.793 0.821,-0.657 1.314,-0.657 1.314,-1.314 0,-0.658 1.15,-0.986 1.15,-0.986 0,0 1.808,-1.972 3.778,-1.807" />
        <path
           id="path13360"
           style="fill:none;stroke:#373536;stroke-width:0.5;stroke-linecap:butt;stroke-linejoin:miter;stroke-miterlimit:4;stroke-dasharray:none;stroke-opacity:1"
           d="m 299.1514,346.1182 c 0.165,-1.643 1.479,-1.972 1.479,-1.972 0.165,-1.314 1.643,-2.134 1.643,-2.134 -0.493,-1.48 0.164,-3.123 1.15,-2.958 l 0.985,0.164 c 0,0 -0.656,1.479 0,0 0.658,-1.479 0.494,-1.479 2.465,-0.986 1.972,0.492 4.107,2.465 5.915,2.465 1.807,0 2.628,1.643 4.271,2.135 1.644,0.493 1.48,1.643 4.109,0.822 2.629,-0.822 8.214,-0.657 8.214,-0.657 0.493,-1.315 1.643,-0.985 1.643,-0.985 0,0 3.943,0.492 5.914,0.328 1.973,-0.164 11.172,0.492 13.637,1.314 2.465,0.821 3.121,0.986 4.6,0.821 1.48,-0.164 4.929,1.808 4.929,5.915 0,4.108 -1.807,22.508 -4.929,34.666 1.314,1.151 -0.821,8.708 -0.821,8.708" />
        <path
           id="path13364"
           style="fill:none;stroke:#373536;stroke-width:0.5;stroke-linecap:butt;stroke-linejoin:miter;stroke-miterlimit:4;stroke-dasharray:none;stroke-opacity:1"
           d="m 289.6221,415.7803 c 2.3,-2.793 4.272,-4.601 7.065,-4.436 2.793,0.165 8.872,2.136 10.844,10.844 l 0,1.479 c 0.656,-0.493 1.807,-0.329 1.807,1.642 0.164,-1.149 -1.315,-6.243 3.121,-11.501 0.164,-0.328 1.314,-1.642 4.271,-1.642" />
        <path
           id="path13368"
           style="fill:none;stroke:#373536;stroke-width:0.5;stroke-linecap:butt;stroke-linejoin:miter;stroke-miterlimit:4;stroke-dasharray:none;stroke-opacity:1"
           d="m 309.3379,425.3096 -0.821,1.972 c 0,0 0.328,-0.164 -0.822,-2.3 0.164,1.149 0.657,2.957 -0.658,5.75 -1.314,2.793 -2.793,4.107 -2.957,5.093 -0.164,0.986 -1.15,2.629 -1.15,2.629 l -1.15,-0.329 0.494,1.315 -0.987,0 0,1.314" />
        <path
           id="path13372"
           style="fill:none;stroke:#373536;stroke-width:0.5;stroke-linecap:butt;stroke-linejoin:miter;stroke-miterlimit:4;stroke-dasharray:none;stroke-opacity:1"
           d="m 314.4316,412.4941 c 1.15,13.145 -5.915,18.566 -6.9,22.509 -0.987,3.943 -5.916,6.901 -7.887,6.079 -0.986,-0.657 -2.465,0.493 1.642,1.314 -3.614,0.494 -9.857,-0.821 -11.007,-11.501 -0.329,2.301 1.15,8.38 1.15,8.38 -1.808,-2.465 -4.436,-14.951 -3.615,-20.702" />
        <path
           id="path13376"
           style="fill:none;stroke:#373536;stroke-width:0.5;stroke-linecap:butt;stroke-linejoin:miter;stroke-miterlimit:4;stroke-dasharray:none;stroke-opacity:1"
           d="m 292.7437,412.4941 c -0.164,-1.149 -0.164,-1.479 0.822,-2.3 0.986,-0.821 2.136,-3.286 3.285,-5.422" />
        <path
           id="path13380"
           style="fill:none;stroke:#373536;stroke-width:0.5;stroke-linecap:butt;stroke-linejoin:miter;stroke-miterlimit:4;stroke-dasharray:none;stroke-opacity:1"
           d="m 306.709,411.8379 c -0.492,-1.644 -1.643,-3.122 -3.614,-4.107 -1.972,-0.987 -6.079,-2.629 -7.886,-3.944" />
        <path
           id="path13384"
           style="fill:none;stroke:#373536;stroke-width:0.5;stroke-linecap:butt;stroke-linejoin:miter;stroke-miterlimit:4;stroke-dasharray:none;stroke-opacity:1"
           d="m 311.1445,409.373 c -4.928,-1.479 -12.157,-4.601 -11.008,-17.908" />
        <path
           id="path13388"
           style="fill:none;stroke:#373536;stroke-width:0.5;stroke-linecap:butt;stroke-linejoin:miter;stroke-miterlimit:4;stroke-dasharray:none;stroke-opacity:1"
           d="m 301.4512,390.9717 c 0.329,4.765 3.286,10.515 3.286,10.515" />
        <path
           id="path13392"
           style="fill:none;stroke:#373536;stroke-width:0.5;stroke-linecap:butt;stroke-linejoin:miter;stroke-miterlimit:4;stroke-dasharray:none;stroke-opacity:1"
           d="m 316.4023,408.2227 c 3.286,-2.3 6.736,-12.322 6.9,-14.787 0.164,-2.464 -0.164,-13.472 -2.463,-17.744" />
        <path
           id="path13396"
           style="fill:none;stroke:#373536;stroke-width:0.5;stroke-linecap:butt;stroke-linejoin:miter;stroke-miterlimit:4;stroke-dasharray:none;stroke-opacity:1"
           d="m 323.7969,406.0869 c 1.807,-1.643 4.436,-5.75 4.764,-7.722 0.328,-1.971 0.822,-2.957 1.15,-3.614 0.328,-0.657 0.492,-2.465 0.656,-3.943 0.165,-1.479 0.823,-2.629 1.315,-4.765 0.494,-2.136 0.822,-5.094 0.164,-7.064 -0.656,-1.972 1.808,-4.437 0.165,-8.544" />
        <path
           id="path13400"
           style="fill:none;stroke:#373536;stroke-width:0.5;stroke-linecap:butt;stroke-linejoin:miter;stroke-miterlimit:4;stroke-dasharray:none;stroke-opacity:1"
           d="m 334.9687,402.4727 c -2.137,-2.957 -3.943,-7.558 -6.08,-5.915" />
        <path
           id="path13404"
           style="fill:none;stroke:#373536;stroke-width:0.5;stroke-linecap:butt;stroke-linejoin:miter;stroke-miterlimit:4;stroke-dasharray:none;stroke-opacity:1"
           d="m 334.9687,369.1201 c 0.985,-1.972 0.985,-5.915 0.985,-5.915 0,0 0.658,0.493 -2.794,2.137 -3.449,1.642 -7.72,1.314 -7.72,1.314" />
        <path
           id="path13408"
           style="fill:none;stroke:#373536;stroke-width:0.5;stroke-linecap:butt;stroke-linejoin:miter;stroke-miterlimit:4;stroke-dasharray:none;stroke-opacity:1"
           d="m 335.625,360.9053 c -2.629,0.329 -5.914,-0.164 -9.529,0.821 -3.615,0.987 -7.393,2.629 -7.393,2.629" />
        <path
           id="path13412"
           style="fill:none;stroke:#373536;stroke-width:0.5;stroke-linecap:butt;stroke-linejoin:miter;stroke-miterlimit:4;stroke-dasharray:none;stroke-opacity:1"
           d="m 333.4902,357.127 c -2.793,-0.493 -15.115,-0.822 -18.238,0.164 -3.121,0.985 -12.487,5.914 -15.116,7.394 -2.628,1.478 -29.244,21.358 -40.909,36.966" />
        <path
           id="path13416"
           style="fill:none;stroke:#373536;stroke-width:0.5;stroke-linecap:butt;stroke-linejoin:miter;stroke-miterlimit:4;stroke-dasharray:none;stroke-opacity:1"
           d="m 323.6309,356.4687 c 2.793,-0.656 8.709,-2.957 10.68,-2.3" />
        <path
           id="path13420"
           style="fill:none;stroke:#373536;stroke-width:0.5;stroke-linecap:butt;stroke-linejoin:miter;stroke-miterlimit:4;stroke-dasharray:none;stroke-opacity:1"
           d="m 312.9531,358.1123 c -2.301,-3.286 -1.809,-3.778 -3.779,-5.915 -1.973,-2.136 -8.873,-6.407 -14.787,-8.051 -5.915,-1.642 -21.359,-6.078 -21.359,-6.078" />
        <path
           id="path13424"
           style="fill:none;stroke:#373536;stroke-width:0.5;stroke-linecap:butt;stroke-linejoin:miter;stroke-miterlimit:4;stroke-dasharray:none;stroke-opacity:1"
           d="m 299.3164,364.8486 c -0.329,-1.314 -0.329,-0.329 -0.329,-1.314 0,-0.986 -0.493,-0.986 -0.986,-0.986 -0.493,0 -0.986,0.164 -0.493,-0.822 0.493,-0.985 -1.643,-0.328 -0.821,-1.479 0.821,-1.15 -0.658,0.494 -1.315,-0.985 -0.657,-1.479 1.151,0.328 -3.45,-1.314 -4.601,-1.644 -6.079,-1.644 -7.394,-2.793 -1.314,-1.151 -10.35,-5.258 -11.336,-5.751 -0.986,-0.493 -4.272,-0.164 -4.929,-0.493 -0.657,-0.329 -3.943,-1.971 -3.943,-1.971" />
        <path
           id="path13428"
           style="fill:none;stroke:#373536;stroke-width:0.5;stroke-linecap:butt;stroke-linejoin:miter;stroke-miterlimit:4;stroke-dasharray:none;stroke-opacity:1"
           d="m 284.6934,376.0205 c -0.657,-0.164 -1.643,-1.15 -2.793,-1.808 -1.15,-0.656 -4.272,-2.957 -4.272,-2.957 0,0 -0.821,0.329 -1.643,-0.657 -0.821,-0.985 -6.407,-4.436 -9.201,-5.75 -2.793,-1.314 -8.379,-3.45 -9.2,-4.272 -0.822,-0.821 -5.258,-3.121 -6.572,-3.285 -1.315,-0.165 -1.807,0.328 -3.286,-0.165 -1.479,-0.493 -1.15,-0.329 -2.957,-1.807 -1.807,-1.479 -7.394,-5.751 -7.887,-9.201 -0.492,-3.451 0.329,-4.108 1.15,-1.479 0.822,2.629 3.78,7.23 3.78,7.23" />
        <path
           id="path13432"
           style="fill:none;stroke:#373536;stroke-width:0.5;stroke-linecap:butt;stroke-linejoin:miter;stroke-miterlimit:4;stroke-dasharray:none;stroke-opacity:1"
           d="m 247.7266,357.127 c 0.821,1.807 0.493,2.957 0.164,4.271 -0.329,1.315 -0.986,6.901 -0.657,9.53 0.328,2.629 3.286,10.844 -0.493,15.443 -3.779,4.601 -8.215,6.901 -8.872,6.901 -0.657,0 -6.9,-3.286 -8.543,-6.244 -1.643,-2.957 -6.572,-12.322 -6.408,-13.307 0.164,-0.987 2.3,-4.437 3.615,-7.887 1.314,-3.45 4.436,-15.772 4.928,-17.087 0.493,-1.313 3.451,-11.008 5.258,-12.322 1.807,-1.314 7.393,-0.492 10.351,1.15 2.957,1.643 9.365,4.272 10.515,5.093 1.15,0.822 8.05,9.036 8.872,9.365 0.821,0.329 4.6,2.629 5.586,2.793 0.985,0.164 4.6,0.822 6.079,1.479 1.479,0.657 5.093,4.107 5.093,4.107 -0.164,2.957 -2.957,8.872 -5.586,10.844" />
        <path
           id="path13436"
           style="fill:none;stroke:#373536;stroke-width:0.5;stroke-linecap:butt;stroke-linejoin:miter;stroke-miterlimit:4;stroke-dasharray:none;stroke-opacity:1"
           d="m 283.2144,360.4121 c 3.45,-0.328 4.601,-0.656 5.422,0.329 0.822,0.985 0.328,1.315 0.986,1.808 0.657,0.492 1.315,1.806 1.15,2.464 -0.164,0.657 -0.493,0.493 0.164,1.314 0.657,0.821 0.986,0.821 0.493,1.644 -0.493,0.82 0.164,1.149 0.164,2.793" />
        <path
           id="path13440"
           style="fill:none;stroke:#373536;stroke-width:0.5;stroke-linecap:butt;stroke-linejoin:miter;stroke-miterlimit:4;stroke-dasharray:none;stroke-opacity:1"
           d="m 288.4722,373.3916 c -1.314,0.165 -5.915,-0.821 -5.915,-0.821" />
        <path
           id="path13444"
           style="fill:none;stroke:#373536;stroke-width:0.5;stroke-linecap:butt;stroke-linejoin:miter;stroke-miterlimit:4;stroke-dasharray:none;stroke-opacity:1"
           d="m 253.1479,358.1123 c -0.493,1.479 -0.328,6.243 0,7.229 0.329,0.986 0.493,2.629 0.165,5.586 -0.329,2.957 -2.301,18.237 -2.629,21.03 -0.329,2.794 -0.329,6.736 -0.329,7.558 0,0.822 -1.15,4.107 0.329,5.75 1.479,1.643 0.328,1.972 1.15,4.765 0.821,2.793 -0.658,4.601 1.971,7.886" />
        <path
           id="path13448"
           style="fill:none;stroke:#373536;stroke-width:0.5;stroke-linecap:butt;stroke-linejoin:miter;stroke-miterlimit:4;stroke-dasharray:none;stroke-opacity:1"
           d="m 234.2544,407.4014 c 1.314,-1.15 2.3,0 3.614,-1.808 1.315,-1.806 8.544,-8.543 12.323,-7.721" />
        <path
           id="path13452"
           style="fill:none;stroke:#373536;stroke-width:0.5;stroke-linecap:butt;stroke-linejoin:miter;stroke-miterlimit:4;stroke-dasharray:none;stroke-opacity:1"
           d="m 237.8687,405.5937 c 0,0 -0.986,-2.464 -0.657,-3.285 0.328,-0.822 1.314,-4.272 0.657,-9.037" />
        <path
           id="path13456"
           style="fill:none;stroke:#373536;stroke-width:0.5;stroke-linecap:butt;stroke-linejoin:miter;stroke-miterlimit:4;stroke-dasharray:none;stroke-opacity:1"
           d="m 229.8179,380.457 c 0,-5.422 -3.45,-13.145 1.643,-31.71" />
        <path
           id="path13460"
           style="fill:none;stroke:#373536;stroke-width:0.5;stroke-linecap:butt;stroke-linejoin:miter;stroke-miterlimit:4;stroke-dasharray:none;stroke-opacity:1"
           d="m 242.1401,360.248 c -5.915,-6.407 -7.886,-10.022 -7.722,-12.65" />
        <path
           id="path13464"
           style="fill:none;stroke:#373536;stroke-width:0.5;stroke-linecap:butt;stroke-linejoin:miter;stroke-miterlimit:4;stroke-dasharray:none;stroke-opacity:1"
           d="m 252.6553,429.582 c 0,0 0.822,-2.794 0.493,-4.601 -0.164,1.643 -1.314,3.615 -1.807,4.929 -0.493,1.315 -1.972,4.272 -1.972,4.272 l -1.643,2.629 -0.164,-1.315 -1.315,1.808 -1.478,0.492 1.478,-3.45 -0.985,-0.657 c 0,0 -2.465,1.15 -4.601,3.451 l 0.494,-4.765 c -1.151,1.971 -2.629,4.271 -2.629,4.271 0,0 0.328,-3.286 0,-4.436 -0.329,-1.149 -0.494,3.122 -0.494,3.122 l -1.149,-2.465 c 0,0 0.164,1.808 -0.329,3.944 -0.091,-0.772 -0.207,-1.431 -0.345,-2.004 -0.359,-1.503 -0.868,-2.421 -1.462,-3.254 0,0 -1.15,1.643 -0.986,1.15 0.164,-0.493 -0.821,-2.793 -0.821,-2.793 l -1.315,0.164 c 0,0 0.493,-1.971 0.328,-3.614 -0.164,-1.643 -0.328,-3.286 -0.164,-3.943 0.164,-0.658 0.164,-1.479 1.151,-3.122 -1.479,1.314 -2.465,1.314 -3.944,3.286" />
        <path
           id="path13468"
           style="fill:none;stroke:#373536;stroke-width:0.5;stroke-linecap:butt;stroke-linejoin:miter;stroke-miterlimit:4;stroke-dasharray:none;stroke-opacity:1"
           d="m 233.5967,417.4238 c 1.15,-1.808 3.615,-4.601 6.079,-6.079 2.464,-1.479 5.751,-2.136 8.544,-0.986 2.793,1.15 3.778,3.615 4.272,5.421" />
      </g>
      <g
         transform="matrix(1.25,0,0,-1.25,248.13101,677.64456)"
         id="g13472"
         clip-path="url(#clipPath264)">
        <path
           id="path13476"
           style="fill:none;stroke:#373536;stroke-width:1.5;stroke-linecap:butt;stroke-linejoin:miter;stroke-miterlimit:4;stroke-dasharray:none;stroke-opacity:1"
           d="m 348.9785,407.4424 c 0,-33.137 -26.863,-60 -60,-60 -33.137,0 -59.587,26.836 -59.587,59.973" />
      </g>
    </g>
  </g>
</svg>
