<?xml version="1.0" encoding="utf-8"?>
<!-- Generator: Adobe Illustrator 18.0.0, SVG Export Plug-In . SVG Version: 6.00 Build 0)  -->
<!DOCTYPE svg PUBLIC "-//W3C//DTD SVG 1.1//EN" "http://www.w3.org/Graphics/SVG/1.1/DTD/svg11.dtd">
<svg version="1.1" id="Layer_1" xmlns="http://www.w3.org/2000/svg" xmlns:xlink="http://www.w3.org/1999/xlink" x="0px" y="0px"
	 viewBox="0 0 1280 1280" enable-background="new 0 0 1280 1280" xml:space="preserve">
<pattern  y="1280" width="12" height="12" patternUnits="userSpaceOnUse" id="New_Pattern_Swatch_24" viewBox="3 -15 12 12" overflow="visible">
	<g>
		<polygon fill="none" points="3,-15 15,-15 15,-3 3,-3 		"/>
		<g>
			<polygon fill="#FFFFFF" points="15,0 9,0 9,-6 15,-6 			"/>
			<path fill="#E22128" d="M13.5-3c0,0.8-0.7,1.5-1.5,1.5S10.5-2.2,10.5-3s0.7-1.5,1.5-1.5S13.5-3.8,13.5-3z"/>
		</g>
		<g>
			<polygon fill="#FFFFFF" points="9,0 3,0 3,-6 9,-6 			"/>
			<path fill="#E22128" d="M7.5-3c0,0.8-0.7,1.5-1.5,1.5S4.5-2.2,4.5-3S5.2-4.5,6-4.5S7.5-3.8,7.5-3z"/>
		</g>
		<g>
			<polygon fill="#FFFFFF" points="18,-6 12,-6 12,-12 18,-12 			"/>
			<path fill="#E22128" d="M16.5-9c0,0.8-0.7,1.5-1.5,1.5S13.5-8.2,13.5-9s0.7-1.5,1.5-1.5S16.5-9.8,16.5-9z"/>
		</g>
		<g>
			<polygon fill="#FFFFFF" points="12,-6 6,-6 6,-12 12,-12 			"/>
			<path fill="#E22128" d="M10.5-9c0,0.8-0.7,1.5-1.5,1.5S7.5-8.2,7.5-9s0.7-1.5,1.5-1.5S10.5-9.8,10.5-9z"/>
		</g>
		<g>
			<polygon fill="#FFFFFF" points="6,-6 0,-6 0,-12 6,-12 			"/>
			<path fill="#E22128" d="M4.5-9c0,0.8-0.7,1.5-1.5,1.5S1.5-8.2,1.5-9s0.7-1.5,1.5-1.5S4.5-9.8,4.5-9z"/>
		</g>
		<g>
			<polygon fill="#FFFFFF" points="15,-12 9,-12 9,-18 15,-18 			"/>
			<path fill="#E22128" d="M13.5-15c0,0.8-0.7,1.5-1.5,1.5s-1.5-0.7-1.5-1.5s0.7-1.5,1.5-1.5S13.5-15.8,13.5-15z"/>
		</g>
		<g>
			<polygon fill="#FFFFFF" points="9,-12 3,-12 3,-18 9,-18 			"/>
			<path fill="#E22128" d="M7.5-15c0,0.8-0.7,1.5-1.5,1.5S4.5-14.2,4.5-15s0.7-1.5,1.5-1.5S7.5-15.8,7.5-15z"/>
		</g>
	</g>
</pattern>
<g>
	<path fill="#FFFFFF" stroke="#231F20" stroke-width="12.0043" d="M260.7,470.8c29-35.7,66.5-73.7,104.4-99.8"/>
	<path fill="#FFFFFF" stroke="#231F20" stroke-width="12.0043" d="M605.3,287.4c10.6-0.7,21.3-1.1,32.1-1.1
		c265.2,0,480.2,215,480.2,480.2c0,265.2-215,480.2-480.2,480.2c-265.2,0-480.2-215-480.2-480.2c0-25.6,3-56.8,6.9-81.3"/>
	<g>
		<defs>
			<path id="SVGID_1_" d="M149.8,776.3c50.7,257.2,221.1,473.7,486.3,473.7c265.2,0,481.5-215.6,481.5-480.8V200.9l-986.8,8
				L104,752.2L149.8,776.3z"/>
		</defs>
		<clipPath id="SVGID_2_">
			<use xlink:href="#SVGID_1_"  overflow="visible"/>
		</clipPath>
		
			<path clip-path="url(#SVGID_2_)" fill="none" stroke="#231F20" stroke-width="12.0043" stroke-linecap="round" stroke-linejoin="round" d="
			M199.4,482.8c-18.4,5.3-50,23.7-53.9,35.5c-14.5,18.4-39.4,77.6,9.2,126.2c-5.8,2.9,2.5,21.9,9.4,35c2.6,4.8,4.9,8.9,6.3,11
			c5.3,7.9,19.7,17.1,28.9,11.8c10.5,10.5,27.6,27.6,17.1,46c-10.5,1.3-19.7,7.9-19.7,13.1c0,5.3,0,5.3,0,5.3s-5.3,7.9-14.5,14.5
			c-9.2,6.6-32.9,51.3-51.3,96c-18.4,44.7-48.6,109.1-44.7,159.1c3.9,50-7.9,68.4,9.2,118.3c17.1,50,35.5,119.7,19.7,149.9
			c-15.8,30.2-14.5,40.8-14.5,40.8H1325v-31.6c-13.1-18.4-27.6-28.9-35.5-40.8c-7.9-11.8-18.4-18.4-14.5-27.6
			c3.9-9.2,6.6-19.7,1.3-25c-5.3-5.3-10.5-9.2-10.5-15.8s3.9-10.5-2.6-15.8c-6.6-5.3-10.5-11.8-6.6-15.8c3.9-3.9-6.6-57.9-9.2-84.1
			c-2.6-26.3,10.5-90.7-19.7-159.1c-30.2-68.4-56.5-102.6-81.5-131.5c13.1,13.1,32.9,9.2,32.9,9.2c-15.8-13.1-28.9-11.8-46-31.6
			c-17.1-19.7-38.1-40.8-38.1-40.8s-32.9-40.8-50-92c-17.1-51.3-80.2-161.7-128.9-131.5c-14.5-9.2-77.6-1.3-99.9,59.2
			c-2.6-21-6.6-128.9-76.3-132.8c-11.8-9.2-23.7-11.8-30.2-6.6c-9.2-5.3-26.3-3.9-31.6,1.3c-7.9-3.9-38.1,6.6-53.9,26.3
			c3.9-18.4-1.3-59.2-10.5-80.2c-1.3-10.5-1.3-36.8-1.3-36.8l-7.9-14.5l-2.6-14.5c0,0,0-11.8-1.3-17.1c-1.3-5.3-19.7-34.2-19.7-34.2
			l2.6-6.6c0,0,0,3.9-25-10.5c-25-14.5-88.1-21-107.8-2.6c-14.5-2.6-25,1.3-34.2,13.2c-9.2,11.8-19.7,14.5-28.9,23.7
			c-9.2,9.2-17.1,17.1-17.1,17.1l10.5-2.6c0,0-6.6,13.2-9.2,27.6c-2.6,14.5-7.9,42.1,1.3,53.9c9.2,11.8,5.3,25,5.3,25l7.9-1.3
			c0,0,11.8,23.7,14.5,28.9s2.6,13.2,5.3,17.1c2.6,10.5,9.2,31.6,14.5,38.1c5.3,6.6,13.1,21,13.1,21l-5.3,1.3l-5.3,46
			c0,0-3.9,5.3-10.5,19.7c-6.6,14.5-21,57.9-21,57.9s-32.9,42.1-38.1,53.9c1.3-30.2-3.9-39.5-3.9-39.5c9.2,0,5.3-14.5,3.9-31.6
			c-1.3-17.1-5.3-22.4-9.2-22.4c1.3-15.8-10.5-61.8-19.7-71c-9.2-9.2-15.8-11.8-19.7-17.1c-3.9-5.3-15.8-17.1-21-15.8
			c-2.7,0.7-9.6-8.1-23.6-12.6c-0.9-0.3-1.8-0.5-2.7-0.8C244.2,468.6,225.6,469.1,199.4,482.8z"/>
		
			<pattern  id="SVGID_3_" xlink:href="#New_Pattern_Swatch_24" patternTransform="matrix(5.6589 -5.6589 5.6589 5.6589 85227.3281 -1441.126)">
		</pattern>
		<path clip-path="url(#SVGID_2_)" fill="url(#SVGID_3_)" d="M427.9,546.8c2,6-24,66-24,72s-24,32-28,38c-4,6-30,30-32,38
			c-2,8-12,66-10,74c2,8-10,30-8,48c2,18,12,110,12,116s10,112,10,126s2,78,2,78l14,14c0,0,26-16,40-20s78-38,96-44
			c18-6,36-30,46-36c10-6,50-34,50-34l56,42c0,0,4,26,2,32c-2,6-18,34-20,40c-2,6,6,14-10,14s-42,0-42,0s-30,16-36,22
			c-6,6-30,8-50,18c-20,10-48,22-42,24c6,2,44,32,64,18c20-14,62-38,76-42c14-4,44-20,56-22s34-12,46-22c12-10,28-34,28-34
			s88,54,96,56c8,2,72,10,72,10s120-94,112-98c-8-4-46-22-56-26s-34-12-34-12s-30-10-52-28c-22-18-48-48-56-48c-8,0-16,6-20-2
			c-4-8-10-14-26-20s-16-18-16-18s8-12-10-20c-18-8-36-12-28-24c8-12,2-48-18-72c-20-24-32-30-32-42s0-34,0-34s-46-74-52-78
			s-40-12-40-22c0-10,4-68,4-68s-32,2-42-8c-10-10-54-40-54-40"/>
		<g clip-path="url(#SVGID_2_)">
			<path fill="none" stroke="#231F20" stroke-width="4.0014" d="M916,511.7l6.6,36.8c-7.9,10.5-40.7,19.7-50,59.2
				c0-13.1,5.3-32.9,5.3-32.9c-22.4,44.7-44.7,117-21,153.8c6.6,10.5,35.5,38.1,51.3,47.3c15.8,9.2,40.8,9.2,52.6,3.9
				c11.8-5.3,45.9-46.6,50-60.5c6.6-22.4,13.2-32.9-2.6-77.6c-15.8-44.7-28.9-71-74.9-90.7"/>
			<path fill="none" stroke="#231F20" stroke-width="4.0014" d="M1146.1,798.4"/>
			<path fill="none" stroke="#231F20" stroke-width="4.0014" d="M1089.6,756.3"/>
			<path fill="none" stroke="#231F20" stroke-width="4.0014" d="M1017.3,685.3c6.6,69.7-22.4,159.1-40.8,188
				c10.5-9.2,28.9-52.6,28.9-52.6c-6.6,32.9-25,67.1-18.4,86.8c5.3-21,18.4-68.4,39.5-89.4c21-21,25-44.7,26.3-50
				c21,11.8,38.1,15.8,52.6,22.4c14.5,6.6,27.6,9.2,39.5,23.7c-6.6-14.5-26.3-31.6-26.3-31.6"/>
			<path fill="none" stroke="#231F20" stroke-width="4.0014" d="M407.2,451.2c7.9,11.8,17.1,17.1,23.7,26.3
				c6.6,9.2,14.5,6.6,17.1-1.3c14.5,25,42.1,59.2,61.8,71c19.7,11.8,50,21,67.1,14.5"/>
			<line fill="none" stroke="#231F20" stroke-width="4.0014" x1="440.1" y1="481.5" x2="445.3" y2="506.5"/>
			<path fill="none" stroke="#231F20" stroke-width="4.0014" d="M479.5,520.9c-13.1-10.5-36.8-17.1-51.3-15.8"/>
			<path fill="none" stroke="#231F20" stroke-width="4.0014" d="M428.2,552.5c38.1,5.3,110.4,36.8,135.4,65.7"/>
			<path fill="none" stroke="#231F20" stroke-width="4.0014" d="M624.1,459.1c-23.7,25-61.8,111.8-57.9,169.6"/>
			<path fill="none" stroke="#231F20" stroke-width="4.0014" d="M613.6,378.9c-7.9-22.4-31.6-84.1-51.3-99.9
				c5.3,6.6,7.9,15.8,7.9,15.8l-21-15.8l10.5,17.1c0,0-11.8-9.2-23.7-14.5c-11.8-5.3-50-15.8-50-15.8l31.6,22.4
				c0,0-42.1-9.2-60.5-23.7l10.5,22.4l-14.5-5.3c0,0,6.6,9.2,7.9,14.5c1.3,5.3-9.2,1.3-9.2,1.3l-15.8-9.2c0,0,2.6,25-6.6,43.4
				c-9.2,18.4-6.6,51.3-6.6,51.3l11.8-19.7c0,0-6.6,17.1-9.2,27.6l9.2-14.5c-7.9,5.3-5.3,43.4-3.9,53.9c-15.8-3.9-25-17.1-25-17.1
				s-10.5,6.6-5.3,14.5"/>
			<path fill="none" stroke="#231F20" stroke-width="4.0014" d="M472.9,576.2c22.4,11.8,42.1,27.6,55.2,32.9
				c13.1,5.3,30.2,19.7,48.7,30.2c18.4,10.5,72.3,40.8,81.5,126.2"/>
			<path fill="none" stroke="#231F20" stroke-width="4.0014" d="M579.4,660.3c15.8,14.5,51.3,78.9,51.3,78.9s22.4,13.1,44.7,43.4
				c22.4,30.2,36.8,48.6,36.8,73.6c0,25-11.8,28.9,3.9,36.8c15.8,7.9,34.2,10.5,26.3,23.7c-7.9,13.2-3.9,18.4,7.9,19.7
				c11.8,1.3,31.6,9.2,35.5,19.7c3.9,10.5,17.1-2.6,28.9,13.1c11.8,15.8,103.9,72.3,103.9,72.3c10.5-2.6,0-11.8,15.8-2.6
				c15.8,9.2,68.4,34.2,68.4,34.2l59.2,7.9"/>
			<path fill="none" stroke="#231F20" stroke-width="4.0014" d="M922.6,1036.3c1.3,18.4-106.5,69.7-131.5,64.4
				c-25-5.3-102.6-35.5-121-48.7c-18.4-13.1-139.4-151.2-163-184.1c-23.7-32.9-53.9-82.8-57.8-90.7c-3.9-7.9-22.4-98.6,44.7-123.6"
				/>
			<path fill="none" stroke="#231F20" stroke-width="4.0014" d="M785.9,956.1c3.9,15.8-2.6,43.4-26.3,46"/>
			<path fill="none" stroke="#231F20" stroke-width="4.0014" d="M1131.7,818.1c-17.1-10.5-117-35.5-109.1,82.8
				c3.9,22.4,11.8,78.9,19.7,98.6c7.9,19.7,21,96,21,113.1c0,17.1,13.1,40.8,17.1,52.6c44.7,13.1,71,28.9,80.2,47.3"/>
			<path fill="none" stroke="#231F20" stroke-width="4.0014" d="M1142.2,1211.2c-11.8-14.5-51.3-32.9-65.7-39.4
				c-17.1,2.6-21,6.6-30.2,10.5c-9.2,3.9-11.8,9.2-19.7,7.9c-7.9-1.3-9.2,0-13.1,2.6c-4,2.6-4-9.2-15.8,0
				c-11.8,9.2-15.8,6.6-30.2,7.9c-14.5,1.3-32.9,6.6-32.9,6.6s-72.3,2.6-80.2,2.6c-7.9,0-27.6-11.8-47.3-15.8"/>
			<path fill="none" stroke="#231F20" stroke-width="4.0014" d="M743.8,1249.4c-3.9,10.5,0,17.1,6.6,22.4
				c6.6,5.3,10.5,5.3,10.5,10.5c0,5.3,9.2,7.9,9.2,7.9s14.5,15.8,30.2,14.5"/>
			<path fill="none" stroke="#231F20" stroke-width="4.0014" d="M716.2,1257.2c1.3,13.1,11.8,15.8,11.8,15.8
				c1.3,10.5,13.1,17.1,13.1,17.1c-3.9,11.8,1.3,25,9.2,23.7c7.9-1.3,7.9-1.3,7.9-1.3s-5.3-11.8,0,0c5.3,11.8,4,11.8,19.7,7.9
				c15.8-3.9,32.9-19.7,47.3-19.7s21-13.1,34.2-17.1c13.2-3.9,11.8-13.2,32.9-6.6c21,6.6,65.7,5.3,65.7,5.3
				c3.9,10.5,13.1,7.9,13.1,7.9s31.6-3.9,47.3-2.6c15.8,1.3,89.4-3.9,109.1-10.5c19.7-6.6,25-7.9,36.8-6.6
				c11.8,1.3,39.4-14.5,39.4-47.3s-14.5-180.1-39.4-277.4c10.5-9.2-6.6-69.7-6.6-69.7"/>
			<path fill="none" stroke="#231F20" stroke-width="4.0014" d="M1164.5,945.6c19.7-6.6,22.4-48.7,22.4-48.7"/>
			<path fill="none" stroke="#231F20" stroke-width="4.0014" d="M639.9,699.8c18.4,22.4,34.2,36.8,56.5,35.5
				c22.4-1.3,71-17.1,86.8-86.8v-11.8c5.3,3.9,14.5,2.6,14.5-13.1c1.3,9.2-10.5,50,25,92c1.3,2.6,10.5,13.1,34.2,13.1"/>
			<path fill="none" stroke="#231F20" stroke-width="4.0014" d="M797.7,623.5l-6.6-15.8c0,0,2.6,1.3-6.6,18.4
				c1.3-9.2,5.3-23.7-5.3-46c-10.5-22.4-22.4-32.9-23.7-40.8c-1.3-7.9-9.2-21-9.2-21l-9.2,2.6l3.9-10.5h-7.9v-10.5"/>
			<path fill="none" stroke="#231F20" stroke-width="4.0014" d="M838.5,726c9.2-105.2-47.3-148.6-55.2-180.1
				c-7.9-31.6-47.3-55.2-63.1-48.7c-7.9,5.3-19.7-3.9,13.1-10.5c-28.9-3.9-78.9,6.6-88.1,92c-2.6-18.4,9.2-67.1,9.2-67.1
				c-14.5,19.7-35.5,119.7-28.9,165.7"/>
			<path fill="none" stroke="#231F20" stroke-width="4.0014" d="M664.9,726c-1.3,9.2-1.3,11.8,6.6,18.4c7.9,6.6,17.1,26.3,26.3,43.4
				"/>
			<path fill="none" stroke="#231F20" stroke-width="4.0014" d="M776.7,731.3c-3.9,13.2-13.1,25-28.9,32.9
				c-15.8,7.9-48.7,21-63.1,31.6"/>
			<path fill="none" stroke="#231F20" stroke-width="4.0014" d="M812.2,751c-39.4,11.8-97.3,36.8-88.1,143.3"/>
			<path fill="none" stroke="#231F20" stroke-width="4.0014" d="M734.6,898.3c2.6-38.1,26.3-84.1,26.3-84.1"/>
			<path fill="none" stroke="#231F20" stroke-width="4.0014" d="M854.2,760.2c26.3,18.4,53.9,98.6,55.2,118.3
				c1.3,19.7-1.3,107.8-19.7,142"/>
			<path fill="none" stroke="#231F20" stroke-width="4.0014" d="M913.4,777.3c14.5,13.1,35.5,46,38.1,61.8
				c2.6,15.8,6.6,23.7,9.2,28.9c2.6,5.3,3.9,19.7,5.3,31.6c1.3,11.8,6.6,21,10.5,38.1c4,17.1,6.6,40.8,1.3,56.5
				c-5.3,15.8,14.5,35.5,1.3,68.4"/>
			<path fill="none" stroke="#231F20" stroke-width="4.0014" d="M1002.8,806.2c-17.1,23.7-31.6,60.5-48.7,47.3"/>
			<path fill="none" stroke="#231F20" stroke-width="4.0014" d="M1002.8,1073.2c7.9,15.8,7.9,47.3,7.9,47.3s5.3-3.9-22.4-17.1
				c-27.6-13.1-61.8-10.5-61.8-10.5"/>
			<path fill="none" stroke="#231F20" stroke-width="4.0014" d="M1008.1,1138.9c-21-2.6-47.3,1.3-76.3-6.6
				c-28.9-7.9-59.2-21-59.2-21"/>
			<path fill="none" stroke="#231F20" stroke-width="4.0014" d="M991,1169.1c-22.4,3.9-121,6.6-146-1.3c-25-7.9-99.9-47.3-121-59.2
				c-21-11.8-234-170.9-327.4-295.8"/>
			<path fill="none" stroke="#231F20" stroke-width="4.0014" d="M912.1,1174.4c22.4,5.3,69.7,23.7,85.5,18.4"/>
			<path fill="none" stroke="#231F20" stroke-width="4.0014" d="M826.6,1161.3c-18.4,26.3-14.5,30.2-30.2,47.3
				c-15.8,17.1-71,51.3-118.3,64.4c-47.3,13.1-170.9,48.6-170.9,48.6"/>
			<path fill="none" stroke="#231F20" stroke-width="4.0014" d="M717.5,1107.3c-2.6,10.5-2.6,2.6-2.6,10.5c0,7.9-3.9,7.9-7.9,7.9
				c-3.9,0-7.9-1.3-3.9,6.6c3.9,7.9-13.1,2.6-6.6,11.8c6.6,9.2-5.3-3.9-10.5,7.9c-5.3,11.8,9.2-2.6-27.6,10.5
				c-36.8,13.2-48.7,13.2-59.2,22.4c-10.5,9.2-82.8,42.1-90.7,46c-7.9,3.9-34.2,1.3-39.4,3.9c-5.3,2.6-31.6,15.8-31.6,15.8"/>
			<path fill="none" stroke="#231F20" stroke-width="4.0014" d="M600.5,1017.9c-5.3,1.3-13.1,9.2-22.4,14.5
				c-9.2,5.3-34.2,23.7-34.2,23.7s-6.6-2.6-13.1,5.3c-6.6,7.9-51.3,35.5-73.6,46c-22.4,10.5-67.1,27.6-73.6,34.2
				c-6.6,6.6-42.1,25-52.6,26.3c-10.5,1.3-14.5-2.6-26.3,1.3c-11.8,3.9-9.2,2.6-23.7,14.5c-14.5,11.8-59.2,46-63.1,73.6
				s2.6,32.9,9.2,11.8c6.6-21,30.2-57.9,30.2-57.9"/>
			<path fill="none" stroke="#231F20" stroke-width="4.0014" d="M304.6,1169.1c6.6-14.5,3.9-23.7,1.3-34.2
				c-2.6-10.5-7.9-55.2-5.3-76.3s26.3-86.8-3.9-123.6c-30.2-36.8-65.7-55.2-71-55.2c-5.3,0-55.2,26.3-68.4,50
				c-13.1,23.7-52.6,98.6-51.3,106.5c1.3,7.9,18.4,35.5,28.9,63.1c10.5,27.6,35.5,126.2,39.4,136.7c3.9,10.5,27.6,88.1,42.1,98.6
				c14.5,10.5,59.2,3.9,82.8-9.2c23.7-13.1,74.9-34.2,84.2-40.8c9.2-6.6,64.4-72.3,71-74.9c6.6-2.6,36.8-21,44.7-22.4
				c7.9-1.3,36.8-6.6,48.7-11.8c11.8-5.3,40.8-32.9,40.8-32.9c-1.3-23.7-23.7-71-44.7-86.8"/>
			<path fill="none" stroke="#231F20" stroke-width="4.0014" d="M588.6,1142.9c27.6,2.6,36.8,5.3,43.4-2.6
				c6.6-7.9,2.6-10.5,7.9-14.5c5.3-3.9,10.5-14.5,9.2-19.7c-1.3-5.3-3.9-3.9,1.3-10.5c5.3-6.6,7.9-6.6,3.9-13.2
				c-3.9-6.6,1.3-9.2,1.3-22.4"/>
			<path fill="none" stroke="#231F20" stroke-width="4.0014" d="M630.7,1039c-10.5-1.3-47.3,6.6-47.3,6.6"/>
			<path fill="none" stroke="#231F20" stroke-width="4.0014" d="M348,1161.3c-3.9-11.8-2.6-50,0-57.9c2.6-7.9,3.9-21,1.3-44.7
				s-18.4-145.9-21-168.3c-2.6-22.4-2.6-53.9-2.6-60.5c0-6.6-9.2-32.9,2.6-46c11.8-13.1,2.6-15.8,9.2-38.1
				c6.6-22.4-5.3-36.8,15.8-63.1"/>
			<path fill="none" stroke="#231F20" stroke-width="4.0014" d="M196.8,766.8c10.5,9.2,18.4,0,28.9,14.5
				c10.5,14.5,68.4,68.4,98.6,61.8"/>
			<path fill="none" stroke="#231F20" stroke-width="4.0014" d="M225.7,781.3c0,0-7.9,19.7-5.3,26.3c2.6,6.6,10.5,34.2,5.3,72.3"/>
			<path fill="none" stroke="#231F20" stroke-width="4.0014" d="M161.3,982.4c0,43.4-27.6,105.2,13.1,253.8"/>
			<path fill="none" stroke="#231F20" stroke-width="4.0014" d="M259.9,1144.2c-47.3,51.3-63.1,80.2-61.8,101.2"/>
			<path fill="none" stroke="#231F20" stroke-width="4.0014" d="M344.1,589.3c0,0,6.6,22.4,3.9,36.8c-1.3-13.1-10.5-28.9-14.5-39.4
				c-3.9-10.5-15.8-34.2-15.8-34.2l-13.1-21l-1.3,10.5l-10.5-14.5l-11.8-3.9l11.8,27.6l-7.9,5.3c0,0-19.7-9.2-36.8-27.6l3.9,38.1
				c-9.2-15.8-21-34.2-21-34.2s2.6,26.3,0,35.5c-2.6,9.2-3.9-25-3.9-25l-9.2,19.7c0,0,1.3-14.5-2.6-31.6c-0.7,6.2-1.7,11.4-2.8,16
				c-2.9,12-6.9,19.4-11.7,26c0,0-9.2-13.2-7.9-9.2c1.3,3.9-6.6,22.4-6.6,22.4l-10.5-1.3c0,0,3.9,15.8,2.6,28.9
				c-1.3,13.1-2.6,26.3-1.3,31.6c1.3,5.3,1.3,11.8,9.2,25c-11.8-10.5-19.7-10.5-31.6-26.3"/>
			<path fill="none" stroke="#231F20" stroke-width="4.0014" d="M191.6,686.6c9.2,14.5,28.9,36.8,48.7,48.7
				c19.7,11.8,46,17.1,68.4,7.9c22.4-9.2,30.2-28.9,34.2-43.4"/>
		</g>
	</g>
	<path fill="none" stroke="#231F20" stroke-width="12.0043" d="M1114.9,766.5c0,265.2-215,480.2-480.2,480.2
		c-265.2,0-476.9-214.8-476.9-480"/>
</g>
</svg>
