<?xml version="1.0" encoding="utf-8"?>
<!-- Generator: Adobe Illustrator 18.0.0, SVG Export Plug-In . SVG Version: 6.00 Build 0)  -->
<!DOCTYPE svg PUBLIC "-//W3C//DTD SVG 1.1//EN" "http://www.w3.org/Graphics/SVG/1.1/DTD/svg11.dtd">
<svg version="1.1" id="Layer_1" xmlns="http://www.w3.org/2000/svg" xmlns:xlink="http://www.w3.org/1999/xlink" x="0px" y="0px"
	 viewBox="0 0 160 160" enable-background="new 0 0 160 160" xml:space="preserve">
<g>
	<circle fill="#FFFFFF" stroke="#231F20" stroke-width="2" cx="79.833" cy="95.917" r="60"/>
	<path fill="#FFFFFF" d="M44.385,62.799c0,0,16.221-7.821,21.145-9.993c0,0,1.014-2.848,2.269-3.814c0,0-0.531-2.703,1.11-4.2
		l0.048-4.297c0,0-2.414-3.765-2.655-8.11c0,0-1.593,0.772-2.172-0.483c-0.579-1.255-1.255-3.862-1.4-4.538
		c-0.145-0.676-0.338-3.234-0.29-3.524c0.048-0.29,0.097-1.352,0.579-1.352c0.483,0,1.303,0.434,1.303,0.434
		S60.75,2.937,77.695,2.937c0,0,16.317-1.69,14.145,20.276c0,0,1.134-0.821,1.641-0.603c0.507,0.217,0.652,3.476,0.217,5.214
		c-0.435,1.738-0.652,3.476-1.303,3.983c-0.652,0.507-1.969,0.869-2.331,0.434c0,0,0.103,5.069-1.897,7.169v2.245
		c0,0,0.738,0.507,0.956,1.304c0.217,0.797,0.659,1.376,0.659,1.376s1.343,0.29,1.561,1.014c0.217,0.724,1.468,2.1,2.192,2.679
		c0.724,0.579,3.051,1.593,3.558,2.462c0,0,17.384,4.417,21.801,8.255c0,0,2.32,1.593,2.175,4.2
		c-0.145,2.607-0.144,3.331,0.001,4.345c0.145,1.014,0.001,2.752-0.723,3.693c0,0,0.29,2.028,0.217,3.041
		c-0.072,1.014-0.724,1.231-0.724,2.1c0,0.869,0.362,2.969-0.29,3.766c0,0,1.086,0.941,0.797,1.738
		c-0.29,0.797-1.014,1.231-1.014,1.231s0.507,24.693-10.79,34.179c0,0,2.317,13.324,2.969,15.135c0,0,0.652,0.797,0.434,1.376
		c0,0,1.521,4.707,2.172,6.59c0.652,1.883,0.579,2.39-0.724,3.186c0,0,4.707-1.034,4.634,3.31c0,0-5.069,3.621-9.848,3.693
		l-0.941-5.438c0,0,0.145,1.738,0.145,3.476c0,1.738-0.362-4.665-0.362-3.144c0,1.521,0.145-1.971,0.145-1.971H79.65l-2.752,3.591
		l-1.086-3.591H49.454c0,0,0.072,3.672-0.29-0.455c-0.362-4.128-1.883,4.65-1.883,4.65s-5.069-1.853-4.779-4.605
		c0.29-2.752,1.376-2.332,1.666-4.722c0.29-2.39,1.304,9.417,1.666,7.968c0.362-1.448,0.869-5.147,0.869-5.147
		s-0.941-1.161-0.362-2.392c0.579-1.231,0.579-3.912,0.652-4.853c0.072-0.941,0.072-2.245,0.724-2.607l0.362-3.693l-7.531-2.173
		c0,0-3.621-0.941-4.272-3.403c-0.652-2.462-1.159-6.59-1.231-8.183c-0.072-1.593-0.507-4.128-0.869-5.069
		c-0.362-0.941-1.159-1.955-0.435-3.186c0.724-1.231,0.435-2.824,1.086-3.548c0.652-0.724,0.724-0.724,0.724-2.028
		c0-1.303-0.145-3.331,0.579-4.2c0.724-0.869,1.231-2.245,1.159-2.824s-0.797-1.448-0.362-2.1c0.434-0.652,0.434-1.086,0.434-2.028
		s-0.072-1.883,0.797-2.028c0,0-0.362-1.738,0.652-1.955c0,0-0.579-1.738,0.072-2.534c0.652-0.797,0.362-0.652,0.362-2.607
		c0-1.955,0.435-2.462,0.941-2.969c0.507-0.507-0.724-2.172,0-3.186c0.724-1.014,1.448-3.476,1.593-5.069
		C41.923,66.71,43.081,63.813,44.385,62.799z"/>
	<g>
		<defs>
			<path id="SVGID_1_" d="M78.757,58.937l0.032-0.065c-1.779-2.633-4.039-4.377-4.039-4.377s-3.186,1.641-3.959,2.317
				c-0.229,0.2-0.405,0.58-0.542,1.039l0.035,0.071l-0.035-0.071c-0.003,0.012-0.007,0.023-0.011,0.035l0.553,4.333
				c0,0-1.448,2.317-1.545,4.248c0,0,2.366,11.731,2.559,14.097c0,0,6.083-13.228,7.048-14.483c0,0-1.545-2.221-2.317-2.848
				C75.764,62.606,76.44,60.868,78.757,58.937z"/>
		</defs>
		<clipPath id="SVGID_2_">
			<use xlink:href="#SVGID_1_"  overflow="visible"/>
		</clipPath>
		<circle clip-path="url(#SVGID_2_)" fill="#E31F26" cx="70.281" cy="55.257" r="0.925"/>
		<circle clip-path="url(#SVGID_2_)" fill="#E31F26" cx="75.169" cy="55.257" r="0.925"/>
		<circle clip-path="url(#SVGID_2_)" fill="#E31F26" cx="70.281" cy="60.145" r="0.925"/>
		<circle clip-path="url(#SVGID_2_)" fill="#E31F26" cx="72.725" cy="57.701" r="0.925"/>
		<circle clip-path="url(#SVGID_2_)" fill="#E31F26" cx="75.169" cy="60.145" r="0.925"/>
		<circle clip-path="url(#SVGID_2_)" fill="#E31F26" cx="77.613" cy="57.701" r="0.925"/>
		<circle clip-path="url(#SVGID_2_)" fill="#E31F26" cx="70.281" cy="65.033" r="0.925"/>
		<circle clip-path="url(#SVGID_2_)" fill="#E31F26" cx="72.725" cy="62.589" r="0.925"/>
		<circle clip-path="url(#SVGID_2_)" fill="#E31F26" cx="75.169" cy="65.033" r="0.925"/>
		<circle clip-path="url(#SVGID_2_)" fill="#E31F26" cx="77.613" cy="62.589" r="0.925"/>
		<circle clip-path="url(#SVGID_2_)" fill="#E31F26" cx="70.281" cy="69.921" r="0.925"/>
		<circle clip-path="url(#SVGID_2_)" fill="#E31F26" cx="72.725" cy="67.477" r="0.925"/>
		<circle clip-path="url(#SVGID_2_)" fill="#E31F26" cx="75.169" cy="69.921" r="0.925"/>
		<circle clip-path="url(#SVGID_2_)" fill="#E31F26" cx="77.613" cy="67.477" r="0.925"/>
		<circle clip-path="url(#SVGID_2_)" fill="#E31F26" cx="70.281" cy="74.809" r="0.925"/>
		<circle clip-path="url(#SVGID_2_)" fill="#E31F26" cx="72.725" cy="72.365" r="0.925"/>
		<circle clip-path="url(#SVGID_2_)" fill="#E31F26" cx="75.169" cy="74.809" r="0.925"/>
		<circle clip-path="url(#SVGID_2_)" fill="#E31F26" cx="77.613" cy="72.365" r="0.925"/>
		<circle clip-path="url(#SVGID_2_)" fill="#E31F26" cx="70.281" cy="79.697" r="0.925"/>
		<circle clip-path="url(#SVGID_2_)" fill="#E31F26" cx="72.725" cy="77.253" r="0.925"/>
		<circle clip-path="url(#SVGID_2_)" fill="#E31F26" cx="75.169" cy="79.697" r="0.925"/>
		<circle clip-path="url(#SVGID_2_)" fill="#E31F26" cx="77.613" cy="77.253" r="0.925"/>
	</g>
	<g>
		<defs>
			<path id="SVGID_3_" d="M19.833,96.083C19.833,129.22,46.863,156,80,156c33.137,0,60.167-26.946,60.167-60.083v-103H20.2
				L19.833,96.083z"/>
		</defs>
		<clipPath id="SVGID_4_">
			<use xlink:href="#SVGID_3_"  overflow="visible"/>
		</clipPath>
		<g clip-path="url(#SVGID_4_)">
			<g>
				<g>
					<defs>
						<path id="SVGID_5_" d="M107.24,184.889l0.941-4.562c0,0-5.914,1.231-18.562,2.486c-12.648,1.255-15.352-18.055-15.352-18.055
							l-4.398-26.549l-0.091,0.094c-1.764,7.328-5.181,8.934-5.605,9.107c-0.598,2.223-1.209,4.389-1.781,6.245
							c-2.378,7.705-7.476,25.797-15.105,23.746c0.097,0.753,1.528,12.073,1.877,16.061c0.362,4.128,0.29,10.455,0.29,10.455h26.359
							l1.086-6.409l2.752,6.409h27.517c0,0-0.145-6.509-0.145-8.029c0-1.521,0.362-5.716,0.362-7.454
							C107.385,186.695,107.24,184.889,107.24,184.889z"/>
					</defs>
					<clipPath id="SVGID_6_">
						<use xlink:href="#SVGID_5_"  overflow="visible"/>
					</clipPath>
				</g>
				<g>
					<g>
						<path fill="none" d="M70.229,57.812l0.01,0.075c0.004-0.012,0.007-0.023,0.011-0.035L70.229,57.812z"/>
					</g>
				</g>
				<g>
					<path fill="#231F20" d="M78.483,2.907c3.234,0,15.24,1.268,13.357,20.306c0,0,0.885-0.64,1.441-0.64
						c0.074,0,0.141,0.011,0.201,0.037c0.507,0.217,0.652,3.476,0.217,5.214c-0.434,1.738-0.652,3.476-1.303,3.983
						c-0.448,0.348-1.135,0.628-1.639,0.628c-0.229,0-0.42-0.058-0.534-0.194c0,0-0.217,5.069-1.738,7.169v2.245
						c0,0,0.579,0.507,0.796,1.304c0.217,0.797,0.579,1.376,0.579,1.376s1.303,0.29,1.521,1.014c0.217,0.724,1.448,2.1,2.173,2.679
						c0.724,0.579,3.041,1.593,3.548,2.462c0,0,17.379,4.417,21.797,8.255c0,0,2.317,1.593,2.172,4.2
						c-0.145,2.607-0.145,3.331,0,4.345c0.145,1.014,0,2.752-0.724,3.693c0,0,0.29,2.028,0.217,3.041
						c-0.072,1.014-0.724,1.231-0.724,2.1c0,0.869,0.362,2.969-0.29,3.765c0,0,1.086,0.941,0.797,1.738
						c-0.29,0.797-1.014,1.231-1.014,1.231s0.507,24.693-10.79,34.179c0,0,2.317,13.324,2.969,15.135c0,0,0.652,0.797,0.435,1.376
						c0,0,1.521,4.707,2.172,6.59c0.652,1.883,0.579,2.39-0.724,3.186c0,0,4.707,28.966,4.634,33.31c0,0-5.069,3.621-9.848,3.693
						l-0.941,4.562c0,0,0.145,1.738,0.145,3.476c0,1.738-0.362,5.866-0.362,7.386c0,1.521,0.145,7.893,0.145,7.893H79.65
						l-2.752-6.445l-1.086,6.372H49.454c0,0,0.072-6.155-0.29-10.283c-0.362-4.128-1.883-15.931-1.883-15.931
						s-5.069-1.81-4.779-4.562c0.29-2.752,1.376-12.31,1.666-14.7c0.29-2.39,1.304-10.573,1.666-12.021
						c0.362-1.448,0.869-5.141,0.869-5.141s-0.941-1.159-0.362-2.39c0.579-1.231,0.579-3.91,0.652-4.852
						c0.072-0.941,0.072-2.245,0.724-2.607l0.362-3.693l-7.531-2.172c0,0-3.621-0.941-4.272-3.403
						c-0.652-2.462-1.159-6.59-1.231-8.183c-0.072-1.593-0.507-4.128-0.869-5.069c-0.362-0.941-1.159-1.955-0.435-3.186
						c0.724-1.231,0.435-2.824,1.086-3.548c0.652-0.724,0.724-0.724,0.724-2.028c0-1.303-0.145-3.331,0.579-4.2
						c0.724-0.869,1.231-2.245,1.159-2.824c-0.072-0.579-0.796-1.448-0.362-2.1c0.434-0.652,0.434-1.086,0.434-2.028
						s-0.072-1.883,0.797-2.028c0,0-0.362-1.738,0.652-1.955c0,0-0.579-1.738,0.072-2.534c0.652-0.797,0.362-0.652,0.362-2.607
						c0-1.955,0.435-2.462,0.941-2.969c0.507-0.507-0.724-2.172,0-3.186c0.724-1.014,1.448-3.476,1.593-5.069
						c0.145-1.593,1.303-4.49,2.607-5.503c0,0,16.221-7.821,21.145-9.993c0,0,1.014-2.848,2.269-3.814c0,0-0.531-2.703,1.11-4.2
						l0.048-4.297c0,0-2.414-3.765-2.655-8.11c0,0-0.485,0.235-1.017,0.235c-0.432,0-0.896-0.155-1.155-0.718
						c-0.579-1.255-1.255-3.862-1.4-4.538c-0.145-0.676-0.338-3.234-0.29-3.524c0.048-0.29,0.097-1.352,0.579-1.352
						c0.483,0,1.303,0.434,1.303,0.434S60.75,2.937,77.695,2.937C77.695,2.937,77.985,2.907,78.483,2.907 M78.483,1.907
						c-0.424,0-0.715,0.02-0.834,0.03c-4.766,0.01-8.456,1.536-10.967,4.536c-3.983,4.758-3.849,11.857-3.55,15.02
						c-0.038-0.002-0.076-0.004-0.113-0.004c-1.301,0-1.489,1.555-1.55,2.066c-0.006,0.049-0.01,0.091-0.015,0.121
						c-0.087,0.52,0.158,3.245,0.298,3.898c0.138,0.643,0.827,3.355,1.47,4.747c0.381,0.825,1.133,1.299,2.063,1.299
						c0.045,0,0.089-0.001,0.132-0.003c0.468,3.428,2.025,6.287,2.537,7.153l-0.041,3.61c-1.219,1.386-1.248,3.282-1.17,4.225
						c-0.961,1.015-1.69,2.671-2.001,3.455c-5.289,2.365-20.634,9.761-20.792,9.837c-0.064,0.031-0.124,0.068-0.18,0.111
						c-1.617,1.257-2.831,4.46-2.989,6.202c-0.137,1.505-0.836,3.773-1.411,4.578c-0.674,0.943-0.379,2.068-0.185,2.813
						c0.034,0.132,0.081,0.309,0.106,0.439c-0.589,0.635-1.049,1.437-1.049,3.485c0,0.616,0.027,1.031,0.047,1.335
						c0.011,0.162,0.022,0.346,0.016,0.399c0-0.002,0-0.003-0.001-0.003c-0.008,0-0.057,0.072-0.197,0.243
						c-0.645,0.789-0.587,1.935-0.444,2.709c-0.418,0.451-0.59,1.119-0.577,1.819c-0.737,0.615-0.731,1.744-0.727,2.425l0.001,0.197
						c0,0.903-0.008,1.085-0.267,1.473c-0.59,0.886-0.187,1.83,0.054,2.395c0.054,0.127,0.137,0.32,0.149,0.388
						c0.012,0.259-0.326,1.325-0.935,2.056c-0.862,1.035-0.837,2.837-0.816,4.286c0.003,0.195,0.005,0.381,0.005,0.555
						c0,0.842,0,0.842-0.358,1.237l-0.109,0.121c-0.526,0.585-0.646,1.358-0.762,2.105c-0.088,0.568-0.179,1.156-0.443,1.605
						c-0.848,1.442-0.253,2.71,0.14,3.549c0.08,0.171,0.16,0.338,0.223,0.503c0.294,0.763,0.731,3.155,0.803,4.755
						c0.069,1.526,0.564,5.753,1.263,8.393c0.792,2.993,4.817,4.071,4.987,4.115l6.706,1.935l-0.242,2.464
						c-0.612,0.684-0.683,1.78-0.742,2.693l-0.023,0.336c-0.014,0.187-0.026,0.441-0.04,0.737c-0.047,1.031-0.136,2.95-0.52,3.765
						c-0.552,1.172-0.197,2.34,0.223,3.056c-0.138,0.968-0.517,3.544-0.795,4.658c-0.399,1.597-1.476,10.395-1.688,12.143
						c-0.294,2.426-1.374,11.927-1.667,14.716c-0.305,2.896,3.348,4.745,4.857,5.381c0.311,2.434,1.493,11.769,1.803,15.305
						c0.353,4.03,0.287,10.122,0.286,10.184c-0.003,0.267,0.101,0.525,0.289,0.715c0.188,0.19,0.444,0.297,0.711,0.297h26.359
						c0.487,0,0.904-0.351,0.986-0.832l0.515-3.022l1.417,3.319c0.157,0.368,0.519,0.607,0.92,0.607h27.517
						c0.269,0,0.527-0.108,0.715-0.301c0.188-0.192,0.291-0.453,0.285-0.722c-0.001-0.064-0.145-6.378-0.145-7.87
						c0-0.704,0.086-2.077,0.17-3.405c0.094-1.5,0.192-3.052,0.192-3.981c0-1.488-0.102-2.952-0.137-3.413l0.757-3.667
						c4.763-0.415,9.4-3.691,9.606-3.837c0.258-0.184,0.413-0.48,0.419-0.797c0.068-4.077-3.844-28.511-4.546-32.864
						c1.301-1.025,1.223-2.121,0.581-3.977c-0.555-1.602-1.76-5.317-2.084-6.318c0.084-0.753-0.334-1.46-0.571-1.792
						c-0.487-1.576-1.88-9.113-2.784-14.278c10.332-9.252,10.724-30.436,10.712-34.08c0.322-0.291,0.722-0.75,0.949-1.373
						c0.325-0.893-0.116-1.725-0.538-2.262c0.275-0.878,0.196-1.971,0.13-2.895c-0.019-0.27-0.038-0.508-0.038-0.689
						c0-0.144,0.034-0.214,0.191-0.479c0.201-0.339,0.477-0.803,0.53-1.549c0.06-0.844-0.089-2.204-0.174-2.874
						c0.734-1.263,0.816-3.075,0.673-4.073c-0.133-0.93-0.131-1.628,0.009-4.148c0.163-2.929-2.157-4.754-2.552-5.042
						c-4.296-3.681-19.292-7.691-21.828-8.35c-0.507-0.576-1.357-1.087-2.447-1.71c-0.429-0.245-0.873-0.499-1.064-0.652
						c-0.752-0.601-1.723-1.798-1.839-2.186c-0.27-0.901-1.198-1.36-1.794-1.568c-0.095-0.198-0.212-0.478-0.299-0.798
						c-0.173-0.634-0.505-1.126-0.761-1.434v-1.548c1.093-1.755,1.507-4.685,1.657-6.308c0.699-0.102,1.414-0.457,1.867-0.81
						c0.783-0.609,1.05-1.817,1.387-3.346c0.085-0.384,0.173-0.784,0.273-1.184c0.231-0.925,0.776-5.703-0.794-6.376
						c-0.182-0.078-0.382-0.117-0.595-0.117c-0.102,0-0.205,0.01-0.309,0.028c0.4-6.737-0.962-11.875-4.056-15.291
						C85.315,2.336,80.42,1.907,78.483,1.907L78.483,1.907z"/>
				</g>
				<path fill="none" stroke="#231F20" stroke-width="0.5" d="M68.571,44.551c0,0-0.676,3.09,0.772,4.924
					c1.448,1.834,5.407,5.021,5.407,5.021s1.545-0.869,2.414-1.641c0.869-0.772,11.393-9.365,11.876-10.621"/>
				<path fill="none" stroke="#231F20" stroke-width="0.5" d="M67.026,49.089c0,1.159,0.483,4.538,0.965,6.276
					c0.483,1.738,0.965,7.821,0.965,7.821s0.869-0.869,0.869-1.931c0-1.062,0.193-3.765,0.965-4.441
					c0.772-0.676,3.959-2.317,3.959-2.317s5.021,3.862,5.986,8.786c0,0,10.234-14.676,9.752-19.021"/>
				<path fill="none" stroke="#231F20" stroke-width="0.5" d="M70.212,57.682l0.579,4.538c0,0-1.448,2.317-1.545,4.248
					c0,0,2.366,11.731,2.559,14.097c0,0,6.083-13.228,7.048-14.483c0,0-1.545-2.221-2.317-2.848
					c-0.772-0.627-0.097-2.365,2.221-4.296"/>
				<line fill="none" stroke="#231F20" stroke-width="0.5" x1="68.957" y1="63.186" x2="69.247" y2="66.468"/>
				<path fill="none" stroke="#231F20" stroke-width="0.5" d="M78.854,66.082c0,0,1.159-1.834,1.883-2.8"/>
				<path fill="none" stroke="#231F20" stroke-width="0.5" d="M97.343,50.586l-0.241,11.296l-5.648,1.641l2.076,4.393
					c0,0,0.386,1.014-0.483,1.497c-0.869,0.483-8.979,6.952-10.524,8.255c-1.545,1.303-5.359,5.117-6.903,6.517
					c-1.545,1.4-5.069,4.828-5.89,5.745c-0.821,0.917-1.835,3.621-1.883,4.731c-0.048,1.11,0.338,3.235,0.338,3.235"/>
				<path fill="none" stroke="#231F20" stroke-width="0.5" d="M67.799,94.903c0,0,1.448-9.752,4.007-14.338"/>
				<path fill="none" stroke="#231F20" stroke-width="0.5" d="M69.126,88.193L55.802,69.148c0,0-0.652-1.448,0.145-1.955
					c0.797-0.507,2.897-2.535,2.897-2.535l-2.824-1.231l5.793-8.979"/>
				<path fill="none" stroke="#231F20" stroke-width="0.5" d="M48.078,127.393c0,0,5.334,1.159,7.265,1.931
					s13.035,3.186,13.035,3.186l7.724,1.255c0,0,3.283-8.303,3.283-13.228"/>
				<path fill="none" stroke="#231F20" stroke-width="0.5" d="M108.543,117.037c0,0-3.862,6.493-11.876,3.79
					c0,0-4.731,0.29-7.821,0.096c-3.09-0.193-8.207-0.483-10.814-0.29c-2.607,0.193-9.173-1.641-9.173-1.641l-9.655,1.545
					c0,0-4.345-4.441-3.09-8.786c1.255-4.345,4.924-13.517,6.469-13.517c0,0,4.635-0.097,7.145-0.097s12.841-0.29,15.159,0.483
					c0,0,6.662-2.124,8.4-0.966c0,0,0.29,0.676,1.448,0.772c1.159,0.096,2.8,1.062,2.8,1.062l2.076-3.186
					c0,0,0.29-0.652-0.145-0.869c0,0,3.114-3.259,1.738-4.055c0,0,0.941-1.521,0-2.1c0,0-1.086-0.29-2.317,1.376"/>
				<g>
					<g>
						
							<line fill="none" stroke="#231F20" stroke-width="0.5" stroke-linecap="round" stroke-linejoin="round" x1="98.888" y1="90.655" x2="98.888" y2="90.655"/>
						
							<path fill="none" stroke="#231F20" stroke-width="0.5" stroke-linecap="round" stroke-linejoin="round" stroke-dasharray="0,1.0018" d="
							M98.372,89.792c-0.316-0.603-0.626-1.376-0.426-1.817c0.362-0.797,0.652-0.724,0.652-1.376c0-0.652-0.29-1.304,0.072-1.738
							c0.362-0.434,0.652-0.652,0.652-1.448c0-0.797,0.217-1.014,0.435-1.376s0.29-1.738,0.362-2.245
							c0.072-0.507,0.434-0.869,0.434-0.869s0.426-13.223,16.776-20.791"/>
						
							<line fill="none" stroke="#231F20" stroke-width="0.5" stroke-linecap="round" stroke-linejoin="round" x1="117.788" y1="57.924" x2="117.788" y2="57.924"/>
					</g>
				</g>
				<path fill="none" stroke="#231F20" stroke-width="0.5" d="M98.888,90.655c0,0-2.027,2.173-2.8,2.848
					c-0.772,0.676-2.703,2.607-3.283,3.959"/>
				<path fill="none" stroke="#231F20" stroke-width="0.5" d="M61.812,98.548c0,0-1.304-0.724-2.824,0.724
					c-1.521,1.448-6.083,7.314-2.39,11.152"/>
				<path fill="none" stroke="#231F20" stroke-width="0.5" d="M57.685,100.793c0,0-4.417,0.724-5.286,0.724
					c0,0-0.073,1.521-0.797,2.245c-0.724,0.724-0.869,1.014-0.869,1.304c0,0.29-0.29,2.028-0.29,2.028s2.39,1.955,2.752,2.752
					c0,0,1.955-0.217,3.259,0.869"/>
				<path fill="none" stroke="#231F20" stroke-width="0.5" d="M69.054,40.786c0,0,2.703,4.634,8.979,4.634
					c3.019,0,5.552-1.391,7.368-2.834"/>
				<path fill="none" stroke="#231F20" stroke-width="0.5" d="M67.895,132.51c0,0-3.09,13.324-5.503,21.145
					c-2.414,7.821-7.628,26.359-15.448,23.655"/>
				<path fill="none" stroke="#231F20" stroke-width="0.5" d="M68.957,132.703l5.31,32.055c0,0,2.703,19.31,15.352,18.055
					c12.648-1.255,18.562-2.486,18.562-2.486"/>
				
					<path fill="none" stroke="#231F20" stroke-width="0.5" stroke-linecap="round" stroke-linejoin="round" stroke-dasharray="0,1" d="
					M44.433,62.22c0,0-1.255,6.179,2.704,10.331c0,0,0.386,1.255,0.483,2.607c0.097,1.352,1.738,18.924,4.779,26.359"/>
				
					<path fill="none" stroke="#231F20" stroke-width="0.5" stroke-linecap="round" stroke-linejoin="round" stroke-dasharray="0,1" d="
					M50.443,107.093c0,0-2.535-2.486-7.266-3.645"/>
				<path fill="none" stroke="#231F20" stroke-width="0.5" d="M76.899,197.2c0,0-4.659-12.117-6.831-16.172"/>
				<path fill="none" stroke="#231F20" stroke-width="0.5" d="M64.13,147.427c0,0,3.766-1.303,5.648-9.124"/>
				<path fill="none" stroke="#000000" stroke-width="0.5" stroke-miterlimit="10" d="M64.13,22.489c0,0,1.4,2.607,1.641,4.297
					c0,0-0.338-7.338-0.29-8.883c0.048-1.545,0.241-3.669,0.676-4.924c0.435-1.255,0.435-1.255,0.435-1.255l0.193-0.338l0.29-0.531
					l0.224-0.29l0.368-0.241v-0.29l0.018-0.338l0.202-0.29c0,0,0.101-0.29,0.246-0.386c0.145-0.096,0.123-0.096,0.123-0.096
					s0.182,0.048,0.279-0.193c0.096-0.241,0.091-0.241,0.091-0.241l0.625-0.29c0,0,0.24,0,0.433,0.048s0.627,0.29,0.82,0.048
					c0.193-0.241,0.241-0.488,0.386-0.536c0.145-0.048,0.338-0.343,0.579-0.343c0.241,0,0.241,0,0.241,0h0.869
					c0,0,0.241-0.14,0.386-0.14s0.193-0.123,0.338-0.027c0.145,0.096,0.435,0.166,0.435,0.166s0.483,0,0.628,0
					s0.338,0.053,0.531,0.053s0.531,0.003,0.531,0.003s0.386,0.074,0.579,0.122c0.193,0.048,0.531-0.017,0.531-0.017
					s0.097-0.161,0.29-0.161c0.193,0,0.628,0,0.628,0l1.352,0.193l0.386-0.193h0.29c0,0,0.338-0.019,0.531-0.019
					s0.29,0.063,0.434,0.063c0.145,0,0.241,0.152,0.483,0.007c0.241-0.145,0.579-0.141,0.579-0.141l0.483,0.195
					c0,0,0.338,0.194,0.531,0.194s0.531-0.035,0.772-0.048c0.241-0.012,0.435,0,0.579,0c0.145,0,0.483-0.048,0.676-0.145
					c0.193-0.097,0.531-0.048,0.531-0.048l0.434,0.193c0,0,0.241,0.145,0.531,0.097c0.29-0.048,0.338-0.097,0.483-0.097
					s0.435-0.048,0.579,0.048c0.145,0.096-0.193,0.096,0.145,0.096c0.338,0,0.579,0.193,0.579,0.193s4.248,4.731,2.945,17.524
					c0,0,1.159-2.945,1.69-3.572"/>
			</g>
		</g>
	</g>
	<path fill="none" stroke="#231F20" stroke-width="2" d="M139.833,95.917c0,33.137-26.863,60-60,60s-60-26.863-60-60"/>
</g>
</svg>
