<?xml version="1.0" encoding="utf-8"?>
<!-- Generator: Adobe Illustrator 18.0.0, SVG Export Plug-In . SVG Version: 6.00 Build 0)  -->
<!DOCTYPE svg PUBLIC "-//W3C//DTD SVG 1.1//EN" "http://www.w3.org/Graphics/SVG/1.1/DTD/svg11.dtd">
<svg version="1.1" id="Layer_1" xmlns="http://www.w3.org/2000/svg" xmlns:xlink="http://www.w3.org/1999/xlink" x="0px" y="0px"
	 viewBox="0 0 160 160" enable-background="new 0 0 160 160" xml:space="preserve">
<g>
	<g>
		<g>
			<defs>
				<path id="SVGID_1_" d="M21.042,96c0,33.137,26.842,60,59.979,60C114.158,156,141,129.137,141,96V9.333H1v72.25L21.042,96z"/>
			</defs>
			<clipPath id="SVGID_2_">
				<use xlink:href="#SVGID_1_"  overflow="visible"/>
			</clipPath>
			<g clip-path="url(#SVGID_2_)">
				<circle fill="#FFFFFF" stroke="#231F20" stroke-width="2" cx="81" cy="96" r="60"/>
				<g>
					<path fill="#FFFFFF" stroke="#231F20" d="M132.578,80.212c0,0-0.041-1.45-1.675-1.941c-1.634-0.49-2.546,0.154-3.445-0.418
						c-0.899-0.572-3.333-1.021-3.333-1.021l0.917-0.021l-0.667-1l0.237-0.313l0.082-0.381l-0.204-0.19l-0.368-0.177
						c0,0-0.327-0.109-0.409-0.231c-0.082-0.122,0.163,0.027-0.082-0.136s-0.695-0.456-0.858-0.62s-0.286-0.085-0.449-0.575
						c-0.163-0.49-0.286-0.737-0.286-0.737s-0.327-0.246-0.368-0.368c-0.041-0.123-0.245-0.246-0.245-0.491s0.082-0.327,0-0.45
						c-0.082-0.123-0.082-0.204-0.163-0.327c-0.082-0.122,0.122,0.123-0.082-0.123c-0.204-0.245-0.286-0.163-0.327-0.409
						c-0.041-0.245,0-0.163-0.041-0.409c-0.041-0.245-0.204-0.327-0.204-0.449c0-0.123,0.123,0.163,0-0.123
						c-0.122-0.286-0.204-0.245-0.204-0.49c0-0.245-0.163-0.613-0.163-0.613l-0.286-1.798l-0.082-0.694c0,0-0.123-0.245-0.163-0.409
						c-0.041-0.163-1.146-0.531-1.146-0.531l-1.064-2.982v-0.409c0,0,0-0.49,0-0.654c0-0.163,0-0.572,0-0.776
						c0-0.204,0-1.267,0-1.267l0.418-0.899l0.582-3.268v-0.98l0.707-0.694c0,0,0.251-5.188,0.047-6.864
						c-0.204-1.675-0.896-5.924-1.631-7.885c-0.735-1.961-3.328-11.848-13.909-11.848c0,0-1.827-0.082-3.625,0.449
						c-1.798,0.531-2.262,0.695-3.61,1.226c-1.348,0.531-7.709,3.677-8.852,16.587c0,0-0.852,7.476-0.852,10.377
						s0.044,7.395,0.575,9.437s0.615,3.105,0.328,4.208c-0.286,1.103-1.552,3.963-2.41,4.617c0,0-2.083,0.327-3.309,0.776
						c-1.226,0.449-3.268,1.226-3.595,1.226c-0.327,0-2.043-0.94-3.309-0.94c-1.266,0-3.799,0.163-5.086,3.718
						c-1.287,3.554-2.696,5.393-3.37,6.312c-0.674,0.919-1.532,3.309-1.654,4.964c-0.123,1.655,0.306,3.616,0.061,4.78
						c-0.245,1.164-0.613,2.329-0.613,2.329s-1.838,4.78-2.267,5.393l-0.368,0.858c0,0-1.9,0.981-2.145,1.9
						c-0.245,0.919,0.613,0.919,0.613,0.919s-1.471,0.735-1.655,1.777c-0.184,1.042,0.919,1.042,0.919,1.042
						s0.061,0.613-0.123,1.103c-0.184,0.49-0.674,3.677-0.98,4.535c-0.306,0.858-0.552,4.106-0.306,5.577
						c0.245,1.471,0.674,2.941,0.674,3.554c0,0.613,0.429,1.839,1.961,1.777c1.532-0.061,3.248-0.306,4.719,0.368
						c1.471,0.674,7.721,1.532,9.927,0.797l-0.429,2.696c0,0-0.674,0.49-1.593,1.777c-0.919,1.287-6.618,9.682-8.498,14.83
						c0,0-0.735,4.331-0.98,6.455c-0.245,2.124-0.49,5.393-0.409,8.334c0,0-0.286,7.668,2.41,20.537
						c2.696,12.869,4.045,21.296,4.29,24.296h47.309c0,0,1.593-12.162,2.574-17.677c0.98-5.515,1.716-9.574,1.348-12.516
						c-0.368-2.942-0.368-3.929-0.368-4.91s0.49-2.087,0.245-3.19c-0.245-1.103-0.368-3.25-0.368-4.353
						c0-1.103-0.368-2.605-0.49-3.954c-0.123-1.348-0.613-3.202-0.613-3.202s0.98-0.743,0.98-2.337c0,0-0.245-1.352-1.103-5.274
						c-0.858-3.922-1.226-5.395-1.226-8.091c0-2.696-0.245-5.271-2.574-7.6l-0.041-2.615c0,0,1.144-0.654,2.369-1.471
						c1.226-0.817,2.941-2.86,4.249-7.681c0,0,1.144,0.082,1.716-0.654c0.572-0.735,0.082-1.062,0.082-1.062
						s1.471-0.572,1.144-1.879c0,0,1.471-0.817,1.062-2.86c0,0,1.062-0.49,1.307-1.307c0.245-0.817,0.572-1.961,0.817-3.023
						c0.245-1.062,1.062-3.595,1.389-4.33s0.408-1.798,0.408-1.798s1.716-2.941,2.451-4.657c0.735-1.716,1.062-2.206,1.307-4.249
						c0.245-2.043,0.082-3.922,0.163-5.393c0.082-1.471,0.98-2.778,0.98-3.758s-0.899-2.206-1.553-2.941
						C133.069,81.315,132.578,80.907,132.578,80.212z"/>
				</g>
				<g>
					<defs>
						<path id="SVGID_3_" d="M119.791,155.017c-0.613,0.614-4.78,1.715-6.863,1.96c-2.084,0.245-2.574,0.245-4.535,0.49
							c-1.961,0.245-3.064-0.122-6.496-0.858c-3.432-0.735-4.167,0.245-7.967,0.858c-3.799,0.613-4.415-1.042-4.415-1.042
							c-0.948,0.013-2.169-0.042-3.674-0.428c-4.29-1.103-6.741-1.471-8.825-1.961c-2.083-0.49-2.083,0.49-4.045-1.471
							c-1.961-1.961-3.554-3.187-4.78-3.799c-1.226-0.613-3.677-2.206-3.677-2.206l0.327-1.348
							c1.879-5.148,7.578-13.543,8.498-14.83c0.919-1.287,1.593-1.777,1.593-1.777s2.941,1.042,4.78,1.41
							c1.838,0.368,4.78,0.98,6.373,1.226s2.819,1.103,5.025,1.103c2.206,0,3.064,0,5.148,0.123
							c2.084,0.123,16.178,0.245,19.61-0.735c2.329,2.329,2.574,4.903,2.574,7.599c0,2.696,0.368,4.168,1.226,8.09
							c0.858,3.922,1.103,5.271,1.103,5.271c0,1.593-0.98,2.331-0.98,2.331"/>
					</defs>
					<clipPath id="SVGID_4_">
						<use xlink:href="#SVGID_3_"  overflow="visible"/>
					</clipPath>
					<circle clip-path="url(#SVGID_4_)" fill="#E31F26" cx="64.924" cy="129.77" r="0.925"/>
					<circle clip-path="url(#SVGID_4_)" fill="#E31F26" cx="67.368" cy="132.214" r="0.925"/>
					<circle clip-path="url(#SVGID_4_)" fill="#E31F26" cx="69.812" cy="129.77" r="0.925"/>
					<circle clip-path="url(#SVGID_4_)" fill="#E31F26" cx="72.256" cy="132.214" r="0.925"/>
					<circle clip-path="url(#SVGID_4_)" fill="#E31F26" cx="74.699" cy="129.77" r="0.925"/>
					<circle clip-path="url(#SVGID_4_)" fill="#E31F26" cx="77.143" cy="132.214" r="0.925"/>
					<circle clip-path="url(#SVGID_4_)" fill="#E31F26" cx="79.587" cy="129.77" r="0.925"/>
					<circle clip-path="url(#SVGID_4_)" fill="#E31F26" cx="82.031" cy="132.214" r="0.925"/>
					<circle clip-path="url(#SVGID_4_)" fill="#E31F26" cx="84.475" cy="129.77" r="0.925"/>
					<circle clip-path="url(#SVGID_4_)" fill="#E31F26" cx="86.919" cy="132.214" r="0.925"/>
					<circle clip-path="url(#SVGID_4_)" fill="#E31F26" cx="89.363" cy="129.77" r="0.925"/>
					<circle clip-path="url(#SVGID_4_)" fill="#E31F26" cx="91.807" cy="132.214" r="0.925"/>
					<circle clip-path="url(#SVGID_4_)" fill="#E31F26" cx="94.251" cy="129.77" r="0.925"/>
					<circle clip-path="url(#SVGID_4_)" fill="#E31F26" cx="96.695" cy="132.214" r="0.925"/>
					<circle clip-path="url(#SVGID_4_)" fill="#E31F26" cx="99.139" cy="129.77" r="0.925"/>
					<circle clip-path="url(#SVGID_4_)" fill="#E31F26" cx="101.583" cy="132.214" r="0.925"/>
					<circle clip-path="url(#SVGID_4_)" fill="#E31F26" cx="104.027" cy="129.77" r="0.925"/>
					<circle clip-path="url(#SVGID_4_)" fill="#E31F26" cx="106.471" cy="132.214" r="0.925"/>
					<circle clip-path="url(#SVGID_4_)" fill="#E31F26" cx="108.915" cy="129.77" r="0.925"/>
					<circle clip-path="url(#SVGID_4_)" fill="#E31F26" cx="111.359" cy="132.214" r="0.925"/>
					<circle clip-path="url(#SVGID_4_)" fill="#E31F26" cx="113.803" cy="129.77" r="0.925"/>
					<circle clip-path="url(#SVGID_4_)" fill="#E31F26" cx="116.247" cy="132.214" r="0.925"/>
					<circle clip-path="url(#SVGID_4_)" fill="#E31F26" cx="118.691" cy="129.77" r="0.925"/>
					<circle clip-path="url(#SVGID_4_)" fill="#E31F26" cx="121.135" cy="132.214" r="0.925"/>
					<circle clip-path="url(#SVGID_4_)" fill="#E31F26" cx="64.924" cy="134.658" r="0.925"/>
					<circle clip-path="url(#SVGID_4_)" fill="#E31F26" cx="67.368" cy="137.102" r="0.925"/>
					<circle clip-path="url(#SVGID_4_)" fill="#E31F26" cx="69.812" cy="134.658" r="0.925"/>
					<circle clip-path="url(#SVGID_4_)" fill="#E31F26" cx="72.256" cy="137.102" r="0.925"/>
					<circle clip-path="url(#SVGID_4_)" fill="#E31F26" cx="74.699" cy="134.658" r="0.925"/>
					<circle clip-path="url(#SVGID_4_)" fill="#E31F26" cx="77.143" cy="137.102" r="0.925"/>
					<circle clip-path="url(#SVGID_4_)" fill="#E31F26" cx="79.587" cy="134.658" r="0.925"/>
					<circle clip-path="url(#SVGID_4_)" fill="#E31F26" cx="82.031" cy="137.102" r="0.925"/>
					<circle clip-path="url(#SVGID_4_)" fill="#E31F26" cx="84.475" cy="134.658" r="0.925"/>
					<circle clip-path="url(#SVGID_4_)" fill="#E31F26" cx="86.919" cy="137.102" r="0.925"/>
					<circle clip-path="url(#SVGID_4_)" fill="#E31F26" cx="89.363" cy="134.658" r="0.925"/>
					<circle clip-path="url(#SVGID_4_)" fill="#E31F26" cx="91.807" cy="137.102" r="0.925"/>
					<circle clip-path="url(#SVGID_4_)" fill="#E31F26" cx="94.251" cy="134.658" r="0.925"/>
					<circle clip-path="url(#SVGID_4_)" fill="#E31F26" cx="96.695" cy="137.102" r="0.925"/>
					<circle clip-path="url(#SVGID_4_)" fill="#E31F26" cx="99.139" cy="134.658" r="0.925"/>
					<circle clip-path="url(#SVGID_4_)" fill="#E31F26" cx="101.583" cy="137.102" r="0.925"/>
					<circle clip-path="url(#SVGID_4_)" fill="#E31F26" cx="104.027" cy="134.658" r="0.925"/>
					<circle clip-path="url(#SVGID_4_)" fill="#E31F26" cx="106.471" cy="137.102" r="0.925"/>
					<circle clip-path="url(#SVGID_4_)" fill="#E31F26" cx="108.915" cy="134.658" r="0.925"/>
					<circle clip-path="url(#SVGID_4_)" fill="#E31F26" cx="111.359" cy="137.102" r="0.925"/>
					<circle clip-path="url(#SVGID_4_)" fill="#E31F26" cx="113.803" cy="134.658" r="0.925"/>
					<circle clip-path="url(#SVGID_4_)" fill="#E31F26" cx="116.247" cy="137.102" r="0.925"/>
					<circle clip-path="url(#SVGID_4_)" fill="#E31F26" cx="118.691" cy="134.658" r="0.925"/>
					<circle clip-path="url(#SVGID_4_)" fill="#E31F26" cx="121.135" cy="137.102" r="0.925"/>
					<circle clip-path="url(#SVGID_4_)" fill="#E31F26" cx="64.924" cy="139.546" r="0.925"/>
					<circle clip-path="url(#SVGID_4_)" fill="#E31F26" cx="67.368" cy="141.99" r="0.925"/>
					<circle clip-path="url(#SVGID_4_)" fill="#E31F26" cx="69.812" cy="139.546" r="0.925"/>
					<circle clip-path="url(#SVGID_4_)" fill="#E31F26" cx="72.256" cy="141.99" r="0.925"/>
					<circle clip-path="url(#SVGID_4_)" fill="#E31F26" cx="74.699" cy="139.546" r="0.925"/>
					<circle clip-path="url(#SVGID_4_)" fill="#E31F26" cx="77.143" cy="141.99" r="0.925"/>
					<circle clip-path="url(#SVGID_4_)" fill="#E31F26" cx="79.587" cy="139.546" r="0.925"/>
					<circle clip-path="url(#SVGID_4_)" fill="#E31F26" cx="82.031" cy="141.99" r="0.925"/>
					<circle clip-path="url(#SVGID_4_)" fill="#E31F26" cx="84.475" cy="139.546" r="0.925"/>
					<circle clip-path="url(#SVGID_4_)" fill="#E31F26" cx="86.919" cy="141.99" r="0.925"/>
					<circle clip-path="url(#SVGID_4_)" fill="#E31F26" cx="89.363" cy="139.546" r="0.925"/>
					<circle clip-path="url(#SVGID_4_)" fill="#E31F26" cx="91.807" cy="141.99" r="0.925"/>
					<circle clip-path="url(#SVGID_4_)" fill="#E31F26" cx="94.251" cy="139.546" r="0.925"/>
					<circle clip-path="url(#SVGID_4_)" fill="#E31F26" cx="96.695" cy="141.99" r="0.925"/>
					<circle clip-path="url(#SVGID_4_)" fill="#E31F26" cx="99.139" cy="139.546" r="0.925"/>
					<circle clip-path="url(#SVGID_4_)" fill="#E31F26" cx="101.583" cy="141.99" r="0.925"/>
					<circle clip-path="url(#SVGID_4_)" fill="#E31F26" cx="104.027" cy="139.546" r="0.925"/>
					<circle clip-path="url(#SVGID_4_)" fill="#E31F26" cx="106.471" cy="141.99" r="0.925"/>
					<circle clip-path="url(#SVGID_4_)" fill="#E31F26" cx="108.915" cy="139.546" r="0.925"/>
					<circle clip-path="url(#SVGID_4_)" fill="#E31F26" cx="111.359" cy="141.99" r="0.925"/>
					<circle clip-path="url(#SVGID_4_)" fill="#E31F26" cx="113.803" cy="139.546" r="0.925"/>
					<circle clip-path="url(#SVGID_4_)" fill="#E31F26" cx="116.247" cy="141.99" r="0.925"/>
					<circle clip-path="url(#SVGID_4_)" fill="#E31F26" cx="118.691" cy="139.546" r="0.925"/>
					<circle clip-path="url(#SVGID_4_)" fill="#E31F26" cx="121.135" cy="141.99" r="0.925"/>
					<circle clip-path="url(#SVGID_4_)" fill="#E31F26" cx="64.924" cy="144.434" r="0.925"/>
					<circle clip-path="url(#SVGID_4_)" fill="#E31F26" cx="67.368" cy="146.878" r="0.925"/>
					<circle clip-path="url(#SVGID_4_)" fill="#E31F26" cx="69.812" cy="144.434" r="0.925"/>
					<circle clip-path="url(#SVGID_4_)" fill="#E31F26" cx="72.256" cy="146.878" r="0.925"/>
					<circle clip-path="url(#SVGID_4_)" fill="#E31F26" cx="74.699" cy="144.434" r="0.925"/>
					<circle clip-path="url(#SVGID_4_)" fill="#E31F26" cx="77.143" cy="146.878" r="0.925"/>
					<circle clip-path="url(#SVGID_4_)" fill="#E31F26" cx="79.587" cy="144.434" r="0.925"/>
					<circle clip-path="url(#SVGID_4_)" fill="#E31F26" cx="82.031" cy="146.878" r="0.925"/>
					<circle clip-path="url(#SVGID_4_)" fill="#E31F26" cx="84.475" cy="144.434" r="0.925"/>
					<circle clip-path="url(#SVGID_4_)" fill="#E31F26" cx="86.919" cy="146.878" r="0.925"/>
					<circle clip-path="url(#SVGID_4_)" fill="#E31F26" cx="89.363" cy="144.434" r="0.925"/>
					<circle clip-path="url(#SVGID_4_)" fill="#E31F26" cx="91.807" cy="146.878" r="0.925"/>
					<circle clip-path="url(#SVGID_4_)" fill="#E31F26" cx="94.251" cy="144.434" r="0.925"/>
					<circle clip-path="url(#SVGID_4_)" fill="#E31F26" cx="96.695" cy="146.878" r="0.925"/>
					<circle clip-path="url(#SVGID_4_)" fill="#E31F26" cx="99.139" cy="144.434" r="0.925"/>
					<circle clip-path="url(#SVGID_4_)" fill="#E31F26" cx="101.583" cy="146.878" r="0.925"/>
					<circle clip-path="url(#SVGID_4_)" fill="#E31F26" cx="104.027" cy="144.434" r="0.925"/>
					<circle clip-path="url(#SVGID_4_)" fill="#E31F26" cx="106.471" cy="146.878" r="0.925"/>
					<circle clip-path="url(#SVGID_4_)" fill="#E31F26" cx="108.915" cy="144.434" r="0.925"/>
					<circle clip-path="url(#SVGID_4_)" fill="#E31F26" cx="111.359" cy="146.878" r="0.925"/>
					<circle clip-path="url(#SVGID_4_)" fill="#E31F26" cx="113.803" cy="144.434" r="0.925"/>
					<circle clip-path="url(#SVGID_4_)" fill="#E31F26" cx="116.247" cy="146.878" r="0.925"/>
					<circle clip-path="url(#SVGID_4_)" fill="#E31F26" cx="118.691" cy="144.434" r="0.925"/>
					<circle clip-path="url(#SVGID_4_)" fill="#E31F26" cx="121.135" cy="146.878" r="0.925"/>
					<circle clip-path="url(#SVGID_4_)" fill="#E31F26" cx="64.924" cy="149.322" r="0.925"/>
					<circle clip-path="url(#SVGID_4_)" fill="#E31F26" cx="67.368" cy="151.766" r="0.925"/>
					<circle clip-path="url(#SVGID_4_)" fill="#E31F26" cx="69.812" cy="149.322" r="0.925"/>
					<circle clip-path="url(#SVGID_4_)" fill="#E31F26" cx="72.256" cy="151.766" r="0.925"/>
					<circle clip-path="url(#SVGID_4_)" fill="#E31F26" cx="74.699" cy="149.322" r="0.925"/>
					<circle clip-path="url(#SVGID_4_)" fill="#E31F26" cx="77.143" cy="151.766" r="0.925"/>
					<circle clip-path="url(#SVGID_4_)" fill="#E31F26" cx="79.587" cy="149.322" r="0.925"/>
					<circle clip-path="url(#SVGID_4_)" fill="#E31F26" cx="82.031" cy="151.766" r="0.925"/>
					<circle clip-path="url(#SVGID_4_)" fill="#E31F26" cx="84.475" cy="149.322" r="0.925"/>
					<circle clip-path="url(#SVGID_4_)" fill="#E31F26" cx="86.919" cy="151.766" r="0.925"/>
					<circle clip-path="url(#SVGID_4_)" fill="#E31F26" cx="89.363" cy="149.322" r="0.925"/>
					<circle clip-path="url(#SVGID_4_)" fill="#E31F26" cx="91.807" cy="151.766" r="0.925"/>
					<circle clip-path="url(#SVGID_4_)" fill="#E31F26" cx="94.251" cy="149.322" r="0.925"/>
					<circle clip-path="url(#SVGID_4_)" fill="#E31F26" cx="96.695" cy="151.766" r="0.925"/>
					<circle clip-path="url(#SVGID_4_)" fill="#E31F26" cx="99.139" cy="149.322" r="0.925"/>
					<circle clip-path="url(#SVGID_4_)" fill="#E31F26" cx="101.583" cy="151.766" r="0.925"/>
					<circle clip-path="url(#SVGID_4_)" fill="#E31F26" cx="104.027" cy="149.322" r="0.925"/>
					<circle clip-path="url(#SVGID_4_)" fill="#E31F26" cx="106.471" cy="151.766" r="0.925"/>
					<circle clip-path="url(#SVGID_4_)" fill="#E31F26" cx="108.915" cy="149.322" r="0.925"/>
					<circle clip-path="url(#SVGID_4_)" fill="#E31F26" cx="111.359" cy="151.766" r="0.925"/>
					<circle clip-path="url(#SVGID_4_)" fill="#E31F26" cx="113.803" cy="149.322" r="0.925"/>
					<circle clip-path="url(#SVGID_4_)" fill="#E31F26" cx="116.247" cy="151.766" r="0.925"/>
					<circle clip-path="url(#SVGID_4_)" fill="#E31F26" cx="118.691" cy="149.322" r="0.925"/>
					<circle clip-path="url(#SVGID_4_)" fill="#E31F26" cx="121.135" cy="151.766" r="0.925"/>
					<circle clip-path="url(#SVGID_4_)" fill="#E31F26" cx="64.924" cy="154.21" r="0.925"/>
					<circle clip-path="url(#SVGID_4_)" fill="#E31F26" cx="67.368" cy="156.654" r="0.925"/>
					<circle clip-path="url(#SVGID_4_)" fill="#E31F26" cx="69.812" cy="154.21" r="0.925"/>
					<circle clip-path="url(#SVGID_4_)" fill="#E31F26" cx="72.256" cy="156.654" r="0.925"/>
					<circle clip-path="url(#SVGID_4_)" fill="#E31F26" cx="74.699" cy="154.21" r="0.925"/>
					<circle clip-path="url(#SVGID_4_)" fill="#E31F26" cx="77.143" cy="156.654" r="0.925"/>
					<circle clip-path="url(#SVGID_4_)" fill="#E31F26" cx="79.587" cy="154.21" r="0.925"/>
					<circle clip-path="url(#SVGID_4_)" fill="#E31F26" cx="82.031" cy="156.654" r="0.925"/>
					<circle clip-path="url(#SVGID_4_)" fill="#E31F26" cx="84.475" cy="154.21" r="0.925"/>
					<circle clip-path="url(#SVGID_4_)" fill="#E31F26" cx="86.919" cy="156.654" r="0.925"/>
					<circle clip-path="url(#SVGID_4_)" fill="#E31F26" cx="89.363" cy="154.21" r="0.925"/>
					<circle clip-path="url(#SVGID_4_)" fill="#E31F26" cx="91.807" cy="156.654" r="0.925"/>
					<circle clip-path="url(#SVGID_4_)" fill="#E31F26" cx="94.251" cy="154.21" r="0.925"/>
					<circle clip-path="url(#SVGID_4_)" fill="#E31F26" cx="96.695" cy="156.654" r="0.925"/>
					<circle clip-path="url(#SVGID_4_)" fill="#E31F26" cx="99.139" cy="154.21" r="0.925"/>
					<circle clip-path="url(#SVGID_4_)" fill="#E31F26" cx="101.583" cy="156.654" r="0.925"/>
					<circle clip-path="url(#SVGID_4_)" fill="#E31F26" cx="104.027" cy="154.21" r="0.925"/>
					<circle clip-path="url(#SVGID_4_)" fill="#E31F26" cx="106.471" cy="156.654" r="0.925"/>
					<circle clip-path="url(#SVGID_4_)" fill="#E31F26" cx="108.915" cy="154.21" r="0.925"/>
					<circle clip-path="url(#SVGID_4_)" fill="#E31F26" cx="111.359" cy="156.654" r="0.925"/>
					<circle clip-path="url(#SVGID_4_)" fill="#E31F26" cx="113.803" cy="154.21" r="0.925"/>
					<circle clip-path="url(#SVGID_4_)" fill="#E31F26" cx="116.247" cy="156.654" r="0.925"/>
					<circle clip-path="url(#SVGID_4_)" fill="#E31F26" cx="118.691" cy="154.21" r="0.925"/>
					<circle clip-path="url(#SVGID_4_)" fill="#E31F26" cx="121.135" cy="156.654" r="0.925"/>
				</g>
				<g>
					<defs>
						<path id="SVGID_5_" d="M61.758,102.559l0.368-0.858c0.429-0.613,2.267-5.393,2.267-5.393s0.368-1.164,0.613-2.329
							c0.245-1.164-0.184-3.125-0.061-4.78c0.122-1.655,0.98-4.044,1.654-4.964c0.674-0.919,2.084-2.758,3.37-6.312
							c1.287-3.554,3.82-3.718,5.086-3.718s2.982,0.94,3.309,0.94c0.327,0,2.369-0.776,3.595-1.226
							c1.226-0.449,3.309-0.776,3.309-0.776l3.187-1.552c0,0,1.307-1.144,2.533-2.206c1.226-1.062,3.886-4.382,3.886-4.382
							l-0.052,0.046c0,0-0.199,2.384-0.248,4.123c-0.05,1.739,0,4.073,0,4.073s3.13,2.831,4.371,6.309l2.384-4.073
							c0,0,0.248-0.447,1.639-0.596c1.391-0.149,3.179-0.944,3.775-1.689c0.596-0.745,1.088-2.583,2.28-3.924
							c1.192-1.341,2.975-3.577,2.975-3.577v-1.242c0,0,0.601,0.944,0.949,1.49c0.348,0.547,0.835,0.349,1.095,1.242
							c0.26,0.893,0.594,2.227,1.02,2.832c0.425,0.605,1.006,0.348,1.454,1.291c0.448,0.944,0.923,2.204,1.298,2.633
							c0.375,0.429,0.301,1.192,0.897,1.292c0.596,0.099,1.094,0.546,1.691,0.646c0.596,0.099,0.299,0.099,1.392,0.099l2.285,0.855
							c0,0,2.268,0.352,3.166,0.924c0.899,0.572,2.022,0.025,3.657,0.515c1.634,0.49,1.675,1.941,1.675,1.941
							c0,0.695,0.49,1.103,1.144,1.838c0.654,0.735,1.553,1.961,1.553,2.941s-0.899,2.288-0.98,3.758
							c-0.082,1.471,0.082,3.35-0.163,5.393c-0.245,2.043-0.572,2.533-1.307,4.249c-0.735,1.716-2.451,4.657-2.451,4.657
							s-0.082,1.062-0.408,1.798s-1.144,3.268-1.389,4.33c-0.245,1.062-0.572,2.206-0.817,3.023c0,0-1.389-2.615-1.961-3.35
							c-0.572-0.735-0.899-1.226-2.206-1.552c-1.307-0.327-4.576-0.98-5.638-0.98c-1.062,0-2.369,0-4.249,0.49
							c-1.879,0.49-4.33,2.124-7.027,2.206c-2.696,0.082-7.19,0.097-8.498,0.506c-1.307,0.409-13.645,1.813-15.933,1.813h-6.373
							c0-1-0.163-6.552-0.163-6.552c-0.327,1.226-1.226,3.097-1.226,3.097l-0.225-0.392c-0.306-0.674-0.919-2.984-1.164-3.781
							c-0.245-0.797-0.735-2.564-1.655-2.748c-0.919-0.184-3.616-0.915-3.616-0.915s-0.858-0.12-1.593,0.125
							c-0.735,0.245-2.574,0.614-2.574,1.411c0,0,0.184,0.368,0.49,0.491L61.758,102.559z"/>
					</defs>
					<clipPath id="SVGID_6_">
						<use xlink:href="#SVGID_5_"  overflow="visible"/>
					</clipPath>
					<g clip-path="url(#SVGID_6_)">
						<circle fill="#E31F26" cx="87.373" cy="63.778" r="0.925"/>
						<circle fill="#E31F26" cx="89.817" cy="66.222" r="0.925"/>
						<circle fill="#E31F26" cx="92.261" cy="63.778" r="0.925"/>
						<circle fill="#E31F26" cx="94.705" cy="66.222" r="0.925"/>
						<circle fill="#E31F26" cx="97.149" cy="63.778" r="0.925"/>
						<circle fill="#E31F26" cx="99.593" cy="66.222" r="0.925"/>
						<circle fill="#E31F26" cx="102.037" cy="63.778" r="0.925"/>
						<circle fill="#E31F26" cx="104.481" cy="66.222" r="0.925"/>
						<circle fill="#E31F26" cx="106.925" cy="63.778" r="0.925"/>
						<circle fill="#E31F26" cx="109.369" cy="66.222" r="0.925"/>
						<circle fill="#E31F26" cx="111.813" cy="63.778" r="0.925"/>
						<circle fill="#E31F26" cx="114.257" cy="66.222" r="0.925"/>
						<circle fill="#E31F26" cx="116.701" cy="63.778" r="0.925"/>
						<circle fill="#E31F26" cx="119.145" cy="66.222" r="0.925"/>
						<circle fill="#E31F26" cx="60.49" cy="71.102" r="0.925"/>
						<circle fill="#E31F26" cx="65.378" cy="71.102" r="0.925"/>
						<circle fill="#E31F26" cx="70.266" cy="71.102" r="0.925"/>
						<circle fill="#E31F26" cx="75.154" cy="71.102" r="0.925"/>
						<circle fill="#E31F26" cx="80.041" cy="71.102" r="0.925"/>
						<circle fill="#E31F26" cx="84.929" cy="71.102" r="0.925"/>
						<circle fill="#E31F26" cx="87.373" cy="68.658" r="0.925"/>
						<circle fill="#E31F26" cx="89.817" cy="71.102" r="0.925"/>
						<circle fill="#E31F26" cx="92.261" cy="68.658" r="0.925"/>
						<circle fill="#E31F26" cx="94.705" cy="71.102" r="0.925"/>
						<circle fill="#E31F26" cx="97.149" cy="68.658" r="0.925"/>
						<circle fill="#E31F26" cx="99.593" cy="71.102" r="0.925"/>
						<circle fill="#E31F26" cx="102.037" cy="68.658" r="0.925"/>
						<circle fill="#E31F26" cx="104.481" cy="71.102" r="0.925"/>
						<circle fill="#E31F26" cx="106.925" cy="68.658" r="0.925"/>
						<circle fill="#E31F26" cx="109.369" cy="71.102" r="0.925"/>
						<circle fill="#E31F26" cx="111.813" cy="68.658" r="0.925"/>
						<circle fill="#E31F26" cx="114.257" cy="71.102" r="0.925"/>
						<circle fill="#E31F26" cx="116.701" cy="68.658" r="0.925"/>
						<circle fill="#E31F26" cx="119.145" cy="71.102" r="0.925"/>
						<circle fill="#E31F26" cx="124.033" cy="71.102" r="0.925"/>
						<circle fill="#E31F26" cx="128.921" cy="71.102" r="0.925"/>
						<circle fill="#E31F26" cx="133.809" cy="71.102" r="0.925"/>
						<circle fill="#E31F26" cx="60.49" cy="75.99" r="0.925"/>
						<circle fill="#E31F26" cx="62.934" cy="73.546" r="0.925"/>
						<circle fill="#E31F26" cx="65.378" cy="75.99" r="0.925"/>
						<circle fill="#E31F26" cx="67.822" cy="73.546" r="0.925"/>
						<circle fill="#E31F26" cx="70.266" cy="75.99" r="0.925"/>
						<circle fill="#E31F26" cx="72.71" cy="73.546" r="0.925"/>
						<circle fill="#E31F26" cx="75.154" cy="75.99" r="0.925"/>
						<circle fill="#E31F26" cx="77.598" cy="73.546" r="0.925"/>
						<circle fill="#E31F26" cx="80.041" cy="75.99" r="0.925"/>
						<circle fill="#E31F26" cx="82.485" cy="73.546" r="0.925"/>
						<circle fill="#E31F26" cx="84.929" cy="75.99" r="0.925"/>
						<circle fill="#E31F26" cx="87.373" cy="73.546" r="0.925"/>
						<circle fill="#E31F26" cx="89.817" cy="75.99" r="0.925"/>
						<circle fill="#E31F26" cx="92.261" cy="73.546" r="0.925"/>
						<circle fill="#E31F26" cx="94.705" cy="75.99" r="0.925"/>
						<circle fill="#E31F26" cx="97.149" cy="73.546" r="0.925"/>
						<circle fill="#E31F26" cx="99.593" cy="75.99" r="0.925"/>
						<circle fill="#E31F26" cx="102.037" cy="73.546" r="0.925"/>
						<circle fill="#E31F26" cx="104.481" cy="75.99" r="0.925"/>
						<circle fill="#E31F26" cx="106.925" cy="73.546" r="0.925"/>
						<circle fill="#E31F26" cx="109.369" cy="75.99" r="0.925"/>
						<circle fill="#E31F26" cx="111.813" cy="73.546" r="0.925"/>
						<circle fill="#E31F26" cx="114.257" cy="75.99" r="0.925"/>
						<circle fill="#E31F26" cx="116.701" cy="73.546" r="0.925"/>
						<circle fill="#E31F26" cx="119.145" cy="75.99" r="0.925"/>
						<circle fill="#E31F26" cx="121.589" cy="73.546" r="0.925"/>
						<circle fill="#E31F26" cx="124.033" cy="75.99" r="0.925"/>
						<circle fill="#E31F26" cx="126.477" cy="73.546" r="0.925"/>
						<circle fill="#E31F26" cx="128.921" cy="75.99" r="0.925"/>
						<circle fill="#E31F26" cx="131.365" cy="73.546" r="0.925"/>
						<circle fill="#E31F26" cx="133.809" cy="75.99" r="0.925"/>
						<circle fill="#E31F26" cx="60.49" cy="80.878" r="0.925"/>
						<circle fill="#E31F26" cx="62.934" cy="78.434" r="0.925"/>
						<circle fill="#E31F26" cx="65.378" cy="80.878" r="0.925"/>
						<circle fill="#E31F26" cx="67.822" cy="78.434" r="0.925"/>
						<circle fill="#E31F26" cx="70.266" cy="80.878" r="0.925"/>
						<circle fill="#E31F26" cx="72.71" cy="78.434" r="0.925"/>
						<circle fill="#E31F26" cx="75.154" cy="80.878" r="0.925"/>
						<circle fill="#E31F26" cx="77.598" cy="78.434" r="0.925"/>
						<circle fill="#E31F26" cx="80.041" cy="80.878" r="0.925"/>
						<circle fill="#E31F26" cx="82.485" cy="78.434" r="0.925"/>
						<circle fill="#E31F26" cx="84.929" cy="80.878" r="0.925"/>
						<circle fill="#E31F26" cx="87.373" cy="78.434" r="0.925"/>
						<circle fill="#E31F26" cx="89.817" cy="80.878" r="0.925"/>
						<circle fill="#E31F26" cx="92.261" cy="78.434" r="0.925"/>
						<circle fill="#E31F26" cx="94.705" cy="80.878" r="0.925"/>
						<circle fill="#E31F26" cx="97.149" cy="78.434" r="0.925"/>
						<circle fill="#E31F26" cx="99.593" cy="80.878" r="0.925"/>
						<circle fill="#E31F26" cx="102.037" cy="78.434" r="0.925"/>
						<circle fill="#E31F26" cx="104.481" cy="80.878" r="0.925"/>
						<circle fill="#E31F26" cx="106.925" cy="78.434" r="0.925"/>
						<circle fill="#E31F26" cx="109.369" cy="80.878" r="0.925"/>
						<circle fill="#E31F26" cx="111.813" cy="78.434" r="0.925"/>
						<circle fill="#E31F26" cx="114.257" cy="80.878" r="0.925"/>
						<circle fill="#E31F26" cx="116.701" cy="78.434" r="0.925"/>
						<circle fill="#E31F26" cx="119.145" cy="80.878" r="0.925"/>
						<circle fill="#E31F26" cx="121.589" cy="78.434" r="0.925"/>
						<circle fill="#E31F26" cx="124.033" cy="80.878" r="0.925"/>
						<circle fill="#E31F26" cx="126.477" cy="78.434" r="0.925"/>
						<circle fill="#E31F26" cx="128.921" cy="80.878" r="0.925"/>
						<circle fill="#E31F26" cx="131.365" cy="78.434" r="0.925"/>
						<circle fill="#E31F26" cx="133.809" cy="80.878" r="0.925"/>
						<circle fill="#E31F26" cx="60.49" cy="85.766" r="0.925"/>
						<circle fill="#E31F26" cx="62.934" cy="83.322" r="0.925"/>
						<circle fill="#E31F26" cx="65.378" cy="85.766" r="0.925"/>
						<circle fill="#E31F26" cx="67.822" cy="83.322" r="0.925"/>
						<circle fill="#E31F26" cx="70.266" cy="85.766" r="0.925"/>
						<circle fill="#E31F26" cx="72.71" cy="83.322" r="0.925"/>
						<circle fill="#E31F26" cx="75.154" cy="85.766" r="0.925"/>
						<circle fill="#E31F26" cx="77.598" cy="83.322" r="0.925"/>
						<circle fill="#E31F26" cx="80.041" cy="85.766" r="0.925"/>
						<circle fill="#E31F26" cx="82.485" cy="83.322" r="0.925"/>
						<circle fill="#E31F26" cx="84.929" cy="85.766" r="0.925"/>
						<circle fill="#E31F26" cx="87.373" cy="83.322" r="0.925"/>
						<circle fill="#E31F26" cx="89.817" cy="85.766" r="0.925"/>
						<circle fill="#E31F26" cx="92.261" cy="83.322" r="0.925"/>
						<circle fill="#E31F26" cx="94.705" cy="85.766" r="0.925"/>
						<circle fill="#E31F26" cx="97.149" cy="83.322" r="0.925"/>
						<circle fill="#E31F26" cx="99.593" cy="85.766" r="0.925"/>
						<circle fill="#E31F26" cx="102.037" cy="83.322" r="0.925"/>
						<circle fill="#E31F26" cx="104.481" cy="85.766" r="0.925"/>
						<circle fill="#E31F26" cx="106.925" cy="83.322" r="0.925"/>
						<circle fill="#E31F26" cx="109.369" cy="85.766" r="0.925"/>
						<circle fill="#E31F26" cx="111.813" cy="83.322" r="0.925"/>
						<circle fill="#E31F26" cx="114.257" cy="85.766" r="0.925"/>
						<circle fill="#E31F26" cx="116.701" cy="83.322" r="0.925"/>
						<circle fill="#E31F26" cx="119.145" cy="85.766" r="0.925"/>
						<circle fill="#E31F26" cx="121.589" cy="83.322" r="0.925"/>
						<circle fill="#E31F26" cx="124.033" cy="85.766" r="0.925"/>
						<circle fill="#E31F26" cx="126.477" cy="83.322" r="0.925"/>
						<circle fill="#E31F26" cx="128.921" cy="85.766" r="0.925"/>
						<circle fill="#E31F26" cx="131.365" cy="83.322" r="0.925"/>
						<circle fill="#E31F26" cx="133.809" cy="85.766" r="0.925"/>
						<circle fill="#E31F26" cx="60.49" cy="90.654" r="0.925"/>
						<circle fill="#E31F26" cx="62.934" cy="88.21" r="0.925"/>
						<circle fill="#E31F26" cx="65.378" cy="90.654" r="0.925"/>
						<circle fill="#E31F26" cx="67.822" cy="88.21" r="0.925"/>
						<circle fill="#E31F26" cx="70.266" cy="90.654" r="0.925"/>
						<circle fill="#E31F26" cx="72.71" cy="88.21" r="0.925"/>
						<circle fill="#E31F26" cx="75.154" cy="90.654" r="0.925"/>
						<circle fill="#E31F26" cx="77.598" cy="88.21" r="0.925"/>
						<circle fill="#E31F26" cx="80.041" cy="90.654" r="0.925"/>
						<circle fill="#E31F26" cx="82.485" cy="88.21" r="0.925"/>
						<circle fill="#E31F26" cx="84.929" cy="90.654" r="0.925"/>
						<circle fill="#E31F26" cx="87.373" cy="88.21" r="0.925"/>
						<circle fill="#E31F26" cx="89.817" cy="90.654" r="0.925"/>
						<circle fill="#E31F26" cx="92.261" cy="88.21" r="0.925"/>
						<circle fill="#E31F26" cx="94.705" cy="90.654" r="0.925"/>
						<circle fill="#E31F26" cx="97.149" cy="88.21" r="0.925"/>
						<circle fill="#E31F26" cx="99.593" cy="90.654" r="0.925"/>
						<circle fill="#E31F26" cx="102.037" cy="88.21" r="0.925"/>
						<circle fill="#E31F26" cx="104.481" cy="90.654" r="0.925"/>
						<circle fill="#E31F26" cx="106.925" cy="88.21" r="0.925"/>
						<circle fill="#E31F26" cx="109.369" cy="90.654" r="0.925"/>
						<circle fill="#E31F26" cx="111.813" cy="88.21" r="0.925"/>
						<circle fill="#E31F26" cx="114.257" cy="90.654" r="0.925"/>
						<circle fill="#E31F26" cx="116.701" cy="88.21" r="0.925"/>
						<circle fill="#E31F26" cx="119.145" cy="90.654" r="0.925"/>
						<circle fill="#E31F26" cx="121.589" cy="88.21" r="0.925"/>
						<circle fill="#E31F26" cx="124.033" cy="90.654" r="0.925"/>
						<circle fill="#E31F26" cx="126.477" cy="88.21" r="0.925"/>
						<circle fill="#E31F26" cx="128.921" cy="90.654" r="0.925"/>
						<circle fill="#E31F26" cx="131.365" cy="88.21" r="0.925"/>
						<circle fill="#E31F26" cx="133.809" cy="90.654" r="0.925"/>
						<circle fill="#E31F26" cx="60.49" cy="95.542" r="0.925"/>
						<circle fill="#E31F26" cx="62.934" cy="93.098" r="0.925"/>
						<circle fill="#E31F26" cx="65.378" cy="95.542" r="0.925"/>
						<circle fill="#E31F26" cx="67.822" cy="93.098" r="0.925"/>
						<circle fill="#E31F26" cx="70.266" cy="95.542" r="0.925"/>
						<circle fill="#E31F26" cx="72.71" cy="93.098" r="0.925"/>
						<circle fill="#E31F26" cx="75.154" cy="95.542" r="0.925"/>
						<circle fill="#E31F26" cx="77.598" cy="93.098" r="0.925"/>
						<circle fill="#E31F26" cx="80.041" cy="95.542" r="0.925"/>
						<circle fill="#E31F26" cx="82.485" cy="93.098" r="0.925"/>
						<circle fill="#E31F26" cx="84.929" cy="95.542" r="0.925"/>
						<circle fill="#E31F26" cx="87.373" cy="93.098" r="0.925"/>
						<circle fill="#E31F26" cx="89.817" cy="95.542" r="0.925"/>
						<circle fill="#E31F26" cx="92.261" cy="93.098" r="0.925"/>
						<circle fill="#E31F26" cx="94.705" cy="95.542" r="0.925"/>
						<circle fill="#E31F26" cx="97.149" cy="93.098" r="0.925"/>
						<circle fill="#E31F26" cx="99.593" cy="95.542" r="0.925"/>
						<circle fill="#E31F26" cx="102.037" cy="93.098" r="0.925"/>
						<circle fill="#E31F26" cx="104.481" cy="95.542" r="0.925"/>
						<circle fill="#E31F26" cx="106.925" cy="93.098" r="0.925"/>
						<circle fill="#E31F26" cx="109.369" cy="95.542" r="0.925"/>
						<circle fill="#E31F26" cx="111.813" cy="93.098" r="0.925"/>
						<circle fill="#E31F26" cx="114.257" cy="95.542" r="0.925"/>
						<circle fill="#E31F26" cx="116.701" cy="93.098" r="0.925"/>
						<circle fill="#E31F26" cx="119.145" cy="95.542" r="0.925"/>
						<circle fill="#E31F26" cx="121.589" cy="93.098" r="0.925"/>
						<circle fill="#E31F26" cx="124.033" cy="95.542" r="0.925"/>
						<circle fill="#E31F26" cx="126.477" cy="93.098" r="0.925"/>
						<circle fill="#E31F26" cx="128.921" cy="95.542" r="0.925"/>
						<circle fill="#E31F26" cx="131.365" cy="93.098" r="0.925"/>
						<circle fill="#E31F26" cx="133.809" cy="95.542" r="0.925"/>
						<circle fill="#E31F26" cx="60.49" cy="100.43" r="0.925"/>
						<circle fill="#E31F26" cx="62.934" cy="97.986" r="0.925"/>
						<circle fill="#E31F26" cx="65.378" cy="100.43" r="0.925"/>
						<circle fill="#E31F26" cx="67.822" cy="97.986" r="0.925"/>
						<circle fill="#E31F26" cx="70.266" cy="100.43" r="0.925"/>
						<circle fill="#E31F26" cx="72.71" cy="97.986" r="0.925"/>
						<circle fill="#E31F26" cx="75.154" cy="100.43" r="0.925"/>
						<circle fill="#E31F26" cx="77.598" cy="97.986" r="0.925"/>
						<circle fill="#E31F26" cx="80.041" cy="100.43" r="0.925"/>
						<circle fill="#E31F26" cx="82.485" cy="97.986" r="0.925"/>
						<circle fill="#E31F26" cx="84.929" cy="100.43" r="0.925"/>
						<circle fill="#E31F26" cx="87.373" cy="97.986" r="0.925"/>
						<circle fill="#E31F26" cx="89.817" cy="100.43" r="0.925"/>
						<circle fill="#E31F26" cx="92.261" cy="97.986" r="0.925"/>
						<circle fill="#E31F26" cx="94.705" cy="100.43" r="0.925"/>
						<circle fill="#E31F26" cx="97.149" cy="97.986" r="0.925"/>
						<circle fill="#E31F26" cx="99.593" cy="100.43" r="0.925"/>
						<circle fill="#E31F26" cx="102.037" cy="97.986" r="0.925"/>
						<circle fill="#E31F26" cx="104.481" cy="100.43" r="0.925"/>
						<circle fill="#E31F26" cx="106.925" cy="97.986" r="0.925"/>
						<circle fill="#E31F26" cx="109.369" cy="100.43" r="0.925"/>
						<circle fill="#E31F26" cx="111.813" cy="97.986" r="0.925"/>
						<circle fill="#E31F26" cx="114.257" cy="100.43" r="0.925"/>
						<circle fill="#E31F26" cx="116.701" cy="97.986" r="0.925"/>
						<circle fill="#E31F26" cx="119.145" cy="100.43" r="0.925"/>
						<circle fill="#E31F26" cx="121.589" cy="97.986" r="0.925"/>
						<circle fill="#E31F26" cx="124.033" cy="100.43" r="0.925"/>
						<circle fill="#E31F26" cx="126.477" cy="97.986" r="0.925"/>
						<circle fill="#E31F26" cx="128.921" cy="100.43" r="0.925"/>
						<circle fill="#E31F26" cx="131.365" cy="97.986" r="0.925"/>
						<circle fill="#E31F26" cx="133.809" cy="100.43" r="0.925"/>
						<circle fill="#E31F26" cx="60.49" cy="105.318" r="0.925"/>
						<circle fill="#E31F26" cx="62.934" cy="102.874" r="0.925"/>
						<circle fill="#E31F26" cx="65.378" cy="105.318" r="0.925"/>
						<circle fill="#E31F26" cx="67.822" cy="102.874" r="0.925"/>
						<circle fill="#E31F26" cx="70.266" cy="105.318" r="0.925"/>
						<circle fill="#E31F26" cx="72.71" cy="102.874" r="0.925"/>
						<circle fill="#E31F26" cx="75.154" cy="105.318" r="0.925"/>
						<circle fill="#E31F26" cx="77.598" cy="102.874" r="0.925"/>
						<circle fill="#E31F26" cx="80.041" cy="105.318" r="0.925"/>
						<circle fill="#E31F26" cx="82.485" cy="102.874" r="0.925"/>
						<circle fill="#E31F26" cx="84.929" cy="105.318" r="0.925"/>
						<circle fill="#E31F26" cx="87.373" cy="102.874" r="0.925"/>
						<circle fill="#E31F26" cx="89.817" cy="105.318" r="0.925"/>
						<circle fill="#E31F26" cx="92.261" cy="102.874" r="0.925"/>
						<circle fill="#E31F26" cx="94.705" cy="105.318" r="0.925"/>
						<circle fill="#E31F26" cx="97.149" cy="102.874" r="0.925"/>
						<circle fill="#E31F26" cx="99.593" cy="105.318" r="0.925"/>
						<circle fill="#E31F26" cx="102.037" cy="102.874" r="0.925"/>
						<circle fill="#E31F26" cx="104.481" cy="105.318" r="0.925"/>
						<circle fill="#E31F26" cx="106.925" cy="102.874" r="0.925"/>
						<circle fill="#E31F26" cx="109.369" cy="105.318" r="0.925"/>
						<circle fill="#E31F26" cx="111.813" cy="102.874" r="0.925"/>
						<circle fill="#E31F26" cx="114.257" cy="105.318" r="0.925"/>
						<circle fill="#E31F26" cx="116.701" cy="102.874" r="0.925"/>
						<circle fill="#E31F26" cx="119.145" cy="105.318" r="0.925"/>
						<circle fill="#E31F26" cx="121.589" cy="102.874" r="0.925"/>
						<circle fill="#E31F26" cx="124.033" cy="105.318" r="0.925"/>
						<circle fill="#E31F26" cx="126.477" cy="102.874" r="0.925"/>
						<circle fill="#E31F26" cx="128.921" cy="105.318" r="0.925"/>
						<circle fill="#E31F26" cx="131.365" cy="102.874" r="0.925"/>
						<circle fill="#E31F26" cx="133.809" cy="105.318" r="0.925"/>
						<circle fill="#E31F26" cx="72.71" cy="107.762" r="0.925"/>
						<circle fill="#E31F26" cx="75.154" cy="110.206" r="0.925"/>
						<circle fill="#E31F26" cx="77.598" cy="107.762" r="0.925"/>
						<circle fill="#E31F26" cx="80.041" cy="110.206" r="0.925"/>
						<circle fill="#E31F26" cx="82.485" cy="107.762" r="0.925"/>
						<circle fill="#E31F26" cx="84.929" cy="110.206" r="0.925"/>
						<circle fill="#E31F26" cx="87.373" cy="107.762" r="0.925"/>
						<circle fill="#E31F26" cx="89.817" cy="110.206" r="0.925"/>
						<circle fill="#E31F26" cx="92.261" cy="107.762" r="0.925"/>
						<circle fill="#E31F26" cx="94.705" cy="110.206" r="0.925"/>
						<circle fill="#E31F26" cx="97.149" cy="107.762" r="0.925"/>
						<circle fill="#E31F26" cx="99.593" cy="110.206" r="0.925"/>
						<circle fill="#E31F26" cx="102.037" cy="107.762" r="0.925"/>
						<circle fill="#E31F26" cx="104.481" cy="110.206" r="0.925"/>
						<circle fill="#E31F26" cx="106.925" cy="107.762" r="0.925"/>
						<circle fill="#E31F26" cx="109.369" cy="110.206" r="0.925"/>
						<circle fill="#E31F26" cx="111.813" cy="107.762" r="0.925"/>
						<circle fill="#E31F26" cx="114.257" cy="110.206" r="0.925"/>
						<circle fill="#E31F26" cx="116.701" cy="107.762" r="0.925"/>
						<circle fill="#E31F26" cx="119.145" cy="110.206" r="0.925"/>
						<circle fill="#E31F26" cx="121.589" cy="107.762" r="0.925"/>
						<circle fill="#E31F26" cx="124.033" cy="110.206" r="0.925"/>
						<circle fill="#E31F26" cx="126.477" cy="107.762" r="0.925"/>
						<circle fill="#E31F26" cx="128.921" cy="110.206" r="0.925"/>
						<circle fill="#E31F26" cx="72.71" cy="112.65" r="0.925"/>
						<circle fill="#E31F26" cx="77.598" cy="112.65" r="0.925"/>
						<circle fill="#E31F26" cx="82.485" cy="112.65" r="0.925"/>
						<circle fill="#E31F26" cx="87.373" cy="112.65" r="0.925"/>
						<circle fill="#E31F26" cx="92.261" cy="112.65" r="0.925"/>
						<circle fill="#E31F26" cx="97.149" cy="112.65" r="0.925"/>
						<circle fill="#E31F26" cx="102.037" cy="112.65" r="0.925"/>
						<circle fill="#E31F26" cx="106.925" cy="112.65" r="0.925"/>
						<circle fill="#E31F26" cx="111.813" cy="112.65" r="0.925"/>
						<circle fill="#E31F26" cx="116.701" cy="112.65" r="0.925"/>
						<circle fill="#E31F26" cx="121.589" cy="112.65" r="0.925"/>
						<circle fill="#E31F26" cx="126.477" cy="112.65" r="0.925"/>
					</g>
				</g>
				<g>
					<g>
						<path fill="none" stroke="#231F20" stroke-width="0.5" d="M94.921,58.989c0,0,2.932,5.658,9.387,5.658
							c0,0,3.432-0.082,6.128-2.696"/>
						<path fill="none" stroke="#231F20" stroke-width="0.5" d="M94.875,65.004c0,0-2.66,3.319-3.886,4.382
							c-1.226,1.062-2.533,2.206-2.533,2.206l-3.187,1.552"/>
						<path fill="none" stroke="#231F20" stroke-width="0.5" d="M88.456,71.592c0,0-3.187,2.86-3.677,5.883
							c0,0,4.412-5.638,6.945-6.373l-0.49,2.451l1.716,1.798c0,0,0.49,0.98,0.654,1.226c0.163,0.245,1.716,0.409,1.716,0.409
							l1.716,0.735c0,0,1.307,0.082,0.327,4.33s-2.288,7.19-3.023,12.501c-0.735,5.311-0.817,15.933-0.817,15.933"/>
						<path fill="none" stroke="#231F20" stroke-width="0.5" d="M97.117,109.831c0,0-0.082-11.357,1.062-14.626
							c1.144-3.268,3.513-10.295,1.062-15.606"/>
						<path fill="none" stroke="#231F20" stroke-width="0.5" d="M99.323,79.926l2.86-4.249c0,0,0.654,0.735,2.369-0.245
							c1.716-0.98,3.513-2.451,3.513-2.451l2.124,0.899c0,0,0.899,0.654,0.899,0.899c0,0.245,2.941,5.638,2.941,5.638
							s0.49-1.144,1.062-2.124c0.572-0.98,0.409-1.307,0.817-2.206c0.409-0.899,1.389-3.023,1.389-3.023"/>
						<path fill="none" stroke="#231F20" stroke-width="0.5" d="M127.758,112.201c0,0-1.389-2.615-1.961-3.35
							c-0.572-0.735-0.899-1.226-2.206-1.552c-1.307-0.327-4.576-0.98-5.638-0.98c-1.062,0-2.369,0-4.249,0.49
							c-1.879,0.49-4.33,2.124-7.027,2.206c-2.696,0.082-7.19,0.245-8.498,0.654c-1.307,0.409-13.645,1.879-15.933,1.961
							c-2.288,0.082-7.272,0.082-7.272,0.082s-0.102-0.695-0.163-1.43c-0.061-0.735-0.245-2.084-0.551-2.758
							c-0.306-0.674-0.919-3.003-1.164-3.799c-0.245-0.797-0.735-2.574-1.655-2.758c-0.919-0.184-3.616-0.919-3.616-0.919
							s-0.858-0.123-1.593,0.122c-0.735,0.245-2.574,0.613-2.574,1.41c0,0,0.184,0.368,0.49,0.49"/>
						<path fill="none" stroke="#231F20" stroke-width="0.5" d="M61.758,102.559c0,0,3.37-0.797,4.78-0.551
							c1.409,0.245,2.329,0.797,3.003,1.716c0.674,0.919,1.961,1.961,2.451,2.39c0.49,0.429,1.409,1.164,1.532,1.777"/>
						<path fill="none" stroke="#231F20" stroke-width="0.5" d="M60.226,105.378c0,0,3.554-1.226,4.167-1.41
							c0.613-0.184,1.287-0.122,1.839,0.368c0.551,0.49,3.554,2.574,4.045,2.942"/>
						<path fill="none" stroke="#231F20" stroke-width="0.5" d="M59.491,108.197c0,0,1.716-0.858,3.003-1.164
							s2.145-0.735,2.941-0.429c0.797,0.306,2.39,1.164,3.064,1.777"/>
						<path fill="none" stroke="#231F20" stroke-width="0.5" d="M59.674,108.136c0,0-0.735,1.777,1.226,1.471
							c1.961-0.306,2.88-0.429,3.493-0.429c0.613,0,1.042,0.49,1.471,0.613c0.429,0.123,0.858,1.471,0.858,1.471"/>
						<path fill="none" stroke="#231F20" stroke-width="0.5" d="M64.638,111.629c0,0,1.777-0.429,3.064-0.245
							c1.287,0.184,7.272,0.327,7.272,0.327"/>
						<path fill="none" stroke="#231F20" stroke-width="0.5" d="M75.362,125.907c0,0,3.861-0.797,6.618-1.961
							c2.758-1.164,7.783-3.309,11.337-4.044c3.554-0.735,6.986-1.9,7.966-2.022c0.98-0.123,1.042,0.061,2.206,0.123
							c1.164,0.061,4.964,0.429,7.354,0.429c2.39,0,5.148-0.368,6.312-0.184c1.164,0.184,4.514,1.042,5.291,1.716"/>
						<path fill="none" stroke="#231F20" stroke-width="0.5" d="M124.244,118.247c0,0-0.837-0.674-1.573-1.226
							c-0.735-0.551-2.206-1.226-4.78-1.716"/>
						<path fill="none" stroke="#231F20" stroke-width="0.5" d="M119.485,112.609l3.125,0.368c0,0,1.655,0.123,2.083,1.287
							c0.429,1.164,0.695,2.104,0.695,2.104"/>
						<path fill="none" stroke="#231F20" stroke-width="0.5" d="M120.097,109.484c0,0,1.9,0.368,3.187,0.735
							c1.287,0.368,1.532,0.368,2.083,1.042c0.551,0.674,1.083,2.247,1.083,2.247"/>
						<path fill="none" stroke="#231F20" stroke-width="0.5" d="M77.385,125.478c0,0,4.167,1.716,12.746,3.309
							c8.579,1.593,12.501,0.98,16.546,0.735c4.045-0.245,9.151-0.409,9.151-0.409"/>
						<path fill="none" stroke="#231F20" stroke-width="0.5" d="M74.484,107.952c0,0,0.899-1.798,1.226-3.023
							c0,0,0.163,5.311,0.163,6.7"/>
						<path fill="none" stroke="#231F20" stroke-width="0.5" d="M114.276,106.563c0,0-0.082-2.696,0.572-3.677
							s0.327-0.817,0.735-2.043c0.409-1.226,1.062-2.288,1.062-2.288s-2.288-3.677-2.288-6.782"/>
						<path fill="none" stroke="#231F20" stroke-width="0.5" d="M116.645,98.556c0,0,1.716-2.206,3.922-2.124
							c2.206,0.082,5.638,0.817,6.537,1.307c0.899,0.49,1.389,0.98,1.879,1.961c0.49,0.98,1.471,2.288,1.389,3.35"/>
						<path fill="none" stroke="#231F20" stroke-width="0.5" d="M75.71,104.929c0,0-0.082-4.167,0.572-6.292
							c0.654-2.124,0.245-3.187,0.899-5.393c0.654-2.206,0.49-2.533,1.144-4.412c0.654-1.879,1.552-4.004,1.552-5.638"/>
						<path fill="none" stroke="#231F20" stroke-width="0.5" d="M76.608,97.493c0,0-5.638-6.7-11.603-3.514"/>
						<path fill="none" stroke="#231F20" stroke-width="0.5" d="M74.933,128.604c0,0,2.941,1.042,4.78,1.41
							c1.838,0.368,4.78,0.98,6.373,1.226s2.819,1.103,5.025,1.103c2.206,0,3.064,0,5.148,0.123
							c2.084,0.123,16.178,0.245,19.61-0.735"/>
						<path fill="none" stroke="#231F20" stroke-width="0.5" d="M95.524,132.342c0,0-3.677,13.359-3.432,23.655
							c0,0-1.961,1.103-6.251,0c-4.29-1.103-6.741-1.471-8.825-1.961c-2.083-0.49-2.083,0.49-4.045-1.471
							c-1.961-1.961-3.554-3.187-4.78-3.799c-1.226-0.613-3.677-2.206-3.677-2.206"/>
						<path fill="none" stroke="#231F20" stroke-width="0.5" d="M91.112,132.342c0,0-3.799,18.262-3.187,23.655"/>
						<path fill="none" stroke="#231F20" stroke-width="0.5" d="M89.518,156.364c0,0,0.613,1.716,4.412,1.103
							c3.799-0.613,4.535-1.593,7.967-0.858c3.432,0.735,4.535,1.103,6.496,0.858c1.961-0.245,2.451-0.245,4.535-0.49
							c2.084-0.245,6.251-1.346,6.863-1.96"/>
						<path fill="none" stroke="#231F20" stroke-width="0.5" stroke-linecap="round" d="M115.488,45.677
							c0,0-0.744-0.668-2.335-1.441c-1.59-0.773-5.713-2.285-6.706-4.57c0,0,1.292,3.179,2.633,3.626c0,0-2.931,1.192-6.16-3.279
							c0,0,0.05,3.13,0.447,3.974c0,0-2.98-5.613-3.13-6.557c0,0,0.646,4.868,1.341,5.812c0,0-1.987-3.03-2.186-3.726l0.844,3.875
							c0,0-2.583-6.16-2.533-7.7c0,0-0.099,5.564,0.149,6.905l-1.54-6.507c0,0-0.099,4.62,0.497,6.507c0,0-2.037-4.073-2.086-5.216
							c0,0-0.696,5.613,0.05,7.402l-1.739-4.769l-0.447,6.11l-0.298,0.099l-0.397-0.695c0,0-0.346,0.35-0.695,0.348
							c-0.35-0.002-1.391-0.397-1.391-1.937l-0.844-0.248l-0.546,0.298l-0.348,0.447l0.149,1.143l0.397,0.596
							c0,0-0.844,5.862,3.924,6.458c0,0,0.844,4.918,2.434,6.358l-0.149,6.06c0,0-0.199,2.384-0.248,4.123
							c-0.05,1.739,0,4.073,0,4.073s3.13,2.831,4.371,6.309l2.384-4.073c0,0,0.248-0.447,1.639-0.596
							c1.391-0.149,3.179-0.944,3.775-1.689c0.596-0.745,1.338-2.583,2.53-3.924c1.192-1.341,3.225-3.577,3.225-3.577v-5.961
							c0,0,1.842-2.931,2.239-7.203c0,0,2.908-0.074,3.156-3.502c0.248-3.428-0.122-4.197-0.122-4.197h-0.696l-0.646,0.173
							L115.488,45.677z"/>
						<path fill="none" stroke="#231F20" stroke-width="0.5" stroke-linecap="round" d="M112.209,64.454c0,0,0.497,0.944,0.844,1.49
							c0.348,0.547,0.783,0.349,1.043,1.242c0.26,0.893,0.568,2.227,0.993,2.832c0.425,0.605,0.992,0.348,1.441,1.291
							c0.448,0.944,0.917,2.204,1.292,2.633c0.375,0.429,0.298,1.192,0.894,1.292c0.596,0.099,1.093,0.546,1.689,0.646
							c0.596,0.099,0.298,0.099,1.391,0.099l2.641,0.917"/>
					</g>
					<circle fill="#FFFFFF" stroke="#231F20" stroke-width="0.5" cx="91.357" cy="52.431" r="0.735"/>
					<circle fill="#FFFFFF" stroke="#231F20" stroke-width="0.5" cx="116.359" cy="51.941" r="0.735"/>
				</g>
				<path fill="#FFFFFF" stroke="#231F20" d="M68.82,44.357c1.903-1.874,3.085-4.478,3.085-7.36c0-5.108-3.71-9.339-8.579-10.173
					c-1.022-2.728-3.645-4.674-6.73-4.674c-2.025,0-3.851,0.84-5.158,2.186c-1.255-2.105-3.547-3.519-6.175-3.519
					c-1.409,0-2.719,0.411-3.828,1.111c-1.88-1.957-4.518-3.18-7.447-3.18c-5.707,0-10.333,4.627-10.333,10.333
					c-3.91,0-7.084,3.122-7.183,7.008c-4.823,0.873-8.484,5.084-8.484,10.159c0,4.749,3.208,8.74,7.572,9.949
					c-0.151,0.58-0.239,1.185-0.239,1.812c0,3.972,3.22,7.192,7.192,7.192c0.285,0,0.564-0.021,0.84-0.053
					c0.324,3.672,3.403,6.553,7.16,6.553c2.493,0,4.689-1.27,5.979-3.197c1.888,2.041,4.58,3.327,7.579,3.327
					c3.768,0,7.056-2.024,8.861-5.037c0.956,0.47,2.027,0.741,3.164,0.741c3.972,0,7.192-3.22,7.192-7.192
					c0-0.527-0.06-1.039-0.168-1.534C63.673,58.93,64.244,59,64.833,59c4.346,0,7.868-3.523,7.868-7.868
					C72.701,48.243,71.14,45.725,68.82,44.357z"/>
				
					<ellipse fill="#FFFFFF" stroke="#231F20" stroke-linecap="round" stroke-linejoin="round" cx="76.821" cy="42.365" rx="3.176" ry="2.581"/>
				
					<ellipse fill="#FFFFFF" stroke="#231F20" stroke-linecap="round" stroke-linejoin="round" cx="83" cy="47.55" rx="1.866" ry="1.516"/>
				<path fill="none" stroke="#231F20" stroke-width="2" d="M141,96c0,33.137-26.863,60-60,60s-60-26.863-60-60"/>
			</g>
			<g clip-path="url(#SVGID_2_)">
				<path fill="none" stroke="#231F20" d="M132.578,80.212c0,0-0.041-1.45-1.675-1.941c-1.634-0.49-2.546,0.154-3.445-0.418
					c-0.899-0.572-3.333-1.021-3.333-1.021l0.917-0.021l-0.667-1l0.237-0.313l0.082-0.381l-0.204-0.19l-0.368-0.177
					c0,0-0.327-0.109-0.409-0.231c-0.082-0.122,0.163,0.027-0.082-0.136s-0.695-0.456-0.858-0.62s-0.286-0.085-0.449-0.575
					c-0.163-0.49-0.286-0.737-0.286-0.737s-0.327-0.246-0.368-0.368c-0.041-0.123-0.245-0.246-0.245-0.491s0.082-0.327,0-0.45
					c-0.082-0.123-0.082-0.204-0.163-0.327c-0.082-0.122,0.122,0.123-0.082-0.123c-0.204-0.245-0.286-0.163-0.327-0.409
					c-0.041-0.245,0-0.163-0.041-0.409c-0.041-0.245-0.204-0.327-0.204-0.449c0-0.123,0.123,0.163,0-0.123
					c-0.122-0.286-0.204-0.245-0.204-0.49c0-0.245-0.163-0.613-0.163-0.613l-0.286-1.798l-0.082-0.694c0,0-0.123-0.245-0.163-0.409
					c-0.041-0.163-1.146-0.531-1.146-0.531l-1.064-2.982v-0.409c0,0,0-0.49,0-0.654c0-0.163,0-0.572,0-0.776
					c0-0.204,0-1.267,0-1.267l0.418-0.899l0.582-3.268v-0.98l0.707-0.694c0,0,0.251-5.188,0.047-6.864
					c-0.204-1.675-0.896-5.924-1.631-7.885c-0.735-1.961-3.328-11.848-13.909-11.848c0,0-1.827-0.082-3.625,0.449
					c-1.798,0.531-2.262,0.695-3.61,1.226c-1.348,0.531-7.709,3.677-8.852,16.587c0,0-0.852,7.476-0.852,10.377
					s0.044,7.395,0.575,9.437s0.615,3.105,0.328,4.208c-0.286,1.103-1.552,3.963-2.41,4.617c0,0-2.083,0.327-3.309,0.776
					c-1.226,0.449-3.268,1.226-3.595,1.226c-0.327,0-2.043-0.94-3.309-0.94c-1.266,0-3.799,0.163-5.086,3.718
					c-1.287,3.554-2.696,5.393-3.37,6.312c-0.674,0.919-1.532,3.309-1.654,4.964c-0.123,1.655,0.306,3.616,0.061,4.78
					c-0.245,1.164-0.613,2.329-0.613,2.329s-1.838,4.78-2.267,5.393l-0.368,0.858c0,0-1.9,0.981-2.145,1.9
					c-0.245,0.919,0.613,0.919,0.613,0.919s-1.471,0.735-1.655,1.777c-0.184,1.042,0.919,1.042,0.919,1.042s0.061,0.613-0.123,1.103
					c-0.184,0.49-0.674,3.677-0.98,4.535c-0.306,0.858-0.552,4.106-0.306,5.577c0.245,1.471,0.674,2.941,0.674,3.554
					c0,0.613,0.429,1.839,1.961,1.777c1.532-0.061,3.248-0.306,4.719,0.368c1.471,0.674,7.721,1.532,9.927,0.797l-0.429,2.696
					c0,0-0.674,0.49-1.593,1.777c-0.919,1.287-6.618,9.682-8.498,14.83c0,0-0.735,4.331-0.98,6.455
					c-0.245,2.124-0.49,5.393-0.409,8.334c0,0-0.286,7.668,2.41,20.537c2.696,12.869,4.045,21.296,4.29,24.296h47.309
					c0,0,1.593-12.162,2.574-17.677c0.98-5.515,1.716-9.574,1.348-12.516c-0.368-2.942-0.368-3.929-0.368-4.91
					s0.49-2.087,0.245-3.19c-0.245-1.103-0.368-3.25-0.368-4.353c0-1.103-0.368-2.605-0.49-3.954
					c-0.123-1.348-0.613-3.202-0.613-3.202s0.98-0.743,0.98-2.337c0,0-0.245-1.352-1.103-5.274
					c-0.858-3.922-1.226-5.395-1.226-8.091c0-2.696-0.245-5.271-2.574-7.6l-0.041-2.615c0,0,1.144-0.654,2.369-1.471
					c1.226-0.817,2.941-2.86,4.249-7.681c0,0,1.144,0.082,1.716-0.654c0.572-0.735,0.082-1.062,0.082-1.062s1.471-0.572,1.144-1.879
					c0,0,1.471-0.817,1.062-2.86c0,0,1.062-0.49,1.307-1.307c0.245-0.817,0.572-1.961,0.817-3.023
					c0.245-1.062,1.062-3.595,1.389-4.33s0.408-1.798,0.408-1.798s1.716-2.941,2.451-4.657c0.735-1.716,1.062-2.206,1.307-4.249
					c0.245-2.043,0.082-3.922,0.163-5.393c0.082-1.471,0.98-2.778,0.98-3.758s-0.899-2.206-1.553-2.941
					C133.069,81.315,132.578,80.907,132.578,80.212z"/>
			</g>
		</g>
	</g>
	<path fill="none" stroke="#231F20" stroke-width="2" d="M130.184,61.626C137,71.361,141,83.214,141,96c0,33.137-26.863,60-60,60
		s-60-26.863-60-60c0-6.05,0.896-11.892,2.561-17.398"/>
	<g>
		<g>
			<g>
				<path fill="#FFFFFF" d="M35.102,67.898c-0.187,0-0.408-0.006-0.672-0.021l-0.223-0.013c-1.277-0.072-1.302-0.073-1.661-0.179
					c-0.085-0.025-0.192-0.057-0.35-0.098c-0.824-0.214-2.142-0.795-2.673-1.25c-0.104-0.09-0.198-0.163-0.28-0.228
					c-0.318-0.25-0.547-0.431-0.648-0.935c-0.158-0.79-0.348-1.914-0.172-2.548c0.052-0.189,0.082-0.333,0.106-0.449
					c0.059-0.283,0.097-0.47,0.345-0.718c0.167-0.167,0.331-0.225,0.45-0.254c-0.051-0.084-0.1-0.211-0.1-0.415
					c0-0.162-0.06-0.229-0.178-0.361c-0.054-0.06-0.109-0.124-0.163-0.198c-0.193-0.271-0.486-1.201-0.251-1.553
					c0.045-0.068,0.061-0.127,0.065-0.165c-0.251-0.345-0.797-1.177-0.684-1.735c-0.257-0.214-0.805-0.671-1.016-0.829
					c-0.346-0.26-0.753-1.029-0.587-1.738c0.056-0.237,0.142-0.468,0.231-0.704c0.133-0.354,0.271-0.72,0.292-1.12
					c0.024-0.49,0.129-0.928,0.198-1.172c-0.36-0.213-1.138-0.733-1.381-1.37c-0.256-0.672-0.007-2.905,0.093-3.706l-0.904-0.083
					l-0.767-0.201l0.011-0.203c0.004-0.074,0.043-0.732,0.237-1.121c0.074-0.147,0.354-1.014,0.624-1.852
					c0.347-1.075,0.741-2.293,0.989-2.923l0.241-0.618c0.523-1.345,1.314-3.377,1.691-3.912l0.166-0.239
					c0.434-0.629,1.028-1.492,1.842-2.013c0.578-0.37,1.106-0.799,1.456-1.083c0.185-0.151,0.32-0.258,0.383-0.296
					c0.104-0.062,0.208-0.196,0.239-0.242c0.036-0.043,0.368-0.411,0.852-0.708c0.433-0.266,1.224-0.986,1.231-0.994
					c0.17-0.113,0.418-0.291,0.502-0.395c0.191-0.239,0.676-0.503,0.98-0.58c0.074-0.018,0.168-0.027,0.291-0.027
					c0.241,0,0.568,0.035,0.817,0.062c0.135,0.015,0.243,0.028,0.292,0.028s0.141-0.028,0.226-0.062
					c-0.001-0.057-0.012-0.128-0.051-0.191c-0.139-0.226-0.326-0.795-0.438-1.229c-0.122,0.04-0.269,0.074-0.418,0.074
					c-0.148,0-0.281-0.033-0.395-0.099c-0.36-0.208-0.761-0.458-0.968-0.789l-0.257-0.405c-0.201-0.315-0.44-0.689-0.557-0.888
					c-0.046-0.078-0.129-0.201-0.228-0.345c-0.401-0.589-0.71-1.063-0.739-1.361c-0.013-0.125-0.05-0.502,0.208-0.788
					c0.193-0.213,0.494-0.325,0.918-0.341c-0.142-0.464-0.408-1.312-0.608-1.819c-0.208-0.528-0.889-2.623-0.725-3.346
					c0.091-0.402,0.425-1.766,0.883-2.438c0.143-0.21,0.258-0.392,0.365-0.56c0.193-0.305,0.358-0.565,0.601-0.859
					c0.083-0.102,0.153-0.196,0.217-0.283c0.229-0.312,0.427-0.58,0.928-0.747c0.166-0.055,0.324-0.099,0.473-0.14
					c0.326-0.09,0.584-0.161,0.725-0.302c0.299-0.299,0.976-0.687,1.175-0.787c0.149-0.074,0.273-0.124,0.397-0.174l0.172-0.07
					c0.226-0.097,1.193-0.284,1.698-0.311c0.199-0.011,0.444-0.038,0.688-0.065c0.323-0.036,0.643-0.071,0.862-0.071l0.122,0.004
					c0.364,0.029,1.876,0.244,2.604,0.608c0.812,0.406,1.887,0.997,2.392,1.501c0.47,0.47,1.618,1.986,1.711,2.792
					c0.131,1.135,0.175,1.921,0.133,2.404c-0.025,0.293-0.025,0.446-0.025,0.583c0,0.15,0,0.282-0.028,0.533
					c-0.059,0.533-0.114,0.913-0.22,1.284c-0.063,0.22-0.25,0.662-0.403,1.007c0.131-0.055,0.277-0.092,0.429-0.092
					c0.101,0,0.199,0.017,0.292,0.049c0.747,0.261,0.444,1.167,0.201,1.896c-0.137,0.411-0.285,0.731-0.429,1.042
					c-0.149,0.322-0.29,0.626-0.381,0.938c-0.064,0.22-0.083,0.433-0.1,0.62c-0.029,0.313-0.059,0.635-0.295,0.811
					c-0.027,0.36-0.135,1.304-0.55,1.917c0.248,0.124,0.547,0.356,0.69,0.788c0.361,0.152,0.873,0.557,0.873,1.302
					c0.031,0.041,0.263,0.685,0.282,0.971c0.005,0.077,0.035,0.104,0.212,0.195l0.133,0.071c0.456,0.245,1.003,0.571,1.194,0.917
					c0.189,0.344,0.378,0.654,0.584,0.946c0.25,0.355,0.502,1.165,0.539,1.732c0.036,0.561,0.055,1.315-0.062,1.724
					c-0.104,0.362-0.208,0.742-0.259,1.018c-0.051,0.271-0.385,2.592-0.419,3.16c-0.025,0.41-0.014,0.892-0.006,1.253l0.006,0.371
					c0,0.195,0.04,0.516,0.07,0.729c0.037-0.005,0.075-0.012,0.117-0.021c0.088-0.02,0.165-0.029,0.235-0.038
					c0.11-0.013,0.171-0.02,0.251-0.071c0.25-0.159,0.371-0.18,0.716-0.18c0.208,0,0.358-0.025,0.481-0.045
					c0,0,0.174-0.024,0.181-0.024c0.309,0,0.764,0.087,1.003,0.147l0.206,0.056c0.146,0.042,0.233,0.067,0.435,0.078
					c0.338,0.019,0.465,0.025,0.694,0.186c0.172,0.12,0.414,0.338,0.591,0.692l0.074,0.142c0.124,0.234,0.253,0.478,0.286,0.846
					c0.023,0.253,0.042,0.31,0.113,0.521l0.205,0.627c0.194,0.577,0.487,1.448,0.44,2.168c-0.052,0.792-0.248,1.792-0.268,1.895
					c0,0,0,0,0,0c0.007,0,0.037,0.236,0.249,0.743c0.317,0.763,0.511,1.746,0.579,2.133c0.103,0.584,0.223,1.032,0.224,1.036
					c0,0,0,0,0,0c0.017,0,1.145,1.687,0.011,2.506l-0.192,0.139c-0.692,0.502-1.263,0.917-1.823,1.044
					c0.259,0.291,0.655,0.694,1.094,1l0.144,0.1c1.306,0.906,1.92,1.375,1.92,1.762c0,0.377-0.551,1.47-2.239,1.47
					c-0.461,0-0.978-0.082-1.535-0.242l-2.411-0.702c-0.943-0.276-1.378-0.404-1.627-0.458c-0.369-0.08-1.875-0.634-1.941-1.691
					c-0.038-0.612-0.049-1.492-0.052-2.027l-1.122,0.445c-0.335,0.134-1.123,0.396-1.757,0.606
					c-0.366,0.122-0.681,0.226-0.823,0.278c-0.394,0.144-0.681,0.233-0.681,0.233l-0.915,0.627c0.208,0.145,0.428,0.346,0.469,0.568
					c0.136,0.726-0.167,1.248-0.831,1.433c-0.86,0.24-2.157,0.668-2.313,0.764c0.005,0.004-0.025,0.091-0.047,0.155
					c-0.094,0.267-0.268,0.765-0.844,0.765c-0.154,0-0.287-0.004-0.403-0.008l-0.223-0.005c-0.167,0-0.196,0.02-0.201,0.026
					c-0.047,0.058-0.087,0.096-0.122,0.127c-0.023,0.022-0.035,0.06-0.035,0.209c0,0.197-0.055,0.319-0.091,0.399
					c-0.019,0.004-0.002,0.039,0.088,0.129c0.094,0.094,0.226,0.172,0.354,0.248c0.22,0.131,0.448,0.266,0.484,0.511
					c0.022,0.146-0.032,0.291-0.16,0.432c-0.216,0.237-0.404,0.375-0.604,0.521c-0.142,0.104-0.293,0.214-0.47,0.376
					c-0.156,0.143-0.292,0.318-0.423,0.487c-0.227,0.29-0.461,0.59-0.778,0.723l-0.148,0.063c-0.191,0.084-0.22,0.088-0.564,0.134
					l-0.477,0.066c-0.318,0.045-0.476,0.107-0.643,0.173C36.074,67.8,35.823,67.898,35.102,67.898z"/>
				<path fill="#231F20" d="M42.167,10.595c0.038,0,0.072,0.001,0.103,0.003c0.344,0.026,1.824,0.238,2.512,0.582
					c0.687,0.344,1.824,0.952,2.327,1.454c0.502,0.502,1.56,1.957,1.639,2.644c0.079,0.687,0.185,1.745,0.132,2.353
					c-0.053,0.608,0,0.635-0.053,1.11c-0.053,0.476-0.106,0.872-0.212,1.243c-0.106,0.37-0.608,1.454-0.608,1.454v0.238
					c0,0,0.418-0.458,0.875-0.458c0.069,0,0.14,0.011,0.209,0.035c0.529,0.185,0.264,0.925,0.027,1.639
					c-0.238,0.714-0.608,1.296-0.793,1.93s-0.026,1.216-0.397,1.348c0,0-0.053,1.604-0.74,2.186c0,0,0.74,0.106,0.917,0.864
					c0,0,0.828,0.229,0.828,1.11c0,0,0.264,0.723,0.282,0.987c0.018,0.264,0.229,0.335,0.423,0.441
					c0.194,0.106,0.952,0.493,1.146,0.846c0.194,0.353,0.388,0.67,0.599,0.969c0.212,0.3,0.458,1.058,0.494,1.604
					c0.035,0.546,0.053,1.269-0.053,1.639c-0.106,0.37-0.211,0.758-0.264,1.04c-0.053,0.282-0.388,2.609-0.423,3.19
					c-0.035,0.582,0,1.304,0,1.639s0.106,0.987,0.106,0.987s0.025,0.003,0.07,0.003c0.068,0,0.18-0.006,0.317-0.038
					c0.229-0.053,0.37-0.018,0.564-0.141c0.194-0.123,0.264-0.141,0.582-0.141c0.317,0,0.511-0.053,0.67-0.07
					c0.014-0.002,0.03-0.002,0.049-0.002c0.194,0,0.628,0.079,0.885,0.143c0.282,0.07,0.37,0.123,0.688,0.141
					c0.317,0.018,0.388,0.018,0.564,0.141c0.176,0.123,0.37,0.317,0.511,0.599c0.141,0.282,0.3,0.511,0.335,0.899
					c0.035,0.388,0.07,0.388,0.229,0.899c0.159,0.511,0.582,1.569,0.529,2.38c-0.053,0.811-0.264,1.868-0.264,1.868
					s0,0.247,0.264,0.881c0.264,0.635,0.458,1.481,0.564,2.08c0.106,0.599,0.229,1.058,0.229,1.058s1.058,1.551,0.106,2.238
					c-0.876,0.633-1.573,1.176-2.214,1.176c-0.055,0-0.11-0.004-0.165-0.012c0,0,0.652,0.864,1.463,1.428s1.957,1.34,1.957,1.657
					c0,0.251-0.442,1.22-1.989,1.22c-0.408,0-0.892-0.067-1.466-0.233c-2.75-0.793-3.649-1.075-4.054-1.163
					c-0.405-0.088-1.692-0.617-1.745-1.463c-0.053-0.846-0.053-2.203-0.053-2.38c0,0-0.934,0.37-1.463,0.582
					c-0.529,0.212-2.186,0.74-2.573,0.881c-0.388,0.141-0.67,0.229-0.67,0.229l-1.304,0.881c0,0,0.635,0.317,0.687,0.599
					c0.053,0.282,0.106,0.934-0.652,1.146s-2.186,0.67-2.38,0.793c-0.194,0.123-0.159,0.881-0.758,0.881
					c-0.266,0-0.47-0.014-0.626-0.014c-0.196,0-0.318,0.022-0.396,0.12c-0.141,0.176-0.211,0.106-0.211,0.493
					c0,0.388-0.282,0.353,0.07,0.705c0.353,0.353,1.022,0.458,0.67,0.846s-0.634,0.493-1.057,0.881
					c-0.423,0.388-0.705,0.987-1.128,1.163c-0.423,0.176-0.141,0.106-1.128,0.247c-0.85,0.121-0.707,0.374-1.844,0.374
					c-0.183,0-0.399-0.007-0.659-0.021c-1.868-0.106-1.375-0.07-2.186-0.282c-0.811-0.212-2.08-0.776-2.573-1.199
					c-0.494-0.423-0.74-0.493-0.846-1.022c-0.106-0.529-0.353-1.798-0.176-2.432c0.176-0.635,0.106-0.776,0.388-1.058
					c0.282-0.282,0.529-0.141,0.564-0.317s-0.141-0.176-0.141-0.529c0-0.352-0.212-0.458-0.388-0.705
					c-0.176-0.247-0.388-1.058-0.247-1.269c0.141-0.212,0.106-0.388,0.106-0.388s-0.952-1.269-0.635-1.727
					c0,0-0.881-0.74-1.163-0.952c-0.282-0.211-0.635-0.881-0.494-1.481c0.141-0.599,0.494-1.163,0.529-1.868
					c0.035-0.705,0.247-1.304,0.247-1.304s-1.163-0.599-1.445-1.34c-0.282-0.74,0.141-3.843,0.141-3.843l-1.163-0.106l-0.529-0.141
					c0,0,0.035-0.67,0.212-1.022c0.176-0.353,1.163-3.631,1.622-4.794c0.458-1.163,1.481-3.878,1.904-4.477
					c0.423-0.599,1.058-1.622,1.939-2.186c0.881-0.564,1.657-1.269,1.833-1.375c0.176-0.106,0.317-0.317,0.317-0.317
					s0.317-0.352,0.776-0.635c0.458-0.282,1.269-1.022,1.269-1.022s0.388-0.247,0.529-0.423c0.141-0.176,0.564-0.423,0.846-0.494
					c0.056-0.014,0.137-0.02,0.231-0.02c0.376,0,0.968,0.09,1.109,0.09c0.176,0,0.458-0.141,0.458-0.141s0.07-0.264-0.07-0.493
					s-0.388-1.005-0.476-1.445c0,0-0.302,0.171-0.594,0.171c-0.095,0-0.188-0.018-0.27-0.065c-0.335-0.194-0.705-0.423-0.881-0.705
					c-0.176-0.282-0.634-0.987-0.811-1.287c-0.176-0.3-0.899-1.251-0.934-1.604c-0.033-0.328-0.005-0.855,0.981-0.855
					c0.073,0,0.151,0.003,0.235,0.009c0,0-0.423-1.428-0.714-2.168c-0.291-0.74-0.846-2.617-0.714-3.199
					c0.132-0.582,0.449-1.771,0.846-2.353c0.397-0.582,0.582-0.952,0.952-1.401c0.37-0.449,0.476-0.767,1.031-0.952
					c0.555-0.185,1.031-0.238,1.296-0.502c0.264-0.264,0.899-0.634,1.11-0.74c0.212-0.106,0.37-0.159,0.555-0.238
					c0.185-0.079,1.11-0.264,1.613-0.291C41.088,10.707,41.786,10.595,42.167,10.595 M42.167,10.095c-0.24,0-0.556,0.035-0.89,0.073
					c-0.238,0.027-0.478,0.054-0.672,0.064c-0.507,0.027-1.507,0.212-1.783,0.331l-0.169,0.069
					c-0.129,0.052-0.258,0.104-0.413,0.181c-0.217,0.109-0.914,0.508-1.24,0.834c-0.094,0.094-0.347,0.164-0.615,0.238
					c-0.152,0.042-0.315,0.087-0.485,0.144c-0.576,0.192-0.817,0.519-1.05,0.836c-0.062,0.084-0.129,0.175-0.209,0.273
					c-0.255,0.309-0.424,0.576-0.619,0.885c-0.105,0.166-0.219,0.346-0.36,0.553c-0.47,0.689-0.8,1.995-0.92,2.524
					c-0.193,0.847,0.577,3.087,0.736,3.493c0.16,0.407,0.365,1.041,0.512,1.511c-0.333,0.058-0.592,0.188-0.775,0.39
					c-0.333,0.368-0.287,0.828-0.271,0.98c0.036,0.357,0.347,0.837,0.782,1.477c0.094,0.139,0.175,0.256,0.219,0.331
					c0.119,0.202,0.362,0.583,0.566,0.902l0.252,0.396c0.237,0.379,0.669,0.649,1.055,0.873c0.152,0.088,0.327,0.133,0.52,0.133
					c0.083,0,0.165-0.008,0.242-0.022c0.095,0.33,0.217,0.688,0.329,0.922c-0.043-0.005-0.096-0.011-0.154-0.017
					c-0.26-0.029-0.584-0.064-0.844-0.064c-0.146,0-0.257,0.011-0.352,0.035c-0.351,0.088-0.884,0.377-1.115,0.666
					c-0.046,0.058-0.24,0.207-0.407,0.314l-0.036,0.023l-0.032,0.029c-0.216,0.197-0.852,0.755-1.194,0.966
					c-0.514,0.316-0.87,0.709-0.885,0.726l-0.024,0.027l-0.02,0.03c-0.038,0.056-0.114,0.139-0.159,0.166
					c-0.085,0.051-0.188,0.134-0.413,0.317c-0.345,0.28-0.867,0.704-1.432,1.066c-0.856,0.548-1.467,1.434-1.913,2.081l-0.165,0.238
					c-0.365,0.517-1.023,2.173-1.722,3.971l-0.238,0.611c-0.251,0.637-0.646,1.861-0.995,2.94c-0.253,0.783-0.539,1.67-0.609,1.814
					c-0.212,0.424-0.256,1.09-0.263,1.219l-0.021,0.405l0.392,0.104l0.529,0.141l0.041,0.011l0.042,0.004l0.647,0.059
					c-0.125,1.045-0.299,2.907-0.047,3.57c0.238,0.626,0.902,1.128,1.325,1.397c-0.066,0.265-0.138,0.638-0.158,1.044
					c-0.018,0.361-0.143,0.692-0.275,1.043c-0.088,0.235-0.18,0.477-0.241,0.735c-0.194,0.824,0.271,1.688,0.68,1.995
					c0.179,0.134,0.622,0.501,0.901,0.733c-0.028,0.549,0.344,1.206,0.668,1.668c-0.316,0.499,0.074,1.561,0.263,1.826
					c0.059,0.083,0.121,0.153,0.18,0.22c0.115,0.128,0.115,0.135,0.115,0.195c0,0.104,0.01,0.192,0.027,0.27
					c-0.098,0.05-0.201,0.12-0.304,0.222c-0.301,0.301-0.353,0.553-0.413,0.844c-0.023,0.112-0.052,0.251-0.102,0.433
					c-0.188,0.677-0.009,1.78,0.168,2.664c0.119,0.595,0.406,0.821,0.739,1.083c0.08,0.063,0.171,0.134,0.272,0.221
					c0.573,0.491,1.921,1.081,2.773,1.303c0.154,0.04,0.259,0.071,0.342,0.096c0.387,0.114,0.412,0.115,1.715,0.189l0.226,0.013
					c0.27,0.015,0.496,0.022,0.687,0.022c0.713,0,1-0.091,1.328-0.22c0.16-0.063,0.298-0.117,0.587-0.158l0.476-0.066
					c0.352-0.047,0.406-0.054,0.63-0.153l0.144-0.062c0.378-0.157,0.632-0.484,0.878-0.799c0.133-0.171,0.259-0.332,0.395-0.457
					c0.165-0.151,0.303-0.252,0.449-0.359c0.201-0.147,0.408-0.299,0.641-0.555c0.225-0.248,0.245-0.483,0.222-0.637
					c-0.054-0.362-0.359-0.543-0.604-0.689c-0.106-0.063-0.216-0.128-0.288-0.194c0.032-0.096,0.059-0.216,0.059-0.367
					c0-0.027,0-0.05,0.001-0.069c0.014-0.014,0.028-0.028,0.042-0.042c0.016-0.001,0.038-0.001,0.065-0.001
					c0.063,0,0.134,0.003,0.215,0.005c0.118,0.004,0.255,0.009,0.412,0.009c0.754,0,0.982-0.653,1.08-0.932
					c0.007-0.021,0.014-0.042,0.021-0.061c0.33-0.135,1.442-0.496,2.171-0.7c0.781-0.218,1.167-0.877,1.009-1.719
					c-0.035-0.189-0.15-0.357-0.295-0.501l0.641-0.433c0.11-0.036,0.338-0.111,0.62-0.214c0.141-0.051,0.451-0.154,0.813-0.274
					c0.636-0.211,1.427-0.474,1.775-0.613c0.222-0.089,0.516-0.206,0.781-0.311c0.006,0.521,0.019,1.184,0.05,1.676
					c0.076,1.225,1.706,1.826,2.138,1.92c0.234,0.051,0.692,0.185,1.605,0.452c0.586,0.172,1.366,0.4,2.416,0.703
					c0.58,0.167,1.12,0.252,1.604,0.252c1.899,0,2.489-1.261,2.489-1.72c0-0.483-0.481-0.894-2.026-1.967l-0.145-0.1
					c-0.293-0.204-0.566-0.454-0.789-0.681c0.486-0.204,0.98-0.562,1.521-0.955l0.192-0.139c1.027-0.742,0.545-2.104,0.065-2.85
					c-0.038-0.15-0.124-0.508-0.2-0.938c-0.07-0.395-0.267-1.399-0.595-2.185c-0.156-0.375-0.205-0.587-0.22-0.669
					c0.051-0.265,0.211-1.141,0.258-1.855c0.05-0.772-0.253-1.672-0.454-2.268c-0.037-0.11-0.07-0.209-0.096-0.292
					c-0.044-0.143-0.079-0.247-0.108-0.331c-0.068-0.204-0.081-0.24-0.101-0.465c-0.038-0.418-0.185-0.695-0.314-0.939l-0.072-0.138
					c-0.2-0.4-0.476-0.648-0.671-0.785c-0.287-0.201-0.477-0.212-0.792-0.229c-0.205-0.011-0.274-0.031-0.412-0.071
					c-0.062-0.018-0.13-0.037-0.213-0.058c-0.263-0.066-0.749-0.158-1.006-0.158h-0.028l-0.077,0.005
					c-0.054,0.006-0.111,0.015-0.174,0.025c-0.126,0.021-0.256,0.042-0.441,0.042c-0.386,0-0.553,0.03-0.85,0.219
					c-0.028,0.018-0.039,0.021-0.146,0.033c-0.035,0.004-0.071,0.008-0.109,0.014c-0.019-0.162-0.034-0.326-0.034-0.436
					c0-0.098-0.003-0.227-0.006-0.376c-0.008-0.353-0.019-0.836,0.005-1.232c0.033-0.546,0.366-2.865,0.415-3.128
					c0.052-0.276,0.163-0.677,0.254-0.995c0.102-0.356,0.126-0.964,0.071-1.809c-0.04-0.616-0.307-1.468-0.584-1.86
					c-0.19-0.27-0.377-0.571-0.57-0.922c-0.221-0.402-0.779-0.74-1.295-1.017l-0.049-0.027l-0.087-0.046
					c-0.026-0.013-0.057-0.03-0.082-0.043c-0.035-0.287-0.196-0.764-0.278-0.994c-0.038-0.749-0.524-1.189-0.922-1.391
					c-0.127-0.312-0.33-0.536-0.547-0.692c0.31-0.589,0.415-1.321,0.45-1.71c0.241-0.247,0.276-0.618,0.303-0.909
					c0.017-0.188,0.035-0.383,0.091-0.573c0.086-0.294,0.223-0.59,0.368-0.903c0.146-0.315,0.297-0.64,0.42-1.009l0.02-0.06
					c0.248-0.743,0.623-1.866-0.356-2.209c-0.12-0.042-0.246-0.063-0.375-0.063c-0.003,0-0.006,0-0.01,0
					c0.097-0.232,0.183-0.454,0.224-0.597c0.122-0.426,0.177-0.87,0.228-1.325c0.029-0.264,0.029-0.403,0.029-0.561
					c0-0.132,0-0.279,0.025-0.562c0.043-0.498,0-1.3-0.134-2.454c-0.105-0.906-1.333-2.491-1.782-2.94
					c-0.528-0.528-1.627-1.133-2.457-1.548c-0.82-0.41-2.434-0.613-2.697-0.633C42.266,10.097,42.219,10.095,42.167,10.095
					L42.167,10.095z"/>
			</g>
			<g>
				<defs>
					<path id="SVGID_7_" d="M45.195,33.777c0.092,0.429,0.184,0.967,0.142,1.472c-0.053,0.634-0.388,2.697-0.546,3.719
						c-0.159,1.022-0.476,2.573-0.687,3.349c-0.211,0.776-0.229,1.921-0.229,2.556c0,0.635,0.264,2.274,0.917,2.908
						c0.652,0.635,1.375,0.564,1.921,0.476c0.546-0.088,1.234-0.211,1.481-0.705c0.247-0.493,0.176-0.617,0.546-0.987
						c0.37-0.37,1.604-1.639,1.586-2.556c-0.01-0.501-0.23-1.271-0.48-2.031l-0.067-0.023c0.793,0.344,1.463,1.719,1.463,1.719
						s0.159,0.018,0.388-0.035c0.229-0.053,0.37-0.018,0.564-0.141c0.194-0.123,0.264-0.141,0.582-0.141
						c0.317,0,0.511-0.053,0.67-0.07c0.159-0.018,0.652,0.07,0.934,0.141c0.282,0.07,0.37,0.123,0.688,0.141
						c0.317,0.018,0.388,0.018,0.564,0.141c0.176,0.123,0.37,0.317,0.511,0.599c0.141,0.282,0.3,0.511,0.335,0.899
						c0.035,0.388,0.07,0.388,0.229,0.899c0.159,0.511,0.582,1.569,0.529,2.379c-0.053,0.811-0.264,1.868-0.264,1.868
						s0,0.247,0.264,0.881c0.264,0.635,0.458,1.481,0.564,2.08c0.106,0.599,0.229,1.058,0.229,1.058s1.058,1.551,0.106,2.239
						c-0.952,0.687-1.692,1.269-2.379,1.163c-1.851-0.07-2.009-0.67-2.009-0.67c-1.428-0.212-3.173-0.793-3.173-0.793
						c-0.211,0.529-0.705,0.529-0.705,0.529s-0.934,0.37-1.463,0.582c-0.529,0.212-2.186,0.74-2.573,0.881
						c-0.388,0.141-0.67,0.229-0.67,0.229l-1.304,0.881c0,0-1.507,0.467-2.485,0.467c0,0,0.705,0.599,0.141,2.071
						c-0.194,0.123-0.159,0.881-0.758,0.881c-0.599,0-0.881-0.07-1.022,0.106c-0.141,0.176-0.211,0.106-0.211,0.493
						c0,0.388-0.282,0.353,0.07,0.705c0.353,0.353,1.022,0.458,0.67,0.846s-0.634,0.493-1.057,0.881
						c-0.423,0.388-0.705,0.987-1.128,1.163c-0.423,0.176-0.141,0.106-1.128,0.247c-0.987,0.141-0.635,0.458-2.503,0.353
						c-1.868-0.106-1.375-0.07-2.186-0.282c-0.811-0.212-2.08-0.776-2.573-1.199c-0.494-0.423-0.74-0.493-0.846-1.022
						c-0.106-0.529-0.353-1.798-0.176-2.432c0.176-0.634,0.106-0.776,0.388-1.057c0.282-0.282,0.529-0.141,0.564-0.317
						c0.035-0.176-0.141-0.176-0.141-0.529s-0.212-0.458-0.388-0.705c-0.176-0.247-0.388-1.058-0.247-1.269
						c0.141-0.211,0.106-0.388,0.106-0.388s-0.952-1.269-0.635-1.727c0,0-0.881-0.74-1.163-0.952
						c-0.282-0.212-0.635-0.881-0.494-1.481c0.141-0.599,0.494-1.163,0.529-1.868c0.035-0.705,0.247-1.304,0.247-1.304
						c1.11,0.687,4.583,2.186,6.046,2.644c1.463,0.458,3.067,1.128,3.701,1.304c0.634,0.176,0.917,0.546,1.375,0.811
						c0.458,0.264,0.987,0.899,1.199,1.269c0.212,0.37,0.264,0.317,0.652,0.599c0.388,0.282,0.317,0.652,1.058,1.357
						c0.74,0.705,1.445-0.07,1.445-0.07s0.582,0.282,0.899,0.018c0.317-0.264,0.335-0.705,0.335-0.705s0.599,0.37,1.075-0.229
						c0.476-0.599-0.141-1.11-0.141-1.11s0.546-0.176,0.74-0.564s-0.211-1.058-0.564-1.34c-0.353-0.282-1.075-0.934-1.075-0.934
						c1.199,0.423,1.992,0.106,2.08-0.388c0.088-0.494-0.458-0.599-0.723-0.652c-0.264-0.053-0.106-0.035-0.388-0.176
						c-0.282-0.141-0.67-0.211-1.657-0.493c-0.987-0.282-1.719-0.273-2.221-0.352s-0.899-0.027-1.586-0.344
						c-0.687-0.317-2.247-0.74-3.199-1.216c-0.952-0.476-2.512-1.295-3.173-2.089c-0.661-0.793-2.882-1.718-2.882-1.718
						l-0.159-0.027c0.661,0.185,1.137-0.212,1.243-0.714c0.106-0.502,0.317-0.925,0.74-1.639c0.423-0.714,0.291-0.476,0.449-1.216
						c0.159-0.74,0.185-0.449,0.608-0.793c0.423-0.344,0.238-0.582,0.529-1.058c0.291-0.476,0.264-0.449,0.423-0.872
						c0.159-0.423,0.397-0.873,0.661-1.534c0.264-0.661,0-1.322-0.027-2.406C34.867,35.372,35,34.737,35,34.737
						c-0.582-2.3-2.697-3.331-2.697-3.331l-0.044,0.088c0,0,0.317-0.352,0.776-0.634c0.458-0.282,1.269-1.022,1.269-1.022
						l0.22-0.123c0,0,0.767,0.264,1.375,1.19c0.608,0.925,1.322,2.036,1.322,2.036s0.793,0,1.824,0.238
						c1.031,0.238,4.733,0.661,6.16,0.608L45.195,33.777z"/>
				</defs>
				<clipPath id="SVGID_8_">
					<use xlink:href="#SVGID_7_"  overflow="visible"/>
				</clipPath>
				<g clip-path="url(#SVGID_8_)">
					<circle fill="#FFB900" cx="26.299" cy="28.949" r="0.925"/>
					<circle fill="#FFB900" cx="28.743" cy="31.393" r="0.925"/>
					<circle fill="#FFB900" cx="31.187" cy="28.949" r="0.925"/>
					<circle fill="#FFB900" cx="33.631" cy="31.393" r="0.925"/>
					<circle fill="#FFB900" cx="36.075" cy="28.949" r="0.925"/>
					<circle fill="#FFB900" cx="38.519" cy="31.393" r="0.925"/>
					<circle fill="#FFB900" cx="40.963" cy="28.949" r="0.925"/>
					<circle fill="#FFB900" cx="43.407" cy="31.393" r="0.925"/>
					<circle fill="#FFB900" cx="45.851" cy="28.949" r="0.925"/>
					<circle fill="#FFB900" cx="26.299" cy="33.837" r="0.925"/>
					<circle fill="#FFB900" cx="28.743" cy="36.281" r="0.925"/>
					<circle fill="#FFB900" cx="31.187" cy="33.837" r="0.925"/>
					<circle fill="#FFB900" cx="33.631" cy="36.281" r="0.925"/>
					<circle fill="#FFB900" cx="36.075" cy="33.837" r="0.925"/>
					<circle fill="#FFB900" cx="38.519" cy="36.281" r="0.925"/>
					<circle fill="#FFB900" cx="40.963" cy="33.837" r="0.925"/>
					<circle fill="#FFB900" cx="43.407" cy="36.281" r="0.925"/>
					<circle fill="#FFB900" cx="45.851" cy="33.837" r="0.925"/>
					<circle fill="#FFB900" cx="26.299" cy="38.725" r="0.925"/>
					<circle fill="#FFB900" cx="28.743" cy="41.169" r="0.925"/>
					<circle fill="#FFB900" cx="31.187" cy="38.725" r="0.925"/>
					<circle fill="#FFB900" cx="33.631" cy="41.169" r="0.925"/>
					<circle fill="#FFB900" cx="36.075" cy="38.725" r="0.925"/>
					<circle fill="#FFB900" cx="38.519" cy="41.169" r="0.925"/>
					<circle fill="#FFB900" cx="40.963" cy="38.725" r="0.925"/>
					<circle fill="#FFB900" cx="43.407" cy="41.169" r="0.925"/>
					<circle fill="#FFB900" cx="45.851" cy="38.725" r="0.925"/>
					<circle fill="#FFB900" cx="53.183" cy="41.169" r="0.925"/>
					<circle fill="#FFB900" cx="58.071" cy="41.169" r="0.925"/>
					<circle fill="#FFB900" cx="26.299" cy="43.613" r="0.925"/>
					<circle fill="#FFB900" cx="28.743" cy="46.057" r="0.925"/>
					<circle fill="#FFB900" cx="31.187" cy="43.613" r="0.925"/>
					<circle fill="#FFB900" cx="33.631" cy="46.057" r="0.925"/>
					<circle fill="#FFB900" cx="36.075" cy="43.613" r="0.925"/>
					<circle fill="#FFB900" cx="38.519" cy="46.057" r="0.925"/>
					<circle fill="#FFB900" cx="40.963" cy="43.613" r="0.925"/>
					<circle fill="#FFB900" cx="43.407" cy="46.057" r="0.925"/>
					<circle fill="#FFB900" cx="45.851" cy="43.613" r="0.925"/>
					<circle fill="#FFB900" cx="48.295" cy="46.057" r="0.925"/>
					<circle fill="#FFB900" cx="50.739" cy="43.613" r="0.925"/>
					<circle fill="#FFB900" cx="53.183" cy="46.057" r="0.925"/>
					<circle fill="#FFB900" cx="55.627" cy="43.613" r="0.925"/>
					<circle fill="#FFB900" cx="58.071" cy="46.057" r="0.925"/>
					<circle fill="#FFB900" cx="26.299" cy="48.501" r="0.925"/>
					<circle fill="#FFB900" cx="28.743" cy="50.945" r="0.925"/>
					<circle fill="#FFB900" cx="31.187" cy="48.501" r="0.925"/>
					<circle fill="#FFB900" cx="33.631" cy="50.945" r="0.925"/>
					<circle fill="#FFB900" cx="36.075" cy="48.501" r="0.925"/>
					<circle fill="#FFB900" cx="38.519" cy="50.945" r="0.925"/>
					<circle fill="#FFB900" cx="40.963" cy="48.501" r="0.925"/>
					<circle fill="#FFB900" cx="43.407" cy="50.945" r="0.925"/>
					<circle fill="#FFB900" cx="45.851" cy="48.501" r="0.925"/>
					<circle fill="#FFB900" cx="48.295" cy="50.945" r="0.925"/>
					<circle fill="#FFB900" cx="50.739" cy="48.501" r="0.925"/>
					<circle fill="#FFB900" cx="53.183" cy="50.945" r="0.925"/>
					<circle fill="#FFB900" cx="55.627" cy="48.501" r="0.925"/>
					<circle fill="#FFB900" cx="58.071" cy="50.945" r="0.925"/>
					<circle fill="#FFB900" cx="26.299" cy="53.389" r="0.925"/>
					<circle fill="#FFB900" cx="28.743" cy="55.833" r="0.925"/>
					<circle fill="#FFB900" cx="31.187" cy="53.389" r="0.925"/>
					<circle fill="#FFB900" cx="33.631" cy="55.833" r="0.925"/>
					<circle fill="#FFB900" cx="36.075" cy="53.389" r="0.925"/>
					<circle fill="#FFB900" cx="38.519" cy="55.833" r="0.925"/>
					<circle fill="#FFB900" cx="40.963" cy="53.389" r="0.925"/>
					<circle fill="#FFB900" cx="43.407" cy="55.833" r="0.925"/>
					<circle fill="#FFB900" cx="45.851" cy="53.389" r="0.925"/>
					<circle fill="#FFB900" cx="48.295" cy="55.833" r="0.925"/>
					<circle fill="#FFB900" cx="50.739" cy="53.389" r="0.925"/>
					<circle fill="#FFB900" cx="53.183" cy="55.833" r="0.925"/>
					<circle fill="#FFB900" cx="55.627" cy="53.389" r="0.925"/>
					<circle fill="#FFB900" cx="58.071" cy="55.833" r="0.925"/>
					<circle fill="#FFB900" cx="26.299" cy="58.276" r="0.925"/>
					<circle fill="#FFB900" cx="28.743" cy="60.72" r="0.925"/>
					<circle fill="#FFB900" cx="31.187" cy="58.276" r="0.925"/>
					<circle fill="#FFB900" cx="33.631" cy="60.72" r="0.925"/>
					<circle fill="#FFB900" cx="36.075" cy="58.276" r="0.925"/>
					<circle fill="#FFB900" cx="38.519" cy="60.72" r="0.925"/>
					<circle fill="#FFB900" cx="40.963" cy="58.276" r="0.925"/>
					<circle fill="#FFB900" cx="43.407" cy="60.72" r="0.925"/>
					<circle fill="#FFB900" cx="45.851" cy="58.276" r="0.925"/>
					<circle fill="#FFB900" cx="50.739" cy="58.276" r="0.925"/>
					<circle fill="#FFB900" cx="55.627" cy="58.276" r="0.925"/>
					<circle fill="#FFB900" cx="26.299" cy="63.157" r="0.925"/>
					<circle fill="#FFB900" cx="28.743" cy="65.601" r="0.925"/>
					<circle fill="#FFB900" cx="31.187" cy="63.157" r="0.925"/>
					<circle fill="#FFB900" cx="33.631" cy="65.601" r="0.925"/>
					<circle fill="#FFB900" cx="36.075" cy="63.157" r="0.925"/>
					<circle fill="#FFB900" cx="38.519" cy="65.601" r="0.925"/>
					<circle fill="#FFB900" cx="40.963" cy="63.157" r="0.925"/>
					<circle fill="#FFB900" cx="43.407" cy="65.601" r="0.925"/>
					<circle fill="#FFB900" cx="26.299" cy="68.045" r="0.925"/>
					<circle fill="#FFB900" cx="31.187" cy="68.045" r="0.925"/>
					<circle fill="#FFB900" cx="36.075" cy="68.045" r="0.925"/>
					<circle fill="#FFB900" cx="40.963" cy="68.045" r="0.925"/>
				</g>
			</g>
			<path fill="none" stroke="#000000" stroke-width="0.25" stroke-miterlimit="10" d="M47.188,28.357c0,0-1.304-0.3-1.939-0.106
				c-0.635,0.194-2.803,1.04-2.397,1.763c0.405,0.723,1.657-0.106,1.657-0.106l0.529-0.194c0,0-0.211,0.564-0.229,0.775
				c-0.018,0.212-0.123,0.3-0.229,0.546c-0.106,0.247-0.176,0.546,0,1.163c0.176,0.617,0.441,0.811,0.546,1.269
				c0.106,0.458,0.264,1.146,0.212,1.78c-0.053,0.634-0.388,2.697-0.546,3.719c-0.159,1.022-0.476,2.573-0.687,3.349
				c-0.211,0.776-0.229,1.921-0.229,2.556c0,0.635,0.264,2.274,0.917,2.908c0.652,0.635,1.375,0.564,1.921,0.476
				c0.546-0.088,1.234-0.211,1.481-0.705c0.247-0.493,0.176-0.617,0.546-0.987c0.37-0.37,1.604-1.639,1.586-2.556
				c-0.018-0.917-0.74-2.732-1.058-3.737s-0.811-4.16-0.811-4.988c0-0.828-0.141-0.969,0.035-1.304
				c0.176-0.335,0.335-0.546,0.582-0.987c0.247-0.441,0.282-1.075,0.176-1.533"/>
			<path fill="none" stroke="#000000" stroke-width="0.25" stroke-miterlimit="10" d="M35.678,28.868c0,0,2.115,2.926,5.958,3.331
				c0,0,1.392,0.176,2.838-0.282"/>
			<path fill="none" stroke="#000000" stroke-width="0.25" stroke-miterlimit="10" d="M37.405,28.357c0,0,1.886,3.102,5.217,2.82
				c0,0,1.234-0.141,2.168-0.582"/>
			<path fill="none" stroke="#000000" stroke-width="0.25" stroke-miterlimit="10" d="M34.524,29.714c0,0,0.767,0.264,1.375,1.19
				c0.608,0.925,1.322,2.036,1.322,2.036s0.793,0,1.824,0.238c1.031,0.238,4.733,0.661,6.16,0.608"/>
			<path fill="none" stroke="#000000" stroke-width="0.25" stroke-miterlimit="10" d="M32.303,31.406c0,0,2.115,1.031,2.697,3.331
				c0,0-0.132,0.634-0.106,1.719c0.027,1.084,0.291,1.745,0.027,2.406c-0.264,0.661-0.502,1.11-0.661,1.534
				c-0.159,0.423-0.132,0.396-0.423,0.872c-0.291,0.476-0.106,0.714-0.529,1.058c-0.423,0.344-0.449,0.053-0.608,0.793
				c-0.159,0.74-0.026,0.502-0.449,1.216c-0.423,0.714-0.635,1.137-0.74,1.639c-0.106,0.502-0.582,0.899-1.243,0.714
				c-0.661-0.185-3.578-0.784-4.142-0.776"/>
			<path fill="none" stroke="#000000" stroke-width="0.25" stroke-miterlimit="10" d="M51.242,43.674c0,0-0.67-1.375-1.463-1.719"/>
			<path fill="none" stroke="#000000" stroke-width="0.25" stroke-miterlimit="10" d="M30.426,46.714c0,0,2.221,0.925,2.882,1.718
				c0.661,0.793,2.221,1.613,3.173,2.089c0.952,0.476,2.512,0.899,3.199,1.216c0.687,0.317,1.084,0.264,1.586,0.344
				s1.234,0.07,2.221,0.352c0.987,0.282,1.375,0.353,1.657,0.493c0.282,0.141,0.123,0.123,0.388,0.176
				c0.264,0.053,0.811,0.159,0.723,0.652c-0.088,0.493-0.881,0.811-2.08,0.388c0,0,0.723,0.652,1.075,0.934
				c0.353,0.282,0.758,0.952,0.564,1.34s-0.74,0.564-0.74,0.564s0.617,0.511,0.141,1.11c-0.476,0.599-1.075,0.229-1.075,0.229
				s-0.018,0.441-0.335,0.705c-0.317,0.264-0.899-0.018-0.899-0.018s-0.705,0.776-1.445,0.07c-0.74-0.705-0.67-1.075-1.058-1.357
				c-0.388-0.282-0.441-0.229-0.652-0.599c-0.211-0.37-0.74-1.005-1.199-1.269c-0.458-0.264-0.74-0.635-1.375-0.811
				c-0.635-0.176-2.238-0.846-3.701-1.304c-1.463-0.458-4.935-1.957-6.046-2.644"/>
			<path fill="none" stroke="#000000" stroke-width="0.25" stroke-miterlimit="10" d="M49.867,56.84c0,0,0.493,0,0.705-0.529
				c0,0,1.745,0.582,3.173,0.793c0,0,0.159,0.599,2.009,0.67"/>
			<path fill="none" stroke="#000000" stroke-width="0.25" stroke-miterlimit="10" d="M31.413,46.3c0,0,0.353,0.353,3.067,0.458
				c2.714,0.106,2.503,0.247,4.407,0.035c1.904-0.212,3.772-0.705,5.182-0.529"/>
			<path fill="none" stroke="#000000" stroke-width="0.25" stroke-miterlimit="10" d="M44.103,42.316
				c-1.622-0.317-3.807,0.529-3.807,0.529c-0.74-0.494-2.996-1.199-2.996-1.199l1.022-5.746c0,0,5.535,0.176,6.874,0.599"/>
			<path fill="none" stroke="#000000" stroke-width="0.25" stroke-miterlimit="10" d="M44.791,47.78c0,0-1.392,2.291-1.304,4.653"/>
			<path fill="none" stroke="#000000" stroke-width="0.25" stroke-miterlimit="10" d="M50.572,56.311l0.212-0.493
				c0,0,1.815-0.141,1.921-0.846c0.106-0.705,0.776-1.516,0.599-4.019c-0.176-2.503-0.317-2.538-0.212-3.102"/>
			<path fill="none" stroke="#000000" stroke-width="0.25" stroke-miterlimit="10" d="M55.877,48.873c0,0-0.282,2.75-1.128,4.548
				c-0.846,1.798-1.234,2.256-1.005,3.684"/>
			<path fill="none" stroke="#000000" stroke-width="0.25" stroke-miterlimit="10" d="M38.463,59.202c0,0,1.304-1.551,2.503-0.564"
				/>
			<path fill="none" stroke="#000000" stroke-width="0.25" stroke-miterlimit="10" d="M38.181,55.677c0,0-1.163-0.388-2.08,0.176"/>
			<path fill="none" stroke="#000000" stroke-width="0.25" stroke-miterlimit="10" d="M38.534,51.27c0,0,0.353-0.106,1.093-0.458
				c0.74-0.353,0.705-0.529,1.586-0.423c0.881,0.106,1.375-0.141,1.375-0.141"/>
			<path fill="none" stroke="#000000" stroke-width="0.25" stroke-miterlimit="10" d="M28.487,51.729c0,0,0.846,0.881,0.458,1.622
				c-0.388,0.74-0.952,0.917-0.67,1.41c0.282,0.494,0.917,0.388,0.74,0.811"/>
			<path fill="none" stroke="#000000" stroke-width="0.25" stroke-miterlimit="10" d="M32.4,44.185c0,0,1.375,0.987,3.419,0.776
				c2.045-0.211,2.714-0.74,4.618-0.846c1.904-0.106,2.714-0.211,3.49,0.212"/>
			<path fill="none" stroke="#000000" stroke-width="0.25" stroke-miterlimit="10" d="M43.856,59.414c0,0-1.507,0.467-2.485,0.467
				c0,0,0.705,0.599,0.141,2.071"/>
			<path fill="none" stroke="#000000" stroke-width="0.25" stroke-miterlimit="10" d="M44.676,30.956c0,0-0.053,0.978,0.317,1.031
				c0,0,0.106,0.608,0.423,0.608c0.317,0,0.555-0.185,0.635-0.37c0.079-0.185,0.053-0.529,0.502-0.714
				c0.45-0.185,0.714-0.529,1.322-0.317"/>
			<path fill="none" stroke="#000000" stroke-width="0.25" stroke-miterlimit="10" d="M45.892,32.437"/>
			<path fill="none" stroke="#000000" stroke-width="0.25" stroke-miterlimit="10" d="M44.993,31.988c0,0,0.45-1.058,0.608-1.296
				c0.159-0.238,0.634-0.476,1.031-0.608c0.397-0.132,0.767-0.132,1.163,0"/>
			<path fill="none" stroke="#000000" stroke-width="0.25" stroke-miterlimit="10" d="M45.892,32.437c0,0,0.397,0.344,0.82,0.291
				c0.423-0.053,0.82-0.185,0.82-0.185s0.502,0.317,0.952,0.264"/>
			
				<line fill="none" stroke="#000000" stroke-width="0.25" stroke-miterlimit="10" x1="44.103" y1="56.364" x2="45.073" y2="56.981"/>
			<path fill="none" stroke="#000000" stroke-width="0.25" stroke-miterlimit="10" d="M43.169,57.669c0,0,0.264,0.035,0.388,0.159
				c0.123,0.123,0.582,0.493,0.582,0.493"/>
			<path fill="none" stroke="#000000" stroke-width="0.25" stroke-miterlimit="10" d="M41.706,58.162c0,0,0.317-0.053,0.476,0.176
				c0.159,0.229,0.723,0.67,0.723,0.67"/>
		</g>
		<path fill="none" stroke="#000000" stroke-width="0.25" stroke-miterlimit="10" d="M48.324,21.236l0.176-0.529v-0.458
			l-0.255-0.282l-0.194-0.212c0,0-0.167-0.176-0.167-0.229c0-0.053,0.057-0.211,0.057-0.211l-0.086-0.123l-0.184-0.176
			c0,0-0.039-0.229-0.11-0.3c-0.07-0.071-0.143-0.212-0.178-0.264c-0.035-0.053-0.089-0.123-0.089-0.123l-0.212,0.176
			c0,0,0.017,0.159-0.088,0.088c-0.106-0.071-0.176-0.123-0.194-0.071c-0.018,0.053-0.018,0.141-0.071,0.176
			c-0.053,0.035-0.282-0.053-0.282-0.053s-0.159-0.07-0.176-0.018c-0.018,0.053-0.018,0.282-0.018,0.282s-0.053,0.159-0.106,0.159
			c-0.053,0-0.141,0.071-0.141,0.071l-0.07,0.212c0,0-0.141,0-0.212-0.071c-0.07-0.07-0.123-0.194-0.176-0.159
			c-0.053,0.035-0.123,0.247-0.123,0.247l-0.141,0.3c0,0-0.159,0.088-0.194,0.035c-0.035-0.053-0.106,0-0.106,0l-0.123,0.264
			c0,0-0.247-0.123-0.247-0.053c0,0.071-0.035,0.353-0.035,0.353l-0.035,0.159l-0.3-0.229l-0.282,0.247l-0.07,0.176l-0.264-0.194
			l-0.141,0.212l-0.247-0.053l-0.088-0.07c0,0-0.123-0.071-0.176-0.071c-0.053,0-0.159,0.053-0.159,0.053l-0.106,0.088l-0.335-0.264
			L42.2,20.231c0,0-0.018,0.141-0.159-0.123c-0.141-0.264-0.194-0.282-0.264-0.212c-0.07,0.071-0.194,0.229-0.194,0.229
			s-0.035,0.053-0.106,0.035c-0.07-0.018-0.176-0.053-0.176-0.053s-0.123-0.035-0.141,0.018c-0.018,0.053-0.018,0.141-0.035,0.194
			c-0.018,0.053-0.018,0.231-0.018,0.231l-0.211,0.283h-0.159l-0.088-0.2l-0.159-0.051c0,0-0.123-0.026-0.194-0.008
			c-0.07,0.018-0.07-0.004-0.07-0.004l-0.282-0.064c0,0-0.07-0.129-0.159-0.129c-0.088,0-0.282-0.056-0.335-0.02
			c-0.053,0.035-0.088,0.087-0.194,0.016c-0.106-0.07-0.247-0.142-0.247-0.142s-0.053-0.053-0.035-0.124
			c0.018-0.07,0.071-0.317,0.071-0.388c0-0.07-0.018-0.335-0.018-0.335l-0.106-0.511l-0.141-0.212l-0.212,0.123l-0.247-0.088
			l-0.211,0.212l-0.07,0.317c0,0-0.106-0.035-0.159,0c-0.053,0.035-0.141,0.212-0.141,0.212s-0.106,0.035-0.141-0.018
			c-0.035-0.053-0.106,0.088-0.106,0.088l-0.053,0.176l-0.053,0.123c0,0-0.229-0.035-0.264,0.018
			c-0.035,0.053-0.071,0.194-0.071,0.194L37,20.09c0,0-0.194,0.141-0.247,0.194C36.7,20.337,36.7,20.337,36.7,20.337
			s-0.212,0.159-0.264,0.247c-0.053,0.088-0.123,0.194-0.123,0.264c0,0.07-0.053,0.247-0.053,0.317c0,0.071-0.088-0.176-0.141,0.071
			c-0.053,0.247-0.053,0.317-0.053,0.317l-0.317-0.07c0,0-0.176,0.053-0.176,0.106s-0.194,0.053-0.194,0.053l-0.194-0.159
			c0,0-0.123,0.07-0.212,0.158c-0.088,0.088-0.088,0.193-0.088,0.193h-0.229l0.405,0.939c0,0-0.088-0.116-0.282-0.152"/>
		<path fill="none" stroke="#000000" stroke-width="0.25" stroke-miterlimit="10" d="M45.037,29.714c0,0,0.908-0.846,1.965-0.502"/>
	</g>
</g>
</svg>
