<?xml version="1.0" encoding="UTF-8" standalone="no"?>
<svg
   xmlns:dc="http://purl.org/dc/elements/1.1/"
   xmlns:cc="http://creativecommons.org/ns#"
   xmlns:rdf="http://www.w3.org/1999/02/22-rdf-syntax-ns#"
   xmlns:svg="http://www.w3.org/2000/svg"
   xmlns="http://www.w3.org/2000/svg"
   version="1.1"
   id="svg10845"
   height="195.60275"
   width="200.0005">
  <defs
     id="defs4809">
    <pattern
       id="polka"
       patternTransform="rotate(20)"
       height="5"
       width="5"
       patternUnits="userSpaceOnUse">
      <rect
         y="0"
         x="0"
         height="5"
         width="5"
         style="fill:#ffffff"
         id="polka__bg" />
      <circle
         cx="2"
         style="fill:#ff9b0b"
         cy="2"
         r="1.5"
         id="polka__inner" />
    </pattern>
    <clipPath
       id="a-6">
      <path
         id="path282"
         d="m 168.377,590.584 0,-72.25 20.042,-14.417 c 0,-33.137 26.84,-60 59.978,-60 33.137,0 59.98,26.863 59.98,60 l 0,86.667 -140,0 z" />
    </clipPath>
  </defs>
  <metadata
     id="metadata10850">
    <rdf:RDF>
      <cc:Work
         rdf:about="">
        <dc:format>image/svg+xml</dc:format>
        <dc:type
           rdf:resource="http://purl.org/dc/dcmitype/StillImage" />
        <dc:title></dc:title>
      </cc:Work>
    </rdf:RDF>
  </metadata>
  <g
     style="display:inline"
     transform="translate(-282.08096,-278.41122)"
     id="layer1">
    <ellipse
       style="color:#000000;display:inline;overflow:visible;visibility:visible;opacity:1;fill:none;fill-opacity:1;fill-rule:nonzero;stroke:#000000;stroke-width:2;stroke-miterlimit:4;stroke-dasharray:none;stroke-opacity:1;marker:none;enable-background:accumulate"
       id="path6022"
       cx="382.06821"
       cy="398.07648"
       rx="74.9505"
       ry="74.950493" />
    <g
       id="layer1-5"
       transform="translate(0.54361819,-0.17088084)">
      <g
         id="g374"
         clip-path="url(#a-6)"
         transform="matrix(1.25,0,0,-1.25,72.04671,1028.411)">
        <path
           d="m 299.956,519.705 c 0,0 -0.04,1.45 -1.675,1.94 -1.633,0.49 -2.545,-0.154 -3.444,0.418 -0.9,0.572 -3.333,1.02 -3.333,1.02 l 0.916,0.022 -0.667,1 0.237,0.313 0.08,0.38 -0.203,0.19 -0.368,0.178 c 0,0 -0.328,0.11 -0.41,0.232 -0.08,0.122 0.164,-0.028 -0.08,0.136 -0.246,0.163 -0.695,0.456 -0.86,0.62 -0.162,0.163 -0.285,0.084 -0.448,0.574 -0.164,0.49 -0.286,0.738 -0.286,0.738 0,0 -0.327,0.246 -0.368,0.368 -0.04,0.123 -0.245,0.246 -0.245,0.49 0,0.246 0.082,0.328 0,0.45 -0.082,0.123 -0.082,0.205 -0.163,0.327 -0.082,0.124 0.122,-0.12 -0.082,0.124 -0.205,0.245 -0.286,0.163 -0.327,0.408 -0.04,0.246 0,0.164 -0.04,0.41 -0.04,0.244 -0.204,0.326 -0.204,0.448 0,0.123 0.122,-0.163 0,0.123 -0.123,0.286 -0.204,0.245 -0.204,0.49 0,0.245 -0.164,0.613 -0.164,0.613 l -0.286,1.798 -0.082,0.694 c 0,0 -0.122,0.245 -0.163,0.41 -0.04,0.162 -1.145,0.53 -1.145,0.53 l -1.064,2.982 0,3.104 0.418,0.9 0.582,3.267 0,0.98 0.707,0.695 c 0,0 0.25,5.19 0.047,6.864 -0.205,1.676 -0.896,5.924 -1.632,7.885 -0.735,1.96 -3.328,11.848 -13.91,11.848 0,0 -1.826,0.082 -3.624,-0.45 -1.797,-0.53 -2.262,-0.694 -3.61,-1.225 -1.348,-0.53 -7.708,-3.677 -8.852,-16.587 0,0 -0.852,-7.475 -0.852,-10.376 0,-2.9 0.044,-7.394 0.575,-9.437 0.532,-2.043 0.615,-3.105 0.33,-4.208 -0.287,-1.104 -1.553,-3.964 -2.41,-4.617 0,0 -2.084,-0.327 -3.31,-0.776 -1.225,-0.45 -3.268,-1.226 -3.594,-1.226 -0.327,0 -2.043,0.94 -3.31,0.94 -1.266,0 -3.8,-0.163 -5.086,-3.717 -1.287,-3.554 -2.696,-5.393 -3.37,-6.312 -0.674,-0.918 -1.532,-3.308 -1.655,-4.963 -0.122,-1.654 0.307,-3.615 0.062,-4.78 -0.246,-1.164 -0.613,-2.328 -0.613,-2.328 0,0 -1.838,-4.78 -2.267,-5.394 l -0.367,-0.858 c 0,0 -1.9,-0.98 -2.145,-1.9 -0.244,-0.92 0.614,-0.92 0.614,-0.92 0,0 -1.47,-0.734 -1.655,-1.776 -0.185,-1.042 0.918,-1.042 0.918,-1.042 0,0 0.062,-0.613 -0.122,-1.103 -0.184,-0.49 -0.674,-3.677 -0.98,-4.535 -0.307,-0.858 -0.552,-4.106 -0.307,-5.576 0.244,-1.47 0.673,-2.942 0.673,-3.555 0,-0.612 0.43,-1.837 1.96,-1.776 1.533,0.06 3.25,0.307 4.72,-0.368 1.47,-0.674 7.72,-1.532 9.927,-0.796 l -0.43,-2.697 c 0,0 -0.673,-0.49 -1.592,-1.777 -0.92,-1.287 -6.62,-9.682 -8.498,-14.83 0,0 -0.735,-4.33 -0.98,-6.455 -0.245,-2.123 -0.49,-5.39 -0.41,-8.333 0,0 -0.285,-7.668 2.412,-20.537 2.696,-12.87 4.044,-21.296 4.29,-24.296 l 47.308,0 c 0,0 1.593,12.162 2.574,17.677 0.98,5.517 1.716,9.576 1.348,12.517 -0.368,2.942 -0.368,3.93 -0.368,4.91 0,0.98 0.49,2.087 0.246,3.19 -0.246,1.103 -0.368,3.25 -0.368,4.353 0,1.103 -0.368,2.605 -0.49,3.953 -0.123,1.348 -0.613,3.203 -0.613,3.203 0,0 0.98,0.743 0.98,2.336 0,0 -0.246,1.352 -1.104,5.274 -0.858,3.922 -1.225,5.395 -1.225,8.09 0,2.698 -0.245,5.272 -2.573,7.6 l -0.04,2.616 c 0,0 1.143,0.654 2.368,1.47 1.226,0.818 2.942,2.86 4.25,7.682 0,0 1.143,-0.082 1.715,0.654 0.572,0.735 0.082,1.062 0.082,1.062 0,0 1.47,0.572 1.144,1.88 0,0 1.47,0.816 1.062,2.86 0,0 1.062,0.49 1.307,1.306 0.245,0.817 0.572,1.96 0.817,3.024 0.246,1.062 1.063,3.595 1.39,4.33 0.326,0.735 0.408,1.798 0.408,1.798 0,0 1.716,2.94 2.45,4.657 0.736,1.716 1.063,2.206 1.308,4.25 0.246,2.04 0.082,3.92 0.164,5.392 0.082,1.47 0.98,2.778 0.98,3.758 0,0.98 -0.898,2.206 -1.552,2.942 -0.654,0.735 -1.144,1.143 -1.144,1.838"
           id="path386"
           style="fill:#ffffff" />
        <path
           d="m 299.956,519.705 c 0,0 -0.04,1.45 -1.675,1.94 -1.633,0.49 -2.545,-0.154 -3.444,0.418 -0.9,0.572 -3.333,1.02 -3.333,1.02 l 0.916,0.022 -0.667,1 0.237,0.313 0.08,0.38 -0.203,0.19 -0.368,0.178 c 0,0 -0.328,0.11 -0.41,0.232 -0.08,0.122 0.164,-0.028 -0.08,0.136 -0.246,0.163 -0.695,0.456 -0.86,0.62 -0.162,0.163 -0.285,0.084 -0.448,0.574 -0.164,0.49 -0.286,0.738 -0.286,0.738 0,0 -0.327,0.246 -0.368,0.368 -0.04,0.123 -0.245,0.246 -0.245,0.49 0,0.246 0.082,0.328 0,0.45 -0.082,0.123 -0.082,0.205 -0.163,0.327 -0.082,0.124 0.122,-0.12 -0.082,0.124 -0.205,0.245 -0.286,0.163 -0.327,0.408 -0.04,0.246 0,0.164 -0.04,0.41 -0.04,0.244 -0.204,0.326 -0.204,0.448 0,0.123 0.122,-0.163 0,0.123 -0.123,0.286 -0.204,0.245 -0.204,0.49 0,0.245 -0.164,0.613 -0.164,0.613 l -0.286,1.798 -0.082,0.694 c 0,0 -0.122,0.245 -0.163,0.41 -0.04,0.162 -1.145,0.53 -1.145,0.53 l -1.064,2.982 0,3.104 0.418,0.9 0.582,3.267 0,0.98 0.707,0.695 c 0,0 0.25,5.19 0.047,6.864 -0.205,1.676 -0.896,5.924 -1.632,7.885 -0.735,1.96 -3.328,11.848 -13.91,11.848 0,0 -1.826,0.082 -3.624,-0.45 -1.797,-0.53 -2.262,-0.694 -3.61,-1.225 -1.348,-0.53 -7.708,-3.677 -8.852,-16.587 0,0 -0.852,-7.475 -0.852,-10.376 0,-2.9 0.044,-7.394 0.575,-9.437 0.532,-2.043 0.615,-3.105 0.33,-4.208 -0.287,-1.104 -1.553,-3.964 -2.41,-4.617 0,0 -2.084,-0.327 -3.31,-0.776 -1.225,-0.45 -3.268,-1.226 -3.594,-1.226 -0.327,0 -2.043,0.94 -3.31,0.94 -1.266,0 -3.8,-0.163 -5.086,-3.717 -1.287,-3.554 -2.696,-5.393 -3.37,-6.312 -0.674,-0.918 -1.532,-3.308 -1.655,-4.963 -0.122,-1.654 0.307,-3.615 0.062,-4.78 -0.246,-1.164 -0.613,-2.328 -0.613,-2.328 0,0 -1.838,-4.78 -2.267,-5.394 l -0.367,-0.858 c 0,0 -1.9,-0.98 -2.145,-1.9 -0.244,-0.92 0.614,-0.92 0.614,-0.92 0,0 -1.47,-0.734 -1.655,-1.776 -0.185,-1.042 0.918,-1.042 0.918,-1.042 0,0 0.062,-0.613 -0.122,-1.103 -0.184,-0.49 -0.674,-3.677 -0.98,-4.535 -0.307,-0.858 -0.552,-4.106 -0.307,-5.576 0.244,-1.47 0.673,-2.942 0.673,-3.555 0,-0.612 0.43,-1.837 1.96,-1.776 1.533,0.06 3.25,0.307 4.72,-0.368 1.47,-0.674 7.72,-1.532 9.927,-0.796 l -0.43,-2.697 c 0,0 -0.673,-0.49 -1.592,-1.777 -0.92,-1.287 -6.62,-9.682 -8.498,-14.83 0,0 -0.735,-4.33 -0.98,-6.455 -0.245,-2.123 -0.49,-5.39 -0.41,-8.333 0,0 -0.285,-7.668 2.412,-20.537 2.696,-12.87 4.044,-21.296 4.29,-24.296 l 47.308,0 c 0,0 1.593,12.162 2.574,17.677 0.98,5.517 1.716,9.576 1.348,12.517 -0.368,2.942 -0.368,3.93 -0.368,4.91 0,0.98 0.49,2.087 0.246,3.19 -0.246,1.103 -0.368,3.25 -0.368,4.353 0,1.103 -0.368,2.605 -0.49,3.953 -0.123,1.348 -0.613,3.203 -0.613,3.203 0,0 0.98,0.743 0.98,2.336 0,0 -0.246,1.352 -1.104,5.274 -0.858,3.922 -1.225,5.395 -1.225,8.09 0,2.698 -0.245,5.272 -2.573,7.6 l -0.04,2.616 c 0,0 1.143,0.654 2.368,1.47 1.226,0.818 2.942,2.86 4.25,7.682 0,0 1.143,-0.082 1.715,0.654 0.572,0.735 0.082,1.062 0.082,1.062 0,0 1.47,0.572 1.144,1.88 0,0 1.47,0.816 1.062,2.86 0,0 1.062,0.49 1.307,1.306 0.245,0.817 0.572,1.96 0.817,3.024 0.246,1.062 1.063,3.595 1.39,4.33 0.326,0.735 0.408,1.798 0.408,1.798 0,0 1.716,2.94 2.45,4.657 0.736,1.716 1.063,2.206 1.308,4.25 0.246,2.04 0.082,3.92 0.164,5.392 0.082,1.47 0.98,2.778 0.98,3.758 0,0.98 -0.898,2.206 -1.552,2.942 -0.654,0.735 -1.144,1.143 -1.144,1.838 z"
           id="path390"
           style="fill:none;stroke:#231f20;stroke-width:1.5" />
        <path
           d="m 287.169,444.901 c -0.613,-0.614 -4.78,-1.715 -6.863,-1.96 -2.084,-0.245 -2.574,-0.245 -4.535,-0.49 -1.96,-0.245 -3.064,0.122 -6.496,0.858 -3.432,0.735 -4.167,-0.245 -7.967,-0.858 -3.8,-0.613 -4.416,1.042 -4.416,1.042 -0.947,-0.013 -2.17,0.042 -3.674,0.43 -4.289,1.101 -6.739,1.468 -8.823,1.958 -2.084,0.49 -2.084,-0.49 -4.045,1.47 -1.96,1.96 -3.553,3.187 -4.778,3.8 -1.226,0.613 -3.677,2.206 -3.677,2.206 l 0.326,1.348 c 1.88,5.148 7.58,13.543 8.5,14.83 0.918,1.287 1.592,1.777 1.592,1.777 0,0 2.942,-1.042 4.78,-1.41 1.84,-0.367 4.78,-0.98 6.374,-1.225 1.593,-0.245 2.818,-1.103 5.024,-1.103 2.207,0 3.065,0 5.148,-0.123 2.084,-0.122 16.178,-0.245 19.61,0.736 2.33,-2.33 2.574,-4.903 2.574,-7.6 0,-2.696 0.368,-4.167 1.226,-8.09 0.855,-3.916 1.1,-5.266 1.1,-5.266 0,-1.596 -0.98,-2.332 -0.98,-2.332"
           id="path394"
           style="fill:url(#polka)" />
        <path
           d="m 229.136,497.358 0.368,0.858 c 0.43,0.613 2.267,5.393 2.267,5.393 0,0 0.368,1.165 0.613,2.33 0.245,1.164 -0.184,3.125 -0.06,4.78 0.12,1.654 0.98,4.044 1.653,4.963 0.675,0.92 2.085,2.758 3.372,6.312 1.287,3.554 3.82,3.718 5.086,3.718 1.266,0 2.982,-0.94 3.31,-0.94 0.326,0 2.37,0.776 3.594,1.226 1.226,0.448 3.31,0.775 3.31,0.775 l 3.186,1.552 c 0,0 1.307,1.144 2.533,2.206 1.227,1.063 3.887,4.382 3.887,4.382 l -0.052,-0.046 c 0,0 -0.2,-2.385 -0.248,-4.124 -0.05,-1.738 0,-4.073 0,-4.073 0,0 3.13,-2.83 4.37,-6.31 l 2.386,4.075 c 0,0 0.248,0.447 1.64,0.596 1.39,0.15 3.178,0.944 3.774,1.69 0.596,0.744 1.088,2.582 2.28,3.923 1.192,1.34 2.975,3.576 2.975,3.576 l 0,1.242 c 0,0 0.6,-0.943 0.95,-1.49 0.347,-0.546 0.834,-0.35 1.095,-1.242 0.26,-0.892 0.594,-2.226 1.02,-2.83 0.425,-0.606 1.005,-0.35 1.453,-1.293 0.448,-0.944 0.923,-2.204 1.298,-2.632 0.375,-0.43 0.3,-1.193 0.897,-1.292 0.597,-0.1 1.095,-0.546 1.69,-0.646 0.597,-0.1 0.3,-0.1 1.393,-0.1 l 2.284,-0.854 c 0,0 2.268,-0.35 3.167,-0.923 0.897,-0.572 2.02,-0.025 3.655,-0.515 1.634,-0.49 1.675,-1.94 1.675,-1.94 0,-0.695 0.49,-1.104 1.144,-1.84 0.654,-0.735 1.553,-1.96 1.553,-2.94 0,-0.98 -0.9,-2.29 -0.98,-3.76 -0.082,-1.47 0.08,-3.35 -0.164,-5.392 -0.245,-2.043 -0.572,-2.533 -1.307,-4.25 -0.737,-1.713 -2.453,-4.655 -2.453,-4.655 0,0 -0.082,-1.062 -0.408,-1.798 -0.327,-0.735 -1.144,-3.268 -1.39,-4.33 -0.245,-1.062 -0.57,-2.206 -0.816,-3.023 0,0 -1.39,2.613 -1.96,3.35 -0.573,0.734 -0.9,1.224 -2.207,1.55 -1.308,0.328 -4.576,0.98 -5.638,0.98 -1.063,0 -2.37,0 -4.25,-0.49 -1.878,-0.49 -4.33,-2.123 -7.026,-2.205 -2.698,-0.082 -7.19,-0.097 -8.5,-0.506 -1.306,-0.41 -13.644,-1.814 -15.932,-1.814 l -6.373,0 c 0,1 -0.163,6.552 -0.163,6.552 -0.327,-1.225 -1.226,-3.097 -1.226,-3.097 l -0.225,0.393 c -0.305,0.674 -0.918,2.985 -1.163,3.78 -0.245,0.798 -0.735,2.566 -1.655,2.75 -0.92,0.183 -3.615,0.914 -3.615,0.914 0,0 -0.858,0.12 -1.593,-0.125 -0.736,-0.244 -2.574,-0.613 -2.574,-1.409 0,0 0.183,-0.37 0.49,-0.49 l -2.39,-0.492 z"
           id="path398"
           style="fill:url(#polka)" />
        <path
           d="m 262.3,540.93 c 0,0 2.93,-5.66 9.385,-5.66 0,0 3.432,0.082 6.13,2.697"
           id="path402"
           style="fill:none;stroke:#231f20;stroke-width:0.5" />
        <path
           d="m 262.253,534.913 c 0,0 -2.66,-3.32 -3.886,-4.382 -1.226,-1.06 -2.533,-2.205 -2.533,-2.205 l -3.187,-1.552"
           id="path406"
           style="fill:none;stroke:#231f20;stroke-width:0.5" />
        <path
           d="m 255.834,528.325 c 0,0 -3.187,-2.86 -3.677,-5.883 0,0 4.412,5.638 6.945,6.373 l -0.49,-2.45 1.716,-1.798 c 0,0 0.49,-0.98 0.654,-1.226 0.163,-0.244 1.716,-0.408 1.716,-0.408 l 1.715,-0.735 c 0,0 1.308,-0.082 0.327,-4.33 -0.98,-4.25 -2.288,-7.19 -3.023,-12.502 -0.735,-5.31 -0.817,-15.933 -0.817,-15.933"
           id="path410"
           style="fill:none;stroke:#231f20;stroke-width:0.5" />
        <path
           d="m 264.495,490.086 c 0,0 -0.082,11.357 1.062,14.626 1.144,3.268 3.514,10.295 1.062,15.606"
           id="path414"
           style="fill:none;stroke:#231f20;stroke-width:0.5" />
        <path
           d="m 266.7,519.99 2.86,4.25 c 0,0 0.654,-0.735 2.37,0.245 1.716,0.98 3.514,2.45 3.514,2.45 l 2.124,-0.898 c 0,0 0.9,-0.653 0.9,-0.898 0,-0.246 2.94,-5.64 2.94,-5.64 0,0 0.49,1.145 1.063,2.125 0.573,0.98 0.41,1.308 0.818,2.206 0.408,0.9 1.39,3.025 1.39,3.025"
           id="path418"
           style="fill:none;stroke:#231f20;stroke-width:0.5" />
        <path
           d="m 295.135,487.716 c 0,0 -1.39,2.615 -1.96,3.35 -0.573,0.736 -0.9,1.227 -2.207,1.553 -1.307,0.326 -4.576,0.98 -5.638,0.98 -1.062,0 -2.37,0 -4.25,-0.49 -1.878,-0.49 -4.33,-2.125 -7.026,-2.206 -2.696,-0.082 -7.19,-0.246 -8.497,-0.654 -1.308,-0.41 -13.645,-1.88 -15.933,-1.96 -2.288,-0.084 -7.272,-0.084 -7.272,-0.084 0,0 -0.102,0.695 -0.164,1.43 -0.06,0.735 -0.245,2.084 -0.55,2.758 -0.308,0.674 -0.92,3.002 -1.166,3.8 -0.245,0.796 -0.735,2.573 -1.654,2.757 -0.92,0.185 -3.616,0.92 -3.616,0.92 0,0 -0.858,0.123 -1.593,-0.123 -0.736,-0.245 -2.575,-0.612 -2.575,-1.41 0,0 0.184,-0.367 0.49,-0.49"
           id="path422"
           style="fill:none;stroke:#231f20;stroke-width:0.5" />
        <path
           d="m 229.136,497.358 c 0,0 3.37,0.797 4.78,0.552 1.41,-0.246 2.33,-0.797 3.003,-1.716 0.673,-0.92 1.96,-1.96 2.45,-2.39 0.49,-0.43 1.41,-1.165 1.532,-1.777"
           id="path426"
           style="fill:none;stroke:#231f20;stroke-width:0.5" />
        <path
           d="m 227.604,494.54 c 0,0 3.554,1.225 4.167,1.408 0.614,0.184 1.288,0.123 1.84,-0.367 0.55,-0.49 3.554,-2.573 4.044,-2.94"
           id="path430"
           style="fill:none;stroke:#231f20;stroke-width:0.5" />
        <path
           d="m 226.868,491.72 c 0,0 1.716,0.858 3.003,1.164 1.288,0.307 2.146,0.736 2.942,0.43 0.797,-0.307 2.39,-1.165 3.064,-1.778"
           id="path434"
           style="fill:none;stroke:#231f20;stroke-width:0.5" />
        <path
           d="m 227.052,491.78 c 0,0 -0.735,-1.776 1.226,-1.47 1.96,0.307 2.88,0.43 3.493,0.43 0.613,0 1.042,-0.49 1.47,-0.613 0.43,-0.123 0.86,-1.47 0.86,-1.47"
           id="path438"
           style="fill:none;stroke:#231f20;stroke-width:0.5" />
        <path
           d="m 232.016,488.288 c 0,0 1.777,0.43 3.064,0.245 1.287,-0.184 7.272,-0.327 7.272,-0.327"
           id="path442"
           style="fill:none;stroke:#231f20;stroke-width:0.5" />
        <path
           d="m 242.74,474.01 c 0,0 3.86,0.797 6.618,1.96 2.758,1.165 7.783,3.31 11.337,4.045 3.555,0.736 6.986,1.9 7.967,2.023 0.98,0.122 1.042,-0.062 2.206,-0.123 1.164,-0.06 4.964,-0.43 7.354,-0.43 2.39,0 5.147,0.37 6.312,0.185 1.164,-0.184 4.514,-1.042 5.29,-1.716"
           id="path446"
           style="fill:none;stroke:#231f20;stroke-width:0.5" />
        <path
           d="m 291.622,481.67 c 0,0 -0.837,0.674 -1.573,1.226 -0.736,0.55 -2.207,1.225 -4.78,1.715"
           id="path450"
           style="fill:none;stroke:#231f20;stroke-width:0.5" />
        <path
           d="m 286.862,487.308 3.125,-0.368 c 0,0 1.655,-0.122 2.084,-1.287 0.43,-1.164 0.695,-2.104 0.695,-2.104"
           id="path454"
           style="fill:none;stroke:#231f20;stroke-width:0.5" />
        <path
           d="m 287.475,490.433 c 0,0 1.9,-0.368 3.187,-0.735 1.287,-0.368 1.532,-0.368 2.083,-1.042 0.552,-0.674 1.083,-2.247 1.083,-2.247"
           id="path458"
           style="fill:none;stroke:#231f20;stroke-width:0.5" />
        <path
           d="m 244.762,474.44 c 0,0 4.167,-1.717 12.746,-3.31 8.58,-1.593 12.502,-0.98 16.546,-0.735 4.045,0.245 9.152,0.408 9.152,0.408"
           id="path462"
           style="fill:none;stroke:#231f20;stroke-width:0.5" />
        <path
           d="m 241.862,491.965 c 0,0 0.9,1.798 1.226,3.023 0,0 0.163,-5.31 0.163,-6.7"
           id="path466"
           style="fill:none;stroke:#231f20;stroke-width:0.5" />
        <path
           d="m 281.654,493.354 c 0,0 -0.082,2.696 0.572,3.677 0.654,0.98 0.327,0.818 0.735,2.044 0.41,1.225 1.064,2.287 1.064,2.287 0,0 -2.288,3.678 -2.288,6.783"
           id="path470"
           style="fill:none;stroke:#231f20;stroke-width:0.5" />
        <path
           d="m 284.023,501.362 c 0,0 1.716,2.206 3.922,2.124 2.206,-0.08 5.638,-0.817 6.537,-1.307 0.898,-0.49 1.39,-0.98 1.88,-1.962 0.49,-0.98 1.47,-2.288 1.388,-3.35"
           id="path474"
           style="fill:none;stroke:#231f20;stroke-width:0.5" />
        <path
           d="m 243.087,494.988 c 0,0 -0.082,4.167 0.572,6.29 0.653,2.126 0.244,3.188 0.898,5.394 0.653,2.206 0.49,2.533 1.144,4.412 0.653,1.88 1.552,4.004 1.552,5.638"
           id="path478"
           style="fill:none;stroke:#231f20;stroke-width:0.5" />
        <path
           d="m 243.986,502.424 c 0,0 -5.638,6.7 -11.603,3.513"
           id="path482"
           style="fill:none;stroke:#231f20;stroke-width:0.5" />
        <path
           d="m 242.31,471.314 c 0,0 2.942,-1.042 4.78,-1.41 1.84,-0.367 4.78,-0.98 6.374,-1.225 1.593,-0.246 2.82,-1.104 5.025,-1.104 2.205,0 3.063,0 5.147,-0.123 2.083,-0.122 16.178,-0.245 19.61,0.736"
           id="path486"
           style="fill:none;stroke:#231f20;stroke-width:0.5" />
        <path
           d="m 262.901,467.575 c 0.002,0 -3.675,-13.36 -3.43,-23.655 0,0 -1.962,-1.103 -6.25,0 -4.29,1.104 -6.742,1.47 -8.826,1.96 -2.083,0.492 -2.083,-0.49 -4.044,1.472 -1.96,1.96 -3.555,3.187 -4.78,3.8 -1.226,0.612 -3.677,2.206 -3.677,2.206"
           id="path490"
           style="fill:none;stroke:#231f20;stroke-width:0.5" />
        <path
           d="m 258.49,467.575 c 0,0 -3.8,-18.262 -3.188,-23.655"
           id="path494"
           style="fill:none;stroke:#231f20;stroke-width:0.5" />
        <path
           d="m 256.896,443.553 c 0,0 0.613,-1.716 4.412,-1.103 3.8,0.613 4.535,1.593 7.967,0.858 3.43,-0.735 4.535,-1.103 6.496,-0.858 1.962,0.245 2.452,0.245 4.535,0.49 2.084,0.245 6.25,1.346 6.864,1.96"
           id="path498"
           style="fill:none;stroke:#231f20;stroke-width:0.5" />
        <path
           d="m 282.866,554.24 c 0,0 -0.745,0.668 -2.335,1.44 -1.59,0.774 -5.71,2.287 -6.705,4.572 0,0 1.292,-3.18 2.633,-3.627 0,0 -2.93,-1.192 -6.16,3.28 0,0 0.05,-3.13 0.447,-3.975 0,0 -2.98,5.613 -3.13,6.557 0,0 0.647,-4.868 1.342,-5.812 0,0 -1.987,3.03 -2.186,3.726 l 0.846,-3.874 c 0,0 -2.583,6.16 -2.534,7.7 0,0 -0.1,-5.564 0.15,-6.905 l -1.54,6.508 c 0,0 -0.1,-4.62 0.496,-6.507 0,0 -2.036,4.074 -2.086,5.217 0,0 -0.696,-5.614 0.05,-7.402 l -1.74,4.77 -0.446,-6.11 -0.298,-0.1 -0.398,0.695 c 0,0 -0.345,-0.35 -0.695,-0.348 -0.35,0.002 -1.39,0.398 -1.39,1.938 l -0.845,0.248 -0.547,-0.298 -0.348,-0.447 0.15,-1.143 0.397,-0.596 c 0,0 -0.845,-5.86 3.924,-6.457 0,0 0.845,-4.918 2.434,-6.36 l -0.15,-6.06 c 0,0 -0.197,-2.384 -0.247,-4.122 -0.05,-1.74 0,-4.074 0,-4.074 0,0 3.13,-2.83 4.37,-6.307 l 2.386,4.073 c 0,0 0.247,0.447 1.638,0.596 1.39,0.15 3.18,0.944 3.775,1.69 0.596,0.744 1.338,2.582 2.53,3.923 1.192,1.342 3.225,3.577 3.225,3.577 l 0,5.96 c 0,0 1.842,2.932 2.24,7.204 0,0 2.907,0.074 3.155,3.5 0.25,3.43 -0.122,4.2 -0.122,4.2 l -0.694,0 -0.646,-0.175 -0.944,-0.67 z"
           id="path502"
           style="fill:none;stroke:#231f20;stroke-width:0.5;stroke-linecap:round" />
        <path
           d="m 279.587,535.463 c 0,0 0.497,-0.944 0.844,-1.49 0.35,-0.547 0.784,-0.35 1.045,-1.242 0.26,-0.892 0.568,-2.226 0.993,-2.83 0.425,-0.606 0.993,-0.348 1.44,-1.292 0.45,-0.944 0.917,-2.205 1.292,-2.633 0.375,-0.428 0.298,-1.192 0.894,-1.292 0.597,-0.1 1.093,-0.546 1.69,-0.645 0.596,-0.1 0.297,-0.1 1.39,-0.1 l 2.64,-0.917"
           id="path506"
           style="fill:none;stroke:#231f20;stroke-width:0.5;stroke-linecap:round" />
        <path
           d="m 259.47,547.486 c 0,-0.406 -0.33,-0.735 -0.735,-0.735 -0.407,0 -0.736,0.33 -0.736,0.736 0,0.406 0.328,0.735 0.735,0.735 0.406,0 0.735,-0.328 0.735,-0.734"
           id="path510"
           style="fill:#ffffff" />
        <path
           d="m 259.47,547.486 c 0,-0.406 -0.33,-0.735 -0.735,-0.735 -0.407,0 -0.736,0.33 -0.736,0.736 0,0.406 0.328,0.735 0.735,0.735 0.406,0 0.735,-0.328 0.735,-0.734 z"
           id="path514"
           style="fill:none;stroke:#231f20;stroke-width:0.5" />
        <path
           d="m 284.472,547.976 c 0,-0.406 -0.33,-0.735 -0.735,-0.735 -0.407,0 -0.736,0.33 -0.736,0.736 0,0.406 0.33,0.735 0.737,0.735 0.406,0 0.735,-0.328 0.735,-0.734"
           id="path518"
           style="fill:#ffffff" />
        <path
           d="m 284.472,547.976 c 0,-0.406 -0.33,-0.735 -0.735,-0.735 -0.407,0 -0.736,0.33 -0.736,0.736 0,0.406 0.33,0.735 0.737,0.735 0.406,0 0.735,-0.328 0.735,-0.734 z"
           id="path522"
           style="fill:none;stroke:#231f20;stroke-width:0.5" />
        <path
           d="m 236.198,555.56 c 1.903,1.875 3.085,4.48 3.085,7.36 0,5.11 -3.71,9.34 -8.58,10.174 -1.02,2.73 -3.644,4.674 -6.73,4.674 -2.023,0 -3.85,-0.84 -5.156,-2.186 -1.255,2.105 -3.547,3.52 -6.176,3.52 -1.408,0 -2.718,-0.41 -3.827,-1.11 -1.88,1.956 -4.518,3.18 -7.447,3.18 -5.707,-0.002 -10.333,-4.628 -10.333,-10.335 -3.91,0 -7.084,-3.122 -7.183,-7.008 -4.823,-0.874 -8.484,-5.085 -8.484,-10.16 0,-4.75 3.208,-8.74 7.573,-9.95 -0.152,-0.58 -0.24,-1.184 -0.24,-1.81 0,-3.972 3.22,-7.192 7.19,-7.192 0.286,0 0.565,0.02 0.84,0.053 0.325,-3.672 3.405,-6.553 7.16,-6.553 2.494,0 4.69,1.27 5.98,3.196 1.888,-2.04 4.58,-3.326 7.58,-3.326 3.768,0 7.056,2.024 8.86,5.037 0.957,-0.47 2.028,-0.74 3.164,-0.74 3.972,0 7.192,3.22 7.192,7.19 0,0.53 -0.06,1.042 -0.168,1.537 0.552,-0.123 1.124,-0.193 1.713,-0.193 4.347,0 7.87,3.523 7.87,7.868 0,2.89 -1.562,5.408 -3.882,6.776"
           id="path526"
           style="fill:#ffffff" />
        <path
           d="m 236.198,555.56 c 1.903,1.875 3.085,4.48 3.085,7.36 0,5.11 -3.71,9.34 -8.58,10.174 -1.02,2.73 -3.644,4.674 -6.73,4.674 -2.023,0 -3.85,-0.84 -5.156,-2.186 -1.255,2.105 -3.547,3.52 -6.176,3.52 -1.408,0 -2.718,-0.41 -3.827,-1.11 -1.88,1.956 -4.518,3.18 -7.447,3.18 -5.707,-0.002 -10.333,-4.628 -10.333,-10.335 -3.91,0 -7.084,-3.122 -7.183,-7.008 -4.823,-0.874 -8.484,-5.085 -8.484,-10.16 0,-4.75 3.208,-8.74 7.573,-9.95 -0.152,-0.58 -0.24,-1.184 -0.24,-1.81 0,-3.972 3.22,-7.192 7.19,-7.192 0.286,0 0.565,0.02 0.84,0.053 0.325,-3.672 3.405,-6.553 7.16,-6.553 2.494,0 4.69,1.27 5.98,3.196 1.888,-2.04 4.58,-3.326 7.58,-3.326 3.768,0 7.056,2.024 8.86,5.037 0.957,-0.47 2.028,-0.74 3.164,-0.74 3.972,0 7.192,3.22 7.192,7.19 0,0.53 -0.06,1.042 -0.168,1.537 0.552,-0.123 1.124,-0.193 1.713,-0.193 4.347,0 7.87,3.523 7.87,7.868 0,2.89 -1.562,5.408 -3.882,6.776 z"
           id="path530"
           style="fill:none;stroke:#231f20;stroke-width:1.5" />
        <path
           d="m 247.375,557.552 c 0,-1.425 -1.422,-2.58 -3.176,-2.58 -1.756,0 -3.178,1.155 -3.178,2.58 0,1.425 1.422,2.58 3.177,2.58 1.753,0 3.175,-1.155 3.175,-2.58"
           id="path534"
           style="fill:#ffffff" />
        <path
           d="m 247.375,557.552 c 0,-1.425 -1.422,-2.58 -3.176,-2.58 -1.756,0 -3.178,1.155 -3.178,2.58 0,1.425 1.422,2.58 3.177,2.58 1.753,0 3.175,-1.155 3.175,-2.58 z"
           id="path538"
           style="fill:none;stroke:#231f20;stroke-width:1.5;stroke-linecap:round;stroke-linejoin:round" />
        <path
           d="m 252.244,552.367 c 0,-0.838 -0.836,-1.516 -1.866,-1.516 -1.03,0 -1.867,0.68 -1.867,1.517 0,0.837 0.837,1.516 1.868,1.516 1.03,0 1.866,-0.68 1.866,-1.516"
           id="path542"
           style="fill:#ffffff" />
        <path
           d="m 252.244,552.367 c 0,-0.838 -0.836,-1.516 -1.866,-1.516 -1.03,0 -1.867,0.68 -1.867,1.517 0,0.837 0.837,1.516 1.868,1.516 1.03,0 1.866,-0.68 1.866,-1.516 z"
           id="path546"
           style="fill:none;stroke:#231f20;stroke-width:1.5;stroke-linecap:round;stroke-linejoin:round" />
        <path
           d="m 307.5927,504.13092 c 0,-33.137 -26.863,-60 -60,-60 -33.137,0 -60,26.863 -60,60"
           id="path550"
           style="fill:none;stroke:#231f20;stroke-width:1.5" />
        <path
           d="m 299.956,519.705 c 0,0 -0.04,1.45 -1.675,1.94 -1.633,0.49 -2.545,-0.154 -3.444,0.418 -0.9,0.572 -3.333,1.02 -3.333,1.02 l 0.916,0.022 -0.667,1 0.237,0.313 0.08,0.38 -0.203,0.19 -0.368,0.178 c 0,0 -0.328,0.11 -0.41,0.232 -0.08,0.122 0.164,-0.028 -0.08,0.136 -0.246,0.163 -0.695,0.456 -0.86,0.62 -0.162,0.163 -0.285,0.084 -0.448,0.574 -0.164,0.49 -0.286,0.738 -0.286,0.738 0,0 -0.327,0.246 -0.368,0.368 -0.04,0.123 -0.245,0.246 -0.245,0.49 0,0.246 0.082,0.328 0,0.45 -0.082,0.123 -0.082,0.205 -0.163,0.327 -0.082,0.124 0.122,-0.12 -0.082,0.124 -0.205,0.245 -0.286,0.163 -0.327,0.408 -0.04,0.246 0,0.164 -0.04,0.41 -0.04,0.244 -0.204,0.326 -0.204,0.448 0,0.123 0.122,-0.163 0,0.123 -0.123,0.286 -0.204,0.245 -0.204,0.49 0,0.245 -0.164,0.613 -0.164,0.613 l -0.286,1.798 -0.082,0.694 c 0,0 -0.122,0.245 -0.163,0.41 -0.04,0.162 -1.145,0.53 -1.145,0.53 l -1.064,2.982 0,3.104 0.418,0.9 0.582,3.267 0,0.98 0.707,0.695 c 0,0 0.25,5.19 0.047,6.864 -0.205,1.676 -0.896,5.924 -1.632,7.885 -0.735,1.96 -3.328,11.848 -13.91,11.848 0,0 -1.826,0.082 -3.624,-0.45 -1.797,-0.53 -2.262,-0.694 -3.61,-1.225 -1.348,-0.53 -7.708,-3.677 -8.852,-16.587 0,0 -0.852,-7.475 -0.852,-10.376 0,-2.9 0.044,-7.394 0.575,-9.437 0.532,-2.043 0.615,-3.105 0.33,-4.208 -0.287,-1.104 -1.553,-3.964 -2.41,-4.617 0,0 -2.084,-0.327 -3.31,-0.776 -1.225,-0.45 -3.268,-1.226 -3.594,-1.226 -0.327,0 -2.043,0.94 -3.31,0.94 -1.266,0 -3.8,-0.163 -5.086,-3.717 -1.287,-3.554 -2.696,-5.393 -3.37,-6.312 -0.674,-0.918 -1.532,-3.308 -1.655,-4.963 -0.122,-1.654 0.307,-3.615 0.062,-4.78 -0.246,-1.164 -0.613,-2.328 -0.613,-2.328 0,0 -1.838,-4.78 -2.267,-5.394 l -0.367,-0.858 c 0,0 -1.9,-0.98 -2.145,-1.9 -0.244,-0.92 0.614,-0.92 0.614,-0.92 0,0 -1.47,-0.734 -1.655,-1.776 -0.185,-1.042 0.918,-1.042 0.918,-1.042 0,0 0.062,-0.613 -0.122,-1.103 -0.184,-0.49 -0.674,-3.677 -0.98,-4.535 -0.307,-0.858 -0.552,-4.106 -0.307,-5.576 0.244,-1.47 0.673,-2.942 0.673,-3.555 0,-0.612 0.43,-1.837 1.96,-1.776 1.533,0.06 3.25,0.307 4.72,-0.368 1.47,-0.674 7.72,-1.532 9.927,-0.796 l -0.43,-2.697 c 0,0 -0.673,-0.49 -1.592,-1.777 -0.92,-1.287 -6.62,-9.682 -8.498,-14.83 0,0 -0.735,-4.33 -0.98,-6.455 -0.245,-2.123 -0.49,-5.39 -0.41,-8.333 0,0 -0.285,-7.668 2.412,-20.537 2.696,-12.87 4.044,-21.296 4.29,-24.296 l 47.308,0 c 0,0 1.593,12.162 2.574,17.677 0.98,5.517 1.716,9.576 1.348,12.517 -0.368,2.942 -0.368,3.93 -0.368,4.91 0,0.98 0.49,2.087 0.246,3.19 -0.246,1.103 -0.368,3.25 -0.368,4.353 0,1.103 -0.368,2.605 -0.49,3.953 -0.123,1.348 -0.613,3.203 -0.613,3.203 0,0 0.98,0.743 0.98,2.336 0,0 -0.246,1.352 -1.104,5.274 -0.858,3.922 -1.225,5.395 -1.225,8.09 0,2.698 -0.245,5.272 -2.573,7.6 l -0.04,2.616 c 0,0 1.143,0.654 2.368,1.47 1.226,0.818 2.942,2.86 4.25,7.682 0,0 1.143,-0.082 1.715,0.654 0.572,0.735 0.082,1.062 0.082,1.062 0,0 1.47,0.572 1.144,1.88 0,0 1.47,0.816 1.062,2.86 0,0 1.062,0.49 1.307,1.306 0.245,0.817 0.572,1.96 0.817,3.024 0.246,1.062 1.063,3.595 1.39,4.33 0.326,0.735 0.408,1.798 0.408,1.798 0,0 1.716,2.94 2.45,4.657 0.736,1.716 1.063,2.206 1.308,4.25 0.246,2.04 0.082,3.92 0.164,5.392 0.082,1.47 0.98,2.778 0.98,3.758 0,0.98 -0.898,2.206 -1.552,2.942 -0.654,0.735 -1.144,1.143 -1.144,1.838 z"
           id="path554"
           style="fill:none;stroke:#231f20;stroke-width:1.5" />
      </g>
      <path
         style="fill:#ffffff"
         id="path562"
         d="m 325.14871,363.69997 c -0.24,0 -0.52,-0.01 -0.86,-0.027 l -0.283,-0.017 c -1.63,-0.09 -1.66,-0.094 -2.144,-0.236 -0.104,-0.03 -0.235,-0.07 -0.428,-0.12 -1.065,-0.278 -2.75,-1.015 -3.466,-1.628 -0.126,-0.108 -0.24,-0.197 -0.34,-0.276 -0.416,-0.327 -0.775,-0.61 -0.922,-1.355 -0.223,-1.104 -0.447,-2.48 -0.21,-3.33 0.062,-0.227 0.098,-0.4 0.127,-0.54 0.076,-0.365 0.14,-0.68 0.518,-1.056 0.128,-0.13 0.258,-0.218 0.378,-0.28 -0.02,-0.096 -0.033,-0.206 -0.033,-0.335 0,-0.075 0,-0.084 -0.144,-0.244 -0.074,-0.084 -0.15,-0.17 -0.224,-0.275 -0.237,-0.33 -0.724,-1.657 -0.33,-2.28 -0.404,-0.58 -0.87,-1.4 -0.834,-2.086 -0.346,-0.29 -0.897,-0.745 -1.126,-0.916 -0.512,-0.384 -1.092,-1.464 -0.85,-2.493 0.07,-0.31 0.184,-0.61 0.3,-0.92 0.165,-0.44 0.32,-0.854 0.344,-1.304 0.026,-0.507 0.116,-0.972 0.2,-1.305 -0.53,-0.336 -1.36,-0.964 -1.658,-1.746 -0.315,-0.83 -0.098,-3.156 0.06,-4.463 l -0.81,-0.073 -1.255,-0.326 0.027,-0.506 c 0.007,-0.16 0.063,-0.993 0.328,-1.523 0.088,-0.18 0.447,-1.29 0.763,-2.27 0.436,-1.348 0.93,-2.877 1.243,-3.672 l 0.3,-0.765 c 0.873,-2.247 1.695,-4.316 2.15,-4.962 l 0.204,-0.293 c 0.56,-0.81 1.323,-1.92 2.394,-2.605 0.708,-0.453 1.36,-0.98 1.792,-1.333 0.25,-0.202 0.43,-0.344 0.515,-0.396 0.056,-0.033 0.15,-0.137 0.2,-0.21 0.073,-0.09 0.52,-0.58 1.16,-0.976 0.43,-0.264 1.224,-0.96 1.493,-1.207 0.295,-0.198 0.537,-0.384 0.595,-0.457 0.29,-0.362 0.956,-0.722 1.395,-0.832 0.117,-0.03 0.257,-0.043 0.44,-0.043 0.31,0 0.733,0.045 1.053,0.08 l 0.193,0.02 c -0.14,-0.29 -0.293,-0.74 -0.41,-1.15 -0.098,0.016 -0.2,0.027 -0.304,0.027 -0.24,0 -0.46,-0.056 -0.65,-0.166 -0.482,-0.28 -1.022,-0.617 -1.32,-1.09 l -0.307,-0.486 c -0.255,-0.4 -0.565,-0.884 -0.714,-1.138 -0.054,-0.092 -0.154,-0.238 -0.272,-0.41 -0.543,-0.802 -0.933,-1.403 -0.978,-1.85 -0.02,-0.19 -0.077,-0.766 0.34,-1.225 0.227,-0.252 0.552,-0.416 0.968,-0.488 -0.183,-0.588 -0.44,-1.38 -0.64,-1.888 -0.2,-0.507 -1.16,-3.307 -0.92,-4.366 0.15,-0.662 0.564,-2.294 1.152,-3.155 0.175,-0.26 0.317,-0.482 0.448,-0.69 0.244,-0.386 0.455,-0.72 0.775,-1.107 0.1,-0.122 0.183,-0.235 0.26,-0.34 0.292,-0.397 0.593,-0.805 1.313,-1.045 0.212,-0.07 0.415,-0.127 0.605,-0.18 0.336,-0.09 0.653,-0.178 0.772,-0.297 0.408,-0.41 1.28,-0.907 1.55,-1.04 0.193,-0.1 0.354,-0.164 0.515,-0.227 l 0.21,-0.088 c 0.35,-0.15 1.6,-0.38 2.23,-0.412 0.245,-0.013 0.545,-0.048 0.843,-0.08 0.416,-0.048 0.828,-0.092 1.11,-0.092 0.066,0 0.126,0.003 0.178,0.007 0.33,0.026 2.347,0.28 3.372,0.792 1.035,0.52 2.408,1.274 3.07,1.935 0.562,0.56 2.098,2.542 2.228,3.675 0.167,1.44 0.222,2.442 0.167,3.067 -0.03,0.352 -0.03,0.536 -0.03,0.7 0,0.198 0,0.372 -0.037,0.702 -0.06,0.544 -0.132,1.12 -0.285,1.656 -0.05,0.178 -0.158,0.455 -0.28,0.745 l 0.012,0 c 0.16,0 0.318,0.028 0.468,0.08 1.225,0.43 0.755,1.834 0.444,2.764 -0.175,0.524 -0.365,0.936 -0.55,1.335 -0.18,0.39 -0.35,0.76 -0.46,1.127 -0.073,0.253 -0.093,0.5 -0.113,0.716 -0.033,0.362 -0.076,0.826 -0.377,1.136 -0.044,0.486 -0.175,1.4 -0.563,2.136 0.272,0.195 0.525,0.475 0.684,0.866 0.498,0.253 1.105,0.802 1.153,1.738 0.106,0.294 0.316,0.915 0.35,1.27 0.005,-0.005 0.01,-0.006 0.016,-0.006 0.02,0 0.055,0.017 0.085,0.032 l 0.167,0.09 c 0.648,0.346 1.346,0.77 1.623,1.273 0.23,0.42 0.46,0.797 0.712,1.153 0.346,0.49 0.68,1.555 0.73,2.325 0.068,1.055 0.038,1.816 -0.09,2.26 -0.125,0.444 -0.252,0.906 -0.316,1.244 -0.063,0.336 -0.476,3.207 -0.52,3.91 -0.03,0.506 -0.015,1.097 -0.006,1.54 l 0.008,0.472 c 0,0.138 0.02,0.344 0.043,0.545 l 0.137,-0.018 c 0.134,-0.015 0.146,-0.02 0.18,-0.04 0.374,-0.238 0.584,-0.275 1.065,-0.275 0.24,0 0.41,-0.03 0.55,-0.053 l 0.252,-0.036 0.097,-0.002 c 0.322,0 0.93,0.115 1.258,0.196 l 0.265,0.074 c 0.173,0.048 0.26,0.073 0.478,0.086 0.433,0.024 0.67,0.037 1.028,0.287 0.246,0.172 0.59,0.482 0.84,0.982 l 0.09,0.172 c 0.163,0.305 0.345,0.652 0.393,1.174 0.027,0.28 0.042,0.326 0.127,0.58 l 0.256,0.784 c 0.25,0.744 0.63,1.87 0.567,2.83 -0.06,0.894 -0.26,1.99 -0.323,2.32 0.02,0.105 0.08,0.37 0.276,0.837 0.41,0.983 0.656,2.238 0.743,2.732 0.096,0.54 0.203,0.985 0.25,1.172 0.6,0.932 1.203,2.635 -0.08,3.563 l -0.24,0.174 c -0.677,0.49 -1.294,0.94 -1.902,1.193 0.28,0.285 0.62,0.598 0.987,0.853 l 0.176,0.12 c 1.936,1.345 2.538,1.86 2.538,2.463 0,0.573 -0.737,2.15 -3.11,2.15 -0.606,0 -1.28,-0.107 -2.006,-0.316 -1.318,-0.38 -2.296,-0.666 -3.03,-0.88 -1.156,-0.34 -1.69,-0.497 -1.996,-0.563 -0.54,-0.117 -2.577,-0.87 -2.674,-2.4 -0.037,-0.616 -0.055,-1.443 -0.06,-2.096 l -0.978,0.39 c -0.427,0.17 -1.434,0.505 -2.237,0.772 -0.445,0.147 -0.826,0.273 -1,0.337 -0.35,0.128 -0.636,0.22 -0.774,0.266 l -0.802,0.54 c 0.18,0.18 0.324,0.39 0.37,0.627 0.196,1.054 -0.287,1.877 -1.264,2.15 -0.903,0.25 -2.278,0.697 -2.713,0.876 l -0.024,0.074 c -0.123,0.35 -0.408,1.165 -1.35,1.165 -0.197,0 -0.367,-0.005 -0.514,-0.01 l -0.35,-0.006 c -0.02,0.02 -0.036,0.037 -0.054,0.053 l 0,0.087 c 0,0.192 -0.035,0.346 -0.074,0.46 0.09,0.08 0.228,0.162 0.36,0.24 0.307,0.184 0.687,0.41 0.755,0.862 0.027,0.19 0.002,0.486 -0.28,0.796 -0.29,0.32 -0.55,0.51 -0.8,0.693 -0.17,0.123 -0.35,0.254 -0.562,0.447 -0.18,0.167 -0.34,0.374 -0.492,0.57 -0.31,0.396 -0.627,0.805 -1.1,1 l -0.178,0.077 c -0.28,0.124 -0.347,0.133 -0.785,0.192 l -0.597,0.082 c -0.363,0.05 -0.535,0.12 -0.734,0.198 -0.41,0.16 -0.77,0.276 -1.66,0.276" />
      <path
         style="fill:#231f20"
         id="path566"
         d="m 333.97671,290.50797 c -0.334,0 -0.745,0.046 -1.18,0.095 -0.286,0.03 -0.573,0.064 -0.804,0.076 -0.665,0.036 -1.994,0.27 -2.444,0.464 l -0.195,0.08 c -0.176,0.07 -0.352,0.142 -0.565,0.25 -0.233,0.116 -1.21,0.655 -1.712,1.16 -0.034,0.008 -0.3,0.08 -0.493,0.135 -0.2,0.054 -0.415,0.114 -0.638,0.188 -0.91,0.302 -1.303,0.837 -1.62,1.267 -0.07,0.096 -0.148,0.2 -0.24,0.314 -0.343,0.416 -0.574,0.78 -0.82,1.17 -0.128,0.2 -0.265,0.42 -0.438,0.67 -0.647,0.95 -1.085,2.673 -1.243,3.37 -0.315,1.384 0.934,4.7 0.946,4.732 0.134,0.338 0.293,0.807 0.436,1.253 -0.25,0.12 -0.466,0.278 -0.646,0.476 -0.4,0.443 -0.566,1.016 -0.498,1.708 0.06,0.593 0.468,1.23 1.083,2.136 0.108,0.158 0.202,0.292 0.252,0.377 0.15,0.257 0.46,0.74 0.718,1.145 l 0.313,0.494 c 0.372,0.594 0.988,0.983 1.536,1.3 0.023,0.014 0.05,0.028 0.075,0.04 -0.084,0.01 -0.163,0.026 -0.238,0.044 -0.548,0.137 -1.346,0.567 -1.73,1.05 -0.03,0.027 -0.216,0.165 -0.357,0.255 l -0.09,0.056 -0.082,0.074 c -0.358,0.328 -1.056,0.925 -1.398,1.136 -0.705,0.434 -1.19,0.963 -1.243,1.022 l -0.06,0.067 -0.05,0.075 c -0.007,0.007 -0.034,0.04 -0.046,0.05 -0.103,0.057 -0.26,0.185 -0.543,0.415 -0.42,0.343 -1.056,0.858 -1.732,1.29 -1.178,0.754 -2.015,1.97 -2.57,2.774 l -0.202,0.29 c -0.497,0.705 -1.302,2.726 -2.225,5.1 l -0.296,0.76 c -0.32,0.814 -0.82,2.353 -1.257,3.71 -0.287,0.89 -0.643,1.992 -0.735,2.2 -0.303,0.606 -0.372,1.495 -0.385,1.752 l -0.053,1.013 0.98,0.26 0.66,0.177 0.103,0.028 0.106,0.01 0.172,0.015 c -0.16,1.506 -0.256,3.31 0.053,4.12 0.293,0.77 0.97,1.393 1.538,1.804 -0.056,0.293 -0.103,0.63 -0.12,0.993 -0.018,0.352 -0.152,0.706 -0.306,1.115 -0.117,0.31 -0.24,0.633 -0.325,0.996 -0.29,1.236 0.323,2.566 1.085,3.137 0.164,0.124 0.545,0.438 0.884,0.718 0.065,0.625 0.376,1.276 0.747,1.855 -0.274,0.98 0.304,2.265 0.525,2.575 0.063,0.086 0.125,0.163 0.188,0.236 l -0.098,0.09 c -0.507,0.51 -0.602,0.967 -0.687,1.372 -0.027,0.13 -0.06,0.29 -0.118,0.5 -0.27,0.975 -0.036,2.448 0.2,3.622 0.193,0.968 0.7,1.368 1.15,1.72 0.093,0.076 0.2,0.158 0.32,0.26 0.79,0.68 2.56,1.458 3.714,1.76 0.185,0.047 0.31,0.085 0.41,0.113 0.553,0.165 0.65,0.17 2.286,0.263 l 0.28,0.016 c 0.352,0.02 0.646,0.028 0.895,0.028 1,0 1.43,-0.14 1.89,-0.32 0.183,-0.072 0.305,-0.12 0.593,-0.16 l 0.59,-0.082 c 0.48,-0.065 0.608,-0.085 0.955,-0.238 l 0.17,-0.073 c 0.623,-0.26 1.01,-0.755 1.35,-1.19 0.15,-0.194 0.292,-0.376 0.423,-0.496 0.182,-0.166 0.333,-0.277 0.51,-0.406 0.262,-0.193 0.56,-0.41 0.893,-0.778 0.47,-0.517 0.474,-1.042 0.434,-1.308 -0.067,-0.452 -0.31,-0.76 -0.57,-0.977 0.77,-0.057 1.338,-0.52 1.69,-1.372 0.55,-0.198 1.623,-0.543 2.396,-0.76 1.297,-0.362 1.967,-1.487 1.708,-2.865 -0.022,-0.123 -0.06,-0.238 -0.108,-0.348 l 0.205,-0.14 c 0.16,-0.05 0.41,-0.136 0.71,-0.245 0.174,-0.062 0.556,-0.19 1,-0.337 0.846,-0.28 1.803,-0.598 2.255,-0.78 0.043,-0.015 0.088,-0.034 0.135,-0.053 0.01,0.426 0.025,0.855 0.048,1.22 0.118,1.89 2.38,2.8 3.163,2.97 0.27,0.06 0.837,0.226 1.964,0.556 0.733,0.214 1.71,0.5 3.023,0.88 0.78,0.224 1.515,0.34 2.178,0.34 2.64,0 3.737,-1.808 3.737,-2.776 0,-0.984 -0.91,-1.66 -2.803,-2.972 l -0.18,-0.125 c -0.09,-0.063 -0.18,-0.13 -0.267,-0.2 0.387,-0.242 0.78,-0.527 1.193,-0.827 l 0.238,-0.172 c 1.428,-1.03 1.166,-2.915 0.298,-4.318 -0.05,-0.212 -0.138,-0.59 -0.216,-1.033 -0.09,-0.514 -0.35,-1.823 -0.782,-2.863 -0.124,-0.3 -0.185,-0.496 -0.215,-0.607 0.082,-0.443 0.253,-1.437 0.308,-2.268 0.072,-1.09 -0.332,-2.284 -0.598,-3.076 -0.045,-0.132 -0.085,-0.25 -0.117,-0.35 -0.057,-0.186 -0.102,-0.32 -0.138,-0.43 -0.078,-0.23 -0.078,-0.23 -0.097,-0.44 -0.058,-0.645 -0.292,-1.086 -0.462,-1.407 l -0.083,-0.16 c -0.244,-0.49 -0.604,-0.91 -1.04,-1.214 -0.505,-0.355 -0.88,-0.376 -1.314,-0.4 -0.186,-0.01 -0.218,-0.02 -0.376,-0.065 -0.082,-0.024 -0.175,-0.05 -0.287,-0.077 -0.24,-0.06 -0.963,-0.217 -1.41,-0.217 l -0.07,0 -0.13,0.01 c -0.075,0.01 -0.158,0.023 -0.248,0.038 -0.145,0.023 -0.27,0.043 -0.45,0.043 -0.317,0 -0.56,0.02 -0.804,0.09 l -0.003,-0.16 c -0.01,-0.43 -0.023,-1.02 0.006,-1.49 0.04,-0.665 0.45,-3.51 0.51,-3.832 0.06,-0.323 0.202,-0.832 0.303,-1.187 0.055,-0.19 0.222,-0.772 0.113,-2.47 -0.06,-0.897 -0.43,-2.06 -0.844,-2.647 -0.224,-0.318 -0.445,-0.675 -0.675,-1.093 -0.354,-0.642 -1.107,-1.11 -1.87,-1.52 l -0.01,-0.006 c -0.07,-0.31 -0.182,-0.656 -0.29,-0.96 -0.082,-0.96 -0.64,-1.665 -1.29,-2.06 -0.112,-0.223 -0.25,-0.414 -0.405,-0.576 0.245,-0.624 0.358,-1.273 0.41,-1.73 0.314,-0.45 0.365,-1 0.395,-1.324 0.02,-0.215 0.04,-0.42 0.09,-0.6 0.095,-0.32 0.258,-0.67 0.43,-1.04 0.18,-0.39 0.384,-0.83 0.55,-1.326 l 0.024,-0.075 c 0.283,-0.847 0.935,-2.797 -0.674,-3.49 0.014,-0.043 0.027,-0.085 0.037,-0.123 0.167,-0.58 0.24,-1.162 0.305,-1.76 0.042,-0.365 0.042,-0.58 0.042,-0.77 0,-0.15 0,-0.32 0.027,-0.646 0.06,-0.665 0.004,-1.71 -0.17,-3.194 -0.16,-1.407 -1.92,-3.56 -2.405,-4.045 -0.577,-0.577 -1.665,-1.267 -3.234,-2.05 -1.127,-0.566 -3.233,-0.83 -3.602,-0.857 -0.077,-0.004 -0.152,-0.007 -0.235,-0.007 m 0,1.25 c 0.048,0 0.09,0 0.13,0.005 0.43,0.033 2.28,0.296 3.14,0.726 0.86,0.43 2.28,1.19 2.908,1.82 0.628,0.628 1.95,2.445 2.05,3.304 0.098,0.86 0.23,2.18 0.164,2.94 -0.066,0.76 0,0.795 -0.066,1.39 -0.066,0.595 -0.13,1.09 -0.264,1.552 -0.132,0.464 -0.76,1.82 -0.76,1.82 l 0,0.297 c 0,0 0.523,-0.574 1.093,-0.574 0.087,0 0.175,0.013 0.262,0.043 0.66,0.232 0.33,1.157 0.033,2.05 -0.298,0.89 -0.76,1.618 -0.992,2.412 -0.23,0.793 -0.032,1.52 -0.496,1.685 0,0 -0.065,2.005 -0.925,2.733 0,0 0.925,0.132 1.146,1.078 0,0 1.035,0.288 1.035,1.39 0,0 0.33,0.903 0.353,1.234 0.023,0.33 0.287,0.42 0.53,0.55 0.242,0.132 1.19,0.617 1.432,1.06 0.243,0.44 0.485,0.835 0.75,1.21 0.264,0.375 0.57,1.322 0.616,2.005 0.044,0.68 0.065,1.585 -0.066,2.048 -0.132,0.462 -0.265,0.947 -0.33,1.3 -0.067,0.352 -0.485,3.26 -0.53,3.987 -0.044,0.728 0,1.63 0,2.05 0,0.42 0.133,1.234 0.133,1.234 0,0 0.03,0.003 0.087,0.003 0.085,0 0.225,-0.01 0.398,-0.05 0.286,-0.064 0.462,-0.02 0.705,-0.175 0.242,-0.154 0.33,-0.177 0.727,-0.177 0.396,0 0.64,-0.065 0.836,-0.086 0.018,-0.003 0.04,-0.003 0.062,-0.003 0.243,0 0.785,0.1 1.106,0.18 0.354,0.088 0.464,0.154 0.86,0.176 0.396,0.023 0.485,0.023 0.705,0.177 0.22,0.153 0.463,0.396 0.64,0.748 0.176,0.354 0.375,0.64 0.418,1.125 0.044,0.485 0.088,0.485 0.287,1.124 0.198,0.638 0.727,1.96 0.66,2.974 -0.065,1.012 -0.33,2.335 -0.33,2.335 0,0 0,0.308 0.33,1.1 0.33,0.794 0.573,1.85 0.706,2.6 0.133,0.75 0.287,1.323 0.287,1.323 0,0 1.323,1.938 0.133,2.797 -1.095,0.79 -1.967,1.47 -2.768,1.47 -0.07,0 -0.14,-0.005 -0.207,-0.016 0,0 0.815,1.08 1.828,1.785 1.014,0.704 2.447,1.674 2.447,2.07 0,0.314 -0.553,1.525 -2.487,1.525 -0.51,0 -1.115,-0.084 -1.832,-0.29 -3.437,-0.992 -4.56,-1.345 -5.067,-1.455 -0.506,-0.11 -2.115,-0.77 -2.18,-1.83 -0.067,-1.056 -0.067,-2.752 -0.067,-2.974 0,0 -1.168,0.463 -1.83,0.728 -0.66,0.264 -2.73,0.925 -3.215,1.1 -0.484,0.177 -0.837,0.287 -0.837,0.287 l -1.63,1.104 c 0,0 0.793,0.396 0.86,0.75 0.065,0.35 0.132,1.166 -0.816,1.43 -0.947,0.265 -2.732,0.84 -2.974,0.992 -0.242,0.154 -0.198,1.102 -0.947,1.102 -0.334,0 -0.588,-0.018 -0.784,-0.018 -0.245,0 -0.396,0.028 -0.495,0.15 -0.176,0.22 -0.264,0.133 -0.264,0.616 0,0.485 -0.352,0.442 0.088,0.882 0.442,0.44 1.28,0.573 0.838,1.058 -0.44,0.484 -0.792,0.617 -1.32,1.102 -0.53,0.485 -0.883,1.233 -1.412,1.453 -0.53,0.22 -0.176,0.134 -1.41,0.31 -1.063,0.15 -0.883,0.468 -2.305,0.468 -0.228,0 -0.498,-0.01 -0.822,-0.028 -2.336,-0.13 -1.718,-0.088 -2.732,-0.352 -1.014,-0.264 -2.6,-0.97 -3.216,-1.498 -0.618,-0.53 -0.927,-0.617 -1.06,-1.278 -0.13,-0.66 -0.44,-2.247 -0.22,-3.04 0.22,-0.793 0.133,-0.97 0.486,-1.322 0.352,-0.353 0.66,-0.176 0.705,-0.398 0.045,-0.22 -0.175,-0.22 -0.175,-0.66 0,-0.44 -0.265,-0.573 -0.485,-0.88 -0.22,-0.31 -0.485,-1.323 -0.31,-1.588 0.177,-0.264 0.133,-0.484 0.133,-0.484 0,0 -1.19,-1.586 -0.792,-2.16 0,0 -1.102,-0.925 -1.454,-1.19 -0.353,-0.264 -0.793,-1.1 -0.616,-1.85 0.176,-0.75 0.616,-1.454 0.66,-2.335 0.045,-0.88 0.308,-1.63 0.308,-1.63 0,0 -1.453,-0.75 -1.806,-1.675 -0.352,-0.926 0.176,-4.804 0.176,-4.804 l -1.453,-0.132 -0.662,-0.177 c 0,0 0.044,-0.836 0.264,-1.277 0.22,-0.44 1.455,-4.54 2.028,-5.993 0.572,-1.455 1.85,-4.847 2.38,-5.596 0.528,-0.748 1.32,-2.026 2.423,-2.73 1.102,-0.706 2.07,-1.588 2.292,-1.72 0.22,-0.13 0.396,-0.396 0.396,-0.396 0,0 0.396,-0.44 0.97,-0.793 0.572,-0.35 1.585,-1.278 1.585,-1.278 0,0 0.486,-0.308 0.662,-0.528 0.176,-0.22 0.705,-0.53 1.058,-0.617 0.07,-0.017 0.17,-0.025 0.288,-0.025 0.47,0 1.21,0.113 1.387,0.113 0.22,0 0.572,-0.176 0.572,-0.176 0,0 0.09,-0.33 -0.087,-0.618 -0.177,-0.286 -0.485,-1.256 -0.595,-1.807 0,0 -0.378,0.214 -0.743,0.214 -0.12,0 -0.235,-0.024 -0.337,-0.083 -0.42,-0.242 -0.882,-0.528 -1.102,-0.88 -0.22,-0.353 -0.793,-1.235 -1.013,-1.61 -0.22,-0.373 -1.124,-1.563 -1.168,-2.005 -0.04,-0.41 -0.005,-1.068 1.226,-1.068 0.092,0 0.19,0.003 0.294,0.01 0,0 -0.53,-1.783 -0.892,-2.71 -0.364,-0.924 -1.058,-3.27 -0.893,-3.998 0.166,-0.726 0.563,-2.214 1.058,-2.94 0.496,-0.73 0.727,-1.19 1.19,-1.752 0.462,-0.562 0.595,-0.96 1.288,-1.19 0.694,-0.232 1.29,-0.298 1.62,-0.628 0.33,-0.33 1.124,-0.794 1.388,-0.925 0.266,-0.13 0.463,-0.198 0.695,-0.296 0.232,-0.1 1.388,-0.332 2.016,-0.364 0.572,-0.03 1.445,-0.17 1.92,-0.17" />
      <path
         style="fill:url(#polka)"
         id="path570"
         d="m 337.76271,320.73497 c 0.115,0.5375 0.23,1.20875 0.1775,1.84 -0.0662,0.7925 -0.485,3.37125 -0.6825,4.65 -0.2,1.275 -0.595,3.215 -0.86,4.185 -0.2625,0.96875 -0.2875,2.4 -0.2875,3.195 0,0.7925 0.33125,2.84125 1.1475,3.635 0.815,0.7925 1.7175,0.705 2.4,0.595 0.68375,-0.11 1.54375,-0.265 1.85,-0.88125 0.31,-0.6175 0.2225,-0.77125 0.685,-1.23375 0.4625,-0.4625 2.005,-2.05 1.9825,-3.195 -0.0125,-0.625 -0.2875,-1.5875 -0.6,-2.5375 l -0.0825,-0.03 c 0.99125,0.43 1.82875,2.15 1.82875,2.15 0,0 0.1975,0.0213 0.48375,-0.045 0.2875,-0.0663 0.4625,-0.0225 0.70625,-0.175 0.24,-0.15625 0.32875,-0.1775 0.725,-0.1775 0.39625,0 0.6375,-0.0663 0.8375,-0.0875 0.2,-0.0225 0.815,0.0875 1.1675,0.175 0.3525,0.0875 0.4625,0.155 0.86,0.175 0.39625,0.025 0.48375,0.025 0.705,0.1775 0.22,0.155 0.4625,0.3975 0.6375,0.75 0.1775,0.35 0.375,0.6375 0.42,1.1225 0.0437,0.485 0.0875,0.485 0.2875,1.125 0.19625,0.6375 0.725,1.96 0.66,2.975 -0.0663,1.0125 -0.33125,2.33375 -0.33125,2.33375 0,0 0,0.30875 0.33125,1.1 0.33,0.795 0.5725,1.8525 0.705,2.6 0.13125,0.75 0.2875,1.325 0.2875,1.325 0,0 1.32,1.9375 0.13125,2.79625 -1.19125,0.86 -2.1175,1.5875 -2.975,1.455 -2.315,-0.0875 -2.5125,-0.8375 -2.5125,-0.8375 -1.785,-0.2625 -3.96625,-0.99125 -3.96625,-0.99125 -0.265,0.6625 -0.88125,0.6625 -0.88125,0.6625 l -1.82875,0.725 c -0.6625,0.265 -2.73375,0.925 -3.21875,1.1025 -0.48375,0.175 -0.8375,0.2875 -0.8375,0.2875 l -1.63,1.1 c 0,0 -1.8825,0.58375 -3.105,0.58375 0,0 0.88125,0.75 0.175,2.5875 -0.24125,0.15625 -0.1975,1.1025 -0.94625,1.1025 -0.75,0 -1.1025,-0.0875 -1.27875,0.1325 -0.175,0.22125 -0.265,0.1325 -0.265,0.6175 0,0.485 -0.3525,0.44 0.0875,0.88125 0.4425,0.44125 1.27875,0.575 0.8375,1.05875 -0.44,0.485 -0.7925,0.61625 -1.32125,1.1 -0.52875,0.4875 -0.88125,1.235 -1.41,1.455 -0.52875,0.2225 -0.175,0.13375 -1.41,0.31 -1.23375,0.175 -0.7925,0.5725 -3.12875,0.44125 -2.3375,-0.13125 -1.72,-0.0875 -2.7325,-0.35 -1.0125,-0.26625 -2.6,-0.97125 -3.2175,-1.5 -0.61625,-0.52875 -0.925,-0.61625 -1.0575,-1.2775 -0.1325,-0.6625 -0.44,-2.2475 -0.22,-3.04125 0.22,-0.7925 0.1325,-0.96875 0.485,-1.32125 0.3525,-0.3525 0.66,-0.175 0.705,-0.39625 0.0437,-0.22 -0.175,-0.22 -0.175,-0.66 0,-0.44125 -0.26625,-0.575 -0.4875,-0.88125 -0.21875,-0.30875 -0.48375,-1.3225 -0.3075,-1.5875 0.175,-0.2625 0.1325,-0.48375 0.1325,-0.48375 0,0 -1.19,-1.5875 -0.79375,-2.15875 0,0 -1.1,-0.925 -1.45375,-1.19 -0.3525,-0.2625 -0.79375,-1.1 -0.6175,-1.85 0.175,-0.75 0.6175,-1.45375 0.6625,-2.335 0.0437,-0.88125 0.3075,-1.63 0.3075,-1.63 1.3875,0.85875 5.72875,2.73125 7.5575,3.30375 1.82875,0.575 3.83375,1.4125 4.625,1.6325 0.795,0.22 1.1475,0.6825 1.72,1.0125 0.5725,0.33125 1.23375,1.125 1.5,1.5875 0.2625,0.4625 0.32875,0.39625 0.8125,0.75 0.485,0.35 0.3975,0.8125 1.3225,1.695 0.925,0.88125 1.8075,-0.0875 1.8075,-0.0875 0,0 0.725,0.3525 1.125,0.0213 0.395,-0.33125 0.41625,-0.8825 0.41625,-0.8825 0,0 0.75,0.4625 1.345,-0.2875 0.59375,-0.7475 -0.1775,-1.3875 -0.1775,-1.3875 0,0 0.6825,-0.22 0.925,-0.70375 0.2425,-0.48375 -0.265,-1.32125 -0.705,-1.675 -0.44125,-0.35 -1.34375,-1.16625 -1.34375,-1.16625 1.49625,0.52875 2.4875,0.1325 2.6,-0.485 0.10875,-0.61875 -0.575,-0.75 -0.905,-0.81625 -0.33,-0.0662 -0.1325,-0.0437 -0.485,-0.22 -0.3525,-0.175 -0.8375,-0.2625 -2.07125,-0.61625 -1.2325,-0.3525 -2.14625,-0.34125 -2.775,-0.44 -0.6275,-0.1 -1.125,-0.0337 -1.9825,-0.43 -0.85875,-0.395 -2.80875,-0.925 -4,-1.51875 -1.1875,-0.595 -3.1375,-1.62 -3.965,-2.6125 -0.825,-0.99 -3.6025,-2.14625 -3.6025,-2.14625 l -0.1975,-0.0337 c 0.825,0.2325 1.42125,-0.2625 1.5525,-0.89125 0.1325,-0.6275 0.3975,-1.15625 0.925,-2.05 0.53,-0.89125 0.365,-0.59375 0.5625,-1.51875 0.2,-0.925 0.23125,-0.5625 0.76,-0.99125 0.52875,-0.43125 0.2975,-0.72875 0.6625,-1.325 0.3625,-0.59375 0.32875,-0.56 0.5275,-1.0875 0.2,-0.53125 0.49625,-1.0925 0.825,-1.91875 0.33125,-0.825 0,-1.6525 -0.0312,-3.0075 -0.035,-1.35625 0.13,-2.15 0.13,-2.15 -0.725,-2.875 -3.37,-4.1625 -3.37,-4.1625 l -0.055,0.10875 c 0,0 0.39625,-0.44 0.96875,-0.7925 0.57125,-0.3525 1.585,-1.2775 1.585,-1.2775 l 0.275,-0.15375 c 0,0 0.95875,0.33125 1.71875,1.4875 0.7675,1.1475 1.66125,2.53625 1.66125,2.53625 0,0 0.99125,0 2.28125,0.2975 1.2875,0.29875 5.915,0.8275 7.7,0.76125 l -0.0125,-0.0125 z" />
      <path
         style="fill:none;stroke:#000000;stroke-width:0.3125;stroke-miterlimit:10"
         id="path574"
         d="m 340.25371,313.95997 c 0,0 -1.63,-0.375 -2.424,-0.133 -0.792,0.242 -3.502,1.3 -2.996,2.203 0.506,0.903 2.07,-0.132 2.07,-0.132 l 0.662,-0.242 c 0,0 -0.266,0.705 -0.288,0.97 -0.02,0.264 -0.154,0.374 -0.286,0.683 -0.132,0.31 -0.22,0.685 0,1.455 0.22,0.77 0.55,1.013 0.683,1.586 0.132,0.575 0.33,1.433 0.263,2.227 -0.066,0.792 -0.485,3.37 -0.682,4.65 -0.198,1.276 -0.594,3.215 -0.86,4.185 -0.263,0.97 -0.285,2.4 -0.285,3.195 0,0.792 0.33,2.84 1.146,3.635 0.816,0.792 1.72,0.705 2.402,0.595 0.683,-0.11 1.542,-0.265 1.85,-0.88 0.31,-0.62 0.22,-0.773 0.684,-1.235 0.462,-0.464 2.005,-2.05 1.982,-3.195 -0.02,-1.146 -0.925,-3.415 -1.32,-4.67 -0.397,-1.258 -1.015,-5.2 -1.015,-6.236 0,-1.034 -0.176,-1.21 0.044,-1.63 0.22,-0.418 0.42,-0.683 0.727,-1.233 0.31,-0.55 0.353,-1.345 0.22,-1.918" />
      <path
         style="fill:none;stroke:#000000;stroke-width:0.3125;stroke-miterlimit:10"
         id="path578"
         d="m 325.86671,314.59797 c 0,0 2.644,3.66 7.447,4.165 0,0 1.74,0.22 3.547,-0.353" />
      <path
         style="fill:none;stroke:#000000;stroke-width:0.3125;stroke-miterlimit:10"
         id="path582"
         d="m 328.02671,313.95997 c 0,0 2.357,3.877 6.52,3.525 0,0 1.543,-0.176 2.71,-0.727" />
      <path
         style="fill:none;stroke:#000000;stroke-width:0.3125;stroke-miterlimit:10"
         id="path586"
         d="m 324.42371,315.65797 c 0,0 0.96,0.33 1.72,1.487 0.76,1.156 1.65,2.545 1.65,2.545 0,0 0.993,0 2.28,0.297 1.29,0.295 5.918,0.825 7.7,0.76" />
      <path
         style="fill:none;stroke:#000000;stroke-width:0.3125;stroke-miterlimit:10"
         id="path590"
         d="m 321.64671,317.77197 c 0,0 2.645,1.29 3.372,4.164 0,0 -0.165,0.793 -0.132,2.148 0.033,1.356 0.363,2.182 0.033,3.008 -0.33,0.826 -0.628,1.388 -0.826,1.916 -0.2,0.53 -0.166,0.496 -0.53,1.092 -0.362,0.595 -0.13,0.892 -0.66,1.32 -0.53,0.43 -0.562,0.067 -0.76,0.993 -0.2,0.925 -0.034,0.628 -0.562,1.52 -0.53,0.893 -0.793,1.422 -0.925,2.05 -0.133,0.627 -0.728,1.123 -1.554,0.892 -0.826,-0.232 -4.473,-0.982 -5.178,-0.97" />
      <path
         style="fill:none;stroke:#000000;stroke-width:0.3125;stroke-miterlimit:10"
         id="path594"
         d="m 345.32171,333.10597 c 0,0 -0.838,-1.72 -1.83,-2.15" />
      <path
         style="fill:none;stroke:#000000;stroke-width:0.3125;stroke-miterlimit:10"
         id="path598"
         d="m 319.30071,336.90797 c 0,0 2.776,1.155 3.603,2.148 0.826,0.99 2.776,2.015 3.966,2.61 1.19,0.595 3.14,1.123 4,1.52 0.857,0.397 1.354,0.33 1.98,0.43 0.63,0.1 1.544,0.09 2.777,0.44 1.234,0.353 1.72,0.44 2.072,0.617 0.352,0.177 0.153,0.154 0.483,0.22 0.332,0.067 1.014,0.2 0.904,0.817 -0.11,0.616 -1.102,1.012 -2.6,0.483 0,0 0.903,0.815 1.343,1.168 0.44,0.353 0.947,1.19 0.705,1.675 -0.242,0.485 -0.925,0.705 -0.925,0.705 0,0 0.77,0.638 0.176,1.388 -0.596,0.75 -1.345,0.288 -1.345,0.288 0,0 -0.022,0.55 -0.418,0.88 -0.397,0.33 -1.124,-0.022 -1.124,-0.022 0,0 -0.88,0.97 -1.806,0.09 -0.925,-0.882 -0.838,-1.346 -1.323,-1.698 -0.484,-0.353 -0.55,-0.287 -0.815,-0.75 -0.265,-0.462 -0.926,-1.255 -1.498,-1.585 -0.574,-0.33 -0.927,-0.793 -1.72,-1.014 -0.793,-0.22 -2.798,-1.06 -4.627,-1.63 -1.828,-0.574 -6.168,-2.447 -7.556,-3.306" />
      <path
         style="fill:none;stroke:#000000;stroke-width:0.3125;stroke-miterlimit:10"
         id="path602"
         d="m 343.60271,349.56497 c 0,0 0.616,0 0.88,-0.66 0,0 2.183,0.726 3.968,0.99 0,0 0.197,0.75 2.51,0.838" />
      <path
         style="fill:none;stroke:#000000;stroke-width:0.3125;stroke-miterlimit:10"
         id="path606"
         d="m 320.53471,336.38797 c 0,0 0.44,0.44 3.834,0.573 3.392,0.133 3.128,0.31 5.507,0.044 2.38,-0.263 4.714,-0.88 6.477,-0.66" />
      <path
         style="fill:none;stroke:#000000;stroke-width:0.3125;stroke-miterlimit:10"
         id="path610"
         d="m 336.39671,331.40997 c -2.026,-0.396 -4.758,0.66 -4.758,0.66 -0.926,-0.616 -3.746,-1.497 -3.746,-1.497 l 1.28,-7.183 c 0,0 6.916,0.22 8.59,0.75" />
      <path
         style="fill:none;stroke:#000000;stroke-width:0.3125;stroke-miterlimit:10"
         id="path614"
         d="m 337.25671,338.23997 c 0,0 -1.74,2.864 -1.63,5.816" />
      <path
         style="fill:none;stroke:#000000;stroke-width:0.3125;stroke-miterlimit:10"
         id="path618"
         d="m 344.48371,348.90397 0.264,-0.616 c 0,0 2.27,-0.178 2.403,-1.06 0.132,-0.88 0.97,-1.893 0.75,-5.02 -0.22,-3.13 -0.397,-3.174 -0.266,-3.88" />
      <path
         style="fill:none;stroke:#000000;stroke-width:0.3125;stroke-miterlimit:10"
         id="path622"
         d="m 351.11671,339.60597 c 0,0 -0.353,3.438 -1.41,5.684 -1.058,2.247 -1.543,2.82 -1.257,4.605" />
      <path
         style="fill:none;stroke:#000000;stroke-width:0.3125;stroke-miterlimit:10"
         id="path626"
         d="m 329.34671,352.51797 c 0,0 1.63,-1.94 3.13,-0.706" />
      <path
         style="fill:none;stroke:#000000;stroke-width:0.3125;stroke-miterlimit:10"
         id="path630"
         d="m 328.99671,348.10997 c 0,0 -1.455,-0.485 -2.6,0.22" />
      <path
         style="fill:none;stroke:#000000;stroke-width:0.3125;stroke-miterlimit:10"
         id="path634"
         d="m 329.43671,342.60197 c 0,0 0.44,-0.133 1.365,-0.573 0.925,-0.44 0.882,-0.66 1.983,-0.527 1.1,0.13 1.718,-0.177 1.718,-0.177" />
      <path
         style="fill:none;stroke:#000000;stroke-width:0.3125;stroke-miterlimit:10"
         id="path638"
         d="m 316.87671,343.17497 c 0,0 1.06,1.1 0.574,2.028 -0.484,0.925 -1.19,1.145 -0.838,1.762 0.354,0.616 1.146,0.484 0.926,1.013" />
      <path
         style="fill:none;stroke:#000000;stroke-width:0.3125;stroke-miterlimit:10"
         id="path642"
         d="m 321.76871,333.74497 c 0,0 1.72,1.234 4.274,0.97 2.556,-0.265 3.394,-0.926 5.772,-1.057 2.38,-0.133 3.394,-0.265 4.363,0.263" />
      <path
         style="fill:none;stroke:#000000;stroke-width:0.3125;stroke-miterlimit:10"
         id="path646"
         d="m 336.08971,352.78097 c 0,0 -1.884,0.584 -3.106,0.584 0,0 0.88,0.75 0.176,2.59" />
      <path
         style="fill:none;stroke:#000000;stroke-width:0.3125;stroke-miterlimit:10"
         id="path650"
         d="m 337.11371,317.20997 c 0,0 -0.066,1.222 0.396,1.29 0,0 0.133,0.76 0.53,0.76 0.397,0 0.694,-0.232 0.793,-0.464 0.1,-0.23 0.066,-0.66 0.627,-0.892 0.563,-0.23 0.893,-0.66 1.653,-0.396" />
      <path
         style="fill:none;stroke:#000000;stroke-width:0.3125;stroke-miterlimit:10"
         id="path654"
         d="m 337.51071,318.49797 c 0,0 0.563,-1.32 0.76,-1.62 0.2,-0.297 0.794,-0.593 1.29,-0.76 0.495,-0.164 0.958,-0.164 1.454,0" />
      <path
         style="fill:none;stroke:#000000;stroke-width:0.3125;stroke-miterlimit:10"
         id="path658"
         d="m 338.63471,319.06097 c 0,0 0.496,0.43 1.025,0.364 0.53,-0.067 1.024,-0.232 1.024,-0.232 0,0 0.628,0.397 1.19,0.33" />
      <path
         style="fill:none;stroke:#000000;stroke-width:0.3125;stroke-miterlimit:10"
         id="path662"
         d="m 336.39671,348.96997 1.212,0.77" />
      <path
         style="fill:none;stroke:#000000;stroke-width:0.3125;stroke-miterlimit:10"
         id="path666"
         d="m 335.23071,350.59997 c 0,0 0.33,0.044 0.485,0.2 0.153,0.152 0.725,0.615 0.725,0.615" />
      <path
         style="fill:none;stroke:#000000;stroke-width:0.3125;stroke-miterlimit:10"
         id="path670"
         d="m 333.40171,351.21797 c 0,0 0.396,-0.067 0.595,0.22 0.2,0.285 0.904,0.837 0.904,0.837" />
      <path
         style="fill:none;stroke:#000000;stroke-width:0.3125;stroke-miterlimit:10"
         id="path674"
         d="m 341.67471,305.05797 0.22,-0.66 0,-0.573 -0.32,-0.352 -0.24,-0.265 c 0,0 -0.21,-0.22 -0.21,-0.286 0,-0.067 0.07,-0.264 0.07,-0.264 l -0.106,-0.155 -0.23,-0.22 c 0,0 -0.05,-0.287 -0.137,-0.375 -0.088,-0.088 -0.178,-0.264 -0.223,-0.33 -0.044,-0.067 -0.112,-0.154 -0.112,-0.154 l -0.265,0.22 c 0,0 0.023,0.2 -0.11,0.11 -0.132,-0.088 -0.22,-0.154 -0.242,-0.088 -0.023,0.067 -0.023,0.177 -0.09,0.22 -0.065,0.044 -0.35,-0.066 -0.35,-0.066 0,0 -0.2,-0.087 -0.22,-0.022 -0.024,0.066 -0.024,0.352 -0.024,0.352 0,0 -0.066,0.2 -0.132,0.2 -0.066,0 -0.176,0.086 -0.176,0.086 l -0.09,0.265 c 0,0 -0.175,0 -0.263,-0.087 -0.09,-0.09 -0.156,-0.243 -0.222,-0.2 -0.066,0.045 -0.154,0.31 -0.154,0.31 l -0.176,0.374 c 0,0 -0.2,0.11 -0.243,0.043 -0.043,-0.065 -0.132,0 -0.132,0 l -0.154,0.332 c 0,0 -0.31,-0.154 -0.31,-0.067 0,0.09 -0.043,0.442 -0.043,0.442 l -0.044,0.197 -0.375,-0.286 -0.353,0.31 -0.087,0.22 -0.33,-0.243 -0.178,0.265 -0.308,-0.066 -0.11,-0.09 c 0,0 -0.154,-0.086 -0.22,-0.086 -0.067,0 -0.2,0.066 -0.2,0.066 l -0.13,0.11 -0.42,-0.33 -0.22,-0.11 c 0,0 -0.022,0.175 -0.198,-0.155 -0.176,-0.33 -0.242,-0.352 -0.33,-0.264 -0.09,0.09 -0.242,0.287 -0.242,0.287 0,0 -0.045,0.065 -0.133,0.044 -0.09,-0.022 -0.22,-0.066 -0.22,-0.066 0,0 -0.156,-0.043 -0.177,0.023 -0.023,0.065 -0.023,0.177 -0.045,0.242 -0.02,0.066 -0.02,0.288 -0.02,0.288 l -0.266,0.355 -0.2,0 -0.11,-0.25 -0.197,-0.065 c 0,0 -0.155,-0.03 -0.242,-0.01 -0.09,0.023 -0.09,-0.005 -0.09,-0.005 l -0.35,-0.078 c 0,0 -0.09,-0.162 -0.2,-0.162 -0.11,0 -0.35,-0.07 -0.418,-0.026 -0.066,0.045 -0.11,0.11 -0.242,0.02 -0.133,-0.087 -0.31,-0.176 -0.31,-0.176 0,0 -0.065,-0.066 -0.043,-0.155 0.023,-0.087 0.088,-0.395 0.088,-0.484 0,-0.088 -0.02,-0.42 -0.02,-0.42 l -0.134,-0.638 -0.176,-0.263 -0.265,0.153 -0.308,-0.11 -0.265,0.264 -0.087,0.398 c 0,0 -0.133,-0.045 -0.2,0 -0.065,0.043 -0.175,0.263 -0.175,0.263 0,0 -0.133,0.044 -0.176,-0.02 -0.044,-0.067 -0.133,0.11 -0.133,0.11 l -0.066,0.22 -0.066,0.153 c 0,0 -0.286,-0.044 -0.33,0.022 -0.045,0.067 -0.09,0.243 -0.09,0.243 l -0.065,0.088 c 0,0 -0.243,0.177 -0.31,0.243 l -0.065,0.067 c 0,0 -0.264,0.2 -0.33,0.31 -0.066,0.11 -0.155,0.24 -0.155,0.33 0,0.088 -0.065,0.308 -0.065,0.396 0,0.088 -0.11,-0.22 -0.177,0.088 -0.065,0.31 -0.065,0.397 -0.065,0.397 l -0.397,-0.087 c 0,0 -0.22,0.066 -0.22,0.13 0,0.067 -0.242,0.067 -0.242,0.067 l -0.243,-0.197 c 0,0 -0.154,0.086 -0.264,0.197 -0.11,0.11 -0.11,0.24 -0.11,0.24 l -0.287,0.002 0.506,1.172 c 0,0 -0.11,-0.145 -0.353,-0.19" />
      <path
         style="fill:none;stroke:#000000;stroke-width:0.3125;stroke-miterlimit:10"
         id="path678"
         d="m 337.56671,315.65797 c 0,0 1.134,-1.058 2.455,-0.628" />
    </g>
  </g>
</svg>
