<?xml version="1.0" encoding="utf-8"?>
<!-- Generator: Adobe Illustrator 18.0.0, SVG Export Plug-In . SVG Version: 6.00 Build 0)  -->
<!DOCTYPE svg PUBLIC "-//W3C//DTD SVG 1.1//EN" "http://www.w3.org/Graphics/SVG/1.1/DTD/svg11.dtd">
<svg version="1.1" id="Layer_1" xmlns="http://www.w3.org/2000/svg" xmlns:xlink="http://www.w3.org/1999/xlink" x="0px" y="0px"
	 viewBox="0 0 160 160" enable-background="new 0 0 160 160" xml:space="preserve">
<g>
	<circle fill="#FFFFFF" stroke="#231F20" stroke-width="2" cx="80.634" cy="95" r="60"/>
	<g>
		<defs>
			<path id="SVGID_1_" d="M20.467,95c0,33.137,27.13,60,60.267,60C113.87,155,141,128.137,141,95V-1H19v65.333L20.467,95z"/>
		</defs>
		<clipPath id="SVGID_2_">
			<use xlink:href="#SVGID_1_"  overflow="visible"/>
		</clipPath>
		<path clip-path="url(#SVGID_2_)" fill="#FFFFFF" d="M72.729,50.827c0,0-0.435-3.977-2.921-5.965
			c-2.485-1.988-3.915-3.293-4.598-4.35c-0.684-1.056-2.548-3.48-3.604-4.287l-0.249-0.683l-0.435-0.311l-0.311-0.373l-0.062-0.435
			c0,0-0.249-0.186-0.435-0.248c-0.186-0.062-0.713-0.249-0.713-0.249L59,33.615v-0.311l-0.095-0.435l0.294-0.435l-0.319-1.056
			l-0.222-0.559l-0.36-0.186L58,30.198v-0.311l-0.496-0.559l-0.155-0.249l-0.108-0.497l-0.179-0.559l-0.245-0.559l-0.309-0.994
			l-0.496-0.497L55.64,25.91l-0.248-0.517c0,0-0.248-0.393-0.435-0.393c-0.186,0-0.435,0-0.435,0l-0.261-0.166L54,24.667v-0.311
			l-0.36-0.559c0,0-0.087-0.249-0.273-0.249c-0.186,0-0.665,0.062-0.665,0.062s-0.239,0.067-0.426-0.181
			C52.09,23.181,51.975,23,51.788,23s-0.435,0-0.435,0l-0.435-0.316l-0.435-0.624l-0.373-0.032l-0.497-0.172l-0.497-0.117
			c0,0-0.062,0.004-0.248,0.066c-0.186,0.062,0.124,0.25-0.186,0.064c-0.311-0.186-0.311-0.185-0.311-0.185l-0.373-0.683
			l-0.186-0.435l-0.435-0.248l-0.311,0.062l-0.373,0.373l-0.249,0.311c-0.311,0.124-0.163-0.062-0.536,0.124
			C45.536,21.374,45,21.25,45,21.436c0,0.187,1,0.187,0,0.187c0,0-0.21-0.124-0.583-0.311c-0.373-0.186-0.695-0.497-0.695-0.497
			l-0.441-0.062c0,0-0.034-0.062-0.22,0c-0.186,0.062-0.235,0-0.607,0.186c-0.373,0.187-0.614,0.559-0.614,0.559l-0.556-0.062
			l-0.247-0.062l-0.745,0.186c0,0-0.248-0.062-0.435,0c-0.186,0.062,0.125-0.249-0.186,0.062c-0.311,0.311-0.621,0.621-0.621,0.621
			l-0.497,0.502c0,0,0.187,0.254-0.248,0.254c-0.435,0-0.435,0-0.435,0l-0.311-0.129l-0.808-0.096l-0.249-0.079l-0.311,0.308
			L35.757,23h-0.684c0,0-0.124-0.005-0.311,0.057c-0.186,0.062-0.373,0.401-0.373,0.401l-0.062,0.325l-0.187,0.318l-0.497,0.19
			c0,0-0.124,0.188-0.311,0.188s-0.746-0.185-0.746-0.185s-0.062-0.062-0.249,0c-0.186,0.062-0.435,0.062-0.435,0.062l-0.373,0.311
			l-0.311,0.249l-0.373,0.311l-0.124,0.373l-0.311,0.186l-0.311,0.249l-0.311,0.124l-0.062,0.373l-0.186,0.248
			c0,0-0.119,0.249-0.74,0.311C28.181,27.153,28,27.153,28,27.153v0.621c0,0,0.989-0.248,0.181,0.311
			c-0.808,0.559-0.717,0.559-0.717,0.559l-0.327,0.497L26.6,29.514l-0.361,0.249l-0.275,0.373L26,30.695v0.373v0.311l-0.341,0.559
			l-0.33,0.311c0,0-0.329,0.062-0.329,0.373c0,0.311,0,0.311,0,0.311s0.003,0.186-0.183,0.311c-0.186,0.124-0.216,0.186-0.402,0.249
			c-0.186,0.062-0.294,0.186-0.419,0.373c-0.124,0.186-0.054,0.186-0.116,0.435c-0.062,0.249,0.253-0.062-0.058,0.249
			c-0.311,0.311-0.619,0.621-0.619,0.621s-0.061,0-0.123,0.435c-0.062,0.435-0.062,0.746-0.062,0.746l-0.198,0.87L22,37.903v0.249
			c0,0,0.509,0.186,0.447,0.435c-0.062,0.249,0.006,0.249,0.006,0.249s-0.028,0.249-0.214,0.621
			c-0.186,0.373-0.169,0.373-0.169,0.373l-0.178,0.621l-0.369,1.429l-0.309,0.186l-0.372,0.497c0,0,0.187,0.124,0,0.373
			c-0.186,0.249-0.435,0.497-0.435,0.497s-0.124,0.062,0,0.435c0.124,0.373-0.186,0.062,0.124,0.373
			c0.311,0.311,0.621,0.435,0.87,0.435c0.249,0,0.497-0.124,0.497,0.062c0,0.186,0.062,0.186,0.186,0.497s0.684,0.435,0.684,0.435
			s0.435-0.062,0.497,0.124c0.062,0.186,0.124,0.249,0.186,0.435c0.062,0.186,0.311,0.373,0.311,0.373l0.124,0.559l-0.062,0.435
			l-0.124,0.746c0,0-0.186-0.249,0,0.559s0.186,0.746,0.124,1.056c-0.062,0.311-0.062,0.621,0,0.808
			c0.062,0.186,0.186,0.497,0.186,0.497l0.373,0.497c0,0,0.311,0.249,0.497,0.497c0.186,0.249,0.435,0.249,0.497,0.497
			c0.062,0.249-0.186-0.186,0.062,0.249c0.249,0.435,0.311,0.621,0.311,0.87s0.062,0.124,0.186,0.497
			c0.124,0.373,0.124-0.062,0.497,0.621c0.373,0.684,0.559,0.381,0.621,0.629C27.12,55.868,27.617,56,27.617,56h0.746
			c0,1,0.435,0.303,0.621,0.676c0.186,0.373-0.187,0.027,0.186,0.462c0.373,0.435,0.559,0.542,0.808,0.604
			c0.249,0.062,0.373,0.085,0.559,0.085s0.497-0.113,0.684,0.073c0.186,0.186,0.559,0.44,0.559,0.44s0.249-0.059,0.249,0.251
			c0,0.311,0.062,0.561,0.062,0.561s0.062,0.498,0.311,0.622c0.249,0.124-0.062-0.186,0.249,0.125
			c0.311,0.311,0.497,0.435,0.683,0.622c0.186,0.186,0.808,0.186,0.808,0.186s0.124-0.124,0.435,0.187
			c0.311,0.311,0.435,0.616,0.684,0.74C35.508,61.757,35.881,62,35.881,62s0.124,0,0.311,0c0.186,0,0.559-0.367,0.746-0.429
			c0.186-0.062,0.621-0.37,0.621-0.37s0.186,0.001,0.435-0.247c0.248-0.249,0.746-0.59,0.746-0.59l0.435-0.202l0.559-0.081
			L40.231,60h0.249l0.373-0.113l0.621,0.223c0,0,0.373-0.447,1.491,1.541c1.118,1.988,3.231,4.654,6.959,3.1
			c0,0,1.491,1.302,2.734,3.974c0,0-0.311,0.309-1.056-0.499c-0.746-0.808-1.243-1.616-2.113-1.803
			c-0.87-0.186-2.672-0.311-3.728,0.683c-1.056,0.994-3.666,3.355-4.722,4.039c-1.056,0.683-3.666,2.361-2.175,8.637
			c0,0-0.808,1.926-1.367,3.169c-0.559,1.243-0.621,2.175-0.746,3.231c-0.124,1.056-0.249,3.169,1.056,4.35
			c1.305,1.181,2.486,2.113,5.592,1.553c0,0,0.621,2.051,0.87,4.35c0.249,2.299,1.554,7.767,2.175,9.631
			c0.621,1.864,1.553,4.536,2.051,5.592c0.497,1.056,1.988,2.92,2.92,4.039c0.932,1.118,2.05,2.05,2.983,3.728
			c0.932,1.678,1.305,2.361,1.367,4.288c0.062,1.926,0.249,5.282,0.621,7.954c0.373,2.672,1.678,9.445,1.926,10.688
			c0.249,1.243,0.87,2.361,0.497,3.417c-0.373,1.056-4.847,5.53-4.847,11.061l42.916,0.145c0,0-0.249-1.326,0.497-1.988
			c0.746-0.663,1.077-0.58,1.16-1.657c0.083-1.077-0.083-0.994,0.58-1.657c0.663-0.663,3.066-3.231,3.314-3.645
			c0,0,0.166,1.077,1.491,0.994c0,0-0.083,2.071,1.16,2.071c1.243,0,1.657-0.58,2.734-0.414c1.077,0.166,1.906,0.663,2.734,0.497
			c0.828-0.166,0.994-0.58,1.491-1.906c0.497-1.326,0.746-2.486,1.243-2.9c0.497-0.414,0.58-0.497,0.828-1.574
			c0.249-1.077,0.497-2.9,0.497-5.385l0.414-0.497c0,0,3.065,0.083,3.645-0.497c0.58-0.58,0.58-1.326,1.243-1.988
			c0.663-0.663,1.077-1.077,1.326-2.237c0.248-1.16-0.331-3.894-0.414-4.64c-0.083-0.746-0.166-1.16-0.746-1.74
			c-0.58-0.58-2.734-2.32-2.734-2.32s9.942-6.628,2.237-24.689c0,0-0.58-1.326-1.408-2.403c-0.828-1.077-0.663-1.326-1.243-2.486
			c-0.58-1.16-1.657-4.06-4.474-3.977c0,0-0.58-2.237-1.243-3.728c-0.663-1.491-1.74-2.485-2.237-3.314
			c-0.497-0.828-1.077-1.74-1.326-3.645c-0.248-1.906-1.243-4.722-1.74-5.634c-0.497-0.911-2.071-7.622-2.154-10.356
			c-0.083-2.734-0.166-9.113-1.243-11.682c-1.077-2.568-1.906-5.054-4.308-7.125c0,0,0.497-1.968-0.559-3.397
			c0,0,0.187-2.485-1.802-3.293l0.062-0.684c0,0,2.05,0.186,2.361-1.243c0,0,3.169-1.74,3.79-4.412
			c0.621-2.672,0.746-3.542-1.305-3.231c0,0,2.734-7.519,2.05-11.06c-0.684-3.542-3.977-8.202-6.835-9.694
			c-2.858-1.491-5.53-2.734-10.004-1.305c-4.474,1.429-8.016,4.722-9.258,8.389c-1.243,3.666-1.429,5.157-1.678,6.152
			c-0.249,0.994-0.435,1.118-0.994,2.983c-0.559,1.864-1.118,4.039-1.367,5.965c-0.249,1.926-0.062,4.909,2.299,9.321
			c0,0,0.497,3.728,2.175,4.536c0,0-2.423,1.181-4.287,1.056L72.729,50.827z"/>
		<g clip-path="url(#SVGID_2_)">
			<defs>
				<path id="SVGID_3_" d="M93.188,42c0,0-1.523-0.188-4.086,0.5S82.27,48,82.27,48c-5.438,0.812-5.291,3.438-5.541,4.125
					s-0.864,0.562-1.927,0.688s-1.62,0.438-1.62,0.438l-0.145,0.006c0.02,0.158,0.04,0.316,0.059,0.472
					c0.065-0.092,0.377-0.423,1.319-0.061c1.083,0.417,2.417,0.667,3.334-0.083l0.089,0.124c-2.092,2.751-3.776,6.748-4.093,7.524
					c-0.098,1.419-0.443,2.771-1.272,3.637c-1.166,2.314-1.536,5.82-1.536,5.82l0.02,0.172c1.146-1.398,2.105-2.422,2.105-2.422
					c3.25,0.875,11.688,5.5,11.688,5.5c-0.714,1.209-7.75,9.028-10.505,11.795l0.005,0.017c1.708,5.167,7.417,11.958,7.417,11.958
					l1.167,1.042c0,0,1.833,2.667,3.167,4.417s1.75,2.417,1.833,3.75c0.083,1.333,0.917,2.583,1,3.667
					c0.083,1.083-0.083,2,0.083,2.917c0.167,0.917,0.917,2.75,0.917,2.75l4-0.25l4.583,1.167c0,0,2.083-3.417,1.75-7.167l5.417,4.75
					c0,0,1.167-0.75,1.917-1.583c0.75-0.833,1.833-1.583,2.917-2.417c1.023-0.787,8.353-5.362,9.449-9.238
					c-0.096-0.236-0.183-0.466-0.286-0.706c0,0-0.58-1.326-1.408-2.403c-0.828-1.077-0.663-1.326-1.243-2.486
					c-0.58-1.16-1.657-4.06-4.474-3.977c0,0-0.58-2.237-1.243-3.728c-0.663-1.491-1.74-2.485-2.237-3.314
					c-0.497-0.828-1.077-1.74-1.326-3.645c-0.249-1.906-1.243-4.722-1.74-5.634c-0.497-0.911-2.071-7.622-2.154-10.356
					c-0.083-2.734-0.166-9.114-1.243-11.682c-1.077-2.568-1.906-5.054-4.308-7.125c0,0,0.503-1.795-0.559-3.397
					c0,0,0.125-3.018-2.166-3.372C95.479,39.688,94.354,39.375,93.188,42z"/>
			</defs>
			<clipPath id="SVGID_4_">
				<use xlink:href="#SVGID_3_"  overflow="visible"/>
			</clipPath>
			<g clip-path="url(#SVGID_4_)">
				<circle fill="#AAD801" cx="75.751" cy="41.5" r="0.925"/>
				<circle fill="#AAD801" cx="78.195" cy="39.057" r="0.925"/>
				<circle fill="#AAD801" cx="80.639" cy="41.5" r="0.925"/>
				<circle fill="#AAD801" cx="83.083" cy="39.057" r="0.925"/>
				<circle fill="#AAD801" cx="85.527" cy="41.5" r="0.925"/>
				<circle fill="#AAD801" cx="87.971" cy="39.057" r="0.925"/>
				<circle fill="#AAD801" cx="90.415" cy="41.5" r="0.925"/>
				<circle fill="#AAD801" cx="92.859" cy="39.057" r="0.925"/>
				<circle fill="#AAD801" cx="95.303" cy="41.5" r="0.925"/>
				<circle fill="#AAD801" cx="97.747" cy="39.057" r="0.925"/>
				<circle fill="#AAD801" cx="100.191" cy="41.5" r="0.925"/>
				<circle fill="#AAD801" cx="102.635" cy="39.057" r="0.925"/>
				<circle fill="#AAD801" cx="105.079" cy="41.5" r="0.925"/>
				<circle fill="#AAD801" cx="107.523" cy="39.057" r="0.925"/>
				<circle fill="#AAD801" cx="75.751" cy="46.389" r="0.925"/>
				<circle fill="#AAD801" cx="78.195" cy="43.944" r="0.925"/>
				<circle fill="#AAD801" cx="80.639" cy="46.389" r="0.925"/>
				<circle fill="#AAD801" cx="83.083" cy="43.944" r="0.925"/>
				<circle fill="#AAD801" cx="85.527" cy="46.389" r="0.925"/>
				<circle fill="#AAD801" cx="87.971" cy="43.944" r="0.925"/>
				<circle fill="#AAD801" cx="90.415" cy="46.389" r="0.925"/>
				<circle fill="#AAD801" cx="92.859" cy="43.944" r="0.925"/>
				<circle fill="#AAD801" cx="95.303" cy="46.389" r="0.925"/>
				<circle fill="#AAD801" cx="97.747" cy="43.944" r="0.925"/>
				<circle fill="#AAD801" cx="100.191" cy="46.389" r="0.925"/>
				<circle fill="#AAD801" cx="102.635" cy="43.944" r="0.925"/>
				<circle fill="#AAD801" cx="105.079" cy="46.389" r="0.925"/>
				<circle fill="#AAD801" cx="107.523" cy="43.944" r="0.925"/>
				<circle fill="#AAD801" cx="65.976" cy="51.276" r="0.925"/>
				<circle fill="#AAD801" cx="70.864" cy="51.276" r="0.925"/>
				<circle fill="#AAD801" cx="75.751" cy="51.276" r="0.925"/>
				<circle fill="#AAD801" cx="78.195" cy="48.832" r="0.925"/>
				<circle fill="#AAD801" cx="80.639" cy="51.276" r="0.925"/>
				<circle fill="#AAD801" cx="83.083" cy="48.832" r="0.925"/>
				<circle fill="#AAD801" cx="85.527" cy="51.276" r="0.925"/>
				<circle fill="#AAD801" cx="87.971" cy="48.832" r="0.925"/>
				<circle fill="#AAD801" cx="90.415" cy="51.276" r="0.925"/>
				<circle fill="#AAD801" cx="92.859" cy="48.832" r="0.925"/>
				<circle fill="#AAD801" cx="95.303" cy="51.276" r="0.925"/>
				<circle fill="#AAD801" cx="97.747" cy="48.832" r="0.925"/>
				<circle fill="#AAD801" cx="100.191" cy="51.276" r="0.925"/>
				<circle fill="#AAD801" cx="102.635" cy="48.832" r="0.925"/>
				<circle fill="#AAD801" cx="105.079" cy="51.276" r="0.925"/>
				<circle fill="#AAD801" cx="107.523" cy="48.832" r="0.925"/>
				<circle fill="#AAD801" cx="65.976" cy="56.164" r="0.925"/>
				<circle fill="#AAD801" cx="68.42" cy="53.72" r="0.925"/>
				<circle fill="#AAD801" cx="70.864" cy="56.164" r="0.925"/>
				<circle fill="#AAD801" cx="73.307" cy="53.72" r="0.925"/>
				<circle fill="#AAD801" cx="75.751" cy="56.164" r="0.925"/>
				<circle fill="#AAD801" cx="78.195" cy="53.72" r="0.925"/>
				<circle fill="#AAD801" cx="80.639" cy="56.164" r="0.925"/>
				<circle fill="#AAD801" cx="83.083" cy="53.72" r="0.925"/>
				<circle fill="#AAD801" cx="85.527" cy="56.164" r="0.925"/>
				<circle fill="#AAD801" cx="87.971" cy="53.72" r="0.925"/>
				<circle fill="#AAD801" cx="90.415" cy="56.164" r="0.925"/>
				<circle fill="#AAD801" cx="92.859" cy="53.72" r="0.925"/>
				<circle fill="#AAD801" cx="95.303" cy="56.164" r="0.925"/>
				<circle fill="#AAD801" cx="97.747" cy="53.72" r="0.925"/>
				<circle fill="#AAD801" cx="100.191" cy="56.164" r="0.925"/>
				<circle fill="#AAD801" cx="102.635" cy="53.72" r="0.925"/>
				<circle fill="#AAD801" cx="105.079" cy="56.164" r="0.925"/>
				<circle fill="#AAD801" cx="107.523" cy="53.72" r="0.925"/>
				<circle fill="#AAD801" cx="65.976" cy="61.052" r="0.925"/>
				<circle fill="#AAD801" cx="68.42" cy="58.608" r="0.925"/>
				<circle fill="#AAD801" cx="70.864" cy="61.052" r="0.925"/>
				<circle fill="#AAD801" cx="73.307" cy="58.608" r="0.925"/>
				<circle fill="#AAD801" cx="75.751" cy="61.052" r="0.925"/>
				<circle fill="#AAD801" cx="78.195" cy="58.608" r="0.925"/>
				<circle fill="#AAD801" cx="80.639" cy="61.052" r="0.925"/>
				<circle fill="#AAD801" cx="83.083" cy="58.608" r="0.925"/>
				<circle fill="#AAD801" cx="85.527" cy="61.052" r="0.925"/>
				<circle fill="#AAD801" cx="87.971" cy="58.608" r="0.925"/>
				<circle fill="#AAD801" cx="90.415" cy="61.052" r="0.925"/>
				<circle fill="#AAD801" cx="92.859" cy="58.608" r="0.925"/>
				<circle fill="#AAD801" cx="95.303" cy="61.052" r="0.925"/>
				<circle fill="#AAD801" cx="97.747" cy="58.608" r="0.925"/>
				<circle fill="#AAD801" cx="100.191" cy="61.052" r="0.925"/>
				<circle fill="#AAD801" cx="102.635" cy="58.608" r="0.925"/>
				<circle fill="#AAD801" cx="105.079" cy="61.052" r="0.925"/>
				<circle fill="#AAD801" cx="107.523" cy="58.608" r="0.925"/>
				<circle fill="#AAD801" cx="65.976" cy="65.94" r="0.925"/>
				<circle fill="#AAD801" cx="68.42" cy="63.496" r="0.925"/>
				<circle fill="#AAD801" cx="70.864" cy="65.94" r="0.925"/>
				<circle fill="#AAD801" cx="73.307" cy="63.496" r="0.925"/>
				<circle fill="#AAD801" cx="75.751" cy="65.94" r="0.925"/>
				<circle fill="#AAD801" cx="78.195" cy="63.496" r="0.925"/>
				<circle fill="#AAD801" cx="80.639" cy="65.94" r="0.925"/>
				<circle fill="#AAD801" cx="83.083" cy="63.496" r="0.925"/>
				<circle fill="#AAD801" cx="85.527" cy="65.94" r="0.925"/>
				<circle fill="#AAD801" cx="87.971" cy="63.496" r="0.925"/>
				<circle fill="#AAD801" cx="90.415" cy="65.94" r="0.925"/>
				<circle fill="#AAD801" cx="92.859" cy="63.496" r="0.925"/>
				<circle fill="#AAD801" cx="95.303" cy="65.94" r="0.925"/>
				<circle fill="#AAD801" cx="97.747" cy="63.496" r="0.925"/>
				<circle fill="#AAD801" cx="100.191" cy="65.94" r="0.925"/>
				<circle fill="#AAD801" cx="102.635" cy="63.496" r="0.925"/>
				<circle fill="#AAD801" cx="105.079" cy="65.94" r="0.925"/>
				<circle fill="#AAD801" cx="107.523" cy="63.496" r="0.925"/>
				<circle fill="#AAD801" cx="65.976" cy="70.828" r="0.925"/>
				<circle fill="#AAD801" cx="68.42" cy="68.384" r="0.925"/>
				<circle fill="#AAD801" cx="70.864" cy="70.828" r="0.925"/>
				<circle fill="#AAD801" cx="73.307" cy="68.384" r="0.925"/>
				<circle fill="#AAD801" cx="75.751" cy="70.828" r="0.925"/>
				<circle fill="#AAD801" cx="78.195" cy="68.384" r="0.925"/>
				<circle fill="#AAD801" cx="80.639" cy="70.828" r="0.925"/>
				<circle fill="#AAD801" cx="83.083" cy="68.384" r="0.925"/>
				<circle fill="#AAD801" cx="85.527" cy="70.828" r="0.925"/>
				<circle fill="#AAD801" cx="87.971" cy="68.384" r="0.925"/>
				<circle fill="#AAD801" cx="90.415" cy="70.828" r="0.925"/>
				<circle fill="#AAD801" cx="92.859" cy="68.384" r="0.925"/>
				<circle fill="#AAD801" cx="95.303" cy="70.828" r="0.925"/>
				<circle fill="#AAD801" cx="97.747" cy="68.384" r="0.925"/>
				<circle fill="#AAD801" cx="100.191" cy="70.828" r="0.925"/>
				<circle fill="#AAD801" cx="102.635" cy="68.384" r="0.925"/>
				<circle fill="#AAD801" cx="105.079" cy="70.828" r="0.925"/>
				<circle fill="#AAD801" cx="107.523" cy="68.384" r="0.925"/>
				<circle fill="#AAD801" cx="65.976" cy="75.716" r="0.925"/>
				<circle fill="#AAD801" cx="68.42" cy="73.272" r="0.925"/>
				<circle fill="#AAD801" cx="70.864" cy="75.716" r="0.925"/>
				<circle fill="#AAD801" cx="73.307" cy="73.272" r="0.925"/>
				<circle fill="#AAD801" cx="75.751" cy="75.716" r="0.925"/>
				<circle fill="#AAD801" cx="78.195" cy="73.272" r="0.925"/>
				<circle fill="#AAD801" cx="80.639" cy="75.716" r="0.925"/>
				<circle fill="#AAD801" cx="83.083" cy="73.272" r="0.925"/>
				<circle fill="#AAD801" cx="85.527" cy="75.716" r="0.925"/>
				<circle fill="#AAD801" cx="87.971" cy="73.272" r="0.925"/>
				<circle fill="#AAD801" cx="90.415" cy="75.716" r="0.925"/>
				<circle fill="#AAD801" cx="92.859" cy="73.272" r="0.925"/>
				<circle fill="#AAD801" cx="95.303" cy="75.716" r="0.925"/>
				<circle fill="#AAD801" cx="97.747" cy="73.272" r="0.925"/>
				<circle fill="#AAD801" cx="100.191" cy="75.716" r="0.925"/>
				<circle fill="#AAD801" cx="102.635" cy="73.272" r="0.925"/>
				<circle fill="#AAD801" cx="105.079" cy="75.716" r="0.925"/>
				<circle fill="#AAD801" cx="107.523" cy="73.272" r="0.925"/>
				<circle fill="#AAD801" cx="109.967" cy="75.716" r="0.925"/>
				<circle fill="#AAD801" cx="65.976" cy="80.604" r="0.925"/>
				<circle fill="#AAD801" cx="68.42" cy="78.16" r="0.925"/>
				<circle fill="#AAD801" cx="70.864" cy="80.604" r="0.925"/>
				<circle fill="#AAD801" cx="73.307" cy="78.16" r="0.925"/>
				<circle fill="#AAD801" cx="75.751" cy="80.604" r="0.925"/>
				<circle fill="#AAD801" cx="78.195" cy="78.16" r="0.925"/>
				<circle fill="#AAD801" cx="80.639" cy="80.604" r="0.925"/>
				<circle fill="#AAD801" cx="83.083" cy="78.16" r="0.925"/>
				<circle fill="#AAD801" cx="85.527" cy="80.604" r="0.925"/>
				<circle fill="#AAD801" cx="87.971" cy="78.16" r="0.925"/>
				<circle fill="#AAD801" cx="90.415" cy="80.604" r="0.925"/>
				<circle fill="#AAD801" cx="92.859" cy="78.16" r="0.925"/>
				<circle fill="#AAD801" cx="95.303" cy="80.604" r="0.925"/>
				<circle fill="#AAD801" cx="97.747" cy="78.16" r="0.925"/>
				<circle fill="#AAD801" cx="100.191" cy="80.604" r="0.925"/>
				<circle fill="#AAD801" cx="102.635" cy="78.16" r="0.925"/>
				<circle fill="#AAD801" cx="105.079" cy="80.604" r="0.925"/>
				<circle fill="#AAD801" cx="107.523" cy="78.16" r="0.925"/>
				<circle fill="#AAD801" cx="109.967" cy="80.604" r="0.925"/>
				<circle fill="#AAD801" cx="65.976" cy="85.492" r="0.925"/>
				<circle fill="#AAD801" cx="68.42" cy="83.048" r="0.925"/>
				<circle fill="#AAD801" cx="70.864" cy="85.492" r="0.925"/>
				<circle fill="#AAD801" cx="73.307" cy="83.048" r="0.925"/>
				<circle fill="#AAD801" cx="75.751" cy="85.492" r="0.925"/>
				<circle fill="#AAD801" cx="78.195" cy="83.048" r="0.925"/>
				<circle fill="#AAD801" cx="80.639" cy="85.492" r="0.925"/>
				<circle fill="#AAD801" cx="83.083" cy="83.048" r="0.925"/>
				<circle fill="#AAD801" cx="85.527" cy="85.492" r="0.925"/>
				<circle fill="#AAD801" cx="87.971" cy="83.048" r="0.925"/>
				<circle fill="#AAD801" cx="90.415" cy="85.492" r="0.925"/>
				<circle fill="#AAD801" cx="92.859" cy="83.048" r="0.925"/>
				<circle fill="#AAD801" cx="95.303" cy="85.492" r="0.925"/>
				<circle fill="#AAD801" cx="97.747" cy="83.048" r="0.925"/>
				<circle fill="#AAD801" cx="100.191" cy="85.492" r="0.925"/>
				<circle fill="#AAD801" cx="102.635" cy="83.048" r="0.925"/>
				<circle fill="#AAD801" cx="105.079" cy="85.492" r="0.925"/>
				<circle fill="#AAD801" cx="107.523" cy="83.048" r="0.925"/>
				<circle fill="#AAD801" cx="109.967" cy="85.492" r="0.925"/>
				<circle fill="#AAD801" cx="114.855" cy="85.492" r="0.925"/>
				<circle fill="#AAD801" cx="119.743" cy="85.492" r="0.925"/>
				<circle fill="#AAD801" cx="65.976" cy="90.38" r="0.925"/>
				<circle fill="#AAD801" cx="68.42" cy="87.936" r="0.925"/>
				<circle fill="#AAD801" cx="70.864" cy="90.38" r="0.925"/>
				<circle fill="#AAD801" cx="73.307" cy="87.936" r="0.925"/>
				<circle fill="#AAD801" cx="75.751" cy="90.38" r="0.925"/>
				<circle fill="#AAD801" cx="78.195" cy="87.936" r="0.925"/>
				<circle fill="#AAD801" cx="80.639" cy="90.38" r="0.925"/>
				<circle fill="#AAD801" cx="83.083" cy="87.936" r="0.925"/>
				<circle fill="#AAD801" cx="85.527" cy="90.38" r="0.925"/>
				<circle fill="#AAD801" cx="87.971" cy="87.936" r="0.925"/>
				<circle fill="#AAD801" cx="90.415" cy="90.38" r="0.925"/>
				<circle fill="#AAD801" cx="92.859" cy="87.936" r="0.925"/>
				<circle fill="#AAD801" cx="95.303" cy="90.38" r="0.925"/>
				<circle fill="#AAD801" cx="97.747" cy="87.936" r="0.925"/>
				<circle fill="#AAD801" cx="100.191" cy="90.38" r="0.925"/>
				<circle fill="#AAD801" cx="102.635" cy="87.936" r="0.925"/>
				<circle fill="#AAD801" cx="105.079" cy="90.38" r="0.925"/>
				<circle fill="#AAD801" cx="107.523" cy="87.936" r="0.925"/>
				<circle fill="#AAD801" cx="109.967" cy="90.38" r="0.925"/>
				<circle fill="#AAD801" cx="112.411" cy="87.936" r="0.925"/>
				<circle fill="#AAD801" cx="114.855" cy="90.38" r="0.925"/>
				<circle fill="#AAD801" cx="117.299" cy="87.936" r="0.925"/>
				<circle fill="#AAD801" cx="119.743" cy="90.38" r="0.925"/>
				<circle fill="#AAD801" cx="75.751" cy="95.268" r="0.925"/>
				<circle fill="#AAD801" cx="78.195" cy="92.824" r="0.925"/>
				<circle fill="#AAD801" cx="80.639" cy="95.268" r="0.925"/>
				<circle fill="#AAD801" cx="83.083" cy="92.824" r="0.925"/>
				<circle fill="#AAD801" cx="85.527" cy="95.268" r="0.925"/>
				<circle fill="#AAD801" cx="87.971" cy="92.824" r="0.925"/>
				<circle fill="#AAD801" cx="90.415" cy="95.268" r="0.925"/>
				<circle fill="#AAD801" cx="92.859" cy="92.824" r="0.925"/>
				<circle fill="#AAD801" cx="95.303" cy="95.268" r="0.925"/>
				<circle fill="#AAD801" cx="97.747" cy="92.824" r="0.925"/>
				<circle fill="#AAD801" cx="100.191" cy="95.268" r="0.925"/>
				<circle fill="#AAD801" cx="102.635" cy="92.824" r="0.925"/>
				<circle fill="#AAD801" cx="105.079" cy="95.268" r="0.925"/>
				<circle fill="#AAD801" cx="107.523" cy="92.824" r="0.925"/>
				<circle fill="#AAD801" cx="109.967" cy="95.268" r="0.925"/>
				<circle fill="#AAD801" cx="112.411" cy="92.824" r="0.925"/>
				<circle fill="#AAD801" cx="114.855" cy="95.268" r="0.925"/>
				<circle fill="#AAD801" cx="117.299" cy="92.824" r="0.925"/>
				<circle fill="#AAD801" cx="119.743" cy="95.268" r="0.925"/>
				<circle fill="#AAD801" cx="75.751" cy="100.156" r="0.925"/>
				<circle fill="#AAD801" cx="78.195" cy="97.712" r="0.925"/>
				<circle fill="#AAD801" cx="80.639" cy="100.156" r="0.925"/>
				<circle fill="#AAD801" cx="83.083" cy="97.712" r="0.925"/>
				<circle fill="#AAD801" cx="85.527" cy="100.156" r="0.925"/>
				<circle fill="#AAD801" cx="87.971" cy="97.712" r="0.925"/>
				<circle fill="#AAD801" cx="90.415" cy="100.156" r="0.925"/>
				<circle fill="#AAD801" cx="92.859" cy="97.712" r="0.925"/>
				<circle fill="#AAD801" cx="95.303" cy="100.156" r="0.925"/>
				<circle fill="#AAD801" cx="97.747" cy="97.712" r="0.925"/>
				<circle fill="#AAD801" cx="100.191" cy="100.156" r="0.925"/>
				<circle fill="#AAD801" cx="102.635" cy="97.712" r="0.925"/>
				<circle fill="#AAD801" cx="105.079" cy="100.156" r="0.925"/>
				<circle fill="#AAD801" cx="107.523" cy="97.712" r="0.925"/>
				<circle fill="#AAD801" cx="109.967" cy="100.156" r="0.925"/>
				<circle fill="#AAD801" cx="112.411" cy="97.712" r="0.925"/>
				<circle fill="#AAD801" cx="114.855" cy="100.156" r="0.925"/>
				<circle fill="#AAD801" cx="117.299" cy="97.712" r="0.925"/>
				<circle fill="#AAD801" cx="119.743" cy="100.156" r="0.925"/>
				<circle fill="#AAD801" cx="78.195" cy="102.6" r="0.925"/>
				<circle fill="#AAD801" cx="83.083" cy="102.6" r="0.925"/>
				<circle fill="#AAD801" cx="85.527" cy="105.044" r="0.925"/>
				<circle fill="#AAD801" cx="87.971" cy="102.6" r="0.925"/>
				<circle fill="#AAD801" cx="90.415" cy="105.044" r="0.925"/>
				<circle fill="#AAD801" cx="92.859" cy="102.6" r="0.925"/>
				<circle fill="#AAD801" cx="95.303" cy="105.044" r="0.925"/>
				<circle fill="#AAD801" cx="97.747" cy="102.6" r="0.925"/>
				<circle fill="#AAD801" cx="100.191" cy="105.044" r="0.925"/>
				<circle fill="#AAD801" cx="102.635" cy="102.6" r="0.925"/>
				<circle fill="#AAD801" cx="105.079" cy="105.044" r="0.925"/>
				<circle fill="#AAD801" cx="107.523" cy="102.6" r="0.925"/>
				<circle fill="#AAD801" cx="109.967" cy="105.044" r="0.925"/>
				<circle fill="#AAD801" cx="112.411" cy="102.6" r="0.925"/>
				<circle fill="#AAD801" cx="114.855" cy="105.044" r="0.925"/>
				<circle fill="#AAD801" cx="117.299" cy="102.6" r="0.925"/>
				<circle fill="#AAD801" cx="119.743" cy="105.044" r="0.925"/>
				<circle fill="#AAD801" cx="83.083" cy="107.48" r="0.925"/>
				<circle fill="#AAD801" cx="85.527" cy="109.924" r="0.925"/>
				<circle fill="#AAD801" cx="87.971" cy="107.48" r="0.925"/>
				<circle fill="#AAD801" cx="90.415" cy="109.924" r="0.925"/>
				<circle fill="#AAD801" cx="92.859" cy="107.48" r="0.925"/>
				<circle fill="#AAD801" cx="95.303" cy="109.924" r="0.925"/>
				<circle fill="#AAD801" cx="97.747" cy="107.48" r="0.925"/>
				<circle fill="#AAD801" cx="100.191" cy="109.924" r="0.925"/>
				<circle fill="#AAD801" cx="102.635" cy="107.48" r="0.925"/>
				<circle fill="#AAD801" cx="105.079" cy="109.924" r="0.925"/>
				<circle fill="#AAD801" cx="107.523" cy="107.48" r="0.925"/>
				<circle fill="#AAD801" cx="109.967" cy="109.924" r="0.925"/>
				<circle fill="#AAD801" cx="112.411" cy="107.48" r="0.925"/>
				<circle fill="#AAD801" cx="117.299" cy="107.48" r="0.925"/>
				<circle fill="#AAD801" cx="83.083" cy="112.368" r="0.925"/>
				<circle fill="#AAD801" cx="85.527" cy="114.812" r="0.925"/>
				<circle fill="#AAD801" cx="87.971" cy="112.368" r="0.925"/>
				<circle fill="#AAD801" cx="90.415" cy="114.812" r="0.925"/>
				<circle fill="#AAD801" cx="92.859" cy="112.368" r="0.925"/>
				<circle fill="#AAD801" cx="95.303" cy="114.812" r="0.925"/>
				<circle fill="#AAD801" cx="97.747" cy="112.368" r="0.925"/>
				<circle fill="#AAD801" cx="100.191" cy="114.812" r="0.925"/>
				<circle fill="#AAD801" cx="102.635" cy="112.368" r="0.925"/>
				<circle fill="#AAD801" cx="105.079" cy="114.812" r="0.925"/>
				<circle fill="#AAD801" cx="107.523" cy="112.368" r="0.925"/>
				<circle fill="#AAD801" cx="109.967" cy="114.812" r="0.925"/>
				<circle fill="#AAD801" cx="112.411" cy="112.368" r="0.925"/>
				<circle fill="#AAD801" cx="83.083" cy="117.256" r="0.925"/>
				<circle fill="#AAD801" cx="87.971" cy="117.256" r="0.925"/>
				<circle fill="#AAD801" cx="92.859" cy="117.256" r="0.925"/>
				<circle fill="#AAD801" cx="97.747" cy="117.256" r="0.925"/>
				<circle fill="#AAD801" cx="102.635" cy="117.256" r="0.925"/>
				<circle fill="#AAD801" cx="107.523" cy="117.256" r="0.925"/>
				<circle fill="#AAD801" cx="112.411" cy="117.256" r="0.925"/>
			</g>
		</g>
		<g clip-path="url(#SVGID_2_)">
			<path fill="#231F20" d="M89.679,7.508c2.44,0,4.32,0.909,6.288,1.936c2.858,1.491,6.152,6.152,6.835,9.694
				c0.684,3.542-2.05,11.06-2.05,11.06c0.261-0.04,0.487-0.06,0.681-0.06c1.33,0,1.166,0.96,0.624,3.291
				c-0.621,2.672-3.79,4.412-3.79,4.412c-0.246,1.133-1.587,1.251-2.131,1.251c-0.142,0-0.23-0.008-0.23-0.008l-0.062,0.684
				c1.988,0.808,1.802,3.293,1.802,3.293c1.056,1.429,0.559,3.397,0.559,3.397c2.403,2.071,3.231,4.557,4.308,7.125
				c1.077,2.568,1.16,8.948,1.243,11.682c0.083,2.734,1.657,9.445,2.154,10.356c0.497,0.911,1.491,3.728,1.74,5.634
				c0.249,1.906,0.828,2.817,1.326,3.645c0.497,0.828,1.574,1.823,2.237,3.314c0.663,1.491,1.243,3.728,1.243,3.728
				c0.04-0.001,0.079-0.002,0.118-0.002c2.729,0,3.785,2.835,4.356,3.979c0.58,1.16,0.414,1.408,1.243,2.485
				c0.828,1.077,1.408,2.403,1.408,2.403c7.705,18.061-2.237,24.689-2.237,24.689s2.154,1.74,2.734,2.32
				c0.58,0.58,0.663,0.994,0.746,1.74c0.083,0.746,0.663,3.48,0.414,4.64c-0.249,1.16-0.663,1.574-1.326,2.237
				c-0.663,0.663-0.663,1.408-1.243,1.988c-0.451,0.451-2.405,0.501-3.252,0.501c-0.242,0-0.394-0.004-0.394-0.004l-0.414,0.497
				c0,2.486-0.248,4.308-0.497,5.385c-0.248,1.077-0.331,1.16-0.828,1.574c-0.497,0.414-0.746,1.574-1.243,2.9
				c-0.497,1.326-0.663,1.74-1.491,1.906c-0.116,0.023-0.231,0.033-0.348,0.033c-0.717,0-1.46-0.388-2.386-0.53
				c-0.135-0.021-0.259-0.03-0.376-0.03c-0.818,0-1.271,0.444-2.358,0.444c-1.243,0-1.16-2.071-1.16-2.071
				c-0.049,0.003-0.097,0.005-0.143,0.005c-1.195,0-1.349-0.999-1.349-0.999c-0.248,0.414-2.651,2.983-3.314,3.645
				c-0.663,0.663-0.497,0.58-0.58,1.657c-0.083,1.077-0.414,0.994-1.16,1.657c-0.746,0.663-0.497,1.988-0.497,1.988l-42.916-0.145
				c0-5.53,4.474-10.004,4.847-11.061c0.373-1.056-0.248-2.175-0.497-3.418c-0.249-1.243-1.553-8.016-1.926-10.688
				c-0.373-2.672-0.559-6.027-0.621-7.954c-0.062-1.926-0.435-2.61-1.367-4.287c-0.932-1.678-2.051-2.61-2.983-3.728
				c-0.932-1.118-2.423-2.983-2.92-4.039c-0.497-1.056-1.429-3.728-2.051-5.592c-0.621-1.864-1.926-7.332-2.175-9.631
				c-0.248-2.299-0.87-4.35-0.87-4.35c-0.637,0.115-1.193,0.167-1.686,0.167c-1.91,0-2.869-0.782-3.907-1.72
				c-1.305-1.181-1.181-3.293-1.056-4.35c0.124-1.056,0.186-1.988,0.746-3.231c0.559-1.243,1.367-3.169,1.367-3.169
				c-1.491-6.276,1.118-7.953,2.175-8.637s3.666-3.045,4.722-4.039c0.67-0.631,1.641-0.811,2.483-0.811
				c0.485,0,0.927,0.06,1.245,0.128c0.87,0.186,1.367,0.994,2.113,1.802c0.422,0.457,0.704,0.556,0.87,0.556
				c0.128,0,0.186-0.059,0.186-0.059c-1.243-2.672-2.734-3.977-2.734-3.977c-0.78,0.325-1.49,0.465-2.134,0.465
				c-2.435,0-3.941-2-4.825-3.572c-0.778-1.383-1.195-1.594-1.377-1.594c-0.08,0-0.114,0.04-0.114,0.04l-0.621-0.248l-0.373,0.062
				h-0.249l-0.497,0.124l-0.559,0.124l-0.435,0.186c0,0-0.497,0.311-0.746,0.559c-0.166,0.166-0.304,0.193-0.377,0.193
				c-0.037,0-0.058-0.007-0.058-0.007s-0.435,0.186-0.621,0.249c-0.186,0.062-0.559,0.186-0.746,0.186c-0.186,0-0.311,0-0.311,0
				s-0.373,0-0.621-0.124c-0.249-0.124-0.373-0.186-0.683-0.497c-0.173-0.173-0.288-0.211-0.356-0.211
				c-0.055,0-0.079,0.025-0.079,0.025s-0.621,0-0.808-0.186c-0.186-0.186-0.373-0.311-0.683-0.621
				c-0.112-0.112-0.143-0.143-0.149-0.143c-0.007,0,0.026,0.05-0.012,0.05c-0.015,0-0.042-0.008-0.088-0.031
				c-0.249-0.124-0.311-0.621-0.311-0.621s-0.062-0.249-0.062-0.559c0-0.222-0.127-0.254-0.199-0.254
				c-0.029,0-0.049,0.005-0.049,0.005s-0.373-0.249-0.559-0.435c-0.08-0.08-0.183-0.103-0.289-0.103
				c-0.141,0-0.288,0.041-0.395,0.041c-0.186,0-0.311,0-0.559-0.062c-0.249-0.062-0.435-0.124-0.808-0.559
				c-0.157-0.183-0.182-0.212-0.172-0.212c0.005,0,0.017,0.006,0.027,0.006c0.019,0,0.03-0.024-0.041-0.167
				c-0.187-0.373-0.621-0.311-0.621-0.497c0-0.062-0.083-0.083-0.193-0.083c-0.221,0-0.552,0.083-0.552,0.083
				s-0.497-0.311-0.559-0.559c-0.062-0.249-0.249-0.124-0.621-0.808c-0.373-0.683-0.373-0.249-0.497-0.621
				c-0.124-0.373-0.186-0.249-0.186-0.497s-0.062-0.435-0.311-0.87c-0.094-0.164-0.117-0.204-0.112-0.204
				c0.004,0,0.034,0.038,0.05,0.038c0.011,0,0.016-0.019,0-0.083c-0.062-0.249-0.311-0.249-0.497-0.497
				c-0.186-0.249-0.497-0.497-0.497-0.497l-0.373-0.497c0,0-0.124-0.311-0.186-0.497c-0.062-0.186-0.062-0.497,0-0.808
				c0.062-0.311,0.062-0.249-0.124-1.056c-0.115-0.5-0.088-0.595-0.05-0.595c0.023,0,0.05,0.036,0.05,0.036l0.124-0.746l0.062-0.435
				l-0.124-0.559c0,0-0.249-0.186-0.311-0.373c-0.062-0.186-0.124-0.249-0.186-0.435c-0.037-0.112-0.209-0.134-0.34-0.134
				c-0.088,0-0.157,0.01-0.157,0.01s-0.559-0.124-0.684-0.435S21.9,44.924,21.9,44.738c0-0.08-0.046-0.103-0.117-0.103
				c-0.096,0-0.238,0.041-0.38,0.041c-0.248,0-0.559-0.124-0.87-0.435c-0.311-0.311,0,0-0.124-0.373c-0.124-0.373,0-0.435,0-0.435
				s0.249-0.249,0.435-0.497c0.186-0.249,0-0.373,0-0.373l0.373-0.497l0.311-0.186L21.9,40.45l0.186-0.621c0,0,0,0,0.186-0.373
				c0.186-0.373,0.249-0.621,0.249-0.621s0,0,0.062-0.249c0.062-0.248-0.311-0.435-0.311-0.435v-0.249l0.684-0.684l0.062-0.87
				c0,0,0-0.311,0.062-0.746c0.062-0.435,0.124-0.435,0.124-0.435s0.311-0.311,0.621-0.621c0.127-0.127,0.15-0.15,0.137-0.15
				c-0.007,0-0.027,0.008-0.045,0.008c-0.028,0-0.053-0.018-0.031-0.106c0.062-0.249,0-0.249,0.124-0.435
				c0.124-0.186,0.249-0.311,0.435-0.373c0.186-0.062,0.249-0.124,0.435-0.249c0.186-0.124,0.249-0.311,0.249-0.311s0,0,0-0.311
				c0-0.311,0.186-0.373,0.186-0.373l0.186-0.311l0.186-0.559v-0.311v-0.373l0.124-0.559l0.435-0.373l0.373-0.249l0.559-0.373
				l0.373-0.497c0,0,0,0,0.808-0.559c0.428-0.296,0.403-0.366,0.284-0.366c-0.105,0-0.284,0.055-0.284,0.055v-0.621
				c0,0,0,0,0.621-0.062c0.621-0.062,0.559-0.311,0.559-0.311l0.186-0.248l0.062-0.373l0.311-0.124l0.311-0.249l0.311-0.186
				l0.124-0.373l0.373-0.311l0.311-0.249l0.373-0.311c0,0,0.249,0,0.435-0.062c0.062-0.021,0.11-0.028,0.147-0.028
				c0.074,0,0.101,0.028,0.101,0.028s0.559,0.186,0.746,0.186c0.186,0,0.311-0.186,0.311-0.186l0.497-0.187l0.187-0.311l0.062-0.311
				c0,0,0.186-0.311,0.373-0.373c0.062-0.021,0.117-0.028,0.163-0.028c0.092,0,0.147,0.028,0.147,0.028h0.684l0.435-0.062
				l0.311-0.373l0.248,0.062l0.808,0.062l0.311,0.062c0,0,0,0,0.435,0c0.435,0,0.249-0.186,0.249-0.186l0.497-0.435
				c0,0,0.311-0.311,0.621-0.621c0.107-0.107,0.141-0.141,0.146-0.141c0.008,0-0.057,0.087,0,0.087c0.01,0,0.023-0.003,0.041-0.008
				c0.062-0.021,0.131-0.028,0.196-0.028c0.129,0,0.239,0.028,0.239,0.028l0.746-0.186l0.249,0.062l0.559,0.062
				c0,0,0.249-0.373,0.621-0.559c0.373-0.186,0.435-0.124,0.621-0.186c0.062-0.021,0.11-0.028,0.147-0.028
				c0.074,0,0.101,0.028,0.101,0.028l0.497,0.062c0,0,0.435,0.311,0.808,0.497c0.373,0.186,0.435,0.311,0.808,0.311
				c0.373,0,0,0,0-0.187c0-0.186,0.311-0.062,0.683-0.249c0.145-0.072,0.177-0.089,0.181-0.089c0.003,0-0.013,0.011-0.003,0.011
				c0.009,0,0.041-0.01,0.133-0.046l0.249-0.311l0.373-0.373l0.311-0.062l0.435,0.249l0.187,0.435l0.373,0.684c0,0,0,0,0.311,0.186
				c0.098,0.059,0.135,0.081,0.144,0.081c0.02,0-0.085-0.1,0.043-0.143c0.186-0.062,0.249-0.062,0.249-0.062l0.497,0.124
				l0.497,0.186l0.373,0.062l0.435,0.684l0.435,0.435c0,0,0.249,0,0.435,0c0.186,0,0.311,0.062,0.497,0.311
				c0.075,0.099,0.159,0.129,0.234,0.129c0.112,0,0.201-0.067,0.201-0.067s0.497-0.062,0.683-0.062s0.311,0.249,0.311,0.249
				l0.435,0.559v0.311l0.186,0.311l0.186,0.311c0,0,0.249,0,0.435,0c0.186,0,0.435,0.248,0.435,0.248l0.249,0.373l0.373,0.062
				l0.497,0.497l0.311,0.994l0.249,0.559l0.186,0.559l0.124,0.497l0.186,0.249l0.559,0.559v0.311l0.249,0.435l0.311,0.186
				l0.249,0.559l0.373,1.056l-0.186,0.435l0.311,0.435v0.311l0.186,0.311c0,0,0.311,0.186,0.497,0.249
				c0.186,0.062,0.435,0.248,0.435,0.248l0.062,0.435l0.311,0.373l0.435,0.311l0.248,0.684c1.056,0.808,2.92,3.231,3.604,4.287
				c0.684,1.056,2.113,2.361,4.598,4.35c2.486,1.988,2.921,5.965,2.921,5.965l0.124-4.287c0.093,0.006,0.188,0.009,0.284,0.009
				c1.817,0,4.004-1.065,4.004-1.065c-1.678-0.808-2.175-4.536-2.175-4.536c-2.361-4.412-2.548-7.394-2.299-9.32
				c0.248-1.926,0.808-4.101,1.367-5.965c0.559-1.864,0.746-1.988,0.994-2.983c0.248-0.994,0.435-2.486,1.678-6.152
				c1.243-3.666,4.785-6.959,9.258-8.389C87.357,7.694,88.575,7.508,89.679,7.508 M89.679,6.508c-1.276,0-2.591,0.222-4.02,0.678
				c-4.734,1.512-8.528,4.968-9.901,9.02c-0.988,2.914-1.321,4.48-1.542,5.517c-0.058,0.272-0.107,0.504-0.159,0.713
				c-0.105,0.422-0.194,0.656-0.329,1.01c-0.157,0.413-0.353,0.927-0.653,1.927c-0.711,2.37-1.182,4.431-1.401,6.125
				c-0.374,2.897,0.387,6.092,2.326,9.764c0.109,0.715,0.461,2.534,1.344,3.859c-0.669,0.222-1.485,0.427-2.208,0.427
				c-0.073,0-0.146-0.002-0.217-0.007c-0.022-0.001-0.044-0.002-0.067-0.002c-0.248,0-0.488,0.092-0.672,0.26
				c-0.046,0.042-0.087,0.087-0.124,0.135c-0.427-0.678-0.96-1.323-1.624-1.854c-2.537-2.029-3.806-3.221-4.383-4.112
				c-0.568-0.878-2.335-3.255-3.598-4.344L62.297,35.2c-0.069-0.19-0.194-0.355-0.359-0.472l-0.33-0.236l-0.047-0.056l-0.022-0.154
				c-0.037-0.263-0.178-0.5-0.39-0.659c-0.114-0.085-0.412-0.295-0.719-0.397c-0.001,0-0.002-0.001-0.003-0.001
				c-0.014-0.172-0.072-0.339-0.17-0.482c0.067-0.208,0.065-0.433-0.008-0.641l-0.373-1.056c-0.009-0.025-0.018-0.049-0.029-0.073
				l-0.249-0.559c-0.084-0.188-0.223-0.346-0.399-0.451l-0.074-0.044v-0.03c0-0.265-0.105-0.52-0.293-0.707l-0.509-0.509
				l-0.023-0.03l-0.075-0.301c-0.006-0.025-0.013-0.049-0.021-0.074l-0.186-0.559c-0.01-0.03-0.022-0.06-0.035-0.09l-0.225-0.507
				l-0.293-0.939c-0.048-0.154-0.133-0.295-0.247-0.409l-0.497-0.497c-0.134-0.134-0.303-0.227-0.487-0.268l-0.009-0.014
				c-0.037-0.055-0.078-0.106-0.125-0.153c-0.177-0.177-0.518-0.459-0.951-0.526c-0.011-0.204-0.084-0.4-0.209-0.561l-0.39-0.501
				c-0.213-0.352-0.607-0.692-1.145-0.692c-0.167,0-0.441,0.027-0.639,0.05c-0.229-0.197-0.542-0.36-0.977-0.36h-0.021l-0.064-0.064
				l-0.376-0.591c-0.152-0.239-0.399-0.403-0.679-0.45l-0.277-0.046l-0.406-0.152c-0.035-0.013-0.072-0.025-0.109-0.034
				l-0.497-0.124c-0.079-0.02-0.161-0.03-0.243-0.03c-0.037,0-0.075,0.002-0.115,0.006l-0.103-0.189l-0.168-0.392
				c-0.086-0.2-0.234-0.366-0.423-0.474l-0.435-0.248c-0.152-0.087-0.323-0.132-0.496-0.132c-0.065,0-0.131,0.006-0.196,0.019
				l-0.311,0.062c-0.194,0.039-0.371,0.134-0.511,0.273l-0.373,0.373c-0.026,0.026-0.051,0.054-0.074,0.082l-0.072,0.09
				c-0.047,0.022-0.097,0.047-0.154,0.076c-0.019,0.009-0.075,0.016-0.129,0.023c-0.173,0.021-0.32,0.061-0.443,0.114
				c-0.008-0.004-0.017-0.008-0.025-0.013c-0.245-0.123-0.57-0.342-0.674-0.417c-0.135-0.096-0.292-0.158-0.457-0.178l-0.367-0.046
				c-0.112-0.034-0.232-0.052-0.355-0.052c-0.15,0-0.306,0.027-0.463,0.079c-0.166,0.018-0.39,0.059-0.752,0.241
				c-0.226,0.113-0.418,0.259-0.573,0.401l-0.167-0.042c-0.08-0.02-0.161-0.03-0.242-0.03c-0.081,0-0.163,0.01-0.243,0.03
				l-0.553,0.138c-0.034-0.003-0.069-0.006-0.106-0.007c-0.102-0.034-0.21-0.053-0.32-0.053c-0.419,0-0.64,0.22-0.853,0.433
				l-0.598,0.598l-0.402,0.351l-0.21-0.042c-0.039-0.008-0.079-0.013-0.119-0.016l-0.724-0.056l-0.167-0.042
				c-0.08-0.02-0.162-0.03-0.242-0.03c-0.293,0-0.576,0.129-0.768,0.36l-0.063,0.075h-0.465c-0.082-0.017-0.176-0.028-0.28-0.028
				c-0.161,0-0.322,0.027-0.479,0.079c-0.468,0.156-0.774,0.573-0.914,0.807c-0.059,0.098-0.101,0.206-0.123,0.318l-0.005,0.026
				l-0.111,0.042c-0.048,0.018-0.095,0.04-0.139,0.065c-0.056-0.016-0.115-0.034-0.173-0.052c-0.15-0.068-0.318-0.104-0.494-0.104
				c-0.151,0-0.307,0.027-0.464,0.079c-0.015,0.003-0.082,0.01-0.125,0.011c-0.229,0.003-0.458,0.085-0.634,0.232l-0.373,0.311
				l-0.295,0.236l-0.388,0.323c-0.143,0.119-0.25,0.275-0.308,0.452l-0.007,0.022c-0.036,0.022-0.071,0.046-0.104,0.073
				l-0.195,0.156L29.42,25.23c-0.324,0.13-0.558,0.419-0.615,0.764l-0.018,0.111l-0.524,0.052c-0.511,0.051-0.9,0.481-0.9,0.995
				v0.408l-0.377,0.261c-0.088,0.061-0.166,0.136-0.231,0.222l-0.27,0.36l-0.417,0.278l-0.373,0.249
				c-0.034,0.022-0.066,0.047-0.096,0.073l-0.435,0.373c-0.164,0.141-0.278,0.331-0.325,0.542l-0.124,0.559
				c-0.016,0.071-0.024,0.144-0.024,0.217v0.373v0.148l-0.1,0.301l-0.033,0.056c-0.231,0.221-0.405,0.55-0.424,0.971
				c-0.508,0.168-0.787,0.518-0.952,0.766c-0.179,0.268-0.231,0.47-0.253,0.691c-0.001,0.009-0.002,0.021-0.005,0.036l-0.336,0.336
				c-0.256,0.207-0.422,0.571-0.496,1.089c-0.059,0.414-0.07,0.732-0.072,0.846l-0.033,0.468l-0.42,0.42
				c-0.188,0.188-0.293,0.442-0.293,0.707v0.249c0,0.229,0.078,0.445,0.214,0.618c-0.027,0.066-0.062,0.147-0.109,0.239
				l-0.186,0.373c-0.026,0.051-0.047,0.105-0.063,0.16l-0.186,0.621l-0.28,1.07c-0.095,0.063-0.178,0.142-0.246,0.233l-0.373,0.497
				c-0.133,0.177-0.202,0.393-0.2,0.612c-0.045,0.05-0.086,0.094-0.116,0.124c-0.271,0.245-0.459,0.667-0.331,1.259
				c-0.069,0.493,0.239,0.801,0.429,0.99c0.406,0.406,0.88,0.655,1.356,0.714c0.312,0.69,1.102,0.923,1.36,0.982
				c0.08,0.188,0.197,0.349,0.313,0.476l0.018,0.081l-0.036,0.255l-0.057,0.341c-0.261,0.424-0.146,0.923-0.052,1.33l0.05,0.214
				c0.041,0.174,0.068,0.281,0.081,0.357l-0.006,0.032c-0.064,0.318-0.136,0.87,0.026,1.353c0.069,0.207,0.207,0.552,0.207,0.552
				c0.033,0.082,0.076,0.158,0.128,0.229l0.373,0.497c0.051,0.067,0.109,0.128,0.175,0.181c0.086,0.069,0.249,0.219,0.322,0.316
				c0.112,0.149,0.232,0.258,0.335,0.338c0.047,0.114,0.105,0.216,0.155,0.304c0.155,0.27,0.176,0.345,0.179,0.357
				c0,0.328,0.065,0.551,0.224,0.787c0,0,0,0,0,0c-0.001,0,0.006,0.018,0.014,0.042c0.044,0.133,0.164,0.491,0.527,0.71
				c0.012,0.022,0.026,0.046,0.041,0.074c0.23,0.421,0.433,0.65,0.618,0.815c0.196,0.408,0.589,0.72,0.911,0.921
				c0.16,0.1,0.344,0.152,0.53,0.152c0.081,0,0.162-0.01,0.242-0.03c0.019-0.005,0.039-0.009,0.06-0.014
				c0.049,0.03,0.102,0.058,0.159,0.085c0.087,0.192,0.222,0.35,0.332,0.478c0.5,0.584,0.865,0.764,1.326,0.88
				c0.368,0.092,0.588,0.092,0.802,0.092c0.066,0,0.14-0.006,0.219-0.016c0.108,0.087,0.217,0.168,0.304,0.23
				c0.015,0.117,0.033,0.211,0.046,0.27c0.051,0.336,0.229,1.026,0.848,1.336c0.029,0.015,0.063,0.03,0.1,0.046
				c0.146,0.14,0.267,0.244,0.375,0.336c0.071,0.06,0.134,0.113,0.197,0.176c0.351,0.351,0.899,0.456,1.348,0.476
				c0.346,0.327,0.551,0.438,0.838,0.581c0.427,0.214,0.926,0.23,1.069,0.23h0.311c0.29,0,0.621-0.091,1.061-0.237
				c0.125-0.042,0.349-0.132,0.51-0.199c0.336-0.038,0.664-0.204,0.938-0.478c0.1-0.1,0.341-0.271,0.508-0.38l0.274-0.117L39.951,61
				l0.403-0.1h0.126c0.055,0,0.11-0.005,0.164-0.014l0.097-0.016l0.362,0.145c0.095,0.038,0.194,0.061,0.293,0.068
				c0.126,0.14,0.357,0.44,0.698,1.047c1.063,1.889,2.317,3.129,3.744,3.706c-0.282,0.151-0.537,0.332-0.762,0.544
				c-1.322,1.244-3.691,3.352-4.58,3.928c-1.149,0.744-4.161,2.693-2.678,9.386c-0.248,0.587-0.814,1.92-1.232,2.849
				c-0.571,1.268-0.684,2.267-0.793,3.233l-0.033,0.292c-0.28,2.375,0.184,4.127,1.378,5.208c1.196,1.083,2.367,1.979,4.578,1.979
				c0.304,0,0.62-0.017,0.951-0.051c0.195,0.78,0.468,2.025,0.611,3.342c0.257,2.38,1.592,7.954,2.22,9.84
				c0.336,1.006,1.478,4.392,2.094,5.702c0.522,1.11,1.951,2.926,3.057,4.253c0.288,0.345,0.591,0.673,0.885,0.99
				c0.683,0.737,1.389,1.499,1.992,2.584c0.888,1.598,1.187,2.136,1.242,3.834c0.072,2.227,0.275,5.514,0.63,8.06
				c0.393,2.819,1.756,9.845,1.936,10.746c0.083,0.413,0.196,0.793,0.305,1.161c0.206,0.692,0.384,1.29,0.23,1.728
				c-0.061,0.144-0.409,0.626-0.716,1.051c-1.464,2.029-4.188,5.805-4.188,10.342c0,0.551,0.446,0.998,0.997,1l42.916,0.145
				c0.001,0,0.002,0,0.003,0c0.297,0,0.578-0.132,0.768-0.36c0.191-0.229,0.269-0.531,0.214-0.824
				c-0.046-0.267-0.043-0.86,0.179-1.057c0.157-0.14,0.293-0.24,0.409-0.327c0.577-0.43,0.993-0.825,1.083-2.001
				c0.018-0.235,0.025-0.418,0.031-0.567c0.003-0.079,0.003-0.142,0.008-0.197c0.045-0.052,0.129-0.14,0.251-0.263
				c0.299-0.299,1.632-1.697,2.565-2.745c0.171,0.115,0.369,0.211,0.595,0.28c0.085,0.52,0.279,1.141,0.711,1.591
				c0.369,0.384,0.848,0.587,1.387,0.587c0.738,0,1.248-0.162,1.658-0.293c0.276-0.088,0.476-0.151,0.7-0.151
				c0.07,0,0.144,0.006,0.224,0.018c0.341,0.053,0.676,0.152,1,0.248c0.488,0.145,0.993,0.294,1.539,0.294
				c0.186,0,0.369-0.018,0.544-0.053c1.385-0.277,1.722-1.175,2.232-2.535c0.143-0.383,0.267-0.752,0.382-1.094
				c0.175-0.523,0.414-1.239,0.57-1.392c0.713-0.594,0.876-0.891,1.158-2.113c0.184-0.796,0.484-2.483,0.519-5.104
				c2.999-0.022,3.537-0.561,3.77-0.793c0.409-0.409,0.614-0.86,0.778-1.223c0.14-0.308,0.25-0.552,0.465-0.766
				c0.69-0.69,1.286-1.286,1.596-2.734c0.213-0.995-0.013-2.565-0.285-4.222c-0.052-0.318-0.095-0.577-0.113-0.738
				c-0.095-0.859-0.225-1.529-1.032-2.336c-0.355-0.355-1.197-1.064-1.871-1.621c2.476-2.354,8.095-9.817,1.587-25.073
				c-0.029-0.067-0.643-1.459-1.536-2.62c-0.426-0.554-0.518-0.802-0.669-1.213c-0.103-0.28-0.231-0.627-0.472-1.11
				c-0.052-0.103-0.107-0.221-0.168-0.35c-0.596-1.258-1.787-3.775-4.427-4.138c-0.231-0.807-0.644-2.145-1.102-3.177
				c-0.478-1.075-1.133-1.901-1.659-2.564c-0.263-0.332-0.491-0.619-0.634-0.858l-0.052-0.086c-0.455-0.757-0.926-1.541-1.14-3.174
				c-0.266-2.042-1.292-4.954-1.854-5.983c-0.373-0.706-1.951-7.237-2.032-9.908l-0.021-0.748c-0.116-4.239-0.321-8.957-1.299-11.29
				c-0.117-0.279-0.231-0.557-0.345-0.834c-0.881-2.148-1.79-4.364-3.812-6.281c0.086-0.773,0.095-2.131-0.631-3.32
				c-0.017-0.629-0.165-1.917-1.02-2.916c0.695-0.261,1.205-0.719,1.471-1.337c0.92-0.581,3.344-2.323,3.932-4.852
				c0.405-1.743,0.698-3.002,0.027-3.847c-0.228-0.287-0.536-0.482-0.92-0.585c0.768-2.384,2.199-7.409,1.646-10.275
				c-0.736-3.814-4.241-8.766-7.354-10.391C94.281,7.436,92.29,6.508,89.679,6.508L89.679,6.508z"/>
		</g>
		<path clip-path="url(#SVGID_2_)" fill="none" stroke="#000000" stroke-width="0.5" stroke-miterlimit="10" d="M61.771,36.438
			c0,0-0.562-0.375-1.5-0.938s-1.875-1.375-3.062-1.875s-3.25-1.188-5.062-1.25s-2.812,0.438-3.188,1.125s-0.438,1.188-1.062,1.5
			s-0.812,0.375-1.375,0.688s-1.25,0.625-1.312,1.125S45.021,37.688,44.771,38s-0.125,0.25-0.188,0.75s-0.125,0.75-0.312,0.875
			s-0.188,0.125-0.5,0.312s-0.5,0.312-0.5,0.5s0.125,0.25-0.125,0.5s-0.5,0.25-0.562,0.438s0.062,0.125,0.062,0.5s0.5,0.438,0,0.688
			s-0.688,0.5-0.688,0.5s-0.062,0.375-0.125,0.625s-0.062,0.5-0.125,0.688s-0.062,0.312,0.25,0.75s0.438,0.5,0.438,0.688
			s0.5,0.812,0.5,0.812s0.312,0.188,0.312,0.375s0.125,0.438,0.312,0.75s0.188-0.125,0.188,0.312s0.188,0.5,0,0.812
			s0.188,1.062,0.188,1.062s0,0.25-0.188,0.5s0.125-0.25-0.188,0.25s-0.312,0.75-0.312,0.938s0.312,0.25,0.25,0.562
			s-0.125,0.75-0.062,0.938s0.312,0.562,0.312,0.562s0.125,0.312,0.25,0.5s0.312,0.375,0.375,0.625s-0.25,0.312,0.188,0.812
			s0.052,0.062,0.365,0.5S45.5,57,45.5,57.188s0,0.188,0,0.188s0.26,0.375,0.51,0.562s0.599,0.375,0.599,0.375l0.456,0.5
			l0.197,0.312l-0.12,0.625c0,0-3.748-3.75-5.81-2.312c0,0-1.249,1.312,0.376,2.625"/>
		<path clip-path="url(#SVGID_2_)" fill="none" stroke="#000000" stroke-width="0.5" stroke-miterlimit="10" d="M40.896,58.188
			c0,0-4.938-4.438-4.938-9.5s1.062-12.875,6.312-17.125s13.25-0.901,17.844,2.612"/>
		<path clip-path="url(#SVGID_2_)" fill="none" stroke="#000000" stroke-width="0.5" stroke-miterlimit="10" d="M61.357,35.541
			c0,0-9.399-6.791-15.837-2.229s-6.688,15.938-6.625,17.75s0.25,3.312,2.438,6.375"/>
		<path clip-path="url(#SVGID_2_)" fill="none" stroke="#000000" stroke-width="0.5" stroke-miterlimit="10" d="M72.667,50.25
			c0,0,0.5,4,0.667,5.417c0.167,1.417,1.5,7.833-1.417,9.667c-2.917,1.833-8.167,5-19.083-0.75"/>
		<path clip-path="url(#SVGID_2_)" fill="none" stroke="#000000" stroke-width="0.5" stroke-miterlimit="10" d="M49.562,82.812
			c0,0,8.75,3,13.562,4.125s8.688,0.938,10.25-0.375s10.562-11.25,11.375-12.625c0,0-8.438-4.625-11.688-5.5c0,0-2.812,3-4.562,5.75
			c0,0-0.438,1.312-1.812,1.125S58.5,74.5,55.812,74.25"/>
		<path clip-path="url(#SVGID_2_)" fill="none" stroke="#000000" stroke-width="0.5" stroke-miterlimit="10" d="M70.938,70.688
			c0,0,0.375-3.562,1.562-5.875"/>
		<path clip-path="url(#SVGID_2_)" fill="none" stroke="#000000" stroke-width="0.5" stroke-miterlimit="10" d="M73.688,61.375
			c0,0,2.5-6.312,5.375-9.062"/>
		<path clip-path="url(#SVGID_2_)" fill="none" stroke="#000000" stroke-width="0.5" stroke-miterlimit="10" d="M73.188,53.25
			c0,0,0.562-0.312,1.625-0.438s1.688,0,1.938-0.688s0.125-3.312,5.562-4.125c0,0,4.312-4.812,6.875-5.5s4-0.5,4-0.5
			s1.031-2.796,2.656-2.233"/>
		<path clip-path="url(#SVGID_2_)" fill="none" stroke="#000000" stroke-width="0.5" stroke-miterlimit="10" d="M76.562,45.188
			c0,0,3.125,3,7.062,1.25"/>
		<path clip-path="url(#SVGID_2_)" fill="none" stroke="#000000" stroke-width="0.5" stroke-miterlimit="10" d="M78.188,13.375
			l0.438,0.375l0.562,0.062l0.312,0.344l0.312,0.344c0,0,0.375,0,0.562,0s0.25-0.344,0.438-0.219S81,14.328,81,14.328l0.562,0.172
			h0.5l0.312,0.031c0,0,0.312-0.016,0.5,0.047s0.438-0.078,0.438-0.078H84h0.438c0,0,0.188,0.125,0.5,0.25s0.312,0.281,0.625,0.281
			s0.812,0.047,1,0.109s0.188,0.086,0.188,0.086s0.5,0.262,0.688,0.199S88,15.307,88,15.307s0.438,0.128,0.625,0.253
			s0.688,0.251,0.688,0.251l0.812,0.063l0.625,0.063l0.375,0.229L91.75,16.5h0.333h0.5H93h0.417c0,0,0.083,0,0.333,0.083
			C94,16.667,94,16.625,94,16.625l0.583,0.146L95,17.094l0.083,1.078l-0.167,0.747L94.5,19.917v0.917c0,0,0,0.583-0.083,0.833
			c-0.083,0.25,0.083,0.583,0.083,0.583v0.667v0.417l0.25,0.333l0.708,0.417c0,0,3.979,2.25,0.979,9.667c0,0,1.909-3.802,4.99-4.083
			"/>
		<path clip-path="url(#SVGID_2_)" fill="none" stroke="#000000" stroke-width="0.5" stroke-miterlimit="10" d="M73.083,53.75
			c0,0,0.25-0.5,1.333-0.083c1.083,0.417,2.417,0.667,3.333-0.083"/>
		<path clip-path="url(#SVGID_2_)" fill="none" stroke="#000000" stroke-width="0.5" stroke-miterlimit="10" d="M72.833,52.75
			c0,0,5.5-3.5,5-6.583"/>
		<path clip-path="url(#SVGID_2_)" fill="none" stroke="#000000" stroke-width="0.5" stroke-miterlimit="10" d="M38.438,79.562
			c0.938,2.25,2.312,2.75,3,3.375S42.75,83,42.75,83c0.75,0.781,1.688,0.344,1.688,0.344s0.438,1.219,2.625,0.906
			c0,0,0.938,0.812,2,0.062s-0.125-2.875-0.312-3.5s-0.25-1.688-0.25-2.938s0.5-3.375,0.625-3.938s0.688-1.062,0.688-1.062
			c1.75,3.875,4.938,3,5.5,2s-0.375-1.562-0.688-1.812s-1.25-1.688-1.562-2.438s-0.75-2-0.75-2"/>
		<path clip-path="url(#SVGID_2_)" fill="none" stroke="#000000" stroke-width="0.5" stroke-miterlimit="10" d="M42.812,83.25
			c0,0-1.125,2.625-0.5,3.562s1.25,1.688,1.188,2.438s-0.375,3.688-0.375,3.688"/>
		<path clip-path="url(#SVGID_2_)" fill="none" stroke="#000000" stroke-width="0.3" stroke-miterlimit="10" d="M47.062,84.25
			c0,0-1.188-2.562-1.75-4.562s-0.5-4.812-0.375-5.75"/>
		<path clip-path="url(#SVGID_2_)" fill="none" stroke="#000000" stroke-width="0.5" stroke-miterlimit="10" d="M47.812,84.688
			c0,0-1.938,5.125-2.062,6.75s0.188,4.688,0.5,6.062s3.625,8.625,6,10.938c0,0,0.312,0.562,0.75,1.625s6.312,17.875,13.062,26.188
			c0,0,3,4.625,4,6.188c1,1.562,5.438,6.375,7.188,7.437c1.75,1.063,2.125,2.25,3.938,2.125s13.625,0.063,20.75-3.875
			c7.125-3.937,12.875-8.75,12.875-8.75"/>
		<path clip-path="url(#SVGID_2_)" fill="none" stroke="#000000" stroke-width="0.5" stroke-miterlimit="10" d="M117.812,125.5
			c0,0-3.75,2.938-7.062,3.438s-6.312,1.5-9.5,1.625s-10.812-0.062-12.5,0s-4,0-4.75-1.062s-1.875-3.062-2.875-5.812
			s-4.312-9.375-6.562-12.5s-4.688-6-5.125-8.312s-0.375-8.5-8.688-16.625"/>
		<path clip-path="url(#SVGID_2_)" fill="none" stroke="#000000" stroke-width="0.5" stroke-miterlimit="10" d="M52.542,83.917
			c0,0-5.125,3.042-6.667,7.083"/>
		<path clip-path="url(#SVGID_2_)" fill="none" stroke="#000000" stroke-width="0.5" stroke-miterlimit="10" d="M70.042,87.75
			c0,0,0.458,1.708,1.667,2.833c1.208,1.125,2.125,2.125,3.333,3.167c1.208,1.042,0.792,1.333,1.875,1.542
			C78,95.5,78.333,95.333,79,95.833s2.667,1.875,2.667,1.875s-5.708-6.792-7.417-11.958"/>
		<path clip-path="url(#SVGID_2_)" fill="none" stroke="#000000" stroke-width="0.5" stroke-miterlimit="10" d="M82.833,98.75
			c0,0,1.833,2.667,3.167,4.417s1.75,2.417,1.833,3.75c0.083,1.333,0.917,2.583,1,3.667c0.083,1.083-0.083,2,0.083,2.917
			c0.167,0.917,0.917,2.75,0.917,2.75l4-0.25l4.583,1.167c0,0,2.083-3.417,1.75-7.167l5.417,4.75c0,0,1.167-0.75,1.917-1.583
			c0.75-0.833,1.833-1.583,2.917-2.417c1.083-0.833,9.25-5.917,9.583-9.917"/>
		<path clip-path="url(#SVGID_2_)" fill="none" stroke="#000000" stroke-width="0.5" stroke-miterlimit="10" d="M89.5,115.25
			c0,0-0.833,2.25-1.833,3.333c-1,1.083-4.667,4.25-5.167,8.583"/>
		<path clip-path="url(#SVGID_2_)" fill="none" stroke="#000000" stroke-width="0.5" stroke-miterlimit="10" d="M75.667,148.583
			c0,0-1,6.417-2.25,8.583"/>
		<path clip-path="url(#SVGID_2_)" fill="none" stroke="#000000" stroke-width="0.3" stroke-miterlimit="10" d="M42.75,83
			c0,0-1.792-1.583-2.042-2.667c-0.25-1.083-0.625-3.667-0.5-4.5"/>
		<path clip-path="url(#SVGID_2_)" fill="none" stroke="#000000" stroke-width="0.3" stroke-miterlimit="10" d="M44.5,83.438
			c0,0-1.125-2.125-1.542-3.792c-0.417-1.667-0.583-3.542-0.583-4.125"/>
		<path clip-path="url(#SVGID_2_)" fill="none" stroke="#000000" stroke-width="0.3" stroke-miterlimit="10" d="M42.042,86.542
			c0,0-1.083,2.458-3,2.667"/>
		<path clip-path="url(#SVGID_2_)" fill="none" stroke="#000000" stroke-width="0.3" stroke-miterlimit="10" d="M39.375,89.208
			c0,0,1.042,0.25,1.208,0.875c0,0,1.958,0.167,2.583,0.292"/>
		<path clip-path="url(#SVGID_2_)" fill="none" stroke="#000000" stroke-width="0.3" stroke-miterlimit="10" d="M40.833,88.292
			c0,0,0.875,0.667,1,1.208c0,0,1.208-0.042,1.5,0.333"/>
		<path clip-path="url(#SVGID_2_)" fill="none" stroke="#000000" stroke-width="0.5" stroke-miterlimit="10" d="M75.5,149.333
			c0,0,1.667,2.833,3.667,4.833s3.167,3.667,3.167,3.667"/>
		<path clip-path="url(#SVGID_2_)" fill="none" stroke="#000000" stroke-width="0.5" stroke-miterlimit="10" d="M105.5,146.188
			c0,0,0.812,0.437,1.312,1.5c0,0,1.438-0.875,3.188,0.125"/>
		<path clip-path="url(#SVGID_2_)" fill="none" stroke="#000000" stroke-width="0.5" stroke-miterlimit="10" d="M108.583,144.167
			c0,0,0.25,2.167-2.333,2.75"/>
		<path clip-path="url(#SVGID_2_)" fill="none" stroke="#000000" stroke-width="0.5" stroke-miterlimit="10" d="M110.833,144.417
			c0,0-1.25,0.5-2.167,2.917"/>
		<path clip-path="url(#SVGID_2_)" fill="none" stroke="#000000" stroke-width="0.5" stroke-miterlimit="10" d="M84,74.875
			c0,0,2.5,0.125,4.25-2.25s7.125-10.75,11.25-11.75"/>
		<path clip-path="url(#SVGID_2_)" fill="none" stroke="#000000" stroke-width="0.5" stroke-miterlimit="10" d="M73.062,68.438
			c0,0,2.688-10.062,6.438-14.438"/>
	</g>
	<path fill="none" stroke="#231F20" stroke-width="2" d="M140.634,95c0,33.137-26.863,60-60,60s-60-26.863-60-60"/>
</g>
</svg>
