<svg xmlns="http://www.w3.org/2000/svg" width="168.14" height="183.944"><defs><clipPath><path d="M30.378 599.084V533.75l7.467-30.666c0-33.137 27.13-60 60.266-60 33.138 0 60.268 26.863 60.268 60v96h-128z"/></clipPath><pattern height="12" width="12" patternUnits="userSpaceOnUse" patternTransform="matrix(.707 .707 -.707 .707 4187.9 7527.08)"><path d="M12-3H6v6h6v-6z" fill="#fff"/><g><path d="M10.5 0c0-.828-.672-1.5-1.5-1.5S7.5-.828 7.5 0 8.172 1.5 9 1.5 10.5.828 10.5 0" fill="#aad801"/></g><path d="M6-3H0v6h6v-6z" fill="#fff"/><g><path d="M4.5 0c0-.828-.672-1.5-1.5-1.5S1.5-.828 1.5 0 2.172 1.5 3 1.5 4.5.828 4.5 0" fill="#aad801"/></g><path d="M15 3H9v6h6V3z" fill="#fff"/><g><path d="M13.5 6c0-.828-.672-1.5-1.5-1.5s-1.5.672-1.5 1.5.672 1.5 1.5 1.5 1.5-.672 1.5-1.5" fill="#aad801"/></g><path d="M9 3H3v6h6V3z" fill="#fff"/><g><path d="M7.5 6c0-.828-.672-1.5-1.5-1.5S4.5 5.172 4.5 6 5.172 7.5 6 7.5 7.5 6.828 7.5 6" fill="#aad801"/></g><path d="M3 3h-6v6h6V3z" fill="#fff"/><g><path d="M1.5 6c0-.828-.672-1.5-1.5-1.5s-1.5.672-1.5 1.5.672 1.5 1.5 1.5S1.5 6.828 1.5 6" fill="#aad801"/></g><path d="M12 9H6v6h6V9z" fill="#fff"/><g><path d="M10.5 12c0-.828-.672-1.5-1.5-1.5s-1.5.672-1.5 1.5.672 1.5 1.5 1.5 1.5-.672 1.5-1.5" fill="#aad801"/></g><path d="M6 9H0v6h6V9z" fill="#fff"/><g><path d="M4.5 12c0-.828-.672-1.5-1.5-1.5s-1.5.672-1.5 1.5.672 1.5 1.5 1.5 1.5-.672 1.5-1.5" fill="#aad801"/></g></pattern><clipPath><path d="M168.377 590.584v-72.25l20.042-14.417c0-33.137 26.84-60 59.978-60 33.137 0 59.98 26.863 59.98 60v86.667h-140z"/></clipPath><pattern height="12" width="12" patternUnits="userSpaceOnUse" patternTransform="matrix(.707 .707 -.707 .707 4190.03 7520.83)"><path d="M12-3H6v6h6v-6z" fill="#fff"/><g><path d="M10.5 0c0-.828-.672-1.5-1.5-1.5S7.5-.828 7.5 0 8.172 1.5 9 1.5 10.5.828 10.5 0" fill="#ff9b0b"/></g><path d="M6-3H0v6h6v-6z" fill="#fff"/><g><path d="M4.5 0c0-.828-.672-1.5-1.5-1.5S1.5-.828 1.5 0 2.172 1.5 3 1.5 4.5.828 4.5 0" fill="#ff9b0b"/></g><path d="M15 3H9v6h6V3z" fill="#fff"/><g><path d="M13.5 6c0-.828-.672-1.5-1.5-1.5s-1.5.672-1.5 1.5.672 1.5 1.5 1.5 1.5-.672 1.5-1.5" fill="#ff9b0b"/></g><path d="M9 3H3v6h6V3z" fill="#fff"/><g><path d="M7.5 6c0-.828-.672-1.5-1.5-1.5S4.5 5.172 4.5 6 5.172 7.5 6 7.5 7.5 6.828 7.5 6" fill="#ff9b0b"/></g><path d="M3 3h-6v6h6V3z" fill="#fff"/><g><path d="M1.5 6c0-.828-.672-1.5-1.5-1.5s-1.5.672-1.5 1.5.672 1.5 1.5 1.5S1.5 6.828 1.5 6" fill="#ff9b0b"/></g><path d="M12 9H6v6h6V9z" fill="#fff"/><g><path d="M10.5 12c0-.828-.672-1.5-1.5-1.5s-1.5.672-1.5 1.5.672 1.5 1.5 1.5 1.5-.672 1.5-1.5" fill="#ff9b0b"/></g><path d="M6 9H0v6h6V9z" fill="#fff"/><g><path d="M4.5 12c0-.828-.672-1.5-1.5-1.5s-1.5.672-1.5 1.5.672 1.5 1.5 1.5 1.5-.672 1.5-1.5" fill="#ff9b0b"/></g></pattern><pattern height="12" width="12" patternUnits="userSpaceOnUse" patternTransform="matrix(.707 .707 -.707 .707 4190.03 7520.83)"><path d="M12-3H6v6h6v-6z" fill="#fff"/><g><path d="M10.5 0c0-.828-.672-1.5-1.5-1.5S7.5-.828 7.5 0 8.172 1.5 9 1.5 10.5.828 10.5 0" fill="#ff9b0b"/></g><path d="M6-3H0v6h6v-6z" fill="#fff"/><g><path d="M4.5 0c0-.828-.672-1.5-1.5-1.5S1.5-.828 1.5 0 2.172 1.5 3 1.5 4.5.828 4.5 0" fill="#ff9b0b"/></g><path d="M15 3H9v6h6V3z" fill="#fff"/><g><path d="M13.5 6c0-.828-.672-1.5-1.5-1.5s-1.5.672-1.5 1.5.672 1.5 1.5 1.5 1.5-.672 1.5-1.5" fill="#ff9b0b"/></g><path d="M9 3H3v6h6V3z" fill="#fff"/><g><path d="M7.5 6c0-.828-.672-1.5-1.5-1.5S4.5 5.172 4.5 6 5.172 7.5 6 7.5 7.5 6.828 7.5 6" fill="#ff9b0b"/></g><path d="M3 3h-6v6h6V3z" fill="#fff"/><g><path d="M1.5 6c0-.828-.672-1.5-1.5-1.5s-1.5.672-1.5 1.5.672 1.5 1.5 1.5S1.5 6.828 1.5 6" fill="#ff9b0b"/></g><path d="M12 9H6v6h6V9z" fill="#fff"/><g><path d="M10.5 12c0-.828-.672-1.5-1.5-1.5s-1.5.672-1.5 1.5.672 1.5 1.5 1.5 1.5-.672 1.5-1.5" fill="#ff9b0b"/></g><path d="M6 9H0v6h6V9z" fill="#fff"/><g><path d="M4.5 12c0-.828-.672-1.5-1.5-1.5s-1.5.672-1.5 1.5.672 1.5 1.5 1.5 1.5-.672 1.5-1.5" fill="#ff9b0b"/></g></pattern><clipPath><path d="M168.377 590.584v-72.25l20.042-14.417c0-33.137 26.84-60 59.978-60 33.137 0 59.98 26.863 59.98 60v86.667h-140z"/></clipPath><pattern height="12" width="12" patternUnits="userSpaceOnUse" patternTransform="matrix(.707 .707 -.707 .707 4190.03 7520.83)"><path d="M12-3H6v6h6v-6z" fill="#fff"/><g><path d="M10.5 0c0-.828-.672-1.5-1.5-1.5S7.5-.828 7.5 0 8.172 1.5 9 1.5 10.5.828 10.5 0" fill="#ff9b0b"/></g><path d="M6-3H0v6h6v-6z" fill="#fff"/><g><path d="M4.5 0c0-.828-.672-1.5-1.5-1.5S1.5-.828 1.5 0 2.172 1.5 3 1.5 4.5.828 4.5 0" fill="#ff9b0b"/></g><path d="M15 3H9v6h6V3z" fill="#fff"/><g><path d="M13.5 6c0-.828-.672-1.5-1.5-1.5s-1.5.672-1.5 1.5.672 1.5 1.5 1.5 1.5-.672 1.5-1.5" fill="#ff9b0b"/></g><path d="M9 3H3v6h6V3z" fill="#fff"/><g><path d="M7.5 6c0-.828-.672-1.5-1.5-1.5S4.5 5.172 4.5 6 5.172 7.5 6 7.5 7.5 6.828 7.5 6" fill="#ff9b0b"/></g><path d="M3 3h-6v6h6V3z" fill="#fff"/><g><path d="M1.5 6c0-.828-.672-1.5-1.5-1.5s-1.5.672-1.5 1.5.672 1.5 1.5 1.5S1.5 6.828 1.5 6" fill="#ff9b0b"/></g><path d="M12 9H6v6h6V9z" fill="#fff"/><g><path d="M10.5 12c0-.828-.672-1.5-1.5-1.5s-1.5.672-1.5 1.5.672 1.5 1.5 1.5 1.5-.672 1.5-1.5" fill="#ff9b0b"/></g><path d="M6 9H0v6h6V9z" fill="#fff"/><g><path d="M4.5 12c0-.828-.672-1.5-1.5-1.5s-1.5.672-1.5 1.5.672 1.5 1.5 1.5 1.5-.672 1.5-1.5" fill="#ff9b0b"/></g></pattern><pattern height="12" width="12" patternUnits="userSpaceOnUse" patternTransform="matrix(.707 .707 -.707 .707 4190.03 7520.83)"><path d="M12-3H6v6h6v-6z" fill="#fff"/><g><path d="M10.5 0c0-.828-.672-1.5-1.5-1.5S7.5-.828 7.5 0 8.172 1.5 9 1.5 10.5.828 10.5 0" fill="#ff9b0b"/></g><path d="M6-3H0v6h6v-6z" fill="#fff"/><g><path d="M4.5 0c0-.828-.672-1.5-1.5-1.5S1.5-.828 1.5 0 2.172 1.5 3 1.5 4.5.828 4.5 0" fill="#ff9b0b"/></g><path d="M15 3H9v6h6V3z" fill="#fff"/><g><path d="M13.5 6c0-.828-.672-1.5-1.5-1.5s-1.5.672-1.5 1.5.672 1.5 1.5 1.5 1.5-.672 1.5-1.5" fill="#ff9b0b"/></g><path d="M9 3H3v6h6V3z" fill="#fff"/><g><path d="M7.5 6c0-.828-.672-1.5-1.5-1.5S4.5 5.172 4.5 6 5.172 7.5 6 7.5 7.5 6.828 7.5 6" fill="#ff9b0b"/></g><path d="M3 3h-6v6h6V3z" fill="#fff"/><g><path d="M1.5 6c0-.828-.672-1.5-1.5-1.5s-1.5.672-1.5 1.5.672 1.5 1.5 1.5S1.5 6.828 1.5 6" fill="#ff9b0b"/></g><path d="M12 9H6v6h6V9z" fill="#fff"/><g><path d="M10.5 12c0-.828-.672-1.5-1.5-1.5s-1.5.672-1.5 1.5.672 1.5 1.5 1.5 1.5-.672 1.5-1.5" fill="#ff9b0b"/></g><path d="M6 9H0v6h6V9z" fill="#fff"/><g><path d="M4.5 12c0-.828-.672-1.5-1.5-1.5s-1.5.672-1.5 1.5.672 1.5 1.5 1.5 1.5-.672 1.5-1.5" fill="#ff9b0b"/></g></pattern><pattern id="d" height="12" width="12" patternUnits="userSpaceOnUse" patternTransform="matrix(.707 .707 -.707 .707 4190.12 7523.61)"><path d="M12-3H6v6h6v-6z" fill="#fff"/><g><path d="M10.5 0c0-.828-.672-1.5-1.5-1.5S7.5-.828 7.5 0 8.172 1.5 9 1.5 10.5.828 10.5 0" fill="#ff9b0b"/></g><path d="M6-3H0v6h6v-6z" fill="#fff"/><g><path d="M4.5 0c0-.828-.672-1.5-1.5-1.5S1.5-.828 1.5 0 2.172 1.5 3 1.5 4.5.828 4.5 0" fill="#ff9b0b"/></g><path d="M15 3H9v6h6V3z" fill="#fff"/><g><path d="M13.5 6c0-.828-.672-1.5-1.5-1.5s-1.5.672-1.5 1.5.672 1.5 1.5 1.5 1.5-.672 1.5-1.5" fill="#ff9b0b"/></g><path d="M9 3H3v6h6V3z" fill="#fff"/><g><path d="M7.5 6c0-.828-.672-1.5-1.5-1.5S4.5 5.172 4.5 6 5.172 7.5 6 7.5 7.5 6.828 7.5 6" fill="#ff9b0b"/></g><path d="M3 3h-6v6h6V3z" fill="#fff"/><g><path d="M1.5 6c0-.828-.672-1.5-1.5-1.5s-1.5.672-1.5 1.5.672 1.5 1.5 1.5S1.5 6.828 1.5 6" fill="#ff9b0b"/></g><path d="M12 9H6v6h6V9z" fill="#fff"/><g><path d="M10.5 12c0-.828-.672-1.5-1.5-1.5s-1.5.672-1.5 1.5.672 1.5 1.5 1.5 1.5-.672 1.5-1.5" fill="#ff9b0b"/></g><path d="M6 9H0v6h6V9z" fill="#fff"/><g><path d="M4.5 12c0-.828-.672-1.5-1.5-1.5s-1.5.672-1.5 1.5.672 1.5 1.5 1.5 1.5-.672 1.5-1.5" fill="#ff9b0b"/></g></pattern><clipPath id="a"><path d="M168.377 590.584v-72.25l20.042-14.417c0-33.137 26.84-60 59.978-60 33.137 0 59.98 26.863 59.98 60v86.667h-140z"/></clipPath><pattern id="b" height="12" width="12" patternUnits="userSpaceOnUse" patternTransform="matrix(.707 .707 -.707 .707 4190.03 7520.83)"><path d="M12-3H6v6h6v-6z" fill="#fff"/><g><path d="M10.5 0c0-.828-.672-1.5-1.5-1.5S7.5-.828 7.5 0 8.172 1.5 9 1.5 10.5.828 10.5 0" fill="#ff9b0b"/></g><path d="M6-3H0v6h6v-6z" fill="#fff"/><g><path d="M4.5 0c0-.828-.672-1.5-1.5-1.5S1.5-.828 1.5 0 2.172 1.5 3 1.5 4.5.828 4.5 0" fill="#ff9b0b"/></g><path d="M15 3H9v6h6V3z" fill="#fff"/><g><path d="M13.5 6c0-.828-.672-1.5-1.5-1.5s-1.5.672-1.5 1.5.672 1.5 1.5 1.5 1.5-.672 1.5-1.5" fill="#ff9b0b"/></g><path d="M9 3H3v6h6V3z" fill="#fff"/><g><path d="M7.5 6c0-.828-.672-1.5-1.5-1.5S4.5 5.172 4.5 6 5.172 7.5 6 7.5 7.5 6.828 7.5 6" fill="#ff9b0b"/></g><path d="M3 3h-6v6h6V3z" fill="#fff"/><g><path d="M1.5 6c0-.828-.672-1.5-1.5-1.5s-1.5.672-1.5 1.5.672 1.5 1.5 1.5S1.5 6.828 1.5 6" fill="#ff9b0b"/></g><path d="M12 9H6v6h6V9z" fill="#fff"/><g><path d="M10.5 12c0-.828-.672-1.5-1.5-1.5s-1.5.672-1.5 1.5.672 1.5 1.5 1.5 1.5-.672 1.5-1.5" fill="#ff9b0b"/></g><path d="M6 9H0v6h6V9z" fill="#fff"/><g><path d="M4.5 12c0-.828-.672-1.5-1.5-1.5s-1.5.672-1.5 1.5.672 1.5 1.5 1.5 1.5-.672 1.5-1.5" fill="#ff9b0b"/></g></pattern><pattern id="c" height="12" width="12" patternUnits="userSpaceOnUse" patternTransform="matrix(.707 .707 -.707 .707 4190.03 7520.83)"><path d="M12-3H6v6h6v-6z" fill="#fff"/><g><path d="M10.5 0c0-.828-.672-1.5-1.5-1.5S7.5-.828 7.5 0 8.172 1.5 9 1.5 10.5.828 10.5 0" fill="#ff9b0b"/></g><path d="M6-3H0v6h6v-6z" fill="#fff"/><g><path d="M4.5 0c0-.828-.672-1.5-1.5-1.5S1.5-.828 1.5 0 2.172 1.5 3 1.5 4.5.828 4.5 0" fill="#ff9b0b"/></g><path d="M15 3H9v6h6V3z" fill="#fff"/><g><path d="M13.5 6c0-.828-.672-1.5-1.5-1.5s-1.5.672-1.5 1.5.672 1.5 1.5 1.5 1.5-.672 1.5-1.5" fill="#ff9b0b"/></g><path d="M9 3H3v6h6V3z" fill="#fff"/><g><path d="M7.5 6c0-.828-.672-1.5-1.5-1.5S4.5 5.172 4.5 6 5.172 7.5 6 7.5 7.5 6.828 7.5 6" fill="#ff9b0b"/></g><path d="M3 3h-6v6h6V3z" fill="#fff"/><g><path d="M1.5 6c0-.828-.672-1.5-1.5-1.5s-1.5.672-1.5 1.5.672 1.5 1.5 1.5S1.5 6.828 1.5 6" fill="#ff9b0b"/></g><path d="M12 9H6v6h6V9z" fill="#fff"/><g><path d="M10.5 12c0-.828-.672-1.5-1.5-1.5s-1.5.672-1.5 1.5.672 1.5 1.5 1.5 1.5-.672 1.5-1.5" fill="#ff9b0b"/></g><path d="M6 9H0v6h6V9z" fill="#fff"/><g><path d="M4.5 12c0-.828-.672-1.5-1.5-1.5s-1.5.672-1.5 1.5.672 1.5 1.5 1.5 1.5-.672 1.5-1.5" fill="#ff9b0b"/></g></pattern></defs><g><g><g clip-path="url(#a)" transform="matrix(1.25 0 0 -1.25 -218.27 737.903)"><g><path d="M308.378 503.917c0-33.137-26.863-60-60-60s-60 26.863-60 60 26.863 60 60 60 60-26.863 60-60" fill="#fff"/></g><g><path d="M308.378 503.917c0-33.137-26.863-60-60-60s-60 26.863-60 60 26.863 60 60 60 60-26.863 60-60z" fill="none" stroke="#231f20" stroke-width="1.5"/></g><g><path d="M299.956 519.705s-.04 1.45-1.675 1.94c-1.633.49-2.545-.154-3.444.418-.9.572-3.333 1.02-3.333 1.02l.916.022-.667 1 .237.313.08.38-.203.19-.368.178s-.328.11-.41.232c-.08.122.164-.028-.08.136-.246.163-.695.456-.86.62-.162.163-.285.084-.448.574-.164.49-.286.738-.286.738s-.327.246-.368.368c-.04.123-.245.246-.245.49 0 .246.082.328 0 .45-.082.123-.082.205-.163.327-.082.124.122-.12-.082.124-.205.245-.286.163-.327.408-.04.246 0 .164-.04.41-.04.244-.204.326-.204.448 0 .123.122-.163 0 .123-.123.286-.204.245-.204.49s-.164.613-.164.613l-.286 1.798-.082.694s-.122.245-.163.41c-.04.162-1.145.53-1.145.53l-1.064 2.982v3.104l.418.9.582 3.267v.98l.707.695s.25 5.19.047 6.864c-.205 1.676-.896 5.924-1.632 7.885-.735 1.96-3.328 11.848-13.91 11.848 0 0-1.826.082-3.624-.45-1.797-.53-2.262-.694-3.61-1.225-1.348-.53-7.708-3.677-8.852-16.587 0 0-.852-7.475-.852-10.376 0-2.9.044-7.394.575-9.437.532-2.043.615-3.105.33-4.208-.287-1.104-1.553-3.964-2.41-4.617 0 0-2.084-.327-3.31-.776-1.225-.45-3.268-1.226-3.594-1.226-.327 0-2.043.94-3.31.94-1.266 0-3.8-.163-5.086-3.717-1.287-3.554-2.696-5.393-3.37-6.312-.674-.918-1.532-3.308-1.655-4.963-.122-1.654.307-3.615.062-4.78-.246-1.164-.613-2.328-.613-2.328s-1.838-4.78-2.267-5.394l-.367-.858s-1.9-.98-2.145-1.9c-.244-.92.614-.92.614-.92s-1.47-.734-1.655-1.776c-.185-1.042.918-1.042.918-1.042s.062-.613-.122-1.103-.674-3.677-.98-4.535c-.307-.858-.552-4.106-.307-5.576.244-1.47.673-2.942.673-3.555 0-.612.43-1.837 1.96-1.776 1.533.06 3.25.307 4.72-.368 1.47-.674 7.72-1.532 9.927-.796l-.43-2.697s-.673-.49-1.592-1.777c-.92-1.287-6.62-9.682-8.498-14.83 0 0-.735-4.33-.98-6.455-.245-2.123-.49-5.39-.41-8.333 0 0-.285-7.668 2.412-20.537 2.696-12.87 4.044-21.296 4.29-24.296h47.308s1.593 12.162 2.574 17.677c.98 5.517 1.716 9.576 1.348 12.517-.368 2.942-.368 3.93-.368 4.91s.49 2.087.246 3.19c-.246 1.103-.368 3.25-.368 4.353 0 1.103-.368 2.605-.49 3.953-.123 1.348-.613 3.203-.613 3.203s.98.743.98 2.336c0 0-.246 1.352-1.104 5.274-.858 3.922-1.225 5.395-1.225 8.09 0 2.698-.245 5.272-2.573 7.6l-.04 2.616s1.143.654 2.368 1.47c1.226.818 2.942 2.86 4.25 7.682 0 0 1.143-.082 1.715.654.572.735.082 1.062.082 1.062s1.47.572 1.144 1.88c0 0 1.47.816 1.062 2.86 0 0 1.062.49 1.307 1.306.245.817.572 1.96.817 3.024.246 1.062 1.063 3.595 1.39 4.33.326.735.408 1.798.408 1.798s1.716 2.94 2.45 4.657c.736 1.716 1.063 2.206 1.308 4.25.246 2.04.082 3.92.164 5.392.082 1.47.98 2.778.98 3.758s-.898 2.206-1.552 2.942c-.654.735-1.144 1.143-1.144 1.838" fill="#fff"/></g><g><path d="M299.956 519.705s-.04 1.45-1.675 1.94c-1.633.49-2.545-.154-3.444.418-.9.572-3.333 1.02-3.333 1.02l.916.022-.667 1 .237.313.08.38-.203.19-.368.178s-.328.11-.41.232c-.08.122.164-.028-.08.136-.246.163-.695.456-.86.62-.162.163-.285.084-.448.574-.164.49-.286.738-.286.738s-.327.246-.368.368c-.04.123-.245.246-.245.49 0 .246.082.328 0 .45-.082.123-.082.205-.163.327-.082.124.122-.12-.082.124-.205.245-.286.163-.327.408-.04.246 0 .164-.04.41-.04.244-.204.326-.204.448 0 .123.122-.163 0 .123-.123.286-.204.245-.204.49s-.164.613-.164.613l-.286 1.798-.082.694s-.122.245-.163.41c-.04.162-1.145.53-1.145.53l-1.064 2.982v3.104l.418.9.582 3.267v.98l.707.695s.25 5.19.047 6.864c-.205 1.676-.896 5.924-1.632 7.885-.735 1.96-3.328 11.848-13.91 11.848 0 0-1.826.082-3.624-.45-1.797-.53-2.262-.694-3.61-1.225-1.348-.53-7.708-3.677-8.852-16.587 0 0-.852-7.475-.852-10.376 0-2.9.044-7.394.575-9.437.532-2.043.615-3.105.33-4.208-.287-1.104-1.553-3.964-2.41-4.617 0 0-2.084-.327-3.31-.776-1.225-.45-3.268-1.226-3.594-1.226-.327 0-2.043.94-3.31.94-1.266 0-3.8-.163-5.086-3.717-1.287-3.554-2.696-5.393-3.37-6.312-.674-.918-1.532-3.308-1.655-4.963-.122-1.654.307-3.615.062-4.78-.246-1.164-.613-2.328-.613-2.328s-1.838-4.78-2.267-5.394l-.367-.858s-1.9-.98-2.145-1.9c-.244-.92.614-.92.614-.92s-1.47-.734-1.655-1.776c-.185-1.042.918-1.042.918-1.042s.062-.613-.122-1.103-.674-3.677-.98-4.535c-.307-.858-.552-4.106-.307-5.576.244-1.47.673-2.942.673-3.555 0-.612.43-1.837 1.96-1.776 1.533.06 3.25.307 4.72-.368 1.47-.674 7.72-1.532 9.927-.796l-.43-2.697s-.673-.49-1.592-1.777c-.92-1.287-6.62-9.682-8.498-14.83 0 0-.735-4.33-.98-6.455-.245-2.123-.49-5.39-.41-8.333 0 0-.285-7.668 2.412-20.537 2.696-12.87 4.044-21.296 4.29-24.296h47.308s1.593 12.162 2.574 17.677c.98 5.517 1.716 9.576 1.348 12.517-.368 2.942-.368 3.93-.368 4.91s.49 2.087.246 3.19c-.246 1.103-.368 3.25-.368 4.353 0 1.103-.368 2.605-.49 3.953-.123 1.348-.613 3.203-.613 3.203s.98.743.98 2.336c0 0-.246 1.352-1.104 5.274-.858 3.922-1.225 5.395-1.225 8.09 0 2.698-.245 5.272-2.573 7.6l-.04 2.616s1.143.654 2.368 1.47c1.226.818 2.942 2.86 4.25 7.682 0 0 1.143-.082 1.715.654.572.735.082 1.062.082 1.062s1.47.572 1.144 1.88c0 0 1.47.816 1.062 2.86 0 0 1.062.49 1.307 1.306.245.817.572 1.96.817 3.024.246 1.062 1.063 3.595 1.39 4.33.326.735.408 1.798.408 1.798s1.716 2.94 2.45 4.657c.736 1.716 1.063 2.206 1.308 4.25.246 2.04.082 3.92.164 5.392.082 1.47.98 2.778.98 3.758s-.898 2.206-1.552 2.942c-.654.735-1.144 1.143-1.144 1.838z" fill="none" stroke="#231f20" stroke-width="1.5"/></g><g><path d="M0 0c-.613-.614-4.78-1.715-6.863-1.96-2.084-.245-2.574-.245-4.535-.49-1.96-.245-3.064.122-6.496.858-3.432.735-4.167-.245-7.967-.858s-4.416 1.042-4.416 1.042c-.947-.013-2.17.042-3.674.43C-38.24.123-40.69.49-42.774.98c-2.084.49-2.084-.49-4.045 1.47-1.96 1.96-3.553 3.187-4.778 3.8-1.226.613-3.677 2.206-3.677 2.206l.326 1.348c1.88 5.148 7.58 13.543 8.5 14.83.918 1.287 1.592 1.777 1.592 1.777s2.942-1.042 4.78-1.41c1.84-.367 4.78-.98 6.374-1.225 1.593-.245 2.818-1.103 5.024-1.103 2.207 0 3.065 0 5.148-.123 2.084-.122 16.178-.245 19.61.736 2.33-2.33 2.574-4.903 2.574-7.6 0-2.696.368-4.167 1.226-8.09C.735 3.68.98 2.33.98 2.33.98.734 0-.002 0-.002" fill="url(#b)" transform="translate(287.169 444.901)"/></g><g><path d="M0 0l.368.858c.43.613 2.267 5.393 2.267 5.393s.368 1.165.613 2.33c.245 1.164-.184 3.125-.06 4.78.12 1.654.98 4.044 1.653 4.963.675.92 2.085 2.758 3.372 6.312 1.287 3.554 3.82 3.718 5.086 3.718 1.266 0 2.982-.94 3.31-.94.326 0 2.37.776 3.594 1.226 1.226.448 3.31.775 3.31.775l3.186 1.552s1.307 1.144 2.533 2.206c1.227 1.063 3.887 4.382 3.887 4.382l-.052-.046s-.2-2.385-.248-4.124c-.05-1.738 0-4.073 0-4.073s3.13-2.83 4.37-6.31l2.386 4.075s.248.447 1.64.596c1.39.15 3.178.944 3.774 1.69.596.744 1.088 2.582 2.28 3.923 1.192 1.34 2.975 3.576 2.975 3.576v1.242s.6-.943.95-1.49c.347-.546.834-.35 1.095-1.242.26-.892.594-2.226 1.02-2.83.425-.606 1.005-.35 1.453-1.293.448-.944.923-2.204 1.298-2.632.375-.43.3-1.193.897-1.292.597-.1 1.095-.546 1.69-.646.597-.1.3-.1 1.393-.1l2.284-.854s2.268-.35 3.167-.923c.897-.572 2.02-.025 3.655-.515 1.634-.49 1.675-1.94 1.675-1.94 0-.695.49-1.104 1.144-1.84.654-.735 1.553-1.96 1.553-2.94s-.9-2.29-.98-3.76c-.082-1.47.08-3.35-.164-5.392-.245-2.043-.572-2.533-1.307-4.25C70.33 2.452 68.614-.49 68.614-.49s-.082-1.062-.408-1.798c-.327-.735-1.144-3.268-1.39-4.33-.245-1.062-.57-2.206-.816-3.023 0 0-1.39 2.613-1.96 3.35-.573.734-.9 1.224-2.207 1.55-1.308.328-4.576.98-5.638.98-1.063 0-2.37 0-4.25-.49-1.878-.49-4.33-2.123-7.026-2.205-2.698-.082-7.19-.097-8.5-.506-1.306-.41-13.644-1.814-15.932-1.814h-6.373c0 1-.163 6.552-.163 6.552-.327-1.225-1.226-3.097-1.226-3.097l-.225.393c-.305.674-.918 2.985-1.163 3.78-.245.798-.735 2.566-1.655 2.75-.92.183-3.615.914-3.615.914s-.858.12-1.593-.125C3.738 2.147 1.9 1.778 1.9.982c0 0 .183-.37.49-.49L0 0z" fill="url(#c)" transform="translate(229.136 497.358)"/></g><g><path d="M262.3 540.93s2.93-5.66 9.385-5.66c0 0 3.432.082 6.13 2.697" fill="none" stroke="#231f20" stroke-width=".5"/></g><g><path d="M262.253 534.913s-2.66-3.32-3.886-4.382c-1.226-1.06-2.533-2.205-2.533-2.205l-3.187-1.552" fill="none" stroke="#231f20" stroke-width=".5"/></g><g><path d="M255.834 528.325s-3.187-2.86-3.677-5.883c0 0 4.412 5.638 6.945 6.373l-.49-2.45 1.716-1.798s.49-.98.654-1.226c.163-.244 1.716-.408 1.716-.408l1.715-.735s1.308-.082.327-4.33c-.98-4.25-2.288-7.19-3.023-12.502-.735-5.31-.817-15.933-.817-15.933" fill="none" stroke="#231f20" stroke-width=".5"/></g><g><path d="M264.495 490.086s-.082 11.357 1.062 14.626c1.144 3.268 3.514 10.295 1.062 15.606" fill="none" stroke="#231f20" stroke-width=".5"/></g><g><path d="M266.7 519.99l2.86 4.25s.654-.735 2.37.245c1.716.98 3.514 2.45 3.514 2.45l2.124-.898s.9-.653.9-.898c0-.246 2.94-5.64 2.94-5.64s.49 1.145 1.063 2.125.41 1.308.818 2.206c.408.9 1.39 3.025 1.39 3.025" fill="none" stroke="#231f20" stroke-width=".5"/></g><g><path d="M295.135 487.716s-1.39 2.615-1.96 3.35c-.573.736-.9 1.227-2.207 1.553-1.307.326-4.576.98-5.638.98-1.062 0-2.37 0-4.25-.49-1.878-.49-4.33-2.125-7.026-2.206-2.696-.082-7.19-.246-8.497-.654-1.308-.41-13.645-1.88-15.933-1.96-2.288-.084-7.272-.084-7.272-.084s-.102.695-.164 1.43c-.06.735-.245 2.084-.55 2.758-.308.674-.92 3.002-1.166 3.8-.245.796-.735 2.573-1.654 2.757-.92.185-3.616.92-3.616.92s-.858.123-1.593-.123c-.736-.245-2.575-.612-2.575-1.41 0 0 .184-.367.49-.49" fill="none" stroke="#231f20" stroke-width=".5"/></g><g><path d="M229.136 497.358s3.37.797 4.78.552c1.41-.246 2.33-.797 3.003-1.716.673-.92 1.96-1.96 2.45-2.39.49-.43 1.41-1.165 1.532-1.777" fill="none" stroke="#231f20" stroke-width=".5"/></g><g><path d="M227.604 494.54s3.554 1.225 4.167 1.408c.614.184 1.288.123 1.84-.367.55-.49 3.554-2.573 4.044-2.94" fill="none" stroke="#231f20" stroke-width=".5"/></g><g><path d="M226.868 491.72s1.716.858 3.003 1.164c1.288.307 2.146.736 2.942.43.797-.307 2.39-1.165 3.064-1.778" fill="none" stroke="#231f20" stroke-width=".5"/></g><g><path d="M227.052 491.78s-.735-1.776 1.226-1.47c1.96.307 2.88.43 3.493.43s1.042-.49 1.47-.613c.43-.123.86-1.47.86-1.47" fill="none" stroke="#231f20" stroke-width=".5"/></g><g><path d="M232.016 488.288s1.777.43 3.064.245c1.287-.184 7.272-.327 7.272-.327" fill="none" stroke="#231f20" stroke-width=".5"/></g><g><path d="M242.74 474.01s3.86.797 6.618 1.96c2.758 1.165 7.783 3.31 11.337 4.045 3.555.736 6.986 1.9 7.967 2.023.98.122 1.042-.062 2.206-.123 1.164-.06 4.964-.43 7.354-.43 2.39 0 5.147.37 6.312.185 1.164-.184 4.514-1.042 5.29-1.716" fill="none" stroke="#231f20" stroke-width=".5"/></g><g><path d="M291.622 481.67s-.837.674-1.573 1.226c-.736.55-2.207 1.225-4.78 1.715" fill="none" stroke="#231f20" stroke-width=".5"/></g><g><path d="M286.862 487.308l3.125-.368s1.655-.122 2.084-1.287c.43-1.164.695-2.104.695-2.104" fill="none" stroke="#231f20" stroke-width=".5"/></g><g><path d="M287.475 490.433s1.9-.368 3.187-.735c1.287-.368 1.532-.368 2.083-1.042.552-.674 1.083-2.247 1.083-2.247" fill="none" stroke="#231f20" stroke-width=".5"/></g><g><path d="M244.762 474.44s4.167-1.717 12.746-3.31c8.58-1.593 12.502-.98 16.546-.735 4.045.245 9.152.408 9.152.408" fill="none" stroke="#231f20" stroke-width=".5"/></g><g><path d="M241.862 491.965s.9 1.798 1.226 3.023c0 0 .163-5.31.163-6.7" fill="none" stroke="#231f20" stroke-width=".5"/></g><g><path d="M281.654 493.354s-.082 2.696.572 3.677c.654.98.327.818.735 2.044.41 1.225 1.064 2.287 1.064 2.287s-2.288 3.678-2.288 6.783" fill="none" stroke="#231f20" stroke-width=".5"/></g><g><path d="M284.023 501.362s1.716 2.206 3.922 2.124c2.206-.08 5.638-.817 6.537-1.307.898-.49 1.39-.98 1.88-1.962.49-.98 1.47-2.288 1.388-3.35" fill="none" stroke="#231f20" stroke-width=".5"/></g><g><path d="M243.087 494.988s-.082 4.167.572 6.29c.653 2.126.244 3.188.898 5.394.653 2.206.49 2.533 1.144 4.412.653 1.88 1.552 4.004 1.552 5.638" fill="none" stroke="#231f20" stroke-width=".5"/></g><g><path d="M243.986 502.424s-5.638 6.7-11.603 3.513" fill="none" stroke="#231f20" stroke-width=".5"/></g><g><path d="M242.31 471.314s2.942-1.042 4.78-1.41c1.84-.367 4.78-.98 6.374-1.225 1.593-.246 2.82-1.104 5.025-1.104 2.205 0 3.063 0 5.147-.123 2.083-.122 16.178-.245 19.61.736" fill="none" stroke="#231f20" stroke-width=".5"/></g><g><path d="M262.901 467.575c.002 0-3.675-13.36-3.43-23.655 0 0-1.962-1.103-6.25 0-4.29 1.104-6.742 1.47-8.826 1.96-2.083.492-2.083-.49-4.044 1.472-1.96 1.96-3.555 3.187-4.78 3.8-1.226.612-3.677 2.206-3.677 2.206" fill="none" stroke="#231f20" stroke-width=".5"/></g><g><path d="M258.49 467.575s-3.8-18.262-3.188-23.655" fill="none" stroke="#231f20" stroke-width=".5"/></g><g><path d="M256.896 443.553s.613-1.716 4.412-1.103c3.8.613 4.535 1.593 7.967.858 3.43-.735 4.535-1.103 6.496-.858 1.962.245 2.452.245 4.535.49 2.084.245 6.25 1.346 6.864 1.96" fill="none" stroke="#231f20" stroke-width=".5"/></g><g><path d="M282.866 554.24s-.745.668-2.335 1.44c-1.59.774-5.71 2.287-6.705 4.572 0 0 1.292-3.18 2.633-3.627 0 0-2.93-1.192-6.16 3.28 0 0 .05-3.13.447-3.975 0 0-2.98 5.613-3.13 6.557 0 0 .647-4.868 1.342-5.812 0 0-1.987 3.03-2.186 3.726l.846-3.874s-2.583 6.16-2.534 7.7c0 0-.1-5.564.15-6.905l-1.54 6.508s-.1-4.62.496-6.507c0 0-2.036 4.074-2.086 5.217 0 0-.696-5.614.05-7.402l-1.74 4.77-.446-6.11-.298-.1-.398.695s-.345-.35-.695-.348c-.35.002-1.39.398-1.39 1.938l-.845.248-.547-.298-.348-.447.15-1.143.397-.596s-.845-5.86 3.924-6.457c0 0 .845-4.918 2.434-6.36l-.15-6.06s-.197-2.384-.247-4.122c-.05-1.74 0-4.074 0-4.074s3.13-2.83 4.37-6.307l2.386 4.073s.247.447 1.638.596c1.39.15 3.18.944 3.775 1.69.596.744 1.338 2.582 2.53 3.923 1.192 1.342 3.225 3.577 3.225 3.577v5.96s1.842 2.932 2.24 7.204c0 0 2.907.074 3.155 3.5.25 3.43-.122 4.2-.122 4.2h-.694l-.646-.175-.944-.67z" fill="none" stroke="#231f20" stroke-width=".5" stroke-linecap="round"/></g><g><path d="M279.587 535.463s.497-.944.844-1.49c.35-.547.784-.35 1.045-1.242.26-.892.568-2.226.993-2.83.425-.606.993-.348 1.44-1.292.45-.944.917-2.205 1.292-2.633.375-.428.298-1.192.894-1.292.597-.1 1.093-.546 1.69-.645.596-.1.297-.1 1.39-.1l2.64-.917" fill="none" stroke="#231f20" stroke-width=".5" stroke-linecap="round"/></g><g><path d="M259.47 547.486c0-.406-.33-.735-.735-.735-.407 0-.736.33-.736.736 0 .406.328.735.735.735.406 0 .735-.328.735-.734" fill="#fff"/></g><g><path d="M259.47 547.486c0-.406-.33-.735-.735-.735-.407 0-.736.33-.736.736 0 .406.328.735.735.735.406 0 .735-.328.735-.734z" fill="none" stroke="#231f20" stroke-width=".5"/></g><g><path d="M284.472 547.976c0-.406-.33-.735-.735-.735-.407 0-.736.33-.736.736 0 .406.33.735.737.735.406 0 .735-.328.735-.734" fill="#fff"/></g><g><path d="M284.472 547.976c0-.406-.33-.735-.735-.735-.407 0-.736.33-.736.736 0 .406.33.735.737.735.406 0 .735-.328.735-.734z" fill="none" stroke="#231f20" stroke-width=".5"/></g><g><path d="M236.198 555.56c1.903 1.875 3.085 4.48 3.085 7.36 0 5.11-3.71 9.34-8.58 10.174-1.02 2.73-3.644 4.674-6.73 4.674-2.023 0-3.85-.84-5.156-2.186-1.255 2.105-3.547 3.52-6.176 3.52-1.408 0-2.718-.41-3.827-1.11-1.88 1.956-4.518 3.18-7.447 3.18-5.707-.002-10.333-4.628-10.333-10.335-3.91 0-7.084-3.122-7.183-7.008-4.823-.874-8.484-5.085-8.484-10.16 0-4.75 3.208-8.74 7.573-9.95-.152-.58-.24-1.184-.24-1.81 0-3.972 3.22-7.192 7.19-7.192.286 0 .565.02.84.053.325-3.672 3.405-6.553 7.16-6.553 2.494 0 4.69 1.27 5.98 3.196 1.888-2.04 4.58-3.326 7.58-3.326 3.768 0 7.056 2.024 8.86 5.037.957-.47 2.028-.74 3.164-.74 3.972 0 7.192 3.22 7.192 7.19 0 .53-.06 1.042-.168 1.537.552-.123 1.124-.193 1.713-.193 4.347 0 7.87 3.523 7.87 7.868 0 2.89-1.562 5.408-3.882 6.776" fill="#fff"/></g><g><path d="M236.198 555.56c1.903 1.875 3.085 4.48 3.085 7.36 0 5.11-3.71 9.34-8.58 10.174-1.02 2.73-3.644 4.674-6.73 4.674-2.023 0-3.85-.84-5.156-2.186-1.255 2.105-3.547 3.52-6.176 3.52-1.408 0-2.718-.41-3.827-1.11-1.88 1.956-4.518 3.18-7.447 3.18-5.707-.002-10.333-4.628-10.333-10.335-3.91 0-7.084-3.122-7.183-7.008-4.823-.874-8.484-5.085-8.484-10.16 0-4.75 3.208-8.74 7.573-9.95-.152-.58-.24-1.184-.24-1.81 0-3.972 3.22-7.192 7.19-7.192.286 0 .565.02.84.053.325-3.672 3.405-6.553 7.16-6.553 2.494 0 4.69 1.27 5.98 3.196 1.888-2.04 4.58-3.326 7.58-3.326 3.768 0 7.056 2.024 8.86 5.037.957-.47 2.028-.74 3.164-.74 3.972 0 7.192 3.22 7.192 7.19 0 .53-.06 1.042-.168 1.537.552-.123 1.124-.193 1.713-.193 4.347 0 7.87 3.523 7.87 7.868 0 2.89-1.562 5.408-3.882 6.776z" fill="none" stroke="#231f20" stroke-width="1.5"/></g><g><path d="M247.375 557.552c0-1.425-1.422-2.58-3.176-2.58-1.756 0-3.178 1.155-3.178 2.58s1.422 2.58 3.177 2.58c1.753 0 3.175-1.155 3.175-2.58" fill="#fff"/></g><g><path d="M247.375 557.552c0-1.425-1.422-2.58-3.176-2.58-1.756 0-3.178 1.155-3.178 2.58s1.422 2.58 3.177 2.58c1.753 0 3.175-1.155 3.175-2.58z" fill="none" stroke="#231f20" stroke-width="1.5" stroke-linecap="round" stroke-linejoin="round"/></g><g><path d="M252.244 552.367c0-.838-.836-1.516-1.866-1.516-1.03 0-1.867.68-1.867 1.517 0 .837.837 1.516 1.868 1.516 1.03 0 1.866-.68 1.866-1.516" fill="#fff"/></g><g><path d="M252.244 552.367c0-.838-.836-1.516-1.866-1.516-1.03 0-1.867.68-1.867 1.517 0 .837.837 1.516 1.868 1.516 1.03 0 1.866-.68 1.866-1.516z" fill="none" stroke="#231f20" stroke-width="1.5" stroke-linecap="round" stroke-linejoin="round"/></g><g><path d="M308.378 503.917c0-33.137-26.863-60-60-60s-60 26.863-60 60" fill="none" stroke="#231f20" stroke-width="1.5"/></g><g><path d="M299.956 519.705s-.04 1.45-1.675 1.94c-1.633.49-2.545-.154-3.444.418-.9.572-3.333 1.02-3.333 1.02l.916.022-.667 1 .237.313.08.38-.203.19-.368.178s-.328.11-.41.232c-.08.122.164-.028-.08.136-.246.163-.695.456-.86.62-.162.163-.285.084-.448.574-.164.49-.286.738-.286.738s-.327.246-.368.368c-.04.123-.245.246-.245.49 0 .246.082.328 0 .45-.082.123-.082.205-.163.327-.082.124.122-.12-.082.124-.205.245-.286.163-.327.408-.04.246 0 .164-.04.41-.04.244-.204.326-.204.448 0 .123.122-.163 0 .123-.123.286-.204.245-.204.49s-.164.613-.164.613l-.286 1.798-.082.694s-.122.245-.163.41c-.04.162-1.145.53-1.145.53l-1.064 2.982v3.104l.418.9.582 3.267v.98l.707.695s.25 5.19.047 6.864c-.205 1.676-.896 5.924-1.632 7.885-.735 1.96-3.328 11.848-13.91 11.848 0 0-1.826.082-3.624-.45-1.797-.53-2.262-.694-3.61-1.225-1.348-.53-7.708-3.677-8.852-16.587 0 0-.852-7.475-.852-10.376 0-2.9.044-7.394.575-9.437.532-2.043.615-3.105.33-4.208-.287-1.104-1.553-3.964-2.41-4.617 0 0-2.084-.327-3.31-.776-1.225-.45-3.268-1.226-3.594-1.226-.327 0-2.043.94-3.31.94-1.266 0-3.8-.163-5.086-3.717-1.287-3.554-2.696-5.393-3.37-6.312-.674-.918-1.532-3.308-1.655-4.963-.122-1.654.307-3.615.062-4.78-.246-1.164-.613-2.328-.613-2.328s-1.838-4.78-2.267-5.394l-.367-.858s-1.9-.98-2.145-1.9c-.244-.92.614-.92.614-.92s-1.47-.734-1.655-1.776c-.185-1.042.918-1.042.918-1.042s.062-.613-.122-1.103-.674-3.677-.98-4.535c-.307-.858-.552-4.106-.307-5.576.244-1.47.673-2.942.673-3.555 0-.612.43-1.837 1.96-1.776 1.533.06 3.25.307 4.72-.368 1.47-.674 7.72-1.532 9.927-.796l-.43-2.697s-.673-.49-1.592-1.777c-.92-1.287-6.62-9.682-8.498-14.83 0 0-.735-4.33-.98-6.455-.245-2.123-.49-5.39-.41-8.333 0 0-.285-7.668 2.412-20.537 2.696-12.87 4.044-21.296 4.29-24.296h47.308s1.593 12.162 2.574 17.677c.98 5.517 1.716 9.576 1.348 12.517-.368 2.942-.368 3.93-.368 4.91s.49 2.087.246 3.19c-.246 1.103-.368 3.25-.368 4.353 0 1.103-.368 2.605-.49 3.953-.123 1.348-.613 3.203-.613 3.203s.98.743.98 2.336c0 0-.246 1.352-1.104 5.274-.858 3.922-1.225 5.395-1.225 8.09 0 2.698-.245 5.272-2.573 7.6l-.04 2.616s1.143.654 2.368 1.47c1.226.818 2.942 2.86 4.25 7.682 0 0 1.143-.082 1.715.654.572.735.082 1.062.082 1.062s1.47.572 1.144 1.88c0 0 1.47.816 1.062 2.86 0 0 1.062.49 1.307 1.306.245.817.572 1.96.817 3.024.246 1.062 1.063 3.595 1.39 4.33.326.735.408 1.798.408 1.798s1.716 2.94 2.45 4.657c.736 1.716 1.063 2.206 1.308 4.25.246 2.04.082 3.92.164 5.392.082 1.47.98 2.778.98 3.758s-.898 2.206-1.552 2.942c-.654.735-1.144 1.143-1.144 1.838z" fill="none" stroke="#231f20" stroke-width="1.5"/></g></g></g><g><path d="M153.682 65.04c8.52 12.168 13.52 26.984 13.52 42.966 0 41.422-33.58 75-75 75s-75-33.578-75-75c0-7.562 1.12-14.864 3.2-21.747" fill="none" stroke="#231f20" stroke-width="1.25.5"/></g><g><path d="M34.832 73.192c-.24 0-.52-.01-.86-.027l-.283-.017c-1.63-.09-1.66-.094-2.144-.236-.104-.03-.235-.07-.428-.12-1.065-.278-2.75-1.015-3.466-1.628-.126-.108-.24-.197-.34-.276-.416-.327-.775-.61-.922-1.355-.223-1.104-.447-2.48-.21-3.33.062-.227.098-.4.127-.54.076-.365.14-.68.518-1.056.128-.13.258-.218.378-.28-.02-.096-.033-.206-.033-.335 0-.075 0-.084-.144-.244-.074-.084-.15-.17-.224-.275-.237-.33-.724-1.657-.33-2.28-.404-.58-.87-1.4-.834-2.086-.346-.29-.897-.745-1.126-.916-.512-.384-1.092-1.464-.85-2.493.07-.31.184-.61.3-.92.165-.44.32-.854.344-1.304.026-.507.116-.972.2-1.305-.53-.336-1.36-.964-1.658-1.746-.315-.83-.098-3.156.06-4.463l-.81-.073-1.255-.326.027-.506c.007-.16.063-.993.328-1.523.088-.18.447-1.29.763-2.27.436-1.348.93-2.877 1.243-3.672l.3-.765c.873-2.247 1.695-4.316 2.15-4.962l.204-.293c.56-.81 1.323-1.92 2.394-2.605.708-.453 1.36-.98 1.792-1.333.25-.202.43-.344.515-.396.056-.033.15-.137.2-.21.073-.09.52-.58 1.16-.976.43-.264 1.224-.96 1.493-1.207.295-.198.537-.384.595-.457.29-.362.956-.722 1.395-.832.117-.03.257-.043.44-.043.31 0 .733.045 1.053.08l.193.02c-.14-.29-.293-.74-.41-1.15-.098.016-.2.027-.304.027-.24 0-.46-.056-.65-.166-.482-.28-1.022-.617-1.32-1.09l-.307-.486c-.255-.4-.565-.884-.714-1.138-.054-.092-.154-.238-.272-.41-.543-.802-.933-1.403-.978-1.85-.02-.19-.077-.766.34-1.225.227-.252.552-.416.968-.488-.183-.588-.44-1.38-.64-1.888-.2-.507-1.16-3.307-.92-4.366.15-.662.564-2.294 1.152-3.155.175-.26.317-.482.448-.69.244-.386.455-.72.775-1.107.1-.122.183-.235.26-.34.292-.397.593-.805 1.313-1.045.212-.07.415-.127.605-.18.336-.09.653-.178.772-.297.408-.41 1.28-.907 1.55-1.04.193-.1.354-.164.515-.227l.21-.088c.35-.15 1.6-.38 2.23-.412.245-.013.545-.048.843-.08.416-.048.828-.092 1.11-.092.066 0 .126.003.178.007.33.026 2.347.28 3.372.792 1.035.52 2.408 1.274 3.07 1.935.562.56 2.098 2.542 2.228 3.675.167 1.44.222 2.442.167 3.067-.03.352-.03.536-.03.7 0 .198 0 .372-.037.702-.06.544-.132 1.12-.285 1.656-.05.178-.158.455-.28.745h.012c.16 0 .318.028.468.08 1.225.43.755 1.834.444 2.764-.175.524-.365.936-.55 1.335-.18.39-.35.76-.46 1.127-.073.253-.093.5-.113.716-.033.362-.076.826-.377 1.136-.044.486-.175 1.4-.563 2.136.272.195.525.475.684.866.498.253 1.105.802 1.153 1.738.106.294.316.915.35 1.27.005-.005.01-.006.016-.006.02 0 .055.017.085.032l.167.09c.648.346 1.346.77 1.623 1.273.23.42.46.797.712 1.153.346.49.68 1.555.73 2.325.068 1.055.038 1.816-.09 2.26-.125.444-.252.906-.316 1.244-.063.336-.476 3.207-.52 3.91-.03.506-.015 1.097-.006 1.54l.008.472c0 .138.02.344.043.545l.137-.018c.134-.015.146-.02.18-.04.374-.238.584-.275 1.065-.275.24 0 .41-.03.55-.053l.252-.036.097-.002c.322 0 .93.115 1.258.196l.265.074c.173.048.26.073.478.086.433.024.67.037 1.028.287.246.172.59.482.84.982l.09.172c.163.305.345.652.393 1.174.027.28.042.326.127.58l.256.784c.25.744.63 1.87.567 2.83-.06.894-.26 1.99-.323 2.32.02.105.08.37.276.837.41.983.656 2.238.743 2.732.096.54.203.985.25 1.172.6.932 1.203 2.635-.08 3.563l-.24.174c-.677.49-1.294.94-1.902 1.193.28.285.62.598.987.853l.176.12c1.936 1.345 2.538 1.86 2.538 2.463 0 .573-.737 2.15-3.11 2.15-.606 0-1.28-.107-2.006-.316-1.318-.38-2.296-.666-3.03-.88-1.156-.34-1.69-.497-1.996-.563-.54-.117-2.577-.87-2.674-2.4-.037-.616-.055-1.443-.06-2.096l-.978.39c-.427.17-1.434.505-2.237.772-.445.147-.826.273-1 .337-.35.128-.636.22-.774.266l-.802.54c.18.18.324.39.37.627.196 1.054-.287 1.877-1.264 2.15-.903.25-2.278.697-2.713.876l-.024.074c-.123.35-.408 1.165-1.35 1.165-.197 0-.367-.005-.514-.01l-.35-.006c-.02.02-.036.037-.054.053v.087c0 .192-.035.346-.074.46.09.08.228.162.36.24.307.184.687.41.755.862.027.19.002.486-.28.796-.29.32-.55.51-.8.693-.17.123-.35.254-.562.447-.18.167-.34.374-.492.57-.31.396-.627.805-1.1 1l-.178.077c-.28.124-.347.133-.785.192l-.597.082c-.363.05-.535.12-.734.198-.41.16-.77.276-1.66.276" fill="#fff"/></g><g><path d="M43.66 0c-.334 0-.745.046-1.18.095-.286.03-.573.064-.804.076-.665.036-1.994.27-2.444.464l-.195.08c-.176.07-.352.142-.565.25-.233.116-1.21.655-1.712 1.16-.034.008-.3.08-.493.135-.2.054-.415.114-.638.188-.91.302-1.303.837-1.62 1.267-.07.096-.148.2-.24.314-.343.416-.574.78-.82 1.17-.128.2-.265.42-.438.67-.647.95-1.085 2.673-1.243 3.37-.315 1.384.934 4.7.946 4.732.134.338.293.807.436 1.253-.25.12-.466.278-.646.476-.4.443-.566 1.016-.498 1.708.06.593.468 1.23 1.083 2.136.108.158.202.292.252.377.15.257.46.74.718 1.145l.313.494c.372.594.988.983 1.536 1.3.023.014.05.028.075.04-.084.01-.163.026-.238.044-.548.137-1.346.567-1.73 1.05-.03.027-.216.165-.357.255l-.09.056-.082.074c-.358.328-1.056.925-1.398 1.136-.705.434-1.19.963-1.243 1.022l-.06.067-.05.075c-.007.007-.034.04-.046.05-.103.057-.26.185-.543.415-.42.343-1.056.858-1.732 1.29-1.178.754-2.015 1.97-2.57 2.774l-.202.29c-.497.705-1.302 2.726-2.225 5.1l-.296.76c-.32.814-.82 2.353-1.257 3.71-.287.89-.643 1.992-.735 2.2-.303.606-.372 1.495-.385 1.752l-.053 1.013.98.26.66.177.103.028.106.01.172.015c-.16 1.506-.256 3.31.053 4.12.293.77.97 1.393 1.538 1.804-.056.293-.103.63-.12.993-.018.352-.152.706-.306 1.115-.117.31-.24.633-.325.996-.29 1.236.323 2.566 1.085 3.137.164.124.545.438.884.718.065.625.376 1.276.747 1.855-.274.98.304 2.265.525 2.575.063.086.125.163.188.236l-.098.09c-.507.51-.602.967-.687 1.372-.027.13-.06.29-.118.5-.27.975-.036 2.448.2 3.622.193.968.7 1.368 1.15 1.72.093.076.2.158.32.26.79.68 2.56 1.458 3.714 1.76.185.047.31.085.41.113.553.165.65.17 2.286.263l.28.016c.352.02.646.028.895.028 1 0 1.43-.14 1.89-.32.183-.072.305-.12.593-.16l.59-.082c.48-.065.608-.085.955-.238l.17-.073c.623-.26 1.01-.755 1.35-1.19.15-.194.292-.376.423-.496.182-.166.333-.277.51-.406.262-.193.56-.41.893-.778.47-.517.474-1.042.434-1.308-.067-.452-.31-.76-.57-.977.77-.057 1.338-.52 1.69-1.372.55-.198 1.623-.543 2.396-.76 1.297-.362 1.967-1.487 1.708-2.865-.022-.123-.06-.238-.108-.348l.205-.14c.16-.05.41-.136.71-.245.174-.062.556-.19 1-.337.846-.28 1.803-.598 2.255-.78.043-.015.088-.034.135-.053.01.426.025.855.048 1.22.118 1.89 2.38 2.8 3.163 2.97.27.06.837.226 1.964.556.733.214 1.71.5 3.023.88.78.224 1.515.34 2.178.34 2.64 0 3.737-1.808 3.737-2.776 0-.984-.91-1.66-2.803-2.972l-.18-.125c-.09-.063-.18-.13-.267-.2.387-.242.78-.527 1.193-.827l.238-.172c1.428-1.03 1.166-2.915.298-4.318-.05-.212-.138-.59-.216-1.033-.09-.514-.35-1.823-.782-2.863-.124-.3-.185-.496-.215-.607.082-.443.253-1.437.308-2.268.072-1.09-.332-2.284-.598-3.076-.045-.132-.085-.25-.117-.35-.057-.186-.102-.32-.138-.43-.078-.23-.078-.23-.097-.44-.058-.645-.292-1.086-.462-1.407l-.083-.16c-.244-.49-.604-.91-1.04-1.214-.505-.355-.88-.376-1.314-.4-.186-.01-.218-.02-.376-.065-.082-.024-.175-.05-.287-.077-.24-.06-.963-.217-1.41-.217h-.07l-.13.01c-.075.01-.158.023-.248.038-.145.023-.27.043-.45.043-.317 0-.56.02-.804.09l-.003-.16c-.01-.43-.023-1.02.006-1.49.04-.665.45-3.51.51-3.832.06-.323.202-.832.303-1.187.055-.19.222-.772.113-2.47-.06-.897-.43-2.06-.844-2.647-.224-.318-.445-.675-.675-1.093-.354-.642-1.107-1.11-1.87-1.52l-.01-.006c-.07-.31-.182-.656-.29-.96-.082-.96-.64-1.665-1.29-2.06-.112-.223-.25-.414-.405-.576.245-.624.358-1.273.41-1.73.314-.45.365-1 .395-1.324.02-.215.04-.42.09-.6.095-.32.258-.67.43-1.04.18-.39.384-.83.55-1.326l.024-.075c.283-.847.935-2.797-.674-3.49.014-.043.027-.085.037-.123.167-.58.24-1.162.305-1.76.042-.365.042-.58.042-.77 0-.15 0-.32.027-.646.06-.665.004-1.71-.17-3.194-.16-1.407-1.92-3.56-2.405-4.045-.577-.577-1.665-1.267-3.234-2.05-1.127-.566-3.233-.83-3.602-.857C43.818.003 43.743 0 43.66 0m0 1.25c.048 0 .09 0 .13.005.43.033 2.28.296 3.14.726.86.43 2.28 1.19 2.908 1.82.628.628 1.95 2.445 2.05 3.304.098.86.23 2.18.164 2.94-.066.76 0 .795-.066 1.39-.066.595-.13 1.09-.264 1.552-.132.464-.76 1.82-.76 1.82v.297s.523-.574 1.093-.574c.087 0 .175.013.262.043.66.232.33 1.157.033 2.05-.298.89-.76 1.618-.992 2.412-.23.793-.032 1.52-.496 1.685 0 0-.065 2.005-.925 2.733 0 0 .925.132 1.146 1.078 0 0 1.035.288 1.035 1.39 0 0 .33.903.353 1.234.023.33.287.42.53.55.242.132 1.19.617 1.432 1.06.243.44.485.835.75 1.21.264.375.57 1.322.616 2.005.044.68.065 1.585-.066 2.048-.132.462-.265.947-.33 1.3-.067.352-.485 3.26-.53 3.987-.044.728 0 1.63 0 2.05 0 .42.133 1.234.133 1.234s.03.003.087.003c.085 0 .225-.01.398-.05.286-.064.462-.02.705-.175.242-.154.33-.177.727-.177.396 0 .64-.065.836-.086.018-.003.04-.003.062-.003.243 0 .785.1 1.106.18.354.088.464.154.86.176.396.023.485.023.705.177.22.153.463.396.64.748.176.354.375.64.418 1.125.044.485.088.485.287 1.124.198.638.727 1.96.66 2.974-.065 1.012-.33 2.335-.33 2.335s0 .308.33 1.1c.33.794.573 1.85.706 2.6s.287 1.323.287 1.323 1.323 1.938.133 2.797c-1.095.79-1.967 1.47-2.768 1.47-.07 0-.14-.005-.207-.016 0 0 .815 1.08 1.828 1.785 1.014.704 2.447 1.674 2.447 2.07 0 .314-.553 1.525-2.487 1.525-.51 0-1.115-.084-1.832-.29-3.437-.992-4.56-1.345-5.067-1.455-.506-.11-2.115-.77-2.18-1.83-.067-1.056-.067-2.752-.067-2.974 0 0-1.168.463-1.83.728-.66.264-2.73.925-3.215 1.1-.484.177-.837.287-.837.287l-1.63 1.104s.793.396.86.75c.065.35.132 1.166-.816 1.43-.947.265-2.732.84-2.974.992-.242.154-.198 1.102-.947 1.102-.334 0-.588-.018-.784-.018-.245 0-.396.028-.495.15-.176.22-.264.133-.264.616 0 .485-.352.442.088.882.442.44 1.28.573.838 1.058-.44.484-.792.617-1.32 1.102-.53.485-.883 1.233-1.412 1.453-.53.22-.176.134-1.41.31-1.063.15-.883.468-2.305.468-.228 0-.498-.01-.822-.028-2.336-.13-1.718-.088-2.732-.352-1.014-.264-2.6-.97-3.216-1.498-.618-.53-.927-.617-1.06-1.278-.13-.66-.44-2.247-.22-3.04.22-.793.133-.97.486-1.322.352-.353.66-.176.705-.398.045-.22-.175-.22-.175-.66 0-.44-.265-.573-.485-.88-.22-.31-.485-1.323-.31-1.588.177-.264.133-.484.133-.484s-1.19-1.586-.792-2.16c0 0-1.102-.925-1.454-1.19-.353-.264-.793-1.1-.616-1.85.176-.75.616-1.454.66-2.335.045-.88.308-1.63.308-1.63s-1.453-.75-1.806-1.675c-.352-.926.176-4.804.176-4.804l-1.453-.132-.662-.177s.044-.836.264-1.277c.22-.44 1.455-4.54 2.028-5.993.572-1.455 1.85-4.847 2.38-5.596.528-.748 1.32-2.026 2.423-2.73 1.102-.706 2.07-1.588 2.292-1.72.22-.13.396-.396.396-.396s.396-.44.97-.793c.572-.35 1.585-1.278 1.585-1.278s.486-.308.662-.528c.176-.22.705-.53 1.058-.617.07-.017.17-.025.288-.025.47 0 1.21.113 1.387.113.22 0 .572-.176.572-.176s.09-.33-.087-.618c-.177-.286-.485-1.256-.595-1.807 0 0-.378.214-.743.214-.12 0-.235-.024-.337-.083-.42-.242-.882-.528-1.102-.88-.22-.353-.793-1.235-1.013-1.61-.22-.373-1.124-1.563-1.168-2.005-.04-.41-.005-1.068 1.226-1.068.092 0 .19.003.294.01 0 0-.53-1.783-.892-2.71-.364-.924-1.058-3.27-.893-3.998.166-.726.563-2.214 1.058-2.94.496-.73.727-1.19 1.19-1.752.462-.562.595-.96 1.288-1.19.694-.232 1.29-.298 1.62-.628.33-.33 1.124-.794 1.388-.925.266-.13.463-.198.695-.296.232-.1 1.388-.332 2.016-.364.572-.03 1.445-.17 1.92-.17" fill="#231f20"/></g><g><path d="M0 0c.092-.43.184-.967.142-1.472-.053-.634-.388-2.697-.546-3.72-.16-1.02-.476-2.572-.688-3.348-.21-.775-.23-1.92-.23-2.556 0-.634.265-2.273.918-2.908.652-.634 1.374-.564 1.92-.476.547.088 1.235.212 1.48.705.248.494.178.617.548.987.37.37 1.604 1.64 1.586 2.556-.01.5-.23 1.27-.48 2.03l-.066.024c.793-.344 1.463-1.72 1.463-1.72s.158-.017.387.036c.23.053.37.018.565.14.192.125.263.142.58.142.317 0 .51.053.67.07.16.018.652-.07.934-.14.282-.07.37-.124.688-.14.317-.02.387-.02.564-.142.176-.124.37-.318.51-.6.142-.28.3-.51.336-.898.035-.388.07-.388.23-.9.157-.51.58-1.568.528-2.38-.053-.81-.265-1.867-.265-1.867s0-.247.265-.88c.264-.636.458-1.482.564-2.08.105-.6.23-1.06.23-1.06s1.056-1.55.105-2.237c-.953-.688-1.694-1.27-2.38-1.164-1.852.07-2.01.67-2.01.67-1.428.21-3.173.793-3.173.793-.212-.53-.705-.53-.705-.53l-1.463-.58c-.53-.212-2.187-.74-2.575-.882-.387-.14-.67-.23-.67-.23l-1.304-.88s-1.506-.467-2.484-.467c0 0 .705-.6.14-2.07-.193-.125-.158-.882-.757-.882-.6 0-.882.07-1.023-.106-.14-.177-.212-.106-.212-.494s-.282-.352.07-.705c.354-.353 1.023-.46.67-.847-.352-.388-.634-.493-1.057-.88-.423-.39-.705-.988-1.128-1.164-.423-.178-.14-.107-1.128-.248-.987-.14-.634-.458-2.503-.353-1.87.105-1.376.07-2.186.28-.81.213-2.08.777-2.574 1.2-.493.423-.74.493-.846 1.022-.106.53-.352 1.798-.176 2.433.176.634.106.775.388 1.057.282.282.528.14.564.317.035.176-.14.176-.14.528 0 .353-.213.46-.39.705-.175.247-.387 1.058-.246 1.27.14.21.106.387.106.387s-.952 1.27-.635 1.727c0 0-.88.74-1.163.952-.282.21-.635.88-.494 1.48.14.6.494 1.163.53 1.868.035.705.246 1.304.246 1.304 1.11-.687 4.583-2.185 6.046-2.643 1.463-.46 3.067-1.13 3.7-1.306.636-.176.918-.546 1.376-.81.458-.265.987-.9 1.2-1.27.21-.37.263-.317.65-.6.388-.28.318-.65 1.058-1.356.74-.705 1.446.07 1.446.07s.58-.282.9-.017c.316.265.333.706.333.706s.6-.37 1.076.23c.475.598-.142 1.11-.142 1.11s.546.176.74.563c.194.387-.212 1.057-.564 1.34-.353.28-1.075.933-1.075.933 1.197-.423 1.99-.106 2.08.388.087.495-.46.6-.724.653-.264.053-.106.035-.388.176-.282.14-.67.21-1.657.493-.986.282-1.717.273-2.22.352-.502.08-.9.027-1.586.344-.687.316-2.247.74-3.2 1.215-.95.476-2.51 1.296-3.172 2.09-.66.792-2.882 1.717-2.882 1.717l-.158.027c.66-.186 1.137.21 1.242.713.106.502.318.925.74 1.64.424.713.292.475.45 1.215.16.74.185.45.608.793.423.345.238.583.53 1.06.29.475.263.448.422.87.16.425.397.874.66 1.535.265.66 0 1.322-.025 2.406-.028 1.085.104 1.72.104 1.72-.58 2.3-2.696 3.33-2.696 3.33l-.044-.087s.317.352.775.634c.457.282 1.268 1.022 1.268 1.022l.22.123s.767-.265 1.375-1.19C-8.69 1.948-7.975.837-7.975.837s.793 0 1.825-.238C-5.12.36-1.418-.063.01-.01L0 0z" fill="url(#d)" transform="matrix(1.25 0 0 -1.25 47.446 30.227)"/></g><g><path d="M49.937 23.452s-1.63-.375-2.424-.133c-.792.242-3.502 1.3-2.996 2.203.506.903 2.07-.132 2.07-.132l.662-.242s-.266.705-.288.97c-.02.264-.154.374-.286.683-.132.31-.22.685 0 1.455s.55 1.013.683 1.586c.132.575.33 1.433.263 2.227-.066.792-.485 3.37-.682 4.65-.198 1.276-.594 3.215-.86 4.185-.263.97-.285 2.4-.285 3.195 0 .792.33 2.84 1.146 3.635.816.792 1.72.705 2.402.595.683-.11 1.542-.265 1.85-.88.31-.62.22-.773.684-1.235.462-.464 2.005-2.05 1.982-3.195-.02-1.146-.925-3.415-1.32-4.67-.397-1.258-1.015-5.2-1.015-6.236 0-1.034-.176-1.21.044-1.63.22-.418.42-.683.727-1.233.31-.55.353-1.345.22-1.918" fill="none" stroke="#000" stroke-width=".3125" stroke-miterlimit="10"/></g><g><path d="M35.55 24.09s2.644 3.66 7.447 4.165c0 0 1.74.22 3.547-.353" fill="none" stroke="#000" stroke-width=".3125" stroke-miterlimit="10"/></g><g><path d="M37.71 23.452s2.357 3.877 6.52 3.525c0 0 1.543-.176 2.71-.727" fill="none" stroke="#000" stroke-width=".3125" stroke-miterlimit="10"/></g><g><path d="M34.107 25.15s.96.33 1.72 1.487c.76 1.156 1.65 2.545 1.65 2.545s.993 0 2.28.297c1.29.295 5.918.825 7.7.76" fill="none" stroke="#000" stroke-width=".3125" stroke-miterlimit="10"/></g><g><path d="M31.33 27.264s2.645 1.29 3.372 4.164c0 0-.165.793-.132 2.148.033 1.356.363 2.182.033 3.008-.33.826-.628 1.388-.826 1.916-.2.53-.166.496-.53 1.092-.362.595-.13.892-.66 1.32-.53.43-.562.067-.76.993-.2.925-.034.628-.562 1.52-.53.893-.793 1.422-.925 2.05-.133.627-.728 1.123-1.554.892-.826-.232-4.473-.982-5.178-.97" fill="none" stroke="#000" stroke-width=".3125" stroke-miterlimit="10"/></g><g><path d="M55.005 42.598s-.838-1.72-1.83-2.15" fill="none" stroke="#000" stroke-width=".3125" stroke-miterlimit="10"/></g><g><path d="M28.984 46.4s2.776 1.155 3.603 2.148c.826.99 2.776 2.015 3.966 2.61 1.19.595 3.14 1.123 4 1.52.857.397 1.354.33 1.98.43.63.1 1.544.09 2.777.44 1.234.353 1.72.44 2.072.617.352.177.153.154.483.22.332.067 1.014.2.904.817-.11.616-1.102 1.012-2.6.483 0 0 .903.815 1.343 1.168.44.353.947 1.19.705 1.675-.242.485-.925.705-.925.705s.77.638.176 1.388c-.596.75-1.345.288-1.345.288s-.022.55-.418.88c-.397.33-1.124-.022-1.124-.022s-.88.97-1.806.09c-.925-.882-.838-1.346-1.323-1.698-.484-.353-.55-.287-.815-.75-.265-.462-.926-1.255-1.498-1.585-.574-.33-.927-.793-1.72-1.014-.793-.22-2.798-1.06-4.627-1.63-1.828-.574-6.168-2.447-7.556-3.306" fill="none" stroke="#000" stroke-width=".3125" stroke-miterlimit="10"/></g><g><path d="M53.286 59.057s.616 0 .88-.66c0 0 2.183.726 3.968.99 0 0 .197.75 2.51.838" fill="none" stroke="#000" stroke-width=".3125" stroke-miterlimit="10"/></g><g><path d="M30.218 45.88s.44.44 3.834.573c3.392.133 3.128.31 5.507.044 2.38-.263 4.714-.88 6.477-.66" fill="none" stroke="#000" stroke-width=".3125" stroke-miterlimit="10"/></g><g><path d="M46.08 40.902c-2.026-.396-4.758.66-4.758.66-.926-.616-3.746-1.497-3.746-1.497l1.28-7.183s6.916.22 8.59.75" fill="none" stroke="#000" stroke-width=".3125" stroke-miterlimit="10"/></g><g><path d="M46.94 47.732s-1.74 2.864-1.63 5.816" fill="none" stroke="#000" stroke-width=".3125" stroke-miterlimit="10"/></g><g><path d="M54.167 58.396l.264-.616s2.27-.178 2.403-1.06c.132-.88.97-1.893.75-5.02-.22-3.13-.397-3.174-.266-3.88" fill="none" stroke="#000" stroke-width=".3125" stroke-miterlimit="10"/></g><g><path d="M60.8 49.098s-.353 3.438-1.41 5.684c-1.058 2.247-1.543 2.82-1.257 4.605" fill="none" stroke="#000" stroke-width=".3125" stroke-miterlimit="10"/></g><g><path d="M39.03 62.01s1.63-1.94 3.13-.706" fill="none" stroke="#000" stroke-width=".3125" stroke-miterlimit="10"/></g><g><path d="M38.68 57.602s-1.455-.485-2.6.22" fill="none" stroke="#000" stroke-width=".3125" stroke-miterlimit="10"/></g><g><path d="M39.12 52.094s.44-.133 1.365-.573c.925-.44.882-.66 1.983-.527 1.1.13 1.718-.177 1.718-.177" fill="none" stroke="#000" stroke-width=".3125" stroke-miterlimit="10"/></g><g><path d="M26.56 52.667s1.06 1.1.574 2.028c-.484.925-1.19 1.145-.838 1.762.354.616 1.146.484.926 1.013" fill="none" stroke="#000" stroke-width=".3125" stroke-miterlimit="10"/></g><g><path d="M31.452 43.237s1.72 1.234 4.274.97c2.556-.265 3.394-.926 5.772-1.057 2.38-.133 3.394-.265 4.363.263" fill="none" stroke="#000" stroke-width=".3125" stroke-miterlimit="10"/></g><g><path d="M45.773 62.273s-1.884.584-3.106.584c0 0 .88.75.176 2.59" fill="none" stroke="#000" stroke-width=".3125" stroke-miterlimit="10"/></g><g><path d="M46.797 26.702s-.066 1.222.396 1.29c0 0 .133.76.53.76s.694-.232.793-.464c.1-.23.066-.66.627-.892.563-.23.893-.66 1.653-.396" fill="none" stroke="#000" stroke-width=".3125" stroke-miterlimit="10"/></g><g><path d="M47.194 27.99s.563-1.32.76-1.62c.2-.297.794-.593 1.29-.76.495-.164.958-.164 1.454 0" fill="none" stroke="#000" stroke-width=".3125" stroke-miterlimit="10"/></g><g><path d="M48.318 28.553s.496.43 1.025.364c.53-.067 1.024-.232 1.024-.232s.628.397 1.19.33" fill="none" stroke="#000" stroke-width=".3125" stroke-miterlimit="10"/></g><g><path d="M46.08 58.462l1.212.77" fill="none" stroke="#000" stroke-width=".3125" stroke-miterlimit="10"/></g><g><path d="M44.914 60.092s.33.044.485.2c.153.152.725.615.725.615" fill="none" stroke="#000" stroke-width=".3125" stroke-miterlimit="10"/></g><g><path d="M43.085 60.71s.396-.067.595.22c.2.285.904.837.904.837" fill="none" stroke="#000" stroke-width=".3125" stroke-miterlimit="10"/></g><g><path d="M51.358 14.55l.22-.66v-.573l-.32-.352-.24-.265s-.21-.22-.21-.286c0-.067.07-.264.07-.264l-.106-.155-.23-.22s-.05-.287-.137-.375c-.088-.088-.178-.264-.223-.33-.044-.067-.112-.154-.112-.154l-.265.22s.023.2-.11.11c-.132-.088-.22-.154-.242-.088-.023.067-.023.177-.09.22-.065.044-.35-.066-.35-.066s-.2-.087-.22-.022c-.024.066-.024.352-.024.352s-.066.2-.132.2-.176.086-.176.086l-.09.265s-.175 0-.263-.087c-.09-.09-.156-.243-.222-.2-.066.045-.154.31-.154.31l-.176.374s-.2.11-.243.043c-.043-.065-.132 0-.132 0l-.154.332s-.31-.154-.31-.067c0 .09-.043.442-.043.442l-.044.197-.375-.286-.353.31-.087.22-.33-.243-.178.265-.308-.066-.11-.09s-.154-.086-.22-.086c-.067 0-.2.066-.2.066l-.13.11-.42-.33-.22-.11s-.022.175-.198-.155c-.176-.33-.242-.352-.33-.264-.09.09-.242.287-.242.287s-.045.065-.133.044c-.09-.022-.22-.066-.22-.066s-.156-.043-.177.023c-.023.065-.023.177-.045.242-.02.066-.02.288-.02.288l-.266.355h-.2l-.11-.25-.197-.065s-.155-.03-.242-.01c-.09.023-.09-.005-.09-.005l-.35-.078s-.09-.162-.2-.162c-.11 0-.35-.07-.418-.026-.066.045-.11.11-.242.02-.133-.087-.31-.176-.31-.176s-.065-.066-.043-.155c.023-.087.088-.395.088-.484 0-.088-.02-.42-.02-.42l-.134-.638-.176-.263-.265.153-.308-.11-.265.264-.087.398s-.133-.045-.2 0c-.065.043-.175.263-.175.263s-.133.044-.176-.02c-.044-.067-.133.11-.133.11l-.066.22-.066.153s-.286-.044-.33.022c-.045.067-.09.243-.09.243l-.065.088s-.243.177-.31.243l-.065.067s-.264.2-.33.31c-.066.11-.155.24-.155.33 0 .088-.065.308-.065.396 0 .088-.11-.22-.177.088-.065.31-.065.397-.065.397l-.397-.087s-.22.066-.22.13c0 .067-.242.067-.242.067l-.243-.197s-.154.086-.264.197c-.11.11-.11.24-.11.24l-.287.002.506 1.172s-.11-.145-.353-.19" fill="none" stroke="#000" stroke-width=".3125" stroke-miterlimit="10"/></g><g><path d="M47.25 25.15s1.134-1.058 2.455-.628" fill="none" stroke="#000" stroke-width=".3125" stroke-miterlimit="10"/></g></g></svg>