<svg xmlns="http://www.w3.org/2000/svg" width="153.158" height="187.178"><defs><clipPath id="a"><path d="M30.378 599.084V533.75l7.467-30.666c0-33.137 27.13-60 60.266-60 33.138 0 60.268 26.863 60.268 60v96h-128z"/></clipPath><pattern id="b" height="12" width="12" patternUnits="userSpaceOnUse" patternTransform="matrix(.707 .707 -.707 .707 4187.9 7527.08)"><path d="M12-3H6v6h6v-6z" fill="#fff"/><g><path d="M10.5 0c0-.828-.672-1.5-1.5-1.5S7.5-.828 7.5 0 8.172 1.5 9 1.5 10.5.828 10.5 0" fill="#aad801"/></g><path d="M6-3H0v6h6v-6z" fill="#fff"/><g><path d="M4.5 0c0-.828-.672-1.5-1.5-1.5S1.5-.828 1.5 0 2.172 1.5 3 1.5 4.5.828 4.5 0" fill="#aad801"/></g><path d="M15 3H9v6h6V3z" fill="#fff"/><g><path d="M13.5 6c0-.828-.672-1.5-1.5-1.5s-1.5.672-1.5 1.5.672 1.5 1.5 1.5 1.5-.672 1.5-1.5" fill="#aad801"/></g><path d="M9 3H3v6h6V3z" fill="#fff"/><g><path d="M7.5 6c0-.828-.672-1.5-1.5-1.5S4.5 5.172 4.5 6 5.172 7.5 6 7.5 7.5 6.828 7.5 6" fill="#aad801"/></g><path d="M3 3h-6v6h6V3z" fill="#fff"/><g><path d="M1.5 6c0-.828-.672-1.5-1.5-1.5s-1.5.672-1.5 1.5.672 1.5 1.5 1.5S1.5 6.828 1.5 6" fill="#aad801"/></g><path d="M12 9H6v6h6V9z" fill="#fff"/><g><path d="M10.5 12c0-.828-.672-1.5-1.5-1.5s-1.5.672-1.5 1.5.672 1.5 1.5 1.5 1.5-.672 1.5-1.5" fill="#aad801"/></g><path d="M6 9H0v6h6V9z" fill="#fff"/><g><path d="M4.5 12c0-.828-.672-1.5-1.5-1.5s-1.5.672-1.5 1.5.672 1.5 1.5 1.5 1.5-.672 1.5-1.5" fill="#aad801"/></g></pattern></defs><g><path d="M152.22 111.24c0 41.42-33.578 75-75 75-41.42 0-75-33.58-75-75s33.58-75 75-75c41.422 0 75 33.58 75 75z" fill="none" stroke="#231f20" stroke-width="1.875"/><g><g clip-path="url(#a)" transform="matrix(1.25 0 0 -1.25 -45.294 740.096)"><g><path d="M90.106 547.257s-.435 3.977-2.92 5.965c-2.486 1.99-3.915 3.293-4.6 4.35-.682 1.056-2.546 3.48-3.603 4.287l-.248.683-.435.31-.31.373-.063.435s-.248.188-.435.25c-.186.062-.712.248-.712.248l-.403.31v.312l-.095.435.295.435-.32 1.056-.22.56-.36.186-.3.435v.31l-.496.56-.154.248-.108.497-.18.56-.243.56-.31.993-.495.497-.372.062-.25.517s-.247.394-.433.394H71.9l-.26.166-.263.167v.31l-.36.56s-.087.248-.273.248c-.186 0-.665-.062-.665-.062s-.24-.067-.426.18c-.187.25-.302.43-.488.43h-.435l-.434.317-.435.624-.372.032-.497.172-.496.117s-.062-.004-.25-.066c-.185-.063.126-.252-.185-.065l-.312.185-.373.683-.186.435-.436.25-.31-.064-.373-.372-.248-.31c-.31-.126-.163.06-.536-.126s-.91-.062-.91-.248c0-.187 1-.187 0-.187 0 0-.208.126-.58.312-.374.187-.696.497-.696.497l-.44.062s-.035.062-.222 0c-.186-.063-.234 0-.607-.187-.372-.186-.613-.56-.613-.56l-.556.063-.246.062-.744-.186s-.25.062-.435 0c-.186-.063.124.248-.186-.063l-.622-.62-.498-.502s.187-.254-.248-.254h-.435l-.31.13-.808.095-.25.078-.31-.307-.436.004h-.683s-.123.005-.31-.057c-.186-.062-.373-.4-.373-.4l-.062-.326-.186-.317-.498-.19s-.125-.188-.31-.188c-.187 0-.747.186-.747.186s-.062.062-.248 0c-.187-.062-.435-.062-.435-.062l-.373-.31-.312-.25-.372-.31-.125-.373-.31-.187-.31-.248-.31-.124-.063-.373-.186-.25s-.12-.247-.74-.31c-.62-.062-.803-.062-.803-.062v-.62s.99.25.182-.31c-.81-.56-.718-.56-.718-.56l-.328-.497-.536-.373-.362-.248-.275-.373.037-.56v-.683l-.34-.56-.33-.31s-.33-.063-.33-.374v-.31s.004-.187-.182-.31c-.187-.125-.216-.188-.402-.25-.187-.062-.295-.186-.42-.372-.123-.186-.053-.186-.115-.434-.062-.25.252.062-.058-.25l-.62-.62s-.06 0-.123-.435c-.062-.434-.06-.745-.06-.745l-.2-.87-.82-.683v-.25s.51-.185.448-.434c-.062-.25.006-.25.006-.25s-.027-.247-.214-.62c-.186-.373-.17-.373-.17-.373l-.177-.62-.37-1.43-.308-.187-.372-.497s.187-.123 0-.372c-.186-.248-.434-.497-.434-.497s-.124-.06 0-.434c.125-.372-.186-.062.125-.372.31-.31.622-.435.87-.435.25 0 .498.123.498-.064 0-.186.062-.186.186-.497.124-.31.684-.436.684-.436s.435.063.497-.124c.062-.186.124-.248.186-.435.063-.186.312-.373.312-.373l.124-.56-.062-.434-.124-.746s-.187.25 0-.56c.186-.807.186-.744.124-1.055-.062-.31-.062-.62 0-.808.062-.187.186-.498.186-.498l.373-.497s.31-.25.497-.497c.187-.25.435-.25.497-.497.063-.248-.186.187.063-.248.248-.435.31-.62.31-.87 0-.248.062-.124.187-.497.124-.373.124.062.497-.62.373-.685.56-.382.62-.63.063-.25.56-.38.56-.38h.746c0-1 .435-.304.62-.677.188-.372-.185-.027.188-.462s.56-.54.808-.604c.248-.062.372-.084.56-.084.185 0 .496.113.682-.074.187-.186.56-.44.56-.44s.248.06.248-.25c0-.312.062-.562.062-.562s.062-.498.31-.622c.25-.124-.06.186.25-.125.31-.31.497-.435.683-.62.187-.188.81-.188.81-.188s.123.125.434-.186c.31-.31.435-.615.683-.74.25-.123.622-.366.622-.366h.31c.186 0 .56.367.745.43.186.06.62.37.62.37s.188-.002.436.246c.25.25.747.59.747.59l.435.2.56.083.496.08h.25l.372.114.62-.224s.374.448 1.492-1.54c1.12-1.99 3.23-4.655 6.96-3.1 0 0 1.49-1.303 2.734-3.975 0 0-.31-.31-1.057.5-.746.807-1.243 1.615-2.113 1.802-.87.186-2.672.31-3.73-.683-1.055-.994-3.665-3.355-4.72-4.04-1.057-.683-3.667-2.36-2.176-8.636 0 0-.807-1.925-1.366-3.168-.56-1.243-.62-2.175-.745-3.23-.126-1.057-.25-3.17 1.055-4.35 1.305-1.18 2.485-2.113 5.592-1.554 0 0 .622-2.05.87-4.35.25-2.3 1.554-7.767 2.175-9.63.62-1.865 1.553-4.537 2.05-5.593.498-1.057 1.99-2.92 2.92-4.04.933-1.118 2.05-2.05 2.984-3.728.932-1.677 1.304-2.36 1.366-4.287.063-1.926.25-5.282.622-7.954.373-2.672 1.678-9.444 1.926-10.687.25-1.244.87-2.362.497-3.42-.373-1.055-4.847-5.53-4.847-11.06l42.917-.144s-.25 1.325.497 1.988c.745.663 1.077.58 1.16 1.657.083 1.078-.083.995.58 1.658.662.663 3.065 3.23 3.314 3.646 0 0 .165-1.077 1.49-.995 0 0-.082-2.072 1.16-2.072 1.244 0 1.658.58 2.735.414 1.077-.165 1.905-.662 2.734-.497.828.166.994.58 1.49 1.906.498 1.326.747 2.486 1.244 2.9.498.415.58.498.83 1.575.248 1.077.496 2.9.496 5.385l.415.497s3.066-.083 3.646.497c.58.58.58 1.326 1.243 1.99.662.66 1.076 1.076 1.324 2.236.25 1.16-.33 3.893-.414 4.64-.083.745-.166 1.16-.745 1.74-.58.58-2.734 2.32-2.734 2.32s9.943 6.627 2.238 24.688c0 0-.58 1.325-1.41 2.403-.827 1.078-.662 1.326-1.242 2.486-.58 1.16-1.657 4.06-4.474 3.977 0 0-.58 2.237-1.242 3.728-.663 1.492-1.74 2.487-2.237 3.315-.497.83-1.077 1.74-1.326 3.645-.248 1.906-1.243 4.723-1.74 5.634-.497.912-2.07 7.622-2.154 10.356-.083 2.734-.166 9.114-1.242 11.682-1.077 2.57-1.905 5.054-4.308 7.125 0 0 .497 1.968-.56 3.397 0 0 .188 2.486-1.8 3.293l.06.684s2.052-.185 2.362 1.244c0 0 3.17 1.74 3.79 4.41.622 2.673.746 3.543-1.304 3.233 0 0 2.734 7.518 2.05 11.06-.683 3.542-3.976 8.202-6.835 9.693-2.858 1.492-5.53 2.734-10.004 1.305-4.473-1.43-8.015-4.722-9.257-8.388-1.243-3.666-1.43-5.158-1.678-6.152-.248-.994-.435-1.118-.994-2.982-.558-1.864-1.118-4.04-1.366-5.966-.25-1.926-.062-4.908 2.3-9.32 0 0 .496-3.728 2.174-4.536 0 0-2.424-1.18-4.288-1.056l-.124-4.287z" fill="#fff"/></g><g><path d="M0 0s-1.523.187-4.086-.5C-6.648-1.187-10.918-6-10.918-6c-5.437-.812-5.29-3.438-5.54-4.125-.25-.688-.865-.563-1.928-.688-1.062-.125-1.62-.437-1.62-.437l-.144-.005.06-.472c.065.092.376.423 1.32.06 1.082-.416 2.416-.666 3.332.084l.09-.125c-2.093-2.75-3.777-6.748-4.094-7.523-.098-1.42-.443-2.772-1.272-3.638-1.166-2.314-1.536-5.82-1.536-5.82l.02-.172c1.146 1.398 2.105 2.423 2.105 2.423 3.25-.875 11.687-5.5 11.687-5.5-.714-1.21-7.75-9.028-10.504-11.796l.005-.017c1.708-5.167 7.416-11.958 7.416-11.958l1.166-1.042s1.833-2.667 3.167-4.417c1.333-1.75 1.75-2.416 1.833-3.75.083-1.333.917-2.583 1-3.666.083-1.084-.083-2 .083-2.917.166-.917.916-2.75.916-2.75l4 .25 4.583-1.167S7.31-71.75 6.98-68l5.416-4.75s1.167.75 1.917 1.583c.75.834 1.833 1.584 2.916 2.417 1.022.787 8.353 5.362 9.448 9.238-.096.236-.183.466-.285.706 0 0-.58 1.326-1.41 2.402-.827 1.077-.662 1.326-1.242 2.486-.58 1.16-1.656 4.06-4.472 3.977 0 0-.58 2.236-1.243 3.727-.663 1.49-1.74 2.486-2.237 3.314-.497.83-1.077 1.74-1.326 3.646-.248 1.906-1.243 4.723-1.74 5.634-.497.912-2.07 7.622-2.154 10.356-.083 2.734-.166 9.114-1.243 11.682-1.077 2.57-1.905 5.054-4.308 7.125 0 0 .503 1.796-.56 3.397 0 0 .126 3.018-2.165 3.373 0 0-1.125.312-2.292-2.313" fill="url(#b)" transform="translate(110.565 556.084)"/></g><g><path d="M107.057 592.076c-1.328 0-2.693-.23-4.172-.702-4.882-1.56-8.8-5.137-10.223-9.336-.997-2.94-1.334-4.525-1.557-5.573-.056-.266-.104-.492-.155-.696-.098-.394-.178-.605-.312-.955-.15-.4-.358-.944-.664-1.962-.72-2.396-1.196-4.483-1.418-6.204-.385-2.984.38-6.253 2.34-9.988.113-.69.41-2.137 1.077-3.4-.493-.132-1.007-.227-1.46-.227-.06 0-.122.002-.183.006-.033.003-.066.004-.1.004-.24 0-.475-.057-.686-.166-.396.55-.865 1.07-1.42 1.515-2.46 1.967-3.74 3.162-4.277 3.993-.565.873-2.292 3.197-3.59 4.363l-.112.305c-.104.285-.29.532-.538.708l-.2.143c-.063.38-.27.723-.58.955-.1.076-.32.233-.584.36-.02.067-.046.133-.077.197.04.244.016.495-.067.732l-.374 1.055c-.013.037-.028.074-.044.11l-.248.56c-.1.226-.257.424-.452.575-.052.304-.197.587-.417.808l-.432.43-.044.178c-.01.037-.02.074-.033.11l-.186.56c-.015.045-.032.09-.052.134l-.213.48-.285.912c-.072.23-.2.442-.37.613l-.498.497c-.154.154-.338.27-.54.346-.026.03-.053.06-.082.09-.174.174-.477.428-.873.574-.054.167-.136.326-.246.466l-.373.48c-.292.466-.825.907-1.556.907-.133 0-.316-.014-.49-.03-.226.154-.518.286-.886.328l-.277.436c-.23.358-.6.604-1.02.673l-.228.04-.362.134c-.054.02-.108.037-.163.05l-.497.125c-.056.014-.112.025-.168.032l-.122.285c-.13.3-.352.548-.635.71l-.435.248c-.228.13-.485.198-.744.198-.098 0-.196-.01-.293-.03l-.31-.06c-.29-.06-.558-.202-.767-.41l-.373-.374c-.04-.04-.076-.08-.11-.124l-.025-.004c-.123-.015-.236-.037-.34-.066-.167.098-.352.22-.452.292-.202.144-.438.237-.684.267l-.33.04c-.145.04-.298.062-.456.062-.18 0-.363-.028-.546-.082-.242-.036-.51-.1-.893-.29-.18-.09-.338-.196-.48-.304-.092.017-.185.026-.28.026-.12 0-.243-.015-.363-.045l-.463-.116c-.128.034-.26.052-.395.052-.627 0-.975-.35-1.206-.58l-.588-.586-.203-.178c-.05.008-.1.014-.148.018l-.683.053-.127.03c-.12.03-.242.045-.363.045-.392 0-.773-.155-1.056-.435h-.196c-.098.017-.207.028-.324.028-.215 0-.43-.035-.637-.105-.622-.207-1.01-.73-1.186-1.024-.026-.046-.05-.092-.072-.14-.17.057-.354.087-.543.087-.186 0-.375-.03-.564-.086-.347-.002-.712-.128-.98-.35l-.37-.31-.288-.23-.397-.33c-.175-.146-.314-.33-.407-.537-.002 0-.003-.003-.004-.004l-.137-.11-.105-.042c-.4-.16-.707-.48-.85-.877l-.17-.016c-.768-.077-1.352-.722-1.352-1.493v-.145l-.162-.112c-.132-.092-.25-.204-.346-.333l-.218-.292-.346-.23-.372-.248c-.05-.034-.1-.07-.145-.11l-.434-.373c-.246-.21-.417-.496-.488-.813l-.124-.56c-.024-.106-.036-.215-.036-.325v-.441l-.05-.15c-.218-.232-.39-.538-.466-.91-.53-.27-.808-.686-.91-.838-.202-.303-.28-.557-.315-.77l-.187-.188c-.3-.247-.562-.674-.666-1.4-.06-.423-.074-.756-.077-.894l-.02-.27-.287-.288c-.28-.28-.44-.663-.44-1.06v-.25c0-.23.053-.452.15-.652l-.177-.354c-.04-.077-.07-.157-.095-.24l-.187-.62c-.004-.02-.01-.036-.014-.054l-.227-.872c-.076-.067-.145-.14-.206-.222l-.372-.497c-.155-.206-.253-.446-.287-.697-.366-.354-.59-.914-.465-1.617-.056-.687.382-1.125.58-1.323.413-.413.89-.69 1.385-.81.364-.565.964-.835 1.34-.955.048-.084.102-.162.156-.233l-.01-.085-.04-.24c-.302-.57-.16-1.188-.062-1.614l.05-.215.058-.248c-.07-.376-.13-.982.055-1.538.073-.217.218-.58.218-.58.05-.123.113-.236.192-.342l.373-.497c.076-.102.165-.193.263-.272.08-.065.2-.18.234-.226.11-.144.224-.26.33-.35.044-.093.09-.173.127-.238.06-.108.095-.175.115-.214.012-.343.096-.626.267-.9.135-.39.34-.684.617-.887.228-.412.442-.667.634-.85.257-.466.69-.81 1.05-1.035.24-.15.516-.228.794-.228.048 0 .096.002.144.007.096-.15.2-.27.27-.354.585-.68 1.04-.902 1.584-1.038.396-.1.642-.107.923-.107h.062l.015-.073c.066-.428.3-1.287 1.117-1.695l.04-.02c.126-.118.234-.21.333-.295.06-.05.114-.096.167-.15.41-.41.99-.563 1.493-.608.31-.275.538-.4.824-.542.51-.255 1.073-.283 1.292-.283h.31c.357 0 .73.1 1.22.263.117.04.317.12.48.185.422.065.827.276 1.162.612.057.055.23.184.392.29l.19.082.423.094.355.09h.065c.068 0 .136.003.204.013l.234-.094c.07-.028.14-.05.213-.068.113-.147.29-.403.528-.83.924-1.64 1.992-2.82 3.195-3.53l-.12-.11c-1.36-1.28-3.683-3.337-4.51-3.87-1.907-1.235-4.25-3.58-2.928-9.758-.27-.64-.78-1.838-1.166-2.693-.602-1.34-.72-2.377-.834-3.382l-.033-.29c-.3-2.544.217-4.44 1.54-5.636 1.226-1.112 2.526-2.11 4.912-2.11.184 0 .372.007.565.02.176-.756.382-1.786.5-2.863.264-2.454 1.592-7.994 2.242-9.945.337-1.013 1.488-4.422 2.115-5.756.438-.93 1.49-2.397 3.126-4.36.297-.356.605-.69.903-1.01.693-.748 1.348-1.455 1.92-2.487.89-1.602 1.13-2.032 1.18-3.61.073-2.24.278-5.546.635-8.11.395-2.832 1.76-9.873 1.94-10.776.088-.435.21-.844.318-1.205.167-.565.326-1.1.246-1.39-.09-.167-.404-.602-.66-.955-1.495-2.074-4.28-5.936-4.28-10.635 0-.826.667-1.497 1.494-1.5l42.916-.145h.005c.445 0 .867.198 1.153.54.286.344.404.797.32 1.237-.032.204-.01.525.048.62.117.1.242.19.348.27.64.476 1.177.983 1.283 2.364.018.242.026.432.03.586.002.004.002.01.002.013l.112.112c.122.122 1.34 1.385 2.322 2.473l.045-.02c.12-.53.353-1.115.792-1.572.46-.477 1.08-.74 1.747-.74.814 0 1.39.183 1.808.316.272.086.408.128.55.128.045 0 .094-.004.147-.012.308-.048.612-.138.934-.233.52-.155 1.06-.315 1.68-.315.218 0 .434.02.64.062 1.658.332 2.075 1.443 2.603 2.85.145.388.27.763.388 1.11.144.432.34 1.015.46 1.205.762.643.983 1.055 1.28 2.347.178.765.46 2.332.524 4.725 2.43.067 3.205.504 3.633.93.473.474.7.97.88 1.37.14.31.22.476.363.62.715.715 1.39 1.39 1.73 2.983.233 1.08 0 2.7-.28 4.407-.05.307-.092.557-.11.713-.1.897-.256 1.716-1.175 2.634-.294.294-.903.816-1.485 1.303 2.708 2.825 7.6 10.485 1.307 25.233-.032.074-.67 1.52-1.6 2.73-.38.493-.446.677-.595 1.08-.107.29-.24.653-.494 1.16-.05.1-.104.216-.163.34-.565 1.192-1.803 3.808-4.487 4.364-.244.827-.62 2.004-1.037 2.94-.503 1.133-1.18 1.986-1.724 2.672-.24.305-.47.593-.597.804l-.053.087c-.45.747-.873 1.452-1.072 2.98-.274 2.1-1.33 5.097-1.91 6.16-.397.824-1.894 7.105-1.972 9.683l-.02.746c-.118 4.285-.328 9.058-1.34 11.47-.116.278-.23.555-.342.83-.875 2.135-1.778 4.336-3.75 6.28.066.84.01 2.102-.653 3.266-.03.772-.234 1.743-.77 2.597.484.292.862.69 1.107 1.173 1.07.688 3.422 2.463 4.032 5.087.437 1.88.753 3.238-.068 4.272-.19.24-.42.43-.69.57.812 2.577 2.062 7.243 1.515 10.074-.773 4.01-4.33 9.027-7.614 10.74-2.21 1.152-4.26 2.106-6.983 2.106m0-1.5c2.44 0 4.32-.91 6.288-1.936 2.86-1.49 6.152-6.15 6.836-9.693.684-3.542-2.05-11.06-2.05-11.06.26.04.487.06.68.06 1.33 0 1.167-.96.625-3.292-.62-2.672-3.79-4.412-3.79-4.412-.247-1.133-1.588-1.25-2.132-1.25-.142 0-.23.008-.23.008l-.062-.683c1.99-.807 1.803-3.293 1.803-3.293 1.057-1.43.56-3.397.56-3.397 2.402-2.07 3.23-4.557 4.308-7.125 1.078-2.568 1.16-8.948 1.243-11.682.083-2.734 1.657-9.445 2.154-10.356.498-.91 1.492-3.728 1.74-5.634.25-1.905.83-2.817 1.326-3.645.497-.83 1.574-1.823 2.237-3.314.663-1.49 1.242-3.727 1.242-3.727h.118c2.73 0 3.785-2.833 4.356-3.977.58-1.16.415-1.41 1.243-2.486.828-1.077 1.408-2.402 1.408-2.402 7.705-18.062-2.237-24.69-2.237-24.69s2.155-1.74 2.735-2.32c.58-.58.663-.994.745-1.74.083-.745.663-3.48.415-4.64-.25-1.16-.663-1.573-1.326-2.236-.664-.663-.664-1.408-1.244-1.988-.45-.45-2.405-.5-3.25-.5-.243 0-.395.003-.395.003l-.413-.497c0-2.486-.25-4.31-.498-5.386-.25-1.077-.332-1.16-.83-1.574-.496-.414-.745-1.574-1.242-2.9-.497-1.325-.662-1.74-1.49-1.905-.117-.023-.232-.033-.35-.033-.716 0-1.458.388-2.385.53-.135.02-.26.03-.376.03-.818 0-1.27-.444-2.358-.444-1.244 0-1.16 2.07-1.16 2.07l-.143-.003c-1.196 0-1.35.998-1.35.998-.248-.414-2.65-2.982-3.313-3.645-.663-.663-.497-.58-.58-1.657-.083-1.076-.414-.993-1.16-1.656-.746-.663-.497-1.99-.497-1.99l-42.916.146c0 5.53 4.475 10.005 4.847 11.06.373 1.057-.248 2.176-.497 3.418-.248 1.243-1.553 8.016-1.926 10.688-.373 2.672-.56 6.027-.62 7.954-.064 1.926-.436 2.61-1.368 4.287-.933 1.678-2.05 2.61-2.983 3.728-.932 1.12-2.423 2.983-2.92 4.04-.497 1.056-1.43 3.728-2.05 5.592-.622 1.864-1.927 7.332-2.176 9.63-.248 2.3-.87 4.35-.87 4.35-.637-.114-1.193-.166-1.685-.166-1.91 0-2.87.783-3.907 1.72-1.305 1.182-1.18 3.294-1.056 4.35.123 1.057.185 1.99.744 3.232.56 1.242 1.367 3.17 1.367 3.17-1.49 6.275 1.12 7.952 2.176 8.636 1.056.683 3.666 3.045 4.722 4.04.67.63 1.642.81 2.484.81.485 0 .927-.06 1.245-.128.87-.186 1.367-.994 2.112-1.802.42-.456.703-.556.87-.556.127 0 .186.06.186.06-1.243 2.67-2.734 3.976-2.734 3.976-.78-.325-1.49-.465-2.134-.465-2.435 0-3.94 2-4.826 3.572-.778 1.383-1.195 1.594-1.377 1.594-.08 0-.114-.042-.114-.042l-.62.25-.373-.063h-.25l-.496-.125-.558-.124-.435-.186s-.497-.31-.746-.56c-.164-.165-.302-.193-.376-.193-.037 0-.058.007-.058.007s-.435-.186-.62-.248c-.187-.063-.56-.187-.747-.187h-.31s-.374 0-.623.123c-.248.125-.372.187-.683.498-.173.173-.288.21-.356.21-.055 0-.08-.023-.08-.023s-.62 0-.807.186c-.185.187-.372.31-.682.622-.112.112-.144.143-.15.143-.007 0 .027-.05-.01-.05-.016 0-.043.008-.09.03-.247.125-.31.622-.31.622s-.062.25-.062.56c0 .22-.126.253-.2.253-.028 0-.048-.005-.048-.005s-.373.25-.56.435c-.08.08-.182.103-.288.103-.14 0-.29-.04-.395-.04-.186 0-.31 0-.56.06-.248.064-.434.126-.807.56-.157.184-.182.212-.172.212.005 0 .017-.006.027-.006.02 0 .03.024-.04.167-.188.372-.623.31-.623.497 0 .062-.083.082-.193.082-.22 0-.553-.083-.553-.083s-.497.31-.56.56c-.06.247-.247.123-.62.806-.373.684-.373.25-.497.622-.125.373-.187.25-.187.497 0 .25-.062.435-.31.87-.094.164-.117.204-.113.204.004 0 .034-.038.05-.038.012 0 .016.02 0 .083-.062.25-.31.25-.497.498-.186.248-.497.497-.497.497l-.373.497s-.124.31-.186.497c-.062.185-.062.496 0 .807.062.31.062.248-.124 1.056-.116.5-.088.595-.05.595.023 0 .05-.036.05-.036l.124.746.062.435-.124.56s-.25.186-.31.372c-.063.186-.125.25-.187.435-.037.112-.21.134-.34.134-.088 0-.157-.01-.157-.01s-.56.124-.684.435c-.124.31-.186.31-.186.496 0 .08-.046.103-.117.103-.095 0-.237-.042-.38-.042-.248 0-.558.125-.87.435-.31.31 0 0-.123.373-.125.373 0 .435 0 .435s.248.25.435.498c.186.25 0 .373 0 .373l.372.498.31.187.374 1.43.186.62.187.373c.187.373.25.62.25.62l.06.25c.064.248-.31.435-.31.435v.248l.684.685.062.87s0 .31.062.745c.063.435.125.435.125.435l.62.622c.128.127.15.15.14.15-.01 0-.028-.008-.046-.008-.028 0-.053.017-.03.105.06.25 0 .25.123.435.125.187.25.31.435.373.187.062.25.124.435.25.187.123.25.31.25.31v.31c0 .31.185.373.185.373l.187.31.186.56v.683l.124.558.435.373.373.25.56.373.372.497.808.56c.428.295.403.365.284.365-.105 0-.284-.055-.284-.055v.62l.622.063c.62.062.56.31.56.31l.185.25.062.372.31.125.31.248.31.187.126.372.372.31.31.25.374.31s.25 0 .435.062c.062.02.11.027.147.027.074 0 .1-.028.1-.028s.56-.187.747-.187c.187 0 .312.186.312.186l.497.186.185.31.062.31s.187.312.373.374c.062.02.118.028.164.028.092 0 .147-.028.147-.028h.684l.435.062.31.373.25-.062.806-.062.31-.062h.436c.435 0 .25.187.25.187l.496.435.62.62c.108.108.142.142.147.142.008 0-.057-.087 0-.087.01 0 .023.002.04.008.063.02.132.028.196.028.13 0 .24-.027.24-.027l.746.187.25-.062.558-.062s.248.372.62.56c.374.185.436.123.623.185.062.022.11.03.147.03.074 0 .1-.03.1-.03l.498-.06s.435-.312.808-.498c.373-.186.435-.31.808-.31.373 0 0 0 0 .186s.31.062.683.248c.146.073.178.09.182.09.003 0-.013-.012-.003-.012.008 0 .04.01.132.046l.25.31.37.374.312.062.435-.248.186-.435.372-.684.31-.187c.1-.06.136-.08.145-.08.02 0-.085.1.042.142.187.062.25.062.25.062l.496-.124.498-.187.373-.062.436-.683.435-.434h.436c.186 0 .31-.062.497-.31.074-.1.16-.13.233-.13.112 0 .202.067.202.067s.497.062.683.062c.188 0 .312-.25.312-.25l.435-.558v-.31l.187-.31.186-.312h.435c.186 0 .435-.248.435-.248l.248-.373.373-.062.498-.498.31-.994.25-.56.186-.558.124-.497.187-.25.56-.558v-.31l.247-.436.31-.185.25-.56.372-1.056-.186-.436.31-.435v-.31l.187-.312s.31-.186.497-.25c.187-.06.435-.247.435-.247l.062-.434.31-.373.435-.31.248-.684c1.057-.81 2.92-3.232 3.605-4.288.683-1.057 2.112-2.362 4.598-4.35 2.485-1.988 2.92-5.965 2.92-5.965l.124 4.287c.094-.006.188-.01.284-.01 1.817 0 4.004 1.067 4.004 1.067-1.678.808-2.175 4.537-2.175 4.537-2.36 4.41-2.548 7.394-2.3 9.32.25 1.926.81 4.1 1.368 5.965.56 1.864.747 1.99.995 2.983.25.994.435 2.485 1.678 6.152 1.243 3.666 4.785 6.96 9.258 8.388 1.395.445 2.613.63 3.717.63" fill="#231f20"/></g><g><path d="M79.148 561.647s-.56.375-1.5.937c-.937.563-1.874 1.376-3.06 1.876-1.19.5-3.25 1.187-5.064 1.25-1.814.062-2.814-.438-3.19-1.125-.374-.688-.436-1.188-1.06-1.5-.626-.313-.814-.376-1.376-.688-.563-.313-1.25-.625-1.312-1.125-.062-.5-.187-.875-.437-1.187-.252-.313-.127-.25-.19-.75-.06-.5-.123-.75-.31-.876-.19-.126-.19-.126-.502-.313-.312-.188-.5-.313-.5-.5s.125-.25-.125-.5-.5-.25-.562-.437c-.06-.188.064-.125.064-.5s.5-.438 0-.688c-.5-.25-.688-.5-.688-.5s-.062-.375-.124-.625c-.064-.25-.064-.5-.126-.687-.062-.188-.062-.313.25-.75.313-.438.438-.5.438-.688 0-.188.5-.813.5-.813s.312-.188.312-.376c0-.187.126-.437.313-.75.186-.312.186.125.186-.312 0-.438.188-.5 0-.813-.187-.313.188-1.063.188-1.063s0-.25-.188-.5c-.187-.25.126.25-.187-.25-.314-.5-.314-.75-.314-.938 0-.188.313-.25.25-.563-.062-.312-.124-.75-.062-.937.062-.188.312-.563.312-.563s.126-.312.25-.5c.126-.187.313-.375.376-.625.06-.25-.25-.312.186-.812.438-.5.052-.063.365-.5.313-.438.615-.875.615-1.063v-.187s.26-.375.51-.563c.25-.187.6-.375.6-.375l.454-.5.198-.312-.122-.625s-3.746 3.75-5.81 2.312c0 0-1.248-1.312.377-2.625" fill="none" stroke="#000" stroke-width=".5" stroke-miterlimit="10"/></g><g><path d="M58.273 539.897s-4.937 4.437-4.937 9.5 1.063 12.875 6.313 17.125c5.248 4.25 13.248.9 17.843-2.612" fill="none" stroke="#000" stroke-width=".5" stroke-miterlimit="10"/></g><g><path d="M78.735 562.543s-9.4 6.79-15.837 2.23c-6.437-4.564-6.687-15.94-6.625-17.75.063-1.814.25-3.314 2.438-6.376" fill="none" stroke="#000" stroke-width=".5" stroke-miterlimit="10"/></g><g><path d="M90.044 547.834s.5-4 .667-5.417c.167-1.416 1.5-7.833-1.416-9.666-2.917-1.833-8.167-5-19.083.75" fill="none" stroke="#000" stroke-width=".5" stroke-miterlimit="10"/></g><g><path d="M66.94 515.272s8.75-3 13.563-4.125c4.812-1.125 8.687-.937 10.25.375 1.562 1.312 10.562 11.25 11.375 12.625 0 0-8.438 4.625-11.688 5.5 0 0-2.813-3-4.563-5.75 0 0-.437-1.313-1.812-1.125-1.375.187-8.187.813-10.875 1.063" fill="none" stroke="#000" stroke-width=".5" stroke-miterlimit="10"/></g><g><path d="M88.315 527.397s.375 3.563 1.562 5.875" fill="none" stroke="#000" stroke-width=".5" stroke-miterlimit="10"/></g><g><path d="M91.065 536.71s2.5 6.31 5.375 9.062" fill="none" stroke="#000" stroke-width=".5" stroke-miterlimit="10"/></g><g><path d="M90.565 544.834s.562.312 1.625.437c1.063.126 1.688 0 1.938.69.25.686.125 3.31 5.562 4.124 0 0 4.313 4.813 6.875 5.5 2.562.688 4 .5 4 .5s1.03 2.796 2.656 2.233" fill="none" stroke="#000" stroke-width=".5" stroke-miterlimit="10"/></g><g><path d="M93.94 552.897s3.125-3 7.062-1.25" fill="none" stroke="#000" stroke-width=".5" stroke-miterlimit="10"/></g><g><path d="M95.565 584.71l.437-.376.563-.062.312-.344.313-.344h.563c.187 0 .25.344.437.22.188-.126.188-.048.188-.048l.562-.172h.5l.312-.03s.313.014.5-.048c.188-.063.438.078.438.078h1.125s.187-.125.5-.25c.312-.125.312-.28.625-.28.312 0 .813-.048 1-.11.188-.063.188-.087.188-.087s.5-.26.687-.2c.188.064.563.12.563.12s.437-.128.625-.253c.187-.125.687-.25.687-.25l.813-.064.625-.063.375-.23.625-.333H110.795s.084 0 .334-.083.25-.04.25-.04l.583-.147.417-.323.084-1.078-.166-.747-.417-.998v-.916s0-.583-.083-.833.083-.583.083-.583v-1.083l.25-.333.71-.416s3.978-2.25.978-9.666c0 0 1.91 3.802 4.99 4.083" fill="none" stroke="#000" stroke-width=".5" stroke-miterlimit="10"/></g><g><path d="M90.46 544.334s.25.5 1.334.083c1.084-.416 2.417-.666 3.334.084" fill="none" stroke="#000" stroke-width=".5" stroke-miterlimit="10"/></g><g><path d="M90.21 545.334s5.5 3.5 5 6.583" fill="none" stroke="#000" stroke-width=".5" stroke-miterlimit="10"/></g><g><path d="M55.815 518.522c.937-2.25 2.313-2.75 3-3.375.688-.625 1.312-.063 1.312-.063.75-.78 1.688-.343 1.688-.343s.437-1.218 2.625-.905c0 0 .938-.813 2-.063 1.063.75-.125 2.875-.312 3.5-.188.625-.25 1.687-.25 2.937 0 1.25.5 3.374.625 3.937.125.562.687 1.062.687 1.062 1.75-3.875 4.937-3 5.5-2 .562 1-.375 1.562-.688 1.812-.312.25-1.25 1.688-1.562 2.438-.312.75-.75 2-.75 2" fill="none" stroke="#000" stroke-width=".5" stroke-miterlimit="10"/></g><g><path d="M60.19 514.834s-1.125-2.625-.5-3.563c.625-.936 1.25-1.686 1.187-2.436-.062-.75-.375-3.688-.375-3.688" fill="none" stroke="#000" stroke-width=".5" stroke-miterlimit="10"/></g><g><path d="M64.44 513.834s-1.187 2.563-1.75 4.562c-.563 2-.5 4.813-.375 5.75" fill="none" stroke="#000" stroke-width=".3" stroke-miterlimit="10"/></g><g><path d="M65.19 513.397s-1.937-5.125-2.063-6.75c-.125-1.625.188-4.688.5-6.063.313-1.375 3.626-8.624 6-10.937 0 0 .313-.562.75-1.625.438-1.062 6.313-17.875 13.063-26.188 0 0 3-4.625 4-6.187 1-1.563 5.437-6.375 7.187-7.438 1.75-1.063 2.125-2.25 3.938-2.126 1.813.125 13.625-.062 20.75 3.875s12.875 8.75 12.875 8.75" fill="none" stroke="#000" stroke-width=".5" stroke-miterlimit="10"/></g><g><path d="M135.19 472.584s-3.75-2.938-7.062-3.438c-3.313-.5-6.313-1.5-9.5-1.624-3.188-.125-10.813.062-12.5 0-1.688-.063-4 0-4.75 1.062s-1.876 3.063-2.876 5.812c-1 2.75-4.312 9.376-6.562 12.5-2.25 3.125-4.688 6-5.125 8.313-.438 2.31-.375 8.5-8.688 16.624" fill="none" stroke="#000" stroke-width=".5" stroke-miterlimit="10"/></g><g><path d="M69.92 514.167s-5.126-3.042-6.668-7.083" fill="none" stroke="#000" stroke-width=".5" stroke-miterlimit="10"/></g><g><path d="M87.42 510.334s.457-1.708 1.666-2.833c1.208-1.124 2.125-2.124 3.333-3.166 1.207-1.042.79-1.333 1.874-1.542 1.083-.208 1.417-.04 2.083-.54.667-.5 2.667-1.876 2.667-1.876s-5.708 6.79-7.417 11.958" fill="none" stroke="#000" stroke-width=".5" stroke-miterlimit="10"/></g><g><path d="M100.21 499.334s1.834-2.667 3.168-4.417c1.333-1.75 1.75-2.416 1.833-3.75.084-1.333.918-2.583 1-3.666.084-1.083-.082-2 .084-2.916.167-.917.917-2.75.917-2.75l4 .25 4.584-1.167s2.084 3.417 1.75 7.167l5.417-4.75s1.168.75 1.918 1.583c.75.834 1.833 1.584 2.916 2.417 1.084.833 9.25 5.917 9.584 9.917" fill="none" stroke="#000" stroke-width=".5" stroke-miterlimit="10"/></g><g><path d="M106.878 482.834s-.833-2.25-1.833-3.333c-1-1.083-4.667-4.25-5.167-8.583" fill="none" stroke="#000" stroke-width=".5" stroke-miterlimit="10"/></g><g><path d="M93.044 449.5s-1-6.416-2.25-8.582" fill="none" stroke="#000" stroke-width=".5" stroke-miterlimit="10"/></g><g><path d="M60.128 515.084s-1.792 1.583-2.042 2.667c-.25 1.084-.625 3.667-.5 4.5" fill="none" stroke="#000" stroke-width=".3" stroke-miterlimit="10"/></g><g><path d="M61.878 514.647s-1.125 2.125-1.542 3.792c-.416 1.665-.583 3.54-.583 4.124" fill="none" stroke="#000" stroke-width=".3" stroke-miterlimit="10"/></g><g><path d="M59.42 511.542s-1.084-2.458-3-2.667" fill="none" stroke="#000" stroke-width=".3" stroke-miterlimit="10"/></g><g><path d="M56.753 508.876s1.042-.25 1.208-.875c0 0 1.96-.166 2.585-.29" fill="none" stroke="#000" stroke-width=".3" stroke-miterlimit="10"/></g><g><path d="M58.21 509.792s.876-.667 1-1.208c0 0 1.21.04 1.5-.334" fill="none" stroke="#000" stroke-width=".3" stroke-miterlimit="10"/></g><g><path d="M92.878 448.75s1.667-2.832 3.667-4.832c2-2 3.166-3.667 3.166-3.667" fill="none" stroke="#000" stroke-width=".5" stroke-miterlimit="10"/></g><g><path d="M122.878 451.897s.812-.437 1.312-1.5c0 0 1.438.875 3.188-.125" fill="none" stroke="#000" stroke-width=".5" stroke-miterlimit="10"/></g><g><path d="M125.96 453.917s.25-2.167-2.332-2.75" fill="none" stroke="#000" stroke-width=".5" stroke-miterlimit="10"/></g><g><path d="M128.21 453.667s-1.25-.5-2.166-2.917" fill="none" stroke="#000" stroke-width=".5" stroke-miterlimit="10"/></g><g><path d="M101.378 523.21s2.5-.126 4.25 2.25c1.75 2.374 7.125 10.75 11.25 11.75" fill="none" stroke="#000" stroke-width=".5" stroke-miterlimit="10"/></g><g><path d="M90.44 529.647s2.688 10.063 6.437 14.438" fill="none" stroke="#000" stroke-width=".5" stroke-miterlimit="10"/></g></g></g><path d="M152.22 111.24c0 41.42-33.578 75-75 75-41.42 0-75-33.58-75-75" fill="none" stroke="#231f20" stroke-width="1.875"/></g></svg>