<?xml version="1.0" encoding="UTF-8" standalone="no"?>
<svg
   xmlns:dc="http://purl.org/dc/elements/1.1/"
   xmlns:cc="http://creativecommons.org/ns#"
   xmlns:rdf="http://www.w3.org/1999/02/22-rdf-syntax-ns#"
   xmlns:svg="http://www.w3.org/2000/svg"
   xmlns="http://www.w3.org/2000/svg"
   version="1.1"
   id="svg10845"
   height="195.60275"
   width="200.0005">
  <defs
     id="defs4809">
    <pattern
       id="polka"
       patternTransform="rotate(20)"
       height="5"
       width="5"
       patternUnits="userSpaceOnUse">
      <rect
         y="0"
         x="0"
         height="5"
         width="5"
         style="fill:#ffffff"
         id="polka__bg" />
      <circle
         cx="2"
         style="fill:#ff0000"
         cy="2"
         r="1.5"
         id="polka__inner" />
    </pattern>
    <clipPath
       id="clipPath884-6">
      <path
         id="path886-8"
         d="m 342.244,606.918 -0.366,-103.167 c 0,-33.137 27.029,-59.917 60.166,-59.917 l 0,0 c 33.137,0 60.167,26.946 60.167,60.083 l 0,0 0,103.001 -119.967,0 z" />
    </clipPath>
    <clipPath
       id="clipPath992-1">
      <path
         id="path994-7"
         d="m 0,863.584 938.953,0 L 938.953,0 0,0 0,863.584 Z" />
    </clipPath>
  </defs>
  <metadata
     id="metadata10850">
    <rdf:RDF>
      <cc:Work
         rdf:about="">
        <dc:format>image/svg+xml</dc:format>
        <dc:type
           rdf:resource="http://purl.org/dc/dcmitype/StillImage" />
        <dc:title></dc:title>
      </cc:Work>
    </rdf:RDF>
  </metadata>
  <g
     style="display:inline"
     transform="translate(-282.08096,-278.41122)"
     id="layer1">
    <ellipse
       style="color:#000000;display:inline;overflow:visible;visibility:visible;opacity:1;fill:none;fill-opacity:1;fill-rule:nonzero;stroke:#000000;stroke-width:2;stroke-miterlimit:4;stroke-dasharray:none;stroke-opacity:1;marker:none;enable-background:accumulate"
       id="path6022"
       cx="382.06821"
       cy="398.07648"
       rx="74.9505"
       ry="74.950493" />
    <g
       id="layer1-9"
       transform="translate(-17.690673,-8.4852729)">
      <g
         id="layer1-5"
         transform="translate(-23.654154,-140.6838)">
        <g
           id="g34352">
          <path
             style="fill:#ffffff;fill-opacity:1;fill-rule:nonzero;stroke:none"
             id="path830"
             d="m 379.1024,505.84905 c 0,0 20.27625,-9.77625 26.43125,-12.49125 0,0 1.2675,-3.56 2.83625,-4.7675 0,0 -0.66375,-3.37875 1.3875,-5.25 l 0.06,-5.37125 c 0,0 -3.01625,-4.70625 -3.31875,-10.1375 0,0 -1.99125,0.96625 -2.715,-0.60375 -0.725,-1.56875 -1.56875,-4.8275 -1.75,-5.6725 -0.18125,-0.84375 -0.4225,-4.0425 -0.3625,-4.405 0.06,-0.36125 0.12125,-1.68875 0.72375,-1.68875 0.60375,0 1.63,0.5425 1.63,0.5425 0,0 -4.465,-24.9825 16.715,-24.9825 0,0 20.3975,-2.1125 17.68125,25.345 0,0 1.41875,-1.02625 2.05125,-0.755 0.63375,0.27125 0.815,4.345 0.2725,6.5175 -0.54375,2.1725 -0.815,4.345 -1.63,4.97875 -0.81375,0.63375 -2.46125,1.08625 -2.91375,0.5425 0,0 0.12875,6.33625 -2.37125,8.96125 l 0,2.80625 c 0,0 0.9225,0.63375 1.19375,1.63 0.2725,0.995 0.82375,1.71875 0.82375,1.71875 0,0 1.68,0.3625 1.95125,1.2675 0.27125,0.905 1.835,2.625 2.74,3.34875 0.905,0.725 3.81375,1.9925 4.4475,3.07875 0,0 21.73125,5.52125 27.2525,10.31875 0,0 2.9,1.99125 2.71875,5.25 -0.18125,3.25875 -0.18,4.16375 10e-4,5.43125 0.18125,1.26625 0.001,3.43875 -0.905,4.61625 0,0 0.3625,2.53375 0.2725,3.80125 -0.09,1.2675 -0.905,1.53875 -0.905,2.625 0,1.08625 0.4525,3.71125 -0.3625,4.7075 0,0 1.35875,1.17625 0.99625,2.1725 -0.3625,0.995 -1.2675,1.53875 -1.2675,1.53875 0,0 0.63375,30.86625 -13.48625,42.72375 0,0 2.89625,16.655 3.71125,18.9175 0,0 0.81375,0.99625 0.5425,1.72 0,0 1.90125,5.88375 2.715,8.2375 0.815,2.35375 0.725,2.9875 -0.905,3.9825 0,0 5.88375,36.2075 5.79375,41.63875 0,0 -6.33625,4.525 -12.31,4.61625 l -1.1775,5.7025 c 0,0 0.18125,2.1725 0.18125,4.34375 0,2.1725 -0.4525,7.5025 -0.4525,9.40375 0,1.90125 0.18125,10.03625 0.18125,10.03625 l -34.39625,0 -3.44,-8.01125 -1.3575,8.01125 -32.94875,0 c 0,0 0.09,-7.90875 -0.3625,-13.06875 -0.4525,-5.16 -2.3525,-20.02125 -2.3525,-20.02125 0,0 -6.33625,-2.3175 -5.975,-5.75625 0.3625,-3.44 1.72,-15.415 2.0825,-18.4025 0.36125,-2.9875 1.62875,-13.22875 2.08125,-15.03875 0.4525,-1.81125 1.08625,-6.43375 1.08625,-6.43375 0,0 -1.17625,-1.45125 -0.4525,-2.99125 0.725,-1.53875 0.725,-4.88875 0.815,-6.06625 0.09,-1.17625 0.09,-2.80625 0.905,-3.25875 l 0.4525,-4.6175 -9.41375,-2.715 c 0,0 -4.52625,-1.1775 -5.34,-4.255 -0.815,-3.0775 -1.44875,-8.23625 -1.53875,-10.2275 -0.0913,-1.9925 -0.63375,-5.16 -1.08625,-6.33625 -0.45375,-1.1775 -1.44875,-2.445 -0.54375,-3.98375 0.905,-1.53875 0.54375,-3.53 1.3575,-4.435 0.815,-0.905 0.905,-0.905 0.905,-2.535 0,-1.62875 -0.18,-4.16375 0.725,-5.25 0.905,-1.08625 1.53875,-2.805 1.4475,-3.53 -0.09,-0.72375 -0.995,-1.81 -0.4525,-2.625 0.54375,-0.81375 0.54375,-1.3575 0.54375,-2.53375 0,-1.1775 -0.0913,-2.35375 0.995,-2.535 0,0 -0.4525,-2.1725 0.815,-2.44375 0,0 -0.72375,-2.1725 0.09,-3.16875 0.815,-0.995 0.45375,-0.81375 0.45375,-3.2575 0,-2.445 0.5425,-3.0775 1.17625,-3.71125 0.63375,-0.63375 -0.905,-2.71625 0,-3.98375 0.905,-1.26625 1.81,-4.345 1.99125,-6.33625 0.18125,-1.99125 1.63,-5.61125 3.25875,-6.87875" />
          <path
             style="fill:url(#polka);fill-opacity:1;fill-rule:nonzero;stroke:none"
             id="path878"
             d="m 422.0679,501.02142 0.04,-0.0812 c -2.225,-3.29 -5.04875,-5.47 -5.04875,-5.47 0,0 -3.9825,2.05125 -4.94875,2.89625 -0.285,0.25 -0.50625,0.72375 -0.6775,1.29875 l 0.045,0.0888 -0.045,-0.0888 c -0.004,0.015 -0.009,0.0288 -0.0138,0.0437 l 0.69125,5.41625 c 0,0 -1.81,2.89625 -1.93,5.31 0,0 2.95625,14.66375 3.1975,17.62125 0,0 7.60375,-16.535 8.81125,-18.10375 0,0 -1.93125,-2.77625 -2.8975,-3.56 -0.965,-0.785 -0.12,-2.9575 2.77625,-5.37125" />
          <g
             transform="matrix(1.25,0,0,-1.25,-78.934087,1177.1423)"
             clip-path="url(#clipPath884-6)"
             id="g882">
            <path
               style="fill:#231f20;fill-opacity:1;fill-rule:nonzero;stroke:none"
               id="path890"
               d="m 400.5273,598.4268 c -0.415,0 -0.713,-0.019 -0.854,-0.03 -4.912,-0.014 -8.723,-1.6 -11.33,-4.715 -3.893,-4.651 -3.969,-11.44 -3.706,-14.879 -0.901,-0.191 -1.445,-1.017 -1.62,-2.464 l -0.013,-0.102 c -0.102,-0.614 0.163,-3.426 0.303,-4.082 0.14,-0.655 0.844,-3.421 1.505,-4.852 0.424,-0.92 1.223,-1.482 2.218,-1.576 0.52,-3.179 1.902,-5.817 2.467,-6.796 l -0.037,-3.293 c -1.13,-1.398 -1.238,-3.187 -1.184,-4.23 -0.877,-1 -1.535,-2.419 -1.879,-3.262 -5.432,-2.439 -19.98,-9.452 -20.619,-9.76 -0.096,-0.046 -0.186,-0.102 -0.27,-0.167 -1.791,-1.393 -3.017,-4.758 -3.18,-6.552 -0.128,-1.41 -0.794,-3.597 -1.32,-4.333 -0.809,-1.134 -0.466,-2.446 -0.261,-3.23 0.014,-0.053 0.03,-0.115 0.046,-0.178 -0.642,-0.781 -1.006,-1.743 -1.006,-3.619 0,-0.632 0.029,-1.074 0.048,-1.367 0.005,-0.071 0.01,-0.132 0.013,-0.187 -0.024,-0.031 -0.052,-0.065 -0.084,-0.103 -0.709,-0.867 -0.72,-2.03 -0.587,-2.901 -0.33,-0.453 -0.521,-1.046 -0.545,-1.723 -0.738,-0.785 -0.731,-2.018 -0.728,-2.649 l 0.001,-0.194 c 0,-0.922 -0.018,-0.948 -0.183,-1.196 -0.74,-1.11 -0.252,-2.253 0.01,-2.868 0.031,-0.073 0.074,-0.173 0.1,-0.243 -0.051,-0.334 -0.366,-1.151 -0.811,-1.684 -0.98,-1.177 -0.953,-3.082 -0.932,-4.613 0.003,-0.192 0.005,-0.376 0.005,-0.548 0,-0.329 -0.006,-0.551 -0.018,-0.665 -0.051,-0.06 -0.137,-0.156 -0.21,-0.236 l -0.111,-0.122 c -0.625,-0.696 -0.763,-1.582 -0.884,-2.364 -0.084,-0.546 -0.164,-1.062 -0.38,-1.428 -0.982,-1.669 -0.293,-3.137 0.119,-4.015 0.075,-0.16 0.149,-0.316 0.209,-0.47 0.278,-0.723 0.701,-3.083 0.77,-4.599 0.07,-1.544 0.572,-5.824 1.28,-8.498 0.851,-3.217 4.887,-4.353 5.345,-4.472 l 6.293,-1.816 -0.186,-1.896 c -0.625,-0.81 -0.7,-1.965 -0.758,-2.863 l -0.023,-0.33 c -0.014,-0.192 -0.027,-0.45 -0.041,-0.753 -0.042,-0.925 -0.131,-2.85 -0.472,-3.575 -0.598,-1.272 -0.281,-2.532 0.157,-3.363 -0.153,-1.061 -0.503,-3.408 -0.762,-4.443 -0.406,-1.626 -1.487,-10.452 -1.699,-12.204 -0.295,-2.429 -1.375,-11.935 -1.669,-14.724 -0.321,-3.057 3.169,-5.007 4.895,-5.777 0.356,-2.798 1.466,-11.602 1.765,-15.004 0.351,-4.007 0.285,-10.073 0.284,-10.134 -0.005,-0.401 0.151,-0.787 0.433,-1.072 0.282,-0.285 0.666,-0.446 1.067,-0.446 l 26.358,0 c 0.732,0 1.356,0.528 1.479,1.248 l 0.23,1.348 0.75,-1.757 c 0.236,-0.553 0.779,-0.911 1.379,-0.911 l 27.518,0 c 0.403,0 0.79,0.163 1.072,0.451 0.283,0.289 0.437,0.679 0.427,1.083 -10e-4,0.063 -0.144,6.373 -0.144,7.859 0,0.688 0.086,2.053 0.169,3.373 0.095,1.508 0.193,3.068 0.193,4.013 0,1.435 -0.093,2.847 -0.133,3.381 l 0.669,3.239 c 4.767,0.559 9.275,3.744 9.481,3.891 0.387,0.276 0.62,0.72 0.628,1.195 0.067,4.038 -3.699,27.652 -4.509,32.675 1.409,1.274 1.089,2.681 0.516,4.337 -0.536,1.549 -1.683,5.08 -2.048,6.208 0.054,0.82 -0.342,1.552 -0.625,1.963 -0.483,1.644 -1.833,8.943 -2.698,13.869 10.097,9.313 10.665,29.834 10.672,34.049 0.332,0.332 0.695,0.803 0.919,1.419 0.361,0.993 -0.023,1.899 -0.462,2.531 0.22,0.909 0.146,1.943 0.082,2.832 -0.019,0.255 -0.037,0.482 -0.037,0.653 0.01,0.036 0.075,0.145 0.122,0.224 0.213,0.36 0.537,0.905 0.598,1.769 0.059,0.819 -0.068,2.079 -0.156,2.807 0.776,1.453 0.78,3.351 0.652,4.246 -0.12,0.842 -0.132,1.441 0.013,4.05 0.174,3.13 -2.245,5.093 -2.738,5.46 -4.321,3.684 -18.951,7.642 -21.873,8.406 -0.561,0.583 -1.407,1.092 -2.467,1.697 -0.393,0.225 -0.839,0.48 -1,0.609 -0.636,0.508 -1.543,1.599 -1.678,1.953 -0.299,0.999 -1.204,1.536 -1.9,1.809 -0.063,0.151 -0.131,0.332 -0.184,0.53 -0.172,0.628 -0.475,1.129 -0.744,1.479 l 0,1.233 c 1.009,1.72 1.439,4.356 1.617,6.028 0.688,0.174 1.315,0.522 1.714,0.833 0.926,0.72 1.209,2.005 1.568,3.633 0.084,0.38 0.171,0.775 0.27,1.17 0.015,0.059 1.156,5.997 -1.082,6.956 -0.18,0.077 -0.372,0.127 -0.573,0.147 0.303,6.609 -1.111,11.685 -4.213,15.11 -3.735,4.122 -8.799,4.567 -10.803,4.567 m 0,-1.5 c 3.234,0 15.24,-1.268 13.357,-20.306 0,0 0.885,0.64 1.441,0.64 0.073,0 0.141,-0.011 0.2,-0.036 0.507,-0.218 0.652,-3.476 0.218,-5.214 -0.435,-1.738 -0.652,-3.476 -1.304,-3.983 -0.448,-0.348 -1.135,-0.628 -1.639,-0.628 -0.229,0 -0.42,0.058 -0.533,0.194 0,0 -0.217,-5.07 -1.738,-7.17 l 0,-2.244 c 0,0 0.579,-0.507 0.796,-1.304 0.218,-0.796 0.58,-1.376 0.58,-1.376 0,0 1.303,-0.289 1.52,-1.013 0.218,-0.725 1.449,-2.101 2.173,-2.68 0.724,-0.579 3.041,-1.593 3.548,-2.462 0,0 17.38,-4.417 21.797,-8.255 0,0 2.317,-1.593 2.172,-4.2 -0.145,-2.607 -0.145,-3.331 0,-4.345 0.145,-1.014 0,-2.751 -0.724,-3.693 0,0 0.29,-2.027 0.217,-3.041 -0.072,-1.014 -0.724,-1.231 -0.724,-2.1 0,-0.869 0.362,-2.969 -0.29,-3.766 0,0 1.087,-0.941 0.797,-1.738 -0.29,-0.796 -1.014,-1.231 -1.014,-1.231 0,0 0.507,-24.693 -10.789,-34.179 0,0 2.317,-13.324 2.969,-15.135 0,0 0.651,-0.796 0.434,-1.376 0,0 1.521,-4.706 2.172,-6.589 0.652,-1.883 0.58,-2.39 -0.724,-3.186 0,0 4.707,-28.966 4.635,-33.311 0,0 -5.069,-3.62 -9.848,-3.693 l -0.942,-4.562 c 0,0 0.145,-1.738 0.145,-3.476 0,-1.738 -0.362,-5.865 -0.362,-7.386 0,-1.521 0.145,-7.893 0.145,-7.893 l -27.518,0 -2.751,6.445 -1.087,-6.373 -26.358,0 c 0,0 0.072,6.155 -0.29,10.283 -0.362,4.128 -1.883,15.931 -1.883,15.931 0,0 -5.068,1.81 -4.779,4.562 0.29,2.752 1.376,12.311 1.666,14.7 0.289,2.39 1.303,10.573 1.665,12.021 0.362,1.448 0.869,5.141 0.869,5.141 0,0 -0.941,1.159 -0.362,2.39 0.579,1.231 0.579,3.91 0.652,4.852 0.072,0.941 0.072,2.245 0.724,2.607 l 0.362,3.693 -7.531,2.172 c 0,0 -3.621,0.942 -4.272,3.404 -0.652,2.462 -1.159,6.589 -1.231,8.182 -0.073,1.593 -0.507,4.128 -0.869,5.069 -0.363,0.942 -1.159,1.956 -0.435,3.187 0.724,1.23 0.435,2.824 1.086,3.548 0.652,0.724 0.724,0.724 0.724,2.027 0,1.304 -0.144,3.331 0.58,4.2 0.724,0.869 1.231,2.245 1.158,2.825 -0.072,0.579 -0.796,1.448 -0.362,2.099 0.435,0.652 0.435,1.087 0.435,2.028 0,0.942 -0.073,1.883 0.796,2.028 0,0 -0.362,1.738 0.652,1.955 0,0 -0.579,1.738 0.072,2.534 0.652,0.797 0.362,0.652 0.362,2.607 0,1.955 0.435,2.462 0.942,2.969 0.507,0.507 -0.724,2.173 0,3.186 0.724,1.014 1.448,3.476 1.593,5.069 0.145,1.594 1.303,4.49 2.607,5.504 0,0 16.221,7.82 21.145,9.993 0,0 1.014,2.848 2.269,3.814 0,0 -0.531,2.703 1.11,4.2 l 0.048,4.296 c 0,0 -2.413,3.766 -2.655,8.111 0,0 -0.485,-0.236 -1.017,-0.236 -0.432,0 -0.896,0.156 -1.155,0.718 -0.58,1.256 -1.255,3.863 -1.4,4.538 -0.145,0.676 -0.338,3.235 -0.29,3.524 0.048,0.29 0.097,1.352 0.579,1.352 0.483,0 1.304,-0.434 1.304,-0.434 0,0 -3.573,19.986 13.372,19.986 0,0 0.291,0.03 0.788,0.03" />
            <path
               style="fill:none;stroke:#231f20;stroke-width:0.5;stroke-linecap:butt;stroke-linejoin:miter;stroke-miterlimit:4;stroke-dasharray:none;stroke-opacity:1"
               id="path894"
               d="m 390.6154,555.2829 c 0,0 -0.676,-3.09 0.772,-4.924 1.449,-1.835 5.407,-5.021 5.407,-5.021 0,0 1.545,0.869 2.414,1.642 0.869,0.772 11.393,9.365 11.876,10.62" />
            <path
               style="fill:none;stroke:#231f20;stroke-width:0.5;stroke-linecap:butt;stroke-linejoin:miter;stroke-miterlimit:4;stroke-dasharray:none;stroke-opacity:1"
               id="path898"
               d="m 389.0706,550.745 c 0,-1.159 0.483,-4.538 0.966,-6.276 0.482,-1.738 0.965,-7.821 0.965,-7.821 0,0 0.869,0.869 0.869,1.932 0,1.062 0.193,3.765 0.966,4.441 0.772,0.676 3.958,2.317 3.958,2.317 0,0 5.021,-3.862 5.986,-8.786 0,0 10.235,14.676 9.752,19.021" />
            <path
               style="fill:none;stroke:#231f20;stroke-width:0.5;stroke-linecap:butt;stroke-linejoin:miter;stroke-miterlimit:4;stroke-dasharray:none;stroke-opacity:1"
               id="path902"
               d="m 392.2568,542.1519 0.579,-4.538 c 0,0 -1.448,-2.317 -1.545,-4.248 0,0 2.366,-11.731 2.559,-14.097 0,0 6.083,13.228 7.048,14.483 0,0 -1.545,2.221 -2.317,2.848 -0.772,0.628 -0.096,2.366 2.221,4.297" />
            <path
               style="fill:none;stroke:#231f20;stroke-width:0.5;stroke-linecap:butt;stroke-linejoin:miter;stroke-miterlimit:4;stroke-dasharray:none;stroke-opacity:1"
               id="path906"
               d="m 391.0016,536.6484 0.29,-3.283" />
            <path
               style="fill:none;stroke:#231f20;stroke-width:0.5;stroke-linecap:butt;stroke-linejoin:miter;stroke-miterlimit:4;stroke-dasharray:none;stroke-opacity:1"
               id="path910"
               d="m 400.8981,533.7519 c 0,0 1.159,1.835 1.883,2.8" />
            <path
               style="fill:none;stroke:#231f20;stroke-width:0.5;stroke-linecap:butt;stroke-linejoin:miter;stroke-miterlimit:4;stroke-dasharray:none;stroke-opacity:1"
               id="path914"
               d="m 419.3878,549.2484 -0.241,-11.297 -5.649,-1.641 2.076,-4.393 c 0,0 0.386,-1.014 -0.482,-1.497 -0.869,-0.482 -8.98,-6.951 -10.525,-8.255 -1.544,-1.303 -5.358,-5.117 -6.903,-6.517 -1.545,-1.4 -5.069,-4.828 -5.89,-5.745 -0.82,-0.917 -1.834,-3.62 -1.883,-4.731 -0.048,-1.11 0.338,-3.234 0.338,-3.234" />
            <path
               style="fill:none;stroke:#231f20;stroke-width:0.5;stroke-linecap:butt;stroke-linejoin:miter;stroke-miterlimit:4;stroke-dasharray:none;stroke-opacity:1"
               id="path918"
               d="m 389.843,504.9312 c 0,0 1.448,9.752 4.007,14.338" />
            <path
               style="fill:none;stroke:#231f20;stroke-width:0.5;stroke-linecap:butt;stroke-linejoin:miter;stroke-miterlimit:4;stroke-dasharray:none;stroke-opacity:1"
               id="path922"
               d="m 391.1706,511.6415 -13.324,19.045 c 0,0 -0.652,1.448 0.145,1.955 0.796,0.507 2.896,2.535 2.896,2.535 l -2.824,1.231 5.793,8.979" />
            <path
               style="fill:none;stroke:#231f20;stroke-width:0.5;stroke-linecap:butt;stroke-linejoin:miter;stroke-miterlimit:4;stroke-dasharray:none;stroke-opacity:1"
               id="path926"
               d="m 370.1223,472.4415 c 0,0 5.335,-1.159 7.266,-1.931 1.931,-0.772 13.034,-3.186 13.034,-3.186 l 7.724,-1.255 c 0,0 3.283,8.303 3.283,13.227" />
            <path
               style="fill:none;stroke:#231f20;stroke-width:0.5;stroke-linecap:butt;stroke-linejoin:miter;stroke-miterlimit:4;stroke-dasharray:none;stroke-opacity:1"
               id="path930"
               d="m 430.5878,482.7967 c 0,0 -3.862,-6.493 -11.876,-3.79 0,0 -4.731,-0.289 -7.821,-0.096 -3.089,0.193 -8.206,0.482 -10.813,0.289 -2.607,-0.193 -9.173,1.642 -9.173,1.642 l -9.655,-1.545 c 0,0 -4.345,4.441 -3.09,8.786 1.256,4.345 4.924,13.517 6.469,13.517 0,0 4.635,0.097 7.145,0.097 2.511,0 12.842,0.29 15.159,-0.483 0,0 6.662,2.124 8.4,0.966 0,0 0.289,-0.676 1.448,-0.773 1.159,-0.096 2.8,-1.062 2.8,-1.062 l 2.076,3.186 c 0,0 0.29,0.652 -0.145,0.869 0,0 3.114,3.259 1.738,4.056 0,0 0.941,1.52 0,2.1 0,0 -1.086,0.289 -2.317,-1.376" />
            <path
               style="fill:#231f20;fill-opacity:1;fill-rule:nonzero;stroke:none"
               id="path934"
               d="m 420.9378,508.6744 c -0.14,0 -0.27,0.06 -0.36,0.15 -0.09,0.09 -0.14,0.22 -0.14,0.35 0,0.14 0.05,0.26 0.14,0.36 0.189,0.19 0.51,0.19 0.7,0 0.1,-0.1 0.16,-0.23 0.16,-0.36 0,-0.13 -0.06,-0.25 -0.15,-0.35 -0.1,-0.09 -0.23,-0.15 -0.35,-0.15" />
            <path
               style="fill:#231f20;fill-opacity:1;fill-rule:nonzero;stroke:none"
               id="path938"
               d="m 437.5974,540.8243 c -0.13,0.25 -0.03,0.55 0.21,0.67 0.25,0.13 0.55,0.03 0.68,-0.21 0.12,-0.25 0.02,-0.55 -0.22,-0.68 -0.08,-0.03 -0.15,-0.05 -0.23,-0.05 -0.18,0 -0.36,0.1 -0.44,0.27 m -1.71,-0.95 c -0.14,0.24 -0.06,0.54 0.18,0.68 0.24,0.14 0.55,0.06 0.69,-0.18 0.13,-0.24 0.05,-0.55 -0.19,-0.69 -0.08,-0.04 -0.16,-0.06 -0.25,-0.06 -0.17,0 -0.34,0.09 -0.43,0.25 m -1.65,-1.05 c -0.15,0.24 -0.09,0.54 0.14,0.7 l 0,-0.01 c 0.23,0.16 0.54,0.09 0.69,-0.14 0.15,-0.23 0.09,-0.54 -0.14,-0.69 -0.09,-0.06 -0.18,-0.08 -0.27,-0.08 -0.17,0 -0.33,0.08 -0.42,0.22 m -1.59,-1.14 c -0.16,0.23 -0.12,0.54 0.1,0.7 l 0.01,0 c 0.22,0.17 0.53,0.12 0.69,-0.1 0.17,-0.22 0.12,-0.54 -0.1,-0.7 -0.09,-0.07 -0.19,-0.1 -0.3,-0.1 -0.15,0 -0.3,0.07 -0.4,0.2 m -1.51,-1.23 c -0.18,0.21 -0.15,0.52 0.06,0.7 0.21,0.18 0.52,0.15 0.7,-0.06 0.18,-0.21 0.15,-0.52 -0.06,-0.7 -0.09,-0.08 -0.21,-0.12 -0.32,-0.12 -0.14,0 -0.28,0.06 -0.38,0.18 m -1.43,-1.34 c -0.19,0.2 -0.19,0.52 0.01,0.71 0.2,0.19 0.52,0.19 0.71,-0.01 0.19,-0.2 0.18,-0.52 -0.02,-0.71 -0.09,-0.09 -0.22,-0.14 -0.34,-0.14 -0.13,0 -0.26,0.05 -0.36,0.15 m -1.33,-1.43 c -0.21,0.19 -0.23,0.5 -0.04,0.71 0.18,0.21 0.5,0.22 0.71,0.04 0.2,-0.19 0.22,-0.5 0.03,-0.71 -0.1,-0.11 -0.23,-0.16 -0.37,-0.16 -0.12,0 -0.24,0.04 -0.33,0.12 m -1.23,-1.52 c -0.22,0.17 -0.26,0.48 -0.09,0.7 0.17,0.22 0.48,0.26 0.7,0.09 0.22,-0.17 0.26,-0.48 0.09,-0.7 -0.1,-0.13 -0.25,-0.19 -0.4,-0.19 -0.1,0 -0.21,0.03 -0.3,0.1 m -1.11,-1.61 c -0.23,0.16 -0.29,0.46 -0.14,0.69 0.15,0.24 0.46,0.3 0.69,0.15 0.23,-0.16 0.29,-0.47 0.14,-0.7 -0.09,-0.14 -0.25,-0.22 -0.41,-0.22 -0.1,0 -0.2,0.03 -0.28,0.08 m -0.98,-1.69 c -0.25,0.13 -0.33,0.44 -0.2,0.68 0.14,0.24 0.44,0.33 0.68,0.19 0.24,-0.13 0.33,-0.43 0.2,-0.68 -0.09,-0.16 -0.27,-0.25 -0.44,-0.25 -0.08,0 -0.17,0.02 -0.24,0.06 m -0.85,-1.77 c -0.25,0.12 -0.36,0.42 -0.25,0.67 0.12,0.25 0.42,0.36 0.67,0.25 0.25,-0.12 0.36,-0.41 0.24,-0.66 l 0,-0.01 c -0.08,-0.18 -0.26,-0.29 -0.45,-0.29 -0.07,0 -0.14,0.01 -0.21,0.04 m -0.69,-1.82 c -0.26,0.09 -0.4,0.38 -0.31,0.64 0.1,0.26 0.38,0.39 0.64,0.3 0.26,-0.09 0.4,-0.38 0.31,-0.64 l -0.01,0 c -0.07,-0.2 -0.26,-0.33 -0.46,-0.33 -0.06,0 -0.12,0.01 -0.17,0.03 m -0.54,-1.89 c -0.27,0.07 -0.43,0.35 -0.36,0.61 0.07,0.27 0.35,0.43 0.61,0.36 0.27,-0.07 0.43,-0.34 0.36,-0.61 -0.06,-0.22 -0.26,-0.37 -0.48,-0.37 -0.04,0 -0.08,0 -0.13,0.01 m -0.34,-1.92 c -0.27,0.04 -0.46,0.29 -0.42,0.56 0.04,0.28 0.29,0.47 0.57,0.43 0.27,-0.04 0.46,-0.3 0.42,-0.57 -0.04,-0.25 -0.25,-0.43 -0.5,-0.43 -0.02,0 -0.05,0 -0.07,0.01 m -0.56,-1.84 c -0.27,0.06 -0.45,0.32 -0.39,0.59 0.05,0.27 0.32,0.45 0.59,0.39 0.27,-0.05 0.44,-0.32 0.39,-0.59 -0.05,-0.24 -0.26,-0.4 -0.49,-0.4 -0.03,0 -0.07,0 -0.1,0.01 m -0.26,-1.94 c -0.27,0.06 -0.44,0.33 -0.38,0.6 0.06,0.27 0.33,0.44 0.6,0.38 0.27,-0.06 0.44,-0.33 0.38,-0.6 -0.05,-0.23 -0.26,-0.39 -0.49,-0.39 -0.04,0 -0.07,0 -0.11,0.01 m -0.47,-1.85 c -0.27,0.01 -0.49,0.24 -0.48,0.52 0.01,0.27 0.24,0.49 0.51,0.48 0.28,0 0.5,-0.24 0.49,-0.51 -0.01,-0.27 -0.23,-0.49 -0.5,-0.49 l -0.02,0 z m -0.89,-1.71 c -0.27,0.05 -0.45,0.31 -0.4,0.58 0.05,0.27 0.31,0.45 0.58,0.4 0.28,-0.05 0.46,-0.31 0.41,-0.58 -0.05,-0.24 -0.26,-0.41 -0.5,-0.41 -0.03,0 -0.06,0 -0.09,0.01 m -0.21,-1.86 c -0.23,0.15 -0.31,0.45 -0.16,0.69 0.14,0.23 0.45,0.31 0.69,0.16 0.23,-0.14 0.31,-0.45 0.16,-0.69 -0.09,-0.15 -0.26,-0.23 -0.43,-0.23 -0.09,0 -0.18,0.02 -0.26,0.07 m -0.68,-1.51 c -0.09,0.27 0.06,0.55 0.32,0.63 0.26,0.09 0.54,-0.06 0.63,-0.32 0.08,-0.27 -0.06,-0.55 -0.32,-0.63 -0.05,-0.02 -0.11,-0.02 -0.16,-0.02 -0.21,0 -0.41,0.13 -0.47,0.34" />
            <path
               style="fill:#231f20;fill-opacity:1;fill-rule:nonzero;stroke:none"
               id="path942"
               d="m 439.8377,541.4142 c -0.14,0 -0.26,0.05 -0.36,0.14 -0.09,0.1 -0.14,0.23 -0.14,0.36 0,0.13 0.05,0.25 0.14,0.35 0.2,0.19 0.52,0.19 0.71,0 0.09,-0.1 0.14,-0.22 0.14,-0.35 0,-0.13 -0.05,-0.26 -0.14,-0.35 -0.1,-0.1 -0.23,-0.15 -0.35,-0.15" />
            <path
               style="fill:none;stroke:#231f20;stroke-width:0.5;stroke-linecap:butt;stroke-linejoin:miter;stroke-miterlimit:4;stroke-dasharray:none;stroke-opacity:1"
               id="path946"
               d="m 420.9326,509.1795 c 0,0 -2.027,-2.172 -2.8,-2.848 -0.772,-0.676 -2.703,-2.607 -3.283,-3.959" />
            <path
               style="fill:none;stroke:#231f20;stroke-width:0.5;stroke-linecap:butt;stroke-linejoin:miter;stroke-miterlimit:4;stroke-dasharray:none;stroke-opacity:1"
               id="path950"
               d="m 383.8568,501.2863 c 0,0 -1.303,0.724 -2.824,-0.724 -1.521,-1.448 -6.083,-7.314 -2.39,-11.152" />
            <path
               style="fill:none;stroke:#231f20;stroke-width:0.5;stroke-linecap:butt;stroke-linejoin:miter;stroke-miterlimit:4;stroke-dasharray:none;stroke-opacity:1"
               id="path954"
               d="m 379.7292,499.0415 c 0,0 -4.417,-0.724 -5.286,-0.724 0,0 -0.073,-1.521 -0.797,-2.245 -0.724,-0.724 -0.869,-1.014 -0.869,-1.303 0,-0.29 -0.289,-2.028 -0.289,-2.028 0,0 2.389,-1.955 2.751,-2.752 0,0 1.956,0.217 3.259,-0.869" />
            <path
               style="fill:none;stroke:#231f20;stroke-width:0.5;stroke-linecap:butt;stroke-linejoin:miter;stroke-miterlimit:4;stroke-dasharray:none;stroke-opacity:1"
               id="path958"
               d="m 391.0981,559.0484 c 0,0 2.704,-4.634 8.979,-4.634 3.019,0 5.552,1.39 7.368,2.834" />
            <path
               style="fill:none;stroke:#231f20;stroke-width:0.5;stroke-linecap:butt;stroke-linejoin:miter;stroke-miterlimit:4;stroke-dasharray:none;stroke-opacity:1"
               id="path962"
               d="m 389.9395,467.3243 c 0,0 -3.09,-13.324 -5.503,-21.145 -2.414,-7.821 -7.628,-26.359 -15.449,-23.655" />
            <path
               style="fill:none;stroke:#231f20;stroke-width:0.5;stroke-linecap:butt;stroke-linejoin:miter;stroke-miterlimit:4;stroke-dasharray:none;stroke-opacity:1"
               id="path966"
               d="m 391.0016,467.1312 5.31,-32.055 c 0,0 2.704,-19.311 15.352,-18.055 12.648,1.255 18.562,2.486 18.562,2.486" />
            <path
               style="fill:#231f20;fill-opacity:1;fill-rule:nonzero;stroke:none"
               id="path970"
               d="m 366.3777,537.1241 c -0.27,0.05 -0.45,0.32 -0.39,0.59 0.06,0.27 0.32,0.44 0.59,0.39 0.27,-0.06 0.44,-0.32 0.39,-0.59 -0.05,-0.24 -0.26,-0.4 -0.49,-0.4 -0.03,0 -0.07,0 -0.1,0.01 m -0.1,-2 c -0.27,0.01 -0.49,0.23 -0.49,0.51 0.01,0.28 0.24,0.5 0.51,0.49 0.28,-0.01 0.5,-0.23 0.49,-0.51 0,-0.27 -0.23,-0.49 -0.5,-0.49 l -0.01,0 z m -0.39,-1.55 c -0.03,0.27 0.16,0.52 0.44,0.55 0.27,0.03 0.52,-0.16 0.55,-0.44 0.03,-0.28 -0.16,-0.52 -0.44,-0.55 -0.02,-0.01 -0.04,-0.01 -0.06,-0.01 -0.25,0 -0.46,0.19 -0.49,0.45 m 0.39,-2.04 c -0.08,0.26 0.08,0.54 0.35,0.61 0.26,0.08 0.54,-0.08 0.61,-0.35 0.08,-0.26 -0.08,-0.54 -0.35,-0.61 -0.04,-0.01 -0.09,-0.02 -0.13,-0.02 -0.22,0 -0.42,0.15 -0.48,0.37 m 0.73,-1.96 0,0 c -0.12,0.25 -0.02,0.55 0.23,0.67 0.25,0.12 0.55,0.01 0.67,-0.24 0.12,-0.25 0.01,-0.54 -0.24,-0.66 -0.07,-0.04 -0.14,-0.05 -0.21,-0.05 -0.19,0 -0.37,0.1 -0.45,0.28 m 1.09,-1.79 c -0.17,0.22 -0.13,0.53 0.09,0.7 0.22,0.17 0.54,0.13 0.7,-0.09 0.17,-0.22 0.13,-0.54 -0.09,-0.7 -0.09,-0.07 -0.2,-0.11 -0.3,-0.11 -0.15,0 -0.3,0.07 -0.4,0.2 m 0.83,-1.52 c -0.06,0.27 0.11,0.54 0.38,0.59 0.27,0.06 0.54,-0.11 0.59,-0.38 0.06,-0.27 -0.11,-0.54 -0.38,-0.59 -0.04,-0.01 -0.07,-0.01 -0.11,-0.01 -0.23,0 -0.43,0.16 -0.48,0.39 m 0.26,-1.92 c -0.02,0.28 0.18,0.52 0.46,0.54 0.27,0.02 0.51,-0.18 0.54,-0.46 0.02,-0.27 -0.18,-0.51 -0.46,-0.54 l -0.04,0 c -0.26,0 -0.48,0.2 -0.5,0.46 m 0.19,-2.01 c -0.02,0.28 0.17,0.52 0.45,0.55 0.27,0.03 0.52,-0.17 0.55,-0.44 0.03,-0.28 -0.17,-0.53 -0.45,-0.55 -0.01,0 -0.03,-0.01 -0.05,-0.01 -0.25,0 -0.47,0.2 -0.5,0.45 m 0.22,-1.99 c -0.03,0.27 0.17,0.52 0.44,0.55 0.28,0.03 0.52,-0.17 0.55,-0.44 0.04,-0.28 -0.16,-0.52 -0.44,-0.55 -0.02,-0.01 -0.04,-0.01 -0.05,-0.01 -0.26,0 -0.47,0.19 -0.5,0.45 m 0.24,-2 c -0.04,0.28 0.16,0.52 0.43,0.56 0.27,0.03 0.52,-0.16 0.56,-0.44 0.03,-0.27 -0.16,-0.52 -0.44,-0.55 -0.02,-0.01 -0.04,-0.01 -0.06,-0.01 -0.25,0 -0.46,0.19 -0.49,0.44 m 0.25,-1.99 c -0.04,0.27 0.16,0.52 0.43,0.56 0.27,0.04 0.52,-0.16 0.56,-0.43 0.04,-0.27 -0.16,-0.52 -0.43,-0.56 -0.02,0 -0.05,-0.01 -0.07,-0.01 -0.24,0.01 -0.46,0.19 -0.49,0.44 m 0.27,-1.99 c -0.04,0.27 0.15,0.53 0.43,0.57 0.27,0.03 0.52,-0.16 0.56,-0.43 0.04,-0.27 -0.15,-0.52 -0.42,-0.56 -0.03,-0.01 -0.05,-0.01 -0.07,-0.01 -0.25,0 -0.46,0.18 -0.5,0.43 m 0.3,-1.99 c -0.05,0.27 0.14,0.53 0.41,0.57 0.28,0.04 0.53,-0.14 0.57,-0.41 l 0,-0.01 c 0.05,-0.27 -0.14,-0.52 -0.41,-0.57 l -0.08,0 c -0.24,0 -0.46,0.18 -0.49,0.42 m 0.31,-1.98 c -0.04,0.27 0.14,0.53 0.42,0.57 0.27,0.05 0.52,-0.13 0.57,-0.41 0.05,-0.27 -0.14,-0.53 -0.41,-0.57 -0.03,-0.01 -0.06,-0.01 -0.08,-0.01 -0.24,0 -0.46,0.17 -0.5,0.42 m 0.35,-1.98 c -0.05,0.27 0.13,0.53 0.4,0.58 0.27,0.05 0.54,-0.13 0.58,-0.4 0.05,-0.27 -0.13,-0.53 -0.4,-0.58 -0.03,-0.01 -0.06,-0.01 -0.09,-0.01 -0.24,0 -0.45,0.17 -0.49,0.41 m 0.38,-1.98 c -0.06,0.27 0.12,0.54 0.39,0.59 0.27,0.06 0.54,-0.12 0.59,-0.39 0.05,-0.27 -0.12,-0.54 -0.39,-0.59 -0.03,-0.01 -0.07,-0.01 -0.1,-0.01 -0.23,0 -0.44,0.17 -0.49,0.4 m 0.42,-1.97 c -0.06,0.27 0.11,0.54 0.38,0.6 0.27,0.06 0.53,-0.11 0.59,-0.38 0.06,-0.27 -0.1,-0.54 -0.37,-0.6 -0.04,-0.01 -0.08,-0.01 -0.11,-0.01 -0.23,0 -0.44,0.16 -0.49,0.39 m 0.47,-1.96 c -0.07,0.27 0.09,0.54 0.36,0.61 0.27,0.07 0.54,-0.09 0.61,-0.36 0.07,-0.27 -0.09,-0.54 -0.36,-0.61 -0.04,-0.01 -0.08,-0.02 -0.13,-0.02 -0.22,0 -0.42,0.15 -0.48,0.38 m 0.54,-1.95 0,0 c -0.08,0.27 0.07,0.54 0.34,0.62 0.26,0.08 0.54,-0.07 0.62,-0.33 0.08,-0.26 -0.07,-0.54 -0.33,-0.62 -0.05,-0.02 -0.1,-0.02 -0.15,-0.02 -0.21,0 -0.41,0.13 -0.48,0.35 m 0.66,-1.93 c -0.1,0.26 0.03,0.55 0.29,0.65 0.25,0.09 0.54,-0.04 0.64,-0.29 0.1,-0.26 -0.03,-0.55 -0.29,-0.65 -0.06,-0.02 -0.12,-0.03 -0.18,-0.03 -0.2,0 -0.39,0.12 -0.46,0.32" />
            <path
               style="fill:#231f20;fill-opacity:1;fill-rule:nonzero;stroke:none"
               id="path974"
               d="m 365.2976,495.8541 c -0.27,0.07 -0.43,0.34 -0.36,0.61 0.07,0.27 0.34,0.43 0.61,0.36 0.26,-0.07 0.42,-0.34 0.36,-0.61 -0.06,-0.23 -0.27,-0.38 -0.49,-0.38 -0.04,0 -0.08,0.01 -0.12,0.02 m 1.86,-0.58 c -0.26,0.1 -0.4,0.38 -0.3,0.64 0.1,0.26 0.38,0.39 0.64,0.3 0.26,-0.1 0.39,-0.39 0.3,-0.65 -0.08,-0.2 -0.27,-0.32 -0.47,-0.32 -0.06,0 -0.12,0.01 -0.17,0.03 m 1.78,-0.77 c -0.24,0.12 -0.35,0.42 -0.22,0.67 0.12,0.24 0.42,0.35 0.67,0.22 0.25,-0.12 0.35,-0.42 0.22,-0.67 -0.08,-0.17 -0.26,-0.28 -0.45,-0.28 -0.07,0 -0.15,0.02 -0.22,0.06 m 1.69,-0.97 c -0.23,0.16 -0.3,0.47 -0.15,0.7 0.15,0.23 0.46,0.29 0.69,0.14 0.24,-0.15 0.3,-0.46 0.15,-0.69 -0.1,-0.15 -0.26,-0.23 -0.42,-0.23 -0.09,0 -0.19,0.03 -0.27,0.08 m 1.51,-1.15 c -0.2,0.19 -0.2,0.51 -0.01,0.71 0.2,0.19 0.51,0.2 0.71,0 0.2,-0.19 0.2,-0.51 0.01,-0.7 -0.1,-0.1 -0.23,-0.15 -0.36,-0.15 -0.13,0 -0.25,0.04 -0.35,0.14" />
            <path
               style="fill:none;stroke:#231f20;stroke-width:0.5;stroke-linecap:butt;stroke-linejoin:miter;stroke-miterlimit:4;stroke-dasharray:none;stroke-opacity:1"
               id="path978"
               d="m 398.943,402.6346 c 0,0 -4.659,12.117 -6.831,16.172" />
            <path
               style="fill:none;stroke:#231f20;stroke-width:0.5;stroke-linecap:butt;stroke-linejoin:miter;stroke-miterlimit:4;stroke-dasharray:none;stroke-opacity:1"
               id="path982"
               d="m 386.174,452.407 c 0,0 3.766,1.303 5.648,9.124" />
            <path
               style="fill:none;stroke:#000000;stroke-width:0.5;stroke-linecap:butt;stroke-linejoin:miter;stroke-miterlimit:10;stroke-dasharray:none;stroke-opacity:1"
               id="path986"
               d="m 386.174,577.345 c 0,0 1.4,-2.607 1.641,-4.297 0,0 -0.338,7.338 -0.289,8.883 0.048,1.545 0.241,3.669 0.676,4.924 l 0.434,1.256 0.193,0.337 0.29,0.531 0.224,0.29 0.368,0.241 0,0.29 0.018,0.338 0.202,0.29 c 0,0 0.101,0.289 0.246,0.386 0.144,0.096 0.122,0.096 0.122,0.096 0,0 0.183,-0.048 0.279,0.194 0.097,0.241 0.091,0.241 0.091,0.241 l 0.625,0.29 c 0,0 0.24,0 0.433,-0.049 0.193,-0.048 0.627,-0.289 0.82,-0.048 0.193,0.242 0.241,0.488 0.386,0.536 0.145,0.049 0.338,0.343 0.579,0.343 l 0.241,0 0.869,0 c 0,0 0.242,0.14 0.387,0.14 0.144,0 0.193,0.123 0.337,0.027 0.145,-0.097 0.435,-0.167 0.435,-0.167 l 0.628,0 c 0.144,0 0.337,-0.053 0.531,-0.053 0.193,0 0.531,-0.003 0.531,-0.003 0,0 0.386,-0.073 0.579,-0.122 0.193,-0.048 0.531,0.017 0.531,0.017 0,0 0.097,0.161 0.29,0.161 l 0.627,0 1.352,-0.193 0.386,0.193 0.29,0 c 0,0 0.338,0.019 0.531,0.019 0.193,0 0.289,-0.062 0.434,-0.062 0.145,0 0.242,-0.153 0.483,-0.008 0.241,0.145 0.579,0.141 0.579,0.141 l 0.483,-0.195 c 0,0 0.338,-0.194 0.531,-0.194 0.193,0 0.531,0.036 0.773,0.048 0.241,0.012 0.434,0 0.579,0 0.145,0 0.483,0.048 0.676,0.145 0.193,0.096 0.531,0.048 0.531,0.048 l 0.434,-0.193 c 0,0 0.242,-0.145 0.531,-0.097 0.29,0.048 0.338,0.097 0.483,0.097 0.145,0 0.435,0.048 0.579,-0.049 0.145,-0.096 -0.193,-0.096 0.145,-0.096 0.338,0 0.58,-0.193 0.58,-0.193 0,0 4.248,-4.731 2.944,-17.524 0,0 1.159,2.945 1.69,3.572" />
          </g>
        </g>
        <g
           id="g988"
           transform="matrix(1.25,0,0,-1.25,-78.934087,1177.1423)">
          <path
             style="fill:none;stroke:#231f20;stroke-width:1.5;stroke-linecap:butt;stroke-linejoin:miter;stroke-miterlimit:4;stroke-dasharray:none;stroke-opacity:1"
             id="path998"
             d="m 461.8777,503.9174 c 0,-33.137 -26.863,-60 -60,-60 -33.137,0 -60,26.863 -60,60" />
        </g>
      </g>
    </g>
  </g>
</svg>
