<?xml version="1.0" encoding="utf-8"?>
<!-- Generator: Adobe Illustrator 18.0.0, SVG Export Plug-In . SVG Version: 6.00 Build 0)  -->
<!DOCTYPE svg PUBLIC "-//W3C//DTD SVG 1.1//EN" "http://www.w3.org/Graphics/SVG/1.1/DTD/svg11.dtd">
<svg version="1.1" id="Layer_1" xmlns="http://www.w3.org/2000/svg" xmlns:xlink="http://www.w3.org/1999/xlink" x="0px" y="0px"
	 viewBox="0 0 254 320" enable-background="new 0 0 254 320" xml:space="preserve">
<g>
	<circle fill="#FFFFFF" stroke="#231F20" stroke-width="4" cx="126.75" cy="193.583" r="123.75"/>
	<path fill="#FFFFFF" d="M53.637,125.279c0,0,33.455-16.13,43.611-20.611c0,0,2.091-5.875,4.68-7.866c0,0-1.095-5.576,2.29-8.662
		l0.099-8.862c0,0-4.978-7.766-5.476-16.727c0,0-3.286,1.593-4.481-0.996c-1.195-2.589-2.589-7.965-2.888-9.359
		c-0.299-1.394-0.697-6.671-0.597-7.268c0.1-0.598,0.199-2.788,1.195-2.788c0.996,0,2.688,0.896,2.688,0.896
		S87.391,1.814,122.34,1.814c0,0,33.654-3.485,29.174,41.819c0,0,2.34-1.693,3.385-1.245c1.045,0.448,1.344,7.169,0.448,10.753
		c-0.896,3.584-1.344,7.169-2.688,8.215c-1.344,1.045-3.734,1.792-4.481,0.896c0,0-0.448,10.455-3.585,14.786v4.63
		c0,0,1.195,1.045,1.643,2.688c0.448,1.643,1.195,2.838,1.195,2.838s2.688,0.597,3.136,2.091c0.448,1.493,2.987,4.331,4.481,5.526
		c1.493,1.195,6.273,3.286,7.318,5.078c0,0,35.845,9.111,44.955,17.026c0,0,4.779,3.286,4.481,8.662
		c-0.299,5.377-0.299,6.87,0,8.961c0.299,2.091,0,5.676-1.494,7.617c0,0,0.598,4.182,0.448,6.273
		c-0.15,2.091-1.494,2.539-1.494,4.331c0,1.792,0.747,6.124-0.597,7.767c0,0,2.24,1.941,1.643,3.584
		c-0.597,1.643-2.091,2.539-2.091,2.539s1.045,50.93-22.254,70.495c0,0,4.779,27.481,6.123,31.215c0,0,1.344,1.643,0.896,2.838
		c0,0,3.136,9.708,4.481,13.591c1.344,3.883,1.195,4.929-1.493,6.572c0,0-140.094,8.663-139.347,5.675s1.792-10.604,1.792-10.604
		s-1.942-2.39-0.747-4.929c1.195-2.539,1.195-8.065,1.344-10.007c0.149-1.941,0.149-4.63,1.493-5.377l0.747-7.617l-15.533-4.481
		c0,0-7.468-1.942-8.812-7.02c-1.344-5.078-2.39-13.591-2.539-16.877c-0.149-3.286-1.045-8.513-1.792-10.455
		c-0.747-1.941-2.39-4.032-0.896-6.572c1.493-2.539,0.896-5.825,2.24-7.318c1.344-1.493,1.493-1.493,1.493-4.182
		c0-2.688-0.299-6.87,1.195-8.663c1.494-1.792,2.539-4.63,2.39-5.825c-0.15-1.195-1.643-2.987-0.747-4.331s0.896-2.24,0.896-4.182
		s-0.149-3.883,1.643-4.182c0,0-0.747-3.584,1.344-4.032c0,0-1.195-3.585,0.15-5.227c1.344-1.643,0.747-1.344,0.747-5.377
		c0-4.033,0.896-5.078,1.942-6.124c1.045-1.045-1.493-4.481,0-6.572c1.493-2.091,2.987-7.169,3.286-10.455
		C48.559,133.344,50.949,127.37,53.637,125.279z"/>
	<g>
		<defs>
			<path id="SVGID_1_" d="M3,193.583c0,68.345,55.405,123.75,123.75,123.75c68.345,0,123.75-55.405,123.75-123.75V-19.542H3.756"/>
		</defs>
		<clipPath id="SVGID_2_">
			<use xlink:href="#SVGID_1_"  overflow="visible"/>
		</clipPath>
		<g clip-path="url(#SVGID_2_)">
			<g>
				<g>
					<defs>
						<path id="SVGID_3_" d="M183.276,377.089l1.942-9.409c0,0-12.197,2.539-38.284,5.128
							c-26.087,2.589-31.663-37.239-31.663-37.239l-9.071-54.758l-0.189,0.194c-3.638,15.113-10.686,18.426-11.559,18.784
							c-1.234,4.586-2.494,9.053-3.675,12.879c-4.905,15.892-15.419,53.207-31.154,48.976c0.2,1.554,3.15,24.546,3.872,32.77
							c0.747,8.513,0.598,21.208,0.598,21.208h54.365l2.24-13.143l5.675,13.292h56.754c0,0-0.299-13.143-0.299-16.28
							s0.747-11.65,0.747-15.234C183.575,380.674,183.276,377.089,183.276,377.089z"/>
					</defs>
					<clipPath id="SVGID_4_">
						<use xlink:href="#SVGID_3_"  overflow="visible"/>
					</clipPath>
				</g>
				<g>
					<g>
						<defs>
							<path id="SVGID_5_" d="M124.531,117.314l0.065-0.133c-3.67-5.43-8.33-9.028-8.33-9.028s-6.572,3.385-8.165,4.779
								c-0.471,0.412-0.836,1.195-1.118,2.144l0.073,0.146l-0.073-0.146c-0.007,0.024-0.015,0.047-0.022,0.071l1.141,8.937
								c0,0-2.987,4.779-3.186,8.762c0,0,4.879,24.195,5.277,29.074c0,0,12.546-27.282,14.537-29.871c0,0-3.186-4.58-4.779-5.875
								C118.357,124.881,119.751,121.296,124.531,117.314z"/>
						</defs>
						<clipPath id="SVGID_6_">
							<use xlink:href="#SVGID_5_"  overflow="visible"/>
						</clipPath>
						<g clip-path="url(#SVGID_6_)">
							<circle fill="#0071BC" cx="93.409" cy="100.982" r="1.272"/>
							<circle fill="#0071BC" cx="96.769" cy="104.342" r="1.272"/>
							<circle fill="#0071BC" cx="100.13" cy="100.982" r="1.272"/>
							<circle fill="#0071BC" cx="103.49" cy="104.342" r="1.272"/>
							<circle fill="#0071BC" cx="106.85" cy="100.982" r="1.272"/>
							<circle fill="#0071BC" cx="110.211" cy="104.342" r="1.272"/>
							<circle fill="#0071BC" cx="113.571" cy="100.982" r="1.272"/>
							<circle fill="#0071BC" cx="116.932" cy="104.342" r="1.272"/>
							<circle fill="#0071BC" cx="120.292" cy="100.982" r="1.272"/>
							<circle fill="#0071BC" cx="123.653" cy="104.342" r="1.272"/>
							<circle fill="#0071BC" cx="127.013" cy="100.982" r="1.272"/>
							<circle fill="#0071BC" cx="130.374" cy="104.342" r="1.272"/>
							<circle fill="#0071BC" cx="133.734" cy="100.982" r="1.272"/>
							<circle fill="#0071BC" cx="137.095" cy="104.342" r="1.272"/>
							<circle fill="#0071BC" cx="140.455" cy="100.982" r="1.272"/>
							<circle fill="#0071BC" cx="93.409" cy="107.703" r="1.272"/>
							<circle fill="#0071BC" cx="96.769" cy="111.064" r="1.272"/>
							<circle fill="#0071BC" cx="100.13" cy="107.703" r="1.272"/>
							<circle fill="#0071BC" cx="103.49" cy="111.064" r="1.272"/>
							<circle fill="#0071BC" cx="106.85" cy="107.703" r="1.272"/>
							<circle fill="#0071BC" cx="110.211" cy="111.064" r="1.272"/>
							<circle fill="#0071BC" cx="113.571" cy="107.703" r="1.272"/>
							<circle fill="#0071BC" cx="116.932" cy="111.064" r="1.272"/>
							<circle fill="#0071BC" cx="120.292" cy="107.703" r="1.272"/>
							<circle fill="#0071BC" cx="123.653" cy="111.064" r="1.272"/>
							<circle fill="#0071BC" cx="127.013" cy="107.703" r="1.272"/>
							<circle fill="#0071BC" cx="130.374" cy="111.064" r="1.272"/>
							<circle fill="#0071BC" cx="133.734" cy="107.703" r="1.272"/>
							<circle fill="#0071BC" cx="137.095" cy="111.064" r="1.272"/>
							<circle fill="#0071BC" cx="140.455" cy="107.703" r="1.272"/>
							<circle fill="#0071BC" cx="93.409" cy="114.424" r="1.272"/>
							<circle fill="#0071BC" cx="96.769" cy="117.784" r="1.272"/>
							<circle fill="#0071BC" cx="100.13" cy="114.424" r="1.272"/>
							<circle fill="#0071BC" cx="103.49" cy="117.784" r="1.272"/>
							<circle fill="#0071BC" cx="106.85" cy="114.424" r="1.272"/>
							<circle fill="#0071BC" cx="110.211" cy="117.784" r="1.272"/>
							<circle fill="#0071BC" cx="113.571" cy="114.424" r="1.272"/>
							<circle fill="#0071BC" cx="116.932" cy="117.784" r="1.272"/>
							<circle fill="#0071BC" cx="120.292" cy="114.424" r="1.272"/>
							<circle fill="#0071BC" cx="123.653" cy="117.784" r="1.272"/>
							<circle fill="#0071BC" cx="127.013" cy="114.424" r="1.272"/>
							<circle fill="#0071BC" cx="130.374" cy="117.784" r="1.272"/>
							<circle fill="#0071BC" cx="133.734" cy="114.424" r="1.272"/>
							<circle fill="#0071BC" cx="137.095" cy="117.784" r="1.272"/>
							<circle fill="#0071BC" cx="140.455" cy="114.424" r="1.272"/>
							<circle fill="#0071BC" cx="93.409" cy="121.145" r="1.272"/>
							<circle fill="#0071BC" cx="96.769" cy="124.505" r="1.272"/>
							<circle fill="#0071BC" cx="100.13" cy="121.145" r="1.272"/>
							<circle fill="#0071BC" cx="103.49" cy="124.505" r="1.272"/>
							<circle fill="#0071BC" cx="106.85" cy="121.145" r="1.272"/>
							<circle fill="#0071BC" cx="110.211" cy="124.505" r="1.272"/>
							<circle fill="#0071BC" cx="113.571" cy="121.145" r="1.272"/>
							<circle fill="#0071BC" cx="116.932" cy="124.505" r="1.272"/>
							<circle fill="#0071BC" cx="120.292" cy="121.145" r="1.272"/>
							<circle fill="#0071BC" cx="123.653" cy="124.505" r="1.272"/>
							<circle fill="#0071BC" cx="127.013" cy="121.145" r="1.272"/>
							<circle fill="#0071BC" cx="130.374" cy="124.505" r="1.272"/>
							<circle fill="#0071BC" cx="133.734" cy="121.145" r="1.272"/>
							<circle fill="#0071BC" cx="137.095" cy="124.505" r="1.272"/>
							<circle fill="#0071BC" cx="140.455" cy="121.145" r="1.272"/>
							<circle fill="#0071BC" cx="93.409" cy="127.866" r="1.272"/>
							<circle fill="#0071BC" cx="96.769" cy="131.226" r="1.272"/>
							<circle fill="#0071BC" cx="100.13" cy="127.866" r="1.272"/>
							<circle fill="#0071BC" cx="103.49" cy="131.226" r="1.272"/>
							<circle fill="#0071BC" cx="106.85" cy="127.866" r="1.272"/>
							<circle fill="#0071BC" cx="110.211" cy="131.226" r="1.272"/>
							<circle fill="#0071BC" cx="113.571" cy="127.866" r="1.272"/>
							<circle fill="#0071BC" cx="116.932" cy="131.226" r="1.272"/>
							<circle fill="#0071BC" cx="120.292" cy="127.866" r="1.272"/>
							<circle fill="#0071BC" cx="123.653" cy="131.226" r="1.272"/>
							<circle fill="#0071BC" cx="127.013" cy="127.866" r="1.272"/>
							<circle fill="#0071BC" cx="130.374" cy="131.226" r="1.272"/>
							<circle fill="#0071BC" cx="133.734" cy="127.866" r="1.272"/>
							<circle fill="#0071BC" cx="137.095" cy="131.226" r="1.272"/>
							<circle fill="#0071BC" cx="140.455" cy="127.866" r="1.272"/>
							<circle fill="#0071BC" cx="93.409" cy="134.587" r="1.272"/>
							<circle fill="#0071BC" cx="96.769" cy="137.947" r="1.272"/>
							<circle fill="#0071BC" cx="100.13" cy="134.587" r="1.272"/>
							<circle fill="#0071BC" cx="103.49" cy="137.947" r="1.272"/>
							<circle fill="#0071BC" cx="106.85" cy="134.587" r="1.272"/>
							<circle fill="#0071BC" cx="110.211" cy="137.947" r="1.272"/>
							<circle fill="#0071BC" cx="113.571" cy="134.587" r="1.272"/>
							<circle fill="#0071BC" cx="116.932" cy="137.947" r="1.272"/>
							<circle fill="#0071BC" cx="120.292" cy="134.587" r="1.272"/>
							<circle fill="#0071BC" cx="123.653" cy="137.947" r="1.272"/>
							<circle fill="#0071BC" cx="127.013" cy="134.587" r="1.272"/>
							<circle fill="#0071BC" cx="130.374" cy="137.947" r="1.272"/>
							<circle fill="#0071BC" cx="133.734" cy="134.587" r="1.272"/>
							<circle fill="#0071BC" cx="137.095" cy="137.947" r="1.272"/>
							<circle fill="#0071BC" cx="140.455" cy="134.587" r="1.272"/>
							<circle fill="#0071BC" cx="93.409" cy="141.308" r="1.272"/>
							<circle fill="#0071BC" cx="96.769" cy="144.668" r="1.272"/>
							<circle fill="#0071BC" cx="100.13" cy="141.308" r="1.272"/>
							<circle fill="#0071BC" cx="103.49" cy="144.668" r="1.272"/>
							<circle fill="#0071BC" cx="106.85" cy="141.308" r="1.272"/>
							<circle fill="#0071BC" cx="110.211" cy="144.668" r="1.272"/>
							<circle fill="#0071BC" cx="113.571" cy="141.308" r="1.272"/>
							<circle fill="#0071BC" cx="116.932" cy="144.668" r="1.272"/>
							<circle fill="#0071BC" cx="120.292" cy="141.308" r="1.272"/>
							<circle fill="#0071BC" cx="123.653" cy="144.668" r="1.272"/>
							<circle fill="#0071BC" cx="127.013" cy="141.308" r="1.272"/>
							<circle fill="#0071BC" cx="130.374" cy="144.668" r="1.272"/>
							<circle fill="#0071BC" cx="133.734" cy="141.308" r="1.272"/>
							<circle fill="#0071BC" cx="137.095" cy="144.668" r="1.272"/>
							<circle fill="#0071BC" cx="140.455" cy="141.308" r="1.272"/>
							<circle fill="#0071BC" cx="93.409" cy="148.028" r="1.272"/>
							<circle fill="#0071BC" cx="96.769" cy="151.389" r="1.272"/>
							<circle fill="#0071BC" cx="100.13" cy="148.028" r="1.272"/>
							<circle fill="#0071BC" cx="103.49" cy="151.389" r="1.272"/>
							<circle fill="#0071BC" cx="106.85" cy="148.028" r="1.272"/>
							<circle fill="#0071BC" cx="110.211" cy="151.389" r="1.272"/>
							<circle fill="#0071BC" cx="113.571" cy="148.028" r="1.272"/>
							<circle fill="#0071BC" cx="116.932" cy="151.389" r="1.272"/>
							<circle fill="#0071BC" cx="120.292" cy="148.028" r="1.272"/>
							<circle fill="#0071BC" cx="123.653" cy="151.389" r="1.272"/>
							<circle fill="#0071BC" cx="127.013" cy="148.028" r="1.272"/>
							<circle fill="#0071BC" cx="130.374" cy="151.389" r="1.272"/>
							<circle fill="#0071BC" cx="133.734" cy="148.028" r="1.272"/>
							<circle fill="#0071BC" cx="137.095" cy="151.389" r="1.272"/>
							<circle fill="#0071BC" cx="140.455" cy="148.028" r="1.272"/>
							<circle fill="#0071BC" cx="93.409" cy="154.739" r="1.272"/>
							<circle fill="#0071BC" cx="96.769" cy="158.099" r="1.272"/>
							<circle fill="#0071BC" cx="100.13" cy="154.739" r="1.272"/>
							<circle fill="#0071BC" cx="103.49" cy="158.099" r="1.272"/>
							<circle fill="#0071BC" cx="106.85" cy="154.739" r="1.272"/>
							<circle fill="#0071BC" cx="110.211" cy="158.099" r="1.272"/>
							<circle fill="#0071BC" cx="113.571" cy="154.739" r="1.272"/>
							<circle fill="#0071BC" cx="116.932" cy="158.099" r="1.272"/>
							<circle fill="#0071BC" cx="120.292" cy="154.739" r="1.272"/>
							<circle fill="#0071BC" cx="123.653" cy="158.099" r="1.272"/>
							<circle fill="#0071BC" cx="127.013" cy="154.739" r="1.272"/>
							<circle fill="#0071BC" cx="130.374" cy="158.099" r="1.272"/>
							<circle fill="#0071BC" cx="133.734" cy="154.739" r="1.272"/>
							<circle fill="#0071BC" cx="137.095" cy="158.099" r="1.272"/>
							<circle fill="#0071BC" cx="140.455" cy="154.739" r="1.272"/>
							<circle fill="#0071BC" cx="93.409" cy="161.46" r="1.272"/>
							<circle fill="#0071BC" cx="96.769" cy="164.82" r="1.272"/>
							<circle fill="#0071BC" cx="100.13" cy="161.46" r="1.272"/>
							<circle fill="#0071BC" cx="103.49" cy="164.82" r="1.272"/>
							<circle fill="#0071BC" cx="106.85" cy="161.46" r="1.272"/>
							<circle fill="#0071BC" cx="110.211" cy="164.82" r="1.272"/>
							<circle fill="#0071BC" cx="113.571" cy="161.46" r="1.272"/>
							<circle fill="#0071BC" cx="116.932" cy="164.82" r="1.272"/>
							<circle fill="#0071BC" cx="120.292" cy="161.46" r="1.272"/>
							<circle fill="#0071BC" cx="123.653" cy="164.82" r="1.272"/>
							<circle fill="#0071BC" cx="127.013" cy="161.46" r="1.272"/>
							<circle fill="#0071BC" cx="130.374" cy="164.82" r="1.272"/>
							<circle fill="#0071BC" cx="133.734" cy="161.46" r="1.272"/>
							<circle fill="#0071BC" cx="137.095" cy="164.82" r="1.272"/>
							<circle fill="#0071BC" cx="140.455" cy="161.46" r="1.272"/>
							<circle fill="#0071BC" cx="93.409" cy="168.181" r="1.272"/>
							<circle fill="#0071BC" cx="96.769" cy="171.541" r="1.272"/>
							<circle fill="#0071BC" cx="100.13" cy="168.181" r="1.272"/>
							<circle fill="#0071BC" cx="103.49" cy="171.541" r="1.272"/>
							<circle fill="#0071BC" cx="106.85" cy="168.181" r="1.272"/>
							<circle fill="#0071BC" cx="110.211" cy="171.541" r="1.272"/>
							<circle fill="#0071BC" cx="113.571" cy="168.181" r="1.272"/>
							<circle fill="#0071BC" cx="116.932" cy="171.541" r="1.272"/>
							<circle fill="#0071BC" cx="120.292" cy="168.181" r="1.272"/>
							<circle fill="#0071BC" cx="123.653" cy="171.541" r="1.272"/>
							<circle fill="#0071BC" cx="127.013" cy="168.181" r="1.272"/>
							<circle fill="#0071BC" cx="130.374" cy="171.541" r="1.272"/>
							<circle fill="#0071BC" cx="133.734" cy="168.181" r="1.272"/>
							<circle fill="#0071BC" cx="137.095" cy="171.541" r="1.272"/>
							<circle fill="#0071BC" cx="140.455" cy="168.181" r="1.272"/>
						</g>
					</g>
					<g>
						<path fill="none" d="M106.941,114.992l0.02,0.155c0.007-0.024,0.015-0.047,0.022-0.071L106.941,114.992z"/>
					</g>
				</g>
				<g>
					<path fill="#231F20" d="M123.965,1.752c6.671,0,31.432,2.616,27.549,41.881c0,0,1.825-1.32,2.972-1.32
						c0.152,0,0.292,0.023,0.414,0.075c1.045,0.448,1.344,7.169,0.448,10.753c-0.896,3.584-1.344,7.169-2.688,8.215
						c-0.924,0.719-2.341,1.296-3.38,1.296c-0.473,0-0.867-0.12-1.1-0.4c0,0-0.448,10.455-3.585,14.786v4.63
						c0,0,1.195,1.045,1.643,2.688c0.448,1.643,1.195,2.838,1.195,2.838s2.688,0.597,3.136,2.091
						c0.448,1.493,2.987,4.331,4.481,5.526c1.493,1.195,6.273,3.286,7.318,5.078c0,0,35.845,9.111,44.955,17.026
						c0,0,4.779,3.286,4.481,8.662c-0.299,5.377-0.299,6.87,0,8.961c0.299,2.091,0,5.676-1.494,7.617c0,0,0.597,4.182,0.448,6.273
						c-0.15,2.091-1.494,2.539-1.494,4.331c0,1.792,0.747,6.124-0.597,7.767c0,0,2.24,1.941,1.643,3.584
						c-0.597,1.643-2.091,2.539-2.091,2.539s1.045,50.93-22.254,70.495c0,0,4.779,27.481,6.123,31.215c0,0,1.344,1.643,0.896,2.838
						c0,0,3.136,9.708,4.481,13.591c1.344,3.883,1.195,4.929-1.493,6.572c0,0,9.708,59.741,9.559,68.702
						c0,0-10.455,7.468-20.312,7.617l-1.942,9.409c0,0,0.299,3.584,0.299,7.169c0,3.584-0.747,12.098-0.747,15.234
						c0,3.136,0.299,16.28,0.299,16.28h-56.754l-5.675-13.292l-2.24,13.143H64.092c0,0,0.149-12.695-0.597-21.208
						c-0.747-8.513-3.883-32.858-3.883-32.858s-10.455-3.734-9.858-9.409c0.597-5.675,2.838-25.39,3.435-30.319
						c0.597-4.929,2.688-21.806,3.435-24.793c0.747-2.987,1.792-10.604,1.792-10.604s-1.942-2.39-0.747-4.929
						c1.195-2.539,1.195-8.065,1.344-10.007c0.149-1.941,0.149-4.63,1.493-5.377l0.747-7.617l-15.533-4.481
						c0,0-7.468-1.942-8.812-7.02c-1.344-5.078-2.39-13.591-2.539-16.877c-0.149-3.286-1.045-8.513-1.792-10.455
						c-0.747-1.941-2.39-4.032-0.896-6.572c1.493-2.539,0.896-5.825,2.24-7.318c1.344-1.493,1.493-1.493,1.493-4.182
						c0-2.688-0.299-6.87,1.195-8.662c1.494-1.792,2.539-4.63,2.39-5.825c-0.15-1.195-1.643-2.987-0.747-4.331
						c0.896-1.344,0.896-2.24,0.896-4.182c0-1.942-0.149-3.883,1.643-4.182c0,0-0.747-3.584,1.344-4.032c0,0-1.195-3.585,0.15-5.227
						c1.344-1.643,0.747-1.344,0.747-5.377c0-4.033,0.896-5.078,1.942-6.124c1.045-1.045-1.493-4.481,0-6.572
						c1.493-2.091,2.987-7.169,3.286-10.455c0.299-3.286,2.688-9.26,5.377-11.351c0,0,33.455-16.13,43.611-20.611
						c0,0,2.091-5.875,4.68-7.866c0,0-1.095-5.576,2.29-8.663l0.099-8.862c0,0-4.978-7.766-5.476-16.727c0,0-1,0.485-2.098,0.485
						c-0.892,0-1.848-0.32-2.383-1.481c-1.195-2.589-2.589-7.965-2.887-9.359c-0.299-1.394-0.697-6.671-0.597-7.268
						c0.1-0.598,0.199-2.788,1.195-2.788c0.996,0,2.688,0.896,2.688,0.896S87.391,1.814,122.34,1.814
						C122.34,1.814,122.939,1.752,123.965,1.752 M123.965-0.248c-0.876,0-1.474,0.042-1.716,0.062
						c-9.812,0.019-17.407,3.159-22.575,9.332c-8.231,9.833-7.921,24.53-7.3,31.006c-0.102-0.008-0.203-0.013-0.303-0.013
						c-2.627,0-3.009,3.167-3.135,4.207c-0.012,0.102-0.022,0.189-0.032,0.252c-0.172,1.034,0.334,6.708,0.614,8.016
						c0.284,1.326,1.705,6.914,3.027,9.779c0.775,1.679,2.306,2.643,4.199,2.643c0.11,0,0.219-0.003,0.327-0.009
						c0.958,7.105,4.194,13.033,5.24,14.803l-0.084,7.486c-2.526,2.858-2.574,6.784-2.411,8.714c-1.994,2.092-3.505,5.54-4.142,7.15
						c-10.887,4.866-42.578,20.141-42.905,20.298c-0.127,0.061-0.248,0.136-0.359,0.223c-3.321,2.583-5.815,9.166-6.141,12.748
						c-0.283,3.113-1.73,7.805-2.921,9.473c-1.372,1.921-0.77,4.225-0.371,5.749c0.074,0.283,0.175,0.668,0.226,0.941
						c-1.217,1.304-2.169,2.942-2.169,7.168c0,1.268,0.056,2.124,0.096,2.749c0.02,0.309,0.043,0.655,0.035,0.798
						c-0.041,0.069-0.148,0.223-0.426,0.563c-1.325,1.62-1.195,3.984-0.897,5.57c-0.872,0.925-1.227,2.312-1.194,3.764
						c-1.52,1.25-1.507,3.572-1.5,4.969l0.002,0.406c0,1.878-0.017,2.258-0.56,3.073c-1.199,1.799-0.376,3.728,0.116,4.88
						c0.114,0.267,0.287,0.671,0.311,0.815c0.03,0.529-0.689,2.786-1.943,4.29c-1.764,2.116-1.711,5.821-1.67,8.798
						c0.006,0.402,0.011,0.787,0.011,1.145c0,1.762,0,1.762-0.754,2.594l-0.226,0.25c-1.073,1.192-1.318,2.777-1.556,4.31
						c-0.182,1.178-0.371,2.396-0.922,3.332c-1.732,2.945-0.514,5.543,0.292,7.262c0.175,0.372,0.339,0.724,0.462,1.042
						c0.607,1.578,1.511,6.522,1.661,9.828c0.143,3.144,1.163,11.856,2.604,17.298c1.593,6.017,9.569,8.264,10.212,8.435
						l13.913,4.013l-0.505,5.156c-1.261,1.396-1.407,3.653-1.529,5.531c-0.015,0.238-0.03,0.471-0.048,0.694
						c-0.03,0.386-0.054,0.908-0.082,1.519c-0.098,2.13-0.28,6.096-1.077,7.789c-1.132,2.406-0.395,4.803,0.469,6.264
						c-0.282,1.981-1.068,7.327-1.645,9.635c-0.824,3.297-3.044,21.435-3.48,25.037c-0.605,4.993-2.832,24.586-3.439,30.35
						c-0.627,5.954,6.932,9.755,10.013,11.048c0.634,4.963,3.083,24.294,3.724,31.604c0.729,8.314,0.591,20.884,0.59,21.01
						c-0.006,0.534,0.202,1.049,0.577,1.429c0.376,0.38,0.888,0.594,1.422,0.594h54.365c0.975,0,1.808-0.703,1.972-1.664
						l1.098-6.443l3.006,7.042c0.315,0.737,1.038,1.215,1.839,1.215h56.754c0.538,0,1.054-0.217,1.43-0.602
						c0.376-0.385,0.582-0.905,0.569-1.443c-0.003-0.131-0.298-13.156-0.298-16.234c0-1.453,0.178-4.286,0.351-7.026
						c0.195-3.094,0.396-6.293,0.396-8.208c0-3.076-0.211-6.104-0.282-7.043l1.572-7.618c9.824-0.836,19.404-7.604,19.828-7.907
						c0.516-0.369,0.827-0.96,0.837-1.594c0.14-8.416-7.95-58.938-9.382-67.807c2.682-2.1,2.526-4.345,1.207-8.154
						c-1.146-3.312-3.641-10.998-4.303-13.045c0.178-1.545-0.688-2.999-1.17-3.674c-1.103-3.55-4.338-21.431-5.752-29.501
						c21.342-19.076,22.124-62.862,22.099-70.294c0.662-0.594,1.492-1.538,1.96-2.827c0.665-1.829-0.253-3.536-1.121-4.63
						c0.575-1.806,0.412-4.067,0.274-5.979c-0.04-0.559-0.078-1.086-0.078-1.425c0-0.326,0.097-0.505,0.404-1.021
						c0.412-0.694,0.976-1.644,1.085-3.168c0.125-1.745-0.187-4.564-0.361-5.936c1.516-2.591,1.685-6.325,1.392-8.379
						c-0.275-1.924-0.272-3.365,0.017-8.567c0.334-6.016-4.439-9.762-5.239-10.347c-8.859-7.593-39.841-15.87-45.015-17.215
						c-1.037-1.186-2.791-2.241-5.044-3.528c-0.887-0.507-1.805-1.031-2.204-1.35c-1.558-1.247-3.572-3.731-3.814-4.539
						c-0.554-1.845-2.47-2.782-3.686-3.201c-0.198-0.413-0.447-1.003-0.631-1.679c-0.357-1.309-1.047-2.323-1.573-2.952v-3.233
						c2.266-3.625,3.117-9.71,3.423-13.046c1.446-0.2,2.932-0.935,3.87-1.664c1.597-1.243,2.145-3.724,2.838-6.865
						c0.176-0.8,0.359-1.627,0.563-2.443c0.463-1.853,0.673-4.516,0.562-7.123c-0.192-4.5-1.153-5.521-2.162-5.953
						c-0.367-0.157-0.772-0.237-1.202-0.237c-0.232,0-0.468,0.025-0.706,0.07c0.839-13.916-1.963-24.526-8.345-31.57
						C138.026,0.634,127.952-0.248,123.965-0.248L123.965-0.248z"/>
				</g>
				<path fill="none" stroke="#231F20" d="M103.522,87.642c0,0-1.394,6.373,1.593,10.156c2.987,3.784,11.152,10.355,11.152,10.355
					s3.186-1.792,4.978-3.385c1.792-1.593,23.498-19.317,24.494-21.905"/>
				<path fill="none" stroke="#231F20" d="M100.335,97.001c0,2.39,0.996,9.36,1.991,12.944c0.996,3.584,1.991,16.13,1.991,16.13
					s1.792-1.792,1.792-3.983c0-2.191,0.398-7.767,1.991-9.16c1.593-1.394,8.165-4.779,8.165-4.779s10.355,7.966,12.347,18.122
					c0,0,21.109-30.269,20.113-39.23"/>
				<path fill="none" stroke="#231F20" d="M106.907,114.725l1.195,9.36c0,0-2.987,4.779-3.186,8.762c0,0,4.879,24.195,5.277,29.074
					c0,0,12.546-27.282,14.537-29.871c0,0-3.186-4.58-4.779-5.875c-1.593-1.294-0.199-4.879,4.58-8.862"/>
				<line fill="none" stroke="#231F20" x1="104.318" y1="126.076" x2="104.916" y2="132.846"/>
				<path fill="none" stroke="#231F20" d="M124.73,132.05c0,0,2.39-3.784,3.883-5.775"/>
				<path fill="none" stroke="#231F20" d="M162.865,100.088l-0.498,23.299l-11.65,3.385l4.282,9.061c0,0,0.797,2.091-0.996,3.087
					c-1.792,0.996-18.52,14.338-21.706,17.026c-3.186,2.688-11.052,10.554-14.238,13.442c-3.186,2.887-10.455,9.957-12.148,11.849
					c-1.692,1.892-3.783,7.468-3.883,9.758c-0.1,2.29,0.697,6.671,0.697,6.671"/>
				<path fill="none" stroke="#231F20" d="M101.928,191.493c0,0,2.987-20.113,8.264-29.572"/>
				<path fill="none" stroke="#231F20" d="M104.667,177.652l-27.481-39.28c0,0-1.344-2.987,0.299-4.033
					c1.643-1.045,5.974-5.227,5.974-5.227l-5.825-2.539l11.948-18.52"/>
				<path fill="none" stroke="#231F20" d="M61.254,258.502c0,0,11.002,2.39,14.985,3.983c3.983,1.593,26.884,6.572,26.884,6.572
					l15.931,2.589c0,0,6.771-17.126,6.771-27.282"/>
				<path fill="none" stroke="#231F20" d="M185.965,237.145c0,0-7.966,13.392-24.494,7.816c0,0-9.758,0.598-16.13,0.199
					c-6.372-0.398-16.927-0.996-22.303-0.598s-18.918-3.385-18.918-3.385l-19.914,3.186c0,0-8.961-9.16-6.373-18.122
					c2.589-8.961,10.156-27.879,13.342-27.879c0,0,9.559-0.199,14.736-0.199c5.178,0,26.485-0.597,31.265,0.996
					c0,0,13.74-4.381,17.325-1.991c0,0,0.597,1.394,2.987,1.593c2.39,0.199,5.775,2.191,5.775,2.191l4.281-6.572
					c0,0,0.598-1.344-0.299-1.792c0,0,6.422-6.721,3.584-8.364c0,0,1.942-3.136,0-4.331c0,0-2.24-0.597-4.779,2.838"/>
				<g>
					<g>
						
							<line fill="none" stroke="#231F20" stroke-linecap="round" stroke-linejoin="round" x1="166.051" y1="182.73" x2="166.051" y2="182.73"/>
						<path fill="none" stroke="#231F20" stroke-linecap="round" stroke-linejoin="round" stroke-dasharray="0,2.0174" d="
							M165.013,181c-0.662-1.25-1.322-2.875-0.904-3.796c0.747-1.643,1.344-1.494,1.344-2.838s-0.597-2.688,0.149-3.584
							c0.747-0.896,1.344-1.344,1.344-2.987c0-1.643,0.448-2.091,0.896-2.838c0.448-0.747,0.598-3.584,0.747-4.63
							s0.896-1.792,0.896-1.792s0.88-27.287,34.628-42.894"/>
						
							<line fill="none" stroke="#231F20" stroke-linecap="round" stroke-linejoin="round" x1="205.032" y1="115.223" x2="205.032" y2="115.223"/>
					</g>
				</g>
				<path fill="none" stroke="#231F20" d="M166.051,182.73c0,0-4.182,4.481-5.775,5.875c-1.593,1.394-5.576,5.377-6.771,8.165"/>
				<path fill="none" stroke="#231F20" d="M89.582,199.01c0,0-2.688-1.494-5.825,1.493s-12.546,15.085-4.929,23.001"/>
				<path fill="none" stroke="#231F20" d="M81.069,203.64c0,0-9.11,1.494-10.903,1.494c0,0-0.149,3.136-1.643,4.63
					c-1.494,1.493-1.792,2.091-1.792,2.688c0,0.598-0.598,4.182-0.598,4.182s4.929,4.033,5.676,5.675c0,0,4.032-0.448,6.721,1.792"
					/>
				<path fill="none" stroke="#231F20" d="M104.517,79.876c0,0,5.576,9.559,18.52,9.559c6.226,0,11.45-2.868,15.196-5.846"/>
				<path fill="none" stroke="#231F20" d="M102.128,269.057c0,0-6.373,27.481-11.351,43.611
					c-4.978,16.13-15.732,54.365-31.862,48.789"/>
				<path fill="none" stroke="#231F20" d="M104.318,269.455l10.953,66.114c0,0,5.576,39.827,31.663,37.239
					c26.087-2.589,38.284-5.128,38.284-5.128"/>
				<path fill="none" stroke="#231F20" stroke-linecap="round" stroke-linejoin="round" stroke-dasharray="0,2" d="M53.737,124.084
					c0,0-2.589,12.745,5.576,21.308c0,0,0.797,2.589,0.996,5.377c0.199,2.788,3.584,39.031,9.857,54.365"/>
				<path fill="none" stroke="#231F20" stroke-linecap="round" stroke-linejoin="round" stroke-dasharray="0,2" d="M66.133,216.634
					c0,0-5.227-5.128-14.985-7.517"/>
				<path fill="none" stroke="#231F20" d="M120.697,402.479c0,0-9.608-24.992-14.089-33.356"/>
				<path fill="none" stroke="#231F20" d="M94.361,299.824c0,0,7.767-2.688,11.65-18.818"/>
				<path fill="none" stroke="#000000" stroke-miterlimit="10" d="M94.361,42.139c0,0,2.887,5.377,3.385,8.862
					c0,0-0.697-15.135-0.597-18.321c0.099-3.186,0.498-7.567,1.394-10.156c0.896-2.589,0.896-2.589,0.896-2.589l0.398-0.697
					l0.598-1.095l0.099-0.597l0.398-0.498V16.45l0.398-0.697l0.597-0.597c0,0,0.299-0.598,0.598-0.797
					c0.299-0.199,0.299-0.199,0.299-0.199s0.398,0.1,0.597-0.398c0.199-0.498,0.199-0.498,0.199-0.498l1.294-0.597
					c0,0,0.498,0,0.896,0.099c0.398,0.1,1.294,0.598,1.693,0.1s0.498-0.697,0.797-0.797c0.299-0.1,0.697-0.398,1.195-0.398
					s0.498,0,0.498,0h1.792c0,0,0.498-0.598,0.797-0.598c0.299,0,0.398-0.199,0.697,0c0.299,0.199,0.896,0.398,0.896,0.398
					s0.996,0,1.294,0c0.299,0,0.697-0.1,1.095-0.1s1.095-0.1,1.095-0.1s0.797,0.1,1.195,0.199c0.398,0.099,1.095,0,1.095,0
					s0.199-0.299,0.598-0.299c0.398,0,1.294,0,1.294,0l2.788,0.398l0.797-0.398h0.598c0,0,0.697-0.1,1.095-0.1s0.598,0.1,0.896,0.1
					s0.498,0.299,0.996,0c0.498-0.299,1.195-0.299,1.195-0.299l0.996,0.398c0,0,0.697,0.398,1.095,0.398s1.095-0.074,1.593-0.1
					c0.498-0.025,0.896,0,1.195,0s0.996-0.099,1.394-0.299c0.398-0.199,1.095-0.1,1.095-0.1l0.896,0.398
					c0,0,0.498,0.299,1.095,0.199c0.598-0.1,0.697-0.199,0.996-0.199c0.299,0,0.896-0.099,1.195,0.1
					c0.299,0.199-0.398,0.199,0.299,0.199s1.195,0.398,1.195,0.398s8.762,9.758,6.074,36.143c0,0,2.39-6.074,3.485-7.368"/>
			</g>
		</g>
	</g>
	<path fill="none" stroke="#231F20" stroke-width="4" d="M250.5,193.583c0,68.345-55.405,123.75-123.75,123.75
		C58.405,317.333,3,261.929,3,193.583"/>
</g>
</svg>
