<?xml version="1.0" encoding="utf-8"?>
<!-- Generator: Adobe Illustrator 18.0.0, SVG Export Plug-In . SVG Version: 6.00 Build 0)  -->
<!DOCTYPE svg PUBLIC "-//W3C//DTD SVG 1.1//EN" "http://www.w3.org/Graphics/SVG/1.1/DTD/svg11.dtd">
<svg version="1.1" id="Layer_1" xmlns="http://www.w3.org/2000/svg" xmlns:xlink="http://www.w3.org/1999/xlink" x="0px" y="0px"
	 viewBox="0 0 160 160" enable-background="new 0 0 160 160" xml:space="preserve">
<g>
	<circle fill="#FFFFFF" stroke="#231F20" stroke-width="2" cx="80" cy="96" r="60"/>
	<g>
		<defs>
			<path id="SVGID_1_" d="M20,96c0,33.137,26.613,60,59.75,60s59.75-26.863,59.75-60V-8.5h-119L20,96z"/>
		</defs>
		<clipPath id="SVGID_2_">
			<use xlink:href="#SVGID_1_"  overflow="visible"/>
		</clipPath>
		<g clip-path="url(#SVGID_2_)">
			<path fill="#FFFFFF" stroke="#231F20" d="M112.192,149.129c0,0,0.734-0.781,0.245-2.337c-0.489-1.556-0.734-3.941-0.979-6.695
				c-0.245-2.753-1.332-11.322-1.332-11.322l1.821-0.403l-1.137-5.454c4.829-0.505,8.302-1.356,11.779-3.164
				c0,0,2.936-0.957,4.404-1.436c1.468-0.479,2.814-0.599,3.547-2.155c0.734-1.556,1.468-18.315-9.297-31.842l-0.122-0.479
				c1.59-1.197-1.835-4.788-2.447-5.985c-0.612-1.197-1.957-4.07-2.202-5.028c-0.245-0.958-1.223-2.873-1.835-3.95
				c-0.612-1.077-1.59-2.633-2.936-5.028c-1.287-2.29-5.361-3.263-5.715-3.344c0.382-0.048,0.618-0.088,0.618-0.088
				c-8.644-1.436-8.155-11.252-8.4-14.046c-0.245-2.793-1.06-11.492-1.631-14.764c-0.571-3.272-1.876-12.689-7.095-19.951
				c-5.219-7.262-9.052-3.99-9.052-3.99C64.036,1.128,57.594,21.478,56.534,25.149c-1.06,3.671-1.549,5.826-3.833,10.933
				c-2.283,5.107-1.631,10.055-1.631,10.055c-2.039,2.554-1.142,9.337-1.142,9.337c0-1.437,1.06-3.591,1.06-3.591
				c-0.652,3.91,2.528,8.14,2.528,8.14c-0.063,0.394-0.09,0.82-0.088,1.268l-0.32-0.071c0,0-6.361,0.359-8.807,3.352
				c-2.447,2.993-4.159,11.611-2.447,19.632c1.713,8.02,2.202,8.379,2.202,8.379s6.728,16.998,9.786,21.068
				c1.1,1.464,2.168,2.987,4.097,4.253l0,0c0,0,0.185,4.126-0.916,5.802c-1.101,1.676-3.181,6.105-3.058,8.26
				c0.122,2.155,1.346,4.788,0.612,6.464c-0.734,1.676-1.713,5.507-1.835,7.542c-0.122,2.035-0.245,7.661-0.245,7.661
				c0,0.001,0.669,5.626-0.063,9.287c-0.732,3.661-1.708,19.08,1.708,26.08h58.576C112.718,189,117.768,167.067,112.192,149.129z"/>
		</g>
		<g clip-path="url(#SVGID_2_)">
			<defs>
				<path id="SVGID_3_" d="M84.424,122.51c-1.59-0.239-1.59,0-11.499,2.633c-2.928,0.778-4.997,0.864-6.465,0.602l3.529,11.967
					l41.958-9.337l-1.101-5.387c0,0-0.028-0.017-0.079-0.046C99.007,124.374,85.58,122.684,84.424,122.51z"/>
			</defs>
			<clipPath id="SVGID_4_">
				<use xlink:href="#SVGID_3_"  overflow="visible"/>
			</clipPath>
			<circle clip-path="url(#SVGID_4_)" fill="#4DC6DD" cx="64.889" cy="120.331" r="0.864"/>
			<circle clip-path="url(#SVGID_4_)" fill="#4DC6DD" cx="69.451" cy="120.331" r="0.864"/>
			<circle clip-path="url(#SVGID_4_)" fill="#4DC6DD" cx="74.013" cy="120.331" r="0.864"/>
			<circle clip-path="url(#SVGID_4_)" fill="#4DC6DD" cx="78.575" cy="120.331" r="0.864"/>
			<circle clip-path="url(#SVGID_4_)" fill="#4DC6DD" cx="83.137" cy="120.331" r="0.864"/>
			<circle clip-path="url(#SVGID_4_)" fill="#4DC6DD" cx="87.699" cy="120.331" r="0.864"/>
			<circle clip-path="url(#SVGID_4_)" fill="#4DC6DD" cx="92.261" cy="120.331" r="0.864"/>
			<circle clip-path="url(#SVGID_4_)" fill="#4DC6DD" cx="96.823" cy="120.331" r="0.864"/>
			<circle clip-path="url(#SVGID_4_)" fill="#4DC6DD" cx="101.386" cy="120.331" r="0.864"/>
			<circle clip-path="url(#SVGID_4_)" fill="#4DC6DD" cx="105.948" cy="120.331" r="0.864"/>
			<circle clip-path="url(#SVGID_4_)" fill="#4DC6DD" cx="110.51" cy="120.331" r="0.864"/>
			<circle clip-path="url(#SVGID_4_)" fill="#4DC6DD" cx="115.072" cy="120.331" r="0.864"/>
			<circle clip-path="url(#SVGID_4_)" fill="#4DC6DD" cx="62.608" cy="122.612" r="0.864"/>
			<circle clip-path="url(#SVGID_4_)" fill="#4DC6DD" cx="64.889" cy="124.893" r="0.864"/>
			<circle clip-path="url(#SVGID_4_)" fill="#4DC6DD" cx="67.17" cy="122.612" r="0.864"/>
			<circle clip-path="url(#SVGID_4_)" fill="#4DC6DD" cx="69.451" cy="124.893" r="0.864"/>
			<circle clip-path="url(#SVGID_4_)" fill="#4DC6DD" cx="71.732" cy="122.612" r="0.864"/>
			<circle clip-path="url(#SVGID_4_)" fill="#4DC6DD" cx="74.013" cy="124.893" r="0.864"/>
			<circle clip-path="url(#SVGID_4_)" fill="#4DC6DD" cx="76.294" cy="122.612" r="0.864"/>
			<circle clip-path="url(#SVGID_4_)" fill="#4DC6DD" cx="78.575" cy="124.893" r="0.864"/>
			<circle clip-path="url(#SVGID_4_)" fill="#4DC6DD" cx="80.856" cy="122.612" r="0.864"/>
			<circle clip-path="url(#SVGID_4_)" fill="#4DC6DD" cx="83.137" cy="124.893" r="0.864"/>
			<circle clip-path="url(#SVGID_4_)" fill="#4DC6DD" cx="85.418" cy="122.612" r="0.864"/>
			<circle clip-path="url(#SVGID_4_)" fill="#4DC6DD" cx="87.699" cy="124.893" r="0.864"/>
			<circle clip-path="url(#SVGID_4_)" fill="#4DC6DD" cx="89.98" cy="122.612" r="0.864"/>
			<circle clip-path="url(#SVGID_4_)" fill="#4DC6DD" cx="92.261" cy="124.893" r="0.864"/>
			<circle clip-path="url(#SVGID_4_)" fill="#4DC6DD" cx="94.542" cy="122.612" r="0.864"/>
			<circle clip-path="url(#SVGID_4_)" fill="#4DC6DD" cx="96.823" cy="124.893" r="0.864"/>
			<circle clip-path="url(#SVGID_4_)" fill="#4DC6DD" cx="99.104" cy="122.612" r="0.864"/>
			<circle clip-path="url(#SVGID_4_)" fill="#4DC6DD" cx="101.386" cy="124.893" r="0.864"/>
			<circle clip-path="url(#SVGID_4_)" fill="#4DC6DD" cx="103.667" cy="122.612" r="0.864"/>
			<circle clip-path="url(#SVGID_4_)" fill="#4DC6DD" cx="105.948" cy="124.893" r="0.864"/>
			<circle clip-path="url(#SVGID_4_)" fill="#4DC6DD" cx="108.229" cy="122.612" r="0.864"/>
			<circle clip-path="url(#SVGID_4_)" fill="#4DC6DD" cx="110.51" cy="124.893" r="0.864"/>
			<circle clip-path="url(#SVGID_4_)" fill="#4DC6DD" cx="112.791" cy="122.612" r="0.864"/>
			<circle clip-path="url(#SVGID_4_)" fill="#4DC6DD" cx="115.072" cy="124.893" r="0.864"/>
			<circle clip-path="url(#SVGID_4_)" fill="#4DC6DD" cx="62.608" cy="127.174" r="0.864"/>
			<circle clip-path="url(#SVGID_4_)" fill="#4DC6DD" cx="64.889" cy="129.455" r="0.864"/>
			<circle clip-path="url(#SVGID_4_)" fill="#4DC6DD" cx="67.17" cy="127.174" r="0.864"/>
			<circle clip-path="url(#SVGID_4_)" fill="#4DC6DD" cx="69.451" cy="129.455" r="0.864"/>
			<circle clip-path="url(#SVGID_4_)" fill="#4DC6DD" cx="71.732" cy="127.174" r="0.864"/>
			<circle clip-path="url(#SVGID_4_)" fill="#4DC6DD" cx="74.013" cy="129.455" r="0.864"/>
			<circle clip-path="url(#SVGID_4_)" fill="#4DC6DD" cx="76.294" cy="127.174" r="0.864"/>
			<circle clip-path="url(#SVGID_4_)" fill="#4DC6DD" cx="78.575" cy="129.455" r="0.864"/>
			<circle clip-path="url(#SVGID_4_)" fill="#4DC6DD" cx="80.856" cy="127.174" r="0.864"/>
			<circle clip-path="url(#SVGID_4_)" fill="#4DC6DD" cx="83.137" cy="129.455" r="0.864"/>
			<circle clip-path="url(#SVGID_4_)" fill="#4DC6DD" cx="85.418" cy="127.174" r="0.864"/>
			<circle clip-path="url(#SVGID_4_)" fill="#4DC6DD" cx="87.699" cy="129.455" r="0.864"/>
			<circle clip-path="url(#SVGID_4_)" fill="#4DC6DD" cx="89.98" cy="127.174" r="0.864"/>
			<circle clip-path="url(#SVGID_4_)" fill="#4DC6DD" cx="92.261" cy="129.455" r="0.864"/>
			<circle clip-path="url(#SVGID_4_)" fill="#4DC6DD" cx="94.542" cy="127.174" r="0.864"/>
			<circle clip-path="url(#SVGID_4_)" fill="#4DC6DD" cx="96.823" cy="129.455" r="0.864"/>
			<circle clip-path="url(#SVGID_4_)" fill="#4DC6DD" cx="99.104" cy="127.174" r="0.864"/>
			<circle clip-path="url(#SVGID_4_)" fill="#4DC6DD" cx="101.386" cy="129.455" r="0.864"/>
			<circle clip-path="url(#SVGID_4_)" fill="#4DC6DD" cx="103.667" cy="127.174" r="0.864"/>
			<circle clip-path="url(#SVGID_4_)" fill="#4DC6DD" cx="105.948" cy="129.455" r="0.864"/>
			<circle clip-path="url(#SVGID_4_)" fill="#4DC6DD" cx="108.229" cy="127.174" r="0.864"/>
			<circle clip-path="url(#SVGID_4_)" fill="#4DC6DD" cx="110.51" cy="129.455" r="0.864"/>
			<circle clip-path="url(#SVGID_4_)" fill="#4DC6DD" cx="112.791" cy="127.174" r="0.864"/>
			<circle clip-path="url(#SVGID_4_)" fill="#4DC6DD" cx="115.072" cy="129.455" r="0.864"/>
			<circle clip-path="url(#SVGID_4_)" fill="#4DC6DD" cx="62.608" cy="131.736" r="0.864"/>
			<circle clip-path="url(#SVGID_4_)" fill="#4DC6DD" cx="64.889" cy="134.017" r="0.864"/>
			<circle clip-path="url(#SVGID_4_)" fill="#4DC6DD" cx="67.17" cy="131.736" r="0.864"/>
			<circle clip-path="url(#SVGID_4_)" fill="#4DC6DD" cx="69.451" cy="134.017" r="0.864"/>
			<circle clip-path="url(#SVGID_4_)" fill="#4DC6DD" cx="71.732" cy="131.736" r="0.864"/>
			<circle clip-path="url(#SVGID_4_)" fill="#4DC6DD" cx="74.013" cy="134.017" r="0.864"/>
			<circle clip-path="url(#SVGID_4_)" fill="#4DC6DD" cx="76.294" cy="131.736" r="0.864"/>
			<circle clip-path="url(#SVGID_4_)" fill="#4DC6DD" cx="78.575" cy="134.017" r="0.864"/>
			<circle clip-path="url(#SVGID_4_)" fill="#4DC6DD" cx="80.856" cy="131.736" r="0.864"/>
			<circle clip-path="url(#SVGID_4_)" fill="#4DC6DD" cx="83.137" cy="134.017" r="0.864"/>
			<circle clip-path="url(#SVGID_4_)" fill="#4DC6DD" cx="85.418" cy="131.736" r="0.864"/>
			<circle clip-path="url(#SVGID_4_)" fill="#4DC6DD" cx="87.699" cy="134.017" r="0.864"/>
			<circle clip-path="url(#SVGID_4_)" fill="#4DC6DD" cx="89.98" cy="131.736" r="0.864"/>
			<circle clip-path="url(#SVGID_4_)" fill="#4DC6DD" cx="92.261" cy="134.017" r="0.864"/>
			<circle clip-path="url(#SVGID_4_)" fill="#4DC6DD" cx="94.542" cy="131.736" r="0.864"/>
			<circle clip-path="url(#SVGID_4_)" fill="#4DC6DD" cx="96.823" cy="134.017" r="0.864"/>
			<circle clip-path="url(#SVGID_4_)" fill="#4DC6DD" cx="99.104" cy="131.736" r="0.864"/>
			<circle clip-path="url(#SVGID_4_)" fill="#4DC6DD" cx="101.386" cy="134.017" r="0.864"/>
			<circle clip-path="url(#SVGID_4_)" fill="#4DC6DD" cx="103.667" cy="131.736" r="0.864"/>
			<circle clip-path="url(#SVGID_4_)" fill="#4DC6DD" cx="105.948" cy="134.017" r="0.864"/>
			<circle clip-path="url(#SVGID_4_)" fill="#4DC6DD" cx="108.229" cy="131.736" r="0.864"/>
			<circle clip-path="url(#SVGID_4_)" fill="#4DC6DD" cx="110.51" cy="134.017" r="0.864"/>
			<circle clip-path="url(#SVGID_4_)" fill="#4DC6DD" cx="112.791" cy="131.736" r="0.864"/>
			<circle clip-path="url(#SVGID_4_)" fill="#4DC6DD" cx="115.072" cy="134.017" r="0.864"/>
			<circle clip-path="url(#SVGID_4_)" fill="#4DC6DD" cx="62.608" cy="136.298" r="0.864"/>
			<circle clip-path="url(#SVGID_4_)" fill="#4DC6DD" cx="64.889" cy="138.579" r="0.864"/>
			<circle clip-path="url(#SVGID_4_)" fill="#4DC6DD" cx="67.17" cy="136.298" r="0.864"/>
			<circle clip-path="url(#SVGID_4_)" fill="#4DC6DD" cx="69.451" cy="138.579" r="0.864"/>
			<circle clip-path="url(#SVGID_4_)" fill="#4DC6DD" cx="71.732" cy="136.298" r="0.864"/>
			<circle clip-path="url(#SVGID_4_)" fill="#4DC6DD" cx="74.013" cy="138.579" r="0.864"/>
			<circle clip-path="url(#SVGID_4_)" fill="#4DC6DD" cx="76.294" cy="136.298" r="0.864"/>
			<circle clip-path="url(#SVGID_4_)" fill="#4DC6DD" cx="78.575" cy="138.579" r="0.864"/>
			<circle clip-path="url(#SVGID_4_)" fill="#4DC6DD" cx="80.856" cy="136.298" r="0.864"/>
			<circle clip-path="url(#SVGID_4_)" fill="#4DC6DD" cx="83.137" cy="138.579" r="0.864"/>
			<circle clip-path="url(#SVGID_4_)" fill="#4DC6DD" cx="85.418" cy="136.298" r="0.864"/>
			<circle clip-path="url(#SVGID_4_)" fill="#4DC6DD" cx="87.699" cy="138.579" r="0.864"/>
			<circle clip-path="url(#SVGID_4_)" fill="#4DC6DD" cx="89.98" cy="136.298" r="0.864"/>
			<circle clip-path="url(#SVGID_4_)" fill="#4DC6DD" cx="92.261" cy="138.579" r="0.864"/>
			<circle clip-path="url(#SVGID_4_)" fill="#4DC6DD" cx="94.542" cy="136.298" r="0.864"/>
			<circle clip-path="url(#SVGID_4_)" fill="#4DC6DD" cx="96.823" cy="138.579" r="0.864"/>
			<circle clip-path="url(#SVGID_4_)" fill="#4DC6DD" cx="99.104" cy="136.298" r="0.864"/>
			<circle clip-path="url(#SVGID_4_)" fill="#4DC6DD" cx="101.386" cy="138.579" r="0.864"/>
			<circle clip-path="url(#SVGID_4_)" fill="#4DC6DD" cx="103.667" cy="136.298" r="0.864"/>
			<circle clip-path="url(#SVGID_4_)" fill="#4DC6DD" cx="105.948" cy="138.579" r="0.864"/>
			<circle clip-path="url(#SVGID_4_)" fill="#4DC6DD" cx="108.229" cy="136.298" r="0.864"/>
			<circle clip-path="url(#SVGID_4_)" fill="#4DC6DD" cx="110.51" cy="138.579" r="0.864"/>
			<circle clip-path="url(#SVGID_4_)" fill="#4DC6DD" cx="112.791" cy="136.298" r="0.864"/>
			<circle clip-path="url(#SVGID_4_)" fill="#4DC6DD" cx="115.072" cy="138.579" r="0.864"/>
		</g>
		<g clip-path="url(#SVGID_2_)">
			<defs>
				<path id="SVGID_5_" d="M105.66,94.261c-1.121,0.589-2.27,1.662-3.254,3.59c0,0-13.456,4.19-23.242,4.309
					c-9.786,0.12-9.786-1.077-14.924,0.239c0,0-0.489-3.831-1.59-5.028c-1.101-1.197-1.835-2.035-1.957-2.753
					c-0.122-0.718-2.036-13.547-2.036-13.547l-0.166-0.099l44.403-9.135L105.66,94.261z"/>
			</defs>
			<clipPath id="SVGID_6_">
				<use xlink:href="#SVGID_5_"  overflow="visible"/>
			</clipPath>
			<circle clip-path="url(#SVGID_6_)" fill="#4DC6DD" cx="68.255" cy="73.06" r="0.925"/>
			<circle clip-path="url(#SVGID_6_)" fill="#4DC6DD" cx="70.699" cy="70.616" r="0.925"/>
			<circle clip-path="url(#SVGID_6_)" fill="#4DC6DD" cx="73.143" cy="73.06" r="0.925"/>
			<circle clip-path="url(#SVGID_6_)" fill="#4DC6DD" cx="75.587" cy="70.616" r="0.925"/>
			<circle clip-path="url(#SVGID_6_)" fill="#4DC6DD" cx="78.031" cy="73.06" r="0.925"/>
			<circle clip-path="url(#SVGID_6_)" fill="#4DC6DD" cx="80.475" cy="70.616" r="0.925"/>
			<circle clip-path="url(#SVGID_6_)" fill="#4DC6DD" cx="82.919" cy="73.06" r="0.925"/>
			<circle clip-path="url(#SVGID_6_)" fill="#4DC6DD" cx="85.363" cy="70.616" r="0.925"/>
			<circle clip-path="url(#SVGID_6_)" fill="#4DC6DD" cx="87.807" cy="73.06" r="0.925"/>
			<circle clip-path="url(#SVGID_6_)" fill="#4DC6DD" cx="90.251" cy="70.616" r="0.925"/>
			<circle clip-path="url(#SVGID_6_)" fill="#4DC6DD" cx="92.695" cy="73.06" r="0.925"/>
			<circle clip-path="url(#SVGID_6_)" fill="#4DC6DD" cx="95.139" cy="70.616" r="0.925"/>
			<circle clip-path="url(#SVGID_6_)" fill="#4DC6DD" cx="97.583" cy="73.06" r="0.925"/>
			<circle clip-path="url(#SVGID_6_)" fill="#4DC6DD" cx="100.027" cy="70.616" r="0.925"/>
			<circle clip-path="url(#SVGID_6_)" fill="#4DC6DD" cx="102.471" cy="73.06" r="0.925"/>
			<circle clip-path="url(#SVGID_6_)" fill="#4DC6DD" cx="104.915" cy="70.616" r="0.925"/>
			<circle clip-path="url(#SVGID_6_)" fill="#4DC6DD" cx="107.358" cy="73.06" r="0.925"/>
			<circle clip-path="url(#SVGID_6_)" fill="#4DC6DD" cx="58.479" cy="77.948" r="0.925"/>
			<circle clip-path="url(#SVGID_6_)" fill="#4DC6DD" cx="63.367" cy="77.948" r="0.925"/>
			<circle clip-path="url(#SVGID_6_)" fill="#4DC6DD" cx="68.255" cy="77.948" r="0.925"/>
			<circle clip-path="url(#SVGID_6_)" fill="#4DC6DD" cx="70.699" cy="75.504" r="0.925"/>
			<circle clip-path="url(#SVGID_6_)" fill="#4DC6DD" cx="73.143" cy="77.948" r="0.925"/>
			<circle clip-path="url(#SVGID_6_)" fill="#4DC6DD" cx="75.587" cy="75.504" r="0.925"/>
			<circle clip-path="url(#SVGID_6_)" fill="#4DC6DD" cx="78.031" cy="77.948" r="0.925"/>
			<circle clip-path="url(#SVGID_6_)" fill="#4DC6DD" cx="80.475" cy="75.504" r="0.925"/>
			<circle clip-path="url(#SVGID_6_)" fill="#4DC6DD" cx="82.919" cy="77.948" r="0.925"/>
			<circle clip-path="url(#SVGID_6_)" fill="#4DC6DD" cx="85.363" cy="75.504" r="0.925"/>
			<circle clip-path="url(#SVGID_6_)" fill="#4DC6DD" cx="87.807" cy="77.948" r="0.925"/>
			<circle clip-path="url(#SVGID_6_)" fill="#4DC6DD" cx="90.251" cy="75.504" r="0.925"/>
			<circle clip-path="url(#SVGID_6_)" fill="#4DC6DD" cx="92.695" cy="77.948" r="0.925"/>
			<circle clip-path="url(#SVGID_6_)" fill="#4DC6DD" cx="95.139" cy="75.504" r="0.925"/>
			<circle clip-path="url(#SVGID_6_)" fill="#4DC6DD" cx="97.583" cy="77.948" r="0.925"/>
			<circle clip-path="url(#SVGID_6_)" fill="#4DC6DD" cx="100.027" cy="75.504" r="0.925"/>
			<circle clip-path="url(#SVGID_6_)" fill="#4DC6DD" cx="102.471" cy="77.948" r="0.925"/>
			<circle clip-path="url(#SVGID_6_)" fill="#4DC6DD" cx="104.915" cy="75.504" r="0.925"/>
			<circle clip-path="url(#SVGID_6_)" fill="#4DC6DD" cx="107.358" cy="77.948" r="0.925"/>
			<circle clip-path="url(#SVGID_6_)" fill="#4DC6DD" cx="56.035" cy="80.392" r="0.925"/>
			<circle clip-path="url(#SVGID_6_)" fill="#4DC6DD" cx="58.479" cy="82.836" r="0.925"/>
			<circle clip-path="url(#SVGID_6_)" fill="#4DC6DD" cx="60.923" cy="80.392" r="0.925"/>
			<circle clip-path="url(#SVGID_6_)" fill="#4DC6DD" cx="63.367" cy="82.836" r="0.925"/>
			<circle clip-path="url(#SVGID_6_)" fill="#4DC6DD" cx="65.811" cy="80.392" r="0.925"/>
			<circle clip-path="url(#SVGID_6_)" fill="#4DC6DD" cx="68.255" cy="82.836" r="0.925"/>
			<circle clip-path="url(#SVGID_6_)" fill="#4DC6DD" cx="70.699" cy="80.392" r="0.925"/>
			<circle clip-path="url(#SVGID_6_)" fill="#4DC6DD" cx="73.143" cy="82.836" r="0.925"/>
			<circle clip-path="url(#SVGID_6_)" fill="#4DC6DD" cx="75.587" cy="80.392" r="0.925"/>
			<circle clip-path="url(#SVGID_6_)" fill="#4DC6DD" cx="78.031" cy="82.836" r="0.925"/>
			<circle clip-path="url(#SVGID_6_)" fill="#4DC6DD" cx="80.475" cy="80.392" r="0.925"/>
			<circle clip-path="url(#SVGID_6_)" fill="#4DC6DD" cx="82.919" cy="82.836" r="0.925"/>
			<circle clip-path="url(#SVGID_6_)" fill="#4DC6DD" cx="85.363" cy="80.392" r="0.925"/>
			<circle clip-path="url(#SVGID_6_)" fill="#4DC6DD" cx="87.807" cy="82.836" r="0.925"/>
			<circle clip-path="url(#SVGID_6_)" fill="#4DC6DD" cx="90.251" cy="80.392" r="0.925"/>
			<circle clip-path="url(#SVGID_6_)" fill="#4DC6DD" cx="92.695" cy="82.836" r="0.925"/>
			<circle clip-path="url(#SVGID_6_)" fill="#4DC6DD" cx="95.139" cy="80.392" r="0.925"/>
			<circle clip-path="url(#SVGID_6_)" fill="#4DC6DD" cx="97.583" cy="82.836" r="0.925"/>
			<circle clip-path="url(#SVGID_6_)" fill="#4DC6DD" cx="100.027" cy="80.392" r="0.925"/>
			<circle clip-path="url(#SVGID_6_)" fill="#4DC6DD" cx="102.471" cy="82.836" r="0.925"/>
			<circle clip-path="url(#SVGID_6_)" fill="#4DC6DD" cx="104.915" cy="80.392" r="0.925"/>
			<circle clip-path="url(#SVGID_6_)" fill="#4DC6DD" cx="107.358" cy="82.836" r="0.925"/>
			<circle clip-path="url(#SVGID_6_)" fill="#4DC6DD" cx="56.035" cy="85.28" r="0.925"/>
			<circle clip-path="url(#SVGID_6_)" fill="#4DC6DD" cx="58.479" cy="87.724" r="0.925"/>
			<circle clip-path="url(#SVGID_6_)" fill="#4DC6DD" cx="60.923" cy="85.28" r="0.925"/>
			<circle clip-path="url(#SVGID_6_)" fill="#4DC6DD" cx="63.367" cy="87.724" r="0.925"/>
			<circle clip-path="url(#SVGID_6_)" fill="#4DC6DD" cx="65.811" cy="85.28" r="0.925"/>
			<circle clip-path="url(#SVGID_6_)" fill="#4DC6DD" cx="68.255" cy="87.724" r="0.925"/>
			<circle clip-path="url(#SVGID_6_)" fill="#4DC6DD" cx="70.699" cy="85.28" r="0.925"/>
			<circle clip-path="url(#SVGID_6_)" fill="#4DC6DD" cx="73.143" cy="87.724" r="0.925"/>
			<circle clip-path="url(#SVGID_6_)" fill="#4DC6DD" cx="75.587" cy="85.28" r="0.925"/>
			<circle clip-path="url(#SVGID_6_)" fill="#4DC6DD" cx="78.031" cy="87.724" r="0.925"/>
			<circle clip-path="url(#SVGID_6_)" fill="#4DC6DD" cx="80.475" cy="85.28" r="0.925"/>
			<circle clip-path="url(#SVGID_6_)" fill="#4DC6DD" cx="82.919" cy="87.724" r="0.925"/>
			<circle clip-path="url(#SVGID_6_)" fill="#4DC6DD" cx="85.363" cy="85.28" r="0.925"/>
			<circle clip-path="url(#SVGID_6_)" fill="#4DC6DD" cx="87.807" cy="87.724" r="0.925"/>
			<circle clip-path="url(#SVGID_6_)" fill="#4DC6DD" cx="90.251" cy="85.28" r="0.925"/>
			<circle clip-path="url(#SVGID_6_)" fill="#4DC6DD" cx="92.695" cy="87.724" r="0.925"/>
			<circle clip-path="url(#SVGID_6_)" fill="#4DC6DD" cx="95.139" cy="85.28" r="0.925"/>
			<circle clip-path="url(#SVGID_6_)" fill="#4DC6DD" cx="97.583" cy="87.724" r="0.925"/>
			<circle clip-path="url(#SVGID_6_)" fill="#4DC6DD" cx="100.027" cy="85.28" r="0.925"/>
			<circle clip-path="url(#SVGID_6_)" fill="#4DC6DD" cx="102.471" cy="87.724" r="0.925"/>
			<circle clip-path="url(#SVGID_6_)" fill="#4DC6DD" cx="104.915" cy="85.28" r="0.925"/>
			<circle clip-path="url(#SVGID_6_)" fill="#4DC6DD" cx="107.358" cy="87.724" r="0.925"/>
			<circle clip-path="url(#SVGID_6_)" fill="#4DC6DD" cx="56.035" cy="90.168" r="0.925"/>
			<circle clip-path="url(#SVGID_6_)" fill="#4DC6DD" cx="58.479" cy="92.612" r="0.925"/>
			<circle clip-path="url(#SVGID_6_)" fill="#4DC6DD" cx="60.923" cy="90.168" r="0.925"/>
			<circle clip-path="url(#SVGID_6_)" fill="#4DC6DD" cx="63.367" cy="92.612" r="0.925"/>
			<circle clip-path="url(#SVGID_6_)" fill="#4DC6DD" cx="65.811" cy="90.168" r="0.925"/>
			<circle clip-path="url(#SVGID_6_)" fill="#4DC6DD" cx="68.255" cy="92.612" r="0.925"/>
			<circle clip-path="url(#SVGID_6_)" fill="#4DC6DD" cx="70.699" cy="90.168" r="0.925"/>
			<circle clip-path="url(#SVGID_6_)" fill="#4DC6DD" cx="73.143" cy="92.612" r="0.925"/>
			<circle clip-path="url(#SVGID_6_)" fill="#4DC6DD" cx="75.587" cy="90.168" r="0.925"/>
			<circle clip-path="url(#SVGID_6_)" fill="#4DC6DD" cx="78.031" cy="92.612" r="0.925"/>
			<circle clip-path="url(#SVGID_6_)" fill="#4DC6DD" cx="80.475" cy="90.168" r="0.925"/>
			<circle clip-path="url(#SVGID_6_)" fill="#4DC6DD" cx="82.919" cy="92.612" r="0.925"/>
			<circle clip-path="url(#SVGID_6_)" fill="#4DC6DD" cx="85.363" cy="90.168" r="0.925"/>
			<circle clip-path="url(#SVGID_6_)" fill="#4DC6DD" cx="87.807" cy="92.612" r="0.925"/>
			<circle clip-path="url(#SVGID_6_)" fill="#4DC6DD" cx="90.251" cy="90.168" r="0.925"/>
			<circle clip-path="url(#SVGID_6_)" fill="#4DC6DD" cx="92.695" cy="92.612" r="0.925"/>
			<circle clip-path="url(#SVGID_6_)" fill="#4DC6DD" cx="95.139" cy="90.168" r="0.925"/>
			<circle clip-path="url(#SVGID_6_)" fill="#4DC6DD" cx="97.583" cy="92.612" r="0.925"/>
			<circle clip-path="url(#SVGID_6_)" fill="#4DC6DD" cx="100.027" cy="90.168" r="0.925"/>
			<circle clip-path="url(#SVGID_6_)" fill="#4DC6DD" cx="102.471" cy="92.612" r="0.925"/>
			<circle clip-path="url(#SVGID_6_)" fill="#4DC6DD" cx="104.915" cy="90.168" r="0.925"/>
			<circle clip-path="url(#SVGID_6_)" fill="#4DC6DD" cx="107.358" cy="92.612" r="0.925"/>
			<circle clip-path="url(#SVGID_6_)" fill="#4DC6DD" cx="56.035" cy="95.056" r="0.925"/>
			<circle clip-path="url(#SVGID_6_)" fill="#4DC6DD" cx="58.479" cy="97.5" r="0.925"/>
			<circle clip-path="url(#SVGID_6_)" fill="#4DC6DD" cx="60.923" cy="95.056" r="0.925"/>
			<circle clip-path="url(#SVGID_6_)" fill="#4DC6DD" cx="63.367" cy="97.5" r="0.925"/>
			<circle clip-path="url(#SVGID_6_)" fill="#4DC6DD" cx="65.811" cy="95.056" r="0.925"/>
			<circle clip-path="url(#SVGID_6_)" fill="#4DC6DD" cx="68.255" cy="97.5" r="0.925"/>
			<circle clip-path="url(#SVGID_6_)" fill="#4DC6DD" cx="70.699" cy="95.056" r="0.925"/>
			<circle clip-path="url(#SVGID_6_)" fill="#4DC6DD" cx="73.143" cy="97.5" r="0.925"/>
			<circle clip-path="url(#SVGID_6_)" fill="#4DC6DD" cx="75.587" cy="95.056" r="0.925"/>
			<circle clip-path="url(#SVGID_6_)" fill="#4DC6DD" cx="78.031" cy="97.5" r="0.925"/>
			<circle clip-path="url(#SVGID_6_)" fill="#4DC6DD" cx="80.475" cy="95.056" r="0.925"/>
			<circle clip-path="url(#SVGID_6_)" fill="#4DC6DD" cx="82.919" cy="97.5" r="0.925"/>
			<circle clip-path="url(#SVGID_6_)" fill="#4DC6DD" cx="85.363" cy="95.056" r="0.925"/>
			<circle clip-path="url(#SVGID_6_)" fill="#4DC6DD" cx="87.807" cy="97.5" r="0.925"/>
			<circle clip-path="url(#SVGID_6_)" fill="#4DC6DD" cx="90.251" cy="95.056" r="0.925"/>
			<circle clip-path="url(#SVGID_6_)" fill="#4DC6DD" cx="92.695" cy="97.5" r="0.925"/>
			<circle clip-path="url(#SVGID_6_)" fill="#4DC6DD" cx="95.139" cy="95.056" r="0.925"/>
			<circle clip-path="url(#SVGID_6_)" fill="#4DC6DD" cx="97.583" cy="97.5" r="0.925"/>
			<circle clip-path="url(#SVGID_6_)" fill="#4DC6DD" cx="100.027" cy="95.056" r="0.925"/>
			<circle clip-path="url(#SVGID_6_)" fill="#4DC6DD" cx="102.471" cy="97.5" r="0.925"/>
			<circle clip-path="url(#SVGID_6_)" fill="#4DC6DD" cx="104.915" cy="95.056" r="0.925"/>
			<circle clip-path="url(#SVGID_6_)" fill="#4DC6DD" cx="107.358" cy="97.5" r="0.925"/>
			<circle clip-path="url(#SVGID_6_)" fill="#4DC6DD" cx="56.035" cy="99.944" r="0.925"/>
			<circle clip-path="url(#SVGID_6_)" fill="#4DC6DD" cx="58.479" cy="102.388" r="0.925"/>
			<circle clip-path="url(#SVGID_6_)" fill="#4DC6DD" cx="60.923" cy="99.944" r="0.925"/>
			<circle clip-path="url(#SVGID_6_)" fill="#4DC6DD" cx="63.367" cy="102.388" r="0.925"/>
			<circle clip-path="url(#SVGID_6_)" fill="#4DC6DD" cx="65.811" cy="99.944" r="0.925"/>
			<circle clip-path="url(#SVGID_6_)" fill="#4DC6DD" cx="68.255" cy="102.388" r="0.925"/>
			<circle clip-path="url(#SVGID_6_)" fill="#4DC6DD" cx="70.699" cy="99.944" r="0.925"/>
			<circle clip-path="url(#SVGID_6_)" fill="#4DC6DD" cx="73.143" cy="102.388" r="0.925"/>
			<circle clip-path="url(#SVGID_6_)" fill="#4DC6DD" cx="75.587" cy="99.944" r="0.925"/>
			<circle clip-path="url(#SVGID_6_)" fill="#4DC6DD" cx="78.031" cy="102.388" r="0.925"/>
			<circle clip-path="url(#SVGID_6_)" fill="#4DC6DD" cx="80.475" cy="99.944" r="0.925"/>
			<circle clip-path="url(#SVGID_6_)" fill="#4DC6DD" cx="82.919" cy="102.388" r="0.925"/>
			<circle clip-path="url(#SVGID_6_)" fill="#4DC6DD" cx="85.363" cy="99.944" r="0.925"/>
			<circle clip-path="url(#SVGID_6_)" fill="#4DC6DD" cx="87.807" cy="102.388" r="0.925"/>
			<circle clip-path="url(#SVGID_6_)" fill="#4DC6DD" cx="90.251" cy="99.944" r="0.925"/>
			<circle clip-path="url(#SVGID_6_)" fill="#4DC6DD" cx="92.695" cy="102.388" r="0.925"/>
			<circle clip-path="url(#SVGID_6_)" fill="#4DC6DD" cx="95.139" cy="99.944" r="0.925"/>
			<circle clip-path="url(#SVGID_6_)" fill="#4DC6DD" cx="97.583" cy="102.388" r="0.925"/>
			<circle clip-path="url(#SVGID_6_)" fill="#4DC6DD" cx="100.027" cy="99.944" r="0.925"/>
			<circle clip-path="url(#SVGID_6_)" fill="#4DC6DD" cx="102.471" cy="102.388" r="0.925"/>
			<circle clip-path="url(#SVGID_6_)" fill="#4DC6DD" cx="104.915" cy="99.944" r="0.925"/>
			<circle clip-path="url(#SVGID_6_)" fill="#4DC6DD" cx="107.358" cy="102.388" r="0.925"/>
		</g>
		<g clip-path="url(#SVGID_2_)">
			<g>
				<path fill="none" stroke="#231F20" stroke-width="0.5" d="M84.75,75.505c0,0-4.812-8.06-1.957-13.088
					c0,0-0.326-11.252,4.159-17.477"/>
				<path fill="none" stroke="#231F20" stroke-width="0.5" d="M102.894,71.837"/>
				<path fill="none" stroke="#231F20" stroke-width="0.5" d="M60.285,80.613c0,0-3.344-7.741-2.936-11.572
					c0,0-1.223,2.155-0.571,4.23c0,0-3.996-8.699-3.262-13.247c0,0-3.181-4.23-2.528-8.14c0,0-1.06,2.155-1.06,3.591
					c0,0-0.897-6.783,1.142-9.337c0,0-0.652-4.948,1.631-10.055c2.283-5.107,2.773-7.262,3.833-10.933
					c1.06-3.671,7.503-24.021,23.894-17.477c0,0,3.833-3.272,9.052,3.99c5.219,7.262,6.524,16.679,7.095,19.951
					c0.571,3.272,1.386,11.971,1.631,14.764c0.245,2.793-0.245,12.609,8.4,14.045c0,0-3.751,0.639-5.546-0.16
					c0,0,1.957,4.389,1.876,7.581c-0.081,3.192,1.305,7.661,2.854,10.534c1.549,2.873,3.344,8.619,2.365,12.449
					c0,0-0.571-1.197-0.979-2.474c0,0-0.326,1.357-1.876,2.155"/>
				<path fill="none" stroke="#231F20" stroke-width="0.5" d="M65.852,41.695c0,0,1.665,7.498,11.407,7.498
					c9.742,0,11.408-7.498,11.408-7.498s1.302-5.294,1.139-8.246c-0.163-2.953-0.326-5.107-0.081-6.624
					c0.245-1.516,0.326-6.384-1.06-7.661c-1.386-1.277-6.035-5.028-6.85-5.985c0,0-3.588,1.596-8.074,1.357
					c0,0-2.12-0.559-3.588,0.958c-1.468,1.516-2.283,3.432-2.202,5.826c0,0,0.897,7.502-0.245,11.093
					c-1.142,3.591-2.365,7.103-2.039,8.938c0.326,1.835,0.653,4.629,2.284,6.943c1.631,2.314,2.528,7.182,0.979,10.215
					c0,0-0.326,2.235,1.305,3.99c1.631,1.756,7.666,9.018,2.854,15.482"/>
				<polyline fill="none" stroke="#231F20" stroke-width="0.5" points="58.491,80.972 102.894,71.837 105.64,94.068 				"/>
				<path fill="none" stroke="#231F20" stroke-width="0.5" d="M53.108,61.221c0,0-6.361,0.359-8.807,3.352
					c-2.447,2.993-4.159,11.611-2.447,19.632c1.713,8.02,2.202,8.379,2.202,8.379s-1.59-7.541,15.291-7.182l-0.856-4.429"/>
				<path fill="none" stroke="#231F20" stroke-width="0.5" d="M105.953,60.502c0,0,4.404,0.958,5.749,3.352
					c1.346,2.394,2.324,3.95,2.936,5.028c0.612,1.077,1.59,2.993,1.835,3.95c0.245,0.958,1.59,3.831,2.202,5.028
					c0.612,1.197,4.037,4.788,2.447,5.985c0,0-3.67-2.753-12.6,2.873"/>
				<path fill="none" stroke="#231F20" stroke-width="0.5" d="M44.056,92.583c0,0,6.728,16.998,9.786,21.068
					c3.058,4.07,8.196,9.098,21.652,5.506c13.456-3.591,17.37-6.105,20.673-7.302c3.303-1.197,8.318-2.993,9.175-2.993
					c0.856,0,4.404-0.958,6.239-1.796c1.835-0.838,4.159-1.915,3.914-3.112c-0.245-1.197-0.734-2.035-0.612-3.232
					c0.122-1.197,0.489-1.556-0.489-2.514c-0.979-0.958-1.835-1.077-1.835-1.915c0-0.838-0.367-2.274-2.202-2.514
					c-1.835-0.239-5.382-0.958-7.951,4.07c0,0-13.456,4.19-23.242,4.309c-9.786,0.12-9.786-1.077-14.924,0.239
					c0,0-0.489-3.831-1.59-5.028c-1.101-1.197-1.835-2.035-1.957-2.753c-0.122-0.718-1.346-9.217-1.346-9.217"/>
				<path fill="none" stroke="#231F20" stroke-width="0.5" d="M60.448,119.397c0,0,0.367,2.633,2.446,3.112
					c0,0,0.122,5.267,10.031,2.633c9.908-2.633,9.908-2.873,11.499-2.633c1.59,0.239,26.422,3.352,38.166-2.753
					c0,0,2.936-0.958,4.404-1.437c1.468-0.479,2.814-0.598,3.547-2.155c0.734-1.556,1.468-18.315-9.297-31.842"/>
				<line fill="none" stroke="#231F20" stroke-width="0.5" x1="108.155" y1="90.828" x2="108.889" y2="93.421"/>
				<path fill="none" stroke="#231F20" stroke-width="0.5" d="M57.635,117.841c0,0,0.489,4.19-0.612,5.866
					c-1.101,1.676-3.181,6.105-3.058,8.26c0.122,2.155,1.346,4.788,0.612,6.464c-0.734,1.676-1.713,5.507-1.835,7.542
					c-0.122,2.035-0.245,7.661-0.245,7.661s7.462,0,15.046-0.359s20.184-1.197,26.178-1.436c5.994-0.24,18.471-2.674,18.471-2.674
					s0.734-0.798,0.245-2.354c-0.489-1.556-0.734-3.95-0.979-6.703c-0.245-2.753-0.979-11.252-0.979-11.252"/>
				<polyline fill="none" stroke="#231F20" stroke-width="0.5" points="110.846,122.989 111.947,128.375 69.989,137.712 
					66.564,125.981 				"/>
				<line fill="none" stroke="#231F20" stroke-width="0.5" x1="67.421" y1="79.296" x2="68.766" y2="101.681"/>
				<line fill="none" stroke="#231F20" stroke-width="0.5" x1="72.925" y1="125.143" x2="73.659" y2="136.755"/>
				<g>
					<g>
						<path fill="#231F20" d="M74.246,6.385c1.881,0,3.939,0.392,6.181,1.287c0,0,0.861-0.735,2.323-0.735
							c1.622,0,3.984,0.905,6.729,4.725c5.219,7.262,6.524,16.679,7.095,19.951c0.571,3.272,1.386,11.971,1.631,14.764
							c0.245,2.793-0.245,12.609,8.4,14.045c0,0-0.236,0.04-0.618,0.088c0.354,0.081,4.428,1.054,5.715,3.344
							c1.346,2.394,2.324,3.95,2.936,5.028c0.612,1.077,1.59,2.993,1.835,3.95c0.245,0.958,1.59,3.831,2.202,5.028
							c0.612,1.197,4.037,4.788,2.446,5.985l0.122,0.479c10.765,13.527,10.031,30.285,9.297,31.842
							c-0.734,1.556-2.08,1.676-3.547,2.155c-1.468,0.479-4.404,1.436-4.404,1.436c-3.477,1.808-6.95,2.659-11.779,3.164
							l1.137,5.455l-1.821,0.405c0,0,1.087,8.573,1.332,11.326c0.245,2.753,0.489,5.147,0.979,6.704
							c0.489,1.556-0.245,2.354-0.245,2.354c5.576,17.938,0.526,39.906,0.526,39.906H54.142c-3.417-6.59-2.441-22.454-1.708-26.115
							c0.732-3.661,0.063-9.321,0.063-9.322c0,0,0.122-5.626,0.245-7.661c0.122-2.035,1.101-5.866,1.835-7.542
							c0.734-1.676-0.489-4.309-0.612-6.464c-0.122-2.155,1.957-6.584,3.058-8.26c1.101-1.676,0.916-5.802,0.916-5.802
							c-1.929-1.266-2.997-2.789-4.097-4.253c-3.058-4.07-9.786-21.068-9.786-21.068s-0.489-0.359-2.202-8.379
							c-1.713-8.02,0-16.639,2.446-19.632c2.447-2.993,8.807-3.352,8.807-3.352l0.32,0.071c-0.002-0.448,0.024-0.874,0.088-1.268
							c0,0-3.181-4.23-2.528-8.14c0,0-1.06,2.155-1.06,3.591c0,0-0.897-6.783,1.142-9.337c0,0-0.652-4.948,1.631-10.055
							c2.283-5.107,2.773-7.262,3.833-10.933C57.449,21.98,62.373,6.383,74.246,6.385 M74.247,5.385
							C62.142,5.383,56.893,20.3,55.573,24.872c-0.136,0.472-0.263,0.919-0.386,1.35c-0.835,2.941-1.438,5.065-3.399,9.452
							c-2.017,4.512-1.86,8.859-1.751,10.188c-1.928,2.964-1.194,9.035-1.101,9.743c0.066,0.5,0.493,0.869,0.991,0.869
							c0.022,0,0.044-0.001,0.067-0.002c0.183-0.012,0.351-0.073,0.494-0.169c0.61,1.828,1.536,3.314,1.98,3.967
							c-1.713,0.174-6.682,0.906-8.94,3.668c-2.689,3.289-4.395,12.301-2.65,20.474c1.298,6.08,1.917,7.947,2.273,8.598
							c0.508,1.281,6.851,17.193,9.893,21.242l0.222,0.296c0.989,1.322,2.009,2.686,3.689,3.892
							c0.016,1.522-0.165,3.802-0.766,4.717c-1.009,1.536-3.368,6.267-3.221,8.865c0.049,0.864,0.25,1.762,0.445,2.63
							c0.288,1.283,0.585,2.609,0.249,3.376c-0.753,1.719-1.786,5.695-1.917,7.883c-0.122,2.031-0.241,7.469-0.246,7.699
							c-0.001,0.046,0.001,0.093,0.007,0.139c0.007,0.055,0.641,5.549-0.051,9.009c-0.783,3.916-1.753,19.917,1.801,26.771
							c0.172,0.332,0.514,0.54,0.888,0.54h58.576c0.466,0,0.87-0.322,0.975-0.776c0.207-0.9,4.969-22.092-0.412-39.991
							c0.268-0.545,0.521-1.488,0.111-2.793c-0.463-1.473-0.707-3.911-0.936-6.492c-0.199-2.239-0.935-8.173-1.222-10.459
							l0.932-0.207c0.534-0.119,0.873-0.645,0.762-1.18l-0.913-4.38c4.568-0.556,7.81-1.482,10.964-3.109l4.326-1.411
							c0.234-0.076,0.465-0.143,0.691-0.208c1.241-0.359,2.647-0.766,3.451-2.47c0.847-1.797,1.514-18.863-9.159-32.561
							c0.928-1.56-0.779-3.899-1.958-5.514c-0.319-0.437-0.648-0.888-0.763-1.112c-0.718-1.406-1.927-4.05-2.124-4.82
							c-0.289-1.133-1.352-3.171-1.934-4.196c-0.235-0.415-0.524-0.899-0.867-1.474c-0.552-0.925-1.239-2.077-2.067-3.55
							c-1.069-1.902-3.559-2.974-5.129-3.484c-0.148-0.23-0.389-0.397-0.676-0.444c-6.973-1.159-7.331-8.521-7.503-12.059
							c-0.021-0.426-0.039-0.794-0.065-1.087c-0.01-0.109-0.964-10.963-1.642-14.848l-0.122-0.717
							c-0.639-3.792-2.134-12.672-7.146-19.646c-2.452-3.412-4.989-5.142-7.541-5.142c-1.106,0-1.94,0.338-2.441,0.618
							C78.223,5.779,76.186,5.385,74.247,5.385L74.247,5.385z"/>
					</g>
				</g>
			</g>
		</g>
	</g>
	<path fill="none" stroke="#231F20" stroke-width="2" d="M140,96c0,33.137-26.863,60-60,60s-60-26.863-60-60"/>
</g>
</svg>
