<?xml version="1.0" encoding="utf-8"?>
<!-- Generator: Adobe Illustrator 18.0.0, SVG Export Plug-In . SVG Version: 6.00 Build 0)  -->
<!DOCTYPE svg PUBLIC "-//W3C//DTD SVG 1.1//EN" "http://www.w3.org/Graphics/SVG/1.1/DTD/svg11.dtd">
<svg version="1.1" id="Layer_1" xmlns="http://www.w3.org/2000/svg" xmlns:xlink="http://www.w3.org/1999/xlink" x="0px" y="0px"
	 viewBox="0 0 160 160" enable-background="new 0 0 160 160" xml:space="preserve">
<g>
	<circle fill="#FFFFFF" stroke="#231F20" stroke-width="2" cx="79.833" cy="95.917" r="60"/>
	<path fill="#FFFFFF" d="M44.385,62.799c0,0,16.221-7.821,21.145-9.993c0,0,1.014-2.848,2.269-3.814c0,0-0.531-2.703,1.11-4.2
		l0.048-4.297c0,0-2.414-3.765-2.655-8.11c0,0-1.593,0.772-2.172-0.483c-0.579-1.255-1.255-3.862-1.4-4.538
		c-0.145-0.676-0.338-3.234-0.29-3.524c0.048-0.29,0.097-1.352,0.579-1.352c0.483,0,1.303,0.434,1.303,0.434
		S60.75,2.937,77.695,2.937c0,0,16.317-1.69,14.145,20.276c0,0,1.135-0.821,1.641-0.604c0.507,0.217,0.652,3.476,0.217,5.214
		c-0.435,1.738-0.652,3.476-1.304,3.983c-0.652,0.507-1.969,0.869-2.331,0.434c0,0,0.103,5.069-1.897,7.169v2.245
		c0,0,0.738,0.507,0.956,1.303c0.217,0.797,0.659,1.376,0.659,1.376s1.343,0.29,1.56,1.014c0.217,0.724,1.468,2.1,2.192,2.679
		c0.724,0.579,3.051,1.593,3.558,2.462c0,0,17.384,4.417,21.802,8.255c0,0,2.32,1.593,2.175,4.2
		c-0.145,2.607-0.144,3.331,0.001,4.345c0.145,1.014,0.001,2.752-0.724,3.693c0,0,0.29,2.028,0.218,3.041
		c-0.072,1.014-0.724,1.231-0.724,2.1c0,0.869,0.362,2.969-0.29,3.766c0,0,1.086,0.941,0.797,1.738
		c-0.29,0.797-1.014,1.231-1.014,1.231s0.507,24.693-10.79,34.179c0,0,2.317,13.324,2.969,15.135c0,0,0.652,0.797,0.434,1.376
		c0,0,1.521,4.707,2.173,6.59c0.652,1.883,0.579,2.39-0.724,3.186c0,0,4.707-21.035,4.635-16.69c0,0-5.069,3.621-9.848,3.693
		l-0.941,4.562c0,0,0.145-28.262,0.145-26.524c0,1.738-0.362,6.002-0.362,7.522s0.145,8.029,0.145,8.029H79.65l-2.752-6.409
		l-1.086,6.409H49.454c0,0,0.072-6.327-0.29-10.455c-0.362-4.128-1.883,13.983-1.883,13.983s-5.069-1.854-4.779-4.605
		c0.29-2.752,1.376,17.668,1.666,15.278c0.29-2.39,1.303,9.417,1.665,7.969c0.362-1.448,0.869-5.147,0.869-5.147
		s-0.941-1.161-0.362-2.392c0.579-1.231,0.579-3.912,0.652-4.853c0.072-0.941,0.072-2.245,0.724-2.608l0.362-3.693l-7.531-2.173
		c0,0-3.621-0.941-4.272-3.404c-0.652-2.462-1.159-6.59-1.231-8.183c-0.073-1.593-0.507-4.128-0.869-5.069
		c-0.362-0.941-1.159-1.955-0.434-3.186c0.724-1.231,0.434-2.824,1.086-3.548c0.652-0.724,0.724-0.724,0.724-2.028
		c0-1.304-0.145-3.331,0.579-4.2c0.724-0.869,1.231-2.245,1.159-2.824c-0.072-0.579-0.797-1.448-0.362-2.1
		c0.435-0.652,0.435-1.086,0.435-2.028s-0.072-1.883,0.796-2.028c0,0-0.362-1.738,0.652-1.955c0,0-0.579-1.738,0.072-2.535
		c0.652-0.797,0.362-0.652,0.362-2.607s0.434-2.462,0.941-2.969c0.507-0.507-0.724-2.172,0-3.186
		c0.724-1.014,1.448-3.476,1.593-5.069C41.923,66.71,43.081,63.813,44.385,62.799z"/>
	<g>
		<defs>
			<path id="SVGID_1_" d="M19.833,96.083C19.833,129.221,46.863,156,80,156c33.137,0,60.167-26.946,60.167-60.083v-103H20.2
				L19.833,96.083z"/>
		</defs>
		<clipPath id="SVGID_2_">
			<use xlink:href="#SVGID_1_"  overflow="visible"/>
		</clipPath>
		<g clip-path="url(#SVGID_2_)">
			<path fill="#FFFFFF" d="M93.21,48.808c-0.892-1.189-4.791-7.327-4.791-7.327v-5.284c0,0,0.634-1.057,0.916-2.748
				c0,0,4.227-0.141,4.368-4.72c0,0,1.55-2.325,0.352-5.566c0,0,0.423-3.945,0-6.059c-0.423-2.113-2.254-7.891-5.918-11.765
				c-3.663-3.875-9.159-5.072-11.483-2.254c0,0-2.114-1.55-4.086-1.409c-1.973,0.141-3.593,1.268-4.016,1.832
				c-0.423,0.564-4.297-0.775-5.918,7.89c-1.62,8.665,0.705,6.975,0.141,12.117c0,0-0.141,4.368,0.986,5.143
				c0,0-1.62,4.509,6.834,14.935v4.931c0,0-1.339-0.775-2.959,0.423c0,0-6.552,0.775-8.947,0.564
				c-2.395-0.211-5.636,0.634-6.622,1.973c-0.986,1.339-1.973,2.818-3.029,5.495c0,0-0.423,0.986-1.479,2.607
				c-1.057,1.62-2.959,6.129-3.875,8.102c-0.916,1.973-2.959,7.679-2.959,7.679s-1.973,0.282-2.536,1.55
				c-0.564,1.268-0.846,1.973-1.62,4.438c-0.775,2.466-2.254,4.65-2.818,6.341c-0.564,1.691-1.127,3.311-1.902,4.791
				c-0.775,1.479-2.114,4.861-1.691,7.186c0.423,2.325,1.057,3.1,1.268,4.438c0.211,1.339,2.466,4.157,4.65,4.368
				c2.184,0.211,6.2,1.339,8.384,2.818l-0.704,2.889l0.564,0.211c0,0-3.382,16.063-3.311,22.896c0,0,2.818,1.479,7.679,2.395
				c0,0,1.268,1.409,0.916,2.818c0,0-1.62,1.057-2.043,2.959c-0.423,1.902-0.07,3.241-0.493,4.72
				c-0.423,1.479-0.493,1.55-0.845,3.029c-0.352,1.479-0.423,2.748-0.423,2.748s-2.113,0.916-2.466,2.677
				c-0.352,1.761,0.845,2.536,0.564,3.029c-0.282,0.493-1.832,2.536-1.973,4.297c-0.141,1.761-0.07,4.72-0.564,6.2
				c-0.493,1.479-1.339,5.354-1.339,5.354h62.912c0,0,0.916-10.427,1.479-12.611c0.564-2.184,0.423-2.113,1.057-4.72
				c0.634-2.607,1.268-5.636,0.704-7.961c-0.564-2.325-1.198-6.693-1.198-6.693l-0.282-1.409c0,0,0.071-5.002-0.07-7.397
				s-1.057-5.566-1.339-7.538c-0.282-1.973-0.211-2.959-0.211-4.65c0-1.691-0.493-5.425-1.268-7.045
				c-0.775-1.62-2.466-3.875-2.818-5.636c-0.352-1.761-0.564-2.818-0.564-4.65s-0.141-3.029,0.986-4.72
				c1.127-1.691,4.72-7.397,6.27-11.272c1.55-3.875,3.1-9.088,3.382-11.272c0.282-2.184,0.493-5.565,0.704-7.538
				c0.211-1.973,0.352-3.804,1.057-5.777s1.691-5.354,0.634-7.256c-1.057-1.902-2.677-4.368-5.566-5.213
				c0,0-3.029-0.705-4.791-1.268c-1.761-0.564-3.1-1.127-3.945-1.691c-0.845-0.564-1.127-1.127-2.536-1.339
				C94.619,49.865,93.633,49.372,93.21,48.808z"/>
			<g>
				<defs>
					<path id="SVGID_3_" d="M70.596,48.527c0,0-1.339-0.775-2.959,0.423c-2.254,2.888-4.791,4.438-6.763,5.284
						c-1.973,0.845-3.875,3.029-4.791,3.875c-0.916,0.846-1.409,1.198-1.409,1.198c2.254,0.423,5.284-1.339,6.27-1.902
						c0.986-0.564,1.339,1.479,1.973,3.17c0.634,1.691,2.254,4.65,2.254,4.65s-4.157,13.315-4.931,15.288
						c-0.775,1.973-1.409,3.1-1.55,5.143c-0.141,2.043,1.691,6.693,1.691,6.693l1.409,0.141v-6.411
						C65.946,75.368,77.57,59.376,77.57,59.376c2.818,2.959,9.793,6.2,9.793,6.2c0.493-2.184,2.325-8.454,3.452-10.92
						c1.127-2.466,2.395-5.847,2.395-5.847c-0.892-1.189-4.791-7.221-4.791-7.221c-0.986,2.184-10.92,15.746-11.624,16.661
						c-0.705,0.916-2.114,1.198-3.523,1.339c-1.409,0.141-3.663,5.284-3.663,5.284c0.07-2.184-1.127-7.327-1.127-7.327l2.748-5.284
						C70.877,51.274,70.596,48.527,70.596,48.527"/>
				</defs>
				<clipPath id="SVGID_4_">
					<use xlink:href="#SVGID_3_"  overflow="visible"/>
				</clipPath>
				<g clip-path="url(#SVGID_4_)">
					<circle fill="#FFB900" cx="42.343" cy="34.319" r="0.925"/>
					<circle fill="#FFB900" cx="44.787" cy="31.875" r="0.925"/>
					<circle fill="#FFB900" cx="47.231" cy="34.319" r="0.925"/>
					<circle fill="#FFB900" cx="49.675" cy="31.875" r="0.925"/>
					<circle fill="#FFB900" cx="52.119" cy="34.319" r="0.925"/>
					<circle fill="#FFB900" cx="54.563" cy="31.875" r="0.925"/>
					<circle fill="#FFB900" cx="57.007" cy="34.319" r="0.925"/>
					<circle fill="#FFB900" cx="59.451" cy="31.875" r="0.925"/>
					<circle fill="#FFB900" cx="61.895" cy="34.319" r="0.925"/>
					<circle fill="#FFB900" cx="64.338" cy="31.875" r="0.925"/>
					<circle fill="#FFB900" cx="66.782" cy="34.319" r="0.925"/>
					<circle fill="#FFB900" cx="69.226" cy="31.875" r="0.925"/>
					<circle fill="#FFB900" cx="71.67" cy="34.319" r="0.925"/>
					<circle fill="#FFB900" cx="74.114" cy="31.875" r="0.925"/>
					<circle fill="#FFB900" cx="76.558" cy="34.319" r="0.925"/>
					<circle fill="#FFB900" cx="79.002" cy="31.875" r="0.925"/>
					<circle fill="#FFB900" cx="81.446" cy="34.319" r="0.925"/>
					<circle fill="#FFB900" cx="83.89" cy="31.875" r="0.925"/>
					<circle fill="#FFB900" cx="86.334" cy="34.319" r="0.925"/>
					<circle fill="#FFB900" cx="88.778" cy="31.875" r="0.925"/>
					<circle fill="#FFB900" cx="91.222" cy="34.319" r="0.925"/>
					<circle fill="#FFB900" cx="93.666" cy="31.875" r="0.925"/>
					<circle fill="#FFB900" cx="96.11" cy="34.319" r="0.925"/>
					<circle fill="#FFB900" cx="98.554" cy="31.875" r="0.925"/>
					<circle fill="#FFB900" cx="100.998" cy="34.319" r="0.925"/>
					<circle fill="#FFB900" cx="103.442" cy="31.875" r="0.925"/>
					<circle fill="#FFB900" cx="105.886" cy="34.319" r="0.925"/>
					<circle fill="#FFB900" cx="108.33" cy="31.875" r="0.925"/>
					<circle fill="#FFB900" cx="37.455" cy="34.319" r="0.925"/>
					<circle fill="#FFB900" cx="39.899" cy="31.875" r="0.925"/>
					<circle fill="#FFB900" cx="42.343" cy="39.207" r="0.925"/>
					<circle fill="#FFB900" cx="44.787" cy="36.763" r="0.925"/>
					<circle fill="#FFB900" cx="47.231" cy="39.207" r="0.925"/>
					<circle fill="#FFB900" cx="49.675" cy="36.763" r="0.925"/>
					<circle fill="#FFB900" cx="52.119" cy="39.207" r="0.925"/>
					<circle fill="#FFB900" cx="54.563" cy="36.763" r="0.925"/>
					<circle fill="#FFB900" cx="57.007" cy="39.207" r="0.925"/>
					<circle fill="#FFB900" cx="59.451" cy="36.763" r="0.925"/>
					<circle fill="#FFB900" cx="61.895" cy="39.207" r="0.925"/>
					<circle fill="#FFB900" cx="64.338" cy="36.763" r="0.925"/>
					<circle fill="#FFB900" cx="66.782" cy="39.207" r="0.925"/>
					<circle fill="#FFB900" cx="69.226" cy="36.763" r="0.925"/>
					<circle fill="#FFB900" cx="71.67" cy="39.207" r="0.925"/>
					<circle fill="#FFB900" cx="74.114" cy="36.763" r="0.925"/>
					<circle fill="#FFB900" cx="76.558" cy="39.207" r="0.925"/>
					<circle fill="#FFB900" cx="79.002" cy="36.763" r="0.925"/>
					<circle fill="#FFB900" cx="81.446" cy="39.207" r="0.925"/>
					<circle fill="#FFB900" cx="83.89" cy="36.763" r="0.925"/>
					<circle fill="#FFB900" cx="86.334" cy="39.207" r="0.925"/>
					<circle fill="#FFB900" cx="88.778" cy="36.763" r="0.925"/>
					<circle fill="#FFB900" cx="91.222" cy="39.207" r="0.925"/>
					<circle fill="#FFB900" cx="93.666" cy="36.763" r="0.925"/>
					<circle fill="#FFB900" cx="96.11" cy="39.207" r="0.925"/>
					<circle fill="#FFB900" cx="98.554" cy="36.763" r="0.925"/>
					<circle fill="#FFB900" cx="100.998" cy="39.207" r="0.925"/>
					<circle fill="#FFB900" cx="103.442" cy="36.763" r="0.925"/>
					<circle fill="#FFB900" cx="105.886" cy="39.207" r="0.925"/>
					<circle fill="#FFB900" cx="108.33" cy="36.763" r="0.925"/>
					<circle fill="#FFB900" cx="37.455" cy="39.207" r="0.925"/>
					<circle fill="#FFB900" cx="39.899" cy="36.763" r="0.925"/>
					<circle fill="#FFB900" cx="42.343" cy="44.095" r="0.925"/>
					<circle fill="#FFB900" cx="44.787" cy="41.651" r="0.925"/>
					<circle fill="#FFB900" cx="47.231" cy="44.095" r="0.925"/>
					<circle fill="#FFB900" cx="49.675" cy="41.651" r="0.925"/>
					<circle fill="#FFB900" cx="52.119" cy="44.095" r="0.925"/>
					<circle fill="#FFB900" cx="54.563" cy="41.651" r="0.925"/>
					<circle fill="#FFB900" cx="57.007" cy="44.095" r="0.925"/>
					<circle fill="#FFB900" cx="59.451" cy="41.651" r="0.925"/>
					<circle fill="#FFB900" cx="61.895" cy="44.095" r="0.925"/>
					<circle fill="#FFB900" cx="64.338" cy="41.651" r="0.925"/>
					<circle fill="#FFB900" cx="66.782" cy="44.095" r="0.925"/>
					<circle fill="#FFB900" cx="69.226" cy="41.651" r="0.925"/>
					<circle fill="#FFB900" cx="71.67" cy="44.095" r="0.925"/>
					<circle fill="#FFB900" cx="74.114" cy="41.651" r="0.925"/>
					<circle fill="#FFB900" cx="76.558" cy="44.095" r="0.925"/>
					<circle fill="#FFB900" cx="79.002" cy="41.651" r="0.925"/>
					<circle fill="#FFB900" cx="81.446" cy="44.095" r="0.925"/>
					<circle fill="#FFB900" cx="83.89" cy="41.651" r="0.925"/>
					<circle fill="#FFB900" cx="86.334" cy="44.095" r="0.925"/>
					<circle fill="#FFB900" cx="88.778" cy="41.651" r="0.925"/>
					<circle fill="#FFB900" cx="91.222" cy="44.095" r="0.925"/>
					<circle fill="#FFB900" cx="93.666" cy="41.651" r="0.925"/>
					<circle fill="#FFB900" cx="96.11" cy="44.095" r="0.925"/>
					<circle fill="#FFB900" cx="98.554" cy="41.651" r="0.925"/>
					<circle fill="#FFB900" cx="100.998" cy="44.095" r="0.925"/>
					<circle fill="#FFB900" cx="103.442" cy="41.651" r="0.925"/>
					<circle fill="#FFB900" cx="105.886" cy="44.095" r="0.925"/>
					<circle fill="#FFB900" cx="108.33" cy="41.651" r="0.925"/>
					<circle fill="#FFB900" cx="37.455" cy="44.095" r="0.925"/>
					<circle fill="#FFB900" cx="39.899" cy="41.651" r="0.925"/>
					<circle fill="#FFB900" cx="42.343" cy="48.983" r="0.925"/>
					<circle fill="#FFB900" cx="44.787" cy="46.539" r="0.925"/>
					<circle fill="#FFB900" cx="47.231" cy="48.983" r="0.925"/>
					<circle fill="#FFB900" cx="49.675" cy="46.539" r="0.925"/>
					<circle fill="#FFB900" cx="52.119" cy="48.983" r="0.925"/>
					<circle fill="#FFB900" cx="54.563" cy="46.539" r="0.925"/>
					<circle fill="#FFB900" cx="57.007" cy="48.983" r="0.925"/>
					<circle fill="#FFB900" cx="59.451" cy="46.539" r="0.925"/>
					<circle fill="#FFB900" cx="61.895" cy="48.983" r="0.925"/>
					<circle fill="#FFB900" cx="64.338" cy="46.539" r="0.925"/>
					<circle fill="#FFB900" cx="66.782" cy="48.983" r="0.925"/>
					<circle fill="#FFB900" cx="69.226" cy="46.539" r="0.925"/>
					<circle fill="#FFB900" cx="71.67" cy="48.983" r="0.925"/>
					<circle fill="#FFB900" cx="74.114" cy="46.539" r="0.925"/>
					<circle fill="#FFB900" cx="76.558" cy="48.983" r="0.925"/>
					<circle fill="#FFB900" cx="79.002" cy="46.539" r="0.925"/>
					<circle fill="#FFB900" cx="81.446" cy="48.983" r="0.925"/>
					<circle fill="#FFB900" cx="83.89" cy="46.539" r="0.925"/>
					<circle fill="#FFB900" cx="86.334" cy="48.983" r="0.925"/>
					<circle fill="#FFB900" cx="88.778" cy="46.539" r="0.925"/>
					<circle fill="#FFB900" cx="91.222" cy="48.983" r="0.925"/>
					<circle fill="#FFB900" cx="93.666" cy="46.539" r="0.925"/>
					<circle fill="#FFB900" cx="96.11" cy="48.983" r="0.925"/>
					<circle fill="#FFB900" cx="98.554" cy="46.539" r="0.925"/>
					<circle fill="#FFB900" cx="100.998" cy="48.983" r="0.925"/>
					<circle fill="#FFB900" cx="103.442" cy="46.539" r="0.925"/>
					<circle fill="#FFB900" cx="105.886" cy="48.983" r="0.925"/>
					<circle fill="#FFB900" cx="108.33" cy="46.539" r="0.925"/>
					<circle fill="#FFB900" cx="37.455" cy="48.983" r="0.925"/>
					<circle fill="#FFB900" cx="39.899" cy="46.539" r="0.925"/>
					<circle fill="#FFB900" cx="42.343" cy="53.871" r="0.925"/>
					<circle fill="#FFB900" cx="44.787" cy="51.427" r="0.925"/>
					<circle fill="#FFB900" cx="47.231" cy="53.871" r="0.925"/>
					<circle fill="#FFB900" cx="49.675" cy="51.427" r="0.925"/>
					<circle fill="#FFB900" cx="52.119" cy="53.871" r="0.925"/>
					<circle fill="#FFB900" cx="54.563" cy="51.427" r="0.925"/>
					<circle fill="#FFB900" cx="57.007" cy="53.871" r="0.925"/>
					<circle fill="#FFB900" cx="59.451" cy="51.427" r="0.925"/>
					<circle fill="#FFB900" cx="61.895" cy="53.871" r="0.925"/>
					<circle fill="#FFB900" cx="64.338" cy="51.427" r="0.925"/>
					<circle fill="#FFB900" cx="66.782" cy="53.871" r="0.925"/>
					<circle fill="#FFB900" cx="69.226" cy="51.427" r="0.925"/>
					<circle fill="#FFB900" cx="71.67" cy="53.871" r="0.925"/>
					<circle fill="#FFB900" cx="74.114" cy="51.427" r="0.925"/>
					<circle fill="#FFB900" cx="76.558" cy="53.871" r="0.925"/>
					<circle fill="#FFB900" cx="79.002" cy="51.427" r="0.925"/>
					<circle fill="#FFB900" cx="81.446" cy="53.871" r="0.925"/>
					<circle fill="#FFB900" cx="83.89" cy="51.427" r="0.925"/>
					<circle fill="#FFB900" cx="86.334" cy="53.871" r="0.925"/>
					<circle fill="#FFB900" cx="88.778" cy="51.427" r="0.925"/>
					<circle fill="#FFB900" cx="91.222" cy="53.871" r="0.925"/>
					<circle fill="#FFB900" cx="93.666" cy="51.427" r="0.925"/>
					<circle fill="#FFB900" cx="96.11" cy="53.871" r="0.925"/>
					<circle fill="#FFB900" cx="98.554" cy="51.427" r="0.925"/>
					<circle fill="#FFB900" cx="100.998" cy="53.871" r="0.925"/>
					<circle fill="#FFB900" cx="103.442" cy="51.427" r="0.925"/>
					<circle fill="#FFB900" cx="105.886" cy="53.871" r="0.925"/>
					<circle fill="#FFB900" cx="108.33" cy="51.427" r="0.925"/>
					<circle fill="#FFB900" cx="37.455" cy="53.871" r="0.925"/>
					<circle fill="#FFB900" cx="39.899" cy="51.427" r="0.925"/>
					<circle fill="#FFB900" cx="42.343" cy="58.759" r="0.925"/>
					<circle fill="#FFB900" cx="44.787" cy="56.315" r="0.925"/>
					<circle fill="#FFB900" cx="47.231" cy="58.759" r="0.925"/>
					<circle fill="#FFB900" cx="49.675" cy="56.315" r="0.925"/>
					<circle fill="#FFB900" cx="52.119" cy="58.759" r="0.925"/>
					<circle fill="#FFB900" cx="54.563" cy="56.315" r="0.925"/>
					<circle fill="#FFB900" cx="57.007" cy="58.759" r="0.925"/>
					<circle fill="#FFB900" cx="59.451" cy="56.315" r="0.925"/>
					<circle fill="#FFB900" cx="61.895" cy="58.759" r="0.925"/>
					<circle fill="#FFB900" cx="64.338" cy="56.315" r="0.925"/>
					<circle fill="#FFB900" cx="66.782" cy="58.759" r="0.925"/>
					<circle fill="#FFB900" cx="69.226" cy="56.315" r="0.925"/>
					<circle fill="#FFB900" cx="71.67" cy="58.759" r="0.925"/>
					<circle fill="#FFB900" cx="74.114" cy="56.315" r="0.925"/>
					<circle fill="#FFB900" cx="76.558" cy="58.759" r="0.925"/>
					<circle fill="#FFB900" cx="79.002" cy="56.315" r="0.925"/>
					<circle fill="#FFB900" cx="81.446" cy="58.759" r="0.925"/>
					<circle fill="#FFB900" cx="83.89" cy="56.315" r="0.925"/>
					<circle fill="#FFB900" cx="86.334" cy="58.759" r="0.925"/>
					<circle fill="#FFB900" cx="88.778" cy="56.315" r="0.925"/>
					<circle fill="#FFB900" cx="91.222" cy="58.759" r="0.925"/>
					<circle fill="#FFB900" cx="93.666" cy="56.315" r="0.925"/>
					<circle fill="#FFB900" cx="96.11" cy="58.759" r="0.925"/>
					<circle fill="#FFB900" cx="98.554" cy="56.315" r="0.925"/>
					<circle fill="#FFB900" cx="100.998" cy="58.759" r="0.925"/>
					<circle fill="#FFB900" cx="103.442" cy="56.315" r="0.925"/>
					<circle fill="#FFB900" cx="105.886" cy="58.759" r="0.925"/>
					<circle fill="#FFB900" cx="108.33" cy="56.315" r="0.925"/>
					<circle fill="#FFB900" cx="37.455" cy="58.759" r="0.925"/>
					<circle fill="#FFB900" cx="39.899" cy="56.315" r="0.925"/>
					<circle fill="#FFB900" cx="42.343" cy="63.647" r="0.925"/>
					<circle fill="#FFB900" cx="44.787" cy="61.203" r="0.925"/>
					<circle fill="#FFB900" cx="47.231" cy="63.647" r="0.925"/>
					<circle fill="#FFB900" cx="49.675" cy="61.203" r="0.925"/>
					<circle fill="#FFB900" cx="52.119" cy="63.647" r="0.925"/>
					<circle fill="#FFB900" cx="54.563" cy="61.203" r="0.925"/>
					<circle fill="#FFB900" cx="57.007" cy="63.647" r="0.925"/>
					<circle fill="#FFB900" cx="59.451" cy="61.203" r="0.925"/>
					<circle fill="#FFB900" cx="61.895" cy="63.647" r="0.925"/>
					<circle fill="#FFB900" cx="64.338" cy="61.203" r="0.925"/>
					<circle fill="#FFB900" cx="66.782" cy="63.647" r="0.925"/>
					<circle fill="#FFB900" cx="69.226" cy="61.203" r="0.925"/>
					<circle fill="#FFB900" cx="71.67" cy="63.647" r="0.925"/>
					<circle fill="#FFB900" cx="74.114" cy="61.203" r="0.925"/>
					<circle fill="#FFB900" cx="76.558" cy="63.647" r="0.925"/>
					<circle fill="#FFB900" cx="79.002" cy="61.203" r="0.925"/>
					<circle fill="#FFB900" cx="81.446" cy="63.647" r="0.925"/>
					<circle fill="#FFB900" cx="83.89" cy="61.203" r="0.925"/>
					<circle fill="#FFB900" cx="86.334" cy="63.647" r="0.925"/>
					<circle fill="#FFB900" cx="88.778" cy="61.203" r="0.925"/>
					<circle fill="#FFB900" cx="91.222" cy="63.647" r="0.925"/>
					<circle fill="#FFB900" cx="93.666" cy="61.203" r="0.925"/>
					<circle fill="#FFB900" cx="96.11" cy="63.647" r="0.925"/>
					<circle fill="#FFB900" cx="98.554" cy="61.203" r="0.925"/>
					<circle fill="#FFB900" cx="100.998" cy="63.647" r="0.925"/>
					<circle fill="#FFB900" cx="103.442" cy="61.203" r="0.925"/>
					<circle fill="#FFB900" cx="105.886" cy="63.647" r="0.925"/>
					<circle fill="#FFB900" cx="108.33" cy="61.203" r="0.925"/>
					<circle fill="#FFB900" cx="37.455" cy="63.647" r="0.925"/>
					<circle fill="#FFB900" cx="39.899" cy="61.203" r="0.925"/>
					<circle fill="#FFB900" cx="42.343" cy="68.535" r="0.925"/>
					<circle fill="#FFB900" cx="44.787" cy="66.091" r="0.925"/>
					<circle fill="#FFB900" cx="47.231" cy="68.535" r="0.925"/>
					<circle fill="#FFB900" cx="49.675" cy="66.091" r="0.925"/>
					<circle fill="#FFB900" cx="52.119" cy="68.535" r="0.925"/>
					<circle fill="#FFB900" cx="54.563" cy="66.091" r="0.925"/>
					<circle fill="#FFB900" cx="57.007" cy="68.535" r="0.925"/>
					<circle fill="#FFB900" cx="59.451" cy="66.091" r="0.925"/>
					<circle fill="#FFB900" cx="61.895" cy="68.535" r="0.925"/>
					<circle fill="#FFB900" cx="64.338" cy="66.091" r="0.925"/>
					<circle fill="#FFB900" cx="66.782" cy="68.535" r="0.925"/>
					<circle fill="#FFB900" cx="69.226" cy="66.091" r="0.925"/>
					<circle fill="#FFB900" cx="71.67" cy="68.535" r="0.925"/>
					<circle fill="#FFB900" cx="74.114" cy="66.091" r="0.925"/>
					<circle fill="#FFB900" cx="76.558" cy="68.535" r="0.925"/>
					<circle fill="#FFB900" cx="79.002" cy="66.091" r="0.925"/>
					<circle fill="#FFB900" cx="81.446" cy="68.535" r="0.925"/>
					<circle fill="#FFB900" cx="83.89" cy="66.091" r="0.925"/>
					<circle fill="#FFB900" cx="86.334" cy="68.535" r="0.925"/>
					<circle fill="#FFB900" cx="88.778" cy="66.091" r="0.925"/>
					<circle fill="#FFB900" cx="91.222" cy="68.535" r="0.925"/>
					<circle fill="#FFB900" cx="93.666" cy="66.091" r="0.925"/>
					<circle fill="#FFB900" cx="96.11" cy="68.535" r="0.925"/>
					<circle fill="#FFB900" cx="98.554" cy="66.091" r="0.925"/>
					<circle fill="#FFB900" cx="100.998" cy="68.535" r="0.925"/>
					<circle fill="#FFB900" cx="103.442" cy="66.091" r="0.925"/>
					<circle fill="#FFB900" cx="105.886" cy="68.535" r="0.925"/>
					<circle fill="#FFB900" cx="108.33" cy="66.091" r="0.925"/>
					<circle fill="#FFB900" cx="37.455" cy="68.535" r="0.925"/>
					<circle fill="#FFB900" cx="39.899" cy="66.091" r="0.925"/>
					<circle fill="#FFB900" cx="42.343" cy="73.423" r="0.925"/>
					<circle fill="#FFB900" cx="44.787" cy="70.979" r="0.925"/>
					<circle fill="#FFB900" cx="47.231" cy="73.423" r="0.925"/>
					<circle fill="#FFB900" cx="49.675" cy="70.979" r="0.925"/>
					<circle fill="#FFB900" cx="52.119" cy="73.423" r="0.925"/>
					<circle fill="#FFB900" cx="54.563" cy="70.979" r="0.925"/>
					<circle fill="#FFB900" cx="57.007" cy="73.423" r="0.925"/>
					<circle fill="#FFB900" cx="59.451" cy="70.979" r="0.925"/>
					<circle fill="#FFB900" cx="61.895" cy="73.423" r="0.925"/>
					<circle fill="#FFB900" cx="64.338" cy="70.979" r="0.925"/>
					<circle fill="#FFB900" cx="66.782" cy="73.423" r="0.925"/>
					<circle fill="#FFB900" cx="69.226" cy="70.979" r="0.925"/>
					<circle fill="#FFB900" cx="71.67" cy="73.423" r="0.925"/>
					<circle fill="#FFB900" cx="74.114" cy="70.979" r="0.925"/>
					<circle fill="#FFB900" cx="76.558" cy="73.423" r="0.925"/>
					<circle fill="#FFB900" cx="79.002" cy="70.979" r="0.925"/>
					<circle fill="#FFB900" cx="81.446" cy="73.423" r="0.925"/>
					<circle fill="#FFB900" cx="83.89" cy="70.979" r="0.925"/>
					<circle fill="#FFB900" cx="86.334" cy="73.423" r="0.925"/>
					<circle fill="#FFB900" cx="88.778" cy="70.979" r="0.925"/>
					<circle fill="#FFB900" cx="91.222" cy="73.423" r="0.925"/>
					<circle fill="#FFB900" cx="93.666" cy="70.979" r="0.925"/>
					<circle fill="#FFB900" cx="96.11" cy="73.423" r="0.925"/>
					<circle fill="#FFB900" cx="98.554" cy="70.979" r="0.925"/>
					<circle fill="#FFB900" cx="100.998" cy="73.423" r="0.925"/>
					<circle fill="#FFB900" cx="103.442" cy="70.979" r="0.925"/>
					<circle fill="#FFB900" cx="105.886" cy="73.423" r="0.925"/>
					<circle fill="#FFB900" cx="108.33" cy="70.979" r="0.925"/>
					<circle fill="#FFB900" cx="37.455" cy="73.423" r="0.925"/>
					<circle fill="#FFB900" cx="39.899" cy="70.979" r="0.925"/>
					<circle fill="#FFB900" cx="42.343" cy="78.303" r="0.925"/>
					<circle fill="#FFB900" cx="44.787" cy="75.859" r="0.925"/>
					<circle fill="#FFB900" cx="47.231" cy="78.303" r="0.925"/>
					<circle fill="#FFB900" cx="49.675" cy="75.859" r="0.925"/>
					<circle fill="#FFB900" cx="52.119" cy="78.303" r="0.925"/>
					<circle fill="#FFB900" cx="54.563" cy="75.859" r="0.925"/>
					<circle fill="#FFB900" cx="57.007" cy="78.303" r="0.925"/>
					<circle fill="#FFB900" cx="59.451" cy="75.859" r="0.925"/>
					<circle fill="#FFB900" cx="61.895" cy="78.303" r="0.925"/>
					<circle fill="#FFB900" cx="64.338" cy="75.859" r="0.925"/>
					<circle fill="#FFB900" cx="66.782" cy="78.303" r="0.925"/>
					<circle fill="#FFB900" cx="69.226" cy="75.859" r="0.925"/>
					<circle fill="#FFB900" cx="71.67" cy="78.303" r="0.925"/>
					<circle fill="#FFB900" cx="74.114" cy="75.859" r="0.925"/>
					<circle fill="#FFB900" cx="76.558" cy="78.303" r="0.925"/>
					<circle fill="#FFB900" cx="79.002" cy="75.859" r="0.925"/>
					<circle fill="#FFB900" cx="81.446" cy="78.303" r="0.925"/>
					<circle fill="#FFB900" cx="83.89" cy="75.859" r="0.925"/>
					<circle fill="#FFB900" cx="86.334" cy="78.303" r="0.925"/>
					<circle fill="#FFB900" cx="88.778" cy="75.859" r="0.925"/>
					<circle fill="#FFB900" cx="91.222" cy="78.303" r="0.925"/>
					<circle fill="#FFB900" cx="93.666" cy="75.859" r="0.925"/>
					<circle fill="#FFB900" cx="96.11" cy="78.303" r="0.925"/>
					<circle fill="#FFB900" cx="98.554" cy="75.859" r="0.925"/>
					<circle fill="#FFB900" cx="100.998" cy="78.303" r="0.925"/>
					<circle fill="#FFB900" cx="103.442" cy="75.859" r="0.925"/>
					<circle fill="#FFB900" cx="105.886" cy="78.303" r="0.925"/>
					<circle fill="#FFB900" cx="108.33" cy="75.859" r="0.925"/>
					<circle fill="#FFB900" cx="37.455" cy="78.303" r="0.925"/>
					<circle fill="#FFB900" cx="39.899" cy="75.859" r="0.925"/>
					<circle fill="#FFB900" cx="42.343" cy="83.191" r="0.925"/>
					<circle fill="#FFB900" cx="44.787" cy="80.747" r="0.925"/>
					<circle fill="#FFB900" cx="47.231" cy="83.191" r="0.925"/>
					<circle fill="#FFB900" cx="49.675" cy="80.747" r="0.925"/>
					<circle fill="#FFB900" cx="52.119" cy="83.191" r="0.925"/>
					<circle fill="#FFB900" cx="54.563" cy="80.747" r="0.925"/>
					<circle fill="#FFB900" cx="57.007" cy="83.191" r="0.925"/>
					<circle fill="#FFB900" cx="59.451" cy="80.747" r="0.925"/>
					<circle fill="#FFB900" cx="61.895" cy="83.191" r="0.925"/>
					<circle fill="#FFB900" cx="64.338" cy="80.747" r="0.925"/>
					<circle fill="#FFB900" cx="66.782" cy="83.191" r="0.925"/>
					<circle fill="#FFB900" cx="69.226" cy="80.747" r="0.925"/>
					<circle fill="#FFB900" cx="71.67" cy="83.191" r="0.925"/>
					<circle fill="#FFB900" cx="74.114" cy="80.747" r="0.925"/>
					<circle fill="#FFB900" cx="76.558" cy="83.191" r="0.925"/>
					<circle fill="#FFB900" cx="79.002" cy="80.747" r="0.925"/>
					<circle fill="#FFB900" cx="81.446" cy="83.191" r="0.925"/>
					<circle fill="#FFB900" cx="83.89" cy="80.747" r="0.925"/>
					<circle fill="#FFB900" cx="86.334" cy="83.191" r="0.925"/>
					<circle fill="#FFB900" cx="88.778" cy="80.747" r="0.925"/>
					<circle fill="#FFB900" cx="91.222" cy="83.191" r="0.925"/>
					<circle fill="#FFB900" cx="93.666" cy="80.747" r="0.925"/>
					<circle fill="#FFB900" cx="96.11" cy="83.191" r="0.925"/>
					<circle fill="#FFB900" cx="98.554" cy="80.747" r="0.925"/>
					<circle fill="#FFB900" cx="100.998" cy="83.191" r="0.925"/>
					<circle fill="#FFB900" cx="103.442" cy="80.747" r="0.925"/>
					<circle fill="#FFB900" cx="105.886" cy="83.191" r="0.925"/>
					<circle fill="#FFB900" cx="108.33" cy="80.747" r="0.925"/>
					<circle fill="#FFB900" cx="37.455" cy="83.191" r="0.925"/>
					<circle fill="#FFB900" cx="39.899" cy="80.747" r="0.925"/>
					<circle fill="#FFB900" cx="42.343" cy="88.079" r="0.925"/>
					<circle fill="#FFB900" cx="44.787" cy="85.635" r="0.925"/>
					<circle fill="#FFB900" cx="47.231" cy="88.079" r="0.925"/>
					<circle fill="#FFB900" cx="49.675" cy="85.635" r="0.925"/>
					<circle fill="#FFB900" cx="52.119" cy="88.079" r="0.925"/>
					<circle fill="#FFB900" cx="54.563" cy="85.635" r="0.925"/>
					<circle fill="#FFB900" cx="57.007" cy="88.079" r="0.925"/>
					<circle fill="#FFB900" cx="59.451" cy="85.635" r="0.925"/>
					<circle fill="#FFB900" cx="61.895" cy="88.079" r="0.925"/>
					<circle fill="#FFB900" cx="64.338" cy="85.635" r="0.925"/>
					<circle fill="#FFB900" cx="66.782" cy="88.079" r="0.925"/>
					<circle fill="#FFB900" cx="69.226" cy="85.635" r="0.925"/>
					<circle fill="#FFB900" cx="71.67" cy="88.079" r="0.925"/>
					<circle fill="#FFB900" cx="74.114" cy="85.635" r="0.925"/>
					<circle fill="#FFB900" cx="76.558" cy="88.079" r="0.925"/>
					<circle fill="#FFB900" cx="79.002" cy="85.635" r="0.925"/>
					<circle fill="#FFB900" cx="81.446" cy="88.079" r="0.925"/>
					<circle fill="#FFB900" cx="83.89" cy="85.635" r="0.925"/>
					<circle fill="#FFB900" cx="86.334" cy="88.079" r="0.925"/>
					<circle fill="#FFB900" cx="88.778" cy="85.635" r="0.925"/>
					<circle fill="#FFB900" cx="91.222" cy="88.079" r="0.925"/>
					<circle fill="#FFB900" cx="93.666" cy="85.635" r="0.925"/>
					<circle fill="#FFB900" cx="96.11" cy="88.079" r="0.925"/>
					<circle fill="#FFB900" cx="98.554" cy="85.635" r="0.925"/>
					<circle fill="#FFB900" cx="100.998" cy="88.079" r="0.925"/>
					<circle fill="#FFB900" cx="103.442" cy="85.635" r="0.925"/>
					<circle fill="#FFB900" cx="105.886" cy="88.079" r="0.925"/>
					<circle fill="#FFB900" cx="108.33" cy="85.635" r="0.925"/>
					<circle fill="#FFB900" cx="37.455" cy="88.079" r="0.925"/>
					<circle fill="#FFB900" cx="39.899" cy="85.635" r="0.925"/>
					<circle fill="#FFB900" cx="42.343" cy="92.966" r="0.925"/>
					<circle fill="#FFB900" cx="44.787" cy="90.522" r="0.925"/>
					<circle fill="#FFB900" cx="47.231" cy="92.966" r="0.925"/>
					<circle fill="#FFB900" cx="49.675" cy="90.522" r="0.925"/>
					<circle fill="#FFB900" cx="52.119" cy="92.966" r="0.925"/>
					<circle fill="#FFB900" cx="54.563" cy="90.522" r="0.925"/>
					<circle fill="#FFB900" cx="57.007" cy="92.966" r="0.925"/>
					<circle fill="#FFB900" cx="59.451" cy="90.522" r="0.925"/>
					<circle fill="#FFB900" cx="61.895" cy="92.966" r="0.925"/>
					<circle fill="#FFB900" cx="64.338" cy="90.522" r="0.925"/>
					<circle fill="#FFB900" cx="66.782" cy="92.966" r="0.925"/>
					<circle fill="#FFB900" cx="69.226" cy="90.522" r="0.925"/>
					<circle fill="#FFB900" cx="71.67" cy="92.966" r="0.925"/>
					<circle fill="#FFB900" cx="74.114" cy="90.522" r="0.925"/>
					<circle fill="#FFB900" cx="76.558" cy="92.966" r="0.925"/>
					<circle fill="#FFB900" cx="79.002" cy="90.522" r="0.925"/>
					<circle fill="#FFB900" cx="81.446" cy="92.966" r="0.925"/>
					<circle fill="#FFB900" cx="83.89" cy="90.522" r="0.925"/>
					<circle fill="#FFB900" cx="86.334" cy="92.966" r="0.925"/>
					<circle fill="#FFB900" cx="88.778" cy="90.522" r="0.925"/>
					<circle fill="#FFB900" cx="91.222" cy="92.966" r="0.925"/>
					<circle fill="#FFB900" cx="93.666" cy="90.522" r="0.925"/>
					<circle fill="#FFB900" cx="96.11" cy="92.966" r="0.925"/>
					<circle fill="#FFB900" cx="98.554" cy="90.522" r="0.925"/>
					<circle fill="#FFB900" cx="100.998" cy="92.966" r="0.925"/>
					<circle fill="#FFB900" cx="103.442" cy="90.522" r="0.925"/>
					<circle fill="#FFB900" cx="105.886" cy="92.966" r="0.925"/>
					<circle fill="#FFB900" cx="108.33" cy="90.522" r="0.925"/>
					<circle fill="#FFB900" cx="37.455" cy="92.966" r="0.925"/>
					<circle fill="#FFB900" cx="39.899" cy="90.522" r="0.925"/>
					<circle fill="#FFB900" cx="42.343" cy="97.854" r="0.925"/>
					<circle fill="#FFB900" cx="44.787" cy="95.41" r="0.925"/>
					<circle fill="#FFB900" cx="47.231" cy="97.854" r="0.925"/>
					<circle fill="#FFB900" cx="49.675" cy="95.41" r="0.925"/>
					<circle fill="#FFB900" cx="52.119" cy="97.854" r="0.925"/>
					<circle fill="#FFB900" cx="54.563" cy="95.41" r="0.925"/>
					<circle fill="#FFB900" cx="57.007" cy="97.854" r="0.925"/>
					<circle fill="#FFB900" cx="59.451" cy="95.41" r="0.925"/>
					<circle fill="#FFB900" cx="61.895" cy="97.854" r="0.925"/>
					<circle fill="#FFB900" cx="64.338" cy="95.41" r="0.925"/>
					<circle fill="#FFB900" cx="66.782" cy="97.854" r="0.925"/>
					<circle fill="#FFB900" cx="69.226" cy="95.41" r="0.925"/>
					<circle fill="#FFB900" cx="71.67" cy="97.854" r="0.925"/>
					<circle fill="#FFB900" cx="74.114" cy="95.41" r="0.925"/>
					<circle fill="#FFB900" cx="76.558" cy="97.854" r="0.925"/>
					<circle fill="#FFB900" cx="79.002" cy="95.41" r="0.925"/>
					<circle fill="#FFB900" cx="81.446" cy="97.854" r="0.925"/>
					<circle fill="#FFB900" cx="83.89" cy="95.41" r="0.925"/>
					<circle fill="#FFB900" cx="86.334" cy="97.854" r="0.925"/>
					<circle fill="#FFB900" cx="88.778" cy="95.41" r="0.925"/>
					<circle fill="#FFB900" cx="91.222" cy="97.854" r="0.925"/>
					<circle fill="#FFB900" cx="93.666" cy="95.41" r="0.925"/>
					<circle fill="#FFB900" cx="96.11" cy="97.854" r="0.925"/>
					<circle fill="#FFB900" cx="98.554" cy="95.41" r="0.925"/>
					<circle fill="#FFB900" cx="100.998" cy="97.854" r="0.925"/>
					<circle fill="#FFB900" cx="103.442" cy="95.41" r="0.925"/>
					<circle fill="#FFB900" cx="105.886" cy="97.854" r="0.925"/>
					<circle fill="#FFB900" cx="108.33" cy="95.41" r="0.925"/>
					<circle fill="#FFB900" cx="37.455" cy="97.854" r="0.925"/>
					<circle fill="#FFB900" cx="39.899" cy="95.41" r="0.925"/>
					<circle fill="#FFB900" cx="42.343" cy="102.742" r="0.925"/>
					<circle fill="#FFB900" cx="44.787" cy="100.298" r="0.925"/>
					<circle fill="#FFB900" cx="47.231" cy="102.742" r="0.925"/>
					<circle fill="#FFB900" cx="49.675" cy="100.298" r="0.925"/>
					<circle fill="#FFB900" cx="52.119" cy="102.742" r="0.925"/>
					<circle fill="#FFB900" cx="54.563" cy="100.298" r="0.925"/>
					<circle fill="#FFB900" cx="57.007" cy="102.742" r="0.925"/>
					<circle fill="#FFB900" cx="59.451" cy="100.298" r="0.925"/>
					<circle fill="#FFB900" cx="61.895" cy="102.742" r="0.925"/>
					<circle fill="#FFB900" cx="64.338" cy="100.298" r="0.925"/>
					<circle fill="#FFB900" cx="66.782" cy="102.742" r="0.925"/>
					<circle fill="#FFB900" cx="69.226" cy="100.298" r="0.925"/>
					<circle fill="#FFB900" cx="71.67" cy="102.742" r="0.925"/>
					<circle fill="#FFB900" cx="74.114" cy="100.298" r="0.925"/>
					<circle fill="#FFB900" cx="76.558" cy="102.742" r="0.925"/>
					<circle fill="#FFB900" cx="79.002" cy="100.298" r="0.925"/>
					<circle fill="#FFB900" cx="81.446" cy="102.742" r="0.925"/>
					<circle fill="#FFB900" cx="83.89" cy="100.298" r="0.925"/>
					<circle fill="#FFB900" cx="86.334" cy="102.742" r="0.925"/>
					<circle fill="#FFB900" cx="88.778" cy="100.298" r="0.925"/>
					<circle fill="#FFB900" cx="91.222" cy="102.742" r="0.925"/>
					<circle fill="#FFB900" cx="93.666" cy="100.298" r="0.925"/>
					<circle fill="#FFB900" cx="96.11" cy="102.742" r="0.925"/>
					<circle fill="#FFB900" cx="98.554" cy="100.298" r="0.925"/>
					<circle fill="#FFB900" cx="100.998" cy="102.742" r="0.925"/>
					<circle fill="#FFB900" cx="103.442" cy="100.298" r="0.925"/>
					<circle fill="#FFB900" cx="105.886" cy="102.742" r="0.925"/>
					<circle fill="#FFB900" cx="108.33" cy="100.298" r="0.925"/>
					<circle fill="#FFB900" cx="37.455" cy="102.742" r="0.925"/>
					<circle fill="#FFB900" cx="39.899" cy="100.298" r="0.925"/>
					<circle fill="#FFB900" cx="42.343" cy="107.63" r="0.925"/>
					<circle fill="#FFB900" cx="44.787" cy="105.186" r="0.925"/>
					<circle fill="#FFB900" cx="47.231" cy="107.63" r="0.925"/>
					<circle fill="#FFB900" cx="49.675" cy="105.186" r="0.925"/>
					<circle fill="#FFB900" cx="52.119" cy="107.63" r="0.925"/>
					<circle fill="#FFB900" cx="54.563" cy="105.186" r="0.925"/>
					<circle fill="#FFB900" cx="57.007" cy="107.63" r="0.925"/>
					<circle fill="#FFB900" cx="59.451" cy="105.186" r="0.925"/>
					<circle fill="#FFB900" cx="61.895" cy="107.63" r="0.925"/>
					<circle fill="#FFB900" cx="64.338" cy="105.186" r="0.925"/>
					<circle fill="#FFB900" cx="66.782" cy="107.63" r="0.925"/>
					<circle fill="#FFB900" cx="69.226" cy="105.186" r="0.925"/>
					<circle fill="#FFB900" cx="71.67" cy="107.63" r="0.925"/>
					<circle fill="#FFB900" cx="74.114" cy="105.186" r="0.925"/>
					<circle fill="#FFB900" cx="76.558" cy="107.63" r="0.925"/>
					<circle fill="#FFB900" cx="79.002" cy="105.186" r="0.925"/>
					<circle fill="#FFB900" cx="81.446" cy="107.63" r="0.925"/>
					<circle fill="#FFB900" cx="83.89" cy="105.186" r="0.925"/>
					<circle fill="#FFB900" cx="86.334" cy="107.63" r="0.925"/>
					<circle fill="#FFB900" cx="88.778" cy="105.186" r="0.925"/>
					<circle fill="#FFB900" cx="91.222" cy="107.63" r="0.925"/>
					<circle fill="#FFB900" cx="93.666" cy="105.186" r="0.925"/>
					<circle fill="#FFB900" cx="96.11" cy="107.63" r="0.925"/>
					<circle fill="#FFB900" cx="98.554" cy="105.186" r="0.925"/>
					<circle fill="#FFB900" cx="100.998" cy="107.63" r="0.925"/>
					<circle fill="#FFB900" cx="103.442" cy="105.186" r="0.925"/>
					<circle fill="#FFB900" cx="105.886" cy="107.63" r="0.925"/>
					<circle fill="#FFB900" cx="108.33" cy="105.186" r="0.925"/>
					<circle fill="#FFB900" cx="37.455" cy="107.63" r="0.925"/>
					<circle fill="#FFB900" cx="39.899" cy="105.186" r="0.925"/>
				</g>
			</g>
			<g>
				<path fill="none" stroke="#231F20" stroke-linecap="round" stroke-linejoin="round" d="M93.21,48.808
					c-0.892-1.189-4.791-7.327-4.791-7.327v-5.284c0,0,0.634-1.057,0.916-2.748c0,0,4.227-0.141,4.368-4.72
					c0,0,1.55-2.325,0.352-5.566c0,0,0.423-3.945,0-6.059c-0.423-2.113-2.254-7.891-5.918-11.765
					c-3.663-3.875-9.159-5.072-11.483-2.254c0,0-2.114-1.55-4.086-1.409c-1.973,0.141-3.593,1.268-4.016,1.832
					c-0.423,0.564-4.297-0.775-5.918,7.89c-1.62,8.665,0.705,6.975,0.141,12.117c0,0-0.141,4.368,0.986,5.143
					c0,0-1.62,4.509,6.834,14.935v4.931c0,0-1.339-0.775-2.959,0.423c0,0-6.552,0.775-8.947,0.564
					c-2.395-0.211-5.636,0.634-6.622,1.973c-0.986,1.339-1.973,2.818-3.029,5.495c0,0-0.423,0.986-1.479,2.607
					c-1.057,1.62-2.959,6.129-3.875,8.102c-0.916,1.973-2.959,7.679-2.959,7.679s-1.973,0.282-2.536,1.55
					c-0.564,1.268-0.846,1.973-1.62,4.438c-0.775,2.466-2.254,4.65-2.818,6.341c-0.564,1.691-1.127,3.311-1.902,4.791
					c-0.775,1.479-2.114,4.861-1.691,7.186c0.423,2.325,1.057,3.1,1.268,4.438c0.211,1.339,2.466,4.157,4.65,4.368
					c2.184,0.211,6.2,1.339,8.384,2.818l-0.704,2.889l0.564,0.211c0,0-3.382,16.063-3.311,22.896c0,0,2.818,1.479,7.679,2.395
					c0,0,1.268,1.409,0.916,2.818c0,0-1.62,1.057-2.043,2.959c-0.423,1.902-0.07,3.241-0.493,4.72
					c-0.423,1.479-0.493,1.55-0.845,3.029c-0.352,1.479-0.423,2.748-0.423,2.748s-2.113,0.916-2.466,2.677
					c-0.352,1.761,0.845,2.536,0.564,3.029c-0.282,0.493-1.832,2.536-1.973,4.297c-0.141,1.761-0.07,4.72-0.564,6.2
					c-0.493,1.479-1.339,5.354-1.339,5.354h62.912c0,0,0.916-10.427,1.479-12.611c0.564-2.184,0.423-2.113,1.057-4.72
					c0.634-2.607,1.268-5.636,0.704-7.961c-0.564-2.325-1.198-6.693-1.198-6.693l-0.282-1.409c0,0,0.071-5.002-0.07-7.397
					s-1.057-5.566-1.339-7.538c-0.282-1.973-0.211-2.959-0.211-4.65c0-1.691-0.493-5.425-1.268-7.045
					c-0.775-1.62-2.466-3.875-2.818-5.636c-0.352-1.761-0.564-2.818-0.564-4.65s-0.141-3.029,0.986-4.72
					c1.127-1.691,4.72-7.397,6.27-11.272c1.55-3.875,3.1-9.088,3.382-11.272c0.282-2.184,0.493-5.565,0.704-7.538
					c0.211-1.973,0.352-3.804,1.057-5.777s1.691-5.354,0.634-7.256c-1.057-1.902-2.677-4.368-5.566-5.213
					c0,0-3.029-0.705-4.791-1.268c-1.761-0.564-3.1-1.127-3.945-1.691c-0.845-0.564-1.127-1.127-2.536-1.339
					C94.619,49.865,93.633,49.372,93.21,48.808z"/>
				<path fill="none" stroke="#231F20" stroke-width="0.5" stroke-linecap="round" d="M93.827,23.076c0,0-1.163-0.423-1.691,0.476
					c-0.528,0.898-0.264,0.845-0.74,1.427c-0.476,0.581-1.321,1.902-1.321,1.902s0.159-1.163-0.423-2.166
					c-0.581-1.004-0.951-1.427-1.004-2.061c-0.053-0.634-0.106-2.483-0.687-3.276c-0.581-0.793-1.374-1.585-1.744-2.959
					c-0.37-1.374-0.211-3.012-1.215-4.121c-1.004-1.109-1.374-1.268-3.065-2.483c-1.691-1.215-3.117-2.8-5.125-3.17
					c-2.008-0.37-3.117,0.37-4.385,0.476c-1.268,0.106-2.008,0.159-3.223,1.427s-2.272,2.853-2.906,3.751
					c-0.634,0.898-1.004,0.74-1.215,1.691c-0.211,0.951-0.581,3.382-0.687,4.861l-0.211,1.744l0.053,1.427h-1.268"/>
				<path fill="none" stroke="#231F20" stroke-width="0.5" stroke-linecap="round" d="M70.789,43.525c0,0,1.638,1.955,4.597,1.955
					s7.503-0.581,10.726-6.023"/>
				<path fill="#231F20" d="M91.238,22.442l-3.593,0.159l-0.951,0.74c-2.272,2.325-5.865,2.114-8.56,2.061
					c-2.695-0.053-2.959-2.589-2.959-2.589l-1.691,0.106c0,2.589-2.536,3.223-6.393,3.435c-3.857,0.211-3.91-1.374-3.91-1.374
					c-0.159-1.268-0.053-2.536-0.053-2.536c1.955-0.951,4.069-1.215,6.499-1.268c2.431-0.053,3.487,0.898,3.487,0.898l2.061-0.106
					c0,0,1.427-1.638,6.499-1.638c5.072,0,4.755,0.951,4.755,0.951l3.857-0.053L91.238,22.442z M75.763,22.748
					c0.024,0.207,0.294,2.021,2.382,2.062l0.432,0.009c1.591,0.036,3.426,0.077,5.061-0.39c0,0,0.942-0.454,0.942-1.035
					c0,0,0.14-1.496-0.155-2.109c-0.15-0.204-0.591-0.447-1.8-0.533c-1.879-0.134-4.893,0.186-6.351,0.961
					C76.274,21.712,75.612,22.076,75.763,22.748z M72.121,22.017c-1.56-0.541-4.588-0.394-6.423,0.027
					c-1.182,0.271-1.579,0.579-1.697,0.804c-0.197,0.65,0.171,2.108,0.171,2.108c0.089,0.574,1.09,0.878,1.09,0.878
					c1.687,0.21,3.493-0.113,5.061-0.393l0.425-0.076c2.057-0.361,2.045-2.196,2.037-2.404
					C72.831,22.274,72.121,22.017,72.121,22.017z"/>
				<path fill="none" stroke="#231F20" stroke-width="0.5" d="M70.596,48.527c0,0,0.282,2.748,0.634,3.734l-2.748,5.284
					c0,0,1.198,5.143,1.127,7.327c0,0,2.254-5.143,3.663-5.284c1.409-0.141,2.818-0.423,3.523-1.339
					C77.5,57.333,87.433,43.877,88.42,41.693"/>
				<path fill="none" stroke="#231F20" stroke-width="0.5" d="M93.21,48.808c0,0-1.268,3.382-2.395,5.847
					c-1.127,2.466-2.959,8.736-3.452,10.92c0,0-6.975-3.241-9.793-6.2c0,0-11.624,15.992-15.781,26.701v6.411l-1.409-0.141
					c0,0-1.832-4.65-1.691-6.693c0.141-2.043,0.775-3.17,1.55-5.143c0.775-1.973,4.931-15.288,4.931-15.288s-1.62-2.959-2.254-4.65
					c-0.634-1.691-0.986-3.734-1.973-3.17c-0.986,0.564-4.016,2.325-6.27,1.902c0,0,0.493-0.352,1.409-1.198
					c0.916-0.845,2.818-3.029,4.791-3.875c1.973-0.845,4.509-2.395,6.763-5.284"/>
				<path fill="none" stroke="#231F20" stroke-width="0.5" d="M84.791,64.343c0,0-14.372,15.112-19.656,23.143l-1.585,5.389"/>
				<path fill="none" stroke="#231F20" stroke-width="0.5" d="M58.161,58.953c0,0-1.479,11.096-2.113,15.323
					c-0.634,4.227-1.057,14.055-0.317,17.014"/>
				<path fill="none" stroke="#231F20" stroke-width="0.5" d="M98.318,105.556c0,0-4.227,4.861-6.975,6.763
					c-2.748,1.902-3.699,3.487-5.284,3.487c-1.585,0-5.389-1.268-7.926-1.268c-2.536,0-3.17,0.845-5.284,0.211
					c-2.113-0.634-4.967-1.797-7.82-2.114c-2.853-0.317-9.616-1.057-9.616-1.057s-2.536-10.25-2.113-12.998
					c0.423-2.747,1.691-7.503,4.016-6.763c2.325,0.74,4.755,0.74,6.763,1.374c2.008,0.634,3.065,0.845,4.755,1.374
					c1.691,0.528,4.438,1.057,5.495,1.479c1.057,0.423,1.796,0.317,2.536,0.74c0.74,0.423,1.744,0.687,2.431,0.475
					c0.687-0.211,0.898-0.528,1.585-0.264s4.967,1.955,5.918,1.11c0,0,1.162,0.898,2.747,0.898c1.585,0,2.431-0.951,0.793-2.114
					c0,0-2.272-1.691-3.487-3.012c0,0,3.329,2.906,4.597,2.906c1.268,0,2.008-0.528,2.008-1.532c0-1.004-4.069-3.963-4.069-3.963
					s2.272,0.37,2.853-0.264c0.581-0.634-0.106-1.902-1.796-3.064c-1.691-1.163-3.54-2.695-4.597-2.589
					c-1.057,0.106-1.479,0.528-2.061,1.374c-0.581,0.845-1.479,2.642-2.166,2.959c-0.687,0.317-2.483-0.106-3.699,1.479
					c-1.215,1.585-3.065,3.593-3.593,4.861"/>
				<path fill="none" stroke="#231F20" stroke-width="0.5" d="M79.243,93.773c0,0,2.114-0.053,2.747,0.264
					c0.634,0.317,1.744,1.215,2.748,1.902c1.004,0.687,2.695,1.479,2.061,2.166"/>
				<path fill="none" stroke="#231F20" stroke-width="0.5" d="M86.852,93.879c0,0-1.479-1.162-2.378-2.272"/>
				<path fill="none" stroke="#231F20" stroke-width="0.5" d="M85.531,88.543c0,0,2.959,2.008,3.857,2.747"/>
				<path fill="none" stroke="#231F20" stroke-width="0.5" d="M56.312,91.766l-3.54-1.532c0,0-1.638-0.74-2.483,1.162
					c-0.845,1.902-2.378,9.669-1.797,11.36c0.581,1.691,2.853,1.215,3.593,1.585c0.74,0.37,1.268,0.581,1.849,0.634"/>
				<path fill="none" stroke="#231F20" stroke-width="0.5" d="M48.65,98.053c0,0-0.581,0.106-2.008-1.268
					c-1.427-1.374-1.955-2.642-3.329-2.8c0,0-0.581-1.321-0.528-2.219c0.053-0.898,0.106-2.589,0.37-3.646
					c0.264-1.057,0.423-1.215,0.898-2.272c0.476-1.057,0.951-1.902,1.691-2.589c0.74-0.687,1.321-1.162,2.589-0.37
					c1.268,0.793,3.382,2.536,3.857,7.133"/>
				<path fill="none" stroke="#231F20" stroke-width="0.5" d="M46.907,82.413c0,0-1.004-4.121-0.317-7.609
					c0.687-3.487,2.642-13.104,2.431-16.116"/>
				<path fill="none" stroke="#231F20" stroke-width="0.5" d="M85.848,85.372c0,0,0.458-1.409,2.078-4.861
					c1.62-3.452,3.029-5.213,3.522-7.256c0.493-2.043,0.423-2.748,1.057-4.861c0.634-2.114,2.043-6.693,4.65-9.159"/>
				<path fill="none" stroke="#231F20" stroke-width="0.5" d="M91.942,70.789c0,0,2.818-5.213,11.836-5.002"/>
				<path fill="none" stroke="#231F20" stroke-width="0.5" d="M57.844,111.932c0,0-0.352,4.157,0.986,4.579
					c1.338,0.423,2.747-4.086,2.747-4.086"/>
				<path fill="none" stroke="#231F20" stroke-width="0.5" d="M58.337,116.229c0,0-6.27-2.959-9.37-3.452
					c-3.1-0.493-3.241-0.775-4.509-1.479"/>
				<path fill="none" stroke="#231F20" stroke-width="0.5" d="M47.77,112.566c0,0-0.141,1.761-1.198,1.761
					c-1.057,0-2.254,0.07-2.254,0.07"/>
				<path fill="none" stroke="#231F20" stroke-width="0.5" d="M77.57,114.75l-0.423,1.479c0,0-1.268,0.986,1.409,1.902
					c2.677,0.916,13.879,3.452,15.64,3.945c1.761,0.493,4.368,1.057,4.438-0.564c0.07-1.62-0.211-7.89-0.211-7.89"/>
				<path fill="none" stroke="#231F20" stroke-width="0.5" d="M58.83,116.511c0,0-2.114,2.748-3.1,9.088
					c-0.986,6.341-1.55,8.454-2.254,10.427c-0.704,1.973-1.691,4.509-4.791,3.663"/>
				<path fill="none" stroke="#231F20" stroke-width="0.5" d="M56.928,120.316c0,0-0.352,3.945-0.775,7.82
					c-0.423,3.875-0.916,10.708,2.184,11.765c3.1,1.057,7.186,1.832,11.061,2.325c3.875,0.493,8.102,1.761,11.906,2.113
					c3.804,0.352,19.444,2.466,23.53,0.423"/>
				<path fill="none" stroke="#231F20" stroke-width="0.5" d="M64.185,144.48c0,0,0.282,3.382,0.423,6.059
					c0.141,2.677,1.691,3.382,2.536,7.468c0.845,4.086,3.804,13.667,4.227,19.303"/>
				<ellipse fill="#FFFFFF" stroke="#231F20" stroke-width="0.5" cx="91.026" cy="32.64" rx="0.845" ry="1.057"/>
			</g>
		</g>
	</g>
	<path fill="none" stroke="#231F20" stroke-width="2" d="M139.833,95.917c0,33.137-26.863,60-60,60s-60-26.863-60-60"/>
</g>
</svg>
