<svg xmlns="http://www.w3.org/2000/svg" width="151.875" height="194.842"><defs><clipPath><path d="M334.41 811.584l-.366-103.167c0-33.137 27.03-59.917 60.167-59.917 33.138 0 60.168 26.947 60.168 60.084v103H334.41z"/></clipPath><pattern height="12" width="12" patternUnits="userSpaceOnUse" patternTransform="matrix(.707 .707 -.707 .707 4191.09 7523.58)"><path d="M12-3H6v6h6v-6z" fill="#fff"/><g><path d="M10.5 0c0-.828-.672-1.5-1.5-1.5S7.5-.828 7.5 0 8.172 1.5 9 1.5 10.5.828 10.5 0" fill="#db58a4"/></g><path d="M6-3H0v6h6v-6z" fill="#fff"/><g><path d="M4.5 0c0-.828-.672-1.5-1.5-1.5S1.5-.828 1.5 0 2.172 1.5 3 1.5 4.5.828 4.5 0" fill="#db58a4"/></g><path d="M15 3H9v6h6V3z" fill="#fff"/><g><path d="M13.5 6c0-.828-.672-1.5-1.5-1.5s-1.5.672-1.5 1.5.672 1.5 1.5 1.5 1.5-.672 1.5-1.5" fill="#db58a4"/></g><path d="M9 3H3v6h6V3z" fill="#fff"/><g><path d="M7.5 6c0-.828-.672-1.5-1.5-1.5S4.5 5.172 4.5 6 5.172 7.5 6 7.5 7.5 6.828 7.5 6" fill="#db58a4"/></g><path d="M3 3h-6v6h6V3z" fill="#fff"/><g><path d="M1.5 6c0-.828-.672-1.5-1.5-1.5s-1.5.672-1.5 1.5.672 1.5 1.5 1.5S1.5 6.828 1.5 6" fill="#db58a4"/></g><path d="M12 9H6v6h6V9z" fill="#fff"/><g><path d="M10.5 12c0-.828-.672-1.5-1.5-1.5s-1.5.672-1.5 1.5.672 1.5 1.5 1.5 1.5-.672 1.5-1.5" fill="#db58a4"/></g><path d="M6 9H0v6h6V9z" fill="#fff"/><g><path d="M4.5 12c0-.828-.672-1.5-1.5-1.5s-1.5.672-1.5 1.5.672 1.5 1.5 1.5 1.5-.672 1.5-1.5" fill="#db58a4"/></g></pattern><clipPath id="a"><path d="M334.41 811.584l-.366-103.167c0-33.137 27.03-59.917 60.167-59.917 33.138 0 60.168 26.947 60.168 60.084v103H334.41z"/></clipPath><pattern id="b" height="12" width="12" patternUnits="userSpaceOnUse" patternTransform="matrix(.707 .707 -.707 .707 4191.09 7523.58)"><path d="M12-3H6v6h6v-6z" fill="#fff"/><g><path d="M10.5 0c0-.828-.672-1.5-1.5-1.5S7.5-.828 7.5 0 8.172 1.5 9 1.5 10.5.828 10.5 0" fill="#db58a4"/></g><path d="M6-3H0v6h6v-6z" fill="#fff"/><g><path d="M4.5 0c0-.828-.672-1.5-1.5-1.5S1.5-.828 1.5 0 2.172 1.5 3 1.5 4.5.828 4.5 0" fill="#db58a4"/></g><path d="M15 3H9v6h6V3z" fill="#fff"/><g><path d="M13.5 6c0-.828-.672-1.5-1.5-1.5s-1.5.672-1.5 1.5.672 1.5 1.5 1.5 1.5-.672 1.5-1.5" fill="#db58a4"/></g><path d="M9 3H3v6h6V3z" fill="#fff"/><g><path d="M7.5 6c0-.828-.672-1.5-1.5-1.5S4.5 5.172 4.5 6 5.172 7.5 6 7.5 7.5 6.828 7.5 6" fill="#db58a4"/></g><path d="M3 3h-6v6h6V3z" fill="#fff"/><g><path d="M1.5 6c0-.828-.672-1.5-1.5-1.5s-1.5.672-1.5 1.5.672 1.5 1.5 1.5S1.5 6.828 1.5 6" fill="#db58a4"/></g><path d="M12 9H6v6h6V9z" fill="#fff"/><g><path d="M10.5 12c0-.828-.672-1.5-1.5-1.5s-1.5.672-1.5 1.5.672 1.5 1.5 1.5 1.5-.672 1.5-1.5" fill="#db58a4"/></g><path d="M6 9H0v6h6V9z" fill="#fff"/><g><path d="M4.5 12c0-.828-.672-1.5-1.5-1.5s-1.5.672-1.5 1.5.672 1.5 1.5 1.5 1.5-.672 1.5-1.5" fill="#db58a4"/></g></pattern></defs><g><path d="M150.938 118.895c0 41.42-33.58 75-75 75-41.422 0-75-33.58-75-75s33.578-75 75-75c41.42 0 75 33.58 75 75z" fill="none" stroke="#231f20" stroke-width="1.875"/><g><g clip-path="url(#a)" transform="matrix(1.25 0 0 -1.25 -416.618 1004.625)"><g><path d="M407.42 755.692c-.89 1.19-4.79 7.327-4.79 7.327v5.283s.635 1.056.916 2.747c0 0 4.227.14 4.368 4.72 0 0 1.55 2.325.352 5.566 0 0 .423 3.945 0 6.06-.422 2.112-2.254 7.89-5.917 11.764-3.665 3.875-9.16 5.072-11.485 2.254 0 0-2.113 1.55-4.086 1.41-1.974-.142-3.594-1.27-4.017-1.833-.422-.562-4.297.776-5.917-7.89-1.62-8.664.704-6.973.14-12.116 0 0-.14-4.368.987-5.143 0 0-1.62-4.508 6.833-14.935v-4.93s-1.338.774-2.958-.424c0 0-6.552-.774-8.948-.563-2.395.212-5.636-.634-6.622-1.972-.986-1.34-1.973-2.818-3.03-5.495 0 0-.422-.987-1.48-2.607-1.055-1.62-2.958-6.13-3.873-8.102-.916-1.97-2.96-7.678-2.96-7.678s-1.972-.282-2.536-1.55c-.564-1.268-.846-1.972-1.62-4.438-.776-2.466-2.255-4.65-2.82-6.34-.563-1.69-1.126-3.312-1.9-4.79-.776-1.48-2.115-4.862-1.692-7.187.423-2.325 1.057-3.1 1.268-4.44.21-1.337 2.466-4.155 4.65-4.366 2.184-.21 6.2-1.338 8.383-2.817l-.705-2.89.563-.21s-3.38-16.063-3.31-22.897c0 0 2.817-1.48 7.678-2.395 0 0 1.27-1.408.916-2.817 0 0-1.62-1.057-2.043-2.96-.423-1.9-.07-3.24-.494-4.72-.423-1.478-.493-1.55-.845-3.028-.352-1.48-.422-2.748-.422-2.748s-2.113-.916-2.466-2.677c-.352-1.76.846-2.536.564-3.03-.282-.492-1.832-2.536-1.973-4.297-.14-1.76-.07-4.72-.563-6.2-.494-1.48-1.34-5.354-1.34-5.354h62.913s.916 10.426 1.48 12.61c.563 2.184.422 2.113 1.056 4.72.633 2.607 1.267 5.636.704 7.96-.564 2.326-1.198 6.694-1.198 6.694l-.282 1.41s.07 5-.07 7.396c-.14 2.395-1.057 5.566-1.34 7.538-.28 1.973-.21 2.96-.21 4.65 0 1.69-.493 5.425-1.268 7.045s-2.466 3.875-2.818 5.636c-.352 1.76-.564 2.817-.564 4.65 0 1.83-.14 3.028.987 4.72 1.128 1.69 4.72 7.396 6.27 11.27 1.55 3.876 3.1 9.09 3.382 11.273.282 2.184.493 5.566.705 7.538.21 1.974.352 3.805 1.057 5.778.704 1.973 1.69 5.354.634 7.256-1.057 1.903-2.678 4.368-5.566 5.214 0 0-3.03.704-4.79 1.268-1.762.563-3.1 1.127-3.946 1.69-.845.564-1.127 1.128-2.536 1.34 0 0-.986.492-1.41 1.056" fill="#fff"/></g><g><path d="M0 0s-1.34.775-2.96-.423C-5.212-3.31-7.75-4.86-9.72-5.706c-1.973-.846-3.875-3.03-4.79-3.875-.917-.847-1.41-1.2-1.41-1.2 2.255-.422 5.284 1.34 6.27 1.903.987.564 1.34-1.48 1.973-3.17.635-1.69 2.255-4.65 2.255-4.65s-4.156-13.315-4.93-15.287c-.776-1.973-1.41-3.1-1.55-5.143-.142-2.043 1.69-6.693 1.69-6.693l1.41-.14v6.41c4.155 10.708 15.78 26.7 15.78 26.7 2.818-2.958 9.792-6.2 9.792-6.2.493 2.185 2.325 8.455 3.452 10.92C21.345-3.662 22.614-.28 22.614-.28c-.892 1.19-4.79 7.22-4.79 7.22C16.837 4.756 6.904-8.805 6.2-9.72c-.705-.916-2.114-1.198-3.523-1.34-1.41-.14-3.663-5.282-3.663-5.282.07 2.183-1.127 7.326-1.127 7.326L.634-3.734C.282-2.748 0 0 0 0" fill="url(#b)" transform="translate(384.807 755.974)"/></g><g><path d="M407.42 755.692c-.89 1.19-4.79 7.327-4.79 7.327v5.283s.635 1.056.916 2.747c0 0 4.227.14 4.368 4.72 0 0 1.55 2.325.352 5.566 0 0 .423 3.945 0 6.06-.422 2.112-2.254 7.89-5.917 11.764-3.665 3.875-9.16 5.072-11.485 2.254 0 0-2.113 1.55-4.086 1.41-1.974-.142-3.594-1.27-4.017-1.833-.422-.562-4.297.776-5.917-7.89-1.62-8.664.704-6.973.14-12.116 0 0-.14-4.368.987-5.143 0 0-1.62-4.508 6.833-14.935v-4.93s-1.338.774-2.958-.424c0 0-6.552-.774-8.948-.563-2.395.212-5.636-.634-6.622-1.972-.986-1.34-1.973-2.818-3.03-5.495 0 0-.422-.987-1.48-2.607-1.055-1.62-2.958-6.13-3.873-8.102-.916-1.97-2.96-7.678-2.96-7.678s-1.972-.282-2.536-1.55c-.564-1.268-.846-1.972-1.62-4.438-.776-2.466-2.255-4.65-2.82-6.34-.563-1.69-1.126-3.312-1.9-4.79-.776-1.48-2.115-4.862-1.692-7.187.423-2.325 1.057-3.1 1.268-4.44.21-1.337 2.466-4.155 4.65-4.366 2.184-.21 6.2-1.338 8.383-2.817l-.705-2.89.563-.21s-3.38-16.063-3.31-22.897c0 0 2.817-1.48 7.678-2.395 0 0 1.27-1.408.916-2.817 0 0-1.62-1.057-2.043-2.96-.423-1.9-.07-3.24-.494-4.72-.423-1.478-.493-1.55-.845-3.028-.352-1.48-.422-2.748-.422-2.748s-2.113-.916-2.466-2.677c-.352-1.76.846-2.536.564-3.03-.282-.492-1.832-2.536-1.973-4.297-.14-1.76-.07-4.72-.563-6.2-.494-1.48-1.34-5.354-1.34-5.354h62.913s.916 10.426 1.48 12.61c.563 2.184.422 2.113 1.056 4.72.633 2.607 1.267 5.636.704 7.96-.564 2.326-1.198 6.694-1.198 6.694l-.282 1.41s.07 5-.07 7.396c-.14 2.395-1.057 5.566-1.34 7.538-.28 1.973-.21 2.96-.21 4.65 0 1.69-.493 5.425-1.268 7.045s-2.466 3.875-2.818 5.636c-.352 1.76-.564 2.817-.564 4.65 0 1.83-.14 3.028.987 4.72 1.128 1.69 4.72 7.396 6.27 11.27 1.55 3.876 3.1 9.09 3.382 11.273.282 2.184.493 5.566.705 7.538.21 1.974.352 3.805 1.057 5.778.704 1.973 1.69 5.354.634 7.256-1.057 1.903-2.678 4.368-5.566 5.214 0 0-3.03.704-4.79 1.268-1.762.563-3.1 1.127-3.946 1.69-.845.564-1.127 1.128-2.536 1.34 0 0-.986.492-1.41 1.056z" fill="none" stroke="#231f20" stroke-width="1.5" stroke-linecap="round" stroke-linejoin="round"/></g><g><path d="M408.038 781.424s-1.163.423-1.69-.476c-.53-.898-.265-.845-.74-1.426-.476-.58-1.32-1.902-1.32-1.902s.157 1.162-.424 2.166c-.58 1.004-.95 1.427-1.004 2.06-.053.635-.106 2.484-.687 3.277-.58.792-1.374 1.585-1.744 2.958-.37 1.375-.212 3.013-1.216 4.123-1.004 1.11-1.374 1.268-3.064 2.483s-3.118 2.8-5.126 3.17c-2.008.37-3.117-.37-4.385-.475-1.27-.105-2.01-.158-3.224-1.426-1.216-1.268-2.272-2.853-2.907-3.75-.635-.9-1.004-.74-1.216-1.692-.21-.95-.58-3.382-.687-4.86l-.21-1.745.052-1.426h-1.27" fill="none" stroke="#231f20" stroke-width=".5" stroke-linecap="round"/></g><g><path d="M385 760.976s1.638-1.955 4.597-1.955c2.96 0 7.503.582 10.726 6.024" fill="none" stroke="#231f20" stroke-width=".5" stroke-linecap="round"/></g><g><path d="M386.332 782.484c-1.56.54-4.588.394-6.423-.027-1.183-.27-1.58-.58-1.698-.804-.197-.65.17-2.107.17-2.107.09-.575 1.09-.88 1.09-.88 1.687-.208 3.494.114 5.06.394l.427.076c2.056.36 2.044 2.195 2.036 2.403.046.687-.664.944-.664.944m3.642-.73c.024-.208.294-2.022 2.382-2.063l.432-.008c1.592-.036 3.427-.077 5.06.39 0 0 .943.454.943 1.035 0 0 .14 1.496-.154 2.11-.15.202-.59.446-1.8.532-1.88.133-4.893-.187-6.35-.962 0 0-.663-.363-.512-1.035m15.475.305l-3.594-.158-.95-.74c-2.273-2.325-5.866-2.114-8.56-2.06-2.696.052-2.96 2.588-2.96 2.588l-1.69-.105c0-2.59-2.537-3.223-6.394-3.435-3.857-.21-3.91 1.374-3.91 1.374-.16 1.268-.053 2.536-.053 2.536 1.954.95 4.068 1.215 6.498 1.268 2.43.053 3.487-.898 3.487-.898l2.06.106s1.428 1.638 6.5 1.638 4.755-.95 4.755-.95l3.857.05.952-1.214z" fill="#231f20"/></g><g><path d="M384.807 755.974s.282-2.748.634-3.734l-2.746-5.284s1.197-5.143 1.127-7.326c0 0 2.255 5.142 3.664 5.283 1.41.14 2.818.423 3.523 1.34.704.915 10.638 14.37 11.624 16.555" fill="none" stroke="#231f20" stroke-width=".5"/></g><g><path d="M407.42 755.692s-1.267-3.382-2.394-5.847c-1.127-2.466-2.96-8.736-3.452-10.92 0 0-6.975 3.24-9.793 6.2 0 0-11.623-15.993-15.78-26.7v-6.412l-1.41.14s-1.83 4.65-1.69 6.693c.14 2.044.775 3.17 1.55 5.143.775 1.972 4.932 15.287 4.932 15.287s-1.62 2.96-2.255 4.65c-.634 1.69-.986 3.734-1.972 3.17-.987-.564-4.016-2.325-6.27-1.902 0 0 .493.352 1.41 1.198.915.845 2.817 3.03 4.79 3.874 1.972.846 4.508 2.396 6.763 5.284" fill="none" stroke="#231f20" stroke-width=".5"/></g><g><path d="M399.002 740.158s-14.372-15.112-19.656-23.143l-1.585-5.39" fill="none" stroke="#231f20" stroke-width=".5"/></g><g><path d="M372.372 745.547s-1.48-11.096-2.113-15.323c-.636-4.227-1.058-14.055-.318-17.014" fill="none" stroke="#231f20" stroke-width=".5"/></g><g><path d="M412.53 698.945s-4.228-4.86-6.976-6.763c-2.747-1.902-3.698-3.488-5.283-3.488-1.585 0-5.39 1.27-7.925 1.27-2.536 0-3.17-.847-5.284-.213-2.112.635-4.966 1.798-7.82 2.115-2.852.317-9.615 1.057-9.615 1.057s-2.536 10.25-2.114 12.998c.424 2.747 1.692 7.502 4.017 6.763 2.325-.74 4.755-.74 6.763-1.374 2.008-.635 3.065-.846 4.756-1.375 1.69-.528 4.438-1.057 5.495-1.48 1.057-.422 1.797-.316 2.537-.74.74-.422 1.744-.686 2.43-.475.687.212.9.53 1.586.265s4.966-1.955 5.917-1.11c0 0 1.163-.898 2.748-.898 1.585 0 2.43.95.792 2.113 0 0-2.272 1.69-3.487 3.012 0 0 3.33-2.906 4.597-2.906 1.268 0 2.008.528 2.008 1.532s-4.07 3.963-4.07 3.963 2.273-.37 2.855.265c.58.634-.106 1.902-1.797 3.065-1.69 1.162-3.54 2.695-4.597 2.59-1.058-.107-1.48-.53-2.06-1.375-.583-.845-1.48-2.642-2.168-2.96-.687-.316-2.483.107-3.698-1.478-1.216-1.585-3.065-3.593-3.593-4.86" fill="none" stroke="#231f20" stroke-width=".5"/></g><g><path d="M393.454 710.727s2.113.053 2.747-.264c.637-.317 1.746-1.215 2.75-1.902 1.004-.686 2.695-1.48 2.06-2.166" fill="none" stroke="#231f20" stroke-width=".5"/></g><g><path d="M401.063 710.622s-1.48 1.162-2.378 2.272" fill="none" stroke="#231f20" stroke-width=".5"/></g><g><path d="M399.742 715.958s2.96-2.008 3.857-2.747" fill="none" stroke="#231f20" stroke-width=".5"/></g><g><path d="M370.523 712.735l-3.54 1.532s-1.638.74-2.483-1.162c-.846-1.902-2.378-9.67-1.797-11.36.58-1.69 2.853-1.216 3.593-1.585.74-.37 1.268-.582 1.85-.634" fill="none" stroke="#231f20" stroke-width=".5"/></g><g><path d="M362.86 706.447s-.58-.106-2.007 1.268c-1.426 1.374-1.955 2.642-3.33 2.8 0 0-.58 1.322-.527 2.22.053.898.106 2.59.37 3.646.264 1.057.423 1.216.898 2.273.476 1.056.95 1.902 1.69 2.59.74.687 1.322 1.162 2.59.37 1.268-.793 3.382-2.537 3.857-7.134" fill="none" stroke="#231f20" stroke-width=".5"/></g><g><path d="M361.118 722.087s-1.004 4.12-.317 7.61c.688 3.487 2.643 13.103 2.43 16.115" fill="none" stroke="#231f20" stroke-width=".5"/></g><g><path d="M400.06 719.13s.457 1.408 2.077 4.86c1.62 3.452 3.03 5.213 3.523 7.256.493 2.044.422 2.748 1.057 4.862.634 2.113 2.043 6.692 4.65 9.158" fill="none" stroke="#231f20" stroke-width=".5"/></g><g><path d="M406.153 733.712s2.818 5.213 11.836 5.002" fill="none" stroke="#231f20" stroke-width=".5"/></g><g><path d="M372.055 692.57s-.352-4.157.986-4.58c1.34-.423 2.75 4.086 2.75 4.086" fill="none" stroke="#231f20" stroke-width=".5"/></g><g><path d="M372.548 688.27s-6.27 2.96-9.37 3.453c-3.1.493-3.24.775-4.51 1.48" fill="none" stroke="#231f20" stroke-width=".5"/></g><g><path d="M361.98 691.935s-.14-1.76-1.197-1.76c-1.056 0-2.254-.072-2.254-.072" fill="none" stroke="#231f20" stroke-width=".5"/></g><g><path d="M391.78 689.75l-.422-1.478s-1.268-.987 1.41-1.903c2.676-.916 13.878-3.453 15.64-3.946 1.76-.493 4.367-1.057 4.438.564.07 1.62-.212 7.89-.212 7.89" fill="none" stroke="#231f20" stroke-width=".5"/></g><g><path d="M373.04 687.99s-2.112-2.748-3.1-9.088c-.985-6.34-1.55-8.454-2.253-10.427-.705-1.972-1.69-4.51-4.79-3.663" fill="none" stroke="#231f20" stroke-width=".5"/></g><g><path d="M371.14 684.185s-.353-3.945-.776-7.82c-.423-3.875-.916-10.708 2.184-11.765 3.1-1.057 7.186-1.832 11.06-2.325 3.876-.493 8.103-1.76 11.907-2.113 3.804-.353 19.444-2.466 23.53-.423" fill="none" stroke="#231f20" stroke-width=".5"/></g><g><path d="M378.396 660.02s.282-3.38.423-6.058c.14-2.677 1.69-3.38 2.535-7.467.845-4.087 3.804-13.668 4.227-19.304" fill="none" stroke="#231f20" stroke-width=".5"/></g><g><path d="M406.083 771.86c0-.583-.38-1.056-.845-1.056-.467 0-.846.473-.846 1.057 0 .585.38 1.058.846 1.058.466 0 .845-.473.845-1.057" fill="#fff"/></g><g><path d="M406.083 771.86c0-.583-.38-1.056-.845-1.056-.467 0-.846.473-.846 1.057 0 .585.38 1.058.846 1.058.466 0 .845-.473.845-1.057z" fill="none" stroke="#231f20" stroke-width=".5"/></g></g></g><path d="M150.938 118.895c0 41.42-33.58 75-75 75-41.422 0-75-33.58-75-75" fill="none" stroke="#231f20" stroke-width="1.875"/></g></svg>