<svg xmlns="http://www.w3.org/2000/svg" width="151.875" height="183.684"><defs><clipPath><path d="M0 863.584h938.953V0H0v863.584z"/></clipPath><clipPath><path d="M489.01 803.25l-2.998-94.666c0-33.137 27.028-60 60.166-60 33.137 0 60.166 26.863 60.166 60v94.667H489.01z"/></clipPath><pattern patternTransform="matrix(.707 .707 -.707 .707 4180.97 7523.85)" patternUnits="userSpaceOnUse" width="12" height="12"><path d="M12-3H6v6h6v-6z" fill="#fff"/><g><path d="M10.5 0c0-.828-.672-1.5-1.5-1.5S7.5-.828 7.5 0 8.172 1.5 9 1.5 10.5.828 10.5 0" fill="#aad801"/></g><path d="M6-3H0v6h6v-6z" fill="#fff"/><g><path d="M4.5 0c0-.828-.672-1.5-1.5-1.5S1.5-.828 1.5 0 2.172 1.5 3 1.5 4.5.828 4.5 0" fill="#aad801"/></g><path d="M15 3H9v6h6V3z" fill="#fff"/><g><path d="M13.5 6c0-.828-.672-1.5-1.5-1.5s-1.5.672-1.5 1.5.672 1.5 1.5 1.5 1.5-.672 1.5-1.5" fill="#aad801"/></g><path d="M9 3H3v6h6V3z" fill="#fff"/><g><path d="M7.5 6c0-.828-.672-1.5-1.5-1.5S4.5 5.172 4.5 6 5.172 7.5 6 7.5 7.5 6.828 7.5 6" fill="#aad801"/></g><path d="M3 3h-6v6h6V3z" fill="#fff"/><g><path d="M1.5 6c0-.828-.672-1.5-1.5-1.5s-1.5.672-1.5 1.5.672 1.5 1.5 1.5S1.5 6.828 1.5 6" fill="#aad801"/></g><path d="M12 9H6v6h6V9z" fill="#fff"/><g><path d="M10.5 12c0-.828-.672-1.5-1.5-1.5s-1.5.672-1.5 1.5.672 1.5 1.5 1.5 1.5-.672 1.5-1.5" fill="#aad801"/></g><path d="M6 9H0v6h6V9z" fill="#fff"/><g><path d="M4.5 12c0-.828-.672-1.5-1.5-1.5s-1.5.672-1.5 1.5.672 1.5 1.5 1.5 1.5-.672 1.5-1.5" fill="#aad801"/></g></pattern><clipPath id="c"><path d="M0 863.584h938.953V0H0v863.584z"/></clipPath><clipPath id="a"><path d="M489.01 803.25l-2.998-94.666c0-33.137 27.028-60 60.166-60 33.137 0 60.166 26.863 60.166 60v94.667H489.01z"/></clipPath><pattern patternTransform="matrix(.707 .707 -.707 .707 4180.97 7523.85)" patternUnits="userSpaceOnUse" width="12" height="12" id="b"><path d="M12-3H6v6h6v-6z" fill="#fff"/><g><path d="M10.5 0c0-.828-.672-1.5-1.5-1.5S7.5-.828 7.5 0 8.172 1.5 9 1.5 10.5.828 10.5 0" fill="#aad801"/></g><path d="M6-3H0v6h6v-6z" fill="#fff"/><g><path d="M4.5 0c0-.828-.672-1.5-1.5-1.5S1.5-.828 1.5 0 2.172 1.5 3 1.5 4.5.828 4.5 0" fill="#aad801"/></g><path d="M15 3H9v6h6V3z" fill="#fff"/><g><path d="M13.5 6c0-.828-.672-1.5-1.5-1.5s-1.5.672-1.5 1.5.672 1.5 1.5 1.5 1.5-.672 1.5-1.5" fill="#aad801"/></g><path d="M9 3H3v6h6V3z" fill="#fff"/><g><path d="M7.5 6c0-.828-.672-1.5-1.5-1.5S4.5 5.172 4.5 6 5.172 7.5 6 7.5 7.5 6.828 7.5 6" fill="#aad801"/></g><path d="M3 3h-6v6h6V3z" fill="#fff"/><g><path d="M1.5 6c0-.828-.672-1.5-1.5-1.5s-1.5.672-1.5 1.5.672 1.5 1.5 1.5S1.5 6.828 1.5 6" fill="#aad801"/></g><path d="M12 9H6v6h6V9z" fill="#fff"/><g><path d="M10.5 12c0-.828-.672-1.5-1.5-1.5s-1.5.672-1.5 1.5.672 1.5 1.5 1.5 1.5-.672 1.5-1.5" fill="#aad801"/></g><path d="M6 9H0v6h6V9z" fill="#fff"/><g><path d="M4.5 12c0-.828-.672-1.5-1.5-1.5s-1.5.672-1.5 1.5.672 1.5 1.5 1.5 1.5-.672 1.5-1.5" fill="#aad801"/></g></pattern></defs><g><path d="M150.938 107.747c0 41.42-33.58 75-75 75-41.422 0-75-33.58-75-75 0-41.422 33.578-75 75-75 41.42 0 75 33.578 75 75z" fill="none" stroke="#231f20" stroke-width="1.875"/><g><g clip-path="url(#a)" transform="matrix(1.25 0 0 -1.25 -606.576 993.476)"><g><path d="M588.073 695.78s.272 3.263.272 4.804c0 1.54-.272 5.982-.272 6.98 0 .996-.453 4.712-.453 5.98 0 1.27.09 3.99-.09 5.44-.182 1.45-.545 4.304-1.428 5.46 0 0 .204 0 .61.204.41.204.34.952 0 1.496-.34.543-.814 1.63-1.154 2.175-.34.543-1.292 1.902-1.7 2.242 0 0-.34 2.107-.883 2.312-.544.203-2.584 1.63-2.584 1.63l-.202 2.38-1.428.272s-1.156 3.535-2.31 3.467c-1.157-.068-2.177-1.564-2.177-1.564s-1.36.407-1.97.203c-.613-.204-2.38-.475-2.38-.475s-2.04 1.427-2.99 1.767c0 0 .68 4.554.747 5.438l.747 1.564s2.108.34 2.448 1.835c.34 1.496.68 3.603 1.155 4.555.476.95 2.38 4.758-.952 6.186l-.045.544.156.27.155.545v.363c0 .18-.292.453-.292.453s.146.227.19.363c.047.136.102.363.102.363v1.179s.048.047-.043.273c-.09.227.047-.045-.044.227-.09.272-.067.362-.158.544-.09.18-.08.544-.08.544s.003.136-.223.317c-.227.18-.452.317-.452.453v.363l.367.182.704.18.08.228-.254.136-.308.18-.044.228.455.59v.316l.003.317.024.317.102.5.03.588-.1.363-.095.453-.094.226-.227-.18-.5-.22-.41-.084h-.225l-.227.628-.226.45.09.677.046.43.18.328-.18.277-.21.184.017.32V775.768l-.516-.318-.304.136-.06.182-.46.317-.323.317-.047 1.768-.273-.86-.317.09-.137-.182-.273-.074c-.18-.182-.408.106-.544.106h-.136l-.362.21-.136.378.135.166.317.22.09.176-.498.18-.725-.047.226.997-.046.18-.906-.95-.227.225-.136.272-.27.046-.862.498-.27.182-.183-.116-.045-.616h-.272l-.272.39-.18.51-.273.28-.18.252s-.092.103-.047.24c.046.135.046.142.046.142l.136.5-.318.184-.317-.498h-.317l-.272-.18-.18-.068-.364.215-.317.033h-.588v.364l-.34-.18s-.035.157-.216.02c-.182-.135-.307-.204-.307-.204h-.453l-.136.07-.272.056-.182-.085-.09-.382s-.363-.1-.544-.145c-.18-.046-.453-.05-.453-.05l-.272-.094s-.407-.093-.543-.093c-.136 0-.227.453-.227.453l-.453-.59-.18-.408-.726-.317-.452.045-.272.09-.408.046-.272-.09s-.136-.046-.272-.046-.362-.252-.362-.252l-.318-.208h-.25v.732l-.17-.498-.582-.272-.405-.18-.316-.183-.452-.59-.317.046.183.498.317.59-.544-.227-.18-.182-.227-.09-.455-.227-.498-.408-.18-.362-.183-.272-.226-.227-.318-.41-.27-.36s-.228-.183-.273-.318c-.046-.136-.272-.408-.272-.408-.18.09-.635.59-.635.59l-.136-.454-.09-.272-.363.09-.202.227-.203-.227v-.226l-.16-.986-.476-.396h-.41l-.135-.147-.272-.165-.272-.173-.044-.38-.18-.214s.09-.22-.137-.22c-.228 0-.41.05-.41.05l-.316-.36.27-.59-.225-.044s-.273-.317-.137-.453l.136-.136s.18-.045 0-.363l-.182-.317-.182-.362.314-.363-.185-.136v-.498s-.178-.046-.223-.272c-.045-.227-.18-.59-.18-.59l.36.09.043-.678v-.272l-1-.544v-1.088l.368-.045.542.543.09-.77v-.273c0-.136-.2-.544-.2-.544s-.168-.317-.168-.453l.002-.634.365-.137v-.635s-.132 0-.042-.226c.09-.227.183-.5.183-.5l.77-2.49.09-.545v-1.313s-1.472.09-2.06.09c0 0-.736 1.133-1.1 1.586-.36.453-1.68 2.175-3.176 2.628l.088 3.716s.542 1.904.588 2.357c0 0 2.265-.09 2.582.77.318.862.634 1.814.906 2.177.272.362.952 1.54.77 2.31-.18.77-.77 3.445-2.9 1.86 0 0 .09 3.398-.18 4.26-.273.86-.545 2.355-.772 3.035-.226.68-.725 2.31-.997 2.674-.272.362-.634.453-.725.68-.09.226-.544.77-.544.77l-.226.272-.317.453-.318.318s-.272.408-.453.59c-.18.18-.408.453-.408.453l.816-.362-.227.363s-.27.363-.407.41c-.136.044-.454.36-.454.36l-.407.364-.59.498-.272.363-.045.362-.272.136-.317.272-.273.182-.453.09-.5.18-.36-.09-.5-.27-.362.09.634.77-1.087-.408-.32-.046-.09.272.273.498.407.816-.362-.136-.18-.136-.364-.317-.725-.407-.364.18-.272-.27-.498-.273-.317-.045-.302.09-.573.952v-.498l-.56.452-.348.59.158-.454-.25.453v-.497l-.513-.454-.53-.182-.614.136-.343-.09V792.264l.056-.317-.04-.303-.04-.394h-.905s-.045-.082-.227.01c-.18.09-.557.252-.557.252s-.285-.11-.285-.245v-.725l.104-.272s-.266-.136-.266-.272-.04-.453-.04-.453l-.113-.182-.168-.136-.72-.634-.36-.363-.178-.18s-.09-.273-.226-.273-.68-.09-.68-.09l-.135-.182s.09-.09-.227-.045-1.178.272-1.178.272l.363-.264s.272-.218.09-.218h-.18l.18-.597.182-.458-.362-.364-.317-.16.045-.78-.136-.234s-.227-.184-.18-.32c.044-.136-.092-.32-.092-.32l-.408-.725.024-.226-.02-.18v-1.18l-.024-.498.023-.453V778.125c0-.362.067-.725.067-.725s-.08-.137.01-.5c.09-.362.14-.407.187-.543.044-.136.41-.635.455-.77.045-.137.092-.273.182-.454.09-.18.228-.59.273-.86.045-.273.136-.77.136-.77s.182-.318.227-.59c.045-.272.136-.77.18-.907.047-.136.092-.498.092-.498l.136-.408s-.498-.136-.95-.544c-.454-.408-.137-2.674.996-3.807 1.133-1.134 1.45-1.088 1.722-1.496.272-.408 1.813-1.18 2.584.136 0 0 .997-1.722 1.405-1.95l.59-2.763s-1.452-1.723-1.95-3.218l-.5-.228-.452.046-.453.136-.408-.136c-.136-.046-.362-.182-.362-.182s-.182-.09-.318-.09-.68-.09-.68-.09l-.634-.364s-.272-.09-.408-.27c-.136-.183-.498-.364-.498-.364l-.318-.317-.725-.18-.996-.272-.77-.816-.363-.408s-.316-.498-.452-.498-.634-.272-.634-.272l-.725-.363-.59-.497-.454-.5s-.272-.362-.362-.543l-.408-.816-.227-.453-.09-.407s-.41-2.13-.545-3.217c-.136-1.088.18-1.904-.272-2.674-.453-.77-.725-1.496-.68-2.266.046-.77.195-1.088.15-1.722-.046-.635-.168-.997-.168-1.54v-1.496l-.104-.635s.04-.09-.37-.725c-.406-.634-.704-1.133-.976-2.266s-.217-1.722-.127-2.356c.09-.635.413-.952.73-1.904s.683-1.224.818-2.402c.136-1.178.32-1.27 1.18-2.085.86-.815 1.904-1.178 2.584-1.722.678-.543.543-.634 1.45-.634.906 0 1.63.18 1.63.18s.41-1.087.454-1.63c.045-.545.136-1.18.136-1.587 0-.408.045-1.587.045-1.587s-1.314-2.22-1.903-3.897c-.59-1.678-2.81-7.705-3.308-10.198-.5-2.492-1.95-4.668-2.22-6.163-.273-1.497-.5-2.494-1.18-4.216-.68-1.722-.95-3.127-1.404-4.668-.453-1.54-2.855-8.79-3.172-9.97-.318-1.178-1.043-4.44-1.315-6.3-.272-1.857-.498-4.848.544-8.11 1.043-3.264 2.855-7.57 3.354-9.382.5-1.813 1.632-4.804 2.312-5.8.68-.998 1.27-2.358 1.27-2.358s-.5-.453-.817-1.087c-.317-.636-1.27-2.267-.498-2.72.77-.453 1.767-.272 1.813-.635.045-.362-.046-.498-.454-1.133-.407-.634-.86-.815-.77-2.22.09-1.405.634-1.904.68-2.13.045-.227.09-.68-.046-1.54-.136-.862-.18-2.086-.362-2.403-.18-.318-.68.044-.952-1.043-.272-1.088-.362-1.723-.272-2.22.09-.5.09-1.225.09-1.225s6.844-2.31 12.418-.09c0 0-.272-.544-.453-1.54-.182-.998-.182-1.678-.137-2.358.045-.68-.317-10.74.09-13.73.41-2.992.816-7.207.816-9.518 0-2.312.815-3.807.815-5.574 0-1.768.272-3.648.272-3.648l.272-7.184h49.487s1.088 4.872 1.36 6.91c.272 2.04.816 5.564 1.087 7.468.272 1.903 2.176 8.83 2.176 10.463 0 1.632.408 3.397.408 3.397s.498.27.86.995c.363.725 1.36 1.45 1.36 1.45s-1.088-2.176-.09-2.72c.997-.543 1.36 0 1.812.816.453.816 1.18 2.175 1.813 2.99.635.817 1.45 1.45 2.085 2.63.634 1.178.725 1.36 1.178 3.08.453 1.723 1.722 3.173 1.722 4.17 0 .997-.725 3.626-.725 4.532 0 .907-.09 2.9-.09 2.9s3.353.454 3.353 1.813c0 1.36-.09 1.813-.363 3.263-.272 1.45-.725 2.63-.453 4.26.272 1.632 0 3.716-.18 5.076-.182 1.36-.635 1.27.09 3.354s1.087 3.625 1.087 4.35c0 .725.09 2.085.18 3.354.092 1.27 1.18 4.078 1 5.257-.183 1.178-.455 1.36-.183 2.175.272.816.816 1.36.725 2.175-.09.816-.544 1.994-.544 1.994s.815 1.633.815 2.81c0 1.18-.814 1.542-.724 2.54.09.996.453 1.902.544 2.99.09 1.088-.906 1.903-.906 3.172 0 1.27.362 3.445.18 4.804-.18 1.36-.543 2.175-.543 2.63 0 .452.273 6.434.273 6.434" fill="#fff"/></g><g><path d="M588.073 695.78s.272 3.263.272 4.804c0 1.54-.272 5.982-.272 6.98 0 .996-.453 4.712-.453 5.98 0 1.27.09 3.99-.09 5.44-.182 1.45-.545 4.304-1.428 5.46 0 0 .204 0 .61.204.41.204.34.952 0 1.496-.34.543-.814 1.63-1.154 2.175-.34.543-1.292 1.902-1.7 2.242 0 0-.34 2.107-.883 2.312-.544.203-2.584 1.63-2.584 1.63l-.202 2.38-1.428.272s-1.156 3.535-2.31 3.467c-1.157-.068-2.177-1.564-2.177-1.564s-1.36.407-1.97.203c-.613-.204-2.38-.475-2.38-.475s-2.04 1.427-2.99 1.767c0 0 .68 4.554.747 5.438l.747 1.564s2.108.34 2.448 1.835c.34 1.496.68 3.603 1.155 4.555.476.95 2.38 4.758-.952 6.186l-.045.544-.094.27-.095.545v.363c0 .18-.042.453-.042.453s.02.227.066.363c.045.136-.025.363-.025.363v.408s1 .228 1 .364v.407s-.202.047-.293.273c-.09.227-.078-.045-.17.227-.09.272-.128.362-.22.544-.09.18-.11.544-.11.544s.237.136.01.317c-.226.18-.217.317-.217.453v.363l.117.182.58.18.017.228-.286.136-.325.18-.302.228.197.59v.316l.253.317.15.317.164.5.06.588-.084.363-.087.453-.087.226-.226-.18-.498.03-.41.166h-.225l-.227.378-.226.324.09.616.046.398.18.312-.18.27-.46.18-.233.316V775.768l-.266-.318-.18.136.003.182-.43.317-.305.317-.04 1.768-.27-.86-.314.09-.136-.182-.27-.324c-.182-.182-.41-.144-.545-.144h-.136l-.362.46-.136.503.135.228.317.25.09.194-.498.188-.725-.043.226.998-.046.182-.906-.952-.227.227-.136.272-.27.045-.862.5-.27.18-.183.134-.045-.366h-.272l-.272.14-.18.386-.273.215-.18.223s-.092.088-.047.224l.046.134.136.5-.318-.07-.317-.75h-.317l-.272.07-.18.057-.364.027-.317-.154h-.088V781.614l-.59-.18s-.16-.093-.34-.23c-.182-.135-.432-.454-.432-.454h-.453l-.136.32-.272.18-.182-.022-.09-.35-.544-.13c-.18-.046-.453-.043-.453-.043l-.272-.09s-.407-.09-.543-.09c-.136 0-.227.454-.227.454l-.453-.59-.18-.408-.726-.317-.452.045-.272.09-.408.046-.272-.09s-.136-.046-.272-.046l-.362-.002-.318.042h.25v.232l-.42-.498-.707-.272-.468-.18-.348-.183-.468-.59-.325.046.177.498.315.59-.545-.227-.18-.182-.228-.09-.455-.227-.498-.408-.18-.362-.183-.272-.226-.227-.318-.41-.27-.36s-.228-.183-.273-.318c-.046-.136-.272-.408-.272-.408-.18.09-.635.59-.635.59l-.136-.454-.09-.272-.363.09-.452.227-.453-.227v-.226l.09-.736-.226-.146h-.41l-.135-.397-.272-.29-.272-.235-.044-.413-.18-.228s.09-.228-.137-.228c-.228 0-.41.044-.41.044l-.316-.363.27-.588-.225-.046s-.273-.317-.137-.453l.136-.136s.18-.045 0-.362l-.182-.318-.182-.362.064-.363-.435-.136v-.498s.072-.046.027-.272c-.045-.227-.054-.59-.054-.59l.172.09-.145-.678V766.024l.118-.045.167.543-.285-.77v-.273c0-.136.05-.544.05-.544s-.043-.317-.043-.453-.185-.634-.185-.634l.178-.137v-.635s.118 0 .208-.226c.09-.227.308-.5.308-.5l.583-2.49-.098-.545v-1.313s-1.22.09-1.81.09c0 0-.61 1.133-.973 1.586-.362.453-1.62 2.175-3.115 2.628l.12 3.716s.558 1.904.603 2.357c0 0 2.273-.09 2.59.77.318.862.64 1.814.91 2.177.272.362.954 1.54.773 2.31-.182.77-.77 3.445-2.9 1.86 0 0 .09 3.398-.18 4.26-.273.86-.544 2.355-.77 3.035-.228.68-.726 2.31-.998 2.674-.272.362-.634.453-.725.68-.09.226-.544.77-.544.77l-.226.272-.318.453-.317.318s-.272.408-.453.59c-.18.18-.408.453-.408.453l.816-.362-.227.363s-.27.363-.407.41c-.136.044-.454.36-.454.36l-.407.364-.59.498-.272.363-.045.362-.272.136-.317.272-.273.182-.453.09-.5.18-.36-.09-.5-.27-.362.09.634.77-1.087-.408-.32-.046-.09.272.273.498.407.816-.362-.136-.18-.136-.364-.317-.725-.407-.364.18-.272-.27-.498-.273-.317-.045-.552.09-.823.952v-.498l-.31.452-.223.59-.03-.454-.437.453v-.497l-.263-.454-.404-.182-.302.136-.03-.09V792.264l-.195-.317-.164-.553-.165-.644h-.406l-.272 1h-.227s-.045-.332-.227-.24c-.18.09-.307.127-.307.127s-.035-.234-.035-.37v-.725l-.146-.272s-.39-.136-.39-.272-.105-.453-.105-.453l-.143-.182-.184-.136-.727-.634-.363-.363-.18-.18s-.092-.273-.228-.273c-.137 0-.68-.09-.68-.09l-.137-.182s.09-.09-.227-.045-1.178.272-1.178.272l.363-.514s.272-.468.09-.468h-.18l.18-.347.182-.333-.362-.302-.317-.128.045-.767-.136-.225s-.227-.18-.18-.316c.044-.136-.092-.317-.092-.317l-.408-.725.274-.226.23-.18v-1.18l-.524-.498-.477-.453v-.907l1-.815V778.125c0-.362-.183-.725-.183-.725s-.205-.137-.115-.5c.09-.362.08-.407.124-.543.047-.136.38-.635.426-.77.045-.137.076-.273.167-.454.09-.18.22-.59.265-.86.045-.273.132-.77.132-.77s.18-.318.225-.59c.045-.272.135-.77.18-.907.046-.136.09-.498.09-.498l.136-.408s-.497-.136-.95-.544c-.454-.408-.137-2.674.996-3.807 1.133-1.134 1.45-1.088 1.722-1.496.272-.408 1.813-1.18 2.584.136 0 0 .997-1.722 1.405-1.95l.59-2.763s-1.452-1.723-1.95-3.218l-.5-.228-.452.046-.453.136-.408-.136c-.136-.046-.362-.182-.362-.182s-.182-.09-.318-.09-.68-.09-.68-.09l-.634-.364s-.272-.09-.408-.27c-.136-.183-.498-.364-.498-.364l-.318-.317-.725-.18-.996-.272-.77-.816-.363-.408s-.316-.498-.452-.498-.634-.272-.634-.272l-.725-.363-.59-.497-.454-.5s-.272-.362-.362-.543l-.408-.816-.227-.453-.09-.407s-.41-2.13-.545-3.217c-.136-1.088.18-1.904-.272-2.674-.453-.77-.725-1.496-.68-2.266.046-.77.445-1.088.4-1.722-.046-.635.082-.997.082-1.54v-1.496l-.354-.635s-.086-.09-.494-.725c-.407-.634-.768-1.133-1.04-2.266s-.248-1.722-.157-2.356c.09-.635.396-.952.713-1.904.317-.952.674-1.224.81-2.402.136-1.178.315-1.27 1.176-2.085.86-.815 1.9-1.178 2.58-1.722.68-.543.544-.634 1.45-.634.907 0 1.63.18 1.63.18s.41-1.087.454-1.63c.046-.545.136-1.18.136-1.587 0-.408.045-1.587.045-1.587s-1.314-2.22-1.903-3.897c-.59-1.678-2.81-7.705-3.308-10.198-.5-2.492-1.95-4.668-2.22-6.163-.273-1.497-.5-2.494-1.18-4.216-.68-1.722-.95-3.127-1.404-4.668-.453-1.54-2.855-8.79-3.172-9.97-.318-1.178-1.043-4.44-1.315-6.3-.272-1.857-.498-4.848.544-8.11 1.043-3.264 2.855-7.57 3.354-9.382.5-1.813 1.632-4.804 2.312-5.8.68-.998 1.27-2.358 1.27-2.358s-.5-.453-.817-1.087c-.317-.636-1.27-2.267-.498-2.72.77-.453 1.767-.272 1.813-.635.045-.362-.046-.498-.454-1.133-.407-.634-.86-.815-.77-2.22.09-1.405.634-1.904.68-2.13.045-.227.09-.68-.046-1.54-.136-.862-.18-2.086-.362-2.403-.18-.318-.68.044-.952-1.043-.272-1.088-.362-1.723-.272-2.22.09-.5.09-1.225.09-1.225s6.844-2.31 12.418-.09c0 0-.272-.544-.453-1.54-.182-.998-.182-1.678-.137-2.358.045-.68-.317-10.74.09-13.73.41-2.992.816-7.207.816-9.518 0-2.312.815-3.807.815-5.574 0-1.768.272-3.898.272-3.898l.272-7.434h49.487s1.088 5.122 1.36 7.16c.272 2.04.816 5.69 1.087 7.593.272 1.903 2.176 8.894 2.176 10.525 0 1.632.408 3.428.408 3.428s.498.286.86 1.01c.363.726 1.36 1.458 1.36 1.458s-1.088-2.172-.09-2.716c.997-.543 1.36.002 1.812.818.453.816 1.18 2.176 1.813 2.992.635.816 1.45 1.45 2.085 2.63.634 1.177.725 1.36 1.178 3.08.453 1.723 1.722 3.173 1.722 4.17 0 .997-.725 3.626-.725 4.532 0 .907-.09 2.9-.09 2.9s3.353.454 3.353 1.813c0 1.36-.09 1.813-.363 3.263-.272 1.45-.725 2.63-.453 4.26.272 1.632 0 3.716-.18 5.076-.182 1.36-.635 1.27.09 3.354s1.087 3.625 1.087 4.35c0 .725.09 2.085.18 3.354.092 1.27 1.18 4.078 1 5.257-.183 1.178-.455 1.36-.183 2.175.272.816.816 1.36.725 2.175-.09.816-.544 1.994-.544 1.994s.815 1.633.815 2.81c0 1.18-.814 1.542-.724 2.54.09.996.453 1.902.544 2.99.09 1.088-.906 1.903-.906 3.172 0 1.27.362 3.445.18 4.804-.18 1.36-.543 2.175-.543 2.63 0 .452.273 6.434.273 6.434" fill="#fff"/></g><g><path d="M588.073 695.78s.272 3.263.272 4.804c0 1.54-.272 5.982-.272 6.98 0 .996-.453 4.712-.453 5.98 0 1.27.09 3.99-.09 5.44-.182 1.45-.545 4.304-1.428 5.46 0 0 .204 0 .61.204.41.204.34.952 0 1.496-.34.543-.814 1.63-1.154 2.175-.34.543-1.292 1.902-1.7 2.242 0 0-.34 2.107-.883 2.312-.544.203-2.584 1.63-2.584 1.63l-.202 2.38-1.428.272s-1.156 3.535-2.31 3.467c-1.157-.068-2.177-1.564-2.177-1.564s-1.36.407-1.97.203c-.613-.204-2.38-.475-2.38-.475s-2.04 1.427-2.99 1.767c0 0 .68 4.554.747 5.438l.747 1.564s2.108.34 2.448 1.835c.34 1.496.68 3.603 1.155 4.555.476.95 2.38 4.758-.952 6.186l-.045.544-.094.27-.095.545v.363c0 .18-.042.453-.042.453s.02.227.066.363c.045.136-.025.363-.025.363v.408s1 .228 1 .364v.407s-.202.047-.293.273c-.09.227-.078-.045-.17.227-.09.272-.128.362-.22.544-.09.18-.11.544-.11.544s.237.136.01.317c-.226.18-.217.317-.217.453v.363l.117.182.58.18.017.228-.286.136-.325.18-.302.228.197.59v.316l.253.317.15.317.164.5.06.588-.084.363-.087.453-.087.226-.226-.18-.498.03-.41.166h-.225l-.227.378-.226.324.09.616.046.398.18.312-.18.27-.46.18-.233.316V775.768l-.266-.318-.18.136.003.182-.43.317-.305.317-.04 1.768-.27-.86-.314.09-.136-.182-.27-.324c-.182-.182-.41-.144-.545-.144h-.136l-.362.46-.136.503.135.228.317.25.09.194-.498.188-.725-.043.226.998-.046.182-.906-.952-.227.227-.136.272-.27.045-.862.5-.27.18-.183.134-.045-.366h-.272l-.272.14-.18.386-.273.215-.18.223s-.092.088-.047.224l.046.134.136.5-.318-.07-.317-.75h-.317l-.272.07-.18.057-.364.027-.317-.154h-.088V781.614l-.59-.18s-.16-.093-.34-.23c-.182-.135-.432-.454-.432-.454h-.453l-.136.32-.272.18-.182-.022-.09-.35-.544-.13c-.18-.046-.453-.043-.453-.043l-.272-.09s-.407-.09-.543-.09c-.136 0-.227.454-.227.454l-.453-.59-.18-.408-.726-.317-.452.045-.272.09-.408.046-.272-.09s-.136-.046-.272-.046l-.362-.002-.318.042h.25v.232l-.42-.498-.707-.272-.468-.18-.348-.183-.468-.59-.325.046.177.498.315.59-.545-.227-.18-.182-.228-.09-.455-.227-.498-.408-.18-.362-.183-.272-.226-.227-.318-.41-.27-.36s-.228-.183-.273-.318c-.046-.136-.272-.408-.272-.408-.18.09-.635.59-.635.59l-.136-.454-.09-.272-.363.09-.452.227-.453-.227v-.226l.09-.736-.226-.146h-.41l-.135-.397-.272-.29-.272-.235-.044-.413-.18-.228s.09-.228-.137-.228c-.228 0-.41.044-.41.044l-.316-.363.27-.588-.225-.046s-.273-.317-.137-.453l.136-.136s.18-.045 0-.362l-.182-.318-.182-.362.064-.363-.435-.136v-.498s.072-.046.027-.272c-.045-.227-.054-.59-.054-.59l.172.09-.145-.678V766.024l.118-.045.167.543-.285-.77v-.273c0-.136.05-.544.05-.544s-.043-.317-.043-.453-.185-.634-.185-.634l.178-.137v-.635s.118 0 .208-.226c.09-.227.308-.5.308-.5l.583-2.49-.098-.545v-1.313s-1.22.09-1.81.09c0 0-.61 1.133-.973 1.586-.362.453-1.62 2.175-3.115 2.628l.12 3.716s.558 1.904.603 2.357c0 0 2.273-.09 2.59.77.318.862.64 1.814.91 2.177.272.362.954 1.54.773 2.31-.182.77-.77 3.445-2.9 1.86 0 0 .09 3.398-.18 4.26-.273.86-.544 2.355-.77 3.035-.228.68-.726 2.31-.998 2.674-.272.362-.634.453-.725.68-.09.226-.544.77-.544.77l-.226.272-.318.453-.317.318s-.272.408-.453.59c-.18.18-.408.453-.408.453l.816-.362-.227.363s-.27.363-.407.41c-.136.044-.454.36-.454.36l-.407.364-.59.498-.272.363-.045.362-.272.136-.317.272-.273.182-.453.09-.5.18-.36-.09-.5-.27-.362.09.634.77-1.087-.408-.32-.046-.09.272.273.498.407.816-.362-.136-.18-.136-.364-.317-.725-.407-.364.18-.272-.27-.498-.273-.317-.045-.552.09-.823.952v-.498l-.31.452-.223.59-.03-.454-.437.453v-.497l-.263-.454-.404-.182-.302.136-.03-.09V792.264l-.195-.317-.164-.553-.165-.644h-.406l-.272 1h-.227s-.045-.332-.227-.24c-.18.09-.307.127-.307.127s-.035-.234-.035-.37v-.725l-.146-.272s-.39-.136-.39-.272-.105-.453-.105-.453l-.143-.182-.184-.136-.727-.634-.363-.363-.18-.18s-.092-.273-.228-.273c-.137 0-.68-.09-.68-.09l-.137-.182s.09-.09-.227-.045-1.178.272-1.178.272l.363-.514s.272-.468.09-.468h-.18l.18-.347.182-.333-.362-.302-.317-.128.045-.767-.136-.225s-.227-.18-.18-.316c.044-.136-.092-.317-.092-.317l-.408-.725.274-.226.23-.18v-1.18l-.524-.498-.477-.453v-.907l1-.815V778.125c0-.362-.183-.725-.183-.725s-.205-.137-.115-.5c.09-.362.08-.407.124-.543.047-.136.38-.635.426-.77.045-.137.076-.273.167-.454.09-.18.22-.59.265-.86.045-.273.132-.77.132-.77s.18-.318.225-.59c.045-.272.135-.77.18-.907.046-.136.09-.498.09-.498l.136-.408s-.497-.136-.95-.544c-.454-.408-.137-2.674.996-3.807 1.133-1.134 1.45-1.088 1.722-1.496.272-.408 1.813-1.18 2.584.136 0 0 .997-1.722 1.405-1.95l.59-2.763s-1.452-1.723-1.95-3.218l-.5-.228-.452.046-.453.136-.408-.136c-.136-.046-.362-.182-.362-.182s-.182-.09-.318-.09-.68-.09-.68-.09l-.634-.364s-.272-.09-.408-.27c-.136-.183-.498-.364-.498-.364l-.318-.317-.725-.18-.996-.272-.77-.816-.363-.408s-.316-.498-.452-.498-.634-.272-.634-.272l-.725-.363-.59-.497-.454-.5s-.272-.362-.362-.543l-.408-.816-.227-.453-.09-.407s-.41-2.13-.545-3.217c-.136-1.088.18-1.904-.272-2.674-.453-.77-.725-1.496-.68-2.266.046-.77.445-1.088.4-1.722-.046-.635.082-.997.082-1.54v-1.496l-.354-.635s-.086-.09-.494-.725c-.407-.634-.768-1.133-1.04-2.266s-.248-1.722-.157-2.356c.09-.635.396-.952.713-1.904.317-.952.674-1.224.81-2.402.136-1.178.315-1.27 1.176-2.085.86-.815 1.9-1.178 2.58-1.722.68-.543.544-.634 1.45-.634.907 0 1.63.18 1.63.18s.41-1.087.454-1.63c.046-.545.136-1.18.136-1.587 0-.408.045-1.587.045-1.587s-1.314-2.22-1.903-3.897c-.59-1.678-2.81-7.705-3.308-10.198-.5-2.492-1.95-4.668-2.22-6.163-.273-1.497-.5-2.494-1.18-4.216-.68-1.722-.95-3.127-1.404-4.668-.453-1.54-2.855-8.79-3.172-9.97-.318-1.178-1.043-4.44-1.315-6.3-.272-1.857-.498-4.848.544-8.11 1.043-3.264 2.855-7.57 3.354-9.382.5-1.813 1.632-4.804 2.312-5.8.68-.998 1.27-2.358 1.27-2.358s-.5-.453-.817-1.087c-.317-.636-1.27-2.267-.498-2.72.77-.453 1.767-.272 1.813-.635.045-.362-.046-.498-.454-1.133-.407-.634-.86-.815-.77-2.22.09-1.405.634-1.904.68-2.13.045-.227.09-.68-.046-1.54-.136-.862-.18-2.086-.362-2.403-.18-.318-.68.044-.952-1.043-.272-1.088-.362-1.723-.272-2.22.09-.5.09-1.225.09-1.225s6.844-2.31 12.418-.09c0 0-.272-.544-.453-1.54-.182-.998-.182-1.678-.137-2.358.045-.68-.317-10.74.09-13.73.41-2.992.816-7.207.816-9.518 0-2.312.815-3.807.815-5.574 0-1.768.272-3.898.272-3.898l.272-7.434h49.487s1.088 5.122 1.36 7.16c.272 2.04.816 5.69 1.087 7.593.272 1.903 2.176 8.894 2.176 10.525 0 1.632.408 3.428.408 3.428s.498.286.86 1.01c.363.726 1.36 1.458 1.36 1.458s-1.088-2.172-.09-2.716c.997-.543 1.36.002 1.812.818.453.816 1.18 2.176 1.813 2.992.635.816 1.45 1.45 2.085 2.63.634 1.177.725 1.36 1.178 3.08.453 1.723 1.722 3.173 1.722 4.17 0 .997-.725 3.626-.725 4.532 0 .907-.09 2.9-.09 2.9s3.353.454 3.353 1.813c0 1.36-.09 1.813-.363 3.263-.272 1.45-.725 2.63-.453 4.26.272 1.632 0 3.716-.18 5.076-.182 1.36-.635 1.27.09 3.354s1.087 3.625 1.087 4.35c0 .725.09 2.085.18 3.354.092 1.27 1.18 4.078 1 5.257-.183 1.178-.455 1.36-.183 2.175.272.816.816 1.36.725 2.175-.09.816-.544 1.994-.544 1.994s.815 1.633.815 2.81c0 1.18-.814 1.542-.724 2.54.09.996.453 1.902.544 2.99.09 1.088-.906 1.903-.906 3.172 0 1.27.362 3.445.18 4.804-.18 1.36-.543 2.175-.543 2.63 0 .452.273 6.434.273 6.434z" fill="none" stroke="#231f20" stroke-width="1.5"/></g><g><path d="M0 0c-.567-2.085.748-9.064 1.02-10.242.272-1.178.906-2.447 1.087-3.626.182-1.178-.272-1.36-.997-2.447s-2.084-3.625-3.172-5.53c-1.088-1.902-.363-3.17-.997-6.162-.634-2.99-2.174-5.076-3.534-8.34-1.36-3.262 0-6.07.816-10.422.816-4.35.09-8.61.09-8.61.182 5.257-2.175 9.7-2.9 11.783-.725 2.085-.816 4.35-.363 6.617.453 2.266-.272 4.44-.726 5.347-.453.907-1.087 2.448-1.722 4.623-.634 2.175-.997 3.172-1.63 4.622-.636 1.45-2.63 3.535-3.9 5.53-1.268 1.993-1.81 3.353-3.805 7.522-1.994 4.17-1.18 8.883-1.18 8.883l-.724 1.36s-1.903-2.81-3.082-8.067c0 0-3.548-1.598-7.864-3.642l-.153-.052c.097-.056.193-.11.292-.16.68-.338 1.155-.95 1.155-.95s1.972-2.855 2.312-3.263c.34-.408.475-1.02.068-1.292-.408-.27-.612-.203-.612-.203.476-.883-.34-1.155-.34-1.155-.612-.272-1.156-.136-1.156-.136s.204-.748-.408-1.224c-.61-.476-1.29-.068-1.29-.068.067-.544-.613-1.02-.613-1.02-.95-.407-2.038.748-2.038.748s-2.856 2.63-3.31 3.082c-.452.453-1.086.18-1.086.18s.634-1.358 1.087-1.902c.453-.544 1.18-1.088.182-1.36-.997-.272-3.324 1.82-3.535 2.63-.208.794-.865 1.095-1.45.815-.16-.09-2.22-1.337-2.22-1.337l-1.587-1.11c-3.445-2.81-3.898-3.536-4.85-4.67 0 0-1.314-2.22-1.903-3.896-.59-1.677-2.81-7.704-3.308-10.197-.5-2.492-1.95-4.667-2.22-6.163-.273-1.496-.5-2.493-1.18-4.215-.68-1.723-.95-3.128-1.404-4.67-.453-1.54-2.855-8.79-3.172-9.97-.317-1.177-1.043-4.44-1.314-6.298-.272-1.858-.5-4.85.543-8.112 1.043-3.263 2.855-7.568 3.354-9.38.498-1.814 1.63-4.805 2.31-5.802.68-.997 1.27-2.356 1.27-2.356s11.148-21.527 13.187-21.663c2.04-.137 3.943 1.767 5.03 2.718 1.088.952 8.158 5.982 8.566 6.39.407.408.543.544-.544 1.632 0 0 .543 1.36 2.99 0s4.35-2.855 6.662-3.4c2.31-.543 5.846-1.495 7.75-1.63 1.903-.137 4.078-1.088 4.486-1.088.408 0 1.903-.136 1.903-.136l.68-.952s-.543-.408 1.632 0c2.176.408 3.263 1.224 5.983 1.767 2.72.545 5.982 1.225 6.933 2.04.952.817 1.224.953 2.312 1.768 1.087.816 2.04 1.632 2.04 1.632l.135.815-.544 1.904s9.926-.545 9.518-2.72c0 0 .816-1.27-1.767-1.994 0 0 3.354.453 3.354 1.812 0 1.36-.09 1.813-.362 3.263-.272 1.452-.726 2.63-.454 4.26.272 1.633 0 3.718-.18 5.077-.182 1.36-.635 1.27.09 3.354.725 2.085 1.088 3.626 1.088 4.35 0 .726.09 2.086.18 3.355.09 1.27 1.18 4.078.998 5.257-.182 1.178-.453 1.36-.182 2.175.272.816.816 1.36.726 2.175-.09.816-.544 1.994-.544 1.994s.815 1.632.815 2.81c0 1.18-.816 1.54-.726 2.538.09.997.454 1.904.544 2.99.09 1.09-.906 1.905-.906 3.173 0 1.27.362 3.445.18 4.804-.18 1.36-.543 2.176-.543 2.63 0 .453.27 6.435.27 6.435s.273 3.263.273 4.804c0 1.54-.272 5.98-.272 6.978 0 .997-.452 4.713-.452 5.982 0 1.27.09 3.988-.09 5.438-.182 1.45-.544 4.306-1.428 5.46-.476.205-1.496 2.312-1.496 2.312s-.544-4.078-1.563-3.874c-1.02.204-.61 2.787-.61 2.787s-1.7-2.65-2.244-2.447c-.544.204-.476 1.495-.476 1.495s-.544-.543-1.156-.27c-.612.27-.612.747-.272 1.29.34.545.816 2.244.816 2.244-1.428-.748-2.515 1.292-2.515 1.292l-.297-.1c.863 1.123 1.57 2.113 1.724 2.5 0 0-2.266 1-2.99 1.724-.726.725-.907.997-1.18 1.36-.27.362-3.035 3.262-3.92 4.033L0 0z" fill="url(#b)" transform="translate(566.932 740.555)"/></g><g><path d="M588.073 695.78s.272 3.263.272 4.804c0 1.54-.272 5.982-.272 6.98 0 .996-.453 4.712-.453 5.98 0 1.27.09 3.99-.09 5.44-.182 1.45-.545 4.304-1.428 5.46 0 0 .204 0 .61.204.41.204.34.952 0 1.496-.34.543-.814 1.63-1.154 2.175-.34.543-1.292 1.902-1.7 2.242 0 0-.34 2.107-.883 2.312-.544.203-2.584 1.63-2.584 1.63l-.202 2.38-1.428.272s-1.156 3.535-2.31 3.467c-1.157-.068-2.177-1.564-2.177-1.564s-1.36.407-1.97.203c-.613-.204-2.38-.475-2.38-.475s-2.04 1.427-2.99 1.767c0 0 .68 4.554.747 5.438l.747 1.564s2.108.34 2.448 1.835c.34 1.496.68 3.603 1.155 4.555.476.95 2.38 4.758-.952 6.186l-.045.544-.094.27-.095.545v.363c0 .18-.042.453-.042.453s.02.227.066.363c.045.136-.025.363-.025.363v.408s1 .228 1 .364v.407s-.202.047-.293.273c-.09.227-.078-.045-.17.227-.09.272-.128.362-.22.544-.09.18-.11.544-.11.544s.237.136.01.317c-.226.18-.217.317-.217.453v.363l.117.182.58.18.017.228-.286.136-.325.18-.302.228.197.59v.316l.253.317.15.317.164.5.06.588-.084.363-.087.453-.087.226-.226-.18-.498.03-.41.166h-.225l-.227.378-.226.324.09.616.046.398.18.312-.18.27-.46.18-.233.316V775.768l-.266-.318-.18.136.003.182-.43.317-.305.317-.04 1.768-.27-.86-.314.09-.136-.182-.27-.324c-.182-.182-.41-.144-.545-.144h-.136l-.362.46-.136.503.135.228.317.25.09.194-.498.188-.725-.043.226.998-.046.182-.906-.952-.227.227-.136.272-.27.045-.862.5-.27.18-.183.134-.045-.366h-.272l-.272.14-.18.386-.273.215-.18.223s-.092.088-.047.224l.046.134.136.5-.318-.07-.317-.75h-.317l-.272.07-.18.057-.364.027-.317-.154h-.088V781.614l-.59-.18s-.16-.093-.34-.23c-.182-.135-.432-.454-.432-.454h-.453l-.136.32-.272.18-.182-.022-.09-.35-.544-.13c-.18-.046-.453-.043-.453-.043l-.272-.09s-.407-.09-.543-.09c-.136 0-.227.454-.227.454l-.453-.59-.18-.408-.726-.317-.452.045-.272.09-.408.046-.272-.09s-.136-.046-.272-.046l-.362-.002-.318.042h.25v.232l-.42-.498-.707-.272-.468-.18-.348-.183-.468-.59-.325.046.177.498.315.59-.545-.227-.18-.182-.228-.09-.455-.227-.498-.408-.18-.362-.183-.272-.226-.227-.318-.41-.27-.36s-.228-.183-.273-.318c-.046-.136-.272-.408-.272-.408-.18.09-.635.59-.635.59l-.136-.454-.09-.272-.363.09-.452.227-.453-.227v-.226l.09-.736-.226-.146h-.41l-.135-.397-.272-.29-.272-.235-.044-.413-.18-.228s.09-.228-.137-.228c-.228 0-.41.044-.41.044l-.316-.363.27-.588-.225-.046s-.273-.317-.137-.453l.136-.136s.18-.045 0-.362l-.182-.318-.182-.362.064-.363-.435-.136v-.498s.072-.046.027-.272c-.045-.227-.054-.59-.054-.59l.172.09-.145-.678V766.024l.118-.045.167.543-.285-.77v-.273c0-.136.05-.544.05-.544s-.043-.317-.043-.453-.185-.634-.185-.634l.178-.137v-.635s.118 0 .208-.226c.09-.227.308-.5.308-.5l.583-2.49-.098-.545v-1.313s-1.22.09-1.81.09c0 0-.61 1.133-.973 1.586-.362.453-1.62 2.175-3.115 2.628l.12 3.716s.558 1.904.603 2.357c0 0 2.273-.09 2.59.77.318.862.64 1.814.91 2.177.272.362.954 1.54.773 2.31-.182.77-.77 3.445-2.9 1.86 0 0 .09 3.398-.18 4.26-.273.86-.544 2.355-.77 3.035-.228.68-.726 2.31-.998 2.674-.272.362-.634.453-.725.68-.09.226-.544.77-.544.77l-.226.272-.318.453-.317.318s-.272.408-.453.59c-.18.18-.408.453-.408.453l.816-.362-.227.363s-.27.363-.407.41c-.136.044-.454.36-.454.36l-.407.364-.59.498-.272.363-.045.362-.272.136-.317.272-.273.182-.453.09-.5.18-.36-.09-.5-.27-.362.09.634.77-1.087-.408-.32-.046-.09.272.273.498.407.816-.362-.136-.18-.136-.364-.317-.725-.407-.364.18-.272-.27-.498-.273-.317-.045-.552.09-.823.952v-.498l-.31.452-.223.59-.03-.454-.437.453v-.497l-.263-.454-.404-.182-.302.136-.03-.09V792.264l-.195-.317-.164-.553-.165-.644h-.406l-.272 1h-.227s-.045-.332-.227-.24c-.18.09-.307.127-.307.127s-.035-.234-.035-.37v-.725l-.146-.272s-.39-.136-.39-.272-.105-.453-.105-.453l-.143-.182-.184-.136-.727-.634-.363-.363-.18-.18s-.092-.273-.228-.273c-.137 0-.68-.09-.68-.09l-.137-.182s.09-.09-.227-.045-1.178.272-1.178.272l.363-.514s.272-.468.09-.468h-.18l.18-.347.182-.333-.362-.302-.317-.128.045-.767-.136-.225s-.227-.18-.18-.316c.044-.136-.092-.317-.092-.317l-.408-.725.274-.226.23-.18v-1.18l-.524-.498-.477-.453v-.907l1-.815V778.125c0-.362-.183-.725-.183-.725s-.205-.137-.115-.5c.09-.362.08-.407.124-.543.047-.136.38-.635.426-.77.045-.137.076-.273.167-.454.09-.18.22-.59.265-.86.045-.273.132-.77.132-.77s.18-.318.225-.59c.045-.272.135-.77.18-.907.046-.136.09-.498.09-.498l.136-.408s-.497-.136-.95-.544c-.454-.408-.137-2.674.996-3.807 1.133-1.134 1.45-1.088 1.722-1.496.272-.408 1.813-1.18 2.584.136 0 0 .997-1.722 1.405-1.95l.59-2.763s-1.452-1.723-1.95-3.218l-.5-.228-.452.046-.453.136-.408-.136c-.136-.046-.362-.182-.362-.182s-.182-.09-.318-.09-.68-.09-.68-.09l-.634-.364s-.272-.09-.408-.27c-.136-.183-.498-.364-.498-.364l-.318-.317-.725-.18-.996-.272-.77-.816-.363-.408s-.316-.498-.452-.498-.634-.272-.634-.272l-.725-.363-.59-.497-.454-.5s-.272-.362-.362-.543l-.408-.816-.227-.453-.09-.407s-.41-2.13-.545-3.217c-.136-1.088.18-1.904-.272-2.674-.453-.77-.725-1.496-.68-2.266.046-.77.445-1.088.4-1.722-.046-.635.082-.997.082-1.54v-1.496l-.354-.635s-.086-.09-.494-.725c-.407-.634-.768-1.133-1.04-2.266s-.248-1.722-.157-2.356c.09-.635.396-.952.713-1.904.317-.952.674-1.224.81-2.402.136-1.178.315-1.27 1.176-2.085.86-.815 1.9-1.178 2.58-1.722.68-.543.544-.634 1.45-.634.907 0 1.63.18 1.63.18s.41-1.087.454-1.63c.046-.545.136-1.18.136-1.587 0-.408.045-1.587.045-1.587s-1.314-2.22-1.903-3.897c-.59-1.678-2.81-7.705-3.308-10.198-.5-2.492-1.95-4.668-2.22-6.163-.273-1.497-.5-2.494-1.18-4.216-.68-1.722-.95-3.127-1.404-4.668-.453-1.54-2.855-8.79-3.172-9.97-.318-1.178-1.043-4.44-1.315-6.3-.272-1.857-.498-4.848.544-8.11 1.043-3.264 2.855-7.57 3.354-9.382.5-1.813 1.632-4.804 2.312-5.8.68-.998 1.27-2.358 1.27-2.358s-.5-.453-.817-1.087c-.317-.636-1.27-2.267-.498-2.72.77-.453 1.767-.272 1.813-.635.045-.362-.046-.498-.454-1.133-.407-.634-.86-.815-.77-2.22.09-1.405.634-1.904.68-2.13.045-.227.09-.68-.046-1.54-.136-.862-.18-2.086-.362-2.403-.18-.318-.68.044-.952-1.043-.272-1.088-.362-1.723-.272-2.22.09-.5.09-1.225.09-1.225s6.844-2.31 12.418-.09c0 0-.272-.544-.453-1.54-.182-.998-.182-1.678-.137-2.358.045-.68-.317-10.74.09-13.73.41-2.992.816-7.207.816-9.518 0-2.312.815-3.807.815-5.574 0-1.768.272-3.898.272-3.898l.272-7.434h49.487s1.088 5.122 1.36 7.16c.272 2.04.816 5.69 1.087 7.593.272 1.903 2.176 8.894 2.176 10.525 0 1.632.408 3.428.408 3.428s.498.286.86 1.01c.363.726 1.36 1.458 1.36 1.458s-1.088-2.172-.09-2.716c.997-.543 1.36.002 1.812.818.453.816 1.18 2.176 1.813 2.992.635.816 1.45 1.45 2.085 2.63.634 1.177.725 1.36 1.178 3.08.453 1.723 1.722 3.173 1.722 4.17 0 .997-.725 3.626-.725 4.532 0 .907-.09 2.9-.09 2.9s3.353.454 3.353 1.813c0 1.36-.09 1.813-.363 3.263-.272 1.45-.725 2.63-.453 4.26.272 1.632 0 3.716-.18 5.076-.182 1.36-.635 1.27.09 3.354s1.087 3.625 1.087 4.35c0 .725.09 2.085.18 3.354.092 1.27 1.18 4.078 1 5.257-.183 1.178-.455 1.36-.183 2.175.272.816.816 1.36.725 2.175-.09.816-.544 1.994-.544 1.994s.815 1.633.815 2.81c0 1.18-.814 1.542-.724 2.54.09.996.453 1.902.544 2.99.09 1.088-.906 1.903-.906 3.172 0 1.27.362 3.445.18 4.804-.18 1.36-.543 2.175-.543 2.63 0 .452.273 6.434.273 6.434z" fill="none" stroke="#231f20" stroke-width="1.5"/></g><g><path d="M541.472 758.003l.372-.52v-.545s-.032-.136.036-.34c.068-.204-.22.204-.016-.204.204-.408.66-1.155.66-1.155s.32.34.32.542v4.147s-.498 2.922-.43 3.262c.068.34-.08 2.175.124 2.31.204.137.233.41.777.613.543.204 1 .612 1.475.68.476.068 1.35-.068 1.35-.068s-2.044-.612-2.384-1.496c0 0 1.153.885 2.376 1.157 1.224.272 2.922.748 2.922.748s-.544-1.768-1.36-2.107c0 0 1.427 1.36 1.835 2.107 0 0 .68-.816-.273-2.04 0 0 1.36 2.04 1.428 2.788 0 0 .68-2.176.27-4.01 0 0 .613 2.99.545 3.466-.068.475.34-3.264.34-3.264l.068 2.583.884-2.176s-.136 1.7-.272 2.243c-.136.544.68 1.156.68 1.156s2.31-2.04 3.67-2.38c0 0-2.72 1.496-3.194 2.448l1.495.07s2.584-1.225 2.38-2.45c0 0-.815 1.973-1.155 2.516-.34.544.476.476.476.476l.544.136 1.224.204 1.02.425.476.424h.68l.407-.355s.205.06.273-.145c.068-.204.34-.412.34-.412l.204-.41.272-.68-.205-.613s.068-.408 0-.612c-.068-.204-.068-1.02-.068-1.02s0-.27-.068-.61c-.07-.34-.07-.953-.07-.953l.613-.884.408-.612s.07-.272.205-.476c.136-.203.068-.27.475-.475.408-.204.544 0 .748-.34l.204-.34s.272-.408.408-.68c.136-.272.442-.612.442-.612l.442-1.834v-2.175s.136-.883.136-1.29c0-.41-.068-.137 0-.41.068-.27.272-.665.272-.665l.068-.394h.61l.41.055.135.367s.068.252.068.59c0 .34-.136.467.068.74.205.27 0 .334.273.538.272.204.204.405.476.61.27.203.203.202.34.474.135.272.27.61.27.61s.137.34.205.544c.068.204.136.34.136.68s0 .408.07.612c.067.204.338.61.338.61l.272.273.34.34.272.204.56.136" fill="none" stroke="#231f20" stroke-width=".5"/></g><g><path d="M541.78 756.394s-.566-3.15.974-5.96c0 0 .363-3.08.544-4.803.182-1.72.997-4.44 2.175-5.89 1.18-1.45 3.082-3.264 3.807-3.898.725-.635 2.9-2.447 6.073-1.722 3.172.725 4.622 1.813 5.166 2.538.543.725 5.8 4.35 6.163 8.338" fill="none" stroke="#231f20" stroke-width=".544"/></g><g><path d="M566.932 740.555l-1.97-11.33s-2.54-4.894-5.802-5.89c0 0-1.27 2.355-2.81 3.08-1.54.726-11.51 6.98-10.15 12.51l-1.18 1.177s-.815-4.713 1.18-8.883c1.993-4.17 2.536-5.53 3.805-7.524 1.27-1.994 3.263-4.078 3.898-5.53.634-1.45.997-2.446 1.63-4.62.636-2.176 1.27-3.717 1.723-4.624.454-.906 1.18-3.08.725-5.347-.452-2.266-.36-4.532.364-6.617.725-2.084 3.082-6.526 2.9-11.783 0 0 .726 4.26-.09 8.61-.816 4.352-2.176 7.16-.816 10.424 1.36 3.262 2.9 5.347 3.535 8.338.634 2.99-.09 4.26.997 6.163 1.088 1.905 2.447 4.443 3.172 5.53.725 1.088 1.18 1.27.997 2.447-.182 1.18-.816 2.448-1.088 3.626-.272 1.178-1.587 8.157-1.02 10.242z" fill="none" stroke="#231f20" stroke-width=".544"/></g><g><path d="M522.81 724.51c-1.9-1.023-3.41-1.92-4.166-2.536-3.444-2.81-3.898-3.534-4.85-4.667" fill="none" stroke="#231f20" stroke-width=".544"/></g><g><path d="M544.295 741.462s-1.903-2.81-3.082-8.067c0 0-3.55-1.598-7.865-3.642" fill="none" stroke="#231f20" stroke-width=".544"/></g><g><path d="M541.213 733.395s1.178-.362 1.36-1.36c.18-.997.543-1.812.453-3.08-.09-1.27.453-1.814 0-2.81-.453-.998-1.632-2.267-1.27-3.264.363-.996.998-.815 2.992-1.812 1.994-.997 7.432-2.72 10.967-8.43" fill="none" stroke="#231f20" stroke-width=".544"/></g><g><path d="M563.238 710.373s1.632 3.354 3.263 5.348c1.632 1.995 2.448 2.992 3.717 5.258 1.27 2.266 1.36 2.537 2.72 4.078 1.36 1.54 4.712 5.71 5.075 6.617 0 0-2.266.997-2.99 1.722-.726.725-.907.997-1.18 1.36-.27.362-3.036 3.262-3.92 4.033" fill="none" stroke="#231f20" stroke-width=".544"/></g><g><path d="M506.77 646.247s11.15-21.526 13.19-21.662c2.038-.136 3.942 1.767 5.03 2.72 1.087.95 8.157 5.98 8.565 6.39.407.407.543.542-.544 1.63-1.087 1.088-3.534 5.438-4.622 6.39s-1.63 1.224-2.04 2.175c-.407.952-.543 2.176-1.63 3.263-1.088 1.088-1.496 1.36-2.176 3.807-.68 2.447-2.583 4.76-2.583 5.846 0 1.088.95.408 0 1.904-.953 1.495-1.77 2.175-1.77 3.535 0 1.36.273 1.903 0 3.806-.27 1.905.68 2.45.68 3.808 0 1.36.41 2.72.68 3.4.273.68 4.352 8.7 5.44 13.595 1.087 4.894 4.894 10.74 4.894 10.74" fill="none" stroke="#231f20" stroke-width=".544"/></g><g><path d="M576.584 729.27s1.088-2.038 2.515-1.29c0 0-.477-1.7-.817-2.244-.34-.544-.34-1.02.272-1.29.612-.273 1.156.27 1.156.27s-.067-1.29.477-1.495c.544-.203 2.243 2.448 2.243 2.448s-.408-2.583.612-2.787c1.02-.203 1.563 3.876 1.563 3.876s1.02-2.107 1.496-2.31" fill="none" stroke="#231f20" stroke-width=".544"/></g><g><path d="M580.39 734.505s-2.106 1.768-8.632 2.38" fill="none" stroke="#231f20" stroke-width=".544"/></g><g><path d="M519.687 757.46s-.34-1.882.544-3.31c.884-1.427 3.196-3.806 3.468-5.098.272-1.29.544-1.427.544-1.427s2.243 1.223 3.738 1.7c1.496.475 3.4 1.767 3.4 1.767s.407 0-1.428 1.7c-1.836 1.7-2.176 2.378-3.4 3.806-1.223 1.427-3.375 3.603-4.916 4.08" fill="none" stroke="#231f20" stroke-width=".544"/></g><g><path d="M535.186 766.93s-1.496-3.262-6.186-4.69c-6.254-1.155-9.857 4.215-9.857 4.215" fill="none" stroke="#231f20" stroke-width=".544"/></g><g><path d="M537.044 775.496l-.974-.476-.272 1.836-.01.747s.057.204.057.544v.34c0 .476-.058.272-.262.884-.203.613-.096.137-.3.613-.204.475-.457.68-.457.883 0 .204-.296.884-.296.884l-.556 2.04-.414.815-.478.68-.682.476-1.496 1.02-.884.408-.476-.068s0-.408-.204-.476c-.204-.067.136-.067-.612.748-.748.816-.612-.815-.612-.815l-.952 1.087-.203-.816s-1.29 1.564-2.04 1.564c-.746 0-2.514 0-2.854-.544-.34-.544-.476-1.36-.476-1.36s-.408.476-1.087.476c-.68 0-1.36-.068-1.632-.204-.27-.136-1.222-.95-1.426-1.155-.204-.204-.544-.544-.612-1.088-.068-.544-.544-1.088-.544-1.088l-.46-.884s.017-.068.017-.34v-3.467s.22-.137.22-.817c0-.68-.092-.883-.024-1.223.07-.34-.01-.204.057-.816.068-.612.06-1.156.13-1.496.067-.34-.14.136.064-.34.205-.475.34-1.29.34-1.29s.203-.205.406-.953c.204-.748.272-1.087.272-1.087l-.136-.408-.476.068s-.884.815-1.632.747" fill="none" stroke="#231f20" stroke-width=".5"/></g><g><path d="M554.265 717.08s-.363 8.52 2.085 9.336" fill="none" stroke="#231f20" stroke-width=".544"/></g><g><path d="M559.16 723.334s.36-1.45 1.087-1.994c.725-.544 2.81 2.81 3.08 3.716.273.906 1.633 4.17 1.633 4.17" fill="none" stroke="#231f20" stroke-width=".544"/></g><g><path d="M522.45 724.422s.907-.18 1.45-.816c.545-.634 2.54-2.9 3.536-2.628.997.272.272.816-.18 1.36-.454.543-1.09 1.903-1.09 1.903s.636.273 1.09-.18c.452-.454 3.307-3.082 3.307-3.082s1.088-1.156 2.04-.748c0 0 .68.476.61 1.02 0 0 .68-.408 1.293.068.612.476.408 1.223.408 1.223s.543-.135 1.155.137c0 0 .815.272.34 1.156 0 0 .203-.068.61.204.41.272.273.883-.067 1.29-.34.41-2.31 3.264-2.31 3.264s-.477.613-1.157.953c-.68.34-1.292.884-2.175 1.156-.883.27-1.155.407-1.97.34-.816-.07-1.292-.41-2.108-.41-.816 0-1.224-.067-1.835 0-.612.07-1.02.137-1.7.137-.68 0-1.63-.408-2.175-.748-.544-.34-1.428-4.692-1.972-5.575-.543-.884-1.7-1.292-1.7-1.292s.817-.204 1.225-.204c.408 0 1.155.135 1.155.135s2.062 1.246 2.22 1.337z" fill="none" stroke="#231f20" stroke-width=".544"/></g><g><path d="M531.38 751.092s2.13-1.11 2.582-1.292c.453-.18.635-.09 1.088.363.453.453.816 1.088 1.36 1.813.543.725.996 1.27.996 2.084 0 .816 0 2.72-2.084 3.988 0 0-.363 3.082-.318 4.26" fill="none" stroke="#231f20" stroke-width=".544"/></g><g><path d="M543.026 748.713c-1.45.362-2.447 1.54-3.172 2.81-.725 1.27-1.813 1.54-1.813 1.54s-1.54-5.438-2.718-6.525c0 0-2.447.453-3.444.725-.997.272-3.717.634-4.714 1.812" fill="none" stroke="#231f20" stroke-width=".544"/></g><g><path d="M542.12 751.885s-.363-.635-1.09 1.54c-.724 2.176-1.358 3.626-1.766 4.67" fill="none" stroke="#231f20" stroke-width=".544"/></g><g><path d="M525.057 730.698s-.612.272-1.563.408c-.952.136-.816 0-1.7.272s-1.02.408-1.63.544c-.613.135-.477-.136-.41.68.07.816.477 1.564.07 2.652-.41 1.087-.34.747-.75 1.835-.407 1.087-.407 1.562-.203 2.038.205.476-2.242 5.575-3.806 7.41" fill="none" stroke="#231f20" stroke-width=".544"/></g><g><path d="M518.87 739.128s1.428.68 1.564 3.06" fill="none" stroke="#231f20" stroke-width=".544"/></g><g><path d="M519.755 731.99s-.884-.544-1.36-.884c-.475-.34-.34-.068-1.02 0-.68.068-1.29.068-1.427-.272-.136-.34-.748-1.36-.612-2.515.136-1.156.136-2.244.204-2.788.068-.544-.04-.544-.04-.544l-.655-.476v-1.087s.11-.476.586-.816c.476-.34 1.755-.885 1.755-.885l1.047-.136" fill="none" stroke="#231f20" stroke-width="1.5"/></g><g><path d="M513.16 722.11s.34-.317 1.157-.453c.815-.136 2.923.068 2.923.068" fill="none" stroke="#231f20" stroke-width=".544"/></g><g><path d="M533.01 635.325s.544 1.36 2.99 0c2.448-1.36 4.352-2.855 6.663-3.4 2.31-.543 5.846-1.494 7.75-1.63 1.903-.136 4.078-1.088 4.486-1.088.407 0 1.902-.136 1.902-.136l.68-.95s-.544-.41 1.632 0c2.175.407 3.263 1.223 5.982 1.767 2.72.544 5.982 1.223 6.933 2.04.95.815 1.223.95 2.31 1.767 1.088.815 2.04 1.63 2.04 1.63l.136.817-.544 1.904s9.925-.544 9.517-2.72c0 0 .815-1.268-1.768-1.993 0 0-.136 2.13-.952 3.49" fill="none" stroke="#231f20" stroke-width=".544"/></g><g><path d="M573.797 612.484c-2.04 1.36-.408 3.897-.408 3.897l-.907.092c-1.27 1.632 1.722 3.988 2.084 4.35.363.363 1.632 2.448 1.632 2.448s.996 2.946 1.132 3.49c.136.543-.408 1.903-.816 2.447-.408.543-2.447 1.36-2.447 1.36s.68.95-.545 2.446" fill="none" stroke="#231f20" stroke-width=".544"/></g><g><path d="M541.394 632.334s-1.088-2.085-.362-3.626c.725-1.54 1.087-1.994 1.903-2.81.816-.815 3.716-2.9 3.716-2.9s1.09-1.63.817-2.447c-.272-.815-1.27-2.355-2.448-1.993 0 0 .634-1.27 0-1.994-.635-.725-1.904-1.813-3.082-.997 0 0-.18-1.36-1.088-1.722-.906-.363-2.084-.363-2.99.544 0 0-.998-2.63-2.448-1.632-1.45.997-2.266 1.632-3.263 2.63-.998.996-2.176 2.083-2.9 2.446-.726.363-3.808 2.99-4.443 4.44-.634 1.45-1.812 3.355-1.812 3.355" fill="none" stroke="#231f20" stroke-width=".544"/></g><g><path d="M561.244 685.176s-.363-2.72-1.813-4.17c-1.45-1.45-2.9-3.987-2.355-6.888.543-2.9 1.45-6.526 1.087-9.97-.362-3.444.725-5.62.907-7.976.18-2.357.18-4.894.18-7.432 0-2.538.725-3.626-.363-5.44-1.087-1.81-.725-2.174-1.087-5.074-.363-2.9-.182-3.988-.544-4.895-.363-.905-.907-2.718-.453-4.26" fill="none" stroke="#231f20" stroke-width=".544"/></g><g><path d="M560.745 721.114s-.68-.68-.816-2.72c-.136-2.04-.815-3.263-1.087-5.438-.272-2.176-.68-4.76-.816-6.662" fill="none" stroke="#231f20" stroke-width=".544"/></g><g><path d="M574.07 630.567s-.273-2.04-.137-4.08c.136-2.038.634-5.664.634-5.664" fill="none" stroke="#231f20" stroke-width=".544"/></g><g><path d="M506.77 636.005s.545-.816 1.633-.136c1.087.68 1.835-.273 2.65-.41.816-.135 1.7-.203 1.7-.203" fill="none" stroke="#231f20" stroke-width=".544"/></g><g><path d="M559.612 690.976c0-.85-.69-1.54-1.54-1.54-.852 0-1.542.69-1.542 1.54 0 .85.69 1.54 1.54 1.54.852.002 1.542-.688 1.542-1.54z" fill="none" stroke="#231f20" stroke-width=".544"/></g><g><path d="M561.34 677.46c-.108-.946-.76-1.648-1.456-1.57-.696.08-1.174.91-1.067 1.855.108.945.76 1.647 1.455 1.568.697-.08 1.174-.91 1.067-1.854z" fill="none" stroke="#231f20" stroke-width=".544"/></g><g><path d="M562.15 662.426c0-.9-.65-1.632-1.45-1.632-.8 0-1.45.73-1.45 1.632 0 .9.65 1.63 1.45 1.63.8 0 1.45-.73 1.45-1.63z" fill="none" stroke="#231f20" stroke-width=".544"/></g><g><path d="M563.42 647.198c0-.9-.61-1.63-1.36-1.63-.752 0-1.36.73-1.36 1.63 0 .9.608 1.632 1.36 1.632.75 0 1.36-.73 1.36-1.632z" fill="none" stroke="#231f20" stroke-width=".544"/></g><g><path d="M560.753 632.627c-.255-.916-.93-1.528-1.51-1.367-.58.16-.84 1.035-.585 1.95.255.917.93 1.53 1.51 1.368.578-.16.84-1.035.585-1.95z" fill="none" stroke="#231f20" stroke-width=".544"/></g><g><path d="M575.973 638.044s-1.042.725-.952 2.447c.092 1.723.183 2.267.183 3.9 0 1.63-.363 2.265.18 3.443.545 1.178.907.816.817 2.9-.09 2.085-.454 3.626-.544 4.17-.09.543 0 4.078-.182 6.707-.18 2.628-.362 3.444-.27 5.53.09 2.083.18 2.808.09 4.53-.09 1.723-.454 2.992-.726 4.986-.272 1.994.18 2.356-.363 4.803-.543 2.447-.906 5.075-.906 5.075s4.168 4.623 5.256 6.98c1.088 2.356 3.172 3.625 4.08 12.598" fill="none" stroke="#231f20" stroke-width=".544"/></g><g><path d="M529.204 728.66s4.69-4.216 5.71-6.12" fill="none" stroke="#000" stroke-width=".326" stroke-miterlimit="10"/></g><g><path d="M527.3 727.096s1.767-1.224 2.72-2.38c.95-1.155 3.194-3.466 3.194-3.466" fill="none" stroke="#000" stroke-width=".326" stroke-miterlimit="10"/></g><g><path d="M531.175 729.95s2.107-2.242 2.787-3.126c.68-.884 2.447-2.99 2.447-2.99" fill="none" stroke="#000" stroke-width=".326" stroke-miterlimit="10"/></g><g><path d="M579.71 724.716s1.7 2.04 1.904 2.855c.204.817.408 3.06.204 4.012" fill="none" stroke="#000" stroke-width=".326" stroke-miterlimit="10"/></g><g><path d="M582.43 725.668s1.02 2.31.545 5.37" fill="none" stroke="#000" stroke-width=".326" stroke-miterlimit="10"/></g><g><path d="M584.606 726.756s.068 1.156-.204 2.38" fill="none" stroke="#000" stroke-width=".326" stroke-miterlimit="10"/></g><g><path d="M538.585 619.01l3.354-3.444" fill="none" stroke="#000" stroke-width=".326" stroke-miterlimit="10"/></g><g><path d="M534.506 617.288s1.27-.272 1.722-.997c.453-.724 1.632-1.902 1.632-1.902" fill="none" stroke="#000" stroke-width=".326" stroke-miterlimit="10"/></g><g><path d="M575.746 614.57s.453 1.72 1.632 2.81c1.178 1.086 2.72 2.9 2.99 3.805" fill="none" stroke="#000" stroke-width=".326" stroke-miterlimit="10"/></g><g><path d="M573.752 616.744s1.994 1.36 2.9 2.175c.907.815 2.99 2.084 3.535 4.712" fill="none" stroke="#000" stroke-width=".326" stroke-miterlimit="10"/></g></g></g><g><g clip-path="url(#c)" transform="matrix(1.25 0 0 -1.25 -606.576 993.476)"><g><path d="M606.01 708.584c0-33.137-26.862-60-60-60-33.136 0-60 26.863-60 60" fill="none" stroke="#231f20" stroke-width="1.5"/></g></g></g></g></svg>