<?xml version="1.0" encoding="UTF-8" standalone="no"?>
<svg
   xmlns:dc="http://purl.org/dc/elements/1.1/"
   xmlns:cc="http://creativecommons.org/ns#"
   xmlns:rdf="http://www.w3.org/1999/02/22-rdf-syntax-ns#"
   xmlns:svg="http://www.w3.org/2000/svg"
   xmlns="http://www.w3.org/2000/svg"
   version="1.1"
   id="svg10845"
   height="195.60275"
   width="200.0005">
  <defs
     id="defs4809">
    <pattern
       id="polka"
       patternTransform="rotate(20)"
       height="5"
       width="5"
       patternUnits="userSpaceOnUse">
      <rect
         y="0"
         x="0"
         height="5"
         width="5"
         style="fill:#ffffff"
         id="polka__bg" />
      <circle
         cx="2"
         style="fill:#ff0000"
         cy="2"
         r="1.5"
         id="polka__inner" />
    </pattern>
    <clipPath
       id="clipPath1238">
      <path
         id="path1240"
         d="m 0,863.584 938.953,0 L 938.953,0 0,0 0,863.584 Z" />
    </clipPath>
    <clipPath
       id="clipPath1254">
      <path
         id="path1256"
         d="m 34.377,812.584 -0.499,-104.5 c 0,-33.137 26.613,-60 59.75,-60 l 0,0 c 33.137,0 59.75,26.863 59.75,60 l 0,0 0,104.5 -119.001,0 z" />
    </clipPath>
    <clipPath
       id="clipPath1418">
      <path
         id="path1420"
         d="m 0,863.584 938.953,0 L 938.953,0 0,0 0,863.584 Z" />
    </clipPath>
  </defs>
  <metadata
     id="metadata10850">
    <rdf:RDF>
      <cc:Work
         rdf:about="">
        <dc:format>image/svg+xml</dc:format>
        <dc:type
           rdf:resource="http://purl.org/dc/dcmitype/StillImage" />
        <dc:title></dc:title>
      </cc:Work>
    </rdf:RDF>
  </metadata>
  <g
     style="display:inline"
     transform="translate(-282.08096,-278.41122)"
     id="layer1">
    <ellipse
       style="color:#000000;display:inline;overflow:visible;visibility:visible;opacity:1;fill:none;fill-opacity:1;fill-rule:nonzero;stroke:#000000;stroke-width:2;stroke-miterlimit:4;stroke-dasharray:none;stroke-opacity:1;marker:none;enable-background:accumulate"
       id="path6022"
       cx="382.06821"
       cy="398.07648"
       rx="74.9505"
       ry="74.950493" />
    <g
       id="layer1-7"
       transform="translate(-0.01299821,2.0507814e-6)">
      <g
         transform="matrix(1.25,0,0,-1.25,264.73408,1283.1816)"
         id="g1252"
         clip-path="url(#clipPath1254)">
        <path
           d="m 126.0697,654.9549 c 0,0 0.734,0.781 0.245,2.337 -0.49,1.556 -0.734,3.941 -0.979,6.694 -0.245,2.754 -1.332,11.322 -1.332,11.322 l 1.821,0.403 -1.136,5.454 c 4.829,0.505 8.302,1.355 11.779,3.163 0,0 2.936,0.958 4.403,1.436 1.468,0.479 2.814,0.599 3.548,2.155 0.734,1.556 1.468,18.315 -9.297,31.842 l -0.122,0.478 c 1.59,1.197 -1.835,4.789 -2.447,5.986 -0.611,1.197 -1.957,4.07 -2.202,5.027 -0.244,0.958 -1.223,2.873 -1.834,3.95 -0.612,1.078 -1.591,2.634 -2.936,5.028 -1.287,2.29 -5.361,3.263 -5.715,3.344 0.382,0.048 0.618,0.088 0.618,0.088 -8.645,1.436 -8.155,11.252 -8.4,14.045 -0.245,2.793 -1.06,11.492 -1.631,14.764 -0.571,3.272 -1.876,12.689 -7.095,19.951 -5.219,7.262 -9.052,3.99 -9.052,3.99 -16.392,6.544 -22.834,-13.806 -23.894,-17.477 -1.061,-3.671 -1.55,-5.826 -3.833,-10.933 -2.284,-5.108 -1.631,-10.055 -1.631,-10.055 -2.039,-2.554 -1.142,-9.337 -1.142,-9.337 0,1.436 1.06,3.591 1.06,3.591 -0.652,-3.911 2.528,-8.14 2.528,-8.14 -0.063,-0.394 -0.089,-0.82 -0.088,-1.268 l -0.319,0.071 c 0,0 -6.361,-0.359 -8.808,-3.352 -2.446,-2.993 -4.159,-11.612 -2.446,-19.632 1.712,-8.02 2.201,-8.379 2.201,-8.379 0,0 6.728,-16.998 9.786,-21.068 1.101,-1.465 2.168,-2.987 4.097,-4.254 0,0 0.185,-4.126 -0.916,-5.802 -1.101,-1.675 -3.181,-6.105 -3.058,-8.259 0.122,-2.155 1.345,-4.789 0.612,-6.464 -0.735,-1.676 -1.713,-5.507 -1.835,-7.542 -0.123,-2.035 -0.245,-7.661 -0.245,-7.661 0,-0.001 0.669,-5.626 -0.063,-9.287 -0.733,-3.661 -1.709,-19.08 1.708,-26.08 l 58.576,0 c 0,0 5.05,21.933 -0.526,39.871"
           id="path1260"
           style="fill:#ffffff;fill-opacity:1;fill-rule:nonzero;stroke:#000000;stroke-width:1.60000002;stroke-miterlimit:4;stroke-dasharray:none;stroke-opacity:1" />
        <path
           d="m 98.3017,681.5743 c -1.59,0.239 -1.59,0 -11.499,-2.634 -2.928,-0.778 -4.997,-0.863 -6.465,-0.601 l 3.53,-11.968 41.957,9.337 -1.101,5.387 c 0,0 -0.028,0.017 -0.078,0.046 -11.761,-1.431 -25.188,0.259 -26.344,0.433"
           id="path1312"
           style="fill:url(#polka);fill-opacity:1;fill-rule:nonzero;stroke:none" />
        <path
           d="m 119.5379,709.8231 c -1.121,-0.589 -2.27,-1.662 -3.254,-3.589 0,0 -13.456,-4.19 -23.242,-4.31 -9.786,-0.12 -9.786,1.077 -14.924,-0.239 0,0 -0.489,3.83 -1.59,5.027 -1.101,1.197 -1.835,2.035 -1.957,2.754 -0.123,0.718 -2.036,13.547 -2.036,13.547 l -0.166,0.099 44.403,9.135 2.766,-22.424 z"
           id="path1360"
           style="fill:url(#polka);fill-opacity:1;fill-rule:nonzero;stroke:none" />
        <path
           d="m 98.6279,728.5787 c 0,0 -4.811,8.06 -1.957,13.088 0,0 -0.326,11.252 4.159,17.477"
           id="path1364"
           style="fill:none;stroke:#231f20;stroke-width:0.5;stroke-linecap:butt;stroke-linejoin:miter;stroke-miterlimit:4;stroke-dasharray:none;stroke-opacity:1" />
        <path
           d="m 74.1627,723.4712 c 0,0 -3.344,7.741 -2.936,11.572 0,0 -1.223,-2.155 -0.571,-4.23 0,0 -3.996,8.699 -3.262,13.247 0,0 -3.18,4.23 -2.528,8.14 0,0 -1.06,-2.154 -1.06,-3.591 0,0 -0.897,6.784 1.142,9.337 0,0 -0.653,4.948 1.631,10.056 2.283,5.107 2.772,7.262 3.833,10.933 1.06,3.671 7.502,24.02 23.894,17.477 0,0 3.833,3.272 9.052,-3.991 5.219,-7.262 6.524,-16.678 7.095,-19.95 0.571,-3.272 1.386,-11.971 1.631,-14.764 0.245,-2.793 -0.245,-12.609 8.4,-14.046 0,0 -3.751,-0.638 -5.546,0.16 0,0 1.958,-4.389 1.876,-7.581 -0.081,-3.192 1.305,-7.661 2.854,-10.535 1.55,-2.872 3.344,-8.618 2.365,-12.449 0,0 -0.571,1.197 -0.978,2.474 0,0 -0.327,-1.357 -1.876,-2.155"
           id="path1368"
           style="fill:none;stroke:#231f20;stroke-width:0.5;stroke-linecap:butt;stroke-linejoin:miter;stroke-miterlimit:4;stroke-dasharray:none;stroke-opacity:1" />
        <path
           d="m 79.7297,762.3889 c 0,0 1.665,-7.498 11.407,-7.498 9.743,0 11.408,7.498 11.408,7.498 0,0 1.302,5.294 1.139,8.246 -0.163,2.953 -0.326,5.108 -0.081,6.624 0.244,1.516 0.326,6.384 -1.06,7.661 -1.387,1.277 -6.035,5.028 -6.851,5.985 0,0 -3.588,-1.596 -8.073,-1.356 0,0 -2.121,0.558 -3.588,-0.958 -1.468,-1.516 -2.284,-3.431 -2.202,-5.825 0,0 0.897,-7.502 -0.245,-11.093 -1.142,-3.591 -2.365,-7.103 -2.039,-8.938 0.326,-1.836 0.653,-4.629 2.284,-6.943 1.631,-2.314 2.528,-7.182 0.978,-10.215 0,0 -0.326,-2.235 1.305,-3.99 1.631,-1.756 7.666,-9.018 2.854,-15.482"
           id="path1372"
           style="fill:none;stroke:#231f20;stroke-width:0.5;stroke-linecap:butt;stroke-linejoin:miter;stroke-miterlimit:4;stroke-dasharray:none;stroke-opacity:1" />
        <path
           d="m 72.3686,723.1121 44.403,9.135 2.746,-22.231"
           id="path1376"
           style="fill:none;stroke:#231f20;stroke-width:0.5;stroke-linecap:butt;stroke-linejoin:miter;stroke-miterlimit:4;stroke-dasharray:none;stroke-opacity:1" />
        <path
           d="m 66.9862,742.8635 c 0,0 -6.361,-0.359 -8.807,-3.352 -2.447,-2.992 -4.16,-11.611 -2.447,-19.631 1.713,-8.021 2.202,-8.38 2.202,-8.38 0,0 -1.59,7.542 15.291,7.182 l -0.857,4.43"
           id="path1380"
           style="fill:none;stroke:#231f20;stroke-width:0.5;stroke-linecap:butt;stroke-linejoin:miter;stroke-miterlimit:4;stroke-dasharray:none;stroke-opacity:1" />
        <path
           d="m 119.8311,743.5818 c 0,0 4.404,-0.958 5.749,-3.352 1.346,-2.394 2.325,-3.95 2.936,-5.027 0.612,-1.078 1.59,-2.993 1.835,-3.951 0.245,-0.957 1.59,-3.83 2.202,-5.027 0.611,-1.197 4.037,-4.789 2.446,-5.986 0,0 -3.669,2.754 -12.599,-2.872"
           id="path1384"
           style="fill:none;stroke:#231f20;stroke-width:0.5;stroke-linecap:butt;stroke-linejoin:miter;stroke-miterlimit:4;stroke-dasharray:none;stroke-opacity:1" />
        <path
           d="m 57.9341,711.5007 c 0,0 6.728,-16.998 9.786,-21.068 3.058,-4.07 8.196,-9.098 21.652,-5.507 13.456,3.591 17.37,6.105 20.673,7.302 3.303,1.197 8.318,2.993 9.174,2.993 0.857,0 4.404,0.958 6.239,1.796 1.835,0.838 4.159,1.915 3.914,3.112 -0.244,1.197 -0.734,2.035 -0.611,3.232 0.122,1.197 0.489,1.556 -0.489,2.514 -0.979,0.957 -1.835,1.077 -1.835,1.915 0,0.838 -0.367,2.274 -2.202,2.514 -1.835,0.239 -5.383,0.958 -7.951,-4.07 0,0 -13.456,-4.19 -23.242,-4.31 -9.786,-0.119 -9.786,1.078 -14.924,-0.239 0,0 -0.489,3.831 -1.59,5.028 -1.101,1.197 -1.835,2.035 -1.958,2.753 -0.122,0.718 -1.345,9.217 -1.345,9.217"
           id="path1388"
           style="fill:none;stroke:#231f20;stroke-width:0.5;stroke-linecap:butt;stroke-linejoin:miter;stroke-miterlimit:4;stroke-dasharray:none;stroke-opacity:1" />
        <path
           d="m 74.3258,684.6866 c 0,0 0.367,-2.633 2.447,-3.112 0,0 0.122,-5.267 10.03,-2.634 9.909,2.634 9.909,2.873 11.499,2.634 1.59,-0.24 26.422,-3.352 38.166,2.753 0,0 2.935,0.958 4.403,1.436 1.468,0.479 2.814,0.599 3.548,2.155 0.734,1.556 1.468,18.315 -9.297,31.842"
           id="path1392"
           style="fill:none;stroke:#231f20;stroke-width:0.5;stroke-linecap:butt;stroke-linejoin:miter;stroke-miterlimit:4;stroke-dasharray:none;stroke-opacity:1" />
        <path
           d="m 122.0329,713.2564 0.734,-2.594"
           id="path1396"
           style="fill:none;stroke:#231f20;stroke-width:0.5;stroke-linecap:butt;stroke-linejoin:miter;stroke-miterlimit:4;stroke-dasharray:none;stroke-opacity:1" />
        <path
           d="m 71.5123,686.2428 c 0,0 0.489,-4.19 -0.612,-5.866 -1.101,-1.675 -3.18,-6.104 -3.058,-8.259 0.122,-2.155 1.346,-4.789 0.612,-6.464 -0.734,-1.676 -1.713,-5.507 -1.835,-7.542 -0.122,-2.035 -0.245,-7.661 -0.245,-7.661 0,0 7.462,0 15.046,0.359 7.585,0.359 20.184,1.197 26.178,1.437 5.994,0.239 18.471,2.673 18.471,2.673 0,0 0.734,0.798 0.245,2.354 -0.489,1.556 -0.734,3.951 -0.978,6.704 -0.245,2.753 -0.979,11.252 -0.979,11.252"
           id="path1400"
           style="fill:none;stroke:#231f20;stroke-width:0.5;stroke-linecap:butt;stroke-linejoin:miter;stroke-miterlimit:4;stroke-dasharray:none;stroke-opacity:1" />
        <path
           d="m 124.7241,681.0955 1.101,-5.387 -41.958,-9.337 -3.425,11.731"
           id="path1404"
           style="fill:none;stroke:#231f20;stroke-width:0.5;stroke-linecap:butt;stroke-linejoin:miter;stroke-miterlimit:4;stroke-dasharray:none;stroke-opacity:1" />
        <path
           d="m 81.2984,724.788 1.346,-22.385"
           id="path1408"
           style="fill:none;stroke:#231f20;stroke-width:0.5;stroke-linecap:butt;stroke-linejoin:miter;stroke-miterlimit:4;stroke-dasharray:none;stroke-opacity:1" />
        <path
           d="m 86.8031,678.9408 0.734,-11.612"
           id="path1412"
           style="fill:none;stroke:#231f20;stroke-width:0.5;stroke-linecap:butt;stroke-linejoin:miter;stroke-miterlimit:4;stroke-dasharray:none;stroke-opacity:1" />
      </g>
      <g
         transform="matrix(1.25,0,0,-1.25,264.73408,1283.1816)"
         id="g1414">
        <g
           clip-path="url(#clipPath1418)"
           id="g1416">
          <g
             transform="translate(153.8777,708.0841)"
             id="g1422">
            <path
               d="m 0,0 c 0,-33.137 -26.863,-60 -60,-60 -33.137,0 -60,26.863 -60,60"
               id="path1424"
               style="fill:none;stroke:#231f20;stroke-width:1.5;stroke-linecap:butt;stroke-linejoin:miter;stroke-miterlimit:4;stroke-dasharray:none;stroke-opacity:1" />
          </g>
        </g>
      </g>
    </g>
  </g>
</svg>
