<?xml version="1.0" encoding="UTF-8" standalone="no"?>
<svg
   xmlns:dc="http://purl.org/dc/elements/1.1/"
   xmlns:cc="http://creativecommons.org/ns#"
   xmlns:rdf="http://www.w3.org/1999/02/22-rdf-syntax-ns#"
   xmlns:svg="http://www.w3.org/2000/svg"
   xmlns="http://www.w3.org/2000/svg"
   version="1.1"
   id="svg10845"
   height="195.60275"
   width="200.0005">
  <defs
     id="defs4809">
    <pattern
       id="polka"
       patternTransform="rotate(20)"
       height="5"
       width="5"
       patternUnits="userSpaceOnUse">
      <rect
         y="0"
         x="0"
         height="5"
         width="5"
         style="fill:#ffffff"
         id="polka__bg" />
      <circle
         cx="2"
         style="fill:#ff0000"
         cy="2"
         r="1.5"
         id="polka__inner" />
    </pattern>
    <clipPath
       id="a-69">
      <path
         id="path7-5"
         d="m 635.044,806.584 1.3,-98.167 c 0,-33.137 26.88,-59.917 60.018,-59.917 33.137,0 60.016,26.947 60.016,60.084 l 0,98 -121.334,0 z" />
    </clipPath>
  </defs>
  <metadata
     id="metadata10850">
    <rdf:RDF>
      <cc:Work
         rdf:about="">
        <dc:format>image/svg+xml</dc:format>
        <dc:type
           rdf:resource="http://purl.org/dc/dcmitype/StillImage" />
        <dc:title></dc:title>
      </cc:Work>
    </rdf:RDF>
  </metadata>
  <g
     style="display:inline"
     transform="translate(-282.08096,-278.41122)"
     id="layer1">
    <ellipse
       style="color:#000000;display:inline;overflow:visible;visibility:visible;opacity:1;fill:none;fill-opacity:1;fill-rule:nonzero;stroke:#000000;stroke-width:2;stroke-miterlimit:4;stroke-dasharray:none;stroke-opacity:1;marker:none;enable-background:accumulate"
       id="path6022"
       cx="382.06821"
       cy="398.07648"
       rx="74.9505"
       ry="74.950493" />
    <g
       id="layer1-9"
       transform="translate(53.020007,16.263467)">
      <g
         id="g95"
         transform="translate(253.1112,268.61001)">
        <g
           transform="matrix(1.25,0,0,-1.25,-794.493,998.933)"
           clip-path="url(#a-69)"
           id="g99">
          <path
             style="fill:none;stroke:#231f20;stroke-width:1.5"
             id="path103"
             d="m 756.345,708.584 c 0,-33.137 -26.863,-60 -60,-60 -33.137,0 -60,26.863 -60,60 0,33.137 26.863,60 60,60 33.137,0 60,-26.863 60,-60 z" />
          <g
             id="g40075">
            <path
               d="m 674.023,616.21 c -0.28,0 -0.535,0.154 -0.664,0.4 -0.24,0.457 -5.828,11.24 -6.406,23.398 -0.305,0.336 -0.764,0.982 -0.764,1.826 l 0,1.804 c -0.112,0.584 -0.832,4.356 -0.913,5.162 -0.077,0.776 -0.086,2.12 -0.087,2.43 l -0.323,1.94 -0.252,1.678 -0.46,2.213 -1.787,2.406 c -0.494,-0.51 -1.23,-1.25 -1.998,-1.97 -0.47,-0.442 -0.97,-0.83 -1.453,-1.202 -0.672,-0.52 -1.507,-1.165 -1.57,-1.54 -0.152,-0.913 -0.998,-3.614 -1.877,-4.492 -0.652,-0.653 -1.386,-1.468 -1.39,-1.472 -0.037,-0.04 -0.08,-0.08 -0.126,-0.112 l -0.833,-0.583 c -0.127,-0.09 -0.28,-0.136 -0.43,-0.136 -0.09,0 -0.18,0.015 -0.268,0.048 -0.232,0.09 -0.405,0.287 -0.462,0.53 -0.04,0.173 -0.38,1.728 0.24,2.863 0.437,0.806 0.514,1.946 0.195,2.906 -0.42,1.258 -2.042,8.182 -1.955,11.175 0.083,2.823 0.083,6.436 0.083,7.98 0,0.8 0.188,2.506 0.388,4.31 0.178,1.614 0.363,3.282 0.363,3.94 0,0.237 -0.005,0.5 -0.01,0.776 -0.026,1.454 -0.06,3.263 0.497,4.456 0.11,0.235 0.245,0.59 0.41,1.017 0.703,1.813 1.845,4.764 3.62,6.24 -0.125,0.743 -0.366,2.19 -0.428,2.76 -0.005,0.04 -0.445,4.304 -0.33,5.105 0.076,0.537 0.302,1.03 0.483,1.426 0.054,0.12 0.106,0.23 0.146,0.33 0.053,0.17 -0.02,0.827 -0.255,1.46 -0.168,0.448 -0.824,2.484 -0.71,3.512 0.06,0.544 0.12,1.265 0.148,1.61 -0.172,0.374 -0.486,1.14 -0.486,1.724 0,0.64 0.25,2.44 1.386,3.072 0.57,0.317 1.76,0.792 2.408,1.044 0.12,1.37 0.29,3.51 0.29,4.134 0,0.464 0.058,1.33 0.12,2.246 0.064,0.965 0.13,1.964 0.13,2.504 0,0.41 -0.037,1.003 -0.078,1.653 -0.066,1.07 -0.14,2.28 -0.088,3.142 0.025,0.39 0,1.383 -0.026,2.534 -0.083,3.47 -0.124,6.443 0.218,7.7 0.036,0.13 0.07,0.27 0.105,0.415 0.5,2.045 1.332,5.465 10.175,9.002 l 5.54,1.848 c 1.07,0.356 2.72,0.972 3.824,1.387 -0.876,0.82 -2.084,2.035 -2.65,2.998 -0.564,0.074 -1.416,0.312 -1.716,1.063 -0.117,0.293 -0.187,0.548 -0.252,0.793 -0.074,0.28 -0.133,0.5 -0.27,0.747 -0.293,0.528 -0.64,1.717 -0.77,2.182 l -0.445,0.492 c -0.062,0.07 -0.11,0.15 -0.144,0.24 l -0.143,0.38 -0.23,0.277 -0.205,0.2 c -0.068,0.066 -0.12,0.146 -0.16,0.234 l -0.05,0.12 c -0.045,-0.01 -0.09,-0.013 -0.135,-0.013 -0.135,0 -0.27,0.038 -0.386,0.108 l -0.312,0.188 c -0.122,0.073 -0.222,0.18 -0.285,0.308 l -0.125,0.25 -0.028,0.044 -0.08,0.032 c -0.094,0.038 -0.18,0.094 -0.252,0.166 -0.095,0.095 -0.407,0.443 -0.407,0.905 0,0.19 0.035,0.395 0.062,0.517 -0.004,0.133 -0.016,0.274 -0.028,0.325 l -0.075,0.203 -0.207,0.118 c -0.16,0.09 -0.28,0.24 -0.34,0.414 l -0.312,0.937 c -0.05,0.154 -0.05,0.32 0,0.475 l 0.05,0.154 -0.384,0.772 c -0.02,0.042 -0.038,0.085 -0.05,0.13 l -0.11,0.386 -0.23,0.515 c -0.042,0.096 -0.065,0.2 -0.065,0.304 l 0,0.314 c 0,0.205 0.067,0.887 0.067,0.887 l -0.003,0.29 c -0.097,0.102 -0.166,0.205 -0.218,0.283 -0.023,0.05 -0.075,0.067 -0.113,0.08 -0.12,0.04 -0.283,0.094 -0.46,0.212 -0.21,0.14 -0.767,0.622 -0.767,0.622 -0.093,0.082 -0.164,0.184 -0.208,0.3 l -0.124,0.33 c -0.164,0.166 -0.382,0.432 -0.462,0.752 -0.07,0.28 -0.083,0.66 -0.086,0.815 l -0.18,1.327 c -0.016,0.114 -0.005,0.23 0.03,0.338 0.04,0.12 0.084,0.288 0.088,0.343 0,0.268 0.102,0.496 0.176,0.663 0.017,0.04 0.037,0.08 0.05,0.12 l 0.072,0.2 c 0.033,0.088 0.066,0.175 0.1,0.308 l 0.062,0.25 c 0.033,0.132 0.102,0.252 0.197,0.348 l 0.47,0.47 -0.214,0.637 c -0.015,0.046 -0.026,0.094 -0.032,0.143 l -0.062,0.5 -0.006,0.593 c 0,0.08 0.013,0.16 0.04,0.238 l 0.106,0.32 c 0.02,0.125 0.074,0.415 0.127,0.625 0.067,0.268 0.18,0.436 0.25,0.536 0.084,0.22 0.22,0.56 0.22,0.56 0.032,0.08 0.078,0.157 0.137,0.222 0.006,0.09 0.016,0.194 0.028,0.303 0.013,0.132 0.03,0.273 0.03,0.384 0,0.28 0.068,0.843 0.068,0.843 0.016,0.13 0.066,0.252 0.145,0.357 l 0.212,0.283 -0.05,0.98 c -0.004,0.1 0.01,0.2 0.045,0.293 l 0.25,0.688 c 0.025,0.07 0.06,0.135 0.105,0.194 l 0.105,0.14 0.087,0.303 c 0.03,0.104 0.08,0.2 0.15,0.282 l 0.376,0.438 c 0.022,0.025 0.046,0.05 0.072,0.072 l 0.562,0.5 0.218,0.22 0.374,0.305 c 0.025,0.02 0.12,0.084 0.14,0.1 0.07,0.443 0.288,0.717 0.653,0.838 l 0.136,0.046 0.828,0.414 0.725,0.28 0.118,0.118 0.072,0.14 c 0.08,0.16 0.212,0.286 0.375,0.356 l 0.265,0.113 0.024,0.03 0.06,0.278 c -0.012,0.255 0.02,0.71 0.354,1.044 0.15,0.15 0.298,0.347 0.305,0.357 l 0.432,0.483 c 0.078,0.308 0.303,0.548 0.618,0.653 0.07,0.03 0.34,0.183 0.528,0.3 l 0.725,0.397 c 0.11,0.06 0.234,0.09 0.36,0.09 l 0.597,0 0.18,0.114 0.16,0.24 c 0.1,0.15 0.248,0.257 0.42,0.306 l 0.436,0.125 c 0.07,0.02 0.138,0.03 0.207,0.03 l 0.302,0 0.356,0.133 c 0.01,0.007 0.156,0.074 0.354,0.14 0.288,0.096 0.612,0.1 0.675,0.1 l 0.55,0.06 0.565,0.095 0.632,0.37 c 0.09,0.052 0.192,0.085 0.295,0.097 l 0.562,0.062 0.395,0.004 c 0.03,0 0.06,-0.002 0.09,-0.005 0.463,0.18 0.88,0.242 0.93,0.25 0.034,0.004 0.07,0.006 0.105,0.006 l 0.626,0 c 0.083,0.013 0.218,0.028 0.367,0.028 0.158,0 0.306,-0.017 0.44,-0.05 0.09,-0.022 0.166,-0.045 0.235,-0.065 0.066,-0.02 0.125,-0.04 0.144,-0.04 0.05,0 0.2,0.025 0.388,0.088 l 0.75,0.25 c 0.076,0.025 0.156,0.038 0.237,0.038 0.036,0 0.352,-0.002 0.682,-0.085 0.28,-0.07 0.493,-0.14 0.846,-0.28 0.165,-0.066 0.442,-0.12 0.58,-0.14 l 0.818,-0.127 c 0.077,-0.012 0.152,-0.036 0.22,-0.07 l 0.376,-0.188 c 0.21,-0.106 0.527,-0.21 0.527,-0.21 0.088,-0.028 0.166,-0.072 0.238,-0.13 l 0.687,-0.563 0.226,-0.168 0.256,-0.17 0.28,-0.094 c 0.048,-0.015 0.093,-0.035 0.136,-0.06 l 0.437,-0.25 c 0.034,-0.02 0.067,-0.04 0.097,-0.066 l 0.25,-0.2 0.132,-0.065 0.324,-0.11 0.304,-0.086 0.27,0 c 0.036,0 0.072,-0.002 0.107,-0.007 l 0.44,-0.063 c 0.032,-0.005 0.065,-0.012 0.1,-0.02 l 0.436,-0.126 c 0.058,-0.017 0.113,-0.04 0.166,-0.07 l 0.438,-0.25 c 0.1,-0.058 0.187,-0.14 0.252,-0.235 l 0.25,-0.375 c 0.032,-0.048 0.057,-0.1 0.078,-0.153 l 0.153,-0.408 0.168,-0.236 0.375,-0.232 c 0.1,-0.063 0.185,-0.15 0.246,-0.25 l 0.19,-0.313 c 0.034,-0.06 0.06,-0.122 0.08,-0.19 l 0.154,-0.57 0.183,-0.272 0.264,-0.312 c 0.038,-0.043 0.07,-0.09 0.096,-0.143 l 0.125,-0.25 c 0.03,-0.06 0.053,-0.123 0.065,-0.188 l 0.125,-0.626 c 0.01,-0.05 0.015,-0.098 0.015,-0.148 l 0,-0.292 0.08,-0.134 0.198,-0.275 0.205,-0.136 0.375,-0.16 c 0.055,-0.025 0.107,-0.055 0.155,-0.09 l 0.25,-0.188 c 0.046,-0.036 0.09,-0.076 0.126,-0.12 l 0.312,-0.376 0.298,-0.438 0.428,-0.61 0.353,-0.63 c 0.026,-0.045 0.046,-0.093 0.062,-0.143 l 0.25,-0.813 0.173,-0.457 c 0.02,-0.058 0.036,-0.12 0.043,-0.18 l 0.05,-0.456 0.135,-0.325 0.285,-0.085 c 0.072,-0.02 0.14,-0.054 0.2,-0.094 0.052,-0.035 0.323,-0.224 0.52,-0.52 0.04,-0.055 0.187,-0.192 0.283,-0.27 0.158,-0.125 0.258,-0.31 0.278,-0.51 l 0.062,-0.625 0.004,-0.7 c 0,-0.073 -0.01,-0.147 -0.033,-0.22 l -0.176,-0.57 0.115,-0.116 0.59,-0.653 c 0.053,-0.058 0.096,-0.124 0.128,-0.196 l 0.25,-0.563 c 0.042,-0.095 0.064,-0.2 0.064,-0.304 l 0,-0.75 c 0,-0.095 -0.018,-0.19 -0.053,-0.278 l -0.113,-0.282 c 0.083,-0.18 0.114,-0.236 0.13,-0.265 0.08,-0.134 0.103,-0.216 0.14,-0.366 0.08,-0.324 0.085,-0.73 0.085,-0.808 l 0.058,-0.48 0.004,-1.332 c 0,-0.205 -0.076,-0.537 -0.225,-0.987 -0.06,-0.178 -0.184,-0.328 -0.348,-0.42 l -0.562,-0.31 c -0.068,-0.04 -0.14,-0.066 -0.217,-0.08 l -0.008,-0.004 c -0.058,-0.095 -0.085,-0.156 -0.115,-0.25 -0.01,-0.046 -0.025,-0.27 -0.025,-0.45 l 0,-1 c 0,-0.07 -0.01,-0.138 -0.03,-0.205 l -0.22,-0.774 0,-0.895 c 0,-0.176 -0.06,-0.346 -0.173,-0.48 l -0.168,-0.203 -0.02,-0.183 c 0.05,-0.18 0.11,-0.432 0.11,-0.635 l 0,-0.19 0.054,-0.767 0.066,-0.165 c 0.102,-0.207 0.197,-0.584 0.047,-1.186 -0.096,-0.383 -0.103,-0.578 -0.103,-0.58 l 0,-0.426 c 0,-0.142 -0.04,-0.282 -0.117,-0.402 -0.332,-0.522 -0.404,-0.77 -0.404,-0.772 -0.09,-0.326 -0.393,-0.576 -0.73,-0.576 -0.06,0 -0.125,0.005 -0.188,0.015 l 0,-0.514 c 0,-0.06 -0.007,-0.122 -0.022,-0.182 l -0.187,-0.75 c -0.017,-0.066 -0.043,-0.13 -0.077,-0.19 l -0.224,-0.392 -0.06,-0.148 c -0.022,-0.413 -0.097,-1.463 -0.29,-1.976 -0.037,-0.098 -0.093,-0.185 -0.16,-0.257 0.048,-0.024 0.1,-0.05 0.148,-0.08 0.21,-0.122 0.365,-0.226 0.497,-0.315 0.308,-0.206 0.4,-0.27 0.968,-0.34 l 0.588,-0.075 c 0.385,-0.052 0.47,-0.063 1.18,-0.107 1.185,-0.075 2.31,-0.458 3.348,-0.862 0.65,-0.25 1.188,-0.344 1.758,-0.44 0.355,-0.062 0.71,-0.123 1.09,-0.22 0.34,-0.083 0.83,-0.175 1.357,-0.275 1.1,-0.208 2.24,-0.423 2.883,-0.7 0.864,-0.37 2.027,-0.727 3.11,-0.955 l 0.458,-0.095 c 1.08,-0.223 2.305,-0.475 3.25,-0.89 0.974,-0.426 2.71,-1.107 3.436,-1.35 l 0.688,-0.235 c 0.67,-0.232 1.428,-0.494 1.944,-0.624 0.48,-0.12 0.848,-0.264 1.173,-0.392 0.217,-0.085 0.43,-0.168 0.674,-0.242 0.777,-0.233 1.264,-0.923 1.733,-1.59 l 0.22,-0.312 0.276,-0.374 c 0.664,-0.898 1.777,-2.4 2.234,-3.373 0.15,-0.322 0.383,-0.73 0.644,-1.192 0.614,-1.085 1.377,-2.436 1.828,-3.833 0.218,-0.677 0.475,-1.407 0.727,-2.123 0.48,-1.368 0.936,-2.66 1.107,-3.523 0.143,-0.712 0.265,-1.128 0.406,-1.61 0.1,-0.342 0.208,-0.713 0.337,-1.23 0.13,-0.523 0.486,-1.443 0.86,-2.416 0.485,-1.256 1.034,-2.68 1.385,-3.94 0.386,-1.393 0.852,-2.78 1.263,-4.002 0.25,-0.742 0.482,-1.43 0.67,-2.04 0.354,-1.15 0.737,-2.876 1.017,-4.137 0.124,-0.56 0.23,-1.034 0.306,-1.34 0.11,-0.442 0.29,-0.96 0.48,-1.51 0.22,-0.63 0.444,-1.278 0.585,-1.874 l 0.124,-0.54 c 0.158,-0.697 0.246,-1.082 0.53,-1.79 l 0.16,-0.39 c 0.332,-0.797 0.645,-1.55 0.51,-2.55 -0.12,-0.92 -0.927,-2.395 -1.613,-3.053 -0.15,-0.865 -0.612,-3.523 -0.77,-4.307 l -0.13,-0.63 c -0.175,-0.817 -0.373,-1.744 -0.418,-2.578 l -0.015,-0.267 c -0.073,-1.373 -0.21,-3.93 -0.655,-5.138 l -0.133,-0.36 c -0.345,-0.936 -0.5,-1.363 -1.014,-2.5 -0.28,-0.622 -0.59,-1.415 -0.884,-2.167 -0.298,-0.762 -0.58,-1.482 -0.807,-1.968 -0.21,-0.45 -0.46,-0.912 -0.702,-1.357 -0.26,-0.482 -0.508,-0.936 -0.66,-1.302 -0.133,-0.318 -0.237,-0.492 -0.32,-0.63 -0.083,-0.143 -0.1,-0.17 -0.125,-0.514 -0.06,-0.776 -0.06,-1.433 -0.06,-1.443 0,-0.345 -0.235,-0.644 -0.57,-0.728 l -1,-0.25 c -0.058,-0.016 -0.12,-0.023 -0.18,-0.023 -0.135,0 -0.27,0.036 -0.386,0.106 -0.004,0.002 -0.523,0.308 -1.06,0.406 -0.607,0.11 -1.113,0.112 -1.118,0.112 -0.047,0 -0.096,0.004 -0.142,0.013 -0.19,0.037 -1.793,0.35 -2.476,0.55 0.054,-0.788 0.12,-1.934 0.12,-2.876 0,-1.35 -0.152,-4.123 -0.722,-5.972 l -0.258,-0.85 c -0.392,-1.297 -0.73,-2.417 -1.212,-3.487 -0.21,-0.47 -0.406,-0.837 -0.575,-1.156 -0.27,-0.51 -0.433,-0.818 -0.494,-1.212 -0.045,-0.292 -0.076,-1.02 -0.108,-1.793 -0.053,-1.248 -0.113,-2.662 -0.268,-3.592 -0.108,-0.648 -0.168,-1.56 -0.23,-2.526 -0.078,-1.174 -0.157,-2.388 -0.338,-3.253 -0.105,-0.504 -0.18,-1.08 -0.26,-1.68 -0.156,-1.192 -0.334,-2.542 -0.774,-3.687 -0.62,-1.615 -1.576,-4.807 -2.042,-6.438 -0.236,-0.825 -0.637,-2.05 -1.042,-3.29 -0.45,-1.37 -0.914,-2.79 -1.142,-3.636 -0.168,-0.623 -0.39,-1.663 -0.628,-2.764 -0.377,-1.758 -0.805,-3.75 -1.195,-4.96 -0.608,-1.88 -1.474,-5.828 -1.483,-5.867 -0.075,-0.345 -0.38,-0.59 -0.732,-0.59 l -44.792,0 z"
               id="path115"
               style="fill:#ffffff" />
            <path
               d="m 687.378,799.147 c -0.16,0 -0.32,-0.026 -0.474,-0.077 l -0.75,-0.25 c -0.042,-0.014 -0.08,-0.025 -0.113,-0.033 -0.07,0.02 -0.146,0.043 -0.236,0.065 -0.192,0.048 -0.4,0.073 -0.62,0.073 -0.163,0 -0.31,-0.014 -0.42,-0.028 l -0.574,0 c -0.07,0 -0.14,-0.005 -0.212,-0.015 -0.086,-0.012 -0.477,-0.074 -0.94,-0.235 l -0.285,0 c -0.055,0 -0.11,-0.003 -0.166,-0.01 l -0.562,-0.062 c -0.208,-0.023 -0.41,-0.09 -0.59,-0.195 l -0.513,-0.3 -0.43,-0.07 -0.516,-0.052 c -0.183,-0.006 -0.506,-0.032 -0.822,-0.138 -0.184,-0.06 -0.33,-0.123 -0.42,-0.165 l -0.19,-0.07 -0.166,0 c -0.14,0 -0.278,-0.02 -0.412,-0.058 l -0.437,-0.125 c -0.344,-0.098 -0.64,-0.314 -0.837,-0.61 l -0.014,-0.02 -0.302,0 c -0.25,0 -0.498,-0.063 -0.718,-0.183 l -0.688,-0.376 c -0.026,-0.014 -0.05,-0.03 -0.076,-0.045 -0.15,-0.094 -0.34,-0.204 -0.42,-0.244 -0.46,-0.17 -0.815,-0.52 -0.99,-0.957 l -0.285,-0.32 c -0.03,-0.033 -0.058,-0.067 -0.085,-0.103 -0.04,-0.054 -0.153,-0.195 -0.235,-0.277 -0.43,-0.43 -0.552,-0.96 -0.572,-1.356 -0.27,-0.14 -0.49,-0.36 -0.633,-0.632 l -0.45,-0.168 c -0.048,-0.018 -0.096,-0.04 -0.143,-0.063 l -0.25,-0.124 -0.53,-0.265 -0.086,-0.027 c -0.33,-0.11 -0.865,-0.396 -1.087,-1.114 l -0.252,-0.202 c -0.043,-0.034 -0.084,-0.07 -0.123,-0.11 l -0.22,-0.22 -0.53,-0.47 c -0.05,-0.045 -0.097,-0.093 -0.14,-0.145 l -0.376,-0.437 c -0.14,-0.164 -0.245,-0.357 -0.304,-0.564 l -0.05,-0.17 -0.02,-0.03 c -0.09,-0.118 -0.16,-0.25 -0.21,-0.387 l -0.25,-0.688 c -0.07,-0.188 -0.1,-0.388 -0.09,-0.588 l 0.037,-0.71 -0.05,-0.065 c -0.157,-0.21 -0.256,-0.455 -0.288,-0.714 -0.018,-0.14 -0.074,-0.617 -0.074,-0.936 0,-0.088 -0.015,-0.2 -0.026,-0.303 -0.004,-0.038 -0.008,-0.077 -0.01,-0.114 -0.042,-0.068 -0.077,-0.14 -0.106,-0.212 0,0 -0.102,-0.255 -0.177,-0.466 -0.098,-0.15 -0.237,-0.387 -0.322,-0.727 -0.05,-0.2 -0.1,-0.465 -0.128,-0.62 l -0.09,-0.27 c -0.05,-0.152 -0.077,-0.312 -0.077,-0.473 l 0,-0.5 c 0,-0.062 0.004,-0.124 0.012,-0.186 l 0.062,-0.5 c 0.012,-0.097 0.034,-0.194 0.066,-0.287 l 0.066,-0.2 -0.143,-0.14 c -0.192,-0.193 -0.328,-0.433 -0.394,-0.697 l -0.063,-0.25 c -0.024,-0.097 -0.05,-0.16 -0.074,-0.226 -0.027,-0.072 -0.054,-0.145 -0.08,-0.226 l -0.025,-0.053 c -0.083,-0.187 -0.22,-0.495 -0.237,-0.895 -0.018,-0.08 -0.047,-0.166 -0.052,-0.18 -0.07,-0.215 -0.09,-0.448 -0.06,-0.673 l 0.174,-1.282 c 0.004,-0.227 0.025,-0.616 0.106,-0.942 0.102,-0.406 0.33,-0.738 0.543,-0.975 l 0.07,-0.188 c 0.087,-0.232 0.23,-0.44 0.417,-0.602 0.215,-0.187 0.61,-0.525 0.844,-0.68 0.168,-0.114 0.327,-0.187 0.457,-0.237 l 0,-0.005 c -0.026,-0.268 -0.062,-0.678 -0.062,-0.885 l 0,-0.313 c 0,-0.21 0.044,-0.417 0.13,-0.61 l 0.207,-0.466 0.096,-0.336 c 0.026,-0.09 0.06,-0.176 0.1,-0.26 l 0.19,-0.374 0.064,-0.13 c -0.06,-0.264 -0.045,-0.54 0.04,-0.798 l 0.314,-0.938 c 0.107,-0.322 0.32,-0.597 0.602,-0.78 -0.028,-0.158 -0.054,-0.358 -0.054,-0.558 0,-0.73 0.438,-1.247 0.626,-1.436 0.095,-0.094 0.2,-0.175 0.316,-0.24 l 0.028,-0.057 c 0.128,-0.256 0.326,-0.47 0.57,-0.617 l 0.313,-0.187 c 0.14,-0.084 0.29,-0.144 0.447,-0.18 0.042,-0.055 0.088,-0.107 0.138,-0.157 l 0.202,-0.203 0.106,-0.127 0.098,-0.262 c 0.067,-0.176 0.165,-0.338 0.29,-0.477 l 0.327,-0.362 c 0.172,-0.603 0.49,-1.635 0.79,-2.175 0.088,-0.158 0.127,-0.298 0.2,-0.575 0.064,-0.238 0.143,-0.533 0.28,-0.878 0.337,-0.84 1.133,-1.287 1.964,-1.47 0.45,-0.665 1.097,-1.387 1.727,-2.025 -0.924,-0.344 -1.95,-0.716 -2.687,-0.962 l -5.5,-1.834 -0.083,-0.03 c -8.49,-3.397 -9.936,-6.696 -10.624,-9.52 -0.034,-0.14 -0.066,-0.272 -0.1,-0.396 -0.37,-1.356 -0.33,-4.39 -0.245,-7.92 0.026,-1.085 0.05,-2.108 0.03,-2.464 -0.058,-0.908 0.02,-2.146 0.086,-3.238 0.04,-0.633 0.077,-1.23 0.077,-1.606 0,-0.514 -0.068,-1.545 -0.13,-2.455 -0.06,-0.927 -0.12,-1.805 -0.12,-2.294 0,-0.505 -0.128,-2.195 -0.247,-3.606 -0.677,-0.27 -1.568,-0.64 -2.064,-0.916 -1.403,-0.778 -1.773,-2.78 -1.773,-3.728 0,-0.636 0.26,-1.365 0.473,-1.857 -0.03,-0.374 -0.08,-0.946 -0.13,-1.395 -0.152,-1.366 0.743,-3.835 0.753,-3.86 0.154,-0.41 0.22,-0.83 0.222,-1.01 l -0.092,-0.202 c -0.19,-0.417 -0.452,-0.988 -0.544,-1.63 -0.132,-0.92 0.322,-5.253 0.326,-5.296 0.056,-0.498 0.235,-1.604 0.367,-2.394 -1.735,-1.662 -2.824,-4.48 -3.51,-6.25 -0.16,-0.415 -0.3,-0.773 -0.392,-0.972 -0.63,-1.35 -0.594,-3.255 -0.566,-4.785 0.005,-0.273 0.01,-0.53 0.01,-0.766 0,-0.616 -0.19,-2.338 -0.358,-3.857 -0.202,-1.826 -0.392,-3.55 -0.392,-4.394 0,-1.54 0,-5.145 -0.083,-7.956 -0.09,-3.072 1.566,-10.15 1.994,-11.436 0.312,-0.936 0.118,-1.828 -0.144,-2.307 -0.737,-1.35 -0.387,-3.064 -0.31,-3.394 0.114,-0.484 0.46,-0.88 0.926,-1.058 0.173,-0.066 0.354,-0.098 0.534,-0.098 0.304,0 0.605,0.092 0.86,0.27 l 0.834,0.584 c 0.093,0.065 0.18,0.14 0.255,0.225 0.006,0.007 0.73,0.812 1.36,1.442 1.032,1.03 1.89,3.835 2.075,4.83 0.158,0.256 0.842,0.784 1.3,1.138 0.473,0.367 1.01,0.782 1.508,1.248 0.502,0.47 0.99,0.95 1.406,1.368 l 1.166,-1.568 0.424,-2.052 0.244,-1.626 0.317,-1.904 c 0.003,-0.405 0.015,-1.676 0.09,-2.44 0.083,-0.814 0.75,-4.318 0.91,-5.16 l 0,-1.73 c 0,-0.92 0.416,-1.65 0.778,-2.112 0.65,-12.22 6.236,-23 6.477,-23.46 0.26,-0.495 0.77,-0.804 1.33,-0.804 l 44.79,0 c 0.705,0 1.315,0.49 1.466,1.18 0.01,0.038 0.868,3.95 1.463,5.797 0.402,1.245 0.834,3.257 1.215,5.032 0.235,1.09 0.456,2.12 0.618,2.725 0.223,0.826 0.685,2.235 1.13,3.598 0.417,1.27 0.81,2.47 1.052,3.317 0.462,1.62 1.41,4.784 2.02,6.373 0.473,1.23 0.657,2.626 0.82,3.86 0.077,0.595 0.152,1.16 0.25,1.623 0.19,0.918 0.27,2.158 0.35,3.357 0.06,0.905 0.12,1.84 0.222,2.452 0.163,0.975 0.224,2.414 0.277,3.683 0.03,0.684 0.062,1.46 0.1,1.71 0.04,0.258 0.157,0.486 0.416,0.976 0.166,0.313 0.372,0.703 0.595,1.2 0.502,1.113 0.847,2.256 1.246,3.578 l 0.258,0.846 c 0.595,1.934 0.754,4.802 0.754,6.19 0,0.603 -0.026,1.285 -0.06,1.907 0.65,-0.145 1.326,-0.277 1.525,-0.316 0.094,-0.02 0.19,-0.028 0.286,-0.028 0,0 0.447,-0.004 0.98,-0.1 0.332,-0.06 0.702,-0.248 0.817,-0.315 0.234,-0.137 0.502,-0.21 0.77,-0.21 0.12,0 0.24,0.015 0.36,0.045 l 1,0.25 c 0.666,0.167 1.135,0.767 1.135,1.454 0,0.007 0,0.646 0.058,1.386 0.006,0.072 0.01,0.13 0.017,0.176 l 0.007,0.012 c 0.084,0.142 0.212,0.357 0.365,0.725 0.138,0.33 0.376,0.77 0.627,1.232 0.246,0.453 0.5,0.92 0.723,1.398 0.237,0.508 0.523,1.24 0.826,2.012 0.297,0.755 0.602,1.535 0.87,2.132 0.524,1.16 0.694,1.625 1.033,2.55 l 0.132,0.358 c 0.447,1.213 0.596,3.402 0.7,5.358 l 0.016,0.265 c 0.044,0.777 0.235,1.674 0.403,2.465 0.048,0.224 0.093,0.438 0.133,0.638 0.15,0.745 0.556,3.078 0.735,4.108 0.765,0.843 1.522,2.286 1.657,3.3 0.16,1.202 -0.224,2.125 -0.563,2.94 -0.05,0.122 -0.103,0.248 -0.156,0.38 -0.26,0.653 -0.34,0.995 -0.494,1.677 l -0.126,0.546 c -0.15,0.633 -0.38,1.3 -0.605,1.948 -0.185,0.534 -0.36,1.038 -0.462,1.448 -0.074,0.3 -0.178,0.77 -0.3,1.32 -0.283,1.273 -0.67,3.015 -1.033,4.195 -0.19,0.616 -0.423,1.31 -0.674,2.058 -0.408,1.215 -0.87,2.59 -1.252,3.966 -0.36,1.296 -0.915,2.737 -1.406,4.008 -0.367,0.952 -0.713,1.85 -0.833,2.33 -0.13,0.528 -0.242,0.907 -0.344,1.257 -0.142,0.485 -0.253,0.867 -0.39,1.55 -0.182,0.912 -0.645,2.23 -1.135,3.623 -0.25,0.71 -0.503,1.434 -0.72,2.105 -0.474,1.47 -1.258,2.857 -1.888,3.972 -0.26,0.46 -0.485,0.858 -0.62,1.143 -0.45,0.96 -1.428,2.31 -2.31,3.5 l -0.27,0.37 c -0.073,0.1 -0.144,0.2 -0.215,0.3 -0.492,0.7 -1.105,1.57 -2.13,1.878 -0.223,0.068 -0.417,0.146 -0.615,0.223 -0.347,0.136 -0.74,0.29 -1.265,0.422 -0.485,0.12 -1.26,0.39 -1.88,0.604 -0.254,0.087 -0.49,0.17 -0.697,0.238 -0.71,0.237 -2.414,0.906 -3.373,1.326 -1.017,0.445 -2.282,0.706 -3.4,0.936 l -0.455,0.095 c -1.037,0.218 -2.147,0.56 -2.968,0.91 -0.72,0.31 -1.9,0.532 -3.04,0.748 -0.516,0.097 -1.004,0.19 -1.312,0.267 -0.417,0.104 -0.788,0.167 -1.147,0.23 -0.555,0.094 -1.034,0.176 -1.61,0.4 -1.043,0.406 -2.283,0.83 -3.576,0.912 -0.688,0.042 -0.746,0.05 -1.127,0.1 -0.144,0.02 -0.328,0.045 -0.594,0.078 -0.392,0.05 -0.392,0.05 -0.644,0.218 l -0.107,0.072 c 0.14,0.552 0.206,1.29 0.235,1.765 l 0.193,0.338 c 0.068,0.12 0.12,0.247 0.153,0.38 l 0.063,0.25 0.125,0.5 c 0.016,0.063 0.027,0.126 0.035,0.19 0.5,0.15 0.86,0.515 0.914,1.08 0.036,0.082 0.122,0.26 0.3,0.54 0.152,0.24 0.233,0.52 0.233,0.804 l 0,0.43 c 0.003,0 0.018,0.142 0.08,0.394 0.197,0.784 0.07,1.33 -0.083,1.66 l -0.016,0.04 -0.042,0.652 0,0.138 c 0,0.185 -0.03,0.384 -0.072,0.57 0.208,0.266 0.322,0.593 0.322,0.93 l 0,0.787 0.192,0.672 c 0.04,0.134 0.058,0.273 0.058,0.413 l 0,1 c 0,0.042 0,0.092 0.003,0.14 l 0.54,0.298 c 0.327,0.183 0.575,0.48 0.693,0.837 0.265,0.794 0.265,1.107 0.265,1.225 l 0,1.25 c 0,0.055 -0.003,0.11 -0.01,0.165 l -0.053,0.49 c -0.005,0.192 -0.024,0.565 -0.107,0.896 -0.038,0.153 -0.074,0.3 -0.175,0.486 0.063,0.168 0.095,0.346 0.095,0.525 l 0,0.75 c 0,0.21 -0.044,0.417 -0.13,0.61 l -0.25,0.562 c -0.063,0.143 -0.15,0.276 -0.255,0.393 l -0.417,0.463 0.048,0.155 c 0.044,0.144 0.066,0.293 0.066,0.442 l 0,0.625 c 0,0.05 -0.002,0.1 -0.007,0.15 l -0.062,0.624 c -0.04,0.403 -0.24,0.77 -0.555,1.023 -0.05,0.04 -0.12,0.105 -0.155,0.14 -0.258,0.37 -0.573,0.603 -0.7,0.687 -0.098,0.065 -0.202,0.12 -0.312,0.16 l -0.03,0.258 c -0.013,0.123 -0.042,0.244 -0.086,0.36 l -0.17,0.458 -0.238,0.77 c -0.03,0.1 -0.072,0.196 -0.122,0.287 l -0.313,0.563 c -0.026,0.045 -0.053,0.09 -0.083,0.13 l -0.438,0.626 -0.23,0.347 c -0.03,0.044 -0.063,0.086 -0.097,0.127 l -0.313,0.375 c -0.074,0.09 -0.16,0.17 -0.252,0.24 l -0.25,0.188 c -0.095,0.07 -0.2,0.13 -0.31,0.178 l -0.31,0.134 -0.032,0.02 -0.06,0.086 0,0.07 c 0,0.098 -0.01,0.196 -0.03,0.293 l -0.125,0.626 c -0.025,0.13 -0.068,0.258 -0.128,0.377 l -0.125,0.25 c -0.052,0.103 -0.115,0.2 -0.19,0.29 l -0.26,0.313 -0.07,0.106 -0.124,0.452 c -0.036,0.133 -0.09,0.26 -0.16,0.377 l -0.19,0.314 c -0.12,0.203 -0.29,0.374 -0.49,0.5 l -0.248,0.155 -0.024,0.033 -0.118,0.316 c -0.04,0.106 -0.092,0.21 -0.156,0.304 l -0.25,0.375 c -0.13,0.193 -0.302,0.354 -0.504,0.47 l -0.437,0.25 c -0.105,0.06 -0.216,0.106 -0.332,0.14 l -0.438,0.124 c -0.066,0.02 -0.132,0.033 -0.2,0.043 l -0.437,0.062 c -0.07,0.01 -0.142,0.014 -0.213,0.014 l -0.164,0 -0.204,0.06 -0.242,0.08 -0.013,0.006 -0.187,0.15 c -0.06,0.05 -0.126,0.093 -0.193,0.132 l -0.438,0.25 c -0.085,0.05 -0.176,0.09 -0.27,0.12 l -0.184,0.062 -0.173,0.116 -0.192,0.143 -0.663,0.542 c -0.14,0.116 -0.302,0.205 -0.475,0.263 -0.11,0.037 -0.325,0.116 -0.43,0.168 l -0.374,0.188 c -0.138,0.07 -0.287,0.117 -0.44,0.14 l -0.814,0.125 c -0.14,0.02 -0.34,0.065 -0.42,0.097 -0.378,0.15 -0.625,0.233 -0.944,0.313 -0.398,0.1 -0.762,0.107 -0.864,0.107 m 0,-1.5 c 0,0 0.25,0 0.5,-0.062 0.25,-0.063 0.437,-0.125 0.75,-0.25 0.312,-0.125 0.75,-0.188 0.75,-0.188 l 0.813,-0.125 0.376,-0.188 c 0.25,-0.125 0.625,-0.25 0.625,-0.25 l 0.688,-0.562 0.25,-0.188 0.375,-0.25 0.375,-0.125 0.437,-0.25 0.313,-0.25 0.25,-0.125 0.375,-0.125 0.437,-0.125 0.375,0 0.438,-0.063 0.438,-0.125 0.438,-0.25 0.25,-0.375 0.188,-0.5 0.312,-0.437 0.5,-0.313 0.188,-0.312 0.187,-0.688 0.25,-0.375 0.313,-0.375 0.125,-0.25 0.126,-0.625 0,-0.5 0.187,-0.313 0.313,-0.437 0.375,-0.25 0.438,-0.188 0.25,-0.188 0.313,-0.375 0.25,-0.375 0.438,-0.625 0.313,-0.563 0.25,-0.812 0.188,-0.5 0.063,-0.563 0.313,-0.75 0.625,-0.188 c 0,0 0.188,-0.125 0.312,-0.312 0.125,-0.188 0.438,-0.438 0.438,-0.438 l 0.062,-0.625 0,-0.625 -0.25,-0.812 0,-0.25 0.375,-0.375 0.563,-0.625 0.25,-0.563 0,-0.75 -0.125,-0.312 c 0,0 -0.008,0.002 -0.02,0.002 -0.054,0 -0.185,-0.042 0.02,-0.502 0.25,-0.563 0.187,-0.313 0.25,-0.563 0.062,-0.25 0.062,-0.625 0.062,-0.625 l 0.063,-0.562 0,-1.25 c 0,-0.188 -0.188,-0.75 -0.188,-0.75 l -0.562,-0.313 c 0,0 -0.313,-0.062 -0.438,-0.25 -0.125,-0.187 -0.187,-0.312 -0.25,-0.5 -0.062,-0.187 -0.062,-0.687 -0.062,-0.687 l 0,-1 -0.25,-0.875 0,-1 -0.312,-0.375 -0.063,-0.563 c 0,0 0.125,-0.375 0.125,-0.562 l 0,-0.188 0.063,-0.938 0.126,-0.312 c 0,0 0.124,-0.188 0,-0.688 -0.125,-0.5 -0.125,-0.75 -0.125,-0.75 l 0,-0.437 c -0.437,-0.688 -0.5,-1 -0.5,-1 -0.312,0 -0.812,0.312 -0.812,0.312 l -0.125,-0.75 0,-0.813 -0.125,-0.5 -0.062,-0.25 -0.25,-0.438 -0.125,-0.313 c 0,0 -0.062,-1.375 -0.25,-1.875 0,0 0.063,0.937 -0.187,1.625 l -0.375,-0.375 -0.125,-0.313 -0.187,-0.438 -0.125,-0.313 -0.312,-0.563 c 0,0 -0.062,-0.063 0.063,-0.313 l 0.126,-0.25 c 0,0 0.09,0.017 0.242,0.017 0.266,0 0.718,-0.05 1.195,-0.328 0.75,-0.438 0.75,-0.625 1.75,-0.75 1,-0.125 0.812,-0.125 1.812,-0.188 1,-0.062 2,-0.375 3.125,-0.812 1.125,-0.438 1.938,-0.438 2.938,-0.688 1,-0.25 3.25,-0.562 4.125,-0.937 0.875,-0.375 2.062,-0.75 3.25,-1 1.188,-0.25 2.563,-0.5 3.563,-0.938 1,-0.438 2.75,-1.126 3.5,-1.376 0.75,-0.25 1.937,-0.687 2.687,-0.875 0.75,-0.188 1.188,-0.438 1.813,-0.626 0.625,-0.187 1.062,-0.937 1.562,-1.625 0.5,-0.688 1.938,-2.563 2.438,-3.626 0.5,-1.062 1.812,-3 2.437,-4.937 0.625,-1.938 1.563,-4.313 1.813,-5.563 0.25,-1.25 0.437,-1.625 0.75,-2.875 0.312,-1.25 1.625,-4.126 2.25,-6.376 0.625,-2.25 1.437,-4.437 1.937,-6.062 0.5,-1.625 1.063,-4.438 1.313,-5.438 0.25,-1 0.812,-2.312 1.062,-3.375 0.25,-1.063 0.313,-1.5 0.688,-2.438 0.375,-0.938 0.75,-1.625 0.625,-2.563 -0.124,-0.938 -1.124,-2.5 -1.562,-2.75 0,0 -0.625,-3.626 -0.812,-4.563 -0.188,-0.938 -0.5,-2.188 -0.563,-3.313 -0.062,-1.125 -0.187,-4 -0.625,-5.187 -0.437,-1.188 -0.562,-1.563 -1.125,-2.813 -0.562,-1.25 -1.25,-3.187 -1.687,-4.125 -0.438,-0.938 -1.063,-1.938 -1.375,-2.688 -0.312,-0.75 -0.437,-0.563 -0.5,-1.375 -0.062,-0.813 -0.062,-1.5 -0.062,-1.5 l -1,-0.25 c 0,0 -0.625,0.375 -1.312,0.5 -0.688,0.125 -1.25,0.125 -1.25,0.125 0,0 -1.938,0.375 -2.5,0.562 -0.338,0.113 -0.608,0.136 -0.77,0.136 -0.108,0 -0.168,-0.01 -0.168,-0.01 0,0 0.188,-2.188 0.188,-3.75 0,-1.563 -0.188,-4.125 -0.688,-5.75 -0.5,-1.625 -0.875,-3 -1.437,-4.25 -0.562,-1.25 -1,-1.75 -1.124,-2.563 -0.125,-0.812 -0.125,-3.875 -0.375,-5.375 -0.25,-1.5 -0.25,-4.25 -0.562,-5.75 -0.312,-1.5 -0.375,-3.625 -1,-5.25 -0.625,-1.625 -1.562,-4.75 -2.062,-6.5 -0.5,-1.75 -1.75,-5.312 -2.188,-6.937 -0.437,-1.625 -1.187,-5.75 -1.812,-7.688 -0.625,-1.937 -1.5,-5.937 -1.5,-5.937 l -44.792,0 c 0,0 -5.833,11.125 -6.333,23.375 0,0 -0.75,0.625 -0.75,1.5 l 0,1.875 c 0,0 -0.833,4.333 -0.916,5.166 -0.083,0.834 -0.083,2.417 -0.083,2.417 l -0.333,2 -0.25,1.667 -0.5,2.416 -2.416,3.25 c 0,0 -1.25,-1.333 -2.583,-2.583 -1.333,-1.25 -3.083,-2.167 -3.25,-3.167 -0.166,-1 -1,-3.416 -1.667,-4.083 -0.666,-0.667 -1.416,-1.5 -1.416,-1.5 l -0.834,-0.583 c 0,0 -0.333,1.416 0.167,2.333 0.5,0.917 0.667,2.25 0.25,3.5 -0.417,1.25 -2,8.083 -1.917,10.917 0.084,2.833 0.084,6.5 0.084,8 0,1.5 0.75,6.833 0.75,8.25 0,1.416 -0.167,3.666 0.416,4.916 0.584,1.25 1.917,5.75 4.167,7.25 0,0 -0.416,2.417 -0.5,3.167 -0.083,0.75 -0.416,4.333 -0.333,4.916 0.083,0.583 0.417,1.166 0.583,1.583 0.167,0.416 0,1.333 -0.25,2 -0.25,0.666 -0.75,2.416 -0.666,3.166 0.084,0.75 0.167,1.833 0.167,1.833 0,0 -0.5,1 -0.5,1.583 0,0.583 0.25,2 1,2.417 0.75,0.416 2.75,1.166 2.75,1.166 0,0 0.334,3.75 0.334,4.666 0,0.917 0.25,3.667 0.25,4.75 0,1.083 -0.25,3.417 -0.166,4.75 0.083,1.333 -0.333,8.25 0.167,10.083 0.5,1.833 0.667,5.25 9.834,8.916 l 5.5,1.833 c 1.75,0.583 5,1.833 5,1.833 0,0 -3.084,2.666 -3.584,3.98 0,0 -1.25,0 -1.5,0.624 -0.25,0.625 -0.25,1.062 -0.562,1.625 -0.313,0.562 -0.75,2.187 -0.75,2.187 l -0.563,0.624 -0.187,0.5 -0.313,0.375 -0.25,0.25 -0.187,0.437 -0.25,0.25 -0.437,-0.125 -0.312,0.187 -0.125,0.25 -0.187,0.312 -0.313,0.125 c 0,0 -0.187,0.187 -0.187,0.375 0,0.187 0.062,0.437 0.062,0.437 0,0 0,0.437 -0.062,0.624 -0.063,0.188 -0.188,0.5 -0.188,0.5 l -0.437,0.25 -0.312,0.938 0.125,0.375 -0.062,0.25 -0.25,0.5 -0.187,0.375 -0.125,0.438 -0.25,0.562 0,0.313 c 0,0.187 0.063,0.812 0.063,0.812 l 0,0.438 c 0,0 0.063,0.25 -0.124,0.375 -0.188,0.125 -0.25,0.375 -0.438,0.5 -0.187,0.125 -0.375,0.125 -0.562,0.25 -0.188,0.125 -0.688,0.562 -0.688,0.562 l -0.187,0.5 c 0,0 -0.312,0.25 -0.374,0.5 -0.063,0.25 -0.063,0.688 -0.063,0.688 l -0.187,1.375 c 0,0 0.125,0.375 0.125,0.562 0,0.188 0.126,0.375 0.188,0.563 0.063,0.187 0.125,0.312 0.188,0.562 l 0.062,0.25 0.375,0.375 0.25,0.25 0.125,0.313 -0.125,0.375 -0.187,0.562 -0.063,0.5 0,0.5 0.125,0.375 c 0,0 0.063,0.375 0.125,0.625 0.063,0.25 0.188,0.313 0.25,0.5 0.063,0.188 0.188,0.5 0.188,0.5 0,0 0.188,0.188 0.188,0.375 0,0.187 0.063,0.562 0.063,0.812 0,0.25 0.063,0.75 0.063,0.75 l 0.375,0.5 -0.062,1.25 0.25,0.688 0.187,0.25 0.125,0.437 0.375,0.437 0.563,0.5 0.25,0.25 0.312,0.25 c 0,0 0.313,0.187 0.375,0.375 0.063,0.187 0,0.375 0.188,0.437 l 0.188,0.062 0.625,0.312 0.25,0.125 0.5,0.187 0.312,0.125 0.313,0.313 0.125,0.25 0.437,0.187 0.25,0.313 0.125,0.562 c 0,0 -0.062,0.375 0.125,0.563 0.188,0.187 0.375,0.437 0.375,0.437 l 0.563,0.625 c 0,0 -0.063,0.188 0.125,0.25 0.187,0.063 0.687,0.375 0.687,0.375 l 0.688,0.375 0.812,0 0.5,0.312 0.25,0.375 0.438,0.124 0.437,0 0.5,0.188 c 0,0 0.126,0.062 0.313,0.125 0.188,0.062 0.438,0.062 0.438,0.062 l 0.625,0.062 0.75,0.125 0.75,0.437 0.563,0.063 0.313,0 c 0.166,0 0.027,-0.083 0.046,-0.083 0.01,0 0.058,0.02 0.204,0.083 0.437,0.188 0.874,0.25 0.874,0.25 l 0.688,0 c 0,0 0.14,0.028 0.306,0.028 0.083,0 0.173,-0.007 0.257,-0.028 0.25,-0.062 0.376,-0.125 0.563,-0.125 0.188,0 0.438,0.063 0.625,0.125 l 0.75,0.25"
               id="path119"
               style="fill:#231f20" />
            <path
               d="m 665.524,667.209 c 0.333,1.583 0.167,2.75 0.417,3.667 0.25,0.916 0.583,2.166 1.083,2.833 0.5,0.667 0.5,1.417 1,2.917 0.5,1.5 0.333,2.083 0.417,3.916 0.083,1.834 -0.167,3.667 -0.167,7 0,3.334 -0.417,5.084 -0.417,8.417 0,3.333 0,3.417 0.084,5.667 0.083,2.25 -0.25,3.5 0.166,5.416 0.417,1.917 0.334,2.75 0.75,5.584 0.417,2.833 0.5,4.416 1.167,7.583 0.667,3.167 0.583,2.833 1.167,5.167 0.583,2.333 0.833,4.583 1.166,6.416 0.334,1.834 0.584,5 1,7 0.417,2 0.5,3.667 1.167,5.084 0.667,1.416 1.75,2.75 2.667,4 0.916,1.25 3.083,4 3.083,4 l 0.065,0.112 c -0.333,0.202 -0.602,0.37 -0.77,0.475 -0.73,-0.28 -3.304,-1.258 -4.795,-1.755 l -5.5,-1.833 c -9.167,-3.666 -9.333,-7.083 -9.833,-8.916 -0.5,-1.833 -0.084,-8.75 -0.167,-10.083 -0.083,-1.334 0.167,-3.667 0.167,-4.75 0,-1.084 -0.25,-3.834 -0.25,-4.75 0,-0.917 -0.334,-4.667 -0.334,-4.667 0,0 -2,-0.75 -2.75,-1.167 -0.75,-0.416 -1,-1.833 -1,-2.416 0,-0.584 0.5,-1.584 0.5,-1.584 0,0 -0.083,-1.083 -0.166,-1.833 -0.084,-0.75 0.416,-2.5 0.666,-3.167 0.25,-0.666 0.417,-1.583 0.25,-2 -0.166,-0.416 -0.5,-1 -0.583,-1.583 -0.083,-0.583 0.25,-4.167 0.333,-4.917 0.084,-0.75 0.5,-3.166 0.5,-3.166 -2.25,-1.5 -3.583,-6 -4.166,-7.25 -0.584,-1.25 -0.417,-3.5 -0.417,-4.917 0,-1.417 -0.75,-6.75 -0.75,-8.25 0,-1.5 0,-5.167 -0.083,-8 -0.084,-2.833 1.5,-9.667 1.916,-10.917 0.417,-1.25 0.25,-2.583 -0.25,-3.5 -0.5,-0.916 -0.166,-2.333 -0.166,-2.333 l 0.833,0.583 c 0,0 0.75,0.834 1.417,1.5 0.666,0.667 1.5,3.084 1.666,4.084 0.167,1 1.917,1.916 3.25,3.166 1.334,1.25 2.584,2.584 2.584,2.584 l 0.097,-0.13 c 0.372,0.76 1.242,2.52 1.82,3.546 0.749,1.334 0.832,1.584 1.166,3.167"
               id="path123"
               style="fill:url(#polka)" />
            <path
               d="m 699.776,757.326 c 0,0 0.08,-0.867 0.747,-1.367 0.667,-0.5 5.584,-0.667 5.5,-5.917 -0.083,-5.25 -3.75,-14.5 -6.5,-17.083 -2.75,-2.584 -9.5,-6.084 -10.666,-6.25 -1.166,-0.167 -0.833,-1 -0.833,-1 0,0 -0.583,-8.917 -0.666,-11.584 -0.083,-2.667 -0.583,-7.917 -0.416,-10.667 0.167,-2.75 0.25,-5.917 0.333,-9.167 0.084,-3.25 0.667,-8.25 1.417,-13 0.75,-4.75 1.75,-8.25 2.25,-11.583 0.5,-3.334 7.167,-10.5 9.333,-13.334 2.167,-2.834 6.334,-6.167 8.5,-7.334 2.167,-1.167 5.584,-3.667 8.084,-5.667 2.5,-2 6.917,-3.834 6.917,-3.834 l 0.167,1.042 -0.5,2.75 -0.25,4.25 c 0,0 1.25,0.75 1.375,3.5 0.124,2.75 0.5,4.375 1,6.625 0.5,2.25 0.874,6.75 0.874,6.75 l 0.375,5 0.5,2.5 0.124,1.625 0.5,5.25 c 0,0 2.375,-1.25 4.375,-2.25 0.562,-0.188 2.5,-0.563 2.5,-0.563 0,0 0.562,0 1.25,-0.125 0.687,-0.125 1.312,-0.5 1.312,-0.5 l 1,0.25 c 0,0 0,0.688 0.062,1.5 0.063,0.813 0.188,0.625 0.5,1.375 0.313,0.75 0.938,1.75 1.375,2.688 0.437,0.937 1.124,2.875 1.687,4.125 0.562,1.25 0.687,1.625 1.125,2.812 0.437,1.188 0.562,4.063 0.625,5.188 0.062,1.125 0.375,2.375 0.562,3.312 0.187,0.938 0.812,4.563 0.812,4.563 0.437,0.25 1.437,1.812 1.562,2.75 0.125,0.937 -0.25,1.625 -0.625,2.562 -0.376,0.938 -0.438,1.375 -0.688,2.438 -0.25,1.062 -0.813,2.375 -1.063,3.375 -0.25,1 -0.813,3.812 -1.313,5.437 -0.5,1.625 -1.313,3.813 -1.938,6.063 -0.626,2.25 -1.938,5.125 -2.25,6.375 -0.313,1.25 -0.5,1.625 -0.75,2.875 -0.25,1.25 -1.188,3.625 -1.813,5.562 -0.625,1.938 -1.938,3.875 -2.438,4.938 -0.5,1.062 -1.938,2.937 -2.438,3.625 -0.5,0.687 -0.938,1.437 -1.563,1.625 -0.626,0.187 -1.063,0.437 -1.813,0.625 -0.75,0.187 -1.938,0.625 -2.688,0.875 -0.75,0.25 -2.5,0.937 -3.5,1.375 -1,0.437 -2.376,0.687 -3.563,0.937 -1.188,0.25 -2.375,0.625 -3.25,1 -0.875,0.375 -3.125,0.688 -4.125,0.938 -1,0.25 -1.813,0.25 -2.938,0.687 -1.125,0.438 -2.125,0.75 -3.125,0.813 -1,0.062 -0.813,0.062 -1.813,0.187 -1,0.125 -1,0.313 -1.75,0.75 0,0 -0.64,0.422 -1.438,0.313"
               id="path127"
               style="fill:url(#polka)" />
            <path
               d="m 667.274,709.292 c 0,0 -2.25,-0.25 -3.083,-1.083"
               id="path131"
               style="fill:none;stroke:#000000;stroke-width:0.5;stroke-miterlimit:10" />
            <path
               d="m 691.524,705.96 c 0,-1.014 -0.82,-1.834 -1.833,-1.834 -1.013,0 -1.834,0.82 -1.834,1.833 0,1.012 0.822,1.832 1.835,1.832 1.012,0 1.833,-0.82 1.833,-1.833 z"
               id="path135"
               style="fill:none;stroke:#000000;stroke-width:0.5;stroke-miterlimit:10" />
            <path
               d="m 692.107,724.876 c 0,-1.013 -0.82,-1.833 -1.833,-1.833 -1.013,0 -1.834,0.82 -1.834,1.833 0,1.013 0.82,1.833 1.834,1.833 1.012,0 1.833,-0.82 1.833,-1.834 z"
               id="path139"
               style="fill:none;stroke:#000000;stroke-width:0.5;stroke-miterlimit:10" />
            <path
               d="m 693.857,683.292 c 0,-1.013 -0.82,-1.833 -1.833,-1.833 -1.013,0 -1.834,0.82 -1.834,1.832 0,1.013 0.82,1.833 1.834,1.833 1.012,0 1.833,-0.82 1.833,-1.833 z"
               id="path143"
               style="fill:none;stroke:#000000;stroke-width:0.5;stroke-miterlimit:10" />
            <path
               d="m 677.274,748.542 c 0,0 -4.167,-3.667 -4.5,-5.667 -0.333,-2 -6,-15.333 -10.083,-18.5 0,0 0.5,-6.583 0,-11.333 -0.5,-4.75 -1.5,-11.5 -1.084,-13.75 0.418,-2.25 3.25,-12.5 1.918,-19.75 -1.333,-7.25 -6.5,-24.417 -6.5,-24.417"
               id="path147"
               style="fill:none;stroke:#000000;stroke-width:0.5;stroke-miterlimit:10" />
            <path
               d="m 702.378,764.21 c 0,-0.415 -0.336,-0.75 -0.75,-0.75 -0.414,0 -0.75,0.335 -0.75,0.75 0,0.413 0.336,0.75 0.75,0.75 0.414,0 0.75,-0.337 0.75,-0.75 z"
               id="path151-9"
               style="fill:none;stroke:#000000;stroke-width:0.5;stroke-miterlimit:10" />
            <path
               d="m 676.19,756.084 c -0.25,0.437 -0.687,1.437 -0.937,2.188 -0.25,0.75 -0.625,2.062 -0.625,2.437 0,0.374 -0.063,1.874 -0.313,2.624 -0.25,0.75 -0.625,2.75 -0.813,3.688 -0.187,0.937 -0.25,3.5 -0.5,4.187 -0.25,0.687 -0.125,2 0.313,2.186 0.437,0.188 0.812,0.375 0.812,0.375 0,0 0.25,-0.124 0.438,-0.124 0.188,0 0.688,0.25 0.688,0.25 0,0 0.5,0.375 0.687,0.25 0.188,-0.125 0.312,-0.187 0.5,-0.125 0.187,0.064 0.687,0.376 0.687,0.376 0,0 0.25,0.313 0.438,0.375 0.187,0.064 0.375,0.25 0.562,0.25 0.188,0 0.5,0.126 0.688,0.25 0.188,0.126 0.563,0.44 0.563,0.44 0,0 0.187,0.124 0.25,0.374 0.062,0.25 0.75,1.062 0.75,1.062 l 0.124,0.438 0.125,0.562 c 0,0 0.313,0 0.5,0.375 0.188,0.376 0.25,0.814 0.25,0.814 0,0 0.188,0.375 0.25,0.562 0.063,0.188 0.313,0.875 0.313,0.875 l 0.875,0.69 c 0,0 0.5,0 0.625,0.186 0.125,0.188 0.687,1 0.687,1 0,0 0.376,0.063 0.563,0.125 0.188,0.064 0.938,0.876 0.938,0.876 0,0 0,0.25 0.187,0.375 0.188,0.126 0.125,0.126 0.438,0.25 0.312,0.126 0.625,0.25 0.812,0.25 0.188,0 0.688,0.314 0.688,0.314 0,0 0.875,0.187 1.125,0.125 0.25,-0.064 0.875,-0.064 0.875,-0.064 l 0.687,-0.375 0.688,-0.75 c 0,0 0.187,0 0.312,-0.186 0.125,-0.188 0.25,-0.5 0.375,-0.688 0.125,-0.187 0.75,-0.5 0.75,-0.5 0,0 0.312,-0.062 0.562,-0.25 0.25,-0.187 0.563,-0.25 0.75,-0.5 0.188,-0.25 -0.25,-0.062 0.563,-0.5 0.812,-0.437 0.562,-0.062 0.812,-0.437 0.25,-0.376 0.563,-0.814 0.563,-0.814 0,0 0,-0.125 0.25,-0.437 0.25,-0.314 0.062,0.06 0.25,-0.314 l 0.187,-0.375 0.563,-1.124 0.312,-1.437 0.188,-1.44 0.375,-1.436 0.125,-0.375 0.25,-1.438 0.187,-0.438 0.5,-1 0.188,-0.625 0.312,-0.626 0.188,-0.75 c 0,0 0.187,-0.375 0.187,-0.562 l 0,-0.188 0.625,-0.25 0.313,0.25 0.656,0.375 c 0,0 0.204,0.374 0.392,0.562 0.187,0.187 0.32,0.437 0.32,0.437 l 0.692,0.124 0.75,0.75"
               id="path155-1"
               style="fill:none;stroke:#000000;stroke-width:0.5;stroke-miterlimit:10" />
            <path
               d="m 700.253,767.084 c 0,0 2.25,-14.25 -10.563,-17.312 -3.312,-0.938 -5.75,0.25 -7,0.875 -1.25,0.624 -3.312,1.937 -3.312,1.937"
               id="path159"
               style="fill:none;stroke:#000000;stroke-width:0.5;stroke-miterlimit:10" />
            <path
               d="m 680.274,751.876 c 0,0 -2.167,-2.75 -3.083,-4 -0.917,-1.25 -2,-2.583 -2.667,-4 -0.667,-1.417 -0.75,-3.083 -1.167,-5.083 -0.416,-2 -0.666,-5.167 -1,-7 -0.333,-1.834 -0.583,-4.084 -1.166,-6.417 -0.584,-2.333 -0.5,-2 -1.167,-5.167 -0.667,-3.167 -0.75,-4.75 -1.167,-7.584 -0.416,-2.833 -0.333,-3.667 -0.75,-5.583 -0.416,-1.917 -0.083,-3.167 -0.166,-5.417 -0.084,-2.25 -0.084,-2.333 -0.084,-5.667 0,-3.334 0.417,-5.084 0.417,-8.417 0,-3.334 0.25,-5.167 0.167,-7 -0.084,-1.834 0.083,-2.417 -0.417,-3.917 -0.5,-1.5 -0.5,-2.25 -1,-2.917 -0.5,-0.667 -0.833,-1.917 -1.083,-2.834 -0.25,-0.917 -0.084,-2.083 -0.417,-3.667 -0.333,-1.584 -0.417,-1.834 -1.167,-3.167 -0.75,-1.334 -2,-3.917 -2,-3.917"
               id="path163-4"
               style="fill:none;stroke:#000000;stroke-width:0.5;stroke-miterlimit:10" />
            <path
               d="m 699.69,757.584 c 0,0 0.167,-1.125 0.833,-1.625 0.667,-0.5 5.584,-0.668 5.5,-5.918 -0.083,-5.25 -3.75,-14.5 -6.5,-17.083 -2.75,-2.584 -9.5,-6.084 -10.666,-6.25 -1.167,-0.168 -0.834,-1 -0.834,-1 0,0 -0.583,-8.918 -0.666,-11.584 -0.084,-2.667 -0.584,-7.917 -0.417,-10.667 0.167,-2.75 0.25,-5.918 0.333,-9.168 0.084,-3.25 0.667,-8.25 1.417,-13 0.75,-4.75 1.75,-8.25 2.25,-11.583 0.5,-3.334 7.167,-10.5 9.333,-13.334 2.167,-2.834 6.334,-6.167 8.5,-7.334 2.167,-1.166 5.584,-3.666 8.084,-5.666 2.5,-2 6.916,-3.834 6.916,-3.834 l 0.167,1.042 -0.5,2.75 -0.25,4.25 c 0,0 1.25,0.75 1.375,3.5 0.125,2.75 0.5,4.375 1,6.625 0.5,2.25 0.875,6.75 0.875,6.75 l 0.375,5 0.5,2.5 0.125,1.624 0.5,5.25 c 0,0 2.375,-1.25 4.375,-2.25"
               id="path167-0"
               style="fill:none;stroke:#000000;stroke-width:0.5;stroke-miterlimit:10" />
            <path
               d="m 695.774,730.126 c 0,0 9.167,18.583 10.167,21.167"
               id="path171"
               style="fill:none;stroke:#000000;stroke-width:0.5;stroke-miterlimit:10" />
            <path
               d="m 679.19,750.292 c 0,0 -1.917,-18.5 2.833,-23.5 0,0 2.417,-3 6,-1.583"
               id="path175-4"
               style="fill:none;stroke:#000000;stroke-width:0.5;stroke-miterlimit:10" />
            <path
               d="m 664.857,657.376 3,-2.917 c 0,0 2.583,-2.75 3.583,-3.75 1,-1 4.375,-3.626 5.625,-4.25 1.25,-0.626 5.125,-3.25 5.125,-3.25 l 2.625,-1.5 0.75,-1.25 1,-0.313 c 0,0 0.125,-0.063 0.5,-0.063 l 0.375,0 c 0,0 0.75,1 1.125,1 l 1.125,0 c 0,0 0.5,-0.125 0.875,0.25 0.375,0.375 -0.25,0.188 0.375,0.313 0.625,0.125 1.125,0.094 1.125,0.094 0,0 0.625,-0.64 1.125,-0.765 0.5,-0.125 1,-0.133 1,-0.133 l 1,0.746 0.625,0.623 0.5,0.875 0.375,0.625 c 0,0 0.25,0.124 0.75,0.124 0.5,0 0.75,0.125 1.125,0 0.375,-0.125 1.125,-0.125 1.5,-0.125 0.375,0 0.5,-0.126 0.875,-0.25 0.375,-0.126 0.625,-0.126 1,0 0.375,0.124 0.375,0.374 0.875,0.374 0.5,0 0.875,-0.125 1.375,0 l 0.5,0.125 c 0,0 0.75,0.75 1,1.25 0.25,0.5 0.75,1.374 0.75,1.374 l 0.5,0.5 0.25,1.125 0.5,1.25"
               id="path179-9"
               style="fill:none;stroke:#000000;stroke-width:1.5;stroke-miterlimit:10" />
            <path
               d="m 730.94,677.084 c 0,0 -2,-4.125 -3.5,-6.125"
               id="path183"
               style="fill:none;stroke:#000000;stroke-width:0.5;stroke-miterlimit:10" />
            <path
               d="m 710.357,674.46 c 0,0 2.333,0.5 3.333,1.5 1,1 1.667,1.832 3,3.332 1.334,1.5 2.417,3.084 3.25,4.75 0.834,1.667 1,2.834 1.917,5.084 0.917,2.25 0.833,2.583 2,4 1.167,1.416 1,0.666 1.917,2.25 0.916,1.583 1.75,1.916 2,2.416 0.25,0.5 -0.667,0.417 -1.167,1.25 -0.5,0.834 -0.75,1 -1.167,2.334 -0.416,1.333 -0.583,0.5 -0.5,2.083 0.084,1.582 0.584,0.666 -0.25,2.166 -0.833,1.5 -1.083,2.333 -1.083,3.25 0,0.916 -0.75,1.583 -0.833,2.25 -0.084,0.666 -0.25,-0.584 0.083,1.583 0.333,2.166 0.083,4.166 0.167,5.332 0.083,1.167 0.166,5.084 0,7.5 -0.167,2.417 -0.25,5.417 -0.25,8.084 0,2.666 0.75,13.833 5.666,15.75"
               id="path187"
               style="fill:none;stroke:#000000;stroke-width:0.5;stroke-miterlimit:10" />
            <path
               d="m 658.44,716.126 c 0,0 -0.167,-4.583 -0.417,-7.5 -0.25,-2.917 -0.583,-5.75 -0.083,-6.917 0.5,-1.167 0.667,-1.584 1.5,-3.334 0.833,-1.75 1.333,-2.333 1.25,-4.917 -0.083,-2.584 -0.167,-4.417 -0.583,-7.167 -0.417,-2.75 -0.25,-7.75 -1.167,-11.334"
               id="path195"
               style="fill:none;stroke:#000000;stroke-width:0.5;stroke-miterlimit:10" />
            <path
               d="m 700.44,763.084 c 0,0 0.375,-0.062 0.812,0.437"
               id="path199"
               style="fill:none;stroke:#000000;stroke-width:0.5;stroke-miterlimit:10" />
            <path
               d="m 702.128,764.96 c 0,0 0.75,1.81 0.75,3.874"
               id="path203"
               style="fill:none;stroke:#000000;stroke-width:0.5;stroke-miterlimit:10" />
            <path
               d="m 673.065,760.334 c 0,0 0.687,-0.937 1.812,-1.187"
               id="path207"
               style="fill:none;stroke:#000000;stroke-width:0.5;stroke-miterlimit:10" />
            <g
               id="g209">
              <path
                 style="fill:#231f20"
                 id="path211"
                 d="m 687.378,799.147 c -0.16,0 -0.32,-0.026 -0.474,-0.077 l -0.75,-0.25 c -0.042,-0.014 -0.08,-0.025 -0.113,-0.033 -0.07,0.02 -0.146,0.043 -0.236,0.065 -0.192,0.048 -0.4,0.073 -0.62,0.073 -0.163,0 -0.31,-0.014 -0.42,-0.028 l -0.574,0 c -0.07,0 -0.14,-0.005 -0.212,-0.015 -0.086,-0.012 -0.477,-0.074 -0.94,-0.235 l -0.285,0 c -0.055,0 -0.11,-0.003 -0.166,-0.01 l -0.562,-0.062 c -0.208,-0.023 -0.41,-0.09 -0.59,-0.195 l -0.513,-0.3 -0.43,-0.07 -0.516,-0.052 c -0.183,-0.006 -0.506,-0.032 -0.822,-0.138 -0.184,-0.06 -0.33,-0.123 -0.42,-0.165 l -0.19,-0.07 -0.166,0 c -0.14,0 -0.278,-0.02 -0.412,-0.058 l -0.437,-0.125 c -0.344,-0.098 -0.64,-0.314 -0.837,-0.61 l -0.014,-0.02 -0.302,0 c -0.25,0 -0.498,-0.063 -0.718,-0.183 l -0.688,-0.376 c -0.026,-0.014 -0.05,-0.03 -0.076,-0.045 -0.15,-0.094 -0.34,-0.204 -0.42,-0.244 -0.46,-0.17 -0.815,-0.52 -0.99,-0.957 l -0.285,-0.32 c -0.03,-0.033 -0.058,-0.067 -0.085,-0.103 -0.04,-0.054 -0.153,-0.195 -0.235,-0.277 -0.43,-0.43 -0.552,-0.96 -0.572,-1.356 -0.27,-0.14 -0.49,-0.36 -0.633,-0.632 l -0.45,-0.168 c -0.048,-0.018 -0.096,-0.04 -0.143,-0.063 l -0.25,-0.124 -0.53,-0.265 -0.086,-0.027 c -0.33,-0.11 -0.865,-0.396 -1.087,-1.114 l -0.252,-0.202 c -0.043,-0.034 -0.084,-0.07 -0.123,-0.11 l -0.22,-0.22 -0.53,-0.47 c -0.05,-0.045 -0.097,-0.093 -0.14,-0.145 l -0.376,-0.437 c -0.14,-0.164 -0.245,-0.357 -0.304,-0.564 l -0.05,-0.17 -0.02,-0.03 c -0.09,-0.118 -0.16,-0.25 -0.21,-0.387 l -0.25,-0.688 c -0.07,-0.188 -0.1,-0.388 -0.09,-0.588 l 0.037,-0.71 -0.05,-0.065 c -0.157,-0.21 -0.256,-0.455 -0.288,-0.714 -0.018,-0.14 -0.074,-0.617 -0.074,-0.936 0,-0.088 -0.015,-0.2 -0.026,-0.303 -0.004,-0.038 -0.008,-0.077 -0.01,-0.114 -0.042,-0.068 -0.077,-0.14 -0.106,-0.212 0,0 -0.102,-0.255 -0.177,-0.466 -0.098,-0.15 -0.237,-0.387 -0.322,-0.727 -0.05,-0.2 -0.1,-0.465 -0.128,-0.62 l -0.09,-0.27 c -0.05,-0.152 -0.077,-0.312 -0.077,-0.473 l 0,-0.5 c 0,-0.062 0.004,-0.124 0.012,-0.186 l 0.062,-0.5 c 0.012,-0.097 0.034,-0.194 0.066,-0.287 l 0.066,-0.2 -0.143,-0.14 c -0.192,-0.193 -0.328,-0.433 -0.394,-0.697 l -0.063,-0.25 c -0.024,-0.097 -0.05,-0.16 -0.074,-0.226 -0.027,-0.072 -0.054,-0.145 -0.08,-0.226 l -0.025,-0.053 c -0.083,-0.187 -0.22,-0.495 -0.237,-0.895 -0.018,-0.08 -0.047,-0.166 -0.052,-0.18 -0.07,-0.215 -0.09,-0.448 -0.06,-0.673 l 0.174,-1.282 c 0.004,-0.227 0.025,-0.616 0.106,-0.942 0.102,-0.406 0.33,-0.738 0.543,-0.975 l 0.07,-0.188 c 0.087,-0.232 0.23,-0.44 0.417,-0.602 0.215,-0.187 0.61,-0.525 0.844,-0.68 0.168,-0.114 0.327,-0.187 0.457,-0.237 l 0,-0.005 c -0.026,-0.268 -0.062,-0.678 -0.062,-0.885 l 0,-0.313 c 0,-0.21 0.044,-0.417 0.13,-0.61 l 0.207,-0.466 0.096,-0.336 c 0.026,-0.09 0.06,-0.176 0.1,-0.26 l 0.19,-0.374 0.064,-0.13 c -0.06,-0.264 -0.045,-0.54 0.04,-0.798 l 0.314,-0.938 c 0.107,-0.322 0.32,-0.597 0.602,-0.78 -0.028,-0.158 -0.054,-0.358 -0.054,-0.558 0,-0.73 0.438,-1.247 0.626,-1.436 0.095,-0.094 0.2,-0.175 0.316,-0.24 l 0.028,-0.057 c 0.128,-0.256 0.326,-0.47 0.57,-0.617 l 0.313,-0.187 c 0.14,-0.084 0.29,-0.144 0.447,-0.18 0.042,-0.055 0.088,-0.107 0.138,-0.157 l 0.202,-0.203 0.106,-0.127 0.098,-0.262 c 0.067,-0.176 0.165,-0.338 0.29,-0.477 l 0.327,-0.362 c 0.172,-0.603 0.49,-1.635 0.79,-2.175 0.088,-0.158 0.127,-0.298 0.2,-0.575 0.064,-0.238 0.143,-0.533 0.28,-0.878 0.337,-0.84 1.133,-1.287 1.964,-1.47 0.45,-0.665 1.097,-1.387 1.727,-2.025 -0.924,-0.344 -1.95,-0.716 -2.687,-0.962 l -5.5,-1.834 -0.083,-0.03 c -8.49,-3.397 -9.936,-6.696 -10.624,-9.52 -0.034,-0.14 -0.066,-0.272 -0.1,-0.396 -0.37,-1.356 -0.33,-4.39 -0.245,-7.92 0.026,-1.085 0.05,-2.108 0.03,-2.464 -0.058,-0.908 0.02,-2.146 0.086,-3.238 0.04,-0.633 0.077,-1.23 0.077,-1.606 0,-0.514 -0.068,-1.545 -0.13,-2.455 -0.06,-0.927 -0.12,-1.805 -0.12,-2.294 0,-0.505 -0.128,-2.195 -0.247,-3.606 -0.677,-0.27 -1.568,-0.64 -2.064,-0.916 -1.403,-0.778 -1.773,-2.78 -1.773,-3.728 0,-0.636 0.26,-1.365 0.473,-1.857 -0.03,-0.374 -0.08,-0.946 -0.13,-1.395 -0.152,-1.366 0.743,-3.835 0.753,-3.86 0.154,-0.41 0.22,-0.83 0.222,-1.01 l -0.092,-0.202 c -0.19,-0.417 -0.452,-0.988 -0.544,-1.63 -0.132,-0.92 0.322,-5.253 0.326,-5.296 0.056,-0.498 0.235,-1.604 0.367,-2.394 -1.735,-1.662 -2.824,-4.48 -3.51,-6.25 -0.16,-0.415 -0.3,-0.773 -0.392,-0.972 -0.63,-1.35 -0.594,-3.255 -0.566,-4.785 0.005,-0.273 0.01,-0.53 0.01,-0.766 0,-0.616 -0.19,-2.338 -0.358,-3.857 -0.202,-1.826 -0.392,-3.55 -0.392,-4.394 0,-1.54 0,-5.145 -0.083,-7.956 -0.09,-3.072 1.566,-10.15 1.994,-11.436 0.312,-0.936 0.118,-1.828 -0.144,-2.307 -0.737,-1.35 -0.387,-3.064 -0.31,-3.394 0.114,-0.484 0.46,-0.88 0.926,-1.058 0.173,-0.066 0.354,-0.098 0.534,-0.098 0.304,0 0.605,0.092 0.86,0.27 l 0.834,0.584 c 0.093,0.065 0.18,0.14 0.255,0.225 0.006,0.007 0.73,0.812 1.36,1.442 1.032,1.03 1.89,3.835 2.075,4.83 0.158,0.256 0.842,0.784 1.3,1.138 0.473,0.367 1.01,0.782 1.508,1.248 0.502,0.47 0.99,0.95 1.406,1.368 l 1.166,-1.568 0.424,-2.052 0.244,-1.626 0.317,-1.904 c 0.003,-0.405 0.015,-1.676 0.09,-2.44 0.083,-0.814 0.75,-4.318 0.91,-5.16 l 0,-1.73 c 0,-0.92 0.416,-1.65 0.778,-2.112 0.65,-12.22 6.236,-23 6.477,-23.46 0.26,-0.495 0.77,-0.804 1.33,-0.804 l 44.79,0 c 0.705,0 1.315,0.49 1.466,1.18 0.01,0.038 0.868,3.95 1.463,5.797 0.402,1.245 0.834,3.257 1.215,5.032 0.235,1.09 0.456,2.12 0.618,2.725 0.223,0.826 0.685,2.235 1.13,3.598 0.417,1.27 0.81,2.47 1.052,3.317 0.462,1.62 1.41,4.784 2.02,6.373 0.473,1.23 0.657,2.626 0.82,3.86 0.077,0.595 0.152,1.16 0.25,1.623 0.19,0.918 0.27,2.158 0.35,3.357 0.06,0.905 0.12,1.84 0.222,2.452 0.163,0.975 0.224,2.414 0.277,3.683 0.03,0.684 0.062,1.46 0.1,1.71 0.04,0.258 0.157,0.486 0.416,0.976 0.166,0.313 0.372,0.703 0.595,1.2 0.502,1.113 0.847,2.256 1.246,3.578 l 0.258,0.846 c 0.595,1.934 0.754,4.802 0.754,6.19 0,0.603 -0.026,1.285 -0.06,1.907 0.65,-0.145 1.326,-0.277 1.525,-0.316 0.094,-0.02 0.19,-0.028 0.286,-0.028 0,0 0.447,-0.004 0.98,-0.1 0.332,-0.06 0.702,-0.248 0.817,-0.315 0.234,-0.137 0.502,-0.21 0.77,-0.21 0.12,0 0.24,0.015 0.36,0.045 l 1,0.25 c 0.666,0.167 1.135,0.767 1.135,1.454 0,0.007 0,0.646 0.058,1.386 0.006,0.072 0.01,0.13 0.017,0.176 l 0.007,0.012 c 0.084,0.142 0.212,0.357 0.365,0.725 0.138,0.33 0.376,0.77 0.627,1.232 0.246,0.453 0.5,0.92 0.723,1.398 0.237,0.508 0.523,1.24 0.826,2.012 0.297,0.755 0.602,1.535 0.87,2.132 0.524,1.16 0.694,1.625 1.033,2.55 l 0.132,0.358 c 0.447,1.213 0.596,3.402 0.7,5.358 l 0.016,0.265 c 0.044,0.777 0.235,1.674 0.403,2.465 0.048,0.224 0.093,0.438 0.133,0.638 0.15,0.745 0.556,3.078 0.735,4.108 0.765,0.843 1.522,2.286 1.657,3.3 0.16,1.202 -0.224,2.125 -0.563,2.94 -0.05,0.122 -0.103,0.248 -0.156,0.38 -0.26,0.653 -0.34,0.995 -0.494,1.677 l -0.126,0.546 c -0.15,0.633 -0.38,1.3 -0.605,1.948 -0.185,0.534 -0.36,1.038 -0.462,1.448 -0.074,0.3 -0.178,0.77 -0.3,1.32 -0.283,1.273 -0.67,3.015 -1.033,4.195 -0.19,0.616 -0.423,1.31 -0.674,2.058 -0.408,1.215 -0.87,2.59 -1.252,3.966 -0.36,1.296 -0.915,2.737 -1.406,4.008 -0.367,0.952 -0.713,1.85 -0.833,2.33 -0.13,0.528 -0.242,0.907 -0.344,1.257 -0.142,0.485 -0.253,0.867 -0.39,1.55 -0.182,0.912 -0.645,2.23 -1.135,3.623 -0.25,0.71 -0.503,1.434 -0.72,2.105 -0.474,1.47 -1.258,2.857 -1.888,3.972 -0.26,0.46 -0.485,0.858 -0.62,1.143 -0.45,0.96 -1.428,2.31 -2.31,3.5 l -0.27,0.37 c -0.073,0.1 -0.144,0.2 -0.215,0.3 -0.492,0.7 -1.105,1.57 -2.13,1.878 -0.223,0.068 -0.417,0.146 -0.615,0.223 -0.347,0.136 -0.74,0.29 -1.265,0.422 -0.485,0.12 -1.26,0.39 -1.88,0.604 -0.254,0.087 -0.49,0.17 -0.697,0.238 -0.71,0.237 -2.414,0.906 -3.373,1.326 -1.017,0.445 -2.282,0.706 -3.4,0.936 l -0.455,0.095 c -1.037,0.218 -2.147,0.56 -2.968,0.91 -0.72,0.31 -1.9,0.532 -3.04,0.748 -0.516,0.097 -1.004,0.19 -1.312,0.267 -0.417,0.104 -0.788,0.167 -1.147,0.23 -0.555,0.094 -1.034,0.176 -1.61,0.4 -1.043,0.406 -2.283,0.83 -3.576,0.912 -0.688,0.042 -0.746,0.05 -1.127,0.1 -0.144,0.02 -0.328,0.045 -0.594,0.078 -0.392,0.05 -0.392,0.05 -0.644,0.218 l -0.107,0.072 c 0.14,0.552 0.206,1.29 0.235,1.765 l 0.193,0.338 c 0.068,0.12 0.12,0.247 0.153,0.38 l 0.063,0.25 0.125,0.5 c 0.016,0.063 0.027,0.126 0.035,0.19 0.5,0.15 0.86,0.515 0.914,1.08 0.036,0.082 0.122,0.26 0.3,0.54 0.152,0.24 0.233,0.52 0.233,0.804 l 0,0.43 c 0.003,0 0.018,0.142 0.08,0.394 0.197,0.784 0.07,1.33 -0.083,1.66 l -0.016,0.04 -0.042,0.652 0,0.138 c 0,0.185 -0.03,0.384 -0.072,0.57 0.208,0.266 0.322,0.593 0.322,0.93 l 0,0.787 0.192,0.672 c 0.04,0.134 0.058,0.273 0.058,0.413 l 0,1 c 0,0.042 0,0.092 0.003,0.14 l 0.54,0.298 c 0.327,0.183 0.575,0.48 0.693,0.837 0.265,0.794 0.265,1.107 0.265,1.225 l 0,1.25 c 0,0.055 -0.003,0.11 -0.01,0.165 l -0.053,0.49 c -0.005,0.192 -0.024,0.565 -0.107,0.896 -0.038,0.153 -0.074,0.3 -0.175,0.486 0.063,0.168 0.095,0.346 0.095,0.525 l 0,0.75 c 0,0.21 -0.044,0.417 -0.13,0.61 l -0.25,0.562 c -0.063,0.143 -0.15,0.276 -0.255,0.393 l -0.417,0.463 0.048,0.155 c 0.044,0.144 0.066,0.293 0.066,0.442 l 0,0.625 c 0,0.05 -0.002,0.1 -0.007,0.15 l -0.062,0.624 c -0.04,0.403 -0.24,0.77 -0.555,1.023 -0.05,0.04 -0.12,0.105 -0.155,0.14 -0.258,0.37 -0.573,0.603 -0.7,0.687 -0.098,0.065 -0.202,0.12 -0.312,0.16 l -0.03,0.258 c -0.013,0.123 -0.042,0.244 -0.086,0.36 l -0.17,0.458 -0.238,0.77 c -0.03,0.1 -0.072,0.196 -0.122,0.287 l -0.313,0.563 c -0.026,0.045 -0.053,0.09 -0.083,0.13 l -0.438,0.626 -0.23,0.347 c -0.03,0.044 -0.063,0.086 -0.097,0.127 l -0.313,0.375 c -0.074,0.09 -0.16,0.17 -0.252,0.24 l -0.25,0.188 c -0.095,0.07 -0.2,0.13 -0.31,0.178 l -0.31,0.134 -0.032,0.02 -0.06,0.086 0,0.07 c 0,0.098 -0.01,0.196 -0.03,0.293 l -0.125,0.626 c -0.025,0.13 -0.068,0.258 -0.128,0.377 l -0.125,0.25 c -0.052,0.103 -0.115,0.2 -0.19,0.29 l -0.26,0.313 -0.07,0.106 -0.124,0.452 c -0.036,0.133 -0.09,0.26 -0.16,0.377 l -0.19,0.314 c -0.12,0.203 -0.29,0.374 -0.49,0.5 l -0.248,0.155 -0.024,0.033 -0.118,0.316 c -0.04,0.106 -0.092,0.21 -0.156,0.304 l -0.25,0.375 c -0.13,0.193 -0.302,0.354 -0.504,0.47 l -0.437,0.25 c -0.105,0.06 -0.216,0.106 -0.332,0.14 l -0.438,0.124 c -0.066,0.02 -0.132,0.033 -0.2,0.043 l -0.437,0.062 c -0.07,0.01 -0.142,0.014 -0.213,0.014 l -0.164,0 -0.204,0.06 -0.242,0.08 -0.013,0.006 -0.187,0.15 c -0.06,0.05 -0.126,0.093 -0.193,0.132 l -0.438,0.25 c -0.085,0.05 -0.176,0.09 -0.27,0.12 l -0.184,0.062 -0.173,0.116 -0.192,0.143 -0.663,0.542 c -0.14,0.116 -0.302,0.205 -0.475,0.263 -0.11,0.037 -0.325,0.116 -0.43,0.168 l -0.374,0.188 c -0.138,0.07 -0.287,0.117 -0.44,0.14 l -0.814,0.125 c -0.14,0.02 -0.34,0.065 -0.42,0.097 -0.378,0.15 -0.625,0.233 -0.944,0.313 -0.398,0.1 -0.762,0.107 -0.864,0.107 m 0,-1.5 c 0,0 0.25,0 0.5,-0.062 0.25,-0.063 0.437,-0.125 0.75,-0.25 0.312,-0.125 0.75,-0.188 0.75,-0.188 l 0.813,-0.125 0.376,-0.188 c 0.25,-0.125 0.625,-0.25 0.625,-0.25 l 0.688,-0.562 0.25,-0.188 0.375,-0.25 0.375,-0.125 0.437,-0.25 0.313,-0.25 0.25,-0.125 0.375,-0.125 0.437,-0.125 0.375,0 0.438,-0.063 0.438,-0.125 0.438,-0.25 0.25,-0.375 0.188,-0.5 0.312,-0.437 0.5,-0.313 0.188,-0.312 0.187,-0.688 0.25,-0.375 0.313,-0.375 0.125,-0.25 0.126,-0.625 0,-0.5 0.187,-0.313 0.313,-0.437 0.375,-0.25 0.438,-0.188 0.25,-0.188 0.313,-0.375 0.25,-0.375 0.438,-0.625 0.313,-0.563 0.25,-0.812 0.188,-0.5 0.063,-0.563 0.313,-0.75 0.625,-0.188 c 0,0 0.188,-0.125 0.312,-0.312 0.125,-0.188 0.438,-0.438 0.438,-0.438 l 0.062,-0.625 0,-0.625 -0.25,-0.812 0,-0.25 0.375,-0.375 0.563,-0.625 0.25,-0.563 0,-0.75 -0.125,-0.312 c 0,0 -0.008,0.002 -0.02,0.002 -0.054,0 -0.185,-0.042 0.02,-0.502 0.25,-0.563 0.187,-0.313 0.25,-0.563 0.062,-0.25 0.062,-0.625 0.062,-0.625 l 0.063,-0.562 0,-1.25 c 0,-0.188 -0.188,-0.75 -0.188,-0.75 l -0.562,-0.313 c 0,0 -0.313,-0.062 -0.438,-0.25 -0.125,-0.187 -0.187,-0.312 -0.25,-0.5 -0.062,-0.187 -0.062,-0.687 -0.062,-0.687 l 0,-1 -0.25,-0.875 0,-1 -0.312,-0.375 -0.063,-0.563 c 0,0 0.125,-0.375 0.125,-0.562 l 0,-0.188 0.063,-0.938 0.126,-0.312 c 0,0 0.124,-0.188 0,-0.688 -0.125,-0.5 -0.125,-0.75 -0.125,-0.75 l 0,-0.437 c -0.437,-0.688 -0.5,-1 -0.5,-1 -0.312,0 -0.812,0.312 -0.812,0.312 l -0.125,-0.75 0,-0.813 -0.125,-0.5 -0.062,-0.25 -0.25,-0.438 -0.125,-0.313 c 0,0 -0.062,-1.375 -0.25,-1.875 0,0 0.063,0.937 -0.187,1.625 l -0.375,-0.375 -0.125,-0.313 -0.187,-0.438 -0.125,-0.313 -0.312,-0.563 c 0,0 -0.062,-0.063 0.063,-0.313 l 0.126,-0.25 c 0,0 0.09,0.017 0.242,0.017 0.266,0 0.718,-0.05 1.195,-0.328 0.75,-0.438 0.75,-0.625 1.75,-0.75 1,-0.125 0.812,-0.125 1.812,-0.188 1,-0.062 2,-0.375 3.125,-0.812 1.125,-0.438 1.938,-0.438 2.938,-0.688 1,-0.25 3.25,-0.562 4.125,-0.937 0.875,-0.375 2.062,-0.75 3.25,-1 1.188,-0.25 2.563,-0.5 3.563,-0.938 1,-0.438 2.75,-1.126 3.5,-1.376 0.75,-0.25 1.937,-0.687 2.687,-0.875 0.75,-0.188 1.188,-0.438 1.813,-0.626 0.625,-0.187 1.062,-0.937 1.562,-1.625 0.5,-0.688 1.938,-2.563 2.438,-3.626 0.5,-1.062 1.812,-3 2.437,-4.937 0.625,-1.938 1.563,-4.313 1.813,-5.563 0.25,-1.25 0.437,-1.625 0.75,-2.875 0.312,-1.25 1.625,-4.126 2.25,-6.376 0.625,-2.25 1.437,-4.437 1.937,-6.062 0.5,-1.625 1.063,-4.438 1.313,-5.438 0.25,-1 0.812,-2.312 1.062,-3.375 0.25,-1.063 0.313,-1.5 0.688,-2.438 0.375,-0.938 0.75,-1.625 0.625,-2.563 -0.124,-0.938 -1.124,-2.5 -1.562,-2.75 0,0 -0.625,-3.626 -0.812,-4.563 -0.188,-0.938 -0.5,-2.188 -0.563,-3.313 -0.062,-1.125 -0.187,-4 -0.625,-5.187 -0.437,-1.188 -0.562,-1.563 -1.125,-2.813 -0.562,-1.25 -1.25,-3.187 -1.687,-4.125 -0.438,-0.938 -1.063,-1.938 -1.375,-2.688 -0.312,-0.75 -0.437,-0.563 -0.5,-1.375 -0.062,-0.813 -0.062,-1.5 -0.062,-1.5 l -1,-0.25 c 0,0 -0.625,0.375 -1.312,0.5 -0.688,0.125 -1.25,0.125 -1.25,0.125 0,0 -1.938,0.375 -2.5,0.562 -0.338,0.113 -0.608,0.136 -0.77,0.136 -0.108,0 -0.168,-0.01 -0.168,-0.01 0,0 0.188,-2.188 0.188,-3.75 0,-1.563 -0.188,-4.125 -0.688,-5.75 -0.5,-1.625 -0.875,-3 -1.437,-4.25 -0.562,-1.25 -1,-1.75 -1.124,-2.563 -0.125,-0.812 -0.125,-3.875 -0.375,-5.375 -0.25,-1.5 -0.25,-4.25 -0.562,-5.75 -0.312,-1.5 -0.375,-3.625 -1,-5.25 -0.625,-1.625 -1.562,-4.75 -2.062,-6.5 -0.5,-1.75 -1.75,-5.312 -2.188,-6.937 -0.437,-1.625 -1.187,-5.75 -1.812,-7.688 -0.625,-1.937 -1.5,-5.937 -1.5,-5.937 l -44.792,0 c 0,0 -5.833,11.125 -6.333,23.375 0,0 -0.75,0.625 -0.75,1.5 l 0,1.875 c 0,0 -0.833,4.333 -0.916,5.166 -0.083,0.834 -0.083,2.417 -0.083,2.417 l -0.333,2 -0.25,1.667 -0.5,2.416 -2.416,3.25 c 0,0 -1.25,-1.333 -2.583,-2.583 -1.333,-1.25 -3.083,-2.167 -3.25,-3.167 -0.166,-1 -1,-3.416 -1.667,-4.083 -0.666,-0.667 -1.416,-1.5 -1.416,-1.5 l -0.834,-0.583 c 0,0 -0.333,1.416 0.167,2.333 0.5,0.917 0.667,2.25 0.25,3.5 -0.417,1.25 -2,8.083 -1.917,10.917 0.084,2.833 0.084,6.5 0.084,8 0,1.5 0.75,6.833 0.75,8.25 0,1.416 -0.167,3.666 0.416,4.916 0.584,1.25 1.917,5.75 4.167,7.25 0,0 -0.416,2.417 -0.5,3.167 -0.083,0.75 -0.416,4.333 -0.333,4.916 0.083,0.583 0.417,1.166 0.583,1.583 0.167,0.416 0,1.333 -0.25,2 -0.25,0.666 -0.75,2.416 -0.666,3.166 0.084,0.75 0.167,1.833 0.167,1.833 0,0 -0.5,1 -0.5,1.583 0,0.583 0.25,2 1,2.417 0.75,0.416 2.75,1.166 2.75,1.166 0,0 0.334,3.75 0.334,4.666 0,0.917 0.25,3.667 0.25,4.75 0,1.083 -0.25,3.417 -0.166,4.75 0.083,1.333 -0.333,8.25 0.167,10.083 0.5,1.833 0.667,5.25 9.834,8.916 l 5.5,1.833 c 1.75,0.583 5,1.833 5,1.833 0,0 -3.084,2.666 -3.584,3.98 0,0 -1.25,0 -1.5,0.624 -0.25,0.625 -0.25,1.062 -0.562,1.625 -0.313,0.562 -0.75,2.187 -0.75,2.187 l -0.563,0.624 -0.187,0.5 -0.313,0.375 -0.25,0.25 -0.187,0.437 -0.25,0.25 -0.437,-0.125 -0.312,0.187 -0.125,0.25 -0.187,0.312 -0.313,0.125 c 0,0 -0.187,0.187 -0.187,0.375 0,0.187 0.062,0.437 0.062,0.437 0,0 0,0.437 -0.062,0.624 -0.063,0.188 -0.188,0.5 -0.188,0.5 l -0.437,0.25 -0.312,0.938 0.125,0.375 -0.062,0.25 -0.25,0.5 -0.187,0.375 -0.125,0.438 -0.25,0.562 0,0.313 c 0,0.187 0.063,0.812 0.063,0.812 l 0,0.438 c 0,0 0.063,0.25 -0.124,0.375 -0.188,0.125 -0.25,0.375 -0.438,0.5 -0.187,0.125 -0.375,0.125 -0.562,0.25 -0.188,0.125 -0.688,0.562 -0.688,0.562 l -0.187,0.5 c 0,0 -0.312,0.25 -0.374,0.5 -0.063,0.25 -0.063,0.688 -0.063,0.688 l -0.187,1.375 c 0,0 0.125,0.375 0.125,0.562 0,0.188 0.126,0.375 0.188,0.563 0.063,0.187 0.125,0.312 0.188,0.562 l 0.062,0.25 0.375,0.375 0.25,0.25 0.125,0.313 -0.125,0.375 -0.187,0.562 -0.063,0.5 0,0.5 0.125,0.375 c 0,0 0.063,0.375 0.125,0.625 0.063,0.25 0.188,0.313 0.25,0.5 0.063,0.188 0.188,0.5 0.188,0.5 0,0 0.188,0.188 0.188,0.375 0,0.187 0.063,0.562 0.063,0.812 0,0.25 0.063,0.75 0.063,0.75 l 0.375,0.5 -0.062,1.25 0.25,0.688 0.187,0.25 0.125,0.437 0.375,0.437 0.563,0.5 0.25,0.25 0.312,0.25 c 0,0 0.313,0.187 0.375,0.375 0.063,0.187 0,0.375 0.188,0.437 l 0.188,0.062 0.625,0.312 0.25,0.125 0.5,0.187 0.312,0.125 0.313,0.313 0.125,0.25 0.437,0.187 0.25,0.313 0.125,0.562 c 0,0 -0.062,0.375 0.125,0.563 0.188,0.187 0.375,0.437 0.375,0.437 l 0.563,0.625 c 0,0 -0.063,0.188 0.125,0.25 0.187,0.063 0.687,0.375 0.687,0.375 l 0.688,0.375 0.812,0 0.5,0.312 0.25,0.375 0.438,0.124 0.437,0 0.5,0.188 c 0,0 0.126,0.062 0.313,0.125 0.188,0.062 0.438,0.062 0.438,0.062 l 0.625,0.062 0.75,0.125 0.75,0.437 0.563,0.063 0.313,0 c 0.166,0 0.027,-0.083 0.046,-0.083 0.01,0 0.058,0.02 0.204,0.083 0.437,0.188 0.874,0.25 0.874,0.25 l 0.688,0 c 0,0 0.14,0.028 0.306,0.028 0.083,0 0.173,-0.007 0.257,-0.028 0.25,-0.062 0.376,-0.125 0.563,-0.125 0.188,0 0.438,0.063 0.625,0.125 l 0.75,0.25" />
            </g>
          </g>
        </g>
        <path
           style="fill:none;stroke:#231f20;stroke-width:1.875"
           id="path213"
           d="m 150.937,113.203 c 0,41.42 -33.578,75 -75,75 -41.42,0 -75,-33.58 -75,-75" />
      </g>
    </g>
  </g>
</svg>
