<svg xmlns="http://www.w3.org/2000/svg" width="151.875" height="189.141"><defs><clipPath id="a"><path d="M635.044 806.584l1.3-98.167c0-33.137 26.88-59.917 60.018-59.917 33.137 0 60.016 26.947 60.016 60.084v98H635.044z"/></clipPath><pattern id="b" height="12" width="12" patternUnits="userSpaceOnUse" patternTransform="matrix(.707 .707 -.707 .707 4186.02 7529.55)"><path d="M12-3H6v6h6v-6z" fill="#fff"/><g><path d="M10.5 0c0-.828-.672-1.5-1.5-1.5S7.5-.828 7.5 0 8.172 1.5 9 1.5 10.5.828 10.5 0" fill="#db58a4"/></g><path d="M6-3H0v6h6v-6z" fill="#fff"/><g><path d="M4.5 0c0-.828-.672-1.5-1.5-1.5S1.5-.828 1.5 0 2.172 1.5 3 1.5 4.5.828 4.5 0" fill="#db58a4"/></g><path d="M15 3H9v6h6V3z" fill="#fff"/><g><path d="M13.5 6c0-.828-.672-1.5-1.5-1.5s-1.5.672-1.5 1.5.672 1.5 1.5 1.5 1.5-.672 1.5-1.5" fill="#db58a4"/></g><path d="M9 3H3v6h6V3z" fill="#fff"/><g><path d="M7.5 6c0-.828-.672-1.5-1.5-1.5S4.5 5.172 4.5 6 5.172 7.5 6 7.5 7.5 6.828 7.5 6" fill="#db58a4"/></g><path d="M3 3h-6v6h6V3z" fill="#fff"/><g><path d="M1.5 6c0-.828-.672-1.5-1.5-1.5s-1.5.672-1.5 1.5.672 1.5 1.5 1.5S1.5 6.828 1.5 6" fill="#db58a4"/></g><path d="M12 9H6v6h6V9z" fill="#fff"/><g><path d="M10.5 12c0-.828-.672-1.5-1.5-1.5s-1.5.672-1.5 1.5.672 1.5 1.5 1.5 1.5-.672 1.5-1.5" fill="#db58a4"/></g><path d="M6 9H0v6h6V9z" fill="#fff"/><g><path d="M4.5 12c0-.828-.672-1.5-1.5-1.5s-1.5.672-1.5 1.5.672 1.5 1.5 1.5 1.5-.672 1.5-1.5" fill="#db58a4"/></g></pattern><pattern id="c" height="12" width="12" patternUnits="userSpaceOnUse" patternTransform="matrix(.707 .707 -.707 .707 4186.02 7529.55)"><path d="M12-3H6v6h6v-6z" fill="#fff"/><g><path d="M10.5 0c0-.828-.672-1.5-1.5-1.5S7.5-.828 7.5 0 8.172 1.5 9 1.5 10.5.828 10.5 0" fill="#db58a4"/></g><path d="M6-3H0v6h6v-6z" fill="#fff"/><g><path d="M4.5 0c0-.828-.672-1.5-1.5-1.5S1.5-.828 1.5 0 2.172 1.5 3 1.5 4.5.828 4.5 0" fill="#db58a4"/></g><path d="M15 3H9v6h6V3z" fill="#fff"/><g><path d="M13.5 6c0-.828-.672-1.5-1.5-1.5s-1.5.672-1.5 1.5.672 1.5 1.5 1.5 1.5-.672 1.5-1.5" fill="#db58a4"/></g><path d="M9 3H3v6h6V3z" fill="#fff"/><g><path d="M7.5 6c0-.828-.672-1.5-1.5-1.5S4.5 5.172 4.5 6 5.172 7.5 6 7.5 7.5 6.828 7.5 6" fill="#db58a4"/></g><path d="M3 3h-6v6h6V3z" fill="#fff"/><g><path d="M1.5 6c0-.828-.672-1.5-1.5-1.5s-1.5.672-1.5 1.5.672 1.5 1.5 1.5S1.5 6.828 1.5 6" fill="#db58a4"/></g><path d="M12 9H6v6h6V9z" fill="#fff"/><g><path d="M10.5 12c0-.828-.672-1.5-1.5-1.5s-1.5.672-1.5 1.5.672 1.5 1.5 1.5 1.5-.672 1.5-1.5" fill="#db58a4"/></g><path d="M6 9H0v6h6V9z" fill="#fff"/><g><path d="M4.5 12c0-.828-.672-1.5-1.5-1.5s-1.5.672-1.5 1.5.672 1.5 1.5 1.5 1.5-.672 1.5-1.5" fill="#db58a4"/></g></pattern></defs><g><g><g clip-path="url(#a)" transform="matrix(1.25 0 0 -1.25 -794.493 998.933)"><g><path d="M756.345 708.584c0-33.137-26.863-60-60-60s-60 26.863-60 60 26.863 60 60 60 60-26.863 60-60z" fill="none" stroke="#231f20" stroke-width="1.5"/></g><g><path d="M756.345 708.584c0-33.137-26.863-60-60-60s-60 26.863-60 60 26.863 60 60 60 60-26.863 60-60" fill="#fff"/></g><g><path d="M756.345 708.584c0-33.137-26.863-60-60-60s-60 26.863-60 60 26.863 60 60 60 60-26.863 60-60z" fill="none" stroke="#231f20" stroke-width="1.5"/></g><g><path d="M674.023 616.21c-.28 0-.535.154-.664.4-.24.457-5.828 11.24-6.406 23.398-.305.336-.764.982-.764 1.826v1.804c-.112.584-.832 4.356-.913 5.162-.077.776-.086 2.12-.087 2.43l-.323 1.94-.252 1.678-.46 2.213-1.787 2.406c-.494-.51-1.23-1.25-1.998-1.97-.47-.442-.97-.83-1.453-1.202-.672-.52-1.507-1.165-1.57-1.54-.152-.913-.998-3.614-1.877-4.492-.652-.653-1.386-1.468-1.39-1.472-.037-.04-.08-.08-.126-.112l-.833-.583c-.127-.09-.28-.136-.43-.136-.09 0-.18.015-.268.048-.232.09-.405.287-.462.53-.04.173-.38 1.728.24 2.863.437.806.514 1.946.195 2.906-.42 1.258-2.042 8.182-1.955 11.175.083 2.823.083 6.436.083 7.98 0 .8.188 2.506.388 4.31.178 1.614.363 3.282.363 3.94 0 .237-.005.5-.01.776-.026 1.454-.06 3.263.497 4.456.11.235.245.59.41 1.017.703 1.813 1.845 4.764 3.62 6.24-.125.743-.366 2.19-.428 2.76-.005.04-.445 4.304-.33 5.105.076.537.302 1.03.483 1.426.054.12.106.23.146.33.053.17-.02.827-.255 1.46-.168.448-.824 2.484-.71 3.512.06.544.12 1.265.148 1.61-.172.374-.486 1.14-.486 1.724 0 .64.25 2.44 1.386 3.072.57.317 1.76.792 2.408 1.044.12 1.37.29 3.51.29 4.134 0 .464.058 1.33.12 2.246.064.965.13 1.964.13 2.504 0 .41-.037 1.003-.078 1.653-.066 1.07-.14 2.28-.088 3.142.025.39 0 1.383-.026 2.534-.083 3.47-.124 6.443.218 7.7.036.13.07.27.105.415.5 2.045 1.332 5.465 10.175 9.002l5.54 1.848c1.07.356 2.72.972 3.824 1.387-.876.82-2.084 2.035-2.65 2.998-.564.074-1.416.312-1.716 1.063-.117.293-.187.548-.252.793-.074.28-.133.5-.27.747-.293.528-.64 1.717-.77 2.182l-.445.492c-.062.07-.11.15-.144.24l-.143.38-.23.277-.205.2c-.068.066-.12.146-.16.234l-.05.12c-.045-.01-.09-.013-.135-.013-.135 0-.27.038-.386.108l-.312.188c-.122.073-.222.18-.285.308l-.125.25-.028.044-.08.032c-.094.038-.18.094-.252.166-.095.095-.407.443-.407.905 0 .19.035.395.062.517-.004.133-.016.274-.028.325l-.075.203-.207.118c-.16.09-.28.24-.34.414l-.312.937c-.05.154-.05.32 0 .475l.05.154-.384.772c-.02.042-.038.085-.05.13l-.11.386-.23.515c-.042.096-.065.2-.065.304v.314c0 .205.067.887.067.887l-.003.29c-.097.102-.166.205-.218.283-.023.05-.075.067-.113.08-.12.04-.283.094-.46.212-.21.14-.767.622-.767.622-.093.082-.164.184-.208.3l-.124.33c-.164.166-.382.432-.462.752-.07.28-.083.66-.086.815l-.18 1.327c-.016.114-.005.23.03.338.04.12.084.288.088.343 0 .268.102.496.176.663.017.04.037.08.05.12l.072.2c.033.088.066.175.1.308l.062.25c.033.132.102.252.197.348l.47.47-.214.637c-.015.046-.026.094-.032.143l-.062.5-.006.593c0 .08.013.16.04.238l.106.32c.02.125.074.415.127.625.067.268.18.436.25.536.084.22.22.56.22.56.032.08.078.157.137.222.006.09.016.194.028.303.013.132.03.273.03.384 0 .28.068.843.068.843.016.13.066.252.145.357l.212.283-.05.98c-.004.1.01.2.045.293l.25.688c.025.07.06.135.105.194l.105.14.087.303c.03.104.08.2.15.282l.376.438c.022.025.046.05.072.072l.562.5.218.22.374.305c.025.02.12.084.14.1.07.443.288.717.653.838l.136.046.828.414.725.28.118.118.072.14c.08.16.212.286.375.356l.265.113.024.03.06.278c-.012.255.02.71.354 1.044.15.15.298.347.305.357l.432.483c.078.308.303.548.618.653.07.03.34.183.528.3l.725.397c.11.06.234.09.36.09h.597l.18.114.16.24c.1.15.248.257.42.306l.436.125c.07.02.138.03.207.03h.302l.356.133c.01.007.156.074.354.14.288.096.612.1.675.1l.55.06.565.095.632.37c.09.052.192.085.295.097l.562.062.395.004c.03 0 .06-.002.09-.005.463.18.88.242.93.25.034.004.07.006.105.006h.626c.083.013.218.028.367.028.158 0 .306-.017.44-.05.09-.022.166-.045.235-.065.066-.02.125-.04.144-.04.05 0 .2.025.388.088l.75.25c.076.025.156.038.237.038.036 0 .352-.002.682-.085.28-.07.493-.14.846-.28.165-.066.442-.12.58-.14l.818-.127c.077-.012.152-.036.22-.07l.376-.188c.21-.106.527-.21.527-.21.088-.028.166-.072.238-.13l.687-.563.226-.168.256-.17.28-.094c.048-.015.093-.035.136-.06l.437-.25c.034-.02.067-.04.097-.066l.25-.2.132-.065.324-.11.304-.086h.27c.036 0 .072-.002.107-.007l.44-.063c.032-.005.065-.012.1-.02l.436-.126c.058-.017.113-.04.166-.07l.438-.25c.1-.058.187-.14.252-.235l.25-.375c.032-.048.057-.1.078-.153l.153-.408.168-.236.375-.232c.1-.063.185-.15.246-.25l.19-.313c.034-.06.06-.122.08-.19l.154-.57.183-.272.264-.312c.038-.043.07-.09.096-.143l.125-.25c.03-.06.053-.123.065-.188l.125-.626c.01-.05.015-.098.015-.148v-.292l.08-.134.198-.275.205-.136.375-.16c.055-.025.107-.055.155-.09l.25-.188c.046-.036.09-.076.126-.12l.312-.376.298-.438.428-.61.353-.63c.026-.045.046-.093.062-.143l.25-.813.173-.457c.02-.058.036-.12.043-.18l.05-.456.135-.325.285-.085c.072-.02.14-.054.2-.094.052-.035.323-.224.52-.52.04-.055.187-.192.283-.27.158-.125.258-.31.278-.51l.062-.625.004-.7c0-.073-.01-.147-.033-.22l-.176-.57.115-.116.59-.653c.053-.058.096-.124.128-.196l.25-.563c.042-.095.064-.2.064-.304v-.75c0-.095-.018-.19-.053-.278l-.113-.282c.083-.18.114-.236.13-.265.08-.134.103-.216.14-.366.08-.324.085-.73.085-.808l.058-.48.004-1.332c0-.205-.076-.537-.225-.987-.06-.178-.184-.328-.348-.42l-.562-.31c-.068-.04-.14-.066-.217-.08l-.008-.004c-.058-.095-.085-.156-.115-.25-.01-.046-.025-.27-.025-.45v-1c0-.07-.01-.138-.03-.205l-.22-.774v-.895c0-.176-.06-.346-.173-.48l-.168-.203-.02-.183c.05-.18.11-.432.11-.635v-.19l.054-.767.066-.165c.102-.207.197-.584.047-1.186-.096-.383-.103-.578-.103-.58v-.426c0-.142-.04-.282-.117-.402-.332-.522-.404-.77-.404-.772-.09-.326-.393-.576-.73-.576-.06 0-.125.005-.188.015v-.514c0-.06-.007-.122-.022-.182l-.187-.75c-.017-.066-.043-.13-.077-.19l-.224-.392-.06-.148c-.022-.413-.097-1.463-.29-1.976-.037-.098-.093-.185-.16-.257.048-.024.1-.05.148-.08.21-.122.365-.226.497-.315.308-.206.4-.27.968-.34l.588-.075c.385-.052.47-.063 1.18-.107 1.185-.075 2.31-.458 3.348-.862.65-.25 1.188-.344 1.758-.44.355-.062.71-.123 1.09-.22.34-.083.83-.175 1.357-.275 1.1-.208 2.24-.423 2.883-.7.864-.37 2.027-.727 3.11-.955l.458-.095c1.08-.223 2.305-.475 3.25-.89.974-.426 2.71-1.107 3.436-1.35l.688-.235c.67-.232 1.428-.494 1.944-.624.48-.12.848-.264 1.173-.392.217-.085.43-.168.674-.242.777-.233 1.264-.923 1.733-1.59l.22-.312.276-.374c.664-.898 1.777-2.4 2.234-3.373.15-.322.383-.73.644-1.192.614-1.085 1.377-2.436 1.828-3.833.218-.677.475-1.407.727-2.123.48-1.368.936-2.66 1.107-3.523.143-.712.265-1.128.406-1.61.1-.342.208-.713.337-1.23.13-.523.486-1.443.86-2.416.485-1.256 1.034-2.68 1.385-3.94.386-1.393.852-2.78 1.263-4.002.25-.742.482-1.43.67-2.04.354-1.15.737-2.876 1.017-4.137.124-.56.23-1.034.306-1.34.11-.442.29-.96.48-1.51.22-.63.444-1.278.585-1.874l.124-.54c.158-.697.246-1.082.53-1.79l.16-.39c.332-.797.645-1.55.51-2.55-.12-.92-.927-2.395-1.613-3.053-.15-.865-.612-3.523-.77-4.307l-.13-.63c-.175-.817-.373-1.744-.418-2.578l-.015-.267c-.073-1.373-.21-3.93-.655-5.138l-.133-.36c-.345-.936-.5-1.363-1.014-2.5-.28-.622-.59-1.415-.884-2.167-.298-.762-.58-1.482-.807-1.968-.21-.45-.46-.912-.702-1.357-.26-.482-.508-.936-.66-1.302-.133-.318-.237-.492-.32-.63-.083-.143-.1-.17-.125-.514-.06-.776-.06-1.433-.06-1.443 0-.345-.235-.644-.57-.728l-1-.25c-.058-.016-.12-.023-.18-.023-.135 0-.27.036-.386.106-.004.002-.523.308-1.06.406-.607.11-1.113.112-1.118.112-.047 0-.096.004-.142.013-.19.037-1.793.35-2.476.55.054-.788.12-1.934.12-2.876 0-1.35-.152-4.123-.722-5.972l-.258-.85c-.392-1.297-.73-2.417-1.212-3.487-.21-.47-.406-.837-.575-1.156-.27-.51-.433-.818-.494-1.212-.045-.292-.076-1.02-.108-1.793-.053-1.248-.113-2.662-.268-3.592-.108-.648-.168-1.56-.23-2.526-.078-1.174-.157-2.388-.338-3.253-.105-.504-.18-1.08-.26-1.68-.156-1.192-.334-2.542-.774-3.687-.62-1.615-1.576-4.807-2.042-6.438-.236-.825-.637-2.05-1.042-3.29-.45-1.37-.914-2.79-1.142-3.636-.168-.623-.39-1.663-.628-2.764-.377-1.758-.805-3.75-1.195-4.96-.608-1.88-1.474-5.828-1.483-5.867-.075-.345-.38-.59-.732-.59h-44.792z" fill="#fff"/></g><g><path d="M687.378 799.147c-.16 0-.32-.026-.474-.077l-.75-.25c-.042-.014-.08-.025-.113-.033-.07.02-.146.043-.236.065-.192.048-.4.073-.62.073-.163 0-.31-.014-.42-.028h-.574c-.07 0-.14-.005-.212-.015-.086-.012-.477-.074-.94-.235h-.285c-.055 0-.11-.003-.166-.01l-.562-.062c-.208-.023-.41-.09-.59-.195l-.513-.3-.43-.07-.516-.052c-.183-.006-.506-.032-.822-.138-.184-.06-.33-.123-.42-.165l-.19-.07h-.166c-.14 0-.278-.02-.412-.058l-.437-.125c-.344-.098-.64-.314-.837-.61l-.014-.02h-.302c-.25 0-.498-.063-.718-.183l-.688-.376c-.026-.014-.05-.03-.076-.045-.15-.094-.34-.204-.42-.244-.46-.17-.815-.52-.99-.957l-.285-.32c-.03-.033-.058-.067-.085-.103-.04-.054-.153-.195-.235-.277-.43-.43-.552-.96-.572-1.356-.27-.14-.49-.36-.633-.632l-.45-.168c-.048-.018-.096-.04-.143-.063l-.25-.124-.53-.265-.086-.027c-.33-.11-.865-.396-1.087-1.114l-.252-.202c-.043-.034-.084-.07-.123-.11l-.22-.22-.53-.47c-.05-.045-.097-.093-.14-.145l-.376-.437c-.14-.164-.245-.357-.304-.564l-.05-.17-.02-.03c-.09-.118-.16-.25-.21-.387l-.25-.688c-.07-.188-.1-.388-.09-.588l.037-.71-.05-.065c-.157-.21-.256-.455-.288-.714-.018-.14-.074-.617-.074-.936 0-.088-.015-.2-.026-.303-.004-.038-.008-.077-.01-.114-.042-.068-.077-.14-.106-.212 0 0-.102-.255-.177-.466-.098-.15-.237-.387-.322-.727-.05-.2-.1-.465-.128-.62l-.09-.27c-.05-.152-.077-.312-.077-.473v-.5c0-.062.004-.124.012-.186l.062-.5c.012-.097.034-.194.066-.287l.066-.2-.143-.14c-.192-.193-.328-.433-.394-.697l-.063-.25c-.024-.097-.05-.16-.074-.226-.027-.072-.054-.145-.08-.226l-.025-.053c-.083-.187-.22-.495-.237-.895-.018-.08-.047-.166-.052-.18-.07-.215-.09-.448-.06-.673l.174-1.282c.004-.227.025-.616.106-.942.102-.406.33-.738.543-.975l.07-.188c.087-.232.23-.44.417-.602.215-.187.61-.525.844-.68.168-.114.327-.187.457-.237v-.005c-.026-.268-.062-.678-.062-.885v-.313c0-.21.044-.417.13-.61l.207-.466.096-.336c.026-.09.06-.176.1-.26l.19-.374.064-.13c-.06-.264-.045-.54.04-.798l.314-.938c.107-.322.32-.597.602-.78-.028-.158-.054-.358-.054-.558 0-.73.438-1.247.626-1.436.095-.094.2-.175.316-.24l.028-.057c.128-.256.326-.47.57-.617l.313-.187c.14-.084.29-.144.447-.18.042-.055.088-.107.138-.157l.202-.203.106-.127.098-.262c.067-.176.165-.338.29-.477l.327-.362c.172-.603.49-1.635.79-2.175.088-.158.127-.298.2-.575.064-.238.143-.533.28-.878.337-.84 1.133-1.287 1.964-1.47.45-.665 1.097-1.387 1.727-2.025-.924-.344-1.95-.716-2.687-.962l-5.5-1.834-.083-.03c-8.49-3.397-9.936-6.696-10.624-9.52-.034-.14-.066-.272-.1-.396-.37-1.356-.33-4.39-.245-7.92.026-1.085.05-2.108.03-2.464-.058-.908.02-2.146.086-3.238.04-.633.077-1.23.077-1.606 0-.514-.068-1.545-.13-2.455-.06-.927-.12-1.805-.12-2.294 0-.505-.128-2.195-.247-3.606-.677-.27-1.568-.64-2.064-.916-1.403-.778-1.773-2.78-1.773-3.728 0-.636.26-1.365.473-1.857-.03-.374-.08-.946-.13-1.395-.152-1.366.743-3.835.753-3.86.154-.41.22-.83.222-1.01l-.092-.202c-.19-.417-.452-.988-.544-1.63-.132-.92.322-5.253.326-5.296.056-.498.235-1.604.367-2.394-1.735-1.662-2.824-4.48-3.51-6.25-.16-.415-.3-.773-.392-.972-.63-1.35-.594-3.255-.566-4.785.005-.273.01-.53.01-.766 0-.616-.19-2.338-.358-3.857-.202-1.826-.392-3.55-.392-4.394 0-1.54 0-5.145-.083-7.956-.09-3.072 1.566-10.15 1.994-11.436.312-.936.118-1.828-.144-2.307-.737-1.35-.387-3.064-.31-3.394.114-.484.46-.88.926-1.058.173-.066.354-.098.534-.098.304 0 .605.092.86.27l.834.584c.093.065.18.14.255.225.006.007.73.812 1.36 1.442 1.032 1.03 1.89 3.835 2.075 4.83.158.256.842.784 1.3 1.138.473.367 1.01.782 1.508 1.248.502.47.99.95 1.406 1.368l1.166-1.568.424-2.052.244-1.626.317-1.904c.003-.405.015-1.676.09-2.44.083-.814.75-4.318.91-5.16v-1.73c0-.92.416-1.65.778-2.112.65-12.22 6.236-23 6.477-23.46.26-.495.77-.804 1.33-.804h44.79c.705 0 1.315.49 1.466 1.18.01.038.868 3.95 1.463 5.797.402 1.245.834 3.257 1.215 5.032.235 1.09.456 2.12.618 2.725.223.826.685 2.235 1.13 3.598.417 1.27.81 2.47 1.052 3.317.462 1.62 1.41 4.784 2.02 6.373.473 1.23.657 2.626.82 3.86.077.595.152 1.16.25 1.623.19.918.27 2.158.35 3.357.06.905.12 1.84.222 2.452.163.975.224 2.414.277 3.683.03.684.062 1.46.1 1.71.04.258.157.486.416.976.166.313.372.703.595 1.2.502 1.113.847 2.256 1.246 3.578l.258.846c.595 1.934.754 4.802.754 6.19 0 .603-.026 1.285-.06 1.907.65-.145 1.326-.277 1.525-.316.094-.02.19-.028.286-.028 0 0 .447-.004.98-.1.332-.06.702-.248.817-.315.234-.137.502-.21.77-.21.12 0 .24.015.36.045l1 .25c.666.167 1.135.767 1.135 1.454 0 .007 0 .646.058 1.386.006.072.01.13.017.176l.007.012c.084.142.212.357.365.725.138.33.376.77.627 1.232.246.453.5.92.723 1.398.237.508.523 1.24.826 2.012.297.755.602 1.535.87 2.132.524 1.16.694 1.625 1.033 2.55l.132.358c.447 1.213.596 3.402.7 5.358l.016.265c.044.777.235 1.674.403 2.465.048.224.093.438.133.638.15.745.556 3.078.735 4.108.765.843 1.522 2.286 1.657 3.3.16 1.202-.224 2.125-.563 2.94-.05.122-.103.248-.156.38-.26.653-.34.995-.494 1.677l-.126.546c-.15.633-.38 1.3-.605 1.948-.185.534-.36 1.038-.462 1.448-.074.3-.178.77-.3 1.32-.283 1.273-.67 3.015-1.033 4.195-.19.616-.423 1.31-.674 2.058-.408 1.215-.87 2.59-1.252 3.966-.36 1.296-.915 2.737-1.406 4.008-.367.952-.713 1.85-.833 2.33-.13.528-.242.907-.344 1.257-.142.485-.253.867-.39 1.55-.182.912-.645 2.23-1.135 3.623-.25.71-.503 1.434-.72 2.105-.474 1.47-1.258 2.857-1.888 3.972-.26.46-.485.858-.62 1.143-.45.96-1.428 2.31-2.31 3.5l-.27.37c-.073.1-.144.2-.215.3-.492.7-1.105 1.57-2.13 1.878-.223.068-.417.146-.615.223-.347.136-.74.29-1.265.422-.485.12-1.26.39-1.88.604-.254.087-.49.17-.697.238-.71.237-2.414.906-3.373 1.326-1.017.445-2.282.706-3.4.936l-.455.095c-1.037.218-2.147.56-2.968.91-.72.31-1.9.532-3.04.748-.516.097-1.004.19-1.312.267-.417.104-.788.167-1.147.23-.555.094-1.034.176-1.61.4-1.043.406-2.283.83-3.576.912-.688.042-.746.05-1.127.1-.144.02-.328.045-.594.078-.392.05-.392.05-.644.218l-.107.072c.14.552.206 1.29.235 1.765l.193.338c.068.12.12.247.153.38l.063.25.125.5c.016.063.027.126.035.19.5.15.86.515.914 1.08.036.082.122.26.3.54.152.24.233.52.233.804v.43c.003 0 .018.142.08.394.197.784.07 1.33-.083 1.66l-.016.04-.042.652v.138c0 .185-.03.384-.072.57.208.266.322.593.322.93V769.5l.192.672c.04.134.058.273.058.413v1c0 .042 0 .092.003.14l.54.298c.327.183.575.48.693.837.265.794.265 1.107.265 1.225v1.25c0 .055-.003.11-.01.165l-.053.49c-.005.192-.024.565-.107.896-.038.153-.074.3-.175.486.063.168.095.346.095.525v.75c0 .21-.044.417-.13.61l-.25.562c-.063.143-.15.276-.255.393l-.417.463.048.155c.044.144.066.293.066.442v.625c0 .05-.002.1-.007.15l-.062.624c-.04.403-.24.77-.555 1.023-.05.04-.12.105-.155.14-.258.37-.573.603-.7.687-.098.065-.202.12-.312.16l-.03.258c-.013.123-.042.244-.086.36l-.17.458-.238.77c-.03.1-.072.196-.122.287l-.313.563c-.026.045-.053.09-.083.13l-.438.626-.23.347c-.03.044-.063.086-.097.127l-.313.375c-.074.09-.16.17-.252.24l-.25.188c-.095.07-.2.13-.31.178l-.31.134-.032.02-.06.086v.07c0 .098-.01.196-.03.293l-.125.626c-.025.13-.068.258-.128.377l-.125.25c-.052.103-.115.2-.19.29l-.26.313-.07.106-.124.452c-.036.133-.09.26-.16.377l-.19.314c-.12.203-.29.374-.49.5l-.248.155-.024.033-.118.316c-.04.106-.092.21-.156.304l-.25.375c-.13.193-.302.354-.504.47l-.437.25c-.105.06-.216.106-.332.14l-.438.124c-.066.02-.132.033-.2.043l-.437.062c-.07.01-.142.014-.213.014h-.164l-.204.06-.242.08-.013.006-.187.15c-.06.05-.126.093-.193.132l-.438.25c-.085.05-.176.09-.27.12l-.184.062-.173.116-.192.143-.663.542c-.14.116-.302.205-.475.263-.11.037-.325.116-.43.168l-.374.188c-.138.07-.287.117-.44.14l-.814.125c-.14.02-.34.065-.42.097-.378.15-.625.233-.944.313-.398.1-.762.107-.864.107m0-1.5s.25 0 .5-.062c.25-.063.437-.125.75-.25.312-.125.75-.188.75-.188l.813-.125.376-.188c.25-.125.625-.25.625-.25l.688-.562.25-.188.375-.25.375-.125.437-.25.313-.25.25-.125.375-.125.437-.125h.375l.438-.063.438-.125.438-.25.25-.375.188-.5.312-.437.5-.313.188-.312.187-.688.25-.375.313-.375.125-.25.126-.625v-.5l.187-.313.313-.437.375-.25.438-.188.25-.188.313-.375.25-.375.438-.625.313-.563.25-.812.188-.5.063-.563.313-.75.625-.188s.188-.125.312-.312c.125-.188.438-.438.438-.438l.062-.625v-.625l-.25-.812v-.25l.375-.375.563-.625.25-.563v-.75l-.125-.312s-.008.002-.02.002c-.054 0-.185-.042.02-.502.25-.563.187-.313.25-.563.062-.25.062-.625.062-.625l.063-.562v-1.25c0-.188-.188-.75-.188-.75l-.562-.313s-.313-.062-.438-.25c-.125-.187-.187-.312-.25-.5-.062-.187-.062-.687-.062-.687v-1l-.25-.875v-1l-.312-.375-.063-.563s.125-.375.125-.562v-.188l.063-.938.126-.312s.124-.188 0-.688c-.125-.5-.125-.75-.125-.75v-.437c-.437-.688-.5-1-.5-1-.312 0-.812.312-.812.312l-.125-.75v-.813l-.125-.5-.062-.25-.25-.438-.125-.313s-.062-1.375-.25-1.875c0 0 .063.937-.187 1.625l-.375-.375-.125-.313-.187-.438-.125-.313-.312-.563s-.062-.063.063-.313l.126-.25s.09.017.242.017c.266 0 .718-.05 1.195-.328.75-.438.75-.625 1.75-.75s.812-.125 1.812-.188c1-.062 2-.375 3.125-.812 1.125-.438 1.938-.438 2.938-.688 1-.25 3.25-.562 4.125-.937s2.062-.75 3.25-1c1.188-.25 2.563-.5 3.563-.938 1-.438 2.75-1.126 3.5-1.376s1.937-.687 2.687-.875c.75-.188 1.188-.438 1.813-.626.625-.187 1.062-.937 1.562-1.625s1.938-2.563 2.438-3.626c.5-1.062 1.812-3 2.437-4.937.625-1.938 1.563-4.313 1.813-5.563s.437-1.625.75-2.875c.312-1.25 1.625-4.126 2.25-6.376s1.437-4.437 1.937-6.062 1.063-4.438 1.313-5.438.812-2.312 1.062-3.375c.25-1.063.313-1.5.688-2.438.375-.938.75-1.625.625-2.563-.124-.938-1.124-2.5-1.562-2.75 0 0-.625-3.626-.812-4.563-.188-.938-.5-2.188-.563-3.313-.062-1.125-.187-4-.625-5.187-.437-1.188-.562-1.563-1.125-2.813-.562-1.25-1.25-3.187-1.687-4.125-.438-.938-1.063-1.938-1.375-2.688-.312-.75-.437-.563-.5-1.375-.062-.813-.062-1.5-.062-1.5l-1-.25s-.625.375-1.312.5c-.688.125-1.25.125-1.25.125s-1.938.375-2.5.562c-.338.113-.608.136-.77.136-.108 0-.168-.01-.168-.01s.188-2.188.188-3.75c0-1.563-.188-4.125-.688-5.75-.5-1.625-.875-3-1.437-4.25s-1-1.75-1.124-2.563c-.125-.812-.125-3.875-.375-5.375s-.25-4.25-.562-5.75c-.312-1.5-.375-3.625-1-5.25s-1.562-4.75-2.062-6.5c-.5-1.75-1.75-5.312-2.188-6.937-.437-1.625-1.187-5.75-1.812-7.688-.625-1.937-1.5-5.937-1.5-5.937h-44.792s-5.833 11.125-6.333 23.375c0 0-.75.625-.75 1.5v1.875s-.833 4.333-.916 5.166c-.083.834-.083 2.417-.083 2.417l-.333 2-.25 1.667-.5 2.416-2.416 3.25s-1.25-1.333-2.583-2.583c-1.333-1.25-3.083-2.167-3.25-3.167-.166-1-1-3.416-1.667-4.083-.666-.667-1.416-1.5-1.416-1.5l-.834-.583s-.333 1.416.167 2.333c.5.917.667 2.25.25 3.5-.417 1.25-2 8.083-1.917 10.917.084 2.833.084 6.5.084 8s.75 6.833.75 8.25c0 1.416-.167 3.666.416 4.916.584 1.25 1.917 5.75 4.167 7.25 0 0-.416 2.417-.5 3.167-.083.75-.416 4.333-.333 4.916.083.583.417 1.166.583 1.583.167.416 0 1.333-.25 2-.25.666-.75 2.416-.666 3.166.084.75.167 1.833.167 1.833s-.5 1-.5 1.583.25 2 1 2.417c.75.416 2.75 1.166 2.75 1.166s.334 3.75.334 4.666c0 .917.25 3.667.25 4.75 0 1.083-.25 3.417-.166 4.75.083 1.333-.333 8.25.167 10.083.5 1.833.667 5.25 9.834 8.916l5.5 1.833c1.75.583 5 1.833 5 1.833s-3.084 2.666-3.584 3.98c0 0-1.25 0-1.5.624-.25.625-.25 1.062-.562 1.625-.313.562-.75 2.187-.75 2.187l-.563.624-.187.5-.313.375-.25.25-.187.437-.25.25-.437-.125-.312.187-.125.25-.187.312-.313.125s-.187.187-.187.375c0 .187.062.437.062.437s0 .437-.062.624c-.063.188-.188.5-.188.5l-.437.25-.312.938.125.375-.062.25-.25.5-.187.375-.125.438-.25.562v.313c0 .187.063.812.063.812v.438s.063.25-.124.375c-.188.125-.25.375-.438.5-.187.125-.375.125-.562.25-.188.125-.688.562-.688.562l-.187.5s-.312.25-.374.5c-.063.25-.063.688-.063.688l-.187 1.375s.125.375.125.562c0 .188.126.375.188.563.063.187.125.312.188.562l.062.25.375.375.25.25.125.313-.125.375-.187.562-.063.5v.5l.125.375s.063.375.125.625c.063.25.188.313.25.5.063.188.188.5.188.5s.188.188.188.375.063.562.063.812.063.75.063.75l.375.5-.062 1.25.25.688.187.25.125.437.375.437.563.5.25.25.312.25s.313.187.375.375c.063.187 0 .375.188.437l.188.062.625.312.25.125.5.187.312.125.313.313.125.25.437.187.25.313.125.562s-.062.375.125.563c.188.187.375.437.375.437l.563.625s-.063.188.125.25c.187.063.687.375.687.375l.688.375h.812l.5.312.25.375.438.124h.437l.5.188s.126.062.313.125c.188.062.438.062.438.062l.625.062.75.125.75.437.563.063h.313c.166 0 .027-.083.046-.083.01 0 .058.02.204.083.437.188.874.25.874.25h.688s.14.028.306.028c.083 0 .173-.007.257-.028.25-.062.376-.125.563-.125.188 0 .438.063.625.125l.75.25" fill="#231f20"/></g><g><path d="M0 0c.333 1.583.167 2.75.417 3.667C.667 4.583 1 5.833 1.5 6.5c.5.667.5 1.417 1 2.917.5 1.5.333 2.083.417 3.916.083 1.834-.167 3.667-.167 7 0 3.334-.417 5.084-.417 8.417s0 3.417.084 5.667c.083 2.25-.25 3.5.166 5.416.417 1.917.334 2.75.75 5.584.417 2.833.5 4.416 1.167 7.583s.583 2.833 1.167 5.167c.583 2.333.833 4.583 1.166 6.416.334 1.834.584 5 1 7 .417 2 .5 3.667 1.167 5.084.667 1.416 1.75 2.75 2.667 4 .916 1.25 3.083 4 3.083 4l.065.112c-.333.202-.602.37-.77.475-.73-.28-3.304-1.258-4.795-1.755l-5.5-1.833C-5.417 78-5.583 74.583-6.083 72.75c-.5-1.833-.084-8.75-.167-10.083-.083-1.334.167-3.667.167-4.75 0-1.084-.25-3.834-.25-4.75 0-.917-.334-4.667-.334-4.667s-2-.75-2.75-1.167c-.75-.416-1-1.833-1-2.416 0-.584.5-1.584.5-1.584S-10 42.25-10.083 41.5c-.084-.75.416-2.5.666-3.167.25-.666.417-1.583.25-2-.166-.416-.5-1-.583-1.583-.083-.583.25-4.167.333-4.917.084-.75.5-3.166.5-3.166-2.25-1.5-3.583-6-4.166-7.25-.584-1.25-.417-3.5-.417-4.917 0-1.417-.75-6.75-.75-8.25s0-5.167-.083-8c-.084-2.833 1.5-9.667 1.916-10.917.417-1.25.25-2.583-.25-3.5-.5-.916-.166-2.333-.166-2.333l.833.583s.75.834 1.417 1.5c.666.667 1.5 3.084 1.666 4.084.167 1 1.917 1.916 3.25 3.166 1.334 1.25 2.584 2.584 2.584 2.584l.097-.13c.372.76 1.242 2.52 1.82 3.546C-.417-1.833-.334-1.583 0 0" fill="url(#b)" transform="translate(665.524 667.209)"/></g><g><path d="M0 0s.08-.867.747-1.367 5.584-.667 5.5-5.917c-.083-5.25-3.75-14.5-6.5-17.083-2.75-2.584-9.5-6.084-10.666-6.25-1.166-.167-.833-1-.833-1s-.583-8.917-.666-11.584c-.083-2.667-.583-7.917-.416-10.667.167-2.75.25-5.917.333-9.167.084-3.25.667-8.25 1.417-13s1.75-8.25 2.25-11.583c.5-3.334 7.167-10.5 9.333-13.334 2.167-2.834 6.334-6.167 8.5-7.334 2.167-1.167 5.584-3.667 8.084-5.667s6.917-3.834 6.917-3.834l.167 1.042-.5 2.75-.25 4.25s1.25.75 1.375 3.5c.124 2.75.5 4.375 1 6.625s.874 6.75.874 6.75l.375 5 .5 2.5.124 1.625.5 5.25s2.375-1.25 4.375-2.25c.562-.188 2.5-.563 2.5-.563s.562 0 1.25-.125c.687-.125 1.312-.5 1.312-.5l1 .25s0 .688.062 1.5c.063.813.188.625.5 1.375.313.75.938 1.75 1.375 2.688.437.937 1.124 2.875 1.687 4.125.562 1.25.687 1.625 1.125 2.812.437 1.188.562 4.063.625 5.188.062 1.125.375 2.375.562 3.312.187.938.812 4.563.812 4.563.437.25 1.437 1.812 1.562 2.75.125.937-.25 1.625-.625 2.562-.376.938-.438 1.375-.688 2.438-.25 1.062-.813 2.375-1.063 3.375s-.813 3.812-1.313 5.437c-.5 1.625-1.313 3.813-1.938 6.063-.626 2.25-1.938 5.125-2.25 6.375-.313 1.25-.5 1.625-.75 2.875s-1.188 3.625-1.813 5.562c-.625 1.938-1.938 3.875-2.438 4.938-.5 1.062-1.938 2.937-2.438 3.625-.5.687-.938 1.437-1.563 1.625-.626.187-1.063.437-1.813.625-.75.187-1.938.625-2.688.875-.75.25-2.5.937-3.5 1.375-1 .437-2.376.687-3.563.937-1.188.25-2.375.625-3.25 1s-3.125.688-4.125.938-1.813.25-2.938.687c-1.125.438-2.125.75-3.125.813-1 .062-.813.062-1.813.187s-1 .313-1.75.75c0 0-.64.422-1.438.313" fill="url(#c)" transform="translate(699.776 757.326)"/></g><g><path d="M667.274 709.292s-2.25-.25-3.083-1.083" fill="none" stroke="#000" stroke-width=".5" stroke-miterlimit="10"/></g><g><path d="M691.524 705.96c0-1.014-.82-1.834-1.833-1.834s-1.834.82-1.834 1.833c0 1.012.822 1.832 1.835 1.832 1.012 0 1.833-.82 1.833-1.833z" fill="none" stroke="#000" stroke-width=".5" stroke-miterlimit="10"/></g><g><path d="M692.107 724.876c0-1.013-.82-1.833-1.833-1.833s-1.834.82-1.834 1.833.82 1.833 1.834 1.833c1.012 0 1.833-.82 1.833-1.834z" fill="none" stroke="#000" stroke-width=".5" stroke-miterlimit="10"/></g><g><path d="M693.857 683.292c0-1.013-.82-1.833-1.833-1.833s-1.834.82-1.834 1.832c0 1.013.82 1.833 1.834 1.833 1.012 0 1.833-.82 1.833-1.833z" fill="none" stroke="#000" stroke-width=".5" stroke-miterlimit="10"/></g><g><path d="M677.274 748.542s-4.167-3.667-4.5-5.667c-.333-2-6-15.333-10.083-18.5 0 0 .5-6.583 0-11.333s-1.5-11.5-1.084-13.75c.418-2.25 3.25-12.5 1.918-19.75-1.333-7.25-6.5-24.417-6.5-24.417" fill="none" stroke="#000" stroke-width=".5" stroke-miterlimit="10"/></g><g><path d="M702.378 764.21c0-.415-.336-.75-.75-.75s-.75.335-.75.75c0 .413.336.75.75.75s.75-.337.75-.75z" fill="none" stroke="#000" stroke-width=".5" stroke-miterlimit="10"/></g><g><path d="M676.19 756.084c-.25.437-.687 1.437-.937 2.188-.25.75-.625 2.062-.625 2.437 0 .374-.063 1.874-.313 2.624s-.625 2.75-.813 3.688c-.187.937-.25 3.5-.5 4.187-.25.687-.125 2 .313 2.186.437.188.812.375.812.375s.25-.124.438-.124.688.25.688.25.5.375.687.25c.188-.125.312-.187.5-.125.187.064.687.376.687.376s.25.313.438.375c.187.064.375.25.562.25.188 0 .5.126.688.25.188.126.563.44.563.44s.187.124.25.374c.062.25.75 1.062.75 1.062l.124.438.125.562s.313 0 .5.375c.188.376.25.814.25.814s.188.375.25.562c.063.188.313.875.313.875l.875.69s.5 0 .625.186c.125.188.687 1 .687 1s.376.063.563.125c.188.064.938.876.938.876s0 .25.187.375c.188.126.125.126.438.25.312.126.625.25.812.25.188 0 .688.314.688.314s.875.187 1.125.125c.25-.064.875-.064.875-.064l.687-.375.688-.75s.187 0 .312-.186c.125-.188.25-.5.375-.688.125-.187.75-.5.75-.5s.312-.062.562-.25c.25-.187.563-.25.75-.5.188-.25-.25-.062.563-.5.812-.437.562-.062.812-.437.25-.376.563-.814.563-.814s0-.125.25-.437c.25-.314.062.06.25-.314l.187-.375.563-1.124.312-1.437.188-1.44.375-1.436.125-.375.25-1.438.187-.438.5-1 .188-.625.312-.626.188-.75s.187-.375.187-.562v-.188l.625-.25.313.25.656.375s.204.374.392.562c.187.187.32.437.32.437l.692.124.75.75" fill="none" stroke="#000" stroke-width=".5" stroke-miterlimit="10"/></g><g><path d="M700.253 767.084s2.25-14.25-10.563-17.312c-3.312-.938-5.75.25-7 .875-1.25.624-3.312 1.937-3.312 1.937" fill="none" stroke="#000" stroke-width=".5" stroke-miterlimit="10"/></g><g><path d="M680.274 751.876s-2.167-2.75-3.083-4c-.917-1.25-2-2.583-2.667-4-.667-1.417-.75-3.083-1.167-5.083-.416-2-.666-5.167-1-7-.333-1.834-.583-4.084-1.166-6.417-.584-2.333-.5-2-1.167-5.167s-.75-4.75-1.167-7.584c-.416-2.833-.333-3.667-.75-5.583-.416-1.917-.083-3.167-.166-5.417-.084-2.25-.084-2.333-.084-5.667 0-3.334.417-5.084.417-8.417 0-3.334.25-5.167.167-7-.084-1.834.083-2.417-.417-3.917s-.5-2.25-1-2.917c-.5-.667-.833-1.917-1.083-2.834s-.084-2.083-.417-3.667c-.333-1.584-.417-1.834-1.167-3.167-.75-1.334-2-3.917-2-3.917" fill="none" stroke="#000" stroke-width=".5" stroke-miterlimit="10"/></g><g><path d="M699.69 757.584s.167-1.125.833-1.625c.667-.5 5.584-.668 5.5-5.918-.083-5.25-3.75-14.5-6.5-17.083-2.75-2.584-9.5-6.084-10.666-6.25-1.167-.168-.834-1-.834-1s-.583-8.918-.666-11.584c-.084-2.667-.584-7.917-.417-10.667.167-2.75.25-5.918.333-9.168.084-3.25.667-8.25 1.417-13s1.75-8.25 2.25-11.583c.5-3.334 7.167-10.5 9.333-13.334 2.167-2.834 6.334-6.167 8.5-7.334 2.167-1.166 5.584-3.666 8.084-5.666 2.5-2 6.916-3.834 6.916-3.834l.167 1.042-.5 2.75-.25 4.25s1.25.75 1.375 3.5.5 4.375 1 6.625.875 6.75.875 6.75l.375 5 .5 2.5.125 1.624.5 5.25s2.375-1.25 4.375-2.25" fill="none" stroke="#000" stroke-width=".5" stroke-miterlimit="10"/></g><g><path d="M695.774 730.126s9.167 18.583 10.167 21.167" fill="none" stroke="#000" stroke-width=".5" stroke-miterlimit="10"/></g><g><path d="M679.19 750.292s-1.917-18.5 2.833-23.5c0 0 2.417-3 6-1.583" fill="none" stroke="#000" stroke-width=".5" stroke-miterlimit="10"/></g><g><path d="M664.857 657.376l3-2.917s2.583-2.75 3.583-3.75 4.375-3.626 5.625-4.25c1.25-.626 5.125-3.25 5.125-3.25l2.625-1.5.75-1.25 1-.313s.125-.063.5-.063h.375s.75 1 1.125 1h1.125s.5-.125.875.25-.25.188.375.313 1.125.094 1.125.094.625-.64 1.125-.765 1-.133 1-.133l1 .746.625.623.5.875.375.625s.25.124.75.124.75.125 1.125 0 1.125-.125 1.5-.125.5-.126.875-.25c.375-.126.625-.126 1 0 .375.124.375.374.875.374s.875-.125 1.375 0l.5.125s.75.75 1 1.25.75 1.374.75 1.374l.5.5.25 1.125.5 1.25" fill="none" stroke="#000" stroke-width="1.5" stroke-miterlimit="10"/></g><g><path d="M730.94 677.084s-2-4.125-3.5-6.125" fill="none" stroke="#000" stroke-width=".5" stroke-miterlimit="10"/></g><g><path d="M710.357 674.46s2.333.5 3.333 1.5 1.667 1.832 3 3.332c1.334 1.5 2.417 3.084 3.25 4.75.834 1.667 1 2.834 1.917 5.084.917 2.25.833 2.583 2 4 1.167 1.416 1 .666 1.917 2.25.916 1.583 1.75 1.916 2 2.416s-.667.417-1.167 1.25c-.5.834-.75 1-1.167 2.334-.416 1.333-.583.5-.5 2.083.084 1.582.584.666-.25 2.166-.833 1.5-1.083 2.333-1.083 3.25 0 .916-.75 1.583-.833 2.25-.084.666-.25-.584.083 1.583.333 2.166.083 4.166.167 5.332.083 1.167.166 5.084 0 7.5-.167 2.417-.25 5.417-.25 8.084 0 2.666.75 13.833 5.666 15.75" fill="none" stroke="#000" stroke-width=".5" stroke-miterlimit="10"/></g><g><path d="M687.44 639.96s0-1.376.25-2.376.5-1.5.375-2.625c-.125-1.126-.25-1.626-.125-3.376s.25-2.375-.125-3.5-.5-1.875-.375-2.625.25-2.5.25-2.5.125-1.876 0-2.376-.5-3.625-.5-3.625" fill="none" stroke="#000" stroke-width=".5" stroke-miterlimit="10"/></g><g><path d="M658.44 716.126s-.167-4.583-.417-7.5c-.25-2.917-.583-5.75-.083-6.917.5-1.167.667-1.584 1.5-3.334s1.333-2.333 1.25-4.917c-.083-2.584-.167-4.417-.583-7.167-.417-2.75-.25-7.75-1.167-11.334" fill="none" stroke="#000" stroke-width=".5" stroke-miterlimit="10"/></g><g><path d="M700.44 763.084s.375-.062.812.437" fill="none" stroke="#000" stroke-width=".5" stroke-miterlimit="10"/></g><g><path d="M702.128 764.96s.75 1.81.75 3.874" fill="none" stroke="#000" stroke-width=".5" stroke-miterlimit="10"/></g><g><path d="M673.065 760.334s.687-.937 1.812-1.187" fill="none" stroke="#000" stroke-width=".5" stroke-miterlimit="10"/></g><g><path d="M687.378 799.147c-.16 0-.32-.026-.474-.077l-.75-.25c-.042-.014-.08-.025-.113-.033-.07.02-.146.043-.236.065-.192.048-.4.073-.62.073-.163 0-.31-.014-.42-.028h-.574c-.07 0-.14-.005-.212-.015-.086-.012-.477-.074-.94-.235h-.285c-.055 0-.11-.003-.166-.01l-.562-.062c-.208-.023-.41-.09-.59-.195l-.513-.3-.43-.07-.516-.052c-.183-.006-.506-.032-.822-.138-.184-.06-.33-.123-.42-.165l-.19-.07h-.166c-.14 0-.278-.02-.412-.058l-.437-.125c-.344-.098-.64-.314-.837-.61l-.014-.02h-.302c-.25 0-.498-.063-.718-.183l-.688-.376c-.026-.014-.05-.03-.076-.045-.15-.094-.34-.204-.42-.244-.46-.17-.815-.52-.99-.957l-.285-.32c-.03-.033-.058-.067-.085-.103-.04-.054-.153-.195-.235-.277-.43-.43-.552-.96-.572-1.356-.27-.14-.49-.36-.633-.632l-.45-.168c-.048-.018-.096-.04-.143-.063l-.25-.124-.53-.265-.086-.027c-.33-.11-.865-.396-1.087-1.114l-.252-.202c-.043-.034-.084-.07-.123-.11l-.22-.22-.53-.47c-.05-.045-.097-.093-.14-.145l-.376-.437c-.14-.164-.245-.357-.304-.564l-.05-.17-.02-.03c-.09-.118-.16-.25-.21-.387l-.25-.688c-.07-.188-.1-.388-.09-.588l.037-.71-.05-.065c-.157-.21-.256-.455-.288-.714-.018-.14-.074-.617-.074-.936 0-.088-.015-.2-.026-.303-.004-.038-.008-.077-.01-.114-.042-.068-.077-.14-.106-.212 0 0-.102-.255-.177-.466-.098-.15-.237-.387-.322-.727-.05-.2-.1-.465-.128-.62l-.09-.27c-.05-.152-.077-.312-.077-.473v-.5c0-.062.004-.124.012-.186l.062-.5c.012-.097.034-.194.066-.287l.066-.2-.143-.14c-.192-.193-.328-.433-.394-.697l-.063-.25c-.024-.097-.05-.16-.074-.226-.027-.072-.054-.145-.08-.226l-.025-.053c-.083-.187-.22-.495-.237-.895-.018-.08-.047-.166-.052-.18-.07-.215-.09-.448-.06-.673l.174-1.282c.004-.227.025-.616.106-.942.102-.406.33-.738.543-.975l.07-.188c.087-.232.23-.44.417-.602.215-.187.61-.525.844-.68.168-.114.327-.187.457-.237v-.005c-.026-.268-.062-.678-.062-.885v-.313c0-.21.044-.417.13-.61l.207-.466.096-.336c.026-.09.06-.176.1-.26l.19-.374.064-.13c-.06-.264-.045-.54.04-.798l.314-.938c.107-.322.32-.597.602-.78-.028-.158-.054-.358-.054-.558 0-.73.438-1.247.626-1.436.095-.094.2-.175.316-.24l.028-.057c.128-.256.326-.47.57-.617l.313-.187c.14-.084.29-.144.447-.18.042-.055.088-.107.138-.157l.202-.203.106-.127.098-.262c.067-.176.165-.338.29-.477l.327-.362c.172-.603.49-1.635.79-2.175.088-.158.127-.298.2-.575.064-.238.143-.533.28-.878.337-.84 1.133-1.287 1.964-1.47.45-.665 1.097-1.387 1.727-2.025-.924-.344-1.95-.716-2.687-.962l-5.5-1.834-.083-.03c-8.49-3.397-9.936-6.696-10.624-9.52-.034-.14-.066-.272-.1-.396-.37-1.356-.33-4.39-.245-7.92.026-1.085.05-2.108.03-2.464-.058-.908.02-2.146.086-3.238.04-.633.077-1.23.077-1.606 0-.514-.068-1.545-.13-2.455-.06-.927-.12-1.805-.12-2.294 0-.505-.128-2.195-.247-3.606-.677-.27-1.568-.64-2.064-.916-1.403-.778-1.773-2.78-1.773-3.728 0-.636.26-1.365.473-1.857-.03-.374-.08-.946-.13-1.395-.152-1.366.743-3.835.753-3.86.154-.41.22-.83.222-1.01l-.092-.202c-.19-.417-.452-.988-.544-1.63-.132-.92.322-5.253.326-5.296.056-.498.235-1.604.367-2.394-1.735-1.662-2.824-4.48-3.51-6.25-.16-.415-.3-.773-.392-.972-.63-1.35-.594-3.255-.566-4.785.005-.273.01-.53.01-.766 0-.616-.19-2.338-.358-3.857-.202-1.826-.392-3.55-.392-4.394 0-1.54 0-5.145-.083-7.956-.09-3.072 1.566-10.15 1.994-11.436.312-.936.118-1.828-.144-2.307-.737-1.35-.387-3.064-.31-3.394.114-.484.46-.88.926-1.058.173-.066.354-.098.534-.098.304 0 .605.092.86.27l.834.584c.093.065.18.14.255.225.006.007.73.812 1.36 1.442 1.032 1.03 1.89 3.835 2.075 4.83.158.256.842.784 1.3 1.138.473.367 1.01.782 1.508 1.248.502.47.99.95 1.406 1.368l1.166-1.568.424-2.052.244-1.626.317-1.904c.003-.405.015-1.676.09-2.44.083-.814.75-4.318.91-5.16v-1.73c0-.92.416-1.65.778-2.112.65-12.22 6.236-23 6.477-23.46.26-.495.77-.804 1.33-.804h44.79c.705 0 1.315.49 1.466 1.18.01.038.868 3.95 1.463 5.797.402 1.245.834 3.257 1.215 5.032.235 1.09.456 2.12.618 2.725.223.826.685 2.235 1.13 3.598.417 1.27.81 2.47 1.052 3.317.462 1.62 1.41 4.784 2.02 6.373.473 1.23.657 2.626.82 3.86.077.595.152 1.16.25 1.623.19.918.27 2.158.35 3.357.06.905.12 1.84.222 2.452.163.975.224 2.414.277 3.683.03.684.062 1.46.1 1.71.04.258.157.486.416.976.166.313.372.703.595 1.2.502 1.113.847 2.256 1.246 3.578l.258.846c.595 1.934.754 4.802.754 6.19 0 .603-.026 1.285-.06 1.907.65-.145 1.326-.277 1.525-.316.094-.02.19-.028.286-.028 0 0 .447-.004.98-.1.332-.06.702-.248.817-.315.234-.137.502-.21.77-.21.12 0 .24.015.36.045l1 .25c.666.167 1.135.767 1.135 1.454 0 .007 0 .646.058 1.386.006.072.01.13.017.176l.007.012c.084.142.212.357.365.725.138.33.376.77.627 1.232.246.453.5.92.723 1.398.237.508.523 1.24.826 2.012.297.755.602 1.535.87 2.132.524 1.16.694 1.625 1.033 2.55l.132.358c.447 1.213.596 3.402.7 5.358l.016.265c.044.777.235 1.674.403 2.465.048.224.093.438.133.638.15.745.556 3.078.735 4.108.765.843 1.522 2.286 1.657 3.3.16 1.202-.224 2.125-.563 2.94-.05.122-.103.248-.156.38-.26.653-.34.995-.494 1.677l-.126.546c-.15.633-.38 1.3-.605 1.948-.185.534-.36 1.038-.462 1.448-.074.3-.178.77-.3 1.32-.283 1.273-.67 3.015-1.033 4.195-.19.616-.423 1.31-.674 2.058-.408 1.215-.87 2.59-1.252 3.966-.36 1.296-.915 2.737-1.406 4.008-.367.952-.713 1.85-.833 2.33-.13.528-.242.907-.344 1.257-.142.485-.253.867-.39 1.55-.182.912-.645 2.23-1.135 3.623-.25.71-.503 1.434-.72 2.105-.474 1.47-1.258 2.857-1.888 3.972-.26.46-.485.858-.62 1.143-.45.96-1.428 2.31-2.31 3.5l-.27.37c-.073.1-.144.2-.215.3-.492.7-1.105 1.57-2.13 1.878-.223.068-.417.146-.615.223-.347.136-.74.29-1.265.422-.485.12-1.26.39-1.88.604-.254.087-.49.17-.697.238-.71.237-2.414.906-3.373 1.326-1.017.445-2.282.706-3.4.936l-.455.095c-1.037.218-2.147.56-2.968.91-.72.31-1.9.532-3.04.748-.516.097-1.004.19-1.312.267-.417.104-.788.167-1.147.23-.555.094-1.034.176-1.61.4-1.043.406-2.283.83-3.576.912-.688.042-.746.05-1.127.1-.144.02-.328.045-.594.078-.392.05-.392.05-.644.218l-.107.072c.14.552.206 1.29.235 1.765l.193.338c.068.12.12.247.153.38l.063.25.125.5c.016.063.027.126.035.19.5.15.86.515.914 1.08.036.082.122.26.3.54.152.24.233.52.233.804v.43c.003 0 .018.142.08.394.197.784.07 1.33-.083 1.66l-.016.04-.042.652v.138c0 .185-.03.384-.072.57.208.266.322.593.322.93V769.5l.192.672c.04.134.058.273.058.413v1c0 .042 0 .092.003.14l.54.298c.327.183.575.48.693.837.265.794.265 1.107.265 1.225v1.25c0 .055-.003.11-.01.165l-.053.49c-.005.192-.024.565-.107.896-.038.153-.074.3-.175.486.063.168.095.346.095.525v.75c0 .21-.044.417-.13.61l-.25.562c-.063.143-.15.276-.255.393l-.417.463.048.155c.044.144.066.293.066.442v.625c0 .05-.002.1-.007.15l-.062.624c-.04.403-.24.77-.555 1.023-.05.04-.12.105-.155.14-.258.37-.573.603-.7.687-.098.065-.202.12-.312.16l-.03.258c-.013.123-.042.244-.086.36l-.17.458-.238.77c-.03.1-.072.196-.122.287l-.313.563c-.026.045-.053.09-.083.13l-.438.626-.23.347c-.03.044-.063.086-.097.127l-.313.375c-.074.09-.16.17-.252.24l-.25.188c-.095.07-.2.13-.31.178l-.31.134-.032.02-.06.086v.07c0 .098-.01.196-.03.293l-.125.626c-.025.13-.068.258-.128.377l-.125.25c-.052.103-.115.2-.19.29l-.26.313-.07.106-.124.452c-.036.133-.09.26-.16.377l-.19.314c-.12.203-.29.374-.49.5l-.248.155-.024.033-.118.316c-.04.106-.092.21-.156.304l-.25.375c-.13.193-.302.354-.504.47l-.437.25c-.105.06-.216.106-.332.14l-.438.124c-.066.02-.132.033-.2.043l-.437.062c-.07.01-.142.014-.213.014h-.164l-.204.06-.242.08-.013.006-.187.15c-.06.05-.126.093-.193.132l-.438.25c-.085.05-.176.09-.27.12l-.184.062-.173.116-.192.143-.663.542c-.14.116-.302.205-.475.263-.11.037-.325.116-.43.168l-.374.188c-.138.07-.287.117-.44.14l-.814.125c-.14.02-.34.065-.42.097-.378.15-.625.233-.944.313-.398.1-.762.107-.864.107m0-1.5s.25 0 .5-.062c.25-.063.437-.125.75-.25.312-.125.75-.188.75-.188l.813-.125.376-.188c.25-.125.625-.25.625-.25l.688-.562.25-.188.375-.25.375-.125.437-.25.313-.25.25-.125.375-.125.437-.125h.375l.438-.063.438-.125.438-.25.25-.375.188-.5.312-.437.5-.313.188-.312.187-.688.25-.375.313-.375.125-.25.126-.625v-.5l.187-.313.313-.437.375-.25.438-.188.25-.188.313-.375.25-.375.438-.625.313-.563.25-.812.188-.5.063-.563.313-.75.625-.188s.188-.125.312-.312c.125-.188.438-.438.438-.438l.062-.625v-.625l-.25-.812v-.25l.375-.375.563-.625.25-.563v-.75l-.125-.312s-.008.002-.02.002c-.054 0-.185-.042.02-.502.25-.563.187-.313.25-.563.062-.25.062-.625.062-.625l.063-.562v-1.25c0-.188-.188-.75-.188-.75l-.562-.313s-.313-.062-.438-.25c-.125-.187-.187-.312-.25-.5-.062-.187-.062-.687-.062-.687v-1l-.25-.875v-1l-.312-.375-.063-.563s.125-.375.125-.562v-.188l.063-.938.126-.312s.124-.188 0-.688c-.125-.5-.125-.75-.125-.75v-.437c-.437-.688-.5-1-.5-1-.312 0-.812.312-.812.312l-.125-.75v-.813l-.125-.5-.062-.25-.25-.438-.125-.313s-.062-1.375-.25-1.875c0 0 .063.937-.187 1.625l-.375-.375-.125-.313-.187-.438-.125-.313-.312-.563s-.062-.063.063-.313l.126-.25s.09.017.242.017c.266 0 .718-.05 1.195-.328.75-.438.75-.625 1.75-.75s.812-.125 1.812-.188c1-.062 2-.375 3.125-.812 1.125-.438 1.938-.438 2.938-.688 1-.25 3.25-.562 4.125-.937s2.062-.75 3.25-1c1.188-.25 2.563-.5 3.563-.938 1-.438 2.75-1.126 3.5-1.376s1.937-.687 2.687-.875c.75-.188 1.188-.438 1.813-.626.625-.187 1.062-.937 1.562-1.625s1.938-2.563 2.438-3.626c.5-1.062 1.812-3 2.437-4.937.625-1.938 1.563-4.313 1.813-5.563s.437-1.625.75-2.875c.312-1.25 1.625-4.126 2.25-6.376s1.437-4.437 1.937-6.062 1.063-4.438 1.313-5.438.812-2.312 1.062-3.375c.25-1.063.313-1.5.688-2.438.375-.938.75-1.625.625-2.563-.124-.938-1.124-2.5-1.562-2.75 0 0-.625-3.626-.812-4.563-.188-.938-.5-2.188-.563-3.313-.062-1.125-.187-4-.625-5.187-.437-1.188-.562-1.563-1.125-2.813-.562-1.25-1.25-3.187-1.687-4.125-.438-.938-1.063-1.938-1.375-2.688-.312-.75-.437-.563-.5-1.375-.062-.813-.062-1.5-.062-1.5l-1-.25s-.625.375-1.312.5c-.688.125-1.25.125-1.25.125s-1.938.375-2.5.562c-.338.113-.608.136-.77.136-.108 0-.168-.01-.168-.01s.188-2.188.188-3.75c0-1.563-.188-4.125-.688-5.75-.5-1.625-.875-3-1.437-4.25s-1-1.75-1.124-2.563c-.125-.812-.125-3.875-.375-5.375s-.25-4.25-.562-5.75c-.312-1.5-.375-3.625-1-5.25s-1.562-4.75-2.062-6.5c-.5-1.75-1.75-5.312-2.188-6.937-.437-1.625-1.187-5.75-1.812-7.688-.625-1.937-1.5-5.937-1.5-5.937h-44.792s-5.833 11.125-6.333 23.375c0 0-.75.625-.75 1.5v1.875s-.833 4.333-.916 5.166c-.083.834-.083 2.417-.083 2.417l-.333 2-.25 1.667-.5 2.416-2.416 3.25s-1.25-1.333-2.583-2.583c-1.333-1.25-3.083-2.167-3.25-3.167-.166-1-1-3.416-1.667-4.083-.666-.667-1.416-1.5-1.416-1.5l-.834-.583s-.333 1.416.167 2.333c.5.917.667 2.25.25 3.5-.417 1.25-2 8.083-1.917 10.917.084 2.833.084 6.5.084 8s.75 6.833.75 8.25c0 1.416-.167 3.666.416 4.916.584 1.25 1.917 5.75 4.167 7.25 0 0-.416 2.417-.5 3.167-.083.75-.416 4.333-.333 4.916.083.583.417 1.166.583 1.583.167.416 0 1.333-.25 2-.25.666-.75 2.416-.666 3.166.084.75.167 1.833.167 1.833s-.5 1-.5 1.583.25 2 1 2.417c.75.416 2.75 1.166 2.75 1.166s.334 3.75.334 4.666c0 .917.25 3.667.25 4.75 0 1.083-.25 3.417-.166 4.75.083 1.333-.333 8.25.167 10.083.5 1.833.667 5.25 9.834 8.916l5.5 1.833c1.75.583 5 1.833 5 1.833s-3.084 2.666-3.584 3.98c0 0-1.25 0-1.5.624-.25.625-.25 1.062-.562 1.625-.313.562-.75 2.187-.75 2.187l-.563.624-.187.5-.313.375-.25.25-.187.437-.25.25-.437-.125-.312.187-.125.25-.187.312-.313.125s-.187.187-.187.375c0 .187.062.437.062.437s0 .437-.062.624c-.063.188-.188.5-.188.5l-.437.25-.312.938.125.375-.062.25-.25.5-.187.375-.125.438-.25.562v.313c0 .187.063.812.063.812v.438s.063.25-.124.375c-.188.125-.25.375-.438.5-.187.125-.375.125-.562.25-.188.125-.688.562-.688.562l-.187.5s-.312.25-.374.5c-.063.25-.063.688-.063.688l-.187 1.375s.125.375.125.562c0 .188.126.375.188.563.063.187.125.312.188.562l.062.25.375.375.25.25.125.313-.125.375-.187.562-.063.5v.5l.125.375s.063.375.125.625c.063.25.188.313.25.5.063.188.188.5.188.5s.188.188.188.375.063.562.063.812.063.75.063.75l.375.5-.062 1.25.25.688.187.25.125.437.375.437.563.5.25.25.312.25s.313.187.375.375c.063.187 0 .375.188.437l.188.062.625.312.25.125.5.187.312.125.313.313.125.25.437.187.25.313.125.562s-.062.375.125.563c.188.187.375.437.375.437l.563.625s-.063.188.125.25c.187.063.687.375.687.375l.688.375h.812l.5.312.25.375.438.124h.437l.5.188s.126.062.313.125c.188.062.438.062.438.062l.625.062.75.125.75.437.563.063h.313c.166 0 .027-.083.046-.083.01 0 .058.02.204.083.437.188.874.25.874.25h.688s.14.028.306.028c.083 0 .173-.007.257-.028.25-.062.376-.125.563-.125.188 0 .438.063.625.125l.75.25" fill="#231f20"/></g></g></g><path d="M150.937 113.203c0 41.42-33.578 75-75 75-41.42 0-75-33.58-75-75" fill="none" stroke="#231f20" stroke-width="1.875"/></g></svg>