<?xml version="1.0" encoding="UTF-8" standalone="no"?>
<svg
   xmlns:dc="http://purl.org/dc/elements/1.1/"
   xmlns:cc="http://creativecommons.org/ns#"
   xmlns:rdf="http://www.w3.org/1999/02/22-rdf-syntax-ns#"
   xmlns:svg="http://www.w3.org/2000/svg"
   xmlns="http://www.w3.org/2000/svg"
   version="1.1"
   id="svg10845"
   height="195.60275"
   width="200.0005">
  <defs
     id="defs4809">
    <pattern
       id="polka"
       patternTransform="rotate(20)"
       height="5"
       width="5"
       patternUnits="userSpaceOnUse">
      <rect
         y="0"
         x="0"
         height="5"
         width="5"
         style="fill:#ffffff"
         id="polka__bg" />
      <circle
         cx="2"
         style="fill:#4dc6dd"
         cy="2"
         r="1.5"
         id="polka__inner" />
    </pattern>
    <clipPath
       id="clipPath488-5-9">
      <path
         id="path490-7-7"
         d="m 0,863.584 938.953,0 L 938.953,0 0,0 0,863.584 Z" />
    </clipPath>
    <clipPath
       id="clipPath564-0-3">
      <path
         id="path566-2-5"
         d="m 185.544,812.584 -1.499,-104.25 c 0,-33.137 27.029,-59.875 60.166,-59.875 l 0,0 c 33.137,0 60.166,26.988 60.166,60.125 l 0,0 0,104 -118.833,0 z" />
    </clipPath>
  </defs>
  <metadata
     id="metadata10850">
    <rdf:RDF>
      <cc:Work
         rdf:about="">
        <dc:format>image/svg+xml</dc:format>
        <dc:type
           rdf:resource="http://purl.org/dc/dcmitype/StillImage" />
        <dc:title></dc:title>
      </cc:Work>
    </rdf:RDF>
  </metadata>
  <g
     style="display:inline"
     transform="translate(-282.08096,-278.41122)"
     id="layer1">
    <ellipse
       style="color:#000000;display:inline;overflow:visible;visibility:visible;opacity:1;fill:none;fill-opacity:1;fill-rule:nonzero;stroke:#000000;stroke-width:2;stroke-miterlimit:4;stroke-dasharray:none;stroke-opacity:1;marker:none;enable-background:accumulate"
       id="path6022"
       cx="382.06821"
       cy="398.07648"
       rx="74.9505"
       ry="74.950493" />
    <g
       id="g484"
       transform="matrix(1.25,0,0,-1.25,77.012707,1283.8066)">
      <g
         id="g486"
         clip-path="url(#clipPath488-5-9)">
        <g
           id="g35260">
          <g
             transform="translate(213.8158,647.0441)"
             id="g500">
            <path
               d="m 0,0 c 0,0 -0.29,2.317 -0.869,3.766 -0.579,1.448 -1.593,3.041 -2.028,4.344 -0.434,1.304 -0.579,2.897 -1.013,3.621 -0.435,0.724 -1.014,1.014 -1.304,2.173 -0.289,1.158 -0.386,1.255 -0.772,3.379 -0.386,2.124 -0.966,3.379 -0.869,4.538 0.096,1.158 0.096,1.641 0.096,3.283 0,1.641 -0.386,2.703 0,3.862 0.387,1.158 0.966,4.827 0.966,6.758 0,1.931 -0.097,7.531 0.579,9.849 0.676,2.317 1.738,5.599 1.931,7.048 0.193,1.448 0.29,3.669 0.386,6.276 0.097,2.606 -0.289,8.689 0.387,11.007 0.675,2.317 2.51,10.717 2.51,12.165 0,1.448 1.255,8.207 1.834,9.462 0.58,1.255 2.168,4.152 4.775,5.407 2.606,1.255 10.953,5.31 10.953,6.372 l 0,2.221 c 0,0 0.343,2.511 2.274,3.573 0,0 -0.046,4.658 -0.48,6.179 0,0 -4.718,3.765 -4.79,8.255 -0.073,4.49 -0.79,6.421 -0.645,8.062 0,0 -0.467,0.676 -0.516,1.4 -0.048,0.724 -0.233,2.607 -0.233,4.248 0,1.642 0.148,7.531 0.631,8.062 0,0 -1.012,-1.496 -1.205,-3.186 0,0 0.339,4.78 2.367,6.276 2.027,1.497 1.69,2.897 3.235,3.428 0,0 -1.497,-0.435 -2.511,-1.4 0,0 1.545,1.641 2.945,2.22 1.4,0.58 1.69,0.773 2.318,1.111 0.627,0.338 3.379,1.351 4.731,1.641 1.351,0.29 3.089,0.531 4.2,0.241 1.11,-0.289 2.993,-1.062 3.524,-1.206 0.531,-0.145 2.607,-1.449 3.186,-2.221 0,0 4.924,-0.048 6.179,-5.407 0,0 -0.096,0.29 -0.627,0.676 0,0 0.29,-0.676 0.434,-1.497 0.145,-0.82 0.435,-1.014 0.966,-2.172 0.531,-1.159 1.11,-5.504 0.29,-8.352 0,0 -0.58,-1.738 -0.58,-2.462 0,-0.724 0.386,-4.779 -2.269,-6.034 0,0 -0.627,-2.173 -2.607,-2.028 0,0 -1.351,-3.379 -0.965,-10.331 0,0 2.221,0.435 2.462,-0.193 0.241,-0.628 1.545,-3.669 1.834,-4.248 0.29,-0.58 0.483,-0.918 0.483,-0.918 0,0 0.821,-0.193 1.062,-0.289 0.241,-0.097 3.283,-1.787 4.297,-2.318 1.013,-0.531 2.993,-1.4 3.91,-1.641 0.917,-0.241 1.883,-0.338 2.51,-0.772 0.628,-0.435 0.483,-0.29 1.159,-0.58 0.676,-0.289 2.655,-1.158 3.669,-1.834 1.014,-0.676 2.51,-2.317 3.379,-3.428 0.869,-1.11 2.511,-3.862 2.897,-4.634 0.386,-0.773 1.69,-3.09 2.027,-4.635 0.338,-1.544 1.545,-6.227 1.883,-7.531 0.338,-1.303 2.8,-8.834 2.317,-12.552 0,0 1.762,-7.12 1.4,-10.668 0,0 1.521,-3.114 1.738,-5.359 0.218,-2.245 0.942,-4.924 -1.013,-6.807 0,0 -0.58,-4.562 -1.521,-5.648 -0.941,-1.086 -2.607,-3.186 -2.607,-3.186 0,0 0.434,-2.462 -0.217,-3.621 C 68.431,32.586 67.996,30.052 67.562,28.676 67.128,27.3 66.91,25.779 66.114,25.128 65.317,24.476 64.738,22.448 62.203,23.1 L 59.09,18.683 c 0,0 0.579,-2.462 0.651,-3.549 0.073,-1.086 0.58,-3.91 0.362,-4.706 -0.217,-0.797 0,-0.652 0.073,-2.1 0.072,-1.449 0.434,-2.68 0,-4.056 C 59.741,2.897 59.814,2.1 59.814,1.231 c 0,-0.869 -0.145,-0.796 -0.29,-1.883 -0.145,-1.086 0,-2.435 -0.29,-3.231 -0.289,-0.797 -1.593,-7.577 -1.593,-7.577 l -53.586,0 c 0,0 -2.245,2.145 -2.245,3.377 0,1.231 0.073,1.76 -0.362,3.353 C 1.014,-3.137 0,-1.086 0,0"
               id="path502"
               style="fill:#ffffff;fill-opacity:1;fill-rule:nonzero;stroke:none" />
          </g>
          <g
             transform="translate(276.0192,670.1441)"
             id="g504">
            <path
               d="m 0,0 c 2.535,-0.652 3.114,1.376 3.91,2.028 0.797,0.651 1.014,2.172 1.449,3.548 0.434,1.376 0.869,3.91 1.52,5.069 0.652,1.159 0.218,3.621 0.218,3.621 0,0 1.665,2.1 2.606,3.186 0.942,1.086 1.521,5.648 1.521,5.648 1.955,1.883 1.231,4.562 1.014,6.807 C 12.021,32.152 10.5,35.266 10.5,35.266 10.862,38.814 9.1,45.935 9.1,45.935 9.583,49.652 7.121,57.183 6.783,58.486 6.445,59.79 5.238,64.473 4.9,66.017 c -0.338,1.545 -1.641,3.862 -2.028,4.635 -0.386,0.772 -2.027,3.524 -2.896,4.634 -0.869,1.111 -2.366,2.752 -3.379,3.428 -1.014,0.676 -2.993,1.545 -3.669,1.834 -0.676,0.29 -0.531,0.145 -1.159,0.58 -0.628,0.434 -1.593,0.531 -2.51,0.772 -0.918,0.241 -2.897,1.11 -3.911,1.642 -1.013,0.531 -4.055,2.22 -4.296,2.317 -0.242,0.096 -1.062,0.289 -1.062,0.289 0,0 -0.193,0.338 -0.483,0.918 -0.29,0.579 -1.593,3.62 -1.835,4.248 -0.06,0.157 -0.244,0.248 -0.487,0.295 L -23.1,91.604 c 0,0 -2.124,-0.869 -3.572,-1.835 -1.449,-0.965 -7.628,-4.731 -7.628,-4.731 l -0.096,-0.965 -2.318,-1.256 c 0,0 -1.255,-0.096 -1.062,-1.062 0.193,-0.965 1.159,-3.379 1.159,-3.379 0,0 -0.483,-1.834 -0.869,-1.834 -0.386,0 -0.869,0.482 -1.545,0.482 -0.676,0 -0.965,0.483 -0.965,0.483 0,0 -0.676,2.317 -0.773,3.186 0,0 -3.297,1.188 -3.971,2.674 -0.138,-0.541 -0.901,-0.936 -0.901,-0.936 l 0,-2.22 c 0,-1.063 -7.847,-5.118 -10.454,-6.373 -2.607,-1.255 -4.068,-4.152 -4.647,-5.407 -0.58,-1.255 -1.648,-8.014 -1.648,-9.462 0,-1.448 -1.741,-9.848 -2.417,-12.165 -0.676,-2.318 -0.243,-8.4 -0.34,-11.007 -0.096,-2.607 -0.169,-4.828 -0.362,-6.276 -0.194,-1.448 -1.244,-4.731 -1.92,-7.048 -0.676,-2.318 -0.573,-7.918 -0.573,-9.849 0,-1.931 -0.577,-5.6 -0.963,-6.758 -0.386,-1.159 0.001,-2.221 0.001,-3.862 0,-1.642 0.001,-2.125 -0.095,-3.283 -0.097,-1.159 0.483,-2.414 0.869,-4.538 0.274,-1.504 0.402,-1.992 0.557,-2.56 0.989,1.768 2.823,2.656 2.823,2.656 0,0 4.055,-1.303 5.358,-1.448 1.304,-0.145 1.159,-0.724 1.883,-1.303 0.724,-0.58 1.738,-0.29 3.186,-0.58 1.449,-0.289 3.911,-1.303 3.911,-1.303 l 1.013,2.607 1.159,-3.38 c 0,0 2.897,0.387 4.538,0.58 1.641,0.193 5.407,0.869 6.565,1.352 1.159,0.482 5.407,1.834 6.663,1.834 1.255,0 7.241,1.062 8.4,1.738 1.158,0.676 3.958,1.545 3.958,1.545 0,0 -0.386,1.158 0.386,1.255 0.773,0.097 1.159,0.483 1.159,0.483 0,0 -0.193,0.869 0.483,1.351 0,0 8.593,-5.406 10.331,-7.144 L -3.114,-4.417 0,0 Z"
               id="path558"
               style="fill:url(#polka);fill-opacity:1;fill-rule:nonzero;stroke:none" />
          </g>
        </g>
      </g>
    </g>
    <g
       clip-path="url(#clipPath564-0-3)"
       id="g562"
       transform="matrix(1.25,0,0,-1.25,77.012707,1283.8066)">
      <g
         id="g35243">
        <path
           d="m 242.4772,804.3163 c -0.93,0 -2.038,-0.136 -3.293,-0.405 -1.489,-0.319 -4.366,-1.378 -5.128,-1.788 l -0.281,-0.153 c -0.441,-0.242 -0.79,-0.433 -1.899,-0.892 -1.65,-0.683 -3.282,-2.386 -3.463,-2.578 -0.43,-0.457 -0.519,-1.113 -0.272,-1.653 -0.078,-0.065 -0.161,-0.13 -0.251,-0.196 -2.459,-1.816 -2.906,-6.464 -2.971,-7.377 -0.039,-0.554 0.228,-1.06 0.659,-1.35 -0.081,-1.843 -0.083,-3.492 -0.083,-3.632 0,-1.336 0.118,-2.776 0.196,-3.729 0.021,-0.252 0.038,-0.463 0.049,-0.619 0.045,-0.675 0.295,-1.279 0.509,-1.683 -0.006,-0.741 0.104,-1.503 0.236,-2.422 0.187,-1.293 0.42,-2.902 0.458,-5.281 0.07,-4.342 3.731,-7.936 5.002,-9.054 0.195,-1.056 0.344,-3.074 0.419,-4.602 -1.866,-1.593 -1.988,-4.148 -1.992,-4.269 -0.001,-0.02 -0.001,-0.039 -0.001,-0.058 l 0,-1.521 c -1.68,-1.184 -7.476,-4.336 -10.351,-5.721 -2.946,-1.418 -4.989,-4.52 -5.732,-6.129 -0.727,-1.576 -1.972,-8.565 -1.972,-10.091 0,-1.15 -1.739,-9.304 -2.451,-11.746 -0.535,-1.834 -0.489,-5.291 -0.448,-8.341 0.016,-1.174 0.031,-2.282 0.003,-3.03 -0.09,-2.428 -0.186,-4.723 -0.374,-6.133 -0.133,-0.993 -0.815,-3.26 -1.364,-5.081 -0.184,-0.611 -0.362,-1.204 -0.52,-1.746 -0.59,-2.022 -0.657,-5.816 -0.641,-9.615 l 0.002,-0.653 c 0,-1.83 -0.563,-5.305 -0.889,-6.284 -0.348,-1.043 -0.256,-1.985 -0.167,-2.897 0.044,-0.452 0.09,-0.919 0.09,-1.44 0,-1.625 0,-2.061 -0.091,-3.158 -0.08,-0.959 0.152,-1.858 0.421,-2.899 0.153,-0.588 0.325,-1.255 0.466,-2.032 0.295,-1.618 0.43,-2.115 0.601,-2.743 0.057,-0.209 0.118,-0.434 0.193,-0.732 0.276,-1.105 0.775,-1.703 1.139,-2.141 0.138,-0.166 0.248,-0.297 0.333,-0.439 0.124,-0.206 0.286,-0.951 0.394,-1.443 0.128,-0.587 0.273,-1.252 0.483,-1.88 0.273,-0.819 0.719,-1.687 1.15,-2.528 0.329,-0.642 0.67,-1.305 0.908,-1.9 0.398,-0.995 0.676,-2.665 0.764,-3.32 0.032,-0.925 0.448,-2.084 0.889,-3.308 0.227,-0.634 0.463,-1.289 0.61,-1.827 0.323,-1.185 0.319,-1.692 0.311,-2.613 l -0.002,-0.468 c 0,-1.647 1.854,-3.799 2.651,-4.647 0.284,-0.302 0.68,-0.473 1.094,-0.473 l 53.586,0 c 0.723,0 1.343,0.515 1.475,1.226 0.616,3.323 1.357,7.07 1.531,7.59 0.255,0.702 0.275,1.568 0.295,2.485 0.011,0.464 0.022,0.945 0.069,1.297 0.051,0.387 0.099,0.579 0.145,0.766 0.092,0.374 0.157,0.687 0.157,1.315 l -0.002,0.339 c -0.007,0.712 -0.013,1.275 0.295,2.251 0.409,1.294 0.279,2.468 0.165,3.504 -0.041,0.37 -0.08,0.719 -0.098,1.077 -0.033,0.678 -0.097,1.064 -0.14,1.32 -0.01,0.064 -0.021,0.115 -0.024,0.165 0.005,0.013 0.02,0.069 0.041,0.146 0.213,0.779 0.081,1.983 -0.161,3.874 -0.068,0.531 -0.132,1.032 -0.151,1.327 -0.056,0.84 -0.352,2.279 -0.539,3.13 l 2.196,3.115 c 0.08,-0.004 0.158,-0.007 0.236,-0.007 2.022,0 3.056,1.365 3.611,2.098 0.11,0.145 0.26,0.343 0.324,0.399 0.975,0.798 1.322,2.077 1.658,3.315 0.084,0.312 0.17,0.63 0.268,0.94 0.162,0.513 0.315,1.134 0.476,1.793 0.264,1.071 0.591,2.405 0.922,2.992 0.657,1.17 0.593,2.922 0.484,3.924 0.546,0.683 1.533,1.906 2.166,2.636 1.011,1.167 1.57,4.259 1.81,5.955 1.779,2.07 1.446,4.694 1.199,6.642 -0.042,0.335 -0.084,0.665 -0.115,0.985 -0.196,2.02 -1.272,4.543 -1.705,5.492 0.202,3.47 -1.095,9.181 -1.406,10.489 0.325,3.54 -1.393,9.419 -2.139,11.969 -0.114,0.389 -0.2,0.685 -0.246,0.861 -0.557,2.149 -1.578,6.141 -1.87,7.476 -0.3,1.374 -1.143,3.053 -1.91,4.519 -0.098,0.188 -0.181,0.346 -0.241,0.466 -0.394,0.788 -2.094,3.658 -3.057,4.888 -0.769,0.983 -2.42,2.879 -3.728,3.751 -1.058,0.705 -2.904,1.534 -3.911,1.965 -0.244,0.105 -0.396,0.161 -0.512,0.203 l -0.085,0.032 c -0.06,0.032 -0.142,0.091 -0.298,0.199 -0.701,0.485 -1.508,0.66 -2.289,0.829 -0.23,0.05 -0.463,0.1 -0.694,0.16 -0.752,0.199 -2.606,1.002 -3.596,1.52 -0.447,0.234 -1.292,0.696 -2.113,1.145 -1.81,0.988 -2.135,1.162 -2.322,1.236 -0.148,0.06 -0.376,0.127 -0.611,0.191 -0.046,0.088 -0.096,0.187 -0.149,0.294 -0.255,0.51 -1.537,3.492 -1.777,4.116 -0.227,0.592 -0.832,1.297 -2.423,1.301 -0.071,3.69 0.379,6.117 0.676,7.297 1.376,0.357 2.232,1.445 2.661,2.371 1.818,1.171 2.683,3.479 2.571,6.872 -0.003,0.087 -0.005,0.157 -0.005,0.207 0.004,0.261 0.243,1.21 0.502,1.988 0.007,0.019 0.013,0.039 0.018,0.059 0.928,3.22 0.281,7.978 -0.367,9.392 -0.221,0.482 -0.403,0.811 -0.549,1.075 -0.157,0.285 -0.225,0.408 -0.269,0.576 0.17,0.313 0.23,0.687 0.143,1.059 -1.088,4.642 -4.702,6.235 -6.949,6.517 -1.016,0.955 -2.763,2.019 -3.483,2.216 -0.147,0.04 -0.604,0.208 -1.007,0.357 -0.797,0.294 -1.79,0.66 -2.533,0.854 -0.463,0.12 -0.986,0.179 -1.6,0.179 m 0,-1.5 c 0.449,0 0.867,-0.038 1.221,-0.131 1.111,-0.289 2.993,-1.062 3.524,-1.206 0.531,-0.145 2.607,-1.449 3.187,-2.221 0,0 4.924,-0.049 6.179,-5.407 0,0 -0.097,0.289 -0.628,0.676 0,0 0.29,-0.676 0.435,-1.497 0.145,-0.821 0.434,-1.014 0.965,-2.172 0.531,-1.159 1.111,-5.504 0.29,-8.352 0,0 -0.579,-1.738 -0.579,-2.462 0,-0.724 0.386,-4.779 -2.269,-6.034 0,0 -0.588,-2.035 -2.42,-2.035 -0.061,0 -0.123,0.002 -0.187,0.007 0,0 -1.352,-3.38 -0.966,-10.331 0,0 0.749,0.146 1.424,0.146 0.488,0 0.937,-0.076 1.038,-0.339 0.242,-0.628 1.545,-3.669 1.835,-4.249 0.29,-0.579 0.483,-0.917 0.483,-0.917 0,0 0.82,-0.193 1.062,-0.289 0.241,-0.097 3.282,-1.787 4.296,-2.318 1.014,-0.531 2.993,-1.4 3.911,-1.641 0.917,-0.241 1.882,-0.338 2.51,-0.772 0.628,-0.435 0.483,-0.29 1.159,-0.58 0.676,-0.289 2.655,-1.158 3.669,-1.834 1.013,-0.676 2.51,-2.318 3.379,-3.428 0.869,-1.11 2.51,-3.862 2.896,-4.634 0.387,-0.773 1.69,-3.09 2.028,-4.635 0.338,-1.545 1.545,-6.227 1.883,-7.531 0.338,-1.303 2.8,-8.834 2.317,-12.552 0,0 1.762,-7.12 1.4,-10.669 0,0 1.521,-3.113 1.738,-5.358 0.217,-2.245 0.941,-4.924 -1.014,-6.807 0,0 -0.579,-4.562 -1.521,-5.648 -0.941,-1.086 -2.606,-3.187 -2.606,-3.187 0,0 0.434,-2.462 -0.218,-3.62 -0.651,-1.159 -1.086,-3.693 -1.52,-5.069 -0.435,-1.376 -0.652,-2.897 -1.449,-3.549 -0.688,-0.563 -1.215,-2.155 -2.982,-2.155 -0.277,0 -0.584,0.04 -0.928,0.128 l -3.114,-4.417 c 0,0 0.58,-2.462 0.652,-3.549 0.072,-1.086 0.579,-3.91 0.362,-4.707 -0.217,-0.796 0,-0.651 0.072,-2.1 0.073,-1.448 0.435,-2.679 0,-4.055 -0.434,-1.376 -0.362,-2.172 -0.362,-3.041 0,-0.869 -0.144,-0.797 -0.289,-1.883 -0.145,-1.086 0,-2.679 -0.29,-3.476 -0.29,-0.796 -1.593,-7.82 -1.593,-7.82 l -53.586,0 c 0,0 -2.245,2.389 -2.245,3.62 0,1.231 0.072,1.883 -0.362,3.476 -0.435,1.593 -1.448,3.766 -1.448,4.852 0,0 -0.29,2.317 -0.869,3.765 -0.58,1.449 -1.594,3.042 -2.028,4.345 -0.435,1.304 -0.579,2.897 -1.014,3.621 -0.434,0.724 -1.014,1.014 -1.303,2.172 -0.29,1.159 -0.386,1.256 -0.773,3.38 -0.386,2.124 -0.965,3.379 -0.869,4.537 0.097,1.159 0.097,1.642 0.097,3.283 0,1.642 -0.386,2.704 0,3.863 0.386,1.158 0.966,4.827 0.966,6.758 0,1.931 -0.097,7.531 0.579,9.848 0.676,2.318 1.738,5.6 1.931,7.049 0.193,1.448 0.289,3.669 0.386,6.275 0.097,2.607 -0.29,8.69 0.386,11.007 0.676,2.318 2.511,10.718 2.511,12.166 0,1.448 1.255,8.207 1.834,9.462 0.579,1.255 2.414,4.152 5.021,5.407 2.607,1.255 10.234,5.31 11.2,6.372 l 0,2.221 c 0,0 0.096,2.51 2.027,3.572 0,0 -0.169,4.659 -0.603,6.18 0,0 -4.779,3.765 -4.852,8.255 -0.072,4.49 -0.821,6.421 -0.676,8.062 0,0 -0.483,0.676 -0.531,1.4 -0.048,0.724 -0.241,2.607 -0.241,4.248 0,1.58 0.134,7.097 0.575,7.981 0.033,0.053 0.052,0.081 0.052,0.081 -0.017,-0.02 -0.035,-0.047 -0.052,-0.081 -0.211,-0.334 -0.988,-1.648 -1.154,-3.105 0,0 0.337,4.779 2.365,6.276 2.028,1.497 1.69,2.897 3.235,3.428 0,0 -1.497,-0.435 -2.511,-1.4 0,0 1.545,1.641 2.945,2.22 1.4,0.58 1.69,0.773 2.317,1.111 0.628,0.337 3.38,1.351 4.731,1.641 0.921,0.197 2.021,0.372 2.979,0.372"
           id="path614"
           style="fill:#231f20;fill-opacity:1;fill-rule:nonzero;stroke:none" />
        <g
           id="g35228">
          <path
             style="fill:none;stroke:#231f20;stroke-width:0.5;stroke-linecap:butt;stroke-linejoin:miter;stroke-miterlimit:4;stroke-dasharray:none;stroke-opacity:1"
             id="path570"
             d="m 233.2951,762.3269 c 0,0 4.369,-3.572 9.872,-0.29" />
          <path
             style="fill:none;stroke:#000000;stroke-width:0.5;stroke-linecap:butt;stroke-linejoin:miter;stroke-miterlimit:10;stroke-dasharray:none;stroke-opacity:1"
             id="path574"
             d="m 257.2881,780.4304 -0.41,-0.941 0,0.941 -0.604,-0.652 -0.193,0.507 -0.857,-0.941 -0.392,0.289 -0.522,-0.579 -0.369,-0.579 -0.149,0.724 -0.364,-0.217 -0.653,-0.58 -0.145,0.58 -0.869,-0.362 -0.507,0.434 0.579,1.304 c 0,0 0.072,1.086 0.217,2.1 0.145,1.013 0.29,2.244 0.29,2.244 l -0.29,0.218 c 0,0 -0.217,2.389 0,3.041 0.217,0.652 -0.289,0.869 -0.434,0.652 -0.145,-0.217 -0.073,1.086 -0.073,1.086 l -0.941,-1.014 0.362,2.028 c 0,0 -0.941,-1.449 -0.797,-3.693 0,0 -0.724,1.738 -0.724,2.389 l -0.579,-2.679 -0.434,2.897 -0.58,1.231 -0.434,-1.594 -0.435,3.042 c 0,0 -0.289,-1.593 -0.434,-2.317 l -0.724,2.534 c 0,0 0.072,-3.621 0.434,-4.2 0,0 -1.448,2.028 -1.448,2.679 0,0.652 -0.073,-3.113 0.145,-3.838 0,0 -1.883,2.607 -1.956,3.331 0,0 -0.868,-2.172 -1.52,-2.679 0,0 0.289,1.521 0.362,2.173 0,0 -1.955,-2.245 -2.535,-2.607 0,0 1.014,2.534 1.087,3.765 0,0 -4.2,-3.186 -7.604,-2.462 0,0 1.086,0.797 1.448,1.448 0,0 -1.882,-0.941 -2.534,-1.086 0,0 0.796,1.231 1.014,1.666 0,0 -2.607,-1.666 -3.186,-1.883 0,0 -0.145,0.869 0.072,1.521 0,0 -1.304,-0.652 -1.448,-1.376 -0.145,-0.724 -0.073,-5.141 -0.218,-5.793 -0.144,-0.652 -0.024,-3.042 -0.531,-3.404" />
          <path
             style="fill:none;stroke:#231f20;stroke-width:0.5;stroke-linecap:butt;stroke-linejoin:miter;stroke-miterlimit:4;stroke-dasharray:none;stroke-opacity:1"
             id="path578"
             d="m 237.3744,746.8787 c 0,0 -0.965,-2.317 -1.448,-3.09 -0.483,-0.772 -1.449,-4.055 -1.545,-5.696 -0.097,-1.642 -0.29,-3.476 -0.483,-5.987 -0.193,-2.51 -0.869,-5.117 -1.062,-7.048 -0.193,-1.931 -0.193,-4.345 -0.579,-6.372 -0.387,-2.028 -0.387,-2.897 -0.966,-5.021 -0.579,-2.124 -1.062,-4.538 -1.545,-6.372 -0.482,-1.835 -1.738,-7.338 -2.317,-8.786 -0.579,-1.449 -1.159,-4.732 -1.448,-7.532 -0.29,-2.799 -0.676,-4.248 -0.773,-6.951 -0.096,-2.704 -0.579,-5.021 -0.386,-8.304 0.193,-3.283 0.097,-5.02 0.483,-7.724 0.386,-2.703 2.414,-8.979 2.414,-8.979 0,0 2.896,0.386 4.538,0.579 1.641,0.193 5.407,0.869 6.565,1.352 1.159,0.483 5.407,1.834 6.662,1.834 1.255,0 7.242,1.062 8.4,1.738 1.159,0.676 3.959,1.545 3.959,1.545 0,0 -0.386,1.159 0.386,1.255 0.773,0.097 1.159,0.483 1.159,0.483 0,0 -0.193,0.869 0.483,1.352 0.675,0.482 1.255,1.545 1.737,2.414 0.483,0.868 3.476,6.179 3.476,6.179 0,0 -1.255,1.448 -0.386,1.641 l 0.869,0.193 c 0,0 0.483,2.028 0.966,2.221 0,0 0.193,4.248 1.062,4.731 0,0 -0.097,2.414 0.772,2.607 0,0 0.193,2.607 0.869,2.897 0,0 -0.869,2.027 -0.29,3.089 0.58,1.062 1.545,2.993 1.545,2.993 0,0 -1.352,3.283 -2.413,6.373 -1.063,3.089 -2.511,8.689 -2.511,9.945 0,0 -1.158,2.896 -1.834,4.248 -0.676,1.352 -2.125,7.917 -2.221,10.427 -0.097,2.511 -0.579,5.118 -0.579,5.118" />
          <path
             style="fill:none;stroke:#231f20;stroke-width:0.5;stroke-linecap:butt;stroke-linejoin:miter;stroke-miterlimit:4;stroke-dasharray:none;stroke-opacity:1"
             id="path582"
             d="m 226.5606,662.3959 -1.014,-2.607 c 0,0 -2.462,1.014 -3.91,1.303 -1.448,0.29 -2.462,0 -3.186,0.58 -0.724,0.579 -0.58,1.158 -1.883,1.303 -1.304,0.145 -5.359,1.449 -5.359,1.449 0,0 0.58,2.172 1.449,3.475 0.868,1.304 2.462,3.911 3.041,4.78 0.579,0.869 1.883,2.607 1.883,2.607 l 1.738,3.041 c 0,0 -0.435,2.462 -0.435,3.91 0,1.449 -0.724,13.324 -0.434,15.497 0.289,2.172 0.724,6.227 1.448,7.676 0.724,1.448 0.434,3.331 0.434,3.331 0,0 -0.869,4.779 -1.882,6.517 -1.014,1.738 -1.738,14.483 -1.738,14.483" />
          <path
             style="fill:none;stroke:#231f20;stroke-width:0.5;stroke-linecap:butt;stroke-linejoin:miter;stroke-miterlimit:4;stroke-dasharray:none;stroke-opacity:1"
             id="path586"
             d="m 269.2365,692.0373 0.965,0.579 c 0,0 -0.482,1.642 0,2.318 0.483,0.675 1.449,2.027 1.449,2.027 l -1.159,1.159" />
          <path
             style="fill:none;stroke:#231f20;stroke-width:0.5;stroke-linecap:butt;stroke-linejoin:miter;stroke-miterlimit:4;stroke-dasharray:none;stroke-opacity:1"
             id="path590"
             d="m 232.933,752.2614 c 0,0 0.29,-4.2 1.159,-5.648 0,0 -1.473,2.052 -2.221,3.741" />
          <path
             style="fill:none;stroke:#231f20;stroke-width:0.5;stroke-linecap:butt;stroke-linejoin:miter;stroke-miterlimit:4;stroke-dasharray:none;stroke-opacity:1"
             id="path594"
             d="m 244.3744,731.6235 c 0,0 11.152,0.217 13.324,-0.29 0,0 0.507,-3.548 0.29,-4.996 -0.217,-1.448 -0.579,-10.066 -0.579,-10.066 l -9.414,-2.462 -4.418,3.693 c 0,0 -0.144,12.89 0.797,14.121 z" />
          <path
             style="fill:none;stroke:#231f20;stroke-width:0.5;stroke-linecap:butt;stroke-linejoin:miter;stroke-miterlimit:4;stroke-dasharray:none;stroke-opacity:1"
             id="path598"
             d="m 259.871,669.1545 c 0,0 8.593,-5.407 10.331,-7.145 l 2.703,3.717" />
          <path
             style="fill:none;stroke:#231f20;stroke-width:0.5;stroke-linecap:butt;stroke-linejoin:miter;stroke-miterlimit:4;stroke-dasharray:none;stroke-opacity:1"
             id="path602"
             d="m 270.202,662.0097 c 0,0 -4.538,-7.821 -6.372,-9.172 0,0 -4.442,5.117 -5.987,13.227" />
          <path
             style="fill:none;stroke:#231f20;stroke-width:0.5;stroke-linecap:butt;stroke-linejoin:miter;stroke-miterlimit:4;stroke-dasharray:none;stroke-opacity:1"
             id="path606"
             d="m 211.6916,664.1338 c 0,0 -1.931,-2.221 -1.738,-5.697" />
          <path
             style="fill:none;stroke:#231f20;stroke-width:0.5;stroke-linecap:butt;stroke-linejoin:miter;stroke-miterlimit:4;stroke-dasharray:none;stroke-opacity:1"
             id="path610"
             d="m 211.2089,664.4235 c 0,0 -2.607,-1.255 -3.283,-3.766" />
          <path
             style="fill:none;stroke:#231f20;stroke-width:0.5;stroke-linecap:butt;stroke-linejoin:miter;stroke-miterlimit:4;stroke-dasharray:none;stroke-opacity:1"
             id="path618"
             d="m 252.9192,761.7476 c 0,0 -2.124,-0.869 -3.572,-1.834 -1.449,-0.966 -7.628,-4.731 -7.628,-4.731 l -0.097,-0.966 -2.317,-1.255 c 0,0 -1.255,-0.097 -1.062,-1.062 0.193,-0.966 1.159,-3.38 1.159,-3.38 0,0 -0.483,-1.834 -0.869,-1.834 -0.386,0 -0.869,0.483 -1.545,0.483 -0.676,0 -0.965,0.483 -0.965,0.483 0,0 -0.676,2.317 -0.773,3.186 0,0 -2.703,1.255 -3.283,2.8" />
          <path
             style="fill:none;stroke:#231f20;stroke-width:0.5;stroke-linecap:butt;stroke-linejoin:miter;stroke-miterlimit:4;stroke-dasharray:none;stroke-opacity:1"
             id="path622"
             d="m 241.6227,754.2166 1.352,-5.31 c 0,0 11.393,7.048 13.034,7.386" />
        </g>
      </g>
    </g>
    <g
       id="g632"
       transform="matrix(1.25,0,0,-1.25,457.06821,398.07648)">
      <path
         style="fill:none;stroke:#231f20;stroke-width:1.5;stroke-linecap:butt;stroke-linejoin:miter;stroke-miterlimit:4;stroke-dasharray:none;stroke-opacity:1"
         id="path634"
         d="m 0,0 c 0,-33.137 -26.863,-60 -60,-60 -33.137,0 -60,26.863 -60,60" />
    </g>
  </g>
</svg>
