<?xml version="1.0" encoding="UTF-8" standalone="no"?>
<svg
   xmlns:dc="http://purl.org/dc/elements/1.1/"
   xmlns:cc="http://creativecommons.org/ns#"
   xmlns:rdf="http://www.w3.org/1999/02/22-rdf-syntax-ns#"
   xmlns:svg="http://www.w3.org/2000/svg"
   xmlns="http://www.w3.org/2000/svg"
   xmlns:xlink="http://www.w3.org/1999/xlink"
   version="1.1"
   id="svg10845"
   height="195.60275"
   width="200.0005">
  <defs
     id="defs4809">
    <pattern
       id="polka"
       patternTransform="rotate(20)"
       height="5"
       width="5"
       patternUnits="userSpaceOnUse">
      <rect
         y="0"
         x="0"
         height="5"
         width="5"
         style="fill:#ffffff"
         id="polka__bg" />
      <circle
         cx="2"
         style="fill:#33a22b"
         cy="2"
         r="1.5"
         id="polka__inner" />
    </pattern>
    <clipPath
       id="clipPath3402-2">
      <path
         id="path3404-4"
         d="m 348.652,307.12 c -3.405,-17.55 4.312,-33.81 17.236,-36.317 l 0,0 c 12.923,-2.508 26.16,9.687 29.565,27.237 l 0,0 c 2.52,12.993 -1.054,25.277 -8.323,31.799 l 0,0 -6.741,3.954 c -0.705,0.232 -1.431,0.421 -2.172,0.565 l 0,0 c -1.134,0.22 -2.27,0.327 -3.401,0.327 l 0,0 c -11.77,0 -23.058,-11.554 -26.164,-27.565" />
    </clipPath>
    <clipPath
       id="clipPath5204-8">
      <path
         id="path5206-6"
         d="m 0,863.584 938.953,0 L 938.953,0 0,0 0,863.584 Z" />
    </clipPath>
  </defs>
  <metadata
     id="metadata10850">
    <rdf:RDF>
      <cc:Work
         rdf:about="">
        <dc:format>image/svg+xml</dc:format>
        <dc:type
           rdf:resource="http://purl.org/dc/dcmitype/StillImage" />
        <dc:title></dc:title>
      </cc:Work>
    </rdf:RDF>
  </metadata>
  <g
     style="display:inline"
     transform="translate(-282.08096,-278.41122)"
     id="layer1">
    <ellipse
       style="color:#000000;display:inline;overflow:visible;visibility:visible;opacity:1;fill:none;fill-opacity:1;fill-rule:nonzero;stroke:#000000;stroke-width:2;stroke-miterlimit:4;stroke-dasharray:none;stroke-opacity:1;marker:none;enable-background:accumulate"
       id="path6022"
       cx="382.06821"
       cy="398.07648"
       rx="74.9505"
       ry="74.950493" />
    <g
       transform="translate(-151.34009,-205.38323)"
       id="layer1-5">
      <path
         d="m 494.86268,575.13071 c 0,0 -4.22375,-0.20875 -8.17625,1.235 0,0 -2.5675,0.2 -4.4675,-0.10375 -1.9,-0.30375 -3.6775,-0.545 -3.6775,-0.545 0,0 4.54375,-3.425 17.08375,-3.5 0,0 -0.27375,-1.2525 0.7525,-1.215 0,0 0.3375,-0.525 0.9075,0.12125 0,0 0.64375,0.58875 0.18875,1.31 l 1.67,0.99875 0.57,-0.5975 -0.9125,0 c 0,0 -0.6075,-0.695 -0.6075,-1.18875 0,0 -0.28375,-0.9175 0.28625,-0.9175 l 0.5525,-0.31 0,-0.4175 1.25,-0.3425 0,-0.4175 0.32375,-0.2275 c 0,0 0.56,-3.53375 0.97875,-4.1425 0,0 1.11625,-0.15125 2.635,0.1525 0,0 2.49625,0.11375 3.675,-1.71 0,0 -0.72875,-0.7975 0.335,-1.40625 l 3.91125,-14.66625 c 0,0 -0.38125,-0.30375 -0.305,-0.5325 0.075,-0.2275 0.22625,-0.57 0.22625,-0.57 l 0.60875,-0.4175 0.75875,-3.30625 -1.215,-0.72125 -3.87625,-8.05625 -1.02625,-0.34125 -0.53125,-0.57 -0.0387,-0.38 -3.57125,-0.0763 c 0,0 -4.18,-0.6075 -5.89,-1.78625 l -2.09,1.40625 -0.38,-0.0375 -0.49375,-0.5325 -2.47,1.9 -0.2275,0.49375 -1.97625,0.9125 c 0,0 -0.91125,-0.11375 -1.06375,-0.7225 0,0 -1.25375,0.7225 -1.52,1.1025 l -0.87375,-0.98875 c 0,0 0.9875,-1.1775 2.43125,-1.595 0,0 1.06375,-0.64625 1.36875,-0.84875 0.30375,-0.2025 0.45625,-0.6075 0.9625,-0.53125 l 0.53125,-0.405 -0.075,-0.17625 c 0,0 0.38,-0.605 0.9875,-0.935 0,0 -0.48125,-0.67875 -0.45625,-1.3125 0.025,-0.6325 1.19125,-2.0675 2.98875,-2.0675 1.79875,0 3.06625,1.48875 3.06625,1.48875 0,0 2.33,1.4325 3.24125,1.8875 0.9125,0.45625 2.28,0.8125 2.68625,0.8125 l 3.09,0 c 0,0 0.27875,-1.1025 2.4575,-1.1025 0,0 0.36,-0.18125 0.81125,-0.13125 0,0 1.0125,-0.59125 1.49375,0.245 l 0.1775,0.31 c 0,0 1.29125,0.27625 2.38125,0.25125 1.08875,-0.025 2.40625,-0.0125 3.6975,-0.49375 1.2925,-0.48125 3.92625,-1.2775 8.5375,-1.2775 0,0 0.12625,-0.30125 0.73375,-0.30125 l 1.59625,0 c 0,0 0.1525,-1.25 0.83625,-1.25 l 2.355,0 c 0,0 0.46125,0.4675 0.8925,0.4675 0.43,0 2.99375,-0.8425 4.615,0.12 0,0 1.225,-0.004 2.13625,-0.155 0.9125,-0.1525 2.68,-0.4575 4.63,-0.255 1.95,0.2025 4.3275,0.1125 4.885,0.1125 0.5575,0 2.2875,0.11375 2.2875,1.10125 l 0,2.20375 c 0,0 -0.10875,1.21875 -1.5025,1.19375 -1.39375,-0.0263 -2.525,-0.20125 -3.8925,-0.1 -1.3675,0.10125 -8.38125,0.1825 -8.38125,0.1825 l -0.30125,-0.345 c 0,0 -1.17625,0.60125 -2.3425,0.60125 -1.165,0 -1.6525,-0.0525 -2.0325,0.0738 -0.38,0.12625 -0.86625,1.04875 -0.86625,1.04875 l -0.88625,0 -0.355,0.56 c 0,0 1.57,-0.37875 2.22875,0.12875 0.65875,0.50625 2.8125,0.685 2.8125,0.685 0,0 0.88625,0.065 1.165,0.6975 0.27875,0.63375 0.455,1.58 0.455,1.58 0,0 -0.32875,0.1975 -0.48,-0.055 -0.1525,-0.25375 -0.33,-0.9325 -0.76,-1.00875 -0.43125,-0.0762 -4.915,-1.30125 -5.32,-1.25 -0.405,0.05 -0.63375,0.6425 -0.735,0.92125 -0.10125,0.27875 -0.50625,1.49125 -1.0125,1.49125 l -1.495,0 c 0,0 -0.63375,-0.15 -1.115,-0.22625 -0.48125,-0.075 -4.71125,-1.4425 -4.71125,-1.4425 l -0.5325,-0.15125 -0.2025,-0.67 -1.3175,-0.1575 c 0,0 -0.405,-0.7725 0.20375,-1.20375 l 1.19,0.12375 c 0,0 0.10125,-0.4 0.32875,-0.4 l 0.78625,0.14375 2.735,0.17375 0.10125,0.06 0.5575,0 0.1525,-0.555 0.2525,-0.2775 c 0,0 0.1025,-1.13875 -0.025,-1.36625 0,0 -3.19125,-0.0888 -5.345,0.72125 -2.1525,0.81125 -5.5225,1.5775 -8.08,1.425 0,0 1.0125,2.22 1.62125,2.6 0.6075,0.38 1.7225,1.21125 1.7225,1.6925 0,0 2.33,0.2775 2.78625,1.18875 0,0 0.2025,0.5825 0.45625,0.68375 0.2525,0.10125 0.5825,0.27875 0.5825,0.5825 0,0 0.5825,0.4075 0.32875,0.965 -0.2525,0.5575 -0.5575,0.36 -0.5575,0.36 l -0.455,1.30125 c 0,0 0.43,0.44875 0.2525,0.93 -0.1775,0.48125 -0.73375,0.62 -0.73375,0.62 l -0.305,0.37875 -0.86125,0 -0.81,2.88875 c 0,0 0.50625,0.3425 0.38,0.85 -0.1275,0.50625 -0.65875,0.61375 -0.65875,0.61375 l -0.48125,1.815 31.36,15.38375 c 0,0 7.94125,2.77125 12.15875,3.0375 l 0.1525,-0.72375 c 0,0 -0.64625,-0.30375 -0.5325,-0.9875 0.115,-0.68375 0.3425,-1.40625 0.3425,-1.40625 l 0.3425,-0.22875 0.835,0.0762 2.58375,-11.58875 -0.68375,-0.45625 0.26625,-1.1025 c 0,0 -1.78625,-0.57 -1.97625,-0.53125 -0.19,0.0375 -0.49375,-0.1525 -1.06375,-1.1025 -0.57,-0.95 -1.785,-2.28 -2.58375,-2.6975 -0.7975,-0.4175 -2.925,-1.21625 -2.925,-1.8625 0,-0.645 -0.19,-3.98875 4.02875,-3.98875 0,0 3.1925,0.11375 4.675,0.7975 0,0 4.18125,-0.7975 7.145,-0.19 0,0 5.895,-0.95 8.09875,0.22875 0,0 2.0225,2.3925 2.0225,6.11625 0,0 0.13375,1.78625 -3.4,2.4325 l -0.4425,0.57 0.0512,0.2275 0,1.02625 c 0,0 -1.69875,2.0525 -4.16875,0.8025 l -2.58375,0 c 0,0 -0.49375,1.2725 -2.35625,1.2725 l -1.405,-0.36875 -2.4325,11.4275 3.0025,1.0275 -0.495,1.5925 -0.7975,0.38375 -0.34125,0.915 -1.1025,0 -0.38,-0.85125 -0.3425,-0.21625 -0.6075,2.57125 5.01625,6.395 c 0,0 7.15625,-8.60625 16.4775,-8.60625 9.3225,0 23.1525,8.065 23.1525,33.4475 l -1.03875,-0.009 c 0.17625,3.26875 0.09,6.5975 -0.33875,10.0775 -2.5675,20.80249 -15.5425,36.31999 -28.97875,34.66124 -7.89625,-0.97375 -14.19625,-7.78249 -17.52625,-17.35625 l -0.145,-0.11374 -0.41875,0 -0.4175,0.0413 -0.3425,0.055 -0.19,-0.0963 -0.34125,0 -0.26625,0.1925 -0.2275,0.0975 -0.5325,-0.0475 c -0.4175,0.19 -1.1775,0.6225 -1.1775,0.6225 -0.19,1.02625 -1.2925,5.02375 -1.59625,6.01125 -0.30375,0.9875 -0.49375,3.3475 -0.49375,3.3475 l 1.33,0.23 0.19,0.19 0.4175,-0.2275 0.71875,-0.56875 6.98875,1.5575 0,2.85 c -1.25,0.64625 -4.405,0.83625 -4.405,0.83625 l -7.655,-1.635 -0.35,-0.455 c -1.44375,-0.76 0.015,-4.2175 0.015,-4.2175 0.94875,-3.0025 1.62125,-7.5625 1.62125,-7.5625 -1.67125,-0.34125 -2.74125,-1.86125 -2.93125,-1.9375 -0.19,-0.0763 -0.345,-0.15125 -0.3825,-0.38 -0.0387,-0.2275 -0.23,-0.26625 -0.4575,-0.45625 -0.22875,-0.19 -0.53375,-0.38 -0.4575,-0.645 0.0762,-0.26625 0.0375,-0.38 -0.11375,-0.5325 -0.1525,-0.1525 -0.26625,-0.34125 -0.30375,-0.6075 -0.0387,-0.26625 -0.19125,-0.5325 -0.305,-0.68375 -0.11375,-0.1525 -0.0763,-0.64625 -0.0763,-0.9125 0,-0.26625 -0.15125,-0.4175 -0.34125,-0.68375 -0.19,-0.26625 0.0762,-0.64624 -0.0388,-0.91249 -0.11375,-0.265 -0.025,-0.86125 -0.025,-0.86125 -1.3675,0.30375 -1.7725,-0.65875 -1.7725,-0.65875 l -1.6725,-0.30375 c -1.925,-0.55625 -0.35375,-3.445 -0.2525,-3.9 0.10125,-0.45625 0.38125,-2.55875 0.38125,-2.55875 l -28.42125,-48.8625 -1.13625,3.87625 0.31,0.76375 -2.04,7.75875 c 17.93375,15.95875 15.83,36.03625 15.90625,37.555 0.0763,1.52 -1.7,0.0288 -1.7,0.0288 l -0.50625,-0.0438 c 0.095,4.06125 -0.24625,8.25999 -1.07,12.50624 -4.84375,24.9675 -24.5125,42.15375 -43.93125,38.38625 -19.41875,-3.7675 -31.23375,-27.06125 -26.39,-52.02874 4.84375,-24.96625 24.51125,-42.1525 43.93,-38.385 l 0.53875,-1.19875 c 0,0 -3.165,-0.785 -3.8875,-0.7475"
         id="path3260"
         style="fill:#ffffff;fill-opacity:1;fill-rule:nonzero;stroke:none" />
      <path
         d="m 502.21855,578.16208 c -0.335,0.79125 -0.63125,1.39 -0.7575,1.585 -0.4175,0.64625 -0.83625,2.6025 -0.91125,3.24875 -0.03,0.25 -0.12125,0.5225 -0.22375,0.7625 l -0.0275,0.065 c -0.8825,-0.29 -1.78875,-0.52625 -2.71625,-0.70625 -1.14625,-0.2225 -2.295,-0.3525 -3.44,-0.39375 l -10e-4,0.045 -0.40625,1.11375 c -0.91125,-0.15125 -1.215,0.86125 -1.215,0.86125 -0.355,1.97625 2.58375,2.23 2.58375,2.23 l -0.10125,1.82375 0.05,0.70875 c 0,0 -4.10375,15.0975 -4.45875,16.16125 -0.35375,1.06375 -1.165,5.82625 -1.31625,6.94125 -0.1525,1.115 -1.6725,5.77625 -1.6725,5.77625 0,0 -2.22875,1.7225 -2.22875,2.78625 0,1.06375 1.21625,1.51875 1.21625,1.51875 l -0.0462,-0.11 c -0.0675,-0.43375 -0.0612,-0.90625 0.0325,-1.38875 0.32625,-1.68375 1.59625,-2.85375 2.835,-2.61375 0.2525,0.0487 0.48375,0.1525 0.68875,0.3 l 0.0437,0.0213 0.245,-0.26125 c 0,0 1.82375,-6.78875 2.58375,-8.51125 0.76,-1.7225 1.62125,-4.61 1.62125,-4.61 l 5.155,-19.13875 c 0.22875,0.5325 1.25375,0.98875 1.25375,0.98875 l 0.98875,0.2275 c 1.975,0.64625 2.28,2.16625 2.28,2.16625 0,0 -3.61,13.71625 -3.87625,14.515 -0.26625,0.7975 -0.9125,3.91375 -1.1775,5.62375 -0.26625,1.71 -0.95,4.86375 -0.95,4.86375 l -1.44375,5.12875 c -0.5325,0.38 -1.33,1.4825 -1.33,1.4825 -0.9125,0.19 -1.06375,1.9425 -1.06375,1.9425 0,1.52 0.72125,2.01875 0.72125,2.01875 l 0.95,0 -0.15125,0.0712 c 1.86125,0.11375 1.97625,-0.97125 1.97625,-0.97125 l 0.7225,-0.42875 0.60875,-1.7075 c 0.0512,-1.82375 2.43375,-9.2 2.94125,-10.41625 0.50625,-1.21625 1.47375,-4.1675 1.47375,-4.1675 l 6.29125,-23.46 0.475,0.2075 0.45,-1.43375 c 8.915,7.16125 14.45125,19.55375 14.78125,33.57125 l 0.50625,0.0438 c 0,0 1.77625,1.49125 1.7,-0.0288 -0.0763,-1.52 2.02875,-21.5975 -15.90625,-37.55625 l 2.04,-7.75875 -0.31,-0.76375 1.13625,-3.8775 28.42125,48.86375 c 0,0 -0.28,2.1025 -0.38125,2.55875 -0.10125,0.455 -1.67125,3.3425 0.25375,3.9 l 1.67125,0.875 c 0,0 0.405,1.22875 1.77375,1.22875 l 0.0375,0 0.0475,-1.255 -0.12875,-1 0,-0.45625 -0.0163,-0.2025 0.14375,-0.22875 0.0113,-0.50625 -0.13875,-0.30375 0,-0.27875 0,-0.27875 0,-0.5575 0,-0.38 0.3375,-0.355 0.28375,-0.30375 0.0912,-0.2275 0.31125,-0.76 0.19375,-0.30375 0.26125,-0.25375 0.105,-0.25375 0.18,-0.455 0.1775,-0.355 0.17875,-0.2275 0.2275,-0.20375 0.27875,-0.55625 0.27875,-0.1275 0.20375,-0.1775 0.2275,-0.2525 0.1775,-0.33 c 0,0 0.12625,-0.10125 0.2025,-0.12625 0.0763,-0.025 0.30375,-0.2025 0.30375,-0.2025 l 0.48125,-0.50625 0.405,-0.0512 0.48125,-0.32875 0.38,-0.1275 0.45625,-0.0762 0.50625,-0.17625 7.70125,-33.28625 1.77375,6.38375 c 0,0 -5.32,8.89125 -7.195,26.82625 l 0.0763,0.05 c 0,0 2.255,0.345 3.77875,2.82875 l 0.0275,-0.0163 c 0,0 0.0537,-1.15125 0.24875,-3.05875 l 0.10625,-0.98625 c 0.7375,-6.51 2.93,-19.3325 8.94375,-27.51875 l 18.22375,26.36125 -1.07,1.915 -25.445,6.1375 0.385,2.8275 25.9375,-7.81 c 0,0 0.28875,1.43625 1.86625,0.63875 l 0.25875,0.025 1.29125,-0.58375 -0.57,-0.38 c 0,0 0.68125,-1.3675 -0.56875,-1.82375 l 0,-1.215 -1.50875,-1.01375 -17.53875,-26.95 c 4.93125,-5.82875 9.365,-8.20625 12.8425,-8.8675 l 3.05125,-0.5075 3.525,1.32125 c 9.49,3.20625 15.9525,14.99625 16.74125,29.67375 l -0.0212,-0.0362 1.0425,0 c 0,-25 -13.83,-33.35125 -23.1525,-33.35125 -9.32125,0 -16.4775,8.63125 -16.4775,8.63125 l -5.015,-6.43125 0.60875,-2.685 0.34125,-0.03 -0.1925,0.345 -0.49625,-0.225 0,-0.68375 c 0,0 -2.33125,-1.12 -3.09125,-1.34875 -0.76,-0.2275 -0.65875,-0.0562 -0.65875,-0.0562 l 0,-0.0388 c 0,0.68375 0.62375,0.9875 0.62375,0.9875 l -0.10625,0.7225 c -4.2175,-0.26625 -12.13625,-3.04 -12.13625,-3.04 l -31.3488,-15.3887 0.4875,-1.82375 c 0,0 0.53375,-0.12625 0.66125,-0.63375 0.12625,-0.50625 -0.37875,-0.88625 -0.37875,-0.88625 l 0.81125,-2.96375 0.0763,-0.6075 c 0,0 -1.9,-2.4325 -4.29375,-0.9125 l -0.76,3.30625 -0.6075,0.4175 c 0,0 -0.15125,0.3425 -0.2275,0.57 -0.0762,0.22875 0.30375,0.5325 0.30375,0.5325 l -3.91375,14.66625 c -1.06375,0.60875 -0.3425,1.40625 -0.3425,1.40625 -1.1775,1.82375 -3.685,1.71 -3.685,1.71 -1.52,-0.30375 -2.66,-0.1525 -2.66,-0.1525 -0.4175,0.60875 -0.93125,4.1425 -0.93125,4.1425 l -0.3225,0.2275 0,0.4175 -1.25,0.3425 0,0.4175 -0.55375,0.0763 c -0.57,0 -0.51375,1.15125 -0.51375,1.15125 0,0.49375 0.835,1.18875 0.835,1.18875 l 0.9125,0 -0.56875,0.5975 -1.67125,-0.765 c 0.45625,-0.7225 -0.18875,-1.42625 -0.18875,-1.42625 -0.57,-0.64625 -0.9075,-0.18 -0.9075,-0.18 -1.02625,-0.0388 -0.7525,1.185 -0.7525,1.185 -12.53875,0.0763 -17.08375,3.48625 -17.08375,3.48625 0,0 1.7775,0.23375 3.6775,0.5375 1.9,0.30375 4.46875,0.1 4.46875,0.1 3.95125,-1.44375 8.175,-1.2375 8.175,-1.2375 0.7225,-0.0375 3.88875,0.74625 3.88875,0.74625 l -0.54,1.19875"
         id="path3308"
         style="fill:url(#polka);fill-opacity:1;fill-rule:nonzero;stroke:none" />
      <path
         d="m 548.55243,614.68546 -2.02625,-3.8 c 0,0 1.1775,-6.00375 1.67125,-6.99125 0.49375,-0.9875 1.36875,-2.62125 0.95,-3.6475 -0.4175,-1.02625 -1.44375,-1.1025 -1.44375,-1.1025 l -7.90375,-0.38 -24.6975,-44 0.15125,-0.3425 34.99625,17.175 c 0,0 8.09375,3.4575 7.75125,4.635 -0.3425,1.17875 -9.44875,38.45375 -9.44875,38.45375"
         id="path3312"
         style="fill:#ffffff;fill-opacity:1;fill-rule:nonzero;stroke:none" />
      <path
         d="m 541.86493,602.24771 2.66,5.06625 c 0,0 0.68375,-2.15375 0.86125,-2.9125 0.1775,-0.76 0.30375,-2.255 0.30375,-2.255 0,0 -1.165,-0.10125 -1.6975,-0.405 0,0 -0.27875,0.81 -0.68375,0.81 -0.405,0 -1.3175,-0.27875 -1.3175,-0.27875"
         id="path3316"
         style="fill:#ffffff;fill-opacity:1;fill-rule:nonzero;stroke:none" />
      <path
         d="m 505.56493,570.38071 c 0,0 2.01375,0.95 2.1275,4.29375 l 1.1025,-4.25625 0.68375,-0.9875 c 0,0 -0.0213,-0.76125 -0.0763,-1.25375 -0.0512,-0.4625 -2.42375,-0.56 -3.6475,0.49375 l -0.19,1.71 z"
         id="path3320"
         style="fill:#ffffff;fill-opacity:1;fill-rule:nonzero;stroke:none" />
      <path
         d="m 565.98043,580.33471 -2.8875,0 -1.06375,-3.75 0.455,0 3.49625,3.75 z"
         id="path3324"
         style="fill:#ffffff;fill-opacity:1;fill-rule:nonzero;stroke:none" />
      <path
         d="m 564.0553,582.97046 c 0,0 0.95625,-1.51375 1.37375,-1.93125 l -2.0325,-0.0188 0.65875,1.95"
         id="path3328"
         style="fill:#ffffff;fill-opacity:1;fill-rule:nonzero;stroke:none" />
      <path
         d="m 503.54843,578.66808 c -0.2,0.66625 -0.4125,1.36875 -0.68125,2.08625 0,0 0.0375,0.7975 0.30375,0.9875 l 0.7225,0.11375 c 0,0 0.49375,0.79125 0.30375,1.2475 -0.19,0.45625 -0.64625,0.98125 -0.64625,0.98125 l -0.7975,0 -0.3425,0.33 -0.34125,-0.0825 0.0375,0.24375 0.76,0.1225 c 0,0 0.76,-0.11 1.06375,-0.71875 0.30375,-0.6075 0.7975,-2.29625 0.9875,-3.55 0.0387,-0.2525 0.0825,-0.63875 0.1225,-1.08875 -0.49625,-0.2375 -0.98125,-0.46375 -1.4925,-0.6725"
         id="path3332"
         style="fill:#ffffff;fill-opacity:1;fill-rule:nonzero;stroke:none" />
      <path
         d="m 548.6538,615.14146 -2.1275,-4.25625 c 0,0 1.1775,-6.0025 1.67125,-6.99125 0.49375,-0.9875 1.36875,-2.62125 0.95,-3.6475 -0.4175,-1.02625 -1.44375,-1.10125 -1.44375,-1.10125 l -7.90375,-0.38 -24.6975,-44.00125 0.15125,-0.3425 34.99625,17.175 c 0,0 8.0925,3.4575 7.75125,4.63625 -0.3425,1.1775 -9.3475,38.90875 -9.3475,38.90875 z"
         id="path3336"
         style="fill:none;stroke:#231f20;stroke-width:1.875;stroke-linecap:round;stroke-linejoin:round;stroke-miterlimit:4;stroke-dasharray:none;stroke-opacity:1" />
      <path
         d="m 541.86493,602.24771 2.66,5.06625 c 0,0 0.68375,-2.15375 0.86125,-2.9125 0.1775,-0.76 0.30375,-2.255 0.30375,-2.255 0,0 -1.165,-0.10125 -1.6975,-0.405 0,0 -0.27875,0.81 -0.68375,0.81 -0.405,0 -1.3175,-0.27875 -1.3175,-0.27875"
         id="path3340"
         style="fill:none;stroke:#231f20;stroke-width:0.625;stroke-linecap:butt;stroke-linejoin:miter;stroke-miterlimit:4;stroke-dasharray:none;stroke-opacity:1" />
      <path
         d="m 555.54393,611.82308 c 0,0 -1.77375,-0.2275 -2.28,0.0762 l 7.70125,-33.28625 1.7725,6.38375 c 0,0 -5.31875,8.89125 -7.19375,26.82625 z"
         id="path3344"
         style="fill:none;stroke:#231f20;stroke-width:0.625;stroke-linecap:butt;stroke-linejoin:miter;stroke-miterlimit:4;stroke-dasharray:none;stroke-opacity:1" />
      <path
         d="m 563.65868,629.95633 c 2.82375,7.66625 7.81875,12.9325 14.0325,13.7 11.17875,1.37875 22.07,-12.32 24.325,-30.59875 2.25625,-18.27875 -4.97625,-34.215 -16.155,-35.59375 -4.9975,-0.6175 -9.9375,1.78 -14.07375,6.25125"
         id="path3348"
         style="fill:none;stroke:#231f20;stroke-width:0.625;stroke-linecap:butt;stroke-linejoin:miter;stroke-miterlimit:4;stroke-dasharray:none;stroke-opacity:1" />
      <path
         d="m 561.42043,620.17508 c 0.35125,3.18375 1.005,6.1775 1.925,8.8925"
         id="path3352"
         style="fill:none;stroke:#231f20;stroke-width:0.625;stroke-linecap:butt;stroke-linejoin:miter;stroke-miterlimit:4;stroke-dasharray:none;stroke-opacity:1" />
      <path
         d="m 561.23643,611.24596 c -0.135,2.08375 -0.14625,4.12625 -0.0438,6.10875"
         id="path3356"
         style="fill:none;stroke:#231f20;stroke-width:0.625;stroke-linecap:butt;stroke-linejoin:miter;stroke-miterlimit:4;stroke-dasharray:none;stroke-opacity:1" />
      <path
         d="m 570.30068,585.45646 c -4.37625,5.535 -7.64125,13.5025 -8.765,22.605 -0.0937,0.76125 -0.17125,1.51875 -0.2325,2.27125"
         id="path3360"
         style="fill:none;stroke:#231f20;stroke-width:0.625;stroke-linecap:butt;stroke-linejoin:miter;stroke-miterlimit:4;stroke-dasharray:none;stroke-opacity:1" />
      <path
         d="m 563.2738,629.95758 c 2.965,8.42125 8.415,14.25625 15.23375,15.0975 11.88875,1.4675 23.435,-12.8025 25.79,-31.87375 2.35375,-19.07 -5.3775,-35.72 -17.26625,-37.1875 -5.57375,-0.6875 -11.07375,2.08375 -15.585,7.1875"
         id="path3364"
         style="fill:none;stroke:#231f20;stroke-width:0.625;stroke-linecap:butt;stroke-linejoin:miter;stroke-miterlimit:4;stroke-dasharray:none;stroke-opacity:1" />
      <path
         d="m 561.12055,620.25646 c 0.34625,3.17 0.985,6.1625 1.88125,8.89875"
         id="path3368"
         style="fill:none;stroke:#231f20;stroke-width:0.625;stroke-linecap:butt;stroke-linejoin:miter;stroke-miterlimit:4;stroke-dasharray:none;stroke-opacity:1" />
      <path
         d="m 560.92643,611.26696 c -0.13125,2.1 -0.13875,4.16 -0.0337,6.1625"
         id="path3372"
         style="fill:none;stroke:#231f20;stroke-width:0.625;stroke-linecap:butt;stroke-linejoin:miter;stroke-miterlimit:4;stroke-dasharray:none;stroke-opacity:1" />
      <path
         d="m 569.97493,584.97508 c -4.37125,5.73 -7.60625,13.76125 -8.7325,22.8925 -0.105,0.8525 -0.19,1.7 -0.25625,2.5425"
         id="path3376"
         style="fill:none;stroke:#231f20;stroke-width:0.625;stroke-linecap:butt;stroke-linejoin:miter;stroke-miterlimit:4;stroke-dasharray:none;stroke-opacity:1" />
      <path
         d="m 502.24093,578.17196 c -1.3025,-0.46 -2.64625,-0.8275 -4.02875,-1.095"
         id="path3380"
         style="fill:none;stroke:#231f20;stroke-width:0.625;stroke-linecap:butt;stroke-linejoin:miter;stroke-miterlimit:4;stroke-dasharray:none;stroke-opacity:1" />
      <path
         d="m 505.04068,579.33183 c -0.49625,-0.2375 -1.00125,-0.46 -1.51125,-0.67"
         id="path3384"
         style="fill:none;stroke:#231f20;stroke-width:0.625;stroke-linecap:butt;stroke-linejoin:miter;stroke-miterlimit:4;stroke-dasharray:none;stroke-opacity:1" />
      <path
         d="m 525.6723,616.59821 c -0.33,-14.01625 -5.86625,-26.41 -14.78125,-33.5725"
         id="path3388"
         style="fill:none;stroke:#231f20;stroke-width:0.625;stroke-linecap:butt;stroke-linejoin:miter;stroke-miterlimit:4;stroke-dasharray:none;stroke-opacity:1" />
      <path
         d="m 500.29843,583.82371 c -0.8825,-0.29 -1.78875,-0.52625 -2.71625,-0.70625 -16.155,-3.135 -32.7,12.10875 -36.95625,34.0475 -4.25625,21.9375 5.39,42.2625 21.54375,45.39625 16.155,3.13375 32.70125,-12.11 36.9575,-34.0475 3.15,-16.24 -1.3175,-31.595 -10.40375,-39.7475"
         id="path3392"
         style="fill:none;stroke:#231f20;stroke-width:0.625;stroke-linecap:butt;stroke-linejoin:miter;stroke-miterlimit:4;stroke-dasharray:none;stroke-opacity:1" />
      <path
         d="m 500.29843,583.82371 c -0.8825,-0.29 -1.78875,-0.52625 -2.71625,-0.70625 -16.155,-3.135 -32.7,12.10875 -36.95625,34.0475 -4.25625,21.9375 5.39,42.2625 21.54375,45.39625 16.155,3.13375 32.70125,-12.11 36.9575,-34.0475 3.15,-16.24 -1.3175,-31.595 -10.40375,-39.7475"
         id="path3396"
         style="fill:none;stroke:#231f20;stroke-width:0.625;stroke-linecap:butt;stroke-linejoin:miter;stroke-miterlimit:4;stroke-dasharray:none;stroke-opacity:1" />
      <g
         transform="matrix(1.25,0,0,-1.25,24.810931,1001.0648)"
         id="g3400"
         clip-path="url(#clipPath3402-2)">
        <path
           d="m 466.8779,318.0841 c 0,-33.137 -26.863,-60 -60,-60 -33.137,0 -60,26.863 -60,60 0,33.137 26.863,60 60,60 33.137,0 60,-26.863 60,-60 z"
           id="path3408"
           style="fill:none;stroke:#231f20;stroke-width:2;stroke-linecap:butt;stroke-linejoin:miter;stroke-miterlimit:4;stroke-dasharray:none;stroke-opacity:1" />
      </g>
      <path
         d="m 491.1213,620.84046 c -0.12875,-1.16 -0.7775,-2.0825 -1.7075,-2.2625 -1.24,-0.24125 -2.50875,0.92875 -2.83625,2.6125 -0.32625,1.68375 0.41375,3.24375 1.65375,3.48374 0.9225,0.17875 1.86125,-0.42249 2.41625,-1.43624"
         id="path3420"
         style="fill:none;stroke:#231f20;stroke-width:0.625;stroke-linecap:butt;stroke-linejoin:miter;stroke-miterlimit:4;stroke-dasharray:none;stroke-opacity:1" />
      <path
         d="m 500.70968,581.82546 c -0.63875,-0.1775 -1.2875,-0.33125 -1.9475,-0.45875 -17.51125,-3.3975 -35.3075,12.40375 -39.74875,35.2925 -4.44,22.88749 6.1575,44.19749 23.66875,47.59374 17.5125,3.3975 35.30875,-12.4025 39.74875,-35.29125 3.435,-17.70374 -2.1275,-34.46374 -12.9275,-42.71874"
         id="path3424"
         style="fill:none;stroke:#231f20;stroke-width:0.625;stroke-linecap:butt;stroke-linejoin:miter;stroke-miterlimit:4;stroke-dasharray:none;stroke-opacity:1" />
      <path
         d="m 581.92855,614.01008 c 0.5,1.7475 1.54125,2.98 2.87125,3.14375 1.54875,0.19125 3.07,-1.11875 3.965,-3.17875"
         id="path3428"
         style="fill:none;stroke:#231f20;stroke-width:0.625;stroke-linecap:butt;stroke-linejoin:miter;stroke-miterlimit:4;stroke-dasharray:none;stroke-opacity:1" />
      <path
         d="m 555.4908,628.05858 c 1.49875,-1.13875 2.67,-3.32625 2.99375,-5.94125 0.50125,-4.0625 -1.23375,-7.61875 -3.875,-7.945 -2.64125,-0.32625 -5.18875,2.7025 -5.69,6.76375 -0.48625,3.94625 1.13625,7.415 3.65,7.90875"
         id="path3432"
         style="fill:none;stroke:#231f20;stroke-width:0.625;stroke-linecap:butt;stroke-linejoin:miter;stroke-miterlimit:4;stroke-dasharray:none;stroke-opacity:1" />
      <path
         d="m 546.61455,622.94358 0.36,-0.68375 0.18375,-0.43125 0,-0.45625 -0.32875,-0.2025 -0.0125,-0.2275 0.24625,-0.50625 0.095,-0.30375 0,-0.27875 0.15125,-0.27875 -0.15125,-0.5575 0,-0.38 0.0262,-0.355 0.12625,-0.30375 0.0125,-0.2275 0.2725,-0.76 0.175,-0.305 0.25125,-0.2525 0.1,-0.25375 0.1775,-0.45625 0.1775,-0.35375 0.17625,-0.22875 0.22875,-0.2025 0.27875,-0.5575 0.27875,-0.12625 0.2025,-0.1775 0.2275,-0.25375 0.1775,-0.32875 c 0,0 0.12625,-0.10125 0.2025,-0.12625 0.0762,-0.0263 0.30375,-0.2025 0.30375,-0.2025 l 0.48125,-0.5075 0.40625,-0.05 0.48125,-0.33 0.37875,-0.12625 0.45625,-0.0762 0.5075,-0.1775"
         id="path3436"
         style="fill:none;stroke:#231f20;stroke-width:1.875;stroke-linecap:butt;stroke-linejoin:miter;stroke-miterlimit:4;stroke-dasharray:none;stroke-opacity:1" />
      <path
         d="m 555.61993,611.87371 c 0,0 5.1425,0.785 5.1425,8.53625 0,7.7525 -4.3575,10.19625 -4.3575,10.19625"
         id="path3440"
         style="fill:none;stroke:#231f20;stroke-width:0.625;stroke-linecap:butt;stroke-linejoin:miter;stroke-miterlimit:4;stroke-dasharray:none;stroke-opacity:1" />
      <path
         d="m 558.60955,628.44021 c 0.11,0.3775 0.22375,0.75125 0.3425,1.12125"
         id="path3444"
         style="fill:none;stroke:#231f20;stroke-width:0.625;stroke-linecap:butt;stroke-linejoin:miter;stroke-miterlimit:4;stroke-dasharray:none;stroke-opacity:1" />
      <path
         d="m 606.15568,602.98233 c -0.875,-16.275 -8.85625,-29.13125 -20.045,-30.5125 -1.04,-0.1275 -2.18,-0.15875 -3.20875,-0.0875"
         id="path3448"
         style="fill:none;stroke:#231f20;stroke-width:0.625;stroke-linecap:butt;stroke-linejoin:miter;stroke-miterlimit:4;stroke-dasharray:none;stroke-opacity:1" />
      <path
         d="m 556.93718,632.55733 c 0.10375,0 0.20625,-0.009 0.30875,-0.025 l 0.2275,-0.0388 c 0.06,-0.01 0.11875,-0.0225 0.1775,-0.0387 0.10375,0.0175 0.2075,0.0262 0.3125,0.0262 0.009,0 0.0187,0 0.0275,0 1.0225,2.66375 2.25375,5.06 3.66125,7.16125 l -5.62625,-1.28875 c -0.13875,-0.0312 -0.28,-0.0475 -0.41875,-0.0475 -0.10375,0 -0.2075,0.009 -0.30875,0.0263 0.0413,-0.23125 0.0838,-0.4275 0.125,-0.56375 0.2375,-0.77125 1.01125,-3.54125 1.4225,-5.21375 0.03,10e-4 0.0613,0.002 0.0913,0.002 m -62.0113,-108.28575 c -2.65125,0 -4.79125,2.07875 -4.8625,3.8675 -0.0125,0.30625 0.0225,0.60125 0.0838,0.875 -0.105,0.12625 -0.18625,0.2375 -0.245,0.32125 -0.5175,0.2075 -0.85,0.54625 -1.0075,0.70625 l -0.0175,0.0175 c -0.25,0.16125 -0.76125,0.47375 -1.04125,0.64375 -1.78875,0.61 -2.95375,1.9525 -3.08625,2.11 -0.59625,0.71125 -0.5825,1.7525 0.0325,2.4475 l 0.87375,0.9875 c 0.3575,0.40375 0.86875,0.6325 1.40375,0.6325 0.0362,0 0.0712,0 0.1075,-0.002 0.50625,-0.0288 0.9775,-0.2625 1.3075,-0.64125 0.31625,0.13125 0.64,0.2125 0.9375,0.25 0.0775,0.01 0.155,0.0137 0.23125,0.0137 0.27125,0 0.53875,-0.0575 0.78625,-0.1725 l 1.97625,-0.91125 c 0.405,-0.1875 0.73,-0.5125 0.91625,-0.9175 l 0.035,-0.075 0.985,-0.75625 c 0.0925,0.0238 0.1875,0.04 0.2825,0.05 l 0.38,0.0375 c 0.0625,0.006 0.125,0.01 0.1875,0.01 0.37125,0 0.735,-0.11 1.04625,-0.32 l 1.15375,-0.77625 c 2.0675,0.91875 4.8725,1.36375 5.50875,1.45625 0.0762,0.0113 0.15375,0.0175 0.23,0.0188 l 2.4575,0.0525 0.35375,0.37875 c 0.21375,0.22875 0.48125,0.4 0.7775,0.5 l 0.27375,0.09 3.53125,7.34125 c 0.16,0.3325 0.415,0.61 0.7325,0.79875 l 0.0387,0.0237 -0.29,1.26 -0.006,0.005 c -0.28625,0.1975 -0.51,0.46375 -0.65,0.78375 0,0 -0.195,0.4425 -0.29375,0.7375 -0.16125,0.48375 -0.1375,0.99125 0.0512,1.465 l -3.53375,13.24375 c -0.54,0.53875 -0.71625,1.12375 -0.7725,1.4775 -0.0263,0.165 -0.0362,0.3275 -0.0312,0.48375 -0.52375,0.2975 -1.16875,0.3525 -1.4,0.3625 -0.6875,-0.125 -1.38375,-0.18875 -2.0725,-0.18875 -0.57,0 -0.94,0.045 -1.0075,0.0538 -0.52625,0.07 -0.9975,0.36 -1.2975,0.79625 -0.165,0.24 -0.5825,0.8475 -1.18125,4.065 -0.24125,0.22625 -0.4175,0.51125 -0.5125,0.82625 -0.29,0.075 -0.55125,0.2 -0.7825,0.36 -0.28875,-0.1025 -0.555,-0.13375 -0.775,-0.13375 -0.42125,0 -0.79125,0.11375 -1.10125,0.285 -0.52875,0.13375 -0.98625,0.42375 -1.3275,0.8475 -0.0813,0.10125 -0.1525,0.20375 -0.21375,0.30875 -11.88375,0.3375 -16.4875,3.70375 -16.68625,3.8525 -0.60625,0.4575 -0.8775,1.23625 -0.685,1.97125 0.19125,0.735 0.80875,1.28125 1.5625,1.38375 0.007,10e-4 0.405,0.055 1.01875,0.14375 -4.2725,1.9475 -8.34375,4.80125 -12.01375,8.47125 -7.39625,7.3975 -12.6725,17.6675 -14.855,28.91625 -2.42125,12.4825 -0.90625,24.9725 4.26625,35.16875 5.25125,10.35375 13.63625,17.1225 23.60875,19.05625 1.88875,0.36625 3.8225,0.5525 5.745,0.5525 9.04375,0 18.11,-4.08625 25.52875,-11.50625 7.39625,-7.3975 12.6725,-17.66625 14.85375,-28.915 0.66375,-3.42 1.035,-6.87125 1.1075,-10.2925 0.59875,-0.0213 1.1475,-0.26375 1.55125,-0.68875 0.325,-0.34125 0.70125,-0.9575 0.65,-1.96125 -10e-4,-0.09 0.005,-0.26125 0.0125,-0.4975 0.4363,-14.46125 -5.12745,-27.76375 -15.6887,-37.58625 l 1.695,-6.4475 25.545,43.92 c -0.0987,0.72375 -0.20375,1.43375 -0.2525,1.69875 -0.0188,0.0475 -0.0425,0.10625 -0.0688,0.17125 -0.3925,0.9825 -1.12375,2.81125 -0.35125,4.3925 0.3875,0.79375 1.0675,1.35125 1.96875,1.61125 0.0612,0.0175 0.1225,0.0325 0.185,0.0438 l 0.99125,0.18 c 0.255,0.235 0.56125,0.44125 0.9125,0.59375 0.0175,0.3575 0.11375,0.77625 0.40125,1.1875 -10e-4,0.48625 0.0475,1.07625 0.4275,1.61 0.065,0.34875 0.1875,0.67125 0.365,0.96625 0.0362,0.55125 0.3025,1.19 1.07625,1.80625 l 0.065,0.0525 c 0.0163,0.0138 0.0312,0.0263 0.0475,0.0387 0.17625,0.33 0.46,0.65875 0.915,0.9175 0.34875,0.36375 0.9925,1.0275 1.905,1.5525 -0.26875,1.52125 -0.73875,3.935 -1.3,5.73875 -0.9325,2.225 -1.2625,4.90125 0.365,6.20875 l 0.1025,0.1525 c 0.27,0.40625 0.6875,0.69 1.16375,0.7925 l 7.56125,1.63375 c 0.13,0.0288 0.26375,0.0425 0.39625,0.0425 0.0413,0 0.0838,-10e-4 0.125,-0.004 0.535,-0.035 3.285,-0.2525 4.89375,-1.01125 0.655,-0.31 1.07375,-0.97 1.07375,-1.695 l 0,-1.58375 c 3.4575,3.76875 7.65875,6.085 12.29875,6.6575 0.73,0.09 1.47125,0.13625 2.205,0.13625 13.8925,0 26.30125,-15.6625 28.865,-36.43 0.35625,-2.89 0.495,-5.74125 0.42,-8.6675 0.15375,-0.085 0.29625,-0.19125 0.4225,-0.3175 0.35125,-0.35125 0.55,-0.82875 0.55,-1.32625 0,-11.70125 -2.95875,-21.21 -8.555,-27.49625 -4.43625,-4.98345 -10.44125,-7.84095 -16.47375,-7.84095 -7.49875,0 -13.58,4.90625 -16.33375,7.57625 l -3.13625,-4.0375 0.0162,-0.0675 0.3925,0 c 0.37,0 0.72625,-0.11 1.02875,-0.3075 0.0375,0.003 0.075,0.004 0.1125,0.004 0.8125,0 1.5475,-0.53 1.79125,-1.3275 l 0.49375,-1.615 c 0.29375,-0.9575 -0.2175,-1.97625 -1.16125,-2.31375 l -1.46,-0.5225 1.74,-8.24125 c 1.605,-0.0237 2.6925,-0.8075 3.35125,-1.635 l 0.98875,0 c 0.87375,0.48 1.80125,0.72375 2.7625,0.72375 2.01,0 3.42125,-1.09125 3.575,-1.21625 0.44125,-0.35625 0.6975,-0.8925 0.6975,-1.45875 l 0,-0.4025 c 3.09625,-1.105 3.32625,-3.235 3.325,-3.85375 l 0,0 c 0,-4.36 -2.36625,-7.20875 -2.46625,-7.3275 -0.15375,-0.18125 -0.34,-0.33125 -0.54875,-0.44375 -1.02125,-0.545 -2.4925,-0.81125 -4.49875,-0.81125 -1.86625,0 -3.70875,0.23125 -4.4475,0.33625 -0.78375,-0.13375 -1.67375,-0.2025 -2.65375,-0.2025 -1.79375,0 -3.49125,0.22625 -4.33125,0.35875 -1.76625,-0.59875 -4.27125,-0.7175 -4.80375,-0.7375 -0.0225,0 -0.045,-10e-4 -0.0675,-10e-4 -1.8775,0 -3.36,0.53625 -4.4075,1.59375 -1.52125,1.535 -1.5025,3.5475 -1.49625,4.20875 l 0,0.0625 c 0,1.70625 1.77375,2.52125 3.3375,3.24125 0.2325,0.1075 0.44125,0.2025 0.59375,0.28125 0.3625,0.19125 1.355,1.18375 1.84625,2.0025 0.41125,0.68625 1.17125,1.95125 2.52125,2.01375 0.0487,0.36625 0.20375,0.7125 0.44875,0.9925 l -2.00375,8.985 c -0.12625,0.05 -0.2475,0.1125 -0.36125,0.18875 l -0.3425,0.2275 c -0.355,0.2375 -0.61875,0.58875 -0.7475,0.99625 -0.025,0.08 -0.23625,0.75875 -0.3725,1.4875 -3.72,-0.7125 -8.48125,-2.32125 -9.23875,-2.5825 l -29.685,-14.56625 c 0.25,-0.29125 0.4525,-0.6525 0.56125,-1.09 0.15875,-0.63125 0.0638,-1.21125 -0.1575,-1.69875 l 0.2275,-0.82875 c 0.26375,-0.0888 0.5075,-0.235 0.71,-0.4325 0.60125,-0.25875 1.19875,-0.75 1.49125,-1.545 0.2025,-0.55125 0.195,-1.08875 0.07,-1.56625 0.2575,-0.2375 0.475,-0.54 0.6375,-0.89875 0.4775,-1.05 0.1775,-2.06125 -0.39875,-2.755 -0.17375,-0.355 -0.47,-0.7275 -0.9725,-1.03625 -0.01,-0.0213 -0.0187,-0.04 -0.0263,-0.0562 -0.61,-1.22 -2.0675,-1.7875 -3.2725,-2.05125 -0.24,-0.29125 -0.56375,-0.61 -1.0025,-0.95125 0.575,-0.0888 1.14375,-0.1975 1.69375,-0.31875 0.06,0.2425 0.15,0.475 0.26375,0.68875 0.29625,0.55375 0.85,0.9225 1.47625,0.9825 l 0.22,0.0213 c 0.33,0.4225 0.8325,0.69125 1.38875,0.7175 l 0.335,0.0163 c 1.6325,0.43 4.22375,1.1025 4.705,1.17875 0.14125,0.0225 0.2875,0.0338 0.435,0.0338 0.52625,0 1.02125,-0.14625 1.38125,-0.29 l 1.085,0 c 1.04125,0 1.79875,-0.6275 2.275,-1.29 0.825,0.18625 2.18,0.53375 2.93125,0.72625 0.37125,0.0962 0.65125,0.1675 0.8675,0.22125 0.0512,0.1075 0.1,0.2025 0.14625,0.27875 0.38875,0.6475 1.0725,1.035 1.82875,1.035 0.58625,0 1.04,-0.23 1.25875,-0.3675 0.64875,-0.40875 0.98375,-1.17125 0.845,-1.92625 -0.0362,-0.19625 -0.235,-1.22 -0.58375,-2.01375 -0.1375,-0.31375 -0.31625,-0.57375 -0.51625,-0.79125 1.7775,-0.0225 6.63375,-0.0912 7.805,-0.17875 0.25375,-0.0187 0.49375,-0.0263 0.7275,-0.0263 0.45875,0 0.91125,0.0288 1.39125,0.06 0.47625,0.03 0.96625,0.06 1.5075,0.07 0.0113,0 0.065,0.001 0.0775,0.001 1.2,0 1.935,-0.51375 2.34,-0.945 0.6275,-0.6675 0.82875,-1.53875 0.81,-2.1625 l 0,-2.165 c 0,-1.48875 -1.23,-2.99 -3.9775,-2.99 l -0.40875,0.005 c -0.27125,0.004 -0.63625,0.009 -1.06125,0.009 -1.18,0 -2.20125,-0.0438 -3.03625,-0.13 -0.51875,-0.0538 -1.06125,-0.0812 -1.61125,-0.0812 -1.57125,0 -2.8875,0.21875 -3.52,0.325 -0.325,0.0538 -0.8,0.0838 -1.33875,0.0838 l -0.0263,0 c -0.7525,-0.335 -1.6375,-0.505 -2.64125,-0.505 -0.7575,0 -1.46,0.0963 -1.96625,0.1775 -0.35375,-0.3675 -0.85125,-0.5925 -1.3625,-0.5925 l -2.35625,0 c -0.82125,0 -1.54875,0.4 -2.0475,1.06375 l -0.38375,0 c -0.70375,0 -1.275,0.25125 -1.70375,0.62375 -4.1175,0.13625 -6.7025,1.11125 -7.99125,1.59875 l -0.23125,0.0862 c -0.87875,0.3275 -1.8475,0.34625 -2.785,0.36375 l -0.3025,0.006 -0.095,10e-4 c -0.3525,0 -0.7525,-0.0412 -1.09625,-0.09 -0.52625,-0.625 -1.2775,-0.975 -2.12625,-0.975 -0.38125,0 -0.72625,0.0725 -0.99875,0.15875 -0.275,10e-4 -0.51,0.0263 -0.68,0.0525 -1.53875,0.03 -2.5075,0.43875 -3.115,0.90875 l -2.25625,0 c -0.29625,-0.004 -1.315,-0.15625 -1.84625,-0.4225 -0.70125,-0.35 -2.30125,-1.1975 -2.935,-1.53375 -0.6112,-0.6024 -2.1287,-1.84865 -4.2112,-1.84865 m 0,1.875 c 1.79875,0 3.065,1.4875 3.065,1.4875 0,0 2.33,1.24125 3.2425,1.6975 0.91125,0.45625 2.28,0.62 2.685,0.62 l 3.09,0 c 0,0 0.27875,-0.91 2.4575,-0.91 0,0 0.2175,-0.0512 0.52625,-0.0512 0.0888,0 0.185,0.004 0.28625,0.015 0,0 0.3225,-0.17375 0.69,-0.17375 0.28375,0 0.5925,0.1025 0.8025,0.46625 l 0.1775,0.335 c 0,0 1.185,0.26375 2.2425,0.26375 0.0462,0 0.0925,0 0.13875,-10e-4 1.08875,-0.025 2.40625,-0.006 3.69875,-0.4875 1.29125,-0.48125 3.92625,-1.58375 8.53625,-1.58375 0,0 0.12625,-0.6075 0.735,-0.6075 l 1.595,0 c 0,0 0.1525,-1.06375 0.83625,-1.06375 l 2.35625,0 c 0,0 0.46,0.68375 0.89125,0.68375 0.26,0 1.29875,-0.26875 2.4375,-0.26875 0.74625,0 1.53625,0.11625 2.1775,0.49625 0,0 0.19625,0.009 0.49,0.009 0.44,0 1.1,-0.0187 1.6475,-0.11 0.68375,-0.11375 1.84875,-0.29875 3.21125,-0.29875 0.45375,0 0.93,0.02 1.4175,0.0712 1.115,0.11625 2.30875,0.14 3.23,0.14 0.69125,0 1.23125,-0.0137 1.47,-0.0137 0.55625,0 2.1025,0.12625 2.1025,1.115 l 0,2.20375 c 0,0 0.0738,1.19375 -1.275,1.19375 -0.015,0 -0.0287,0 -0.0425,-0.001 -1.085,-0.02 -1.95625,-0.13 -2.93375,-0.13 -0.2775,0 -0.56375,0.009 -0.86625,0.0312 -1.3675,0.10125 -8.33375,0.1825 -8.33375,0.1825 l -0.27875,-0.345 c 0,0 -1.165,0.60125 -2.33125,0.60125 -0.9875,0 -1.48375,-0.255 -1.84375,-0.255 -0.065,0 -0.125,0.008 -0.1825,0.0275 -0.38,0.12625 -0.86125,0.74625 -0.86125,0.74625 l -0.88625,0 -0.355,0.8625 c 0,0 0.3525,-0.0512 0.7925,-0.0512 0.49,0 1.09,0.0625 1.4375,0.33 0.6575,0.50625 2.81125,0.76 2.81125,0.76 0,0 0.88625,0.1025 1.165,0.73625 0.27875,0.6325 0.45625,1.59875 0.45625,1.59875 0,0 -0.1275,0.0788 -0.26,0.0788 -0.0813,0 -0.16375,-0.0287 -0.22125,-0.125 -0.1525,-0.25375 -0.33,-0.9275 -0.76,-1.00375 -0.4225,-0.075 -4.73375,-1.24875 -5.29,-1.24875 -0.0113,0 -0.0213,0 -0.03,10e-4 -0.405,0.05 -0.6325,0.13875 -0.735,0.4175 -0.1,0.27875 -0.50625,0.9875 -1.0125,0.9875 l -1.495,0 c 0,0 -0.51625,0.29 -0.97125,0.29 -0.0488,0 -0.0963,-0.004 -0.1425,-0.0113 -0.48125,-0.075 -4.7125,-1.19 -4.7125,-1.19 l -0.53125,-0.025 -0.2025,-0.6075 -1.3175,-0.125 c 0,0 -0.405,-0.7575 0.2025,-1.18875 l 1.19,0.13125 c 0,0 0.10125,-0.395 0.33,-0.395 l 0.785,0.145 2.73625,-0.12625 0.10125,-0.24125 0.5575,0 0.15125,-0.2525 0.25375,-0.1275 c 0,0 0.10125,-1.06375 -0.025,-1.29125 0,0 -0.04,-10e-4 -0.1125,-10e-4 -0.58375,0 -3.31875,0.04 -5.2325,0.76125 -1.97125,0.74125 -4.96125,1.4625 -7.41625,1.4625 -0.22625,0 -0.44875,-0.006 -0.665,-0.0187 0,0 1.01375,2.22875 1.62125,2.60875 0.6075,0.38 1.7225,1.21625 1.7225,1.6975 0,0 2.33,0.27875 2.78625,1.19125 0,0 0.2025,0.58375 0.45625,0.685 0.25375,0.10125 0.5825,0.28 0.5825,0.58375 0,0 0.5825,0.4075 0.33,0.965 -0.14875,0.325 -0.31375,0.39375 -0.42625,0.39375 -0.0787,0 -0.13125,-0.035 -0.13125,-0.035 l -0.45625,1.30125 c 0,0 0.43,0.45 0.25375,0.93125 -0.1775,0.48125 -0.735,0.545 -0.735,0.545 l -0.30375,0.30375 -0.86125,0 -0.81125,2.96375 c 0,0 0.5075,0.38 0.38,0.88625 -0.12625,0.50625 -0.65875,0.63375 -0.65875,0.63375 l -0.48125,1.82375 31.36125,15.38875 c 0,0 7.94125,2.77375 12.15875,3.04 l 0.15125,-0.7225 c 0,0 -0.645,-0.30375 -0.53125,-0.9875 0.11375,-0.68375 0.34125,-1.40625 0.34125,-1.40625 l 0.3425,-0.2275 0.83625,0.0763 2.58375,-11.59 -0.68375,-0.455 0.265,-1.1025 c 0,0 -1.67125,-0.53375 -1.9525,-0.53375 -0.009,0 -0.0162,0 -0.0225,0.001 -0.015,0.004 -0.03,0.005 -0.0463,0.005 -0.1925,0 -0.49125,-0.22875 -1.0175,-1.10625 -0.57,-0.95 -1.78625,-2.28 -2.58375,-2.6975 -0.79875,-0.41875 -2.92625,-1.21625 -2.92625,-1.8625 0,-0.645 -0.18875,-3.99 4.02875,-3.99 0,0 3.1925,0.115 4.675,0.79875 0,0 2.1925,-0.41875 4.5275,-0.41875 0.89,0 1.8,0.0612 2.61875,0.22875 0,0 2.24625,-0.3625 4.4825,-0.3625 1.3875,0 2.77125,0.14 3.615,0.59 0,0 2.02375,2.39375 2.02375,6.1175 0,0 0.1325,1.78625 -3.40125,2.4325 l -0.20875,0.57 0.285,0.2275 0,1.02625 c 0,0 -0.99125,0.8 -2.3975,0.8 -0.67125,0 -1.43875,-0.18375 -2.23875,-0.72375 l -2.58375,0 c 0,0 -0.49375,1.63625 -2.355,1.63625 l -1.40625,-0.18875 -2.43125,11.51875 3.00125,1.0725 -0.49375,1.615 -0.79875,-0.11375 -0.34125,0.41875 -1.1025,0 -0.38,-0.3425 -0.34125,0.0375 -0.60875,2.69875 5.01625,6.45875 c 0,0 7.15625,-8.57375 16.4775,-8.57375 9.3225,0 23.15375,8.08 23.15375,33.4625 l -1.03875,-10e-4 c 0.175,3.27 0.09,6.6025 -0.34,10.0825 -2.44125,19.78 -14.2925,34.785 -27.00375,34.785 -0.65625,0 -1.315,-0.04 -1.975,-0.12125 -7.89625,-0.975 -14.195,-7.665 -17.52625,-17.23875 l -0.145,0.004 -0.4175,0 -0.41875,-0.0763 -0.34125,0.11375 -0.19,-0.0375 -0.3425,0 -0.26625,0.0763 -0.2275,0.0375 -0.5325,-0.0763 c -0.4175,0.19 -1.1775,0.60875 -1.1775,0.60875 -0.19,1.025 -1.29125,5.015 -1.59625,6.0025 -0.30375,0.98875 -0.49375,3.34375 -0.49375,3.34375 l 1.33,0.22875 0.19,0.19 0.4175,-0.22875 0.5325,-0.57 6.80125,1.55875 0,2.85 c -1.3675,0.645 -4.2175,0.835 -4.2175,0.835 l -7.56125,-1.63375 -0.30375,-0.45625 c -1.44375,-0.76 0.0375,-4.2175 0.0375,-4.2175 0.95,-3.00125 1.63375,-7.56125 1.63375,-7.56125 -1.67125,-0.34125 -2.735,-1.86125 -2.925,-1.9375 -0.19,-0.0763 -0.3425,-0.1525 -0.38,-0.38 -0.0388,-0.2275 -0.22875,-0.26625 -0.45625,-0.45625 -0.2275,-0.19 -0.5325,-0.38 -0.45625,-0.64625 0.0762,-0.265 0.0375,-0.38 -0.11375,-0.53125 -0.1525,-0.1525 -0.26625,-0.3425 -0.30375,-0.60875 -0.0387,-0.265 -0.19,-0.53125 -0.305,-0.68375 -0.11375,-0.15125 -0.075,-0.645 -0.075,-0.91125 0,-0.26625 -0.1525,-0.41875 -0.3425,-0.68375 -0.19,-0.26625 0.0762,-0.64625 -0.0375,-0.9125 -0.11375,-0.26625 -0.025,-0.86125 -0.025,-0.86125 -0.1875,0.0413 -0.35625,0.06 -0.5075,0.06 -0.96375,0 -1.26625,-0.71875 -1.26625,-0.71875 l -1.6712,-0.30395 c -1.925,-0.5575 -0.355,-3.445 -0.25375,-3.90125 0.10125,-0.455 0.38125,-2.5575 0.38125,-2.5575 l -28.42,-48.86375 -1.1375,3.8775 0.31,0.76375 -2.04,7.75875 c 17.935,15.95875 15.83125,36.035 15.90625,37.555 0.0263,0.51375 -0.16,0.68375 -0.41625,0.68375 -0.50375,0 -1.28375,-0.655 -1.28375,-0.655 l -0.50625,-0.0438 c 0.0962,4.06125 -0.24625,8.26 -1.07,12.50625 -4.395,22.65375 -20.99875,38.90375 -38.5425,38.90375 -1.79125,0 -3.58875,-0.16875 -5.38875,-0.5175 -19.41875,-3.7675 -31.23375,-27.06125 -26.39,-52.02875 4.395,-22.65375 20.99875,-38.90375 38.5425,-38.90375 1.79125,0 3.58875,0.16875 5.38875,0.5175 l 0.53875,-1.19875 c 0,0 -3.01875,-0.7475 -3.83375,-0.7475 -0.02,0 -0.0375,0 -0.055,10e-4 0,0 -0.2125,-0.0113 -0.58625,-0.0113 -1.29375,0 -4.52375,0.12625 -7.58875,1.24625 0,0 -0.83,0.065 -1.89375,0.065 -0.80875,0 -1.75375,-0.0375 -2.575,-0.16875 -1.89875,-0.30375 -3.6775,-0.545 -3.6775,-0.545 0,0 4.545,-3.425 17.08375,-3.50125 0,0 -0.265,-1.215 0.7075,-1.215 0.015,0 0.03,0 0.045,10e-4 0,0 0.13,-0.20125 0.36375,-0.20125 0.14375,0 0.3275,0.0763 0.545,0.3225 0,0 0.64375,0.5875 0.1875,1.31 l 1.67125,0.53125 0.56875,-1.06375 -0.9125,0 c 0,0 -0.6075,-0.22875 -0.6075,-0.7225 0,0 0.17125,-0.68375 0.74125,-0.68375 l 1.00625,-0.0762 0,-0.4175 0.1525,-0.3425 0,-0.4175 0.4175,-0.22875 c 0,0 0.60875,-3.53375 1.02625,-4.14125 0,0 0.285,-0.0375 0.76,-0.0375 0.475,0 1.14,0.0375 1.9,0.19 0,0 0.0312,0.001 0.0875,0.001 0.4525,0 2.55125,-0.09 3.5975,-1.71125 0,0 -0.72125,-0.79875 0.3425,-1.40625 l 3.91375,-14.6662 c 0,0 -0.38,-0.305 -0.30375,-0.5325 0.0763,-0.2275 0.2275,-0.57 0.2275,-0.57 l 0.60875,-0.4175 0.76,-3.30625 -1.21625,-0.7225 -3.87625,-8.055 -1.025,-0.34125 -0.5325,-0.57 -0.0375,-0.38 -3.5725,-0.0763 c 0,0 -4.18,-0.60875 -5.88875,-1.78625 l -2.09,1.40625 -0.38,-0.0387 -0.495,-0.53125 -2.46875,1.9 -0.22875,0.49375 -1.97625,0.91125 c 0,0 -0.91125,-0.11375 -1.06375,-0.72125 0,0 -1.25375,0.7225 -1.51875,1.10125 l -0.875,-0.9875 c 0,0 0.98875,-1.1775 2.4325,-1.595 0,0 1.06375,-0.64625 1.3675,-0.84875 0.27875,-0.18625 0.43,-0.54125 0.8425,-0.54125 0.0375,0 0.0775,0.003 0.12,0.01 l 0.5325,-0.405 -0.0763,-0.17625 c 0,0 0.38,-0.60625 0.9875,-0.935 0,0 -0.48125,-0.68 -0.455,-1.3125 0.025,-0.63375 1.19,-2.0675 2.98875,-2.0675"
         id="path3452"
         style="fill:#231f20;fill-opacity:1;fill-rule:nonzero;stroke:none" />
      <path
         d="m 570.12705,581.25233 c 4.93125,-5.82875 9.29625,-8.2075 12.775,-8.87 l 3.01375,-0.5075 3.6225,1.3175"
         id="path3456"
         style="fill:none;stroke:#231f20;stroke-width:0.625;stroke-linecap:butt;stroke-linejoin:miter;stroke-miterlimit:4;stroke-dasharray:none;stroke-opacity:1" />
      <path
         d="m 559.7808,610.64021 c 0.7375,-6.51 2.90125,-19.4075 8.915,-27.59375"
         id="path3460"
         style="fill:none;stroke:#231f20;stroke-width:0.625;stroke-linecap:butt;stroke-linejoin:miter;stroke-miterlimit:4;stroke-dasharray:none;stroke-opacity:1" />
      <path
         d="m 559.42568,614.68546 c 0,0 0.0537,-1.15125 0.24875,-3.05875"
         id="path3464"
         style="fill:none;stroke:#231f20;stroke-width:0.625;stroke-linecap:butt;stroke-linejoin:miter;stroke-miterlimit:4;stroke-dasharray:none;stroke-opacity:1" />
      <path
         d="m 512.04818,579.09633 -1.6075,5.3625 -0.47375,-0.2125 -6.2925,23.4525 c 0,0 -0.9675,2.93625 -1.47375,4.15125 -0.50625,1.21625 -2.89,8.56125 -2.94125,10.385 l -0.60875,1.64625 -0.7225,0.30375 c 0,0 -0.115,1.0225 -1.97625,0.90875 l 0.15125,-0.38375 -0.95,0 c 0,0 -0.72125,-0.1875 -0.72125,-1.70625 0,0 0.15125,-1.3475 1.06375,-1.5375 0,0 0.7975,-1.14875 1.33,-1.52875 l 1.44375,-5.1525 c 0,0 0.68375,-3.16625 0.95,-4.875 0.26625,-1.71 0.91125,-4.8325 1.1775,-5.63 0.26625,-0.7975 3.87625,-14.5175 3.87625,-14.5175 0,0 -0.30375,-1.52125 -2.28,-2.1675 l -0.9875,-0.22875 c 0,0 -1.02625,-0.45625 -1.25375,-0.98875 0,0 -0.5325,-0.49375 -0.5325,-1.1775 0,0 0.0375,-0.38 0.76,-0.76 0,0 0.49375,-0.79875 0.57,-1.44375 0.0763,-0.64625 0.49375,-2.60125 0.91125,-3.24625 0.41875,-0.64625 2.69875,-5.04 2.09,-7.54 l -2.01375,0 -0.64625,-0.23125 0.3425,-1.36875 c 0,0 1.52,-0.26625 1.82375,0.075 l 0.87375,0.2275 c 0,0 0.95,0.3425 0.95,0.49375 0,0.1525 -0.0762,0.57 -0.0762,0.57 0,0 -0.11375,3.91375 -1.9375,8.7775 0,0 0.0375,0.79875 0.30375,0.98875 l 0.7225,0.11375 c 0,0 0.49375,0.47875 0.30375,0.935 -0.19,0.455 -0.64625,0.66875 -0.64625,0.66875 l -0.7975,0 -0.3425,0.64125 -0.34125,0.075 0.0375,0.32125 0.76,0.16125 c 0,0 0.76,-0.09 1.06375,-0.69875 0.305,-0.6075 0.79875,-2.2875 0.98875,-3.54125 0.19,-1.25375 0.53125,-5.62625 -0.22875,-6.53875"
         id="path3468"
         style="fill:none;stroke:#231f20;stroke-width:0.625;stroke-linecap:butt;stroke-linejoin:miter;stroke-miterlimit:4;stroke-dasharray:none;stroke-opacity:1" />
      <path
         d="m 505.56493,570.38071 c 0,0 2.01375,0.95 2.1275,4.29375 l 1.1025,-4.25625 0.68375,-0.9875 c 0,0 -0.0213,-0.76125 -0.0763,-1.25375 -0.0512,-0.4625 -2.42375,-0.56 -3.6475,0.49375 l -0.19,1.71 z"
         id="path3472"
         style="fill:none;stroke:#231f20;stroke-width:0.625;stroke-linecap:butt;stroke-linejoin:miter;stroke-miterlimit:4;stroke-dasharray:none;stroke-opacity:1" />
      <path
         d="m 560.43293,617.53533 25.445,-6.13625 1.07,-1.94625 -19.70125,-28.49375 -3.85,0 0.65875,1.98125 c 0,0 -0.9625,1.28125 -1.3175,2.04125"
         id="path3476"
         style="fill:none;stroke:#231f20;stroke-width:1.875;stroke-linecap:butt;stroke-linejoin:miter;stroke-miterlimit:4;stroke-dasharray:none;stroke-opacity:1" />
      <path
         d="m 565.98043,579.70971 -2.8875,0 -1.06375,-5 0.455,0 3.49625,5 z"
         id="path3480"
         style="fill:none;stroke:#231f20;stroke-width:1.875;stroke-linecap:butt;stroke-linejoin:miter;stroke-miterlimit:4;stroke-dasharray:none;stroke-opacity:1" />
      <path
         d="m 564.0553,582.97046 c 0,0 1.01375,-1.495 1.43125,-1.9125"
         id="path3484"
         style="fill:none;stroke:#231f20;stroke-width:0.625;stroke-linecap:butt;stroke-linejoin:miter;stroke-miterlimit:4;stroke-dasharray:none;stroke-opacity:1" />
      <path
         d="m 555.1893,631.06233 c 0,0 0.45625,-3.30625 0.30375,-4.25625 0,0 -0.0763,-1.48125 0.2275,-2.165 0.305,-0.68375 1.9,-4.25625 0.0763,-4.75 -1.82375,-0.49375 -2.3175,1.9 -2.3175,1.9 l -0.83625,2.73625 c 0,0 0.19,4.71125 -0.49375,6.915"
         id="path3488"
         style="fill:none;stroke:#231f20;stroke-width:0.625;stroke-linecap:butt;stroke-linejoin:miter;stroke-miterlimit:4;stroke-dasharray:none;stroke-opacity:1" />
      <path
         d="m 556.78518,615.36946 -0.30375,1.63375 c 0,0 0.7975,4.7875 0.68375,7.0675 0,0 0.15125,0.87375 0.38,1.40625"
         id="path3492"
         style="fill:none;stroke:#231f20;stroke-width:0.625;stroke-linecap:butt;stroke-linejoin:miter;stroke-miterlimit:4;stroke-dasharray:none;stroke-opacity:1" />
      <path
         d="m 554.60943,614.17196 -0.63625,1.92 c 0,0 -2.1275,5.09125 -4.9775,5.12875"
         id="path3496"
         style="fill:none;stroke:#231f20;stroke-width:0.625;stroke-linecap:butt;stroke-linejoin:miter;stroke-miterlimit:4;stroke-dasharray:none;stroke-opacity:1" />
      <path
         d="m 556.59518,616.31933 c 0,0 2.3175,3.0775 0.57,7.75125"
         id="path3500"
         style="fill:none;stroke:#231f20;stroke-width:0.625;stroke-linecap:butt;stroke-linejoin:miter;stroke-miterlimit:4;stroke-dasharray:none;stroke-opacity:1" />
      <path
         d="m 550.13568,620.91708 c 0,0 3.42,-3.34375 3.42,-5.43375 0,-2.09 -2.77375,0.68375 -2.77375,0.68375"
         id="path3504"
         style="fill:none;stroke:#231f20;stroke-width:0.625;stroke-linecap:butt;stroke-linejoin:miter;stroke-miterlimit:4;stroke-dasharray:none;stroke-opacity:1" />
      <path
         d="m 549.22368,624.60283 c 0,0 1.63375,-0.64625 3.38125,-0.0763"
         id="path3508"
         style="fill:none;stroke:#231f20;stroke-width:0.625;stroke-linecap:butt;stroke-linejoin:miter;stroke-miterlimit:4;stroke-dasharray:none;stroke-opacity:1" />
      <path
         d="m 486.59168,622.69021 c 0,0 -1.21625,-0.45625 -1.21625,-1.52 0,-1.06375 2.23,-2.78625 2.23,-2.78625 0,0 1.51875,-4.66125 1.67125,-5.775 0.1525,-1.115 0.9625,-5.8775 1.3175,-6.94125 0.355,-1.06375 4.4575,-16.16125 4.4575,-16.16125 l -0.05,-0.71 0.10125,-1.82375 c 0,0 -2.93875,-0.2525 -2.58375,-2.22875 0,0 0.30375,-1.01375 1.21625,-0.86125 l 0.405,-1.115"
         id="path3512"
         style="fill:none;stroke:#231f20;stroke-width:0.625;stroke-linecap:butt;stroke-linejoin:miter;stroke-miterlimit:4;stroke-dasharray:none;stroke-opacity:1" />
      <path
         d="m 499.7513,586.37758 -5.155,19.1375 c 0,0 -0.86125,2.88875 -1.62125,4.61125 -0.76,1.7225 -2.58375,8.51125 -2.58375,8.51125 l -0.245,0.26125"
         id="path3516"
         style="fill:none;stroke:#231f20;stroke-width:0.625;stroke-linecap:butt;stroke-linejoin:miter;stroke-miterlimit:4;stroke-dasharray:none;stroke-opacity:1" />
      <path
         d="m 496.1238,620.45358 c -0.26125,-0.26 -0.57625,-0.43875 -0.93375,-0.50875 -1.24,-0.24 -2.51,0.93 -2.83625,2.61375 -0.3275,1.68375 0.41375,3.2425 1.6525,3.48375 0.81375,0.1575 1.64,-0.29125 2.20375,-1.09375"
         id="path3520"
         style="fill:none;stroke:#231f20;stroke-width:0.625;stroke-linecap:butt;stroke-linejoin:miter;stroke-miterlimit:4;stroke-dasharray:none;stroke-opacity:1" />
      <path
         d="m 492.18993,623.42483 c 0,0 -1.3625,-0.53375 -3.07625,0.22875 -0.225,0.0925 -0.415,0.115 -0.65125,0.0688 -0.83875,-0.1625 -1.34,-1.21875 -1.11875,-2.35875 0.22125,-1.13875 1.08,-1.93125 1.92,-1.76875 0.23125,0.045 0.48125,0.1775 0.6525,0.34125 0,0 0.72875,0.80375 1.46375,0.98125 0.73375,0.1775 1.44375,0.35375 1.44375,0.35375"
         id="path3524"
         style="fill:none;stroke:#231f20;stroke-width:0.625;stroke-linecap:butt;stroke-linejoin:miter;stroke-miterlimit:4;stroke-dasharray:none;stroke-opacity:1" />
      <path
         d="m 555.35705,611.77558 0.625,-0.16625 0.44,-0.15875 0.6,-0.055 0.45125,-0.1025 0.3025,-0.1125 0.30125,-0.22125 0.45625,0 0.30375,-0.0288 0.36125,0.0288 0.24625,0 0.2475,0 0.3225,-0.28375 0.3425,-0.0275 c 0,0 0.34125,-0.16625 0.39875,-0.185 0.0575,-0.0187 0.3425,-0.055 0.3425,-0.055 l 0.2275,-0.0275 0.26625,-0.13625 0.2275,-0.305 0.285,-0.23 0.22875,0 0.2275,-0.0375 0.2275,0.0375 0.305,0 0.34125,0.11375 0.19,-0.1325 0.17125,0.0188 0.36125,0 0.1325,0 0.19,-0.0475 c 0,0 0.1325,0.0475 0.20875,0.0475 l 0.38,0 0.095,0 0.285,0 0.22875,0 0.24625,-0.21 0.20875,-0.12375 0.285,-0.20375 0.22875,-0.0362 0.34125,-0.0275 0.17125,-0.08 0.3225,-0.1925 0.285,0.0187 0.26625,-0.0575 0.32375,-0.19 0.2275,-0.0387 0.30375,0.0375 0.22875,-0.11375 0.28375,-0.0763 0.19125,0.02 0.3225,-0.0575 0.2275,-0.1325 0.26625,0.0375 0.19,-0.0375 0.19,-0.095 0.19,-0.13375 0.30375,-0.0375 0.19,0.0562 0.22875,-0.11375 0.19,-0.11375 0.285,-0.0375 0.265,-0.21375 0.2475,-0.3475 0.285,0 0.24625,0.185 0.32375,-0.0875 0.45625,-0.13875 0.3225,0.006 0.20875,-0.1775 0.39875,-0.0125 0.26625,-0.0725 c 0,0 0.2475,-0.15 0.30375,-0.15 0.0575,0 0.57,-0.0375 0.57,-0.0375 0,0 0.17125,-0.11375 0.22875,-0.11375 0.0563,0 0.26625,-0.0563 0.36,-0.0563 0.0962,0 0.3425,-0.23125 0.45625,-0.26875 0.11375,-0.0388 0.26625,-0.32625 0.26625,-0.32625 l 0.30375,0 0.1525,0.0675 0.2275,-0.0675 0.38,0 0.285,0.0512 c 0,0 0.13375,-0.08 0.19,-0.08 0.0575,0 0.4375,-0.0213 0.4375,-0.0213 l 0.24625,0.045 0.32375,0.005 0.34125,0 0.17125,-0.23375 c 0,0 0.19,-0.175 0.2475,-0.19375 0.0563,-0.0188 0.43625,-0.41125 0.49375,-0.43 0.0563,-0.0187 0.30375,-0.3925 0.30375,-0.3925 l 0.45625,0 0.17125,0 c 0,0 0.1325,0.0862 0.2275,0.0675 0.095,-0.0188 0.2475,0.0712 0.3225,0.0712 0.0762,0 0.2475,0.0362 0.2475,0.0362 l 0.17125,-0.01 0.19,-0.0812 0.34125,-0.14625"
         id="path3528"
         style="fill:none;stroke:#231f20;stroke-width:1.875;stroke-linecap:butt;stroke-linejoin:miter;stroke-miterlimit:4;stroke-dasharray:none;stroke-opacity:1" />
      <path
         d="m 583.73468,605.50921 -0.35625,0.0925 -0.39375,0.3575 -0.285,0 -0.41875,0 -0.39875,0 -0.36125,0.165 c 0,0 -0.17125,0.12 -0.26625,0.12 -0.095,0 -0.43625,0.0312 -0.43625,0.0312 l -0.30375,0.15875 c 0,0 -0.17125,0.0412 -0.26625,0.06 -0.095,0.0188 -0.285,0.02 -0.285,0.02 l -0.20875,0.13375 -0.38,0.0762 c 0,0 -0.17125,10e-4 -0.22875,0.0575 -0.0562,0.0575 -0.24625,0.19 -0.3225,0.20875 -0.0763,0.02 -0.1325,0.0388 -0.26625,0.0388 -0.1325,0 -0.3225,-0.0763 -0.38,-0.0763 -0.0562,0 -0.17125,0.20875 -0.26625,0.2275 -0.095,0.02 -0.37875,0.02 -0.37875,0.02 l -0.305,0.11375 -0.34125,0.17125 -0.2475,-0.0575 c 0,0 -0.20875,0.095 -0.285,0.13375 -0.0763,0.0375 -0.30375,0.15125 -0.38,0.15125 -0.0763,0 -0.30375,0.0188 -0.30375,0.0188 l -0.3425,0.44 -0.38,0.2875 -0.30375,0 -0.20875,-0.0475 -0.475,0.0475 -0.39875,0 -0.17125,0 -0.4175,0 c 0,0 -0.17125,-0.0788 -0.22875,-0.04 -0.0563,0.0375 -0.36,0.1875 -0.36,0.1875 0,0 -0.32375,0.01 -0.41875,0.01 -0.095,0 -0.285,-0.0975 -0.285,-0.0975 0,0 -0.24625,-0.06 -0.30375,-0.06 l -0.2275,0 -0.285,0.16875 -0.17125,0.32125 c 0,0 -0.36125,0.0662 -0.4175,0.0662 -0.0575,0 -0.22875,0.0613 -0.22875,0.0613 l -0.17125,0.335 -0.3225,0.2975 -0.5325,0 -0.17,-0.0575 -0.38,-0.0287 -0.22875,-0.0338 -0.285,0.12625 -0.4175,0.025 -0.285,0.0312 -0.1325,0.12875 -0.45625,0.0375 -0.26625,0.0562 c 0,0 -0.19,-0.11375 -0.2475,-0.095 -0.0563,0.0187 -0.24625,-0.19 -0.3225,-0.19 l -0.1525,0 -0.34125,0.3225 -0.32375,0.19875 -0.36,0.1 -0.4,0.20125 -0.30375,0.035 -0.36,0.0263 -0.3425,0.15625 -0.36125,0.0588 -0.3225,0.0662 -0.30375,0.085 -0.22875,0 -0.5125,0.23 -0.49375,0.11375 -0.45625,0.02 -0.36125,0.19 -0.43625,0.0187 c 0,0 -0.13375,0.1325 -0.21,0.1525 -0.075,0.0187 -0.49375,0.0562 -0.49375,0.0562 l -0.38,0.11375 c 0,0 -0.24625,0.115 -0.30375,0.115 -0.0575,0 -0.26625,-0.0387 -0.36125,0 -0.095,0.0375 -0.17125,0.095 -0.2275,0.1325 -0.0575,0.0375 -0.285,0.11375 -0.36125,0.1325 -0.0763,0.02 -0.58875,0.0388 -0.58875,0.0388"
         id="path3532"
         style="fill:none;stroke:#231f20;stroke-width:1.875;stroke-linecap:butt;stroke-linejoin:miter;stroke-miterlimit:4;stroke-dasharray:none;stroke-opacity:1" />
      <path
         d="m 560.81918,620.36296 25.93625,-7.81 c 0,0 0.29,1.43625 1.86625,0.63875 l 0.25875,0.025 c 0,0 -0.44,1.75125 0.81375,1.75125 0,0 0.85375,0.02 1.23375,-0.66375 l 0.455,-0.17 0.0375,0.20875 -0.13375,0.32375 -0.26625,0.53125 -2.47,1.14 -1.12,0.64625 -0.665,0.4375 -2.48875,-0.285 -1.065,-0.0388 -0.455,0.4375 c 0,0 -0.49375,-0.0187 -0.49375,0.30375 0,0.3225 0,0.4375 -0.19,0.38 -0.19,-0.0575 -0.51375,-0.0187 -0.51375,-0.0187 l -0.96875,1.21625 -0.0763,0.265 c 0,0 -0.19,-0.11375 -0.26625,0.0188 -0.075,0.13375 0.305,0.60875 0.57,0.76 l -0.1325,0.2475 -0.1325,0.0375 -0.22875,0.32375 -0.19,0.0762 c 0,0 -0.20875,0.2275 -0.34125,0.11375 -0.13375,-0.11375 -0.17125,-0.32375 -0.305,-0.2475 -0.1325,0.0762 -0.3225,0.5325 -0.47375,0.475 -0.1525,-0.0562 -0.26625,-0.0562 -0.26625,-0.0562 0,0 -0.095,0.17 -0.1525,0.4175 -0.0562,0.2475 -0.15125,0.4175 -0.3225,0.38 -0.17125,-0.0375 -0.26625,0.0375 -0.26625,0.30375 0,0.26625 0,0.6275 -0.1525,0.8175 -0.15125,0.19 -0.1325,0.24625 -0.15125,0.49375 -0.0187,0.2475 0.0375,0.30375 -0.20875,0.49374 -0.2475,0.19 -0.57,0.36125 -0.60875,0.74125 -0.0375,0.38 -0.1325,1.68125 0.7225,2.68875 l -0.285,0.6925 -0.2475,0 -0.30375,0 -0.30375,-0.37 -0.32375,-0.2325 -0.265,-0.17375 c 0,0 -0.475,0.10375 -0.5325,0.10375 -0.0562,0 -0.30375,-0.0913 -0.30375,-0.0913 l -0.4375,0.15375 -0.285,-0.0275 c 0,0 -0.1325,-0.08 -0.19,-0.0412 -0.0563,0.0375 -0.24625,0.13 -0.30375,0.14875 -0.0562,0.02 -0.36125,0.0187 -0.36125,0.0187 l -0.30375,0.20875 -0.39875,0.3025 -0.39875,0 -0.4375,0 -0.36,0 c 0,0 -0.19,-0.19 -0.2475,-0.15125 -0.0575,0.0375 -0.3425,0.0663 -0.3425,0.0663 l -0.55,-0.0337 -0.305,0.11876 -0.34125,0 -0.45625,0 c 0,0 -0.4175,0.0288 -0.475,0.0288 -0.0563,0 -0.36125,0.0712 -0.36125,0.0712 l -0.53125,0.0738 -0.3425,0.0175 -0.30375,0.1325 -0.3225,-0.0763 -0.41875,0.0763 -0.20875,0.0562 -0.3425,0.33125 -0.43625,0.53875 -0.36125,0 -0.4175,-0.0275 -0.4375,0.0275 -0.34125,0 -0.38,0 -0.4,0 -0.38,-0.1775 -0.30375,-0.09 c 0,0 -0.4175,-0.14 -0.5125,-0.14 -0.095,0 -0.4175,-0.0225 -0.4175,-0.0225 l -0.305,0.0563 c 0,0 0,0.0275 -0.34125,0.0275 -0.3425,0 -0.665,0.0138 -0.665,0.0138 l -0.45625,0.0537 c 0,0 -0.1525,0.0187 -0.2275,0.0375 -0.0763,0.0188 -0.3425,0.0375 -0.3425,0.0375 l -0.4175,0.0937 -0.285,-0.0187 -0.2475,0.11375 -0.20875,0.0387 -0.57,-0.0387"
         id="path3536"
         style="fill:none;stroke:#231f20;stroke-width:1.875;stroke-linecap:butt;stroke-linejoin:miter;stroke-miterlimit:4;stroke-dasharray:none;stroke-opacity:1" />
      <path
         d="m 559.03305,630.95971 0.71625,0 0.475,0 0.43625,0 0.22875,-0.29 c 0,0 0.1325,-0.25 0.2275,-0.25 0.095,0 0.38,-0.0875 0.38,-0.0875 l 0.20875,0.0237 0.26625,-0.075 0.19,-0.0837 0.3425,-0.0238 0.265,0.4125 c 0,0 0.17125,0.37375 0.2475,0.37375 l 0.38,0 c 0,0 0.1325,-0.42375 0.19,-0.4425 0.0575,-0.0187 0.17125,-0.34501 0.17125,-0.34501 l 0.34125,-0.20124 0.4375,-0.0438 0.2275,-0.10625 0.2475,-0.0537 0.4175,0.0113 0.22875,-0.006 0.15125,-0.0625 0.32375,0 0.3225,-0.008 0.26625,-0.20375 0.43625,0.0125 0.21,0.0538 0.2275,-0.0962 0.34125,-0.0775 0.26625,0.0575 0.2475,-0.11499 0.19,-0.0763 0.285,0.0575 0.19,0.26375 0.285,0.13125 0.26625,0 0.3225,0 0.24625,0 0.19125,-0.35 0.30375,-0.165 0.2275,-0.045 0.1325,-0.0687 0.1525,-0.11125 0.19,-0.0275 0.38,0.0725 0.26625,0.28125 0.2275,0.41375 0.20875,0 0.285,-0.425 0.21,-0.35625 0.20875,-0.13875 0.39875,-0.0138 0.17125,-0.13875 0.19,-0.0888 0.24625,0.0312 0.22875,0.0725 0.2275,-0.0575 0.1325,-0.0962 0.32375,-0.0763 0.285,0.075 0.2275,-0.15125 0.3425,-0.0575 0.24625,0.0575 0.2475,-0.11375 c 0,0 0.2275,-0.095 0.285,-0.095 0.0575,0 0.3225,0.075 0.3225,0.075 0,0 0.13375,-0.075 0.19,-0.075 0.0575,0 0.26625,-0.095 0.26625,-0.095 l 0.2475,0.0187 0.15125,0.095 0.1525,0.0188 0.095,0.93125 c 0,0 1.02625,0.55 1.615,0.265 0,0 0.2525,-1.1075 0.68375,-1.4875 0.43,-0.38 1.21625,-0.71 1.0125,-1.79875 0,0 0.10125,-0.68376 0.305,-1.03875 0.2025,-0.355 0.15125,-0.60751 -0.0263,-0.81 -0.1775,-0.2025 0.0513,-0.5575 0.0513,-0.5575 0,0 0.27875,-0.1775 0.1775,-0.45625 -0.10125,-0.27875 0.05,-1.01375 0.05,-1.01375 l 0.33,0.1275 c 0,0 0.2525,0.50625 0.43,0.48125 0.1775,-0.025 0.33,-0.2025 0.45625,-0.0762 0.12625,0.12625 0.33,0.30375 0.405,0.12625 0.0763,-0.1775 0.2025,-0.45625 0.40625,-0.405 0.2025,0.0512 0.32875,0.0512 0.35375,-0.2275 0.0262,-0.27875 0.10125,-0.30375 0.25375,-0.5075 0.1525,-0.2025 0.38,-0.6325 0.38,-0.6325 0,0 0.405,0.0762 0.48125,-0.10125 0.0763,-0.1775 0.63375,-0.9625 0.63375,-0.9625 0,0 0.9625,0.2275 1.3425,0.2275 l 0.38,0.45625 c 0,0 1.165,-0.22875 1.29125,-0.81125 l -0.30375,-0.50625 0.1775,-0.1775 0.30375,-0.05 0.2275,-0.22875 0.10125,-0.27875 0.48125,-0.15125 0.0762,0.50625 0.33,0.12625 c 0,0 0.075,0.45625 0.30375,0.48125 0.2275,0.0263 0.30375,0.1775 0.45625,0.27875 0.15125,0.10125 0.455,0.25375 0.5825,0.1525 0.12625,-0.10125 0.5825,-0.6075 0.5825,-0.6075 l 0.65875,-0.1525 0.35375,0.12625 0.38,-0.2525 -0.10125,-2.0775 1.77375,-1.09 0.30375,-0.5825 0.25375,-0.455 -0.81125,-1.36875 -0.86125,-0.2025 -0.76,0.025 -0.35375,0.1275 -0.63375,-0.1775 -0.1525,-1.03875 c 0,0 -0.17625,-0.405 -0.48125,-0.405 -0.30375,0 -1.925,0.70875 -1.925,0.70875 l -0.25625,-0.38 c 0,0 0.9925,-1.3675 -0.2575,-1.82375 l 0,-1.21625 -1.82,-1.0125 -17.6925,-26.9525 -2.8075,-2.8825"
         id="path3540"
         style="fill:none;stroke:#231f20;stroke-width:1.875;stroke-linecap:butt;stroke-linejoin:miter;stroke-miterlimit:4;stroke-dasharray:none;stroke-opacity:1" />
      <path
         d="m 583.9768,605.27458 c -1.14125,1.03375 -2.02875,2.8575 -2.295,5.01125 -0.09,0.7325 -0.10125,1.445 -0.0437,2.11875"
         id="path3544"
         style="fill:none;stroke:#231f20;stroke-width:0.625;stroke-linecap:butt;stroke-linejoin:miter;stroke-miterlimit:4;stroke-dasharray:none;stroke-opacity:1" />
      <path
         d="m 589.53605,609.12071 c -0.22375,-2.56 -1.45375,-4.52875 -3.16,-4.73875 -0.33375,-0.0413 -0.665,-0.0125 -0.99,0.0775"
         id="path3548"
         style="fill:none;stroke:#231f20;stroke-width:0.625;stroke-linecap:butt;stroke-linejoin:miter;stroke-miterlimit:4;stroke-dasharray:none;stroke-opacity:1" />
      <path
         d="m 585.8023,619.84046 -0.39875,0.5175 -0.83,-0.64875 -0.65875,0 -0.10125,-0.245 -0.9625,-0.1975 c 0,0 0.5575,-0.8975 0.5575,-1.1 0,-0.2025 0.48125,-0.715 0.48125,-0.715 0,0 -0.43125,-0.18 -0.5825,0.15 -0.1525,0.32875 -0.1775,0.45375 -0.5825,0.78375 -0.405,0.32875 -0.9625,0.73375 -1.01375,0.91125 -0.05,0.1775 -2.55875,4.88875 -2.55875,4.88875 0,0 -0.30375,0.2275 -0.53125,0.15124 -0.2275,-0.0762 -1.14,-0.53124 -0.5325,2.4575 l 0.33,0.22751 0.48125,0.96249 -0.33,-0.12625 -0.43,0.30376"
         id="path3552"
         style="fill:none;stroke:#231f20;stroke-width:1.875;stroke-linecap:butt;stroke-linejoin:miter;stroke-miterlimit:4;stroke-dasharray:none;stroke-opacity:1" />
      <path
         d="m 578.06355,626.69258 c 0,0 -0.6075,-0.43 -0.65875,-0.91125 -0.05,-0.4825 0.405,-0.43125 0.405,-0.43125"
         id="path3556"
         style="fill:none;stroke:#231f20;stroke-width:0.625;stroke-linecap:butt;stroke-linejoin:miter;stroke-miterlimit:4;stroke-dasharray:none;stroke-opacity:1" />
      <path
         d="m 578.74755,625.55271 c 0,0 1.26625,-0.025 1.67125,-0.25375 0,0 0.33,0.76 0.33,1.36875 0,0.6075 -2.0775,1.0125 -2.00125,-1.115 z"
         id="path3560"
         style="fill:none;stroke:#231f20;stroke-width:0.625;stroke-linecap:butt;stroke-linejoin:miter;stroke-miterlimit:4;stroke-dasharray:none;stroke-opacity:1" />
      <path
         d="m 581.28068,623.07021 -0.32875,-1.08875 1.3925,-2.4825 0.76,0.43 0.0513,0.30375 c 0,0 -1.54625,1.74875 -1.875,2.8375 z"
         id="path3564"
         style="fill:none;stroke:#231f20;stroke-width:0.625;stroke-linecap:butt;stroke-linejoin:miter;stroke-miterlimit:4;stroke-dasharray:none;stroke-opacity:1" />
      <path
         d="m 584.97905,621.06908 -0.5325,0.12625 c 0,0 -0.835,-0.025 -0.9625,-0.405 0,0 -3.34375,2.76125 -2.02625,5.1175"
         id="path3568"
         style="fill:none;stroke:#231f20;stroke-width:0.625;stroke-linecap:butt;stroke-linejoin:miter;stroke-miterlimit:4;stroke-dasharray:none;stroke-opacity:1" />
      <path
         d="m 589.43743,615.97746 3.01375,-1.3425 c 0,0 0.40625,-0.0762 0.5325,0.15125 0.12625,0.22875 0.88625,1.39375 0.88625,1.39375 l -0.9875,0.63375 0.2275,2.43125"
         id="path3572"
         style="fill:none;stroke:#231f20;stroke-width:0.625;stroke-linecap:butt;stroke-linejoin:miter;stroke-miterlimit:4;stroke-dasharray:none;stroke-opacity:1" />
      <path
         d="m 589.76668,618.56121 c 0,0 -0.0762,-0.2025 0.1775,-0.63375 0.2525,-0.43 0.38,-0.88625 0.30375,-1.06375 0,0 -0.9125,-0.35375 -2.05125,-0.2525"
         id="path3576"
         style="fill:none;stroke:#231f20;stroke-width:0.625;stroke-linecap:butt;stroke-linejoin:miter;stroke-miterlimit:4;stroke-dasharray:none;stroke-opacity:1" />
      <path
         d="m 583.15518,621.49971 0.10125,0.65875 -0.25375,0.025 -0.2025,-0.43 0.355,-0.25375 z"
         id="path3580"
         style="fill:none;stroke:#231f20;stroke-width:0.625;stroke-linecap:butt;stroke-linejoin:miter;stroke-miterlimit:4;stroke-dasharray:none;stroke-opacity:1" />
      <path
         d="m 583.86443,621.44896 0.2025,0.25375 -0.2275,0.50625 -0.25375,-0.025 0.0512,-0.30375 0.2275,-0.43125 z"
         id="path3584"
         style="fill:none;stroke:#231f20;stroke-width:0.625;stroke-linecap:butt;stroke-linejoin:miter;stroke-miterlimit:4;stroke-dasharray:none;stroke-opacity:1" />
      <path
         d="m 579.43143,625.65408 0.12625,0.63375 -0.2275,0.075 -0.48125,-0.27875 0.1775,-0.53125 0.405,0.10125 z"
         id="path3588"
         style="fill:none;stroke:#231f20;stroke-width:0.625;stroke-linecap:butt;stroke-linejoin:miter;stroke-miterlimit:4;stroke-dasharray:none;stroke-opacity:1" />
      <path
         d="m 567.29768,590.26596 7.4475,16.2125 0.76,0.30375"
         id="path3592"
         style="fill:none;stroke:#231f20;stroke-width:0.625;stroke-linecap:butt;stroke-linejoin:miter;stroke-miterlimit:4;stroke-dasharray:none;stroke-opacity:1" />
      <path
         d="m 573.98518,607.28871 -7.8025,-15.04625"
         id="path3596"
         style="fill:none;stroke:#231f20;stroke-width:0.625;stroke-linecap:butt;stroke-linejoin:miter;stroke-miterlimit:4;stroke-dasharray:none;stroke-opacity:1" />
      <path
         d="m 574.23855,608.14996 0.30375,0.6075 -0.6075,1.2675 -12.615,4.00125"
         id="path3600"
         style="fill:none;stroke:#231f20;stroke-width:0.625;stroke-linecap:butt;stroke-linejoin:miter;stroke-miterlimit:4;stroke-dasharray:none;stroke-opacity:1" />
      <path
         d="m 561.2688,616.50933 13.62875,-5.67375 2.02625,-0.60875 0.95,0.0888"
         id="path3604"
         style="fill:none;stroke:#231f20;stroke-width:0.625;stroke-linecap:butt;stroke-linejoin:miter;stroke-miterlimit:4;stroke-dasharray:none;stroke-opacity:1" />
      <path
         d="m 583.3008,605.93983 c -0.14375,-0.0713 -0.29625,-0.1225 -0.455,-0.15 -1.42125,-0.25 -2.9,1.39875 -3.3025,3.68375 -0.22125,1.2575 -0.0712,2.44625 0.34625,3.30125"
         id="path3608"
         style="fill:none;stroke:#231f20;stroke-width:0.625;stroke-linecap:butt;stroke-linejoin:miter;stroke-miterlimit:4;stroke-dasharray:none;stroke-opacity:1" />
      <path
         d="m 580.41193,607.19946 c -0.0712,-0.0288 -0.14625,-0.05 -0.2225,-0.0638 -0.94375,-0.16625 -1.92375,0.9275 -2.19125,2.44375 -0.2675,1.515 0.28125,2.87875 1.22375,3.04375 0.17875,0.0325 0.36,0.0175 0.53625,-0.035"
         id="path3612"
         style="fill:none;stroke:#231f20;stroke-width:0.625;stroke-linecap:butt;stroke-linejoin:miter;stroke-miterlimit:4;stroke-dasharray:none;stroke-opacity:1" />
      <path
         d="m 578.53855,607.97896 -0.38,-0.0763 -0.0575,-0.475 -0.7975,-0.0188 -0.19,0.2475 -0.57,-0.1525"
         id="path3616"
         style="fill:none;stroke:#231f20;stroke-width:0.625;stroke-linecap:butt;stroke-linejoin:miter;stroke-miterlimit:4;stroke-dasharray:none;stroke-opacity:1" />
      <path
         d="m 575.4608,608.07396 0.1325,-0.1325 0.3425,0.17 -0.475,1.69125 -0.17125,-0.0763 0.20875,-1.19625 -0.0375,-0.45625 z"
         id="path3620"
         style="fill:none;stroke:#231f20;stroke-width:0.625;stroke-linecap:butt;stroke-linejoin:miter;stroke-miterlimit:4;stroke-dasharray:none;stroke-opacity:1" />
      <path
         d="m 576.92368,551.45821 c 0,0 -2.58375,1.06375 -5.24375,0.9125 -2.66,-0.1525 -6.00375,-1.6725 -7.675,-2.66 -1.6725,-0.98875 -6.23125,-3.5725 -9.195,-3.11625"
         id="path3624"
         style="fill:none;stroke:#231f20;stroke-width:0.625;stroke-linecap:butt;stroke-linejoin:miter;stroke-miterlimit:4;stroke-dasharray:none;stroke-opacity:1" />
      <path
         d="m 561.4968,550.24221 1.9,-0.45625 0.2275,0.68375 -0.30375,1.065 -1.9,-0.38 0.0763,-0.9125 z"
         id="path3628"
         style="fill:none;stroke:#231f20;stroke-width:0.625;stroke-linecap:butt;stroke-linejoin:miter;stroke-miterlimit:4;stroke-dasharray:none;stroke-opacity:1" />
      <path
         d="m 563.58668,566.32458 -2.85,-0.92125"
         id="path3632"
         style="fill:none;stroke:#231f20;stroke-width:0.625;stroke-linecap:butt;stroke-linejoin:miter;stroke-miterlimit:4;stroke-dasharray:none;stroke-opacity:1" />
      <path
         d="m 558.95668,567.62196 c 0,0 0.25,-0.4825 1.01,-0.255 0.76,0.22875 3.44125,1.0375 3.44125,1.0375 l 0,1.93"
         id="path3636"
         style="fill:none;stroke:#231f20;stroke-width:1.875;stroke-linecap:butt;stroke-linejoin:miter;stroke-miterlimit:4;stroke-dasharray:none;stroke-opacity:1" />
      <path
         d="m 513.0883,563.92121 -0.5325,-0.68375 3.52125,-12.995"
         id="path3640"
         style="fill:none;stroke:#231f20;stroke-width:0.625;stroke-linecap:butt;stroke-linejoin:miter;stroke-miterlimit:4;stroke-dasharray:none;stroke-opacity:1" />
      <path
         d="m 537.59343,527.06396 c 0,0 -1.12375,3.00125 -0.16125,4.04625"
         id="path3644"
         style="fill:none;stroke:#231f20;stroke-width:0.625;stroke-linecap:butt;stroke-linejoin:miter;stroke-miterlimit:4;stroke-dasharray:none;stroke-opacity:1" />
      <path
         d="m 492.6458,529.64771 c 0,0 0.9875,-0.2275 1.3675,-0.91125 0.38,-0.685 1.21625,-2.66 2.73625,-2.205"
         id="path3648"
         style="fill:none;stroke:#231f20;stroke-width:0.625;stroke-linecap:butt;stroke-linejoin:miter;stroke-miterlimit:4;stroke-dasharray:none;stroke-opacity:1" />
      <path
         d="m 517.64805,543.93471 0.0762,-0.6075 c 0,0 -1.9,-2.4325 -4.29375,-0.9125"
         id="path3652"
         style="fill:none;stroke:#231f20;stroke-width:0.625;stroke-linecap:butt;stroke-linejoin:miter;stroke-miterlimit:4;stroke-dasharray:none;stroke-opacity:1" />
      <g
         transform="matrix(1.25,0,0,-1.25,24.810931,1001.0648)"
         id="g5200">
        <g
           clip-path="url(#clipPath5204-8)"
           id="g5202">
          <g
             transform="translate(381.944,338.3143)"
             id="g5208">
            <path
               d="M 0,0 C -1.042,0.368 -2.117,0.662 -3.223,0.876"
               id="path5210"
               style="fill:#cccccc;fill-opacity:1;fill-rule:nonzero;stroke:none" />
          </g>
        </g>
      </g>
    </g>
  </g>
</svg>
