<?xml version="1.0" encoding="utf-8"?>
<!-- Generator: Adobe Illustrator 18.0.0, SVG Export Plug-In . SVG Version: 6.00 Build 0)  -->
<!DOCTYPE svg PUBLIC "-//W3C//DTD SVG 1.1//EN" "http://www.w3.org/Graphics/SVG/1.1/DTD/svg11.dtd">
<svg version="1.1" xmlns="http://www.w3.org/2000/svg" xmlns:xlink="http://www.w3.org/1999/xlink" x="0px" y="0px"
	 viewBox="0 0 160 160" enable-background="new 0 0 160 160" xml:space="preserve">
<g id="Layer_1">
</g>
<g id="align_layer">
	<g>
		<circle fill="#FFFFFF" stroke="#231F20" stroke-width="2" cx="78.913" cy="96" r="60"/>
		<g>
			<g>
				<path fill="#FFFFFF" d="M87.044,140.115c-2.649,0-4.263-5.375-4.543-10.861c-6.051,0.782-15.558,1.302-23.923,1.302
					c-1.027,0-2.036-0.008-3.017-0.024c-6.565-0.11-11.605-0.405-14.808-0.647c-0.418,4.874-1.938,9.632-4.481,9.632l-6.565-0.002
					c-2.842,0-4.482-6.017-4.621-11.81c-0.553-0.172-0.871-0.292-0.871-0.292c-0.099-0.037-0.184-0.105-0.242-0.194l-2.273-3.477
					c-0.053-0.081-0.082-0.176-0.082-0.273v-3.344c0-0.729,0.558-1.176,0.888-1.325l1.84-0.517l-0.584-0.977
					c-0.028-0.047-0.048-0.098-0.06-0.151l-1.471-6.82c-0.007-0.035-0.011-0.07-0.011-0.105v-6.553
					c0-7.664,2.854-10.37,3.665-10.984l4.664-30.279l-0.074-3.189c0-6.546,6.664-8.234,6.731-8.25
					c6.852-1.863,26.222-2.459,27.043-2.484c25.984,0,30.341,1.845,32.436,2.732c0.229,0.097,0.424,0.18,0.618,0.243
					c1.839,0.591,3.614,1.075,3.632,1.08l40.357,6.642c4.804,0.645,5.27,5.016,5.273,5.06l1.021,14.388l0.001,32.13
					c0,1.303-0.977,2.056-1.018,2.087l-9.403,8.874c-0.093,0.088-0.215,0.137-0.343,0.137h-3.065
					c-0.211,4.482-1.485,8.871-3.617,9.176c-0.062,0.033-0.131,0.052-0.205,0.052h-5.519c-1.597,0-2.9-2.256-3.528-6.066
					l-21.258,5.15c-0.04,0.009-0.079,0.014-0.118,0.014c-0.109,0-0.215-0.036-0.301-0.101h-1.057
					c-0.369,4.936-1.819,9.766-4.313,9.966c-0.071,0.038-0.147,0.063-0.213,0.063H87.044z"/>
				<path fill="#231F20" d="M64.264,48.989c29.086,0,31.013,2.349,32.886,2.95c1.872,0.602,3.655,1.087,3.655,1.087l40.407,6.653
					c4.48,0.602,4.856,4.614,4.856,4.614l1.02,14.376v32.095c0,1.07-0.819,1.688-0.819,1.688l-9.445,8.91h-3.477l-0.07-0.001
					c-0.153,5.141-1.605,9.194-3.373,9.194l0.032,0.035h-5.519c-1.401,0-2.602-2.572-3.117-6.181l-21.787,5.278l0.134-0.1h-1.805
					l-0.153-0.009c-0.344,5.668-2.004,9.982-4.007,9.982l-0.052,0.057h-6.585c-2.111,0-3.854-4.815-4.066-10.928
					c-5.945,0.811-15.804,1.368-24.391,1.368c-1.026,0-2.036-0.008-3.017-0.024c-6.688-0.112-11.947-0.423-15.275-0.684
					c-0.387,5.509-2.055,9.668-4.022,9.668l-0.013-0.002h-6.553c-2.2,0-4.043-5.199-4.128-11.683
					c-0.745-0.219-1.188-0.386-1.188-0.386l-2.273-3.477v-3.343c0-0.602,0.593-0.869,0.593-0.869l2.399-0.669l-0.919-1.538
					l-1.471-6.82v-6.553c0-8.559,3.627-10.698,3.627-10.698l4.696-30.49l-0.068-3.275c0-6.218,6.349-7.754,6.349-7.754
					C44.21,49.587,64.264,48.989,64.264,48.989 M64.264,47.989c-0.01,0-0.02,0-0.03,0c-0.824,0.025-20.251,0.623-27.173,2.504
					c-2.433,0.588-7.087,3.178-7.087,8.719l0.067,3.209l-4.622,30.004c-1.053,0.889-3.7,3.86-3.7,11.249v6.553
					c0,0.071,0.008,0.142,0.022,0.211l1.471,6.82c0.023,0.107,0.063,0.209,0.119,0.302l0.247,0.413l-1.137,0.317
					c-0.049,0.014-0.096,0.031-0.142,0.052c-0.439,0.198-1.183,0.796-1.183,1.781v3.343c0,0.194,0.057,0.385,0.163,0.547
					l2.273,3.477c0.116,0.177,0.285,0.313,0.484,0.388c0.013,0.005,0.211,0.08,0.558,0.193c0.205,6.049,1.978,11.941,5.11,11.941
					h6.513c0.018,0.001,0.036,0.002,0.053,0.002c2.942,0,4.463-4.963,4.934-9.596c3.225,0.235,8.1,0.507,14.347,0.612
					c0.987,0.017,2.002,0.025,3.034,0.025c8.134,0,17.355-0.492,23.444-1.238c0.457,7.448,2.803,10.798,5.014,10.798h6.585
					c0.135,0,0.267-0.027,0.389-0.079c2.781-0.372,4.186-5.335,4.598-9.951h0.46c0.135,0.065,0.284,0.101,0.437,0.101
					c0.078,0,0.157-0.009,0.236-0.028l20.742-5.025c0.453,2.367,1.535,5.956,3.926,5.956h5.519c0.129,0,0.254-0.025,0.369-0.071
					c2.373-0.431,3.649-4.682,3.927-9.157l2.591,0c0.255,0,0.501-0.098,0.686-0.273l9.416-8.882c0.255-0.21,1.162-1.055,1.162-2.443
					V78.669c0-0.024-0.001-0.047-0.003-0.071l-1.02-14.376c-0.158-1.684-1.553-4.974-5.72-5.534l-40.326-6.64
					c-0.297-0.082-1.904-0.527-3.563-1.06c-0.181-0.058-0.362-0.137-0.577-0.227C94.754,49.861,90.333,47.989,64.264,47.989
					L64.264,47.989z"/>
			</g>
			<g>
				<defs>
					<path id="SVGID_1_" d="M25.04,118.508c0,0,13.332,1.248,28.076,1.349c14.743,0.1,30.49,0.1,30.49,0.1l5.416-0.301l0.698-0.323
						v-0.613c0-1.538,1.612-3.299,1.612-3.299l0,0l0.432-0.979c0,0,0.735-1.605,4.078-1.605c3.343,0,4.279,1.337,4.279,4.613
						l0.134,0.668l29.688-5.416l0.435-1.988c0.707-2.747,0.925-2.881,2.306-2.881h1.137c0,0,1.46,0.145,1.326,1.482
						c-0.134,1.337-0.546,10.871-1.214,12.074l2.653-0.028l9.401-8.91c0,0,0.732-0.618,0.732-1.688V78.669l-0.933-14.376
						c0,0-0.289-4.012-4.769-4.614l-40.406-6.653c0,0-1.781-0.485-3.653-1.087c-1.872-0.602-3.797-2.95-32.883-2.95
						c0,0-20.048,0.598-26.935,2.47c0,0-6.337,1.536-6.337,7.754l0.093,3.275l-4.648,30.49c0,0-3.53,2.139-3.53,10.698v6.553
						l1.498,6.742L25.04,118.508z"/>
				</defs>
				<clipPath id="SVGID_2_">
					<use xlink:href="#SVGID_1_"  overflow="visible"/>
				</clipPath>
				<g clip-path="url(#SVGID_2_)">
					<circle fill="#FF1D25" cx="32.647" cy="47.482" r="0.925"/>
					<circle fill="#FF1D25" cx="37.535" cy="47.482" r="0.925"/>
					<circle fill="#FF1D25" cx="39.979" cy="45.038" r="0.925"/>
					<circle fill="#FF1D25" cx="42.423" cy="47.482" r="0.925"/>
					<circle fill="#FF1D25" cx="44.866" cy="45.038" r="0.925"/>
					<circle fill="#FF1D25" cx="47.31" cy="47.482" r="0.925"/>
					<circle fill="#FF1D25" cx="49.754" cy="45.038" r="0.925"/>
					<circle fill="#FF1D25" cx="52.198" cy="47.482" r="0.925"/>
					<circle fill="#FF1D25" cx="54.642" cy="45.038" r="0.925"/>
					<circle fill="#FF1D25" cx="57.086" cy="47.482" r="0.925"/>
					<circle fill="#FF1D25" cx="59.53" cy="45.038" r="0.925"/>
					<circle fill="#FF1D25" cx="61.974" cy="47.482" r="0.925"/>
					<circle fill="#FF1D25" cx="64.418" cy="45.038" r="0.925"/>
					<circle fill="#FF1D25" cx="66.862" cy="47.482" r="0.925"/>
					<circle fill="#FF1D25" cx="69.306" cy="45.038" r="0.925"/>
					<circle fill="#FF1D25" cx="71.75" cy="47.482" r="0.925"/>
					<circle fill="#FF1D25" cx="74.194" cy="45.038" r="0.925"/>
					<circle fill="#FF1D25" cx="76.638" cy="47.482" r="0.925"/>
					<circle fill="#FF1D25" cx="79.082" cy="45.038" r="0.925"/>
					<circle fill="#FF1D25" cx="81.526" cy="47.482" r="0.925"/>
					<circle fill="#FF1D25" cx="83.97" cy="45.038" r="0.925"/>
					<circle fill="#FF1D25" cx="86.414" cy="47.482" r="0.925"/>
					<circle fill="#FF1D25" cx="88.858" cy="45.038" r="0.925"/>
					<circle fill="#FF1D25" cx="91.302" cy="47.482" r="0.925"/>
					<circle fill="#FF1D25" cx="93.746" cy="45.038" r="0.925"/>
					<circle fill="#FF1D25" cx="96.19" cy="47.482" r="0.925"/>
					<circle fill="#FF1D25" cx="98.634" cy="45.038" r="0.925"/>
					<circle fill="#FF1D25" cx="101.078" cy="47.482" r="0.925"/>
					<circle fill="#FF1D25" cx="103.522" cy="45.038" r="0.925"/>
					<circle fill="#FF1D25" cx="105.966" cy="47.482" r="0.925"/>
					<circle fill="#FF1D25" cx="108.41" cy="45.038" r="0.925"/>
					<circle fill="#FF1D25" cx="110.854" cy="47.482" r="0.925"/>
					<circle fill="#FF1D25" cx="115.742" cy="47.482" r="0.925"/>
					<circle fill="#FF1D25" cx="120.629" cy="47.482" r="0.925"/>
					<circle fill="#FF1D25" cx="125.517" cy="47.482" r="0.925"/>
					<circle fill="#FF1D25" cx="30.203" cy="49.926" r="0.925"/>
					<circle fill="#FF1D25" cx="32.647" cy="52.37" r="0.925"/>
					<circle fill="#FF1D25" cx="35.091" cy="49.926" r="0.925"/>
					<circle fill="#FF1D25" cx="37.535" cy="52.37" r="0.925"/>
					<circle fill="#FF1D25" cx="39.979" cy="49.926" r="0.925"/>
					<circle fill="#FF1D25" cx="42.423" cy="52.37" r="0.925"/>
					<circle fill="#FF1D25" cx="44.866" cy="49.926" r="0.925"/>
					<circle fill="#FF1D25" cx="47.31" cy="52.37" r="0.925"/>
					<circle fill="#FF1D25" cx="49.754" cy="49.926" r="0.925"/>
					<circle fill="#FF1D25" cx="52.198" cy="52.37" r="0.925"/>
					<circle fill="#FF1D25" cx="54.642" cy="49.926" r="0.925"/>
					<circle fill="#FF1D25" cx="57.086" cy="52.37" r="0.925"/>
					<circle fill="#FF1D25" cx="59.53" cy="49.926" r="0.925"/>
					<circle fill="#FF1D25" cx="61.974" cy="52.37" r="0.925"/>
					<circle fill="#FF1D25" cx="64.418" cy="49.926" r="0.925"/>
					<circle fill="#FF1D25" cx="66.862" cy="52.37" r="0.925"/>
					<circle fill="#FF1D25" cx="69.306" cy="49.926" r="0.925"/>
					<circle fill="#FF1D25" cx="71.75" cy="52.37" r="0.925"/>
					<circle fill="#FF1D25" cx="74.194" cy="49.926" r="0.925"/>
					<circle fill="#FF1D25" cx="76.638" cy="52.37" r="0.925"/>
					<circle fill="#FF1D25" cx="79.082" cy="49.926" r="0.925"/>
					<circle fill="#FF1D25" cx="81.526" cy="52.37" r="0.925"/>
					<circle fill="#FF1D25" cx="83.97" cy="49.926" r="0.925"/>
					<circle fill="#FF1D25" cx="86.414" cy="52.37" r="0.925"/>
					<circle fill="#FF1D25" cx="88.858" cy="49.926" r="0.925"/>
					<circle fill="#FF1D25" cx="91.302" cy="52.37" r="0.925"/>
					<circle fill="#FF1D25" cx="93.746" cy="49.926" r="0.925"/>
					<circle fill="#FF1D25" cx="96.19" cy="52.37" r="0.925"/>
					<circle fill="#FF1D25" cx="98.634" cy="49.926" r="0.925"/>
					<circle fill="#FF1D25" cx="101.078" cy="52.37" r="0.925"/>
					<circle fill="#FF1D25" cx="103.522" cy="49.926" r="0.925"/>
					<circle fill="#FF1D25" cx="105.966" cy="52.37" r="0.925"/>
					<circle fill="#FF1D25" cx="108.41" cy="49.926" r="0.925"/>
					<circle fill="#FF1D25" cx="110.854" cy="52.37" r="0.925"/>
					<circle fill="#FF1D25" cx="113.298" cy="49.926" r="0.925"/>
					<circle fill="#FF1D25" cx="115.742" cy="52.37" r="0.925"/>
					<circle fill="#FF1D25" cx="118.185" cy="49.926" r="0.925"/>
					<circle fill="#FF1D25" cx="120.629" cy="52.37" r="0.925"/>
					<circle fill="#FF1D25" cx="123.073" cy="49.926" r="0.925"/>
					<circle fill="#FF1D25" cx="125.517" cy="52.37" r="0.925"/>
					<circle fill="#FF1D25" cx="127.961" cy="49.926" r="0.925"/>
					<circle fill="#FF1D25" cx="130.405" cy="52.37" r="0.925"/>
					<circle fill="#FF1D25" cx="132.849" cy="49.926" r="0.925"/>
					<circle fill="#FF1D25" cx="135.293" cy="52.37" r="0.925"/>
					<circle fill="#FF1D25" cx="137.737" cy="49.926" r="0.925"/>
					<circle fill="#FF1D25" cx="140.181" cy="52.37" r="0.925"/>
					<circle fill="#FF1D25" cx="142.625" cy="49.926" r="0.925"/>
					<circle fill="#FF1D25" cx="145.069" cy="52.37" r="0.925"/>
					<circle fill="#FF1D25" cx="27.759" cy="57.258" r="0.925"/>
					<circle fill="#FF1D25" cx="30.203" cy="54.814" r="0.925"/>
					<circle fill="#FF1D25" cx="32.647" cy="57.258" r="0.925"/>
					<circle fill="#FF1D25" cx="35.091" cy="54.814" r="0.925"/>
					<circle fill="#FF1D25" cx="37.535" cy="57.258" r="0.925"/>
					<circle fill="#FF1D25" cx="39.979" cy="54.814" r="0.925"/>
					<circle fill="#FF1D25" cx="42.423" cy="57.258" r="0.925"/>
					<circle fill="#FF1D25" cx="44.866" cy="54.814" r="0.925"/>
					<circle fill="#FF1D25" cx="47.31" cy="57.258" r="0.925"/>
					<circle fill="#FF1D25" cx="49.754" cy="54.814" r="0.925"/>
					<circle fill="#FF1D25" cx="52.198" cy="57.258" r="0.925"/>
					<circle fill="#FF1D25" cx="54.642" cy="54.814" r="0.925"/>
					<circle fill="#FF1D25" cx="57.086" cy="57.258" r="0.925"/>
					<circle fill="#FF1D25" cx="59.53" cy="54.814" r="0.925"/>
					<circle fill="#FF1D25" cx="61.974" cy="57.258" r="0.925"/>
					<circle fill="#FF1D25" cx="64.418" cy="54.814" r="0.925"/>
					<circle fill="#FF1D25" cx="66.862" cy="57.258" r="0.925"/>
					<circle fill="#FF1D25" cx="69.306" cy="54.814" r="0.925"/>
					<circle fill="#FF1D25" cx="71.75" cy="57.258" r="0.925"/>
					<circle fill="#FF1D25" cx="74.194" cy="54.814" r="0.925"/>
					<circle fill="#FF1D25" cx="76.638" cy="57.258" r="0.925"/>
					<circle fill="#FF1D25" cx="79.082" cy="54.814" r="0.925"/>
					<circle fill="#FF1D25" cx="81.526" cy="57.258" r="0.925"/>
					<circle fill="#FF1D25" cx="83.97" cy="54.814" r="0.925"/>
					<circle fill="#FF1D25" cx="86.414" cy="57.258" r="0.925"/>
					<circle fill="#FF1D25" cx="88.858" cy="54.814" r="0.925"/>
					<circle fill="#FF1D25" cx="91.302" cy="57.258" r="0.925"/>
					<circle fill="#FF1D25" cx="93.746" cy="54.814" r="0.925"/>
					<circle fill="#FF1D25" cx="96.19" cy="57.258" r="0.925"/>
					<circle fill="#FF1D25" cx="98.634" cy="54.814" r="0.925"/>
					<circle fill="#FF1D25" cx="101.078" cy="57.258" r="0.925"/>
					<circle fill="#FF1D25" cx="103.522" cy="54.814" r="0.925"/>
					<circle fill="#FF1D25" cx="105.966" cy="57.258" r="0.925"/>
					<circle fill="#FF1D25" cx="108.41" cy="54.814" r="0.925"/>
					<circle fill="#FF1D25" cx="110.854" cy="57.258" r="0.925"/>
					<circle fill="#FF1D25" cx="113.298" cy="54.814" r="0.925"/>
					<circle fill="#FF1D25" cx="115.742" cy="57.258" r="0.925"/>
					<circle fill="#FF1D25" cx="118.185" cy="54.814" r="0.925"/>
					<circle fill="#FF1D25" cx="120.629" cy="57.258" r="0.925"/>
					<circle fill="#FF1D25" cx="123.073" cy="54.814" r="0.925"/>
					<circle fill="#FF1D25" cx="125.517" cy="57.258" r="0.925"/>
					<circle fill="#FF1D25" cx="127.961" cy="54.814" r="0.925"/>
					<circle fill="#FF1D25" cx="130.405" cy="57.258" r="0.925"/>
					<circle fill="#FF1D25" cx="132.849" cy="54.814" r="0.925"/>
					<circle fill="#FF1D25" cx="135.293" cy="57.258" r="0.925"/>
					<circle fill="#FF1D25" cx="137.737" cy="54.814" r="0.925"/>
					<circle fill="#FF1D25" cx="140.181" cy="57.258" r="0.925"/>
					<circle fill="#FF1D25" cx="142.625" cy="54.814" r="0.925"/>
					<circle fill="#FF1D25" cx="145.069" cy="57.258" r="0.925"/>
					<circle fill="#FF1D25" cx="147.513" cy="54.814" r="0.925"/>
					<circle fill="#FF1D25" cx="25.315" cy="59.702" r="0.925"/>
					<circle fill="#FF1D25" cx="27.759" cy="62.146" r="0.925"/>
					<circle fill="#FF1D25" cx="30.203" cy="59.702" r="0.925"/>
					<circle fill="#FF1D25" cx="32.647" cy="62.146" r="0.925"/>
					<circle fill="#FF1D25" cx="35.091" cy="59.702" r="0.925"/>
					<circle fill="#FF1D25" cx="37.535" cy="62.146" r="0.925"/>
					<circle fill="#FF1D25" cx="39.979" cy="59.702" r="0.925"/>
					<circle fill="#FF1D25" cx="42.423" cy="62.146" r="0.925"/>
					<circle fill="#FF1D25" cx="44.866" cy="59.702" r="0.925"/>
					<circle fill="#FF1D25" cx="47.31" cy="62.146" r="0.925"/>
					<circle fill="#FF1D25" cx="49.754" cy="59.702" r="0.925"/>
					<circle fill="#FF1D25" cx="52.198" cy="62.146" r="0.925"/>
					<circle fill="#FF1D25" cx="54.642" cy="59.702" r="0.925"/>
					<circle fill="#FF1D25" cx="57.086" cy="62.146" r="0.925"/>
					<circle fill="#FF1D25" cx="59.53" cy="59.702" r="0.925"/>
					<circle fill="#FF1D25" cx="61.974" cy="62.146" r="0.925"/>
					<circle fill="#FF1D25" cx="64.418" cy="59.702" r="0.925"/>
					<circle fill="#FF1D25" cx="66.862" cy="62.146" r="0.925"/>
					<circle fill="#FF1D25" cx="69.306" cy="59.702" r="0.925"/>
					<circle fill="#FF1D25" cx="71.75" cy="62.146" r="0.925"/>
					<circle fill="#FF1D25" cx="74.194" cy="59.702" r="0.925"/>
					<circle fill="#FF1D25" cx="76.638" cy="62.146" r="0.925"/>
					<circle fill="#FF1D25" cx="79.082" cy="59.702" r="0.925"/>
					<circle fill="#FF1D25" cx="81.526" cy="62.146" r="0.925"/>
					<circle fill="#FF1D25" cx="83.97" cy="59.702" r="0.925"/>
					<circle fill="#FF1D25" cx="86.414" cy="62.146" r="0.925"/>
					<circle fill="#FF1D25" cx="88.858" cy="59.702" r="0.925"/>
					<circle fill="#FF1D25" cx="91.302" cy="62.146" r="0.925"/>
					<circle fill="#FF1D25" cx="93.746" cy="59.702" r="0.925"/>
					<circle fill="#FF1D25" cx="96.19" cy="62.146" r="0.925"/>
					<circle fill="#FF1D25" cx="98.634" cy="59.702" r="0.925"/>
					<circle fill="#FF1D25" cx="101.078" cy="62.146" r="0.925"/>
					<circle fill="#FF1D25" cx="103.522" cy="59.702" r="0.925"/>
					<circle fill="#FF1D25" cx="105.966" cy="62.146" r="0.925"/>
					<circle fill="#FF1D25" cx="108.41" cy="59.702" r="0.925"/>
					<circle fill="#FF1D25" cx="110.854" cy="62.146" r="0.925"/>
					<circle fill="#FF1D25" cx="113.298" cy="59.702" r="0.925"/>
					<circle fill="#FF1D25" cx="115.742" cy="62.146" r="0.925"/>
					<circle fill="#FF1D25" cx="118.185" cy="59.702" r="0.925"/>
					<circle fill="#FF1D25" cx="120.629" cy="62.146" r="0.925"/>
					<circle fill="#FF1D25" cx="123.073" cy="59.702" r="0.925"/>
					<circle fill="#FF1D25" cx="125.517" cy="62.146" r="0.925"/>
					<circle fill="#FF1D25" cx="127.961" cy="59.702" r="0.925"/>
					<circle fill="#FF1D25" cx="130.405" cy="62.146" r="0.925"/>
					<circle fill="#FF1D25" cx="132.849" cy="59.702" r="0.925"/>
					<circle fill="#FF1D25" cx="135.293" cy="62.146" r="0.925"/>
					<circle fill="#FF1D25" cx="137.737" cy="59.702" r="0.925"/>
					<circle fill="#FF1D25" cx="140.181" cy="62.146" r="0.925"/>
					<circle fill="#FF1D25" cx="142.625" cy="59.702" r="0.925"/>
					<circle fill="#FF1D25" cx="145.069" cy="62.146" r="0.925"/>
					<circle fill="#FF1D25" cx="147.513" cy="59.702" r="0.925"/>
					<circle fill="#FF1D25" cx="149.957" cy="62.146" r="0.925"/>
					<circle fill="#FF1D25" cx="22.871" cy="67.034" r="0.925"/>
					<circle fill="#FF1D25" cx="25.315" cy="64.59" r="0.925"/>
					<circle fill="#FF1D25" cx="27.759" cy="67.034" r="0.925"/>
					<circle fill="#FF1D25" cx="30.203" cy="64.59" r="0.925"/>
					<circle fill="#FF1D25" cx="32.647" cy="67.034" r="0.925"/>
					<circle fill="#FF1D25" cx="35.091" cy="64.59" r="0.925"/>
					<circle fill="#FF1D25" cx="37.535" cy="67.034" r="0.925"/>
					<circle fill="#FF1D25" cx="39.979" cy="64.59" r="0.925"/>
					<circle fill="#FF1D25" cx="42.423" cy="67.034" r="0.925"/>
					<circle fill="#FF1D25" cx="44.866" cy="64.59" r="0.925"/>
					<circle fill="#FF1D25" cx="47.31" cy="67.034" r="0.925"/>
					<circle fill="#FF1D25" cx="49.754" cy="64.59" r="0.925"/>
					<circle fill="#FF1D25" cx="52.198" cy="67.034" r="0.925"/>
					<circle fill="#FF1D25" cx="54.642" cy="64.59" r="0.925"/>
					<circle fill="#FF1D25" cx="57.086" cy="67.034" r="0.925"/>
					<circle fill="#FF1D25" cx="59.53" cy="64.59" r="0.925"/>
					<circle fill="#FF1D25" cx="61.974" cy="67.034" r="0.925"/>
					<circle fill="#FF1D25" cx="64.418" cy="64.59" r="0.925"/>
					<circle fill="#FF1D25" cx="66.862" cy="67.034" r="0.925"/>
					<circle fill="#FF1D25" cx="69.306" cy="64.59" r="0.925"/>
					<circle fill="#FF1D25" cx="71.75" cy="67.034" r="0.925"/>
					<circle fill="#FF1D25" cx="74.194" cy="64.59" r="0.925"/>
					<circle fill="#FF1D25" cx="76.638" cy="67.034" r="0.925"/>
					<circle fill="#FF1D25" cx="79.082" cy="64.59" r="0.925"/>
					<circle fill="#FF1D25" cx="81.526" cy="67.034" r="0.925"/>
					<circle fill="#FF1D25" cx="83.97" cy="64.59" r="0.925"/>
					<circle fill="#FF1D25" cx="86.414" cy="67.034" r="0.925"/>
					<circle fill="#FF1D25" cx="88.858" cy="64.59" r="0.925"/>
					<circle fill="#FF1D25" cx="91.302" cy="67.034" r="0.925"/>
					<circle fill="#FF1D25" cx="93.746" cy="64.59" r="0.925"/>
					<circle fill="#FF1D25" cx="96.19" cy="67.034" r="0.925"/>
					<circle fill="#FF1D25" cx="98.634" cy="64.59" r="0.925"/>
					<circle fill="#FF1D25" cx="101.078" cy="67.034" r="0.925"/>
					<circle fill="#FF1D25" cx="103.522" cy="64.59" r="0.925"/>
					<circle fill="#FF1D25" cx="105.966" cy="67.034" r="0.925"/>
					<circle fill="#FF1D25" cx="108.41" cy="64.59" r="0.925"/>
					<circle fill="#FF1D25" cx="110.854" cy="67.034" r="0.925"/>
					<circle fill="#FF1D25" cx="113.298" cy="64.59" r="0.925"/>
					<circle fill="#FF1D25" cx="115.742" cy="67.034" r="0.925"/>
					<circle fill="#FF1D25" cx="118.185" cy="64.59" r="0.925"/>
					<circle fill="#FF1D25" cx="120.629" cy="67.034" r="0.925"/>
					<circle fill="#FF1D25" cx="123.073" cy="64.59" r="0.925"/>
					<circle fill="#FF1D25" cx="125.517" cy="67.034" r="0.925"/>
					<circle fill="#FF1D25" cx="127.961" cy="64.59" r="0.925"/>
					<circle fill="#FF1D25" cx="130.405" cy="67.034" r="0.925"/>
					<circle fill="#FF1D25" cx="132.849" cy="64.59" r="0.925"/>
					<circle fill="#FF1D25" cx="135.293" cy="67.034" r="0.925"/>
					<circle fill="#FF1D25" cx="137.737" cy="64.59" r="0.925"/>
					<circle fill="#FF1D25" cx="140.181" cy="67.034" r="0.925"/>
					<circle fill="#FF1D25" cx="142.625" cy="64.59" r="0.925"/>
					<circle fill="#FF1D25" cx="145.069" cy="67.034" r="0.925"/>
					<circle fill="#FF1D25" cx="147.513" cy="64.59" r="0.925"/>
					<circle fill="#FF1D25" cx="149.957" cy="67.034" r="0.925"/>
					<circle fill="#FF1D25" cx="22.871" cy="71.922" r="0.925"/>
					<circle fill="#FF1D25" cx="25.315" cy="69.478" r="0.925"/>
					<circle fill="#FF1D25" cx="27.759" cy="71.922" r="0.925"/>
					<circle fill="#FF1D25" cx="30.203" cy="69.478" r="0.925"/>
					<circle fill="#FF1D25" cx="32.647" cy="71.922" r="0.925"/>
					<circle fill="#FF1D25" cx="35.091" cy="69.478" r="0.925"/>
					<circle fill="#FF1D25" cx="37.535" cy="71.922" r="0.925"/>
					<circle fill="#FF1D25" cx="39.979" cy="69.478" r="0.925"/>
					<circle fill="#FF1D25" cx="42.423" cy="71.922" r="0.925"/>
					<circle fill="#FF1D25" cx="44.866" cy="69.478" r="0.925"/>
					<circle fill="#FF1D25" cx="47.31" cy="71.922" r="0.925"/>
					<circle fill="#FF1D25" cx="49.754" cy="69.478" r="0.925"/>
					<circle fill="#FF1D25" cx="52.198" cy="71.922" r="0.925"/>
					<circle fill="#FF1D25" cx="54.642" cy="69.478" r="0.925"/>
					<circle fill="#FF1D25" cx="57.086" cy="71.922" r="0.925"/>
					<circle fill="#FF1D25" cx="59.53" cy="69.478" r="0.925"/>
					<circle fill="#FF1D25" cx="61.974" cy="71.922" r="0.925"/>
					<circle fill="#FF1D25" cx="64.418" cy="69.478" r="0.925"/>
					<circle fill="#FF1D25" cx="66.862" cy="71.922" r="0.925"/>
					<circle fill="#FF1D25" cx="69.306" cy="69.478" r="0.925"/>
					<circle fill="#FF1D25" cx="71.75" cy="71.922" r="0.925"/>
					<circle fill="#FF1D25" cx="74.194" cy="69.478" r="0.925"/>
					<circle fill="#FF1D25" cx="76.638" cy="71.922" r="0.925"/>
					<circle fill="#FF1D25" cx="79.082" cy="69.478" r="0.925"/>
					<circle fill="#FF1D25" cx="81.526" cy="71.922" r="0.925"/>
					<circle fill="#FF1D25" cx="83.97" cy="69.478" r="0.925"/>
					<circle fill="#FF1D25" cx="86.414" cy="71.922" r="0.925"/>
					<circle fill="#FF1D25" cx="88.858" cy="69.478" r="0.925"/>
					<circle fill="#FF1D25" cx="91.302" cy="71.922" r="0.925"/>
					<circle fill="#FF1D25" cx="93.746" cy="69.478" r="0.925"/>
					<circle fill="#FF1D25" cx="96.19" cy="71.922" r="0.925"/>
					<circle fill="#FF1D25" cx="98.634" cy="69.478" r="0.925"/>
					<circle fill="#FF1D25" cx="101.078" cy="71.922" r="0.925"/>
					<circle fill="#FF1D25" cx="103.522" cy="69.478" r="0.925"/>
					<circle fill="#FF1D25" cx="105.966" cy="71.922" r="0.925"/>
					<circle fill="#FF1D25" cx="108.41" cy="69.478" r="0.925"/>
					<circle fill="#FF1D25" cx="110.854" cy="71.922" r="0.925"/>
					<circle fill="#FF1D25" cx="113.298" cy="69.478" r="0.925"/>
					<circle fill="#FF1D25" cx="115.742" cy="71.922" r="0.925"/>
					<circle fill="#FF1D25" cx="118.185" cy="69.478" r="0.925"/>
					<circle fill="#FF1D25" cx="120.629" cy="71.922" r="0.925"/>
					<circle fill="#FF1D25" cx="123.073" cy="69.478" r="0.925"/>
					<circle fill="#FF1D25" cx="125.517" cy="71.922" r="0.925"/>
					<circle fill="#FF1D25" cx="127.961" cy="69.478" r="0.925"/>
					<circle fill="#FF1D25" cx="130.405" cy="71.922" r="0.925"/>
					<circle fill="#FF1D25" cx="132.849" cy="69.478" r="0.925"/>
					<circle fill="#FF1D25" cx="135.293" cy="71.922" r="0.925"/>
					<circle fill="#FF1D25" cx="137.737" cy="69.478" r="0.925"/>
					<circle fill="#FF1D25" cx="140.181" cy="71.922" r="0.925"/>
					<circle fill="#FF1D25" cx="142.625" cy="69.478" r="0.925"/>
					<circle fill="#FF1D25" cx="145.069" cy="71.922" r="0.925"/>
					<circle fill="#FF1D25" cx="147.513" cy="69.478" r="0.925"/>
					<circle fill="#FF1D25" cx="149.957" cy="71.922" r="0.925"/>
					<circle fill="#FF1D25" cx="20.427" cy="74.365" r="0.925"/>
					<circle fill="#FF1D25" cx="22.871" cy="76.809" r="0.925"/>
					<circle fill="#FF1D25" cx="25.315" cy="74.365" r="0.925"/>
					<circle fill="#FF1D25" cx="27.759" cy="76.809" r="0.925"/>
					<circle fill="#FF1D25" cx="30.203" cy="74.365" r="0.925"/>
					<circle fill="#FF1D25" cx="32.647" cy="76.809" r="0.925"/>
					<circle fill="#FF1D25" cx="35.091" cy="74.365" r="0.925"/>
					<circle fill="#FF1D25" cx="37.535" cy="76.809" r="0.925"/>
					<circle fill="#FF1D25" cx="39.979" cy="74.365" r="0.925"/>
					<circle fill="#FF1D25" cx="42.423" cy="76.809" r="0.925"/>
					<circle fill="#FF1D25" cx="44.866" cy="74.365" r="0.925"/>
					<circle fill="#FF1D25" cx="47.31" cy="76.809" r="0.925"/>
					<circle fill="#FF1D25" cx="49.754" cy="74.365" r="0.925"/>
					<circle fill="#FF1D25" cx="52.198" cy="76.809" r="0.925"/>
					<circle fill="#FF1D25" cx="54.642" cy="74.365" r="0.925"/>
					<circle fill="#FF1D25" cx="57.086" cy="76.809" r="0.925"/>
					<circle fill="#FF1D25" cx="59.53" cy="74.365" r="0.925"/>
					<circle fill="#FF1D25" cx="61.974" cy="76.809" r="0.925"/>
					<circle fill="#FF1D25" cx="64.418" cy="74.365" r="0.925"/>
					<circle fill="#FF1D25" cx="66.862" cy="76.809" r="0.925"/>
					<circle fill="#FF1D25" cx="69.306" cy="74.365" r="0.925"/>
					<circle fill="#FF1D25" cx="71.75" cy="76.809" r="0.925"/>
					<circle fill="#FF1D25" cx="74.194" cy="74.365" r="0.925"/>
					<circle fill="#FF1D25" cx="76.638" cy="76.809" r="0.925"/>
					<circle fill="#FF1D25" cx="79.082" cy="74.365" r="0.925"/>
					<circle fill="#FF1D25" cx="81.526" cy="76.809" r="0.925"/>
					<circle fill="#FF1D25" cx="83.97" cy="74.365" r="0.925"/>
					<circle fill="#FF1D25" cx="86.414" cy="76.809" r="0.925"/>
					<circle fill="#FF1D25" cx="88.858" cy="74.365" r="0.925"/>
					<circle fill="#FF1D25" cx="91.302" cy="76.809" r="0.925"/>
					<circle fill="#FF1D25" cx="93.746" cy="74.365" r="0.925"/>
					<circle fill="#FF1D25" cx="96.19" cy="76.809" r="0.925"/>
					<circle fill="#FF1D25" cx="98.634" cy="74.365" r="0.925"/>
					<circle fill="#FF1D25" cx="101.078" cy="76.809" r="0.925"/>
					<circle fill="#FF1D25" cx="103.522" cy="74.365" r="0.925"/>
					<circle fill="#FF1D25" cx="105.966" cy="76.809" r="0.925"/>
					<circle fill="#FF1D25" cx="108.41" cy="74.365" r="0.925"/>
					<circle fill="#FF1D25" cx="110.854" cy="76.809" r="0.925"/>
					<circle fill="#FF1D25" cx="113.298" cy="74.365" r="0.925"/>
					<circle fill="#FF1D25" cx="115.742" cy="76.809" r="0.925"/>
					<circle fill="#FF1D25" cx="118.185" cy="74.365" r="0.925"/>
					<circle fill="#FF1D25" cx="120.629" cy="76.809" r="0.925"/>
					<circle fill="#FF1D25" cx="123.073" cy="74.365" r="0.925"/>
					<circle fill="#FF1D25" cx="125.517" cy="76.809" r="0.925"/>
					<circle fill="#FF1D25" cx="127.961" cy="74.365" r="0.925"/>
					<circle fill="#FF1D25" cx="130.405" cy="76.809" r="0.925"/>
					<circle fill="#FF1D25" cx="132.849" cy="74.365" r="0.925"/>
					<circle fill="#FF1D25" cx="135.293" cy="76.809" r="0.925"/>
					<circle fill="#FF1D25" cx="137.737" cy="74.365" r="0.925"/>
					<circle fill="#FF1D25" cx="140.181" cy="76.809" r="0.925"/>
					<circle fill="#FF1D25" cx="142.625" cy="74.365" r="0.925"/>
					<circle fill="#FF1D25" cx="145.069" cy="76.809" r="0.925"/>
					<circle fill="#FF1D25" cx="147.513" cy="74.365" r="0.925"/>
					<circle fill="#FF1D25" cx="149.957" cy="76.809" r="0.925"/>
					<circle fill="#FF1D25" cx="20.427" cy="79.253" r="0.925"/>
					<circle fill="#FF1D25" cx="22.871" cy="81.697" r="0.925"/>
					<circle fill="#FF1D25" cx="25.315" cy="79.253" r="0.925"/>
					<circle fill="#FF1D25" cx="27.759" cy="81.697" r="0.925"/>
					<circle fill="#FF1D25" cx="30.203" cy="79.253" r="0.925"/>
					<circle fill="#FF1D25" cx="32.647" cy="81.697" r="0.925"/>
					<circle fill="#FF1D25" cx="35.091" cy="79.253" r="0.925"/>
					<circle fill="#FF1D25" cx="37.535" cy="81.697" r="0.925"/>
					<circle fill="#FF1D25" cx="39.979" cy="79.253" r="0.925"/>
					<circle fill="#FF1D25" cx="42.423" cy="81.697" r="0.925"/>
					<circle fill="#FF1D25" cx="44.866" cy="79.253" r="0.925"/>
					<circle fill="#FF1D25" cx="47.31" cy="81.697" r="0.925"/>
					<circle fill="#FF1D25" cx="49.754" cy="79.253" r="0.925"/>
					<circle fill="#FF1D25" cx="52.198" cy="81.697" r="0.925"/>
					<circle fill="#FF1D25" cx="54.642" cy="79.253" r="0.925"/>
					<circle fill="#FF1D25" cx="57.086" cy="81.697" r="0.925"/>
					<circle fill="#FF1D25" cx="59.53" cy="79.253" r="0.925"/>
					<circle fill="#FF1D25" cx="61.974" cy="81.697" r="0.925"/>
					<circle fill="#FF1D25" cx="64.418" cy="79.253" r="0.925"/>
					<circle fill="#FF1D25" cx="66.862" cy="81.697" r="0.925"/>
					<circle fill="#FF1D25" cx="69.306" cy="79.253" r="0.925"/>
					<circle fill="#FF1D25" cx="71.75" cy="81.697" r="0.925"/>
					<circle fill="#FF1D25" cx="74.194" cy="79.253" r="0.925"/>
					<circle fill="#FF1D25" cx="76.638" cy="81.697" r="0.925"/>
					<circle fill="#FF1D25" cx="79.082" cy="79.253" r="0.925"/>
					<circle fill="#FF1D25" cx="81.526" cy="81.697" r="0.925"/>
					<circle fill="#FF1D25" cx="83.97" cy="79.253" r="0.925"/>
					<circle fill="#FF1D25" cx="86.414" cy="81.697" r="0.925"/>
					<circle fill="#FF1D25" cx="88.858" cy="79.253" r="0.925"/>
					<circle fill="#FF1D25" cx="91.302" cy="81.697" r="0.925"/>
					<circle fill="#FF1D25" cx="93.746" cy="79.253" r="0.925"/>
					<circle fill="#FF1D25" cx="96.19" cy="81.697" r="0.925"/>
					<circle fill="#FF1D25" cx="98.634" cy="79.253" r="0.925"/>
					<circle fill="#FF1D25" cx="101.078" cy="81.697" r="0.925"/>
					<circle fill="#FF1D25" cx="103.522" cy="79.253" r="0.925"/>
					<circle fill="#FF1D25" cx="105.966" cy="81.697" r="0.925"/>
					<circle fill="#FF1D25" cx="108.41" cy="79.253" r="0.925"/>
					<circle fill="#FF1D25" cx="110.854" cy="81.697" r="0.925"/>
					<circle fill="#FF1D25" cx="113.298" cy="79.253" r="0.925"/>
					<circle fill="#FF1D25" cx="115.742" cy="81.697" r="0.925"/>
					<circle fill="#FF1D25" cx="118.185" cy="79.253" r="0.925"/>
					<circle fill="#FF1D25" cx="120.629" cy="81.697" r="0.925"/>
					<circle fill="#FF1D25" cx="123.073" cy="79.253" r="0.925"/>
					<circle fill="#FF1D25" cx="125.517" cy="81.697" r="0.925"/>
					<circle fill="#FF1D25" cx="127.961" cy="79.253" r="0.925"/>
					<circle fill="#FF1D25" cx="130.405" cy="81.697" r="0.925"/>
					<circle fill="#FF1D25" cx="132.849" cy="79.253" r="0.925"/>
					<circle fill="#FF1D25" cx="135.293" cy="81.697" r="0.925"/>
					<circle fill="#FF1D25" cx="137.737" cy="79.253" r="0.925"/>
					<circle fill="#FF1D25" cx="140.181" cy="81.697" r="0.925"/>
					<circle fill="#FF1D25" cx="142.625" cy="79.253" r="0.925"/>
					<circle fill="#FF1D25" cx="145.069" cy="81.697" r="0.925"/>
					<circle fill="#FF1D25" cx="147.513" cy="79.253" r="0.925"/>
					<circle fill="#FF1D25" cx="149.957" cy="81.697" r="0.925"/>
					<circle fill="#FF1D25" cx="20.427" cy="84.133" r="0.925"/>
					<circle fill="#FF1D25" cx="22.871" cy="86.577" r="0.925"/>
					<circle fill="#FF1D25" cx="25.315" cy="84.133" r="0.925"/>
					<circle fill="#FF1D25" cx="27.759" cy="86.577" r="0.925"/>
					<circle fill="#FF1D25" cx="30.203" cy="84.133" r="0.925"/>
					<circle fill="#FF1D25" cx="32.647" cy="86.577" r="0.925"/>
					<circle fill="#FF1D25" cx="35.091" cy="84.133" r="0.925"/>
					<circle fill="#FF1D25" cx="37.535" cy="86.577" r="0.925"/>
					<circle fill="#FF1D25" cx="39.979" cy="84.133" r="0.925"/>
					<circle fill="#FF1D25" cx="42.423" cy="86.577" r="0.925"/>
					<circle fill="#FF1D25" cx="44.866" cy="84.133" r="0.925"/>
					<circle fill="#FF1D25" cx="47.31" cy="86.577" r="0.925"/>
					<circle fill="#FF1D25" cx="49.754" cy="84.133" r="0.925"/>
					<circle fill="#FF1D25" cx="52.198" cy="86.577" r="0.925"/>
					<circle fill="#FF1D25" cx="54.642" cy="84.133" r="0.925"/>
					<circle fill="#FF1D25" cx="57.086" cy="86.577" r="0.925"/>
					<circle fill="#FF1D25" cx="59.53" cy="84.133" r="0.925"/>
					<circle fill="#FF1D25" cx="61.974" cy="86.577" r="0.925"/>
					<circle fill="#FF1D25" cx="64.418" cy="84.133" r="0.925"/>
					<circle fill="#FF1D25" cx="66.862" cy="86.577" r="0.925"/>
					<circle fill="#FF1D25" cx="69.306" cy="84.133" r="0.925"/>
					<circle fill="#FF1D25" cx="71.75" cy="86.577" r="0.925"/>
					<circle fill="#FF1D25" cx="74.194" cy="84.133" r="0.925"/>
					<circle fill="#FF1D25" cx="76.638" cy="86.577" r="0.925"/>
					<circle fill="#FF1D25" cx="79.082" cy="84.133" r="0.925"/>
					<circle fill="#FF1D25" cx="81.526" cy="86.577" r="0.925"/>
					<circle fill="#FF1D25" cx="83.97" cy="84.133" r="0.925"/>
					<circle fill="#FF1D25" cx="86.414" cy="86.577" r="0.925"/>
					<circle fill="#FF1D25" cx="88.858" cy="84.133" r="0.925"/>
					<circle fill="#FF1D25" cx="91.302" cy="86.577" r="0.925"/>
					<circle fill="#FF1D25" cx="93.746" cy="84.133" r="0.925"/>
					<circle fill="#FF1D25" cx="96.19" cy="86.577" r="0.925"/>
					<circle fill="#FF1D25" cx="98.634" cy="84.133" r="0.925"/>
					<circle fill="#FF1D25" cx="101.078" cy="86.577" r="0.925"/>
					<circle fill="#FF1D25" cx="103.522" cy="84.133" r="0.925"/>
					<circle fill="#FF1D25" cx="105.966" cy="86.577" r="0.925"/>
					<circle fill="#FF1D25" cx="108.41" cy="84.133" r="0.925"/>
					<circle fill="#FF1D25" cx="110.854" cy="86.577" r="0.925"/>
					<circle fill="#FF1D25" cx="113.298" cy="84.133" r="0.925"/>
					<circle fill="#FF1D25" cx="115.742" cy="86.577" r="0.925"/>
					<circle fill="#FF1D25" cx="118.185" cy="84.133" r="0.925"/>
					<circle fill="#FF1D25" cx="120.629" cy="86.577" r="0.925"/>
					<circle fill="#FF1D25" cx="123.073" cy="84.133" r="0.925"/>
					<circle fill="#FF1D25" cx="125.517" cy="86.577" r="0.925"/>
					<circle fill="#FF1D25" cx="127.961" cy="84.133" r="0.925"/>
					<circle fill="#FF1D25" cx="130.405" cy="86.577" r="0.925"/>
					<circle fill="#FF1D25" cx="132.849" cy="84.133" r="0.925"/>
					<circle fill="#FF1D25" cx="135.293" cy="86.577" r="0.925"/>
					<circle fill="#FF1D25" cx="137.737" cy="84.133" r="0.925"/>
					<circle fill="#FF1D25" cx="140.181" cy="86.577" r="0.925"/>
					<circle fill="#FF1D25" cx="142.625" cy="84.133" r="0.925"/>
					<circle fill="#FF1D25" cx="145.069" cy="86.577" r="0.925"/>
					<circle fill="#FF1D25" cx="147.513" cy="84.133" r="0.925"/>
					<circle fill="#FF1D25" cx="149.957" cy="86.577" r="0.925"/>
					<circle fill="#FF1D25" cx="20.427" cy="89.021" r="0.925"/>
					<circle fill="#FF1D25" cx="22.871" cy="91.465" r="0.925"/>
					<circle fill="#FF1D25" cx="25.315" cy="89.021" r="0.925"/>
					<circle fill="#FF1D25" cx="27.759" cy="91.465" r="0.925"/>
					<circle fill="#FF1D25" cx="30.203" cy="89.021" r="0.925"/>
					<circle fill="#FF1D25" cx="32.647" cy="91.465" r="0.925"/>
					<circle fill="#FF1D25" cx="35.091" cy="89.021" r="0.925"/>
					<circle fill="#FF1D25" cx="37.535" cy="91.465" r="0.925"/>
					<circle fill="#FF1D25" cx="39.979" cy="89.021" r="0.925"/>
					<circle fill="#FF1D25" cx="42.423" cy="91.465" r="0.925"/>
					<circle fill="#FF1D25" cx="44.866" cy="89.021" r="0.925"/>
					<circle fill="#FF1D25" cx="47.31" cy="91.465" r="0.925"/>
					<circle fill="#FF1D25" cx="49.754" cy="89.021" r="0.925"/>
					<circle fill="#FF1D25" cx="52.198" cy="91.465" r="0.925"/>
					<circle fill="#FF1D25" cx="54.642" cy="89.021" r="0.925"/>
					<circle fill="#FF1D25" cx="57.086" cy="91.465" r="0.925"/>
					<circle fill="#FF1D25" cx="59.53" cy="89.021" r="0.925"/>
					<circle fill="#FF1D25" cx="61.974" cy="91.465" r="0.925"/>
					<circle fill="#FF1D25" cx="64.418" cy="89.021" r="0.925"/>
					<circle fill="#FF1D25" cx="66.862" cy="91.465" r="0.925"/>
					<circle fill="#FF1D25" cx="69.306" cy="89.021" r="0.925"/>
					<circle fill="#FF1D25" cx="71.75" cy="91.465" r="0.925"/>
					<circle fill="#FF1D25" cx="74.194" cy="89.021" r="0.925"/>
					<circle fill="#FF1D25" cx="76.638" cy="91.465" r="0.925"/>
					<circle fill="#FF1D25" cx="79.082" cy="89.021" r="0.925"/>
					<circle fill="#FF1D25" cx="81.526" cy="91.465" r="0.925"/>
					<circle fill="#FF1D25" cx="83.97" cy="89.021" r="0.925"/>
					<circle fill="#FF1D25" cx="86.414" cy="91.465" r="0.925"/>
					<circle fill="#FF1D25" cx="88.858" cy="89.021" r="0.925"/>
					<circle fill="#FF1D25" cx="91.302" cy="91.465" r="0.925"/>
					<circle fill="#FF1D25" cx="93.746" cy="89.021" r="0.925"/>
					<circle fill="#FF1D25" cx="96.19" cy="91.465" r="0.925"/>
					<circle fill="#FF1D25" cx="98.634" cy="89.021" r="0.925"/>
					<circle fill="#FF1D25" cx="101.078" cy="91.465" r="0.925"/>
					<circle fill="#FF1D25" cx="103.522" cy="89.021" r="0.925"/>
					<circle fill="#FF1D25" cx="105.966" cy="91.465" r="0.925"/>
					<circle fill="#FF1D25" cx="108.41" cy="89.021" r="0.925"/>
					<circle fill="#FF1D25" cx="110.854" cy="91.465" r="0.925"/>
					<circle fill="#FF1D25" cx="113.298" cy="89.021" r="0.925"/>
					<circle fill="#FF1D25" cx="115.742" cy="91.465" r="0.925"/>
					<circle fill="#FF1D25" cx="118.185" cy="89.021" r="0.925"/>
					<circle fill="#FF1D25" cx="120.629" cy="91.465" r="0.925"/>
					<circle fill="#FF1D25" cx="123.073" cy="89.021" r="0.925"/>
					<circle fill="#FF1D25" cx="125.517" cy="91.465" r="0.925"/>
					<circle fill="#FF1D25" cx="127.961" cy="89.021" r="0.925"/>
					<circle fill="#FF1D25" cx="130.405" cy="91.465" r="0.925"/>
					<circle fill="#FF1D25" cx="132.849" cy="89.021" r="0.925"/>
					<circle fill="#FF1D25" cx="135.293" cy="91.465" r="0.925"/>
					<circle fill="#FF1D25" cx="137.737" cy="89.021" r="0.925"/>
					<circle fill="#FF1D25" cx="140.181" cy="91.465" r="0.925"/>
					<circle fill="#FF1D25" cx="142.625" cy="89.021" r="0.925"/>
					<circle fill="#FF1D25" cx="145.069" cy="91.465" r="0.925"/>
					<circle fill="#FF1D25" cx="147.513" cy="89.021" r="0.925"/>
					<circle fill="#FF1D25" cx="149.957" cy="91.465" r="0.925"/>
					<circle fill="#FF1D25" cx="17.983" cy="96.353" r="0.925"/>
					<circle fill="#FF1D25" cx="20.427" cy="93.909" r="0.925"/>
					<circle fill="#FF1D25" cx="22.871" cy="96.353" r="0.925"/>
					<circle fill="#FF1D25" cx="25.315" cy="93.909" r="0.925"/>
					<circle fill="#FF1D25" cx="27.759" cy="96.353" r="0.925"/>
					<circle fill="#FF1D25" cx="30.203" cy="93.909" r="0.925"/>
					<circle fill="#FF1D25" cx="32.647" cy="96.353" r="0.925"/>
					<circle fill="#FF1D25" cx="35.091" cy="93.909" r="0.925"/>
					<circle fill="#FF1D25" cx="37.535" cy="96.353" r="0.925"/>
					<circle fill="#FF1D25" cx="39.979" cy="93.909" r="0.925"/>
					<circle fill="#FF1D25" cx="42.423" cy="96.353" r="0.925"/>
					<circle fill="#FF1D25" cx="44.866" cy="93.909" r="0.925"/>
					<circle fill="#FF1D25" cx="47.31" cy="96.353" r="0.925"/>
					<circle fill="#FF1D25" cx="49.754" cy="93.909" r="0.925"/>
					<circle fill="#FF1D25" cx="52.198" cy="96.353" r="0.925"/>
					<circle fill="#FF1D25" cx="54.642" cy="93.909" r="0.925"/>
					<circle fill="#FF1D25" cx="57.086" cy="96.353" r="0.925"/>
					<circle fill="#FF1D25" cx="59.53" cy="93.909" r="0.925"/>
					<circle fill="#FF1D25" cx="61.974" cy="96.353" r="0.925"/>
					<circle fill="#FF1D25" cx="64.418" cy="93.909" r="0.925"/>
					<circle fill="#FF1D25" cx="66.862" cy="96.353" r="0.925"/>
					<circle fill="#FF1D25" cx="69.306" cy="93.909" r="0.925"/>
					<circle fill="#FF1D25" cx="71.75" cy="96.353" r="0.925"/>
					<circle fill="#FF1D25" cx="74.194" cy="93.909" r="0.925"/>
					<circle fill="#FF1D25" cx="76.638" cy="96.353" r="0.925"/>
					<circle fill="#FF1D25" cx="79.082" cy="93.909" r="0.925"/>
					<circle fill="#FF1D25" cx="81.526" cy="96.353" r="0.925"/>
					<circle fill="#FF1D25" cx="83.97" cy="93.909" r="0.925"/>
					<circle fill="#FF1D25" cx="86.414" cy="96.353" r="0.925"/>
					<circle fill="#FF1D25" cx="88.858" cy="93.909" r="0.925"/>
					<circle fill="#FF1D25" cx="91.302" cy="96.353" r="0.925"/>
					<circle fill="#FF1D25" cx="93.746" cy="93.909" r="0.925"/>
					<circle fill="#FF1D25" cx="96.19" cy="96.353" r="0.925"/>
					<circle fill="#FF1D25" cx="98.634" cy="93.909" r="0.925"/>
					<circle fill="#FF1D25" cx="101.078" cy="96.353" r="0.925"/>
					<circle fill="#FF1D25" cx="103.522" cy="93.909" r="0.925"/>
					<circle fill="#FF1D25" cx="105.966" cy="96.353" r="0.925"/>
					<circle fill="#FF1D25" cx="108.41" cy="93.909" r="0.925"/>
					<circle fill="#FF1D25" cx="110.854" cy="96.353" r="0.925"/>
					<circle fill="#FF1D25" cx="113.298" cy="93.909" r="0.925"/>
					<circle fill="#FF1D25" cx="115.742" cy="96.353" r="0.925"/>
					<circle fill="#FF1D25" cx="118.185" cy="93.909" r="0.925"/>
					<circle fill="#FF1D25" cx="120.629" cy="96.353" r="0.925"/>
					<circle fill="#FF1D25" cx="123.073" cy="93.909" r="0.925"/>
					<circle fill="#FF1D25" cx="125.517" cy="96.353" r="0.925"/>
					<circle fill="#FF1D25" cx="127.961" cy="93.909" r="0.925"/>
					<circle fill="#FF1D25" cx="130.405" cy="96.353" r="0.925"/>
					<circle fill="#FF1D25" cx="132.849" cy="93.909" r="0.925"/>
					<circle fill="#FF1D25" cx="135.293" cy="96.353" r="0.925"/>
					<circle fill="#FF1D25" cx="137.737" cy="93.909" r="0.925"/>
					<circle fill="#FF1D25" cx="140.181" cy="96.353" r="0.925"/>
					<circle fill="#FF1D25" cx="142.625" cy="93.909" r="0.925"/>
					<circle fill="#FF1D25" cx="145.069" cy="96.353" r="0.925"/>
					<circle fill="#FF1D25" cx="147.513" cy="93.909" r="0.925"/>
					<circle fill="#FF1D25" cx="149.957" cy="96.353" r="0.925"/>
					<circle fill="#FF1D25" cx="17.983" cy="101.241" r="0.925"/>
					<circle fill="#FF1D25" cx="20.427" cy="98.797" r="0.925"/>
					<circle fill="#FF1D25" cx="22.871" cy="101.241" r="0.925"/>
					<circle fill="#FF1D25" cx="25.315" cy="98.797" r="0.925"/>
					<circle fill="#FF1D25" cx="27.759" cy="101.241" r="0.925"/>
					<circle fill="#FF1D25" cx="30.203" cy="98.797" r="0.925"/>
					<circle fill="#FF1D25" cx="32.647" cy="101.241" r="0.925"/>
					<circle fill="#FF1D25" cx="35.091" cy="98.797" r="0.925"/>
					<circle fill="#FF1D25" cx="37.535" cy="101.241" r="0.925"/>
					<circle fill="#FF1D25" cx="39.979" cy="98.797" r="0.925"/>
					<circle fill="#FF1D25" cx="42.423" cy="101.241" r="0.925"/>
					<circle fill="#FF1D25" cx="44.866" cy="98.797" r="0.925"/>
					<circle fill="#FF1D25" cx="47.31" cy="101.241" r="0.925"/>
					<circle fill="#FF1D25" cx="49.754" cy="98.797" r="0.925"/>
					<circle fill="#FF1D25" cx="52.198" cy="101.241" r="0.925"/>
					<circle fill="#FF1D25" cx="54.642" cy="98.797" r="0.925"/>
					<circle fill="#FF1D25" cx="57.086" cy="101.241" r="0.925"/>
					<circle fill="#FF1D25" cx="59.53" cy="98.797" r="0.925"/>
					<circle fill="#FF1D25" cx="61.974" cy="101.241" r="0.925"/>
					<circle fill="#FF1D25" cx="64.418" cy="98.797" r="0.925"/>
					<circle fill="#FF1D25" cx="66.862" cy="101.241" r="0.925"/>
					<circle fill="#FF1D25" cx="69.306" cy="98.797" r="0.925"/>
					<circle fill="#FF1D25" cx="71.75" cy="101.241" r="0.925"/>
					<circle fill="#FF1D25" cx="74.194" cy="98.797" r="0.925"/>
					<circle fill="#FF1D25" cx="76.638" cy="101.241" r="0.925"/>
					<circle fill="#FF1D25" cx="79.082" cy="98.797" r="0.925"/>
					<circle fill="#FF1D25" cx="81.526" cy="101.241" r="0.925"/>
					<circle fill="#FF1D25" cx="83.97" cy="98.797" r="0.925"/>
					<circle fill="#FF1D25" cx="86.414" cy="101.241" r="0.925"/>
					<circle fill="#FF1D25" cx="88.858" cy="98.797" r="0.925"/>
					<circle fill="#FF1D25" cx="91.302" cy="101.241" r="0.925"/>
					<circle fill="#FF1D25" cx="93.746" cy="98.797" r="0.925"/>
					<circle fill="#FF1D25" cx="96.19" cy="101.241" r="0.925"/>
					<circle fill="#FF1D25" cx="98.634" cy="98.797" r="0.925"/>
					<circle fill="#FF1D25" cx="101.078" cy="101.241" r="0.925"/>
					<circle fill="#FF1D25" cx="103.522" cy="98.797" r="0.925"/>
					<circle fill="#FF1D25" cx="105.966" cy="101.241" r="0.925"/>
					<circle fill="#FF1D25" cx="108.41" cy="98.797" r="0.925"/>
					<circle fill="#FF1D25" cx="110.854" cy="101.241" r="0.925"/>
					<circle fill="#FF1D25" cx="113.298" cy="98.797" r="0.925"/>
					<circle fill="#FF1D25" cx="115.742" cy="101.241" r="0.925"/>
					<circle fill="#FF1D25" cx="118.185" cy="98.797" r="0.925"/>
					<circle fill="#FF1D25" cx="120.629" cy="101.241" r="0.925"/>
					<circle fill="#FF1D25" cx="123.073" cy="98.797" r="0.925"/>
					<circle fill="#FF1D25" cx="125.517" cy="101.241" r="0.925"/>
					<circle fill="#FF1D25" cx="127.961" cy="98.797" r="0.925"/>
					<circle fill="#FF1D25" cx="130.405" cy="101.241" r="0.925"/>
					<circle fill="#FF1D25" cx="132.849" cy="98.797" r="0.925"/>
					<circle fill="#FF1D25" cx="135.293" cy="101.241" r="0.925"/>
					<circle fill="#FF1D25" cx="137.737" cy="98.797" r="0.925"/>
					<circle fill="#FF1D25" cx="140.181" cy="101.241" r="0.925"/>
					<circle fill="#FF1D25" cx="142.625" cy="98.797" r="0.925"/>
					<circle fill="#FF1D25" cx="145.069" cy="101.241" r="0.925"/>
					<circle fill="#FF1D25" cx="147.513" cy="98.797" r="0.925"/>
					<circle fill="#FF1D25" cx="149.957" cy="101.241" r="0.925"/>
					<circle fill="#FF1D25" cx="17.983" cy="106.129" r="0.925"/>
					<circle fill="#FF1D25" cx="20.427" cy="103.685" r="0.925"/>
					<circle fill="#FF1D25" cx="22.871" cy="106.129" r="0.925"/>
					<circle fill="#FF1D25" cx="25.315" cy="103.685" r="0.925"/>
					<circle fill="#FF1D25" cx="27.759" cy="106.129" r="0.925"/>
					<circle fill="#FF1D25" cx="30.203" cy="103.685" r="0.925"/>
					<circle fill="#FF1D25" cx="32.647" cy="106.129" r="0.925"/>
					<circle fill="#FF1D25" cx="35.091" cy="103.685" r="0.925"/>
					<circle fill="#FF1D25" cx="37.535" cy="106.129" r="0.925"/>
					<circle fill="#FF1D25" cx="39.979" cy="103.685" r="0.925"/>
					<circle fill="#FF1D25" cx="42.423" cy="106.129" r="0.925"/>
					<circle fill="#FF1D25" cx="44.866" cy="103.685" r="0.925"/>
					<circle fill="#FF1D25" cx="47.31" cy="106.129" r="0.925"/>
					<circle fill="#FF1D25" cx="49.754" cy="103.685" r="0.925"/>
					<circle fill="#FF1D25" cx="52.198" cy="106.129" r="0.925"/>
					<circle fill="#FF1D25" cx="54.642" cy="103.685" r="0.925"/>
					<circle fill="#FF1D25" cx="57.086" cy="106.129" r="0.925"/>
					<circle fill="#FF1D25" cx="59.53" cy="103.685" r="0.925"/>
					<circle fill="#FF1D25" cx="61.974" cy="106.129" r="0.925"/>
					<circle fill="#FF1D25" cx="64.418" cy="103.685" r="0.925"/>
					<circle fill="#FF1D25" cx="66.862" cy="106.129" r="0.925"/>
					<circle fill="#FF1D25" cx="69.306" cy="103.685" r="0.925"/>
					<circle fill="#FF1D25" cx="71.75" cy="106.129" r="0.925"/>
					<circle fill="#FF1D25" cx="74.194" cy="103.685" r="0.925"/>
					<circle fill="#FF1D25" cx="76.638" cy="106.129" r="0.925"/>
					<circle fill="#FF1D25" cx="79.082" cy="103.685" r="0.925"/>
					<circle fill="#FF1D25" cx="81.526" cy="106.129" r="0.925"/>
					<circle fill="#FF1D25" cx="83.97" cy="103.685" r="0.925"/>
					<circle fill="#FF1D25" cx="86.414" cy="106.129" r="0.925"/>
					<circle fill="#FF1D25" cx="88.858" cy="103.685" r="0.925"/>
					<circle fill="#FF1D25" cx="91.302" cy="106.129" r="0.925"/>
					<circle fill="#FF1D25" cx="93.746" cy="103.685" r="0.925"/>
					<circle fill="#FF1D25" cx="96.19" cy="106.129" r="0.925"/>
					<circle fill="#FF1D25" cx="98.634" cy="103.685" r="0.925"/>
					<circle fill="#FF1D25" cx="101.078" cy="106.129" r="0.925"/>
					<circle fill="#FF1D25" cx="103.522" cy="103.685" r="0.925"/>
					<circle fill="#FF1D25" cx="105.966" cy="106.129" r="0.925"/>
					<circle fill="#FF1D25" cx="108.41" cy="103.685" r="0.925"/>
					<circle fill="#FF1D25" cx="110.854" cy="106.129" r="0.925"/>
					<circle fill="#FF1D25" cx="113.298" cy="103.685" r="0.925"/>
					<circle fill="#FF1D25" cx="115.742" cy="106.129" r="0.925"/>
					<circle fill="#FF1D25" cx="118.185" cy="103.685" r="0.925"/>
					<circle fill="#FF1D25" cx="120.629" cy="106.129" r="0.925"/>
					<circle fill="#FF1D25" cx="123.073" cy="103.685" r="0.925"/>
					<circle fill="#FF1D25" cx="125.517" cy="106.129" r="0.925"/>
					<circle fill="#FF1D25" cx="127.961" cy="103.685" r="0.925"/>
					<circle fill="#FF1D25" cx="130.405" cy="106.129" r="0.925"/>
					<circle fill="#FF1D25" cx="132.849" cy="103.685" r="0.925"/>
					<circle fill="#FF1D25" cx="135.293" cy="106.129" r="0.925"/>
					<circle fill="#FF1D25" cx="137.737" cy="103.685" r="0.925"/>
					<circle fill="#FF1D25" cx="140.181" cy="106.129" r="0.925"/>
					<circle fill="#FF1D25" cx="142.625" cy="103.685" r="0.925"/>
					<circle fill="#FF1D25" cx="145.069" cy="106.129" r="0.925"/>
					<circle fill="#FF1D25" cx="147.513" cy="103.685" r="0.925"/>
					<circle fill="#FF1D25" cx="149.957" cy="106.129" r="0.925"/>
					<circle fill="#FF1D25" cx="20.427" cy="108.573" r="0.925"/>
					<circle fill="#FF1D25" cx="22.871" cy="111.017" r="0.925"/>
					<circle fill="#FF1D25" cx="25.315" cy="108.573" r="0.925"/>
					<circle fill="#FF1D25" cx="27.759" cy="111.017" r="0.925"/>
					<circle fill="#FF1D25" cx="30.203" cy="108.573" r="0.925"/>
					<circle fill="#FF1D25" cx="32.647" cy="111.017" r="0.925"/>
					<circle fill="#FF1D25" cx="35.091" cy="108.573" r="0.925"/>
					<circle fill="#FF1D25" cx="37.535" cy="111.017" r="0.925"/>
					<circle fill="#FF1D25" cx="39.979" cy="108.573" r="0.925"/>
					<circle fill="#FF1D25" cx="42.423" cy="111.017" r="0.925"/>
					<circle fill="#FF1D25" cx="44.866" cy="108.573" r="0.925"/>
					<circle fill="#FF1D25" cx="47.31" cy="111.017" r="0.925"/>
					<circle fill="#FF1D25" cx="49.754" cy="108.573" r="0.925"/>
					<circle fill="#FF1D25" cx="52.198" cy="111.017" r="0.925"/>
					<circle fill="#FF1D25" cx="54.642" cy="108.573" r="0.925"/>
					<circle fill="#FF1D25" cx="57.086" cy="111.017" r="0.925"/>
					<circle fill="#FF1D25" cx="59.53" cy="108.573" r="0.925"/>
					<circle fill="#FF1D25" cx="61.974" cy="111.017" r="0.925"/>
					<circle fill="#FF1D25" cx="64.418" cy="108.573" r="0.925"/>
					<circle fill="#FF1D25" cx="66.862" cy="111.017" r="0.925"/>
					<circle fill="#FF1D25" cx="69.306" cy="108.573" r="0.925"/>
					<circle fill="#FF1D25" cx="71.75" cy="111.017" r="0.925"/>
					<circle fill="#FF1D25" cx="74.194" cy="108.573" r="0.925"/>
					<circle fill="#FF1D25" cx="76.638" cy="111.017" r="0.925"/>
					<circle fill="#FF1D25" cx="79.082" cy="108.573" r="0.925"/>
					<circle fill="#FF1D25" cx="81.526" cy="111.017" r="0.925"/>
					<circle fill="#FF1D25" cx="83.97" cy="108.573" r="0.925"/>
					<circle fill="#FF1D25" cx="86.414" cy="111.017" r="0.925"/>
					<circle fill="#FF1D25" cx="88.858" cy="108.573" r="0.925"/>
					<circle fill="#FF1D25" cx="91.302" cy="111.017" r="0.925"/>
					<circle fill="#FF1D25" cx="93.746" cy="108.573" r="0.925"/>
					<circle fill="#FF1D25" cx="96.19" cy="111.017" r="0.925"/>
					<circle fill="#FF1D25" cx="98.634" cy="108.573" r="0.925"/>
					<circle fill="#FF1D25" cx="101.078" cy="111.017" r="0.925"/>
					<circle fill="#FF1D25" cx="103.522" cy="108.573" r="0.925"/>
					<circle fill="#FF1D25" cx="105.966" cy="111.017" r="0.925"/>
					<circle fill="#FF1D25" cx="108.41" cy="108.573" r="0.925"/>
					<circle fill="#FF1D25" cx="110.854" cy="111.017" r="0.925"/>
					<circle fill="#FF1D25" cx="113.298" cy="108.573" r="0.925"/>
					<circle fill="#FF1D25" cx="115.742" cy="111.017" r="0.925"/>
					<circle fill="#FF1D25" cx="118.185" cy="108.573" r="0.925"/>
					<circle fill="#FF1D25" cx="120.629" cy="111.017" r="0.925"/>
					<circle fill="#FF1D25" cx="123.073" cy="108.573" r="0.925"/>
					<circle fill="#FF1D25" cx="125.517" cy="111.017" r="0.925"/>
					<circle fill="#FF1D25" cx="127.961" cy="108.573" r="0.925"/>
					<circle fill="#FF1D25" cx="130.405" cy="111.017" r="0.925"/>
					<circle fill="#FF1D25" cx="132.849" cy="108.573" r="0.925"/>
					<circle fill="#FF1D25" cx="135.293" cy="111.017" r="0.925"/>
					<circle fill="#FF1D25" cx="137.737" cy="108.573" r="0.925"/>
					<circle fill="#FF1D25" cx="140.181" cy="111.017" r="0.925"/>
					<circle fill="#FF1D25" cx="142.625" cy="108.573" r="0.925"/>
					<circle fill="#FF1D25" cx="145.069" cy="111.017" r="0.925"/>
					<circle fill="#FF1D25" cx="147.513" cy="108.573" r="0.925"/>
					<circle fill="#FF1D25" cx="20.427" cy="113.461" r="0.925"/>
					<circle fill="#FF1D25" cx="22.871" cy="115.905" r="0.925"/>
					<circle fill="#FF1D25" cx="25.315" cy="113.461" r="0.925"/>
					<circle fill="#FF1D25" cx="27.759" cy="115.905" r="0.925"/>
					<circle fill="#FF1D25" cx="30.203" cy="113.461" r="0.925"/>
					<circle fill="#FF1D25" cx="32.647" cy="115.905" r="0.925"/>
					<circle fill="#FF1D25" cx="35.091" cy="113.461" r="0.925"/>
					<circle fill="#FF1D25" cx="37.535" cy="115.905" r="0.925"/>
					<circle fill="#FF1D25" cx="39.979" cy="113.461" r="0.925"/>
					<circle fill="#FF1D25" cx="42.423" cy="115.905" r="0.925"/>
					<circle fill="#FF1D25" cx="44.866" cy="113.461" r="0.925"/>
					<circle fill="#FF1D25" cx="47.31" cy="115.905" r="0.925"/>
					<circle fill="#FF1D25" cx="49.754" cy="113.461" r="0.925"/>
					<circle fill="#FF1D25" cx="52.198" cy="115.905" r="0.925"/>
					<circle fill="#FF1D25" cx="54.642" cy="113.461" r="0.925"/>
					<circle fill="#FF1D25" cx="57.086" cy="115.905" r="0.925"/>
					<circle fill="#FF1D25" cx="59.53" cy="113.461" r="0.925"/>
					<circle fill="#FF1D25" cx="61.974" cy="115.905" r="0.925"/>
					<circle fill="#FF1D25" cx="64.418" cy="113.461" r="0.925"/>
					<circle fill="#FF1D25" cx="66.862" cy="115.905" r="0.925"/>
					<circle fill="#FF1D25" cx="69.306" cy="113.461" r="0.925"/>
					<circle fill="#FF1D25" cx="71.75" cy="115.905" r="0.925"/>
					<circle fill="#FF1D25" cx="74.194" cy="113.461" r="0.925"/>
					<circle fill="#FF1D25" cx="76.638" cy="115.905" r="0.925"/>
					<circle fill="#FF1D25" cx="79.082" cy="113.461" r="0.925"/>
					<circle fill="#FF1D25" cx="81.526" cy="115.905" r="0.925"/>
					<circle fill="#FF1D25" cx="83.97" cy="113.461" r="0.925"/>
					<circle fill="#FF1D25" cx="86.414" cy="115.905" r="0.925"/>
					<circle fill="#FF1D25" cx="88.858" cy="113.461" r="0.925"/>
					<circle fill="#FF1D25" cx="91.302" cy="115.905" r="0.925"/>
					<circle fill="#FF1D25" cx="93.746" cy="113.461" r="0.925"/>
					<circle fill="#FF1D25" cx="96.19" cy="115.905" r="0.925"/>
					<circle fill="#FF1D25" cx="98.634" cy="113.461" r="0.925"/>
					<circle fill="#FF1D25" cx="101.078" cy="115.905" r="0.925"/>
					<circle fill="#FF1D25" cx="103.522" cy="113.461" r="0.925"/>
					<circle fill="#FF1D25" cx="105.966" cy="115.905" r="0.925"/>
					<circle fill="#FF1D25" cx="108.41" cy="113.461" r="0.925"/>
					<circle fill="#FF1D25" cx="110.854" cy="115.905" r="0.925"/>
					<circle fill="#FF1D25" cx="113.298" cy="113.461" r="0.925"/>
					<circle fill="#FF1D25" cx="115.742" cy="115.905" r="0.925"/>
					<circle fill="#FF1D25" cx="118.185" cy="113.461" r="0.925"/>
					<circle fill="#FF1D25" cx="120.629" cy="115.905" r="0.925"/>
					<circle fill="#FF1D25" cx="123.073" cy="113.461" r="0.925"/>
					<circle fill="#FF1D25" cx="125.517" cy="115.905" r="0.925"/>
					<circle fill="#FF1D25" cx="127.961" cy="113.461" r="0.925"/>
					<circle fill="#FF1D25" cx="130.405" cy="115.905" r="0.925"/>
					<circle fill="#FF1D25" cx="132.849" cy="113.461" r="0.925"/>
					<circle fill="#FF1D25" cx="135.293" cy="115.905" r="0.925"/>
					<circle fill="#FF1D25" cx="137.737" cy="113.461" r="0.925"/>
					<circle fill="#FF1D25" cx="140.181" cy="115.905" r="0.925"/>
					<circle fill="#FF1D25" cx="142.625" cy="113.461" r="0.925"/>
					<circle fill="#FF1D25" cx="145.069" cy="115.905" r="0.925"/>
					<circle fill="#FF1D25" cx="147.513" cy="113.461" r="0.925"/>
					<circle fill="#FF1D25" cx="25.315" cy="118.349" r="0.925"/>
					<circle fill="#FF1D25" cx="27.759" cy="120.793" r="0.925"/>
					<circle fill="#FF1D25" cx="30.203" cy="118.349" r="0.925"/>
					<circle fill="#FF1D25" cx="32.647" cy="120.793" r="0.925"/>
					<circle fill="#FF1D25" cx="35.091" cy="118.349" r="0.925"/>
					<circle fill="#FF1D25" cx="37.535" cy="120.793" r="0.925"/>
					<circle fill="#FF1D25" cx="39.979" cy="118.349" r="0.925"/>
					<circle fill="#FF1D25" cx="42.423" cy="120.793" r="0.925"/>
					<circle fill="#FF1D25" cx="44.866" cy="118.349" r="0.925"/>
					<circle fill="#FF1D25" cx="47.31" cy="120.793" r="0.925"/>
					<circle fill="#FF1D25" cx="49.754" cy="118.349" r="0.925"/>
					<circle fill="#FF1D25" cx="52.198" cy="120.793" r="0.925"/>
					<circle fill="#FF1D25" cx="54.642" cy="118.349" r="0.925"/>
					<circle fill="#FF1D25" cx="57.086" cy="120.793" r="0.925"/>
					<circle fill="#FF1D25" cx="59.53" cy="118.349" r="0.925"/>
					<circle fill="#FF1D25" cx="61.974" cy="120.793" r="0.925"/>
					<circle fill="#FF1D25" cx="64.418" cy="118.349" r="0.925"/>
					<circle fill="#FF1D25" cx="66.862" cy="120.793" r="0.925"/>
					<circle fill="#FF1D25" cx="69.306" cy="118.349" r="0.925"/>
					<circle fill="#FF1D25" cx="71.75" cy="120.793" r="0.925"/>
					<circle fill="#FF1D25" cx="74.194" cy="118.349" r="0.925"/>
					<circle fill="#FF1D25" cx="76.638" cy="120.793" r="0.925"/>
					<circle fill="#FF1D25" cx="79.082" cy="118.349" r="0.925"/>
					<circle fill="#FF1D25" cx="81.526" cy="120.793" r="0.925"/>
					<circle fill="#FF1D25" cx="83.97" cy="118.349" r="0.925"/>
					<circle fill="#FF1D25" cx="86.414" cy="120.793" r="0.925"/>
					<circle fill="#FF1D25" cx="88.858" cy="118.349" r="0.925"/>
					<circle fill="#FF1D25" cx="91.302" cy="120.793" r="0.925"/>
					<circle fill="#FF1D25" cx="93.746" cy="118.349" r="0.925"/>
					<circle fill="#FF1D25" cx="96.19" cy="120.793" r="0.925"/>
					<circle fill="#FF1D25" cx="98.634" cy="118.349" r="0.925"/>
					<circle fill="#FF1D25" cx="101.078" cy="120.793" r="0.925"/>
					<circle fill="#FF1D25" cx="103.522" cy="118.349" r="0.925"/>
					<circle fill="#FF1D25" cx="105.966" cy="120.793" r="0.925"/>
					<circle fill="#FF1D25" cx="108.41" cy="118.349" r="0.925"/>
					<circle fill="#FF1D25" cx="110.854" cy="120.793" r="0.925"/>
					<circle fill="#FF1D25" cx="113.298" cy="118.349" r="0.925"/>
					<circle fill="#FF1D25" cx="115.742" cy="120.793" r="0.925"/>
					<circle fill="#FF1D25" cx="118.185" cy="118.349" r="0.925"/>
					<circle fill="#FF1D25" cx="120.629" cy="120.793" r="0.925"/>
					<circle fill="#FF1D25" cx="123.073" cy="118.349" r="0.925"/>
					<circle fill="#FF1D25" cx="125.517" cy="120.793" r="0.925"/>
					<circle fill="#FF1D25" cx="127.961" cy="118.349" r="0.925"/>
					<circle fill="#FF1D25" cx="130.405" cy="120.793" r="0.925"/>
					<circle fill="#FF1D25" cx="132.849" cy="118.349" r="0.925"/>
					<circle fill="#FF1D25" cx="135.293" cy="120.793" r="0.925"/>
					<circle fill="#FF1D25" cx="137.737" cy="118.349" r="0.925"/>
					<circle fill="#FF1D25" cx="140.181" cy="120.793" r="0.925"/>
					<circle fill="#FF1D25" cx="142.625" cy="118.349" r="0.925"/>
					<circle fill="#FF1D25" cx="30.203" cy="123.237" r="0.925"/>
					<circle fill="#FF1D25" cx="35.091" cy="123.237" r="0.925"/>
					<circle fill="#FF1D25" cx="39.979" cy="123.237" r="0.925"/>
					<circle fill="#FF1D25" cx="44.866" cy="123.237" r="0.925"/>
					<circle fill="#FF1D25" cx="49.754" cy="123.237" r="0.925"/>
					<circle fill="#FF1D25" cx="54.642" cy="123.237" r="0.925"/>
					<circle fill="#FF1D25" cx="59.53" cy="123.237" r="0.925"/>
					<circle fill="#FF1D25" cx="64.418" cy="123.237" r="0.925"/>
					<circle fill="#FF1D25" cx="69.306" cy="123.237" r="0.925"/>
					<circle fill="#FF1D25" cx="74.194" cy="123.237" r="0.925"/>
					<circle fill="#FF1D25" cx="79.082" cy="123.237" r="0.925"/>
					<circle fill="#FF1D25" cx="83.97" cy="123.237" r="0.925"/>
					<circle fill="#FF1D25" cx="88.858" cy="123.237" r="0.925"/>
					<circle fill="#FF1D25" cx="93.746" cy="123.237" r="0.925"/>
					<circle fill="#FF1D25" cx="98.634" cy="123.237" r="0.925"/>
					<circle fill="#FF1D25" cx="103.522" cy="123.237" r="0.925"/>
				</g>
			</g>
			<g>
				<g>
					<g>
						<path d="M130.598,117.09c0.289,0,0.997,1.204,0.997,3.437c0,2.233-0.708,3.437-0.997,3.437s-0.997-1.204-0.997-3.437
							C129.601,118.294,130.309,117.09,130.598,117.09 M130.598,116.59c-0.827,0-1.497,1.763-1.497,3.937
							c0,2.174,0.67,3.937,1.497,3.937c0.827,0,1.497-1.763,1.497-3.937C132.095,118.353,131.425,116.59,130.598,116.59
							L130.598,116.59z"/>
					</g>
				</g>
				<path fill="none" stroke="#000000" stroke-width="0.5" stroke-miterlimit="10" d="M130.588,110.57
					c1.542,0.939,2.703,4.998,2.703,9.864c0,5.561-1.516,10.068-3.385,10.068c-1.593,0-2.929-3.273-3.289-7.682"/>
				<g>
					<g>
						<path d="M94.498,123.232c0.443,0,1.305,1.499,1.305,4.247c0,2.748-0.862,4.247-1.305,4.247c-0.443,0-1.305-1.499-1.305-4.247
							C93.193,124.731,94.055,123.232,94.498,123.232 M94.498,122.732c-0.997,0-1.805,2.125-1.805,4.747s0.808,4.747,1.805,4.747
							c0.997,0,1.805-2.125,1.805-4.747S95.495,122.732,94.498,122.732L94.498,122.732z"/>
					</g>
				</g>
				<g>
					<g>
						<path d="M93.97,120.501c1.087,0,2.302,2.937,2.302,6.868c0,3.931-1.215,6.868-2.302,6.868c-1.087,0-2.302-2.937-2.302-6.868
							C91.668,123.438,92.883,120.501,93.97,120.501 M93.97,120.001c-1.547,0-2.802,3.299-2.802,7.368
							c0,4.069,1.254,7.368,2.802,7.368c1.548,0,2.802-3.299,2.802-7.368C96.772,123.299,95.517,120.001,93.97,120.001
							L93.97,120.001z"/>
					</g>
				</g>
				<g>
					<g>
						<path d="M93.664,115.727c1.694,0,3.582,4.781,3.582,11.641c0,6.86-1.888,11.641-3.582,11.641
							c-1.694,0-3.582-4.781-3.582-11.641C90.082,120.508,91.97,115.727,93.664,115.727 M93.664,115.227
							c-2.254,0-4.082,5.436-4.082,12.141s1.827,12.141,4.082,12.141c2.254,0,4.082-5.436,4.082-12.141
							S95.918,115.227,93.664,115.227L93.664,115.227z"/>
					</g>
				</g>
				<path fill="none" stroke="#000000" stroke-width="0.5" stroke-miterlimit="10" d="M93.668,115.24"/>
				<path fill="none" stroke="#000000" stroke-width="0.5" stroke-miterlimit="10" d="M93.544,115.402l-2.13-0.004l0.544-0.956
					c0,0,0.735-1.605,4.078-1.605c3.343,0,4.279,1.337,4.279,4.613c0,3.276,0.802,9.762-0.802,12.236"/>
				<path fill="none" stroke="#000000" stroke-width="0.5" stroke-miterlimit="10" d="M133.29,120.46
					c0-4.882-1.168-8.831-2.718-9.751c0.707-2.747,0.925-2.887,2.306-2.887h1.137c0,0,1.471,0.15,1.337,1.488
					c-0.134,1.337-0.535,10.874-1.203,12.077"/>
				<path fill="none" stroke="#000000" stroke-width="0.5" stroke-miterlimit="10" d="M130.572,110.709
					c0,0-1.137,11.556-3.344,12.057c-2.206,0.501-5.717,1.605-5.717,1.605"/>
				<path fill="none" stroke="#000000" stroke-width="0.5" stroke-miterlimit="10" d="M130.16,114.325
					c1.283,0,2.324,2.736,2.324,6.11c0,3.375-1.04,6.11-2.324,6.11c-1.035,0-1.912-1.78-2.213-4.239"/>
				<path fill="none" stroke="#000000" stroke-width="0.5" stroke-miterlimit="10" d="M91.389,115.444c0,0-1.571,1.739-1.972,3.276
					v1.337h0.401c0,0-0.669,7.154-2.608,7.556c-1.939,0.401-3.945,0.802-3.945,0.802"/>
				<path fill="none" stroke="#000000" stroke-width="0.5" stroke-miterlimit="10" d="M40.357,128.751
					c-0.309,5.794-1.996,10.223-4.031,10.223c-2.049,0-3.746-4.492-4.037-10.346"/>
				<path fill="none" stroke="#000000" stroke-width="0.5" stroke-miterlimit="10" d="M25.579,127.331c0,0,7.404,1.419,8.541,1.486
					c1.137,0.067,5.617,0.535,5.617,0.535"/>
				<path fill="#FFFFFF" stroke="#231F20" stroke-width="0.5" d="M92.626,63.892c0,0-49.948,0.602-60.178,1.705l-3.912,24.171
					c0,0-0.501,2.106,1.906,2.307c2.407,0.201,14.643,0.401,27.281,0.401c0,0,26.077,0.201,32.797-1.003
					c0,0,2.207-0.903,2.207-2.206l0.802-24.372C93.528,64.895,93.428,63.892,92.626,63.892z"/>
				<polygon fill="#FFFFFF" stroke="#231F20" stroke-width="0.5" points="100.098,67.051 108.723,67.803 108.473,63.741 
					99.847,62.839 				"/>
				<polygon fill="#FFFFFF" stroke="#231F20" stroke-width="0.5" points="110.228,69.258 114.34,69.458 113.989,64.193 
					109.877,63.842 				"/>
				<polygon fill="#FFFFFF" stroke="#231F20" stroke-width="0.5" points="115.393,69.458 119.505,69.659 119.204,64.594 
					115.092,64.243 				"/>
				<polygon fill="#FFFFFF" stroke="#231F20" stroke-width="0.5" points="132.066,71.404 135.814,71.587 135.494,66.787 
					131.746,66.467 				"/>
				<polygon fill="#FFFFFF" stroke="#231F20" stroke-width="0.5" points="136.774,71.587 140.523,71.77 140.249,67.153 
					136.5,66.833 				"/>
				<polygon fill="#FFFFFF" stroke="#231F20" stroke-width="0.5" points="101.602,84.347 109.977,84.347 108.874,69.28 
					100.349,68.74 				"/>
				<polygon fill="#FFFFFF" stroke="#231F20" stroke-width="0.5" points="111.883,89.166 121.01,89.066 119.656,70.887 
					110.378,70.298 				"/>
				<polygon fill="#FFFFFF" stroke="#231F20" stroke-width="0.5" points="133.637,88.653 141.928,88.562 140.698,72.85 
					132.27,72.314 				"/>
				<polygon fill="#FFFFFF" stroke="#231F20" stroke-width="0.5" points="122.213,89.016 132.142,88.815 130.337,65.672 
					120.408,64.682 				"/>
				
					<line fill="none" stroke="#000000" stroke-width="0.5" stroke-miterlimit="10" x1="101.408" y1="84.347" x2="109.671" y2="84.347"/>
				<polygon fill="#FFFFFF" stroke="#231F20" stroke-width="0.5" points="110.378,89.066 102.054,89.166 101.652,85.42 
					110.077,85.37 				"/>
				<path fill="#FFFFFF" stroke="#231F20" stroke-width="0.5" d="M32.916,62.153c0,0,50.884-1.872,59.442-1.805
					c0,0,1.404-5.416-3.343-7.823c-4.747-2.407-25.275-1.538-25.275-1.538s-23.469,1.07-27.682,3.477
					C31.846,56.871,32.916,62.153,32.916,62.153z"/>
				<path fill="none" stroke="#000000" stroke-width="0.5" stroke-miterlimit="10" d="M74.773,104.01l9.328,0.05l2.307-0.251
					c0,0,0.853-0.1,0.752,0.702c-0.1,0.802-0.15,8.325-4.062,8.375c-3.911,0.05-11.735,0-11.735,0L74.773,104.01z"/>
				<path fill="none" stroke="#000000" stroke-width="0.5" stroke-miterlimit="10" d="M73.413,106.833h9.383
					c0,0,3.081-0.15,3.934-0.501"/>
				<path fill="none" stroke="#000000" stroke-width="0.5" stroke-miterlimit="10" d="M22.433,104.091
					c1.204,0.201,8.31,0.27,8.31,0.27l2.858,8.174l-10.08-0.05"/>
				
					<line fill="none" stroke="#000000" stroke-width="0.5" stroke-miterlimit="10" x1="22.719" y1="106.618" x2="31.495" y2="106.819"/>
				<polygon fill="#FFFFFF" stroke="#231F20" stroke-width="0.5" points="141.921,69.207 143.326,88.515 145.983,88.414 
					144.479,69.508 				"/>
				<path fill="none" stroke="#000000" stroke-width="0.5" stroke-miterlimit="10" d="M98.911,65.563l1.739,32.964l-2.14,0.134
					c0,0-2.608-0.669-2.608-11.033C95.902,77.265,95.033,65.028,98.911,65.563z"/>
				<path fill="none" stroke="#000000" stroke-width="0.5" stroke-miterlimit="10" d="M101.586,117.65
					c0.602-5.148-0.201-26.679-0.201-26.679l41.523-1.404l-2.073-24.004l5.082,0.602"/>
				
					<line fill="none" stroke="#000000" stroke-width="0.5" stroke-miterlimit="10" x1="100.449" y1="118.119" x2="130.137" y2="112.703"/>
				<path fill="none" stroke="#000000" stroke-width="0.5" stroke-miterlimit="10" d="M146.719,109.761l-4.012,0.468
					c0.669-4.212,0.201-20.661,0.201-20.661l4.012-0.067"/>
				<path fill="none" stroke="#000000" stroke-width="0.5" stroke-miterlimit="10" d="M140.768,65.998l-41.422-4.814l-0.201,3.41
					c0,0-3.109-2.006-3.209,5.717"/>
				<path fill="none" stroke="#000000" stroke-width="0.5" stroke-miterlimit="10" d="M25.11,118.587c0,0,13.456,1.17,28.2,1.271
					c14.744,0.1,30.49,0.1,30.49,0.1l5.416-0.301"/>
				<path fill="none" stroke="#000000" stroke-width="0.5" stroke-miterlimit="10" d="M24.625,117.35c0,0,15.245,0.602,28.284,0.501
					c13.039-0.1,36.307,0.401,36.307,0.401"/>
				
					<line fill="none" stroke="#000000" stroke-width="0.5" stroke-miterlimit="10" x1="30.743" y1="104.361" x2="74.773" y2="104.01"/>
				<path fill="none" stroke="#000000" stroke-width="0.5" stroke-miterlimit="10" d="M33.601,112.535c0,0,0.652,1.638,1.989,1.638
					l32.764,0.535c0,0,2.006,0.234,3.009-1.822"/>
				<path fill="#FFFFFF" stroke="#231F20" stroke-width="0.5" d="M33.601,112.535c0,0,0.652,1.638,1.989,1.638l32.764,0.535
					c0,0,2.006,0.234,3.009-1.822l3.41-8.876l-44.03,0.351L33.601,112.535z"/>
			</g>
			<g>
				<path fill="#231F20" d="M64.264,48.989c29.086,0,31.013,2.349,32.886,2.95c1.872,0.602,3.655,1.087,3.655,1.087l40.407,6.653
					c4.48,0.602,4.856,4.614,4.856,4.614l1.02,14.376v32.095c0,1.07-0.819,1.688-0.819,1.688l-9.445,8.91h-3.477l-0.07-0.001
					c-0.153,5.141-1.605,9.194-3.373,9.194l0.032,0.035h-5.519c-1.401,0-2.602-2.572-3.117-6.181l-21.787,5.278l0.134-0.1h-1.805
					l-0.153-0.009c-0.344,5.668-2.004,9.982-4.007,9.982l-0.052,0.057h-6.585c-2.111,0-3.854-4.815-4.066-10.928
					c-5.945,0.811-15.804,1.368-24.391,1.368c-1.026,0-2.036-0.008-3.017-0.024c-6.688-0.112-11.947-0.423-15.275-0.684
					c-0.387,5.509-2.055,9.668-4.022,9.668l-0.013-0.002h-6.553c-2.2,0-4.043-5.199-4.128-11.683
					c-0.745-0.219-1.188-0.386-1.188-0.386l-2.273-3.477v-3.343c0-0.602,0.593-0.869,0.593-0.869l2.399-0.669l-0.919-1.538
					l-1.471-6.82v-6.553c0-8.559,3.627-10.698,3.627-10.698l4.696-30.49l-0.068-3.275c0-6.218,6.349-7.754,6.349-7.754
					C44.21,49.587,64.264,48.989,64.264,48.989 M64.264,47.989c-0.01,0-0.02,0-0.03,0c-0.824,0.025-20.251,0.623-27.173,2.504
					c-2.433,0.588-7.087,3.178-7.087,8.719l0.067,3.209l-4.622,30.004c-1.053,0.889-3.7,3.86-3.7,11.249v6.553
					c0,0.071,0.008,0.142,0.022,0.211l1.471,6.82c0.023,0.107,0.063,0.209,0.119,0.302l0.247,0.413l-1.137,0.317
					c-0.049,0.014-0.096,0.031-0.142,0.052c-0.439,0.198-1.183,0.796-1.183,1.781v3.343c0,0.194,0.057,0.385,0.163,0.547
					l2.273,3.477c0.116,0.177,0.285,0.313,0.484,0.388c0.013,0.005,0.211,0.08,0.558,0.193c0.205,6.049,1.978,11.941,5.11,11.941
					h6.513c0.018,0.001,0.036,0.002,0.053,0.002c2.942,0,4.463-4.963,4.934-9.596c3.225,0.235,8.1,0.507,14.347,0.612
					c0.987,0.017,2.002,0.025,3.034,0.025c8.134,0,17.355-0.492,23.444-1.238c0.457,7.448,2.803,10.798,5.014,10.798h6.585
					c0.135,0,0.267-0.027,0.389-0.079c2.781-0.372,4.186-5.335,4.598-9.951h0.46c0.135,0.065,0.284,0.101,0.437,0.101
					c0.078,0,0.157-0.009,0.236-0.028l20.742-5.025c0.453,2.367,1.535,5.956,3.926,5.956h5.519c0.129,0,0.254-0.025,0.369-0.071
					c2.373-0.431,3.649-4.682,3.927-9.157l2.591,0c0.255,0,0.501-0.098,0.686-0.273l9.416-8.882c0.255-0.21,1.162-1.055,1.162-2.443
					V78.669c0-0.024-0.001-0.047-0.003-0.071l-1.02-14.376c-0.158-1.684-1.553-4.974-5.72-5.534l-40.326-6.64
					c-0.297-0.082-1.904-0.527-3.563-1.06c-0.181-0.058-0.362-0.137-0.577-0.227C94.754,49.861,90.333,47.989,64.264,47.989
					L64.264,47.989z"/>
			</g>
		</g>
	</g>
</g>
</svg>
