<?xml version="1.0" encoding="UTF-8" standalone="no"?>
<svg
   xmlns:dc="http://purl.org/dc/elements/1.1/"
   xmlns:cc="http://creativecommons.org/ns#"
   xmlns:rdf="http://www.w3.org/1999/02/22-rdf-syntax-ns#"
   xmlns:svg="http://www.w3.org/2000/svg"
   xmlns="http://www.w3.org/2000/svg"
   width="200.0005"
   height="195.60275"
   id="svg10845"
   version="1.1">
  <defs
     id="defs4809">
    <pattern
       patternUnits="userSpaceOnUse"
       width="5"
       height="5"
       patternTransform="rotate(20)"
       id="polka">
      <rect
         id="polka__bg"
         style="fill:#ffffff"
         width="5"
         height="5"
         x="0"
         y="0" />
      <circle
         id="polka__inner"
         r="1.5"
         cy="2"
         style="fill:#4dc6dd"
         cx="2" />
    </pattern>
  </defs>
  <metadata
     id="metadata10850">
    <rdf:RDF>
      <cc:Work
         rdf:about="">
        <dc:format>image/svg+xml</dc:format>
        <dc:type
           rdf:resource="http://purl.org/dc/dcmitype/StillImage" />
        <dc:title></dc:title>
      </cc:Work>
    </rdf:RDF>
  </metadata>
  <g
     id="layer1"
     transform="translate(-282.08096,-278.41122)"
     style="display:inline">
    <ellipse
       ry="74.950493"
       rx="74.9505"
       cy="398.07648"
       cx="382.06821"
       id="path6022"
       style="color:#000000;display:inline;overflow:visible;visibility:visible;opacity:1;fill:none;fill-opacity:1;fill-rule:nonzero;stroke:#000000;stroke-width:2;stroke-miterlimit:4;stroke-dasharray:none;stroke-opacity:1;marker:none;enable-background:accumulate" />
    <g
       transform="translate(-3.1347655e-6,-1.7480468e-6)"
       id="layer1-2">
      <path
         style="fill:#ffffff;fill-opacity:1;fill-rule:nonzero;stroke:none"
         id="path2644"
         d="m 389.00196,449.41722 c -8.37875,0 -11.20625,-4.48375 -12.07125,-6.5825 -2.1375,0.075 -4.53,0.1125 -7.125,0.1125 -20.37875,0 -49.08625,-2.32125 -53.7625,-2.71 -1.125,1.02875 -4.035,2.3175 -11.55375,2.3175 -8.5475,0 -11.89,-4.71 -12.97,-6.865 -0.26625,0.0312 -0.5325,0.0463 -0.795,0.0463 -2.66375,0 -4.315,-1.54875 -4.3825,-1.615 -0.075,-0.0713 -0.14,-0.15 -0.195,-0.23625 l -2.62375,-4.1663 c -0.125,-0.2 -0.1925,-0.43125 -0.1925,-0.66625 l 0,-12.90625 c 0,-0.13375 0.0213,-0.265 0.0638,-0.39125 l 0.31375,-0.95375 c 0.0225,-11.275 1.8875,-15.23875 2.64375,-16.3825 0.31,-1.54 1.565,-2.9725 2.23875,-3.65 0.28125,-5.84125 5.03375,-9.05375 7.96625,-10.11875 3.1425,-5.28375 17.72,-12.3225 20.605,-13.67875 1.4025,-1.995 3.3625,-2.43375 4.29375,-2.52625 2.265,-1.8375 16.0975,-12.885 29.77875,-20.21125 10.29,-5.51 34.8575,-7.47375 54.41875,-7.47375 11.02875,0 20.94,0.61625 27.19375,1.69 16.94375,2.91125 20.86125,6.81875 21.4725,7.56625 2.12,2.24375 3.5275,5.46125 3.875,6.305 1.51375,1.76375 6.7025,9.23125 7.1925,10.4225 0.55375,1.34375 1.06125,4.04625 1.1925,4.77125 1.83375,4.23 2.3275,9.99625 2.40125,11.01375 2.7075,9.0425 1.4725,16.9375 1.1225,18.7625 0.75125,2.2075 0.8425,6.845 0.85125,7.39875 0,17.635 -8.0025,17.925 -8.34375,17.92875 l -6.71125,0 c -6.5,0 -8.925,-5.9575 -9.46375,-10.0575 -3.235,0.5875 -7.60375,1.90875 -7.65375,1.92375 l -31.10375,9.97 c -3.01375,18.96125 -8.0525,20.9625 -18.67625,20.9625" />
      <path
         style="fill:#231f20;fill-opacity:1;fill-rule:nonzero;stroke:none"
         id="path2648"
         d="m 405.65221,339.50935 c -19.7125,0 -44.515,2.0025 -55.00875,7.6225 -13.4875,7.2225 -26.73,17.71375 -29.70625,20.12125 -1.18125,0.19 -3.11,0.7975 -4.59375,2.72125 -3.97,1.875 -16.96,8.29375 -20.61375,13.655 -3.16875,1.28625 -7.84,4.66875 -8.355,10.6 -0.7625,0.82375 -1.8025,2.16625 -2.18875,3.68625 -1.0175,1.65125 -2.68625,5.9875 -2.72625,16.6825 l -0.2525,0.765 c -0.0838,0.2525 -0.12625,0.51625 -0.12625,0.7825 l 0,12.90625 c 0,0.47125 0.13375,0.93375 0.385,1.33249 l 2.62375,4.16626 c 0.10875,0.17375 0.23875,0.3325 0.3875,0.475 0.21,0.2 2.14125,1.96 5.2475,1.96 0.03,0 0.0587,0 0.0888,0 1.55,2.595 5.3525,6.82 13.675,6.82 6.7725,0 10.23,-1.0425 11.9475,-2.28251 5.94625,0.49 33.56875,2.67376 53.3675,2.67376 2.27125,0 4.38875,-0.0288 6.31875,-0.085 1.29375,2.56749 4.63,6.55499 12.88,6.55499 11.8875,0 16.8125,-3.25999 19.7875,-21.25499 l 30.3925,-9.7425 c 0.015,-0.004 3.31125,-1 6.24,-1.6325 0.925,4.395 3.79625,9.83125 10.4775,9.83125 l 6.6975,0 c 1.00875,-0.0113 9.6075,-0.63876 9.6075,-19.16 -0.0188,-1.28125 -0.1325,-5.1525 -0.81625,-7.495 0.4175,-2.38 1.42625,-10.12375 -1.17125,-18.91375 -0.1075,-1.35375 -0.64,-6.9175 -2.4325,-11.14625 -0.17875,-0.975 -0.6725,-3.50375 -1.24125,-4.885 -0.4625,-1.12125 -5.2925,-8.1925 -7.2525,-10.565 -0.455,-1.0775 -1.9,-4.24375 -4.04,-6.52 -0.9675,-1.14375 -5.4075,-5.08125 -22.1925,-7.965 -6.32,-1.08625 -16.31,-1.70875 -27.40625,-1.70875 m 0,2.5 c 10.89125,0 20.7875,0.60875 26.98375,1.6725 17.7525,3.05 20.7375,7.155 20.7375,7.155 2.2875,2.395 3.7375,6.14 3.7375,6.14 0.395,0.29875 6.54875,8.85375 7.12,10.2425 0.5725,1.38875 1.14375,4.66125 1.14375,4.66125 1.96125,4.41125 2.36875,10.87375 2.36875,10.87375 3.0225,9.96625 1.0625,18.645 1.0625,18.645 0.81625,1.79625 0.89875,7.30875 0.89875,7.30875 0,16.5825 -7.1075,16.65999 -7.1075,16.65999 l -6.6975,0 c -8.00625,0 -8.3325,-10.24749 -8.3325,-10.24749 -3.34875,0.40875 -9.1475,2.16875 -9.1475,2.16875 l -31.8575,10.21125 c -2.94,19.2775 -7.59375,20.66624 -17.56,20.66624 -9.96625,0 -11.18625,-6.61625 -11.18625,-6.61625 -2.45625,0.10126 -5.15375,0.14626 -8.0125,0.14626 -22.33625,0 -54.30625,-2.76001 -54.30625,-2.76001 0,0 -0.96125,2.36875 -11.00875,2.36875 -10.0475,0 -12.21375,-7.025 -12.21375,-7.025 -0.555,0.145 -1.0725,0.205 -1.55,0.205 -2.19375,0 -3.52,-1.2675 -3.52,-1.2675 l -2.62375,-4.16625 0,-12.90624 0.3775,-1.14375 c 0,-13.39625 2.5825,-16.0925 2.5825,-16.0925 0.16375,-1.715 2.2875,-3.59375 2.2875,-3.59375 0,-7.35125 7.59625,-9.63875 7.59625,-9.63875 2.45125,-5.30875 20.585,-13.72125 20.585,-13.72125 1.3725,-2.2125 3.59875,-2.285 3.8875,-2.285 0.0213,0 0.0312,0 0.0312,0 0,0 14.9475,-12.33 29.89625,-20.335 9.73125,-5.21125 33.5125,-7.32625 53.8275,-7.32625" />
      <path
         style="fill:none;stroke:#000000;stroke-width:0.625;stroke-linecap:butt;stroke-linejoin:miter;stroke-miterlimit:10;stroke-dasharray:none;stroke-opacity:1"
         id="path2652"
         d="m 388.99708,385.83935 c 0,0 -4.05749,8.36 -8.5225,10.32 0,0 -6.3175,4.03 -42.36875,11 0,0 17.1,-16.11875 28.97125,-18.18875 0,0 3.8125,-0.7625 8.16875,0.10875 0,0 12.25375,-2.45 13.75125,-3.24 z" />
      <path
         style="fill:none;stroke:#000000;stroke-width:0.625;stroke-linecap:butt;stroke-linejoin:miter;stroke-miterlimit:10;stroke-dasharray:none;stroke-opacity:1"
         id="path2656"
         d="m 289.82808,395.31572 c 0,0 -0.735,4.9825 4.49375,6.6975 0,0 -1.3075,-11.2725 2.28625,-15.765" />
      <path
         style="fill:none;stroke:#000000;stroke-width:0.625;stroke-linecap:butt;stroke-linejoin:miter;stroke-miterlimit:10;stroke-dasharray:none;stroke-opacity:1"
         id="path2660"
         d="m 294.15783,395.39685 c 0,0 42.80375,3.10375 54.97625,2.61375" />
      <path
         style="fill:none;stroke:#000000;stroke-width:0.625;stroke-linecap:butt;stroke-linejoin:miter;stroke-miterlimit:10;stroke-dasharray:none;stroke-opacity:1"
         id="path2664"
         d="m 295.70996,396.29535 c 0,0 41.0075,2.5325 49.5025,2.36875 l -12.0075,8.0875 c 0,0 -2.2875,1.30625 -5.31,1.225 -3.0225,-0.0813 -24.3425,-0.89875 -27.12,-1.47 -2.7775,-0.5725 -3.35,-0.8175 -4.16625,-3.43125 -0.8175,-2.61375 -0.89875,-6.78 -0.89875,-6.78 z" />
      <path
         style="fill:none;stroke:#000000;stroke-width:0.625;stroke-linecap:butt;stroke-linejoin:miter;stroke-miterlimit:10;stroke-dasharray:none;stroke-opacity:1"
         id="path2668"
         d="m 297.91546,400.13472 c 0,0 1.7975,-0.40875 3.5125,-0.32625 l 34.2275,1.79625 c 0,0 2.7775,0.245 1.14375,1.5525 l -2.2875,1.47 -30.715,-1.47 c 0,0 -4.2475,-0.49 -5.88125,-3.0225 z" />
      <path
         style="fill:none;stroke:#000000;stroke-width:0.625;stroke-linecap:butt;stroke-linejoin:miter;stroke-miterlimit:10;stroke-dasharray:none;stroke-opacity:1"
         id="path2672"
         d="m 297.91546,400.13472 -0.65375,0.10875 0.87125,3.485 c 0,0 0.545,1.525 2.615,1.7975 2.06875,0.2725 24.3425,1.68875 27.93625,1.57875 3.595,-0.10875 5.39125,-2.2325 5.8275,-2.4775" />
      <path
         style="fill:none;stroke:#000000;stroke-width:0.625;stroke-linecap:butt;stroke-linejoin:miter;stroke-miterlimit:10;stroke-dasharray:none;stroke-opacity:1"
         id="path2676"
         d="m 293.01558,415.3746 c 6.60375,0.2525 37.91125,1.50875 45.49875,2.895 0,0 3.2675,0.32625 5.39125,3.10375 2.12375,2.77749 4.9825,6.86124 4.2475,7.92374 -0.735,1.06251 -7.43375,3.59375 -11.2725,3.7575 -3.84,0.16375 -19.76875,-0.16375 -28.34625,-1.06124 -8.57625,-0.89876 -21.23875,-1.14376 -21.23875,-7.51626 0,-4.25249 0.87375,-6.32124 1.455,-7.22749 0,0 0.6725,-1.875 4.265,-1.875 z" />
      <path
         style="fill:none;stroke:#000000;stroke-width:0.625;stroke-linecap:butt;stroke-linejoin:miter;stroke-miterlimit:10;stroke-dasharray:none;stroke-opacity:1"
         id="path2680"
         d="m 447.56671,415.12435 c 0,0 2.2875,-0.6675 3.92125,-1.1025 1.63375,-0.43625 3.05,-1.19875 3.92125,-4.3575 0.87125,-3.1575 4.2475,-21.23875 9.69375,-21.23875 5.445,0 4.13875,9.25875 4.13875,9.25875" />
      <path
         style="fill:url(#polka);fill-opacity:1;fill-rule:nonzero;stroke:none"
         id="path2728"
         d="m 324.05558,375.13822 c 2.205,0.245 19.76875,0.16375 27.855,0.65375 8.0875,0.49 22.955,0.65375 25.895,0.65375 2.94125,0 7.10751,-0.89875 12.74375,-1.5525 5.63625,-0.65375 7.27001,-2.2875 9.0675,-5.14625 1.79626,-2.85875 10.78251,-17.0725 12.4975,-18.78875 1.71626,-1.715 -0.48999,-1.79625 -0.48999,-1.79625 -25.895,-3.7575 -59.06001,0 -59.06001,0 l -0.30375,-0.04 c -0.14125,0.0725 -0.3,0.14 -0.43625,0.21375 -14.94875,8.005 -29.895,20.335 -29.895,20.335 0,0 -0.50375,-0.005 -1.18,0.19 l 0.365,0.4575 c -5.9625,4.73875 0.73625,4.575 2.94125,4.82" />
      <path
         style="fill:none;stroke:#000000;stroke-width:1.25;stroke-linecap:butt;stroke-linejoin:miter;stroke-miterlimit:10;stroke-dasharray:none;stroke-opacity:1"
         id="path2732"
         d="m 352.56446,349.1616 c 0,0 33.165,-3.7575 59.06,0 0,0 2.20625,0.0813 0.49,1.7975 -1.715,1.715 -10.70125,15.92875 -12.4975,18.7875 -1.7975,2.85875 -3.43125,4.4925 -9.0675,5.14625 -5.63625,0.65375 -9.8025,1.5525 -12.74375,1.5525 -2.94,0 -17.8075,-0.16375 -25.895,-0.65375 -8.08625,-0.49 -25.65,-0.40875 -27.855,-0.65375 -2.20625,-0.245 -8.90375,-0.0813 -2.94125,-4.81875" />
      <path
         style="fill:url(#polka);fill-opacity:1;fill-rule:nonzero;stroke:none"
         id="path2780"
         d="m 437.43784,369.09335 c 0,0 -4.33,-17.39875 -6.94376,-20.83 0,0 6.94376,-0.65375 14.86751,2.45 0,0 3.92125,5.96375 4.81999,7.5975 l 1.47,5.4725 -14.21375,5.31 z" />
      <path
         style="fill:url(#polka);fill-opacity:1;fill-rule:nonzero;stroke:none"
         id="path2828"
         d="m 433.43509,370.23697 c 0,0 -4.0025,-17.8075 -5.96251,-21.72875 0,0 -12.49874,1.06125 -18.87,15.275 0,0 2.12375,11.68125 2.36875,14.3775 l 1.30625,-0.49 c 0,0 -1.38875,-3.59375 1.63375,-5.71875 3.0225,-2.12375 9.06751,-1.06125 13.56125,0.73625 l 5.96251,-2.45125 z" />
      <path
         style="fill:none;stroke:#000000;stroke-width:0.625;stroke-linecap:butt;stroke-linejoin:miter;stroke-miterlimit:10;stroke-dasharray:none;stroke-opacity:1"
         id="path2832"
         d="m 433.43509,370.23697 c 0,0 -4.0025,-17.8075 -5.96251,-21.72875 0,0 -12.49874,1.06125 -18.87,15.275 0,0 2.12375,11.68125 2.36875,14.3775 l 1.30625,-0.49 c 0,0 -1.38875,-3.59375 1.63375,-5.71875 3.0225,-2.12375 9.06751,-1.06125 13.56125,0.73625 l 5.96251,-2.45125 z" />
      <path
         style="fill:none;stroke:#000000;stroke-width:0.625;stroke-linecap:butt;stroke-linejoin:miter;stroke-miterlimit:10;stroke-dasharray:none;stroke-opacity:1"
         id="path2836"
         d="m 437.43784,369.09335 c 0,0 -4.33,-17.39875 -6.94376,-20.83 0,0 6.94376,-0.65375 14.86751,2.45 0,0 3.92125,5.96375 4.81999,7.5975 l 1.47,5.4725 -14.21375,5.31 z" />
      <path
         style="fill:url(#polka);fill-opacity:1;fill-rule:nonzero;stroke:none"
         id="path2884"
         d="m 407.37684,366.8061 c 0,0 -5.63626,9.72125 -6.86126,14.54 l 8.74001,-2.695 c 0,0 -1.3075,-10.45625 -1.87875,-11.845" />
      <path
         style="fill:none;stroke:#000000;stroke-width:0.625;stroke-linecap:butt;stroke-linejoin:miter;stroke-miterlimit:10;stroke-dasharray:none;stroke-opacity:1"
         id="path2888"
         d="m 407.37684,366.8061 c 0,0 -5.63626,9.72125 -6.86126,14.54 l 8.74001,-2.695 c 0,0 -1.3075,-10.45625 -1.87875,-11.845 z" />
      <path
         style="fill:none;stroke:#000000;stroke-width:0.625;stroke-linecap:butt;stroke-linejoin:miter;stroke-miterlimit:10;stroke-dasharray:none;stroke-opacity:1"
         id="path2892"
         d="m 412.27809,377.6706 0.24499,0.735 -2.12374,3.5125 c 0,0 2.0425,5.065 4.16625,4.575 l 3.51249,-6.12625 c 0,0 0.40875,-0.89875 1.71501,-0.8175 1.3075,0.0813 6.69875,0.5725 8.16875,-2.85875 0,0 1.55249,-3.10375 -0.49,-4.0025" />
      <path
         style="fill:none;stroke:#000000;stroke-width:0.625;stroke-linecap:butt;stroke-linejoin:miter;stroke-miterlimit:10;stroke-dasharray:none;stroke-opacity:1"
         id="path2896"
         d="m 364.46358,423.71509 c 0,0 2.39625,3.59375 4.2475,3.70376 1.8525,0.10875 5.66375,-0.11001 6.20875,-0.87125 0.545,-0.76251 3.7025,-13.3975 3.7025,-13.3975 0,0 0.65375,-2.2875 -1.85125,-1.525 -2.505,0.7625 -12.525,4.46625 -14.05,5.3375 -1.525,0.87125 -1.7425,2.06875 -0.98,3.15875 0.7625,1.08875 2.7225,3.59374 2.7225,3.59374 z" />
      <path
         style="fill:none;stroke:#000000;stroke-width:0.625;stroke-linecap:butt;stroke-linejoin:miter;stroke-miterlimit:10;stroke-dasharray:none;stroke-opacity:1"
         id="path2900"
         d="m 428.61558,346.71097 c 0,0 4.46626,10.565 6.86126,22.98125 0,0 5.12,4.13875 5.22874,10.3475 0.10875,6.20875 0.2175,10.2375 0.2175,12.63375 0,2.39625 -0.7625,16.665 -0.7625,16.665 0,0 0.3275,3.81125 -1.7425,5.2275" />
      <path
         style="fill:none;stroke:#000000;stroke-width:0.625;stroke-linecap:butt;stroke-linejoin:miter;stroke-miterlimit:10;stroke-dasharray:none;stroke-opacity:1"
         id="path2904"
         d="m 388.99708,385.83935 c 0,0 8.68626,-3.295 11.5175,-4.4925" />
      <path
         style="fill:none;stroke:#000000;stroke-width:0.625;stroke-linecap:butt;stroke-linejoin:miter;stroke-miterlimit:10;stroke-dasharray:none;stroke-opacity:1"
         id="path2908"
         d="m 428.50671,374.0491 27.22875,-10.12875 c 0,0 2.39625,3.2675 3.37625,4.465 0.98125,1.1975 0.98125,2.94125 0.98125,2.94125 0,0 0.435,6.97 0.32625,13.07 -0.10875,6.09875 -5.99,19.16875 -7.40625,22.43625 -1.41625,3.2675 -5.01,4.7925 -5.01,4.7925 0,0 -33.0025,10.67375 -35.18,11 -2.17875,0.3275 -2.07,-2.83125 -2.07,-2.83125 0,0 -0.10875,-18.8425 -0.2175,-27.22875 -0.10875,-8.3875 -4.35625,-12.74375 -4.35625,-12.74375" />
      <path
         style="fill:none;stroke:#000000;stroke-width:0.625;stroke-linecap:butt;stroke-linejoin:miter;stroke-miterlimit:10;stroke-dasharray:none;stroke-opacity:1"
         id="path2912"
         d="m 455.73584,363.91985 c 0,0 0.32625,-0.545 0.2175,-2.06875 -0.10875,-1.525 -2.06875,-7.73375 -2.06875,-7.73375 0,0 -3.15875,-4.90125 -15.685,-6.97 -12.525,-2.07 -22.43625,1.1975 -29.2975,13.2875 -6.86251,12.09 -9.69375,21.23875 -9.69375,21.23875 0,0 2.83124,1.63375 4.465,1.1975 1.63375,-0.435 7.625,-2.39625 7.625,-2.39625" />
      <path
         style="fill:none;stroke:#000000;stroke-width:0.625;stroke-linecap:butt;stroke-linejoin:miter;stroke-miterlimit:10;stroke-dasharray:none;stroke-opacity:1"
         id="path2916"
         d="m 395.94059,373.66785 c 0,0 3.92124,2.45125 4.41125,4.90125" />
      <path
         style="fill:none;stroke:#000000;stroke-width:0.625;stroke-linecap:butt;stroke-linejoin:miter;stroke-miterlimit:10;stroke-dasharray:none;stroke-opacity:1"
         id="path2920"
         d="m 345.94771,404.4641 c 1.3075,-0.0812 12.49875,-1.87875 18.46125,-3.2675 5.96375,-1.38875 12.825,-4.33 13.47875,-5.31 0.65375,-0.98 2.61375,-3.67625 1.715,-4.81875 -0.89875,-1.14375 -7.35125,-2.0425 -12.4975,-1.22625 -5.14625,0.8175 -15.27625,6.20875 -21.1575,12.00875 0,0 -2.0425,1.715 -1.87875,2.205 0.16375,0.49 1.87875,0.40875 1.87875,0.40875 z" />
      <path
         style="fill:none;stroke:#000000;stroke-width:0.625;stroke-linecap:butt;stroke-linejoin:miter;stroke-miterlimit:10;stroke-dasharray:none;stroke-opacity:1"
         id="path2924"
         d="m 289.31108,420.99222 c 0,0 25.26875,4.575 55.9825,3.8125 0,0 -1.7425,-5.555 -9.2575,-6.20875 -7.515,-0.65375 -42.36875,-2.39625 -42.36875,-2.39625 0,0 -3.37625,-1.08875 -4.35625,4.7925 z" />
      <path
         style="fill:none;stroke:#000000;stroke-width:0.625;stroke-linecap:butt;stroke-linejoin:miter;stroke-miterlimit:10;stroke-dasharray:none;stroke-opacity:1"
         id="path2928"
         d="m 287.70621,425.3681 -1.2275,0 c 0,0 0.87125,4.45625 6.42625,5.65375 5.555,1.19875 35.9425,4.24375 45.63625,3.045 9.69375,-1.19751 10.67375,-4.30375 10.67375,-4.30375 l -0.85625,-0.7" />
      <path
         style="fill:none;stroke:#000000;stroke-width:0.625;stroke-linecap:butt;stroke-linejoin:miter;stroke-miterlimit:10;stroke-dasharray:none;stroke-opacity:1"
         id="path2932"
         d="m 374.91958,426.54697 5.7725,2.06875 c 0,0 -13.07,2.615 -14.70375,1.09 -1.63375,-1.525 -7.95125,-10.3475 -7.95125,-10.3475 0,0 -0.54375,-2.2875 0.65375,-2.94 1.19875,-0.65375 18.51625,-8.8225 22.76375,-9.04125 0,0 1.3075,-0.10875 -0.2175,2.615 -1.525,2.7225 -6.3175,16.555 -6.3175,16.555 z" />
      <path
         style="fill:none;stroke:#000000;stroke-width:0.625;stroke-linecap:butt;stroke-linejoin:miter;stroke-miterlimit:10;stroke-dasharray:none;stroke-opacity:1"
         id="path2936"
         d="m 404.80683,428.01497 c -0.38999,8.6475 -4.06375,15.50625 -8.20749,15.32 -4.1425,-0.18625 -7.18501,-7.34875 -6.79625,-15.99625 0.39,-8.6475 4.06499,-15.50625 8.2075,-15.32 4.1425,0.18625 7.18625,7.34875 6.79624,15.99625 z" />
      <path
         style="fill:none;stroke:#000000;stroke-width:0.625;stroke-linecap:butt;stroke-linejoin:miter;stroke-miterlimit:10;stroke-dasharray:none;stroke-opacity:1"
         id="path2940"
         d="m 405.78884,428.0096 c -0.47875,10.63 -4.8025,19.07 -9.65625,18.85125 -4.855,-0.21875 -8.4025,-9.01375 -7.92375,-19.64375 0.48,-10.63 4.8025,-19.06875 9.6575,-18.85 4.85374,0.2175 8.40125,9.0125 7.9225,19.6425 z" />
      <path
         style="fill:none;stroke:#000000;stroke-width:0.625;stroke-linecap:butt;stroke-linejoin:miter;stroke-miterlimit:10;stroke-dasharray:none;stroke-opacity:1"
         id="path2944"
         d="m 398.11408,427.60097 c -0.0588,1.30875 -0.615,2.34625 -1.24125,2.31875 -0.62749,-0.0288 -1.0875,-1.1125 -1.02874,-2.42125 0.0587,-1.30875 0.615,-2.34625 1.24124,-2.3175 0.6275,0.0275 1.08751,1.11125 1.02875,2.42 z" />
      <path
         style="fill:none;stroke:#000000;stroke-width:0.625;stroke-linecap:butt;stroke-linejoin:miter;stroke-miterlimit:10;stroke-dasharray:none;stroke-opacity:1"
         id="path2948"
         d="m 468.54496,409.08722 c -0.31,6.88375 -2.76,12.365 -5.4725,12.2425 -2.7125,-0.12125 -4.65875,-5.80125 -4.34875,-12.685 0.31,-6.88375 2.76,-12.365 5.4725,-12.24375 2.71125,0.1225 4.65875,5.8025 4.34875,12.68625 z" />
      <path
         style="fill:none;stroke:#000000;stroke-width:0.625;stroke-linecap:butt;stroke-linejoin:miter;stroke-miterlimit:10;stroke-dasharray:none;stroke-opacity:1"
         id="path2952"
         d="m 463.60896,424.7266 c -0.2475,0.09 -0.49875,0.13125 -0.7525,0.11874 -2.93375,-0.13125 -4.995,-7.25999 -4.605,-15.92249 0.39,-8.66125 3.085,-15.57625 6.01875,-15.44375 0.70875,0.0312 1.36625,0.47125 1.95125,1.2425" />
      <path
         style="fill:none;stroke:#000000;stroke-width:0.625;stroke-linecap:butt;stroke-linejoin:miter;stroke-miterlimit:10;stroke-dasharray:none;stroke-opacity:1"
         id="path2956"
         d="m 464.16458,408.80035 c -0.0475,1.04125 -0.4175,1.87125 -0.82875,1.8525 -0.41,-0.0188 -0.70499,-0.8775 -0.6575,-1.91875 0.0462,-1.0425 0.4175,-1.8725 0.8275,-1.85375 0.41125,0.0188 0.705,0.87875 0.65875,1.92 z" />
      <path
         style="fill:none;stroke:#000000;stroke-width:0.625;stroke-linecap:butt;stroke-linejoin:miter;stroke-miterlimit:10;stroke-dasharray:none;stroke-opacity:1"
         id="path2960"
         d="m 392.34633,405.74385 c 0,0 15.35751,-3.2675 13.72375,21.23874" />
      <path
         style="fill:none;stroke:#000000;stroke-width:0.625;stroke-linecap:butt;stroke-linejoin:miter;stroke-miterlimit:10;stroke-dasharray:none;stroke-opacity:1"
         id="path2964"
         d="m 466.30771,394.55197 c 1.095,1.36875 2.0525,3.4175 2.49875,6.48125" />
      <path
         style="fill:none;stroke:#000000;stroke-width:0.625;stroke-linecap:butt;stroke-linejoin:miter;stroke-miterlimit:10;stroke-dasharray:none;stroke-opacity:1"
         id="path2968"
         d="m 461.04559,391.8026 c 0,0 2.94125,-0.15125 5.2625,2.74875" />
      <path
         style="fill:none;stroke:#000000;stroke-width:0.625;stroke-linecap:butt;stroke-linejoin:miter;stroke-miterlimit:10;stroke-dasharray:none;stroke-opacity:1"
         id="path2972"
         d="m 292.15646,434.28009 c 0,0 9.02625,3.7025 23.73,4.35626" />
      <path
         style="fill:none;stroke:#000000;stroke-width:0.625;stroke-linecap:butt;stroke-linejoin:miter;stroke-miterlimit:10;stroke-dasharray:none;stroke-opacity:1"
         id="path2976"
         d="m 285.66233,404.38247 c 0,0 0.8175,9.63875 15.3575,10.61875 0,0 30.8775,1.63375 35.125,2.125 4.24875,0.49 7.18875,1.63375 8.8225,4.08375 l 1.14375,-1.47 c 0,0 8.3325,-0.65375 11.6,-0.98" />
      <path
         style="fill:none;stroke:#000000;stroke-width:0.625;stroke-linecap:butt;stroke-linejoin:miter;stroke-miterlimit:10;stroke-dasharray:none;stroke-opacity:1"
         id="path2980"
         d="m 406.18221,427.7841 c 1.985,-1.765 5.625,-25.70125 -6.94875,-25.70125 -12.575,0 -17.53875,34.63625 -18.20125,37.725 -0.66125,3.08875 -3.59,2.62 -3.59,2.62" />
    </g>
  </g>
</svg>
