<?xml version="1.0" encoding="UTF-8" standalone="no"?>
<svg
   xmlns:dc="http://purl.org/dc/elements/1.1/"
   xmlns:cc="http://creativecommons.org/ns#"
   xmlns:rdf="http://www.w3.org/1999/02/22-rdf-syntax-ns#"
   xmlns:svg="http://www.w3.org/2000/svg"
   xmlns="http://www.w3.org/2000/svg"
   version="1.1"
   id="svg10845"
   height="195.60275"
   width="200.0005">
  <defs
     id="defs4809">
    <pattern
       id="polka"
       patternTransform="rotate(20)"
       height="5"
       width="5"
       patternUnits="userSpaceOnUse">
      <rect
         y="0"
         x="0"
         height="5"
         width="5"
         style="fill:#ffffff"
         id="polka__bg" />
      <circle
         cx="2"
         style="fill:#ff0000"
         cy="2"
         r="1.5"
         id="polka__inner" />
    </pattern>
  </defs>
  <metadata
     id="metadata10850">
    <rdf:RDF>
      <cc:Work
         rdf:about="">
        <dc:format>image/svg+xml</dc:format>
        <dc:type
           rdf:resource="http://purl.org/dc/dcmitype/StillImage" />
        <dc:title></dc:title>
      </cc:Work>
    </rdf:RDF>
  </metadata>
  <g
     style="display:inline"
     transform="translate(-282.08096,-278.41122)"
     id="layer1">
    <ellipse
       style="color:#000000;display:inline;overflow:visible;visibility:visible;opacity:1;fill:none;fill-opacity:1;fill-rule:nonzero;stroke:#000000;stroke-width:2;stroke-miterlimit:4;stroke-dasharray:none;stroke-opacity:1;marker:none;enable-background:accumulate"
       id="path6022"
       cx="382.06821"
       cy="398.07648"
       rx="74.9505"
       ry="74.950493" />
    <g
       id="layer1-5"
       transform="translate(0,-1.7480468e-6)">
      <g
         id="layer1-0"
         transform="translate(26.229887,-357.14286)">
        <path
           style="fill:none;stroke:#231f20;stroke-width:1.875;stroke-linecap:butt;stroke-linejoin:miter;stroke-miterlimit:4;stroke-dasharray:none;stroke-opacity:1"
           id="path2640"
           d="m 430.85132,755.21933 c 0,41.42125 -33.57875,75 -75,75 -41.42125,0 -75,-33.57875 -75,-75 0,-41.42125 33.57875,-75 75,-75 41.42125,0 75,33.57875 75,75 z" />
        <path
           style="fill:#ffffff;fill-opacity:1;fill-rule:nonzero;stroke:none"
           id="path2984"
           d="m 366.01495,810.67621 c -3.60375,0 -5.57875,-6.83125 -5.97125,-13.53626 -7.5925,0.95501 -19.29375,1.58626 -29.60375,1.58626 -1.2875,0 -2.55375,-0.01 -3.78375,-0.03 -8,-0.135 -14.19875,-0.48876 -18.22125,-0.7875 -0.575,6.12749 -2.56375,12.01749 -5.88625,12.01749 l -8.20625,-0.002 c -3.755,0 -5.86875,-7.355 -6.0825,-14.84375 -0.57,-0.18125 -0.8925,-0.3025 -0.8925,-0.3025 -0.185,-0.07 -0.345,-0.1975 -0.45375,-0.36375 l -2.8425,-4.34625 c -0.0987,-0.1525 -0.1525,-0.33124 -0.1525,-0.51375 l 0,-4.17875 c 0,-1.0725 0.81375,-1.725 1.29375,-1.94125 0.0437,-0.02 0.0888,-0.0362 0.13375,-0.0487 l 1.815,-0.505 -0.51875,-0.86874 c -0.0525,-0.0875 -0.09,-0.18376 -0.11125,-0.28375 l -1.83875,-8.52501 c -0.0138,-0.065 -0.0213,-0.13125 -0.0213,-0.1975 l 0,-8.19 c 0,-9.38375 3.42,-12.9475 4.60375,-13.9 l 5.79875,-37.6475 -0.0837,-4.0125 c 0,-8.4325 8.5675,-10.6025 8.65375,-10.6225 8.59,-2.33625 32.84,-3.08375 33.8675,-3.11375 32.5525,0 38.03875,2.3225 40.67625,3.43875 0.2775,0.1175 0.51125,0.21875 0.74625,0.29375 2.29125,0.73625 4.505,1.34 4.52625,1.34625 l 50.41624,8.29625 c 4.98625,0.66875 6.665,4.6125 6.85125,6.60375 l 1.275,17.99125 0.002,40.185 c 0,1.42375 -0.8775,2.4675 -1.395,2.85875 l -11.72875,11.07001 c -0.17374,0.165 -0.40375,0.25625 -0.64249,0.25625 l -3.535,0 c -0.30125,5.4575 -1.85626,11.0025 -4.72876,11.46 -0.10624,0.0475 -0.2225,0.0738 -0.345,0.0738 l -6.9,0 c -2.11124,0 -3.825,-2.78625 -4.6625,-7.51375 l -26.24499,6.36 c -0.075,0.0175 -0.14876,0.0263 -0.22126,0.0263 -0.1675,0 -0.32874,-0.045 -0.46875,-0.12625 l -0.94,0 c -0.50749,6.165 -2.38374,12.12 -5.59749,12.4525 -0.11625,0.0525 -0.2375,0.085 -0.35,0.085 l -8.23,0 z" />
        <path
           style="fill:#231f20;fill-opacity:1;fill-rule:nonzero;stroke:none"
           id="path2988"
           d="m 337.53957,694.58095 c -0.0188,0 -0.0375,0 -0.0563,10e-4 -1.0325,0.03 -25.38875,0.78125 -34.11125,3.15125 -3.19,0.77125 -9.32,4.1875 -9.32,11.5025 l 0.0825,3.97 -5.7325,37.2125 c -1.54125,1.3625 -4.66875,5.255 -4.66875,14.39625 l 0,8.19 c 0,0.13375 0.015,0.26625 0.0425,0.39625 l 1.83875,8.52501 c 0.0275,0.12999 0.07,0.25624 0.125,0.37625 l -0.645,0.18 c -0.0913,0.025 -0.18,0.0575 -0.26625,0.0962 -0.8525,0.38499 -1.84625,1.34625 -1.84625,2.79625 l 0,4.17875 c 0,0.36499 0.10625,0.72125 0.305,1.02625 l 2.84125,4.34625 c 0.21875,0.33375 0.53625,0.58875 0.9075,0.72875 0.0113,0.004 0.11875,0.045 0.31125,0.11125 0.32875,7.51 2.57625,15.095 6.99625,15.095 l 8.12375,0 c 0.0288,0.002 0.0563,0.002 0.0825,0.002 3.9625,0 6.025,-5.87375 6.725,-11.95375 4.0325,0.28375 9.92125,0.59875 17.365,0.7225 1.2375,0.0212 2.51,0.0312 3.8025,0.0312 9.90625,0 21.1025,-0.5825 28.73375,-1.47375 0.25125,3.12625 0.8225,5.995 1.64875,8.23375 1.5825,4.29 3.69625,5.19 5.19,5.19 l 8.23125,0 c 0.22125,0 0.43875,-0.0387 0.64375,-0.11375 3.665,-0.555 5.5425,-6.3875 6.155,-12.38125 0.1775,0.055 0.365,0.0837 0.55625,0.0837 0.14625,0 0.29375,-0.0175 0.44125,-0.0525 l 25.29375,-6.12875 c 1.0025,4.675 2.9225,7.31 5.395,7.31 l 6.89875,0 c 0.21375,0 0.4225,-0.0375 0.6175,-0.105 3.34,-0.63625 4.91875,-6.115 5.335,-11.43 l 2.65625,0 c 0.47875,0 0.93875,-0.1825 1.28625,-0.51125 l 11.76,-11.09376 c 0.40875,-0.345 1.65875,-1.55875 1.65875,-3.5175 l 0,-40.11875 c 0,-0.0437 -10e-4,-0.0875 -0.005,-0.1325 l -1.275,-17.96875 c -0.21375,-2.29125 -2.09125,-6.74125 -7.69,-7.49375 l -50.3575,-8.29125 c -0.43625,-0.12125 -2.38625,-0.66375 -4.395,-1.31 -0.21,-0.0675 -0.42,-0.15875 -0.66875,-0.26375 -2.69375,-1.14125 -8.29875,-3.51375 -41.0125,-3.51375 m 0,1.875 c 36.3575,0 38.76625,2.93625 41.1075,3.6875 2.34,0.7525 4.5675,1.35875 4.5675,1.35875 l 50.50875,8.31625 c 5.6,0.7525 6.07,5.7675 6.07,5.7675 l 1.275,17.96875 0,40.11875 c 0,1.3375 -1.02375,2.11125 -1.02375,2.11125 l -11.80625,11.13626 -4.34625,0 -0.0863,-0.001 c -0.1925,6.42625 -2.0075,11.4925 -4.21625,11.4925 l 0.04,0.0438 -6.89875,0 c -1.75125,0 -3.25375,-3.21625 -3.8975,-7.72625 l -27.2325,6.5975 0.1675,-0.12625 -2.2575,0 -0.19,-0.0112 c -0.43,7.085 -2.505,12.4775 -5.01,12.4775 l -0.065,0.0712 -8.23125,0 c -2.63875,0 -4.8175,-6.01875 -5.0825,-13.66 -7.4325,1.01375 -19.755,1.71 -30.49,1.71 -1.2825,0 -2.54375,-0.01 -3.77125,-0.03 -8.35875,-0.14 -14.9325,-0.52875 -19.09375,-0.855 -0.48375,6.88625 -2.56875,12.085 -5.0275,12.085 l -0.0162,-0.002 -8.19,0 c -2.75125,0 -5.055,-6.49875 -5.16,-14.6025 -0.93125,-0.275 -1.485,-0.4825 -1.485,-0.4825 l -2.84125,-4.3475 0,-4.17875 c 0,-0.7525 0.74125,-1.08625 0.74125,-1.08625 l 2.99875,-0.83625 -1.15,-1.92125 -1.83875,-8.52626 0,-8.19 c 0,-10.69875 4.53375,-13.3725 4.53375,-13.3725 l 5.87125,-38.1125 -0.0862,-4.09375 c 0,-7.7725 7.93625,-9.6925 7.93625,-9.6925 8.60875,-2.34 33.67625,-3.0875 33.67625,-3.0875" />
        <path
           style="fill:url(#polka);fill-opacity:1;fill-rule:nonzero;stroke:none"
           id="path3036"
           d="m 288.50945,783.35496 c 0,0 16.665,1.55999 35.095,1.68624 18.42875,0.125 38.1125,0.125 38.1125,0.125 l 6.77,-0.37624 0.87125,-0.40375 0,-0.76625 c 0,-1.9225 2.01625,-4.12375 2.01625,-4.12375 l 0.54,-1.22376 c 0,0 0.91875,-2.00625 5.0975,-2.00625 4.17875,0 5.34874,1.67125 5.34874,5.76626 l 0.1675,0.835 37.11,-6.77001 0.54375,-2.485 c 0.88375,-3.43375 1.15625,-3.60125 2.8825,-3.60125 l 1.42125,0 c 0,0 1.825,0.18 1.6575,1.8525 -0.16624,1.67125 -0.6825,13.58876 -1.5175,15.09251 l 3.31626,-0.035 11.75125,-11.13751 c 0,0 0.915,-0.7725 0.915,-2.11 l 0,-40.11875 -1.165,-17.97 c 0,0 -0.36125,-5.01375 -5.96126,-5.76625 l -50.50749,-8.31625 c 0,0 -2.22625,-0.60625 -4.56625,-1.35875 -2.34125,-0.7525 -4.74625,-3.6875 -41.10375,-3.6875 0,0 -25.05875,0.7475 -33.6675,3.0875 0,0 -7.9225,1.91875 -7.9225,9.6925 l 0.11625,4.09375 -5.81,38.1125 c 0,0 -4.4125,2.67375 -4.4125,13.37125 l 0,8.19125 1.87375,8.42751 1.0275,1.9225 z" />
        <path
           style="fill:#000000;fill-opacity:1;fill-rule:nonzero;stroke:none"
           id="path3040"
           d="m 420.45744,780.95683 c -1.03375,0 -1.87125,2.20375 -1.87125,4.92125 0,2.7175 0.8375,4.92125 1.87125,4.92125 1.03375,0 1.87125,-2.20375 1.87125,-4.92125 0,-2.7175 -0.8375,-4.92125 -1.87125,-4.92125 m 0,0.625 c 0.36125,0 1.24625,1.505 1.24625,4.29625 0,2.79125 -0.885,4.29625 -1.24625,4.29625 -0.36125,0 -1.24625,-1.505 -1.24625,-4.29625 0,-2.79125 0.885,-4.29625 1.24625,-4.29625" />
        <path
           style="fill:none;stroke:#000000;stroke-width:0.625;stroke-linecap:butt;stroke-linejoin:miter;stroke-miterlimit:10;stroke-dasharray:none;stroke-opacity:1"
           id="path3044"
           d="m 420.44519,773.43233 c 1.92875,1.17375 3.37875,6.2475 3.37875,12.33 0,6.95 -1.895,12.585 -4.23125,12.585 -1.99125,0 -3.66125,-4.09125 -4.11125,-9.6025" />
        <path
           style="fill:#000000;fill-opacity:1;fill-rule:nonzero;stroke:none"
           id="path3048"
           d="m 375.3322,788.63458 c -1.24625,0 -2.25625,2.65625 -2.25625,5.93375 0,3.2775 1.01,5.935 2.25625,5.935 1.24625,0 2.25625,-2.6575 2.25625,-5.935 0,-3.2775 -1.01,-5.93375 -2.25625,-5.93375 m 0,0.625 c 0.55375,0 1.63125,1.87375 1.63125,5.30875 0,3.43625 -1.0775,5.31 -1.63125,5.31 -0.55375,0 -1.63125,-1.87375 -1.63125,-5.31 0,-3.435 1.0775,-5.30875 1.63125,-5.30875" />
        <path
           style="fill:#000000;fill-opacity:1;fill-rule:nonzero;stroke:none"
           id="path3052"
           d="m 374.6722,785.22021 c -1.93375,0 -3.5025,4.12374 -3.5025,9.20999 0,5.0875 1.56875,9.21001 3.5025,9.21001 1.935,0 3.5025,-4.12251 3.5025,-9.21001 0,-5.08625 -1.5675,-9.20999 -3.5025,-9.20999 m 0,0.625 c 1.35875,0 2.8775,3.67125 2.8775,8.58499 0,4.91375 -1.51875,8.58501 -2.8775,8.58501 -1.35875,0 -2.8775,-3.67126 -2.8775,-8.58501 0,-4.91374 1.51875,-8.58499 2.8775,-8.58499" />
        <path
           style="fill:#000000;fill-opacity:1;fill-rule:nonzero;stroke:none"
           id="path3056"
           d="m 374.2892,779.25308 c -2.8175,0 -5.1025,6.795 -5.1025,15.17625 0,8.38125 2.285,15.17625 5.1025,15.17625 2.8175,0 5.1025,-6.795 5.1025,-15.17625 0,-8.38125 -2.285,-15.17625 -5.1025,-15.17625 m 0,0.625 c 2.1175,0 4.4775,5.97625 4.4775,14.55125 0,8.575 -2.36,14.55125 -4.4775,14.55125 -2.1175,0 -4.4775,-5.97625 -4.4775,-14.55125 0,-8.575 2.36,-14.55125 4.4775,-14.55125" />
        <path
           style="fill:none;stroke:#000000;stroke-width:0.625;stroke-linecap:butt;stroke-linejoin:miter;stroke-miterlimit:10;stroke-dasharray:none;stroke-opacity:1"
           id="path3060"
           d="m 374.13945,779.47195 -2.6625,-0.005 0.68,-1.195 c 0,0 0.91875,-2.00625 5.0975,-2.00625 4.17999,0 5.34874,1.67125 5.34874,5.76625 0,4.09625 1.00375,12.2025 -1.0025,15.295" />
        <path
           style="fill:none;stroke:#000000;stroke-width:0.625;stroke-linecap:butt;stroke-linejoin:miter;stroke-miterlimit:10;stroke-dasharray:none;stroke-opacity:1"
           id="path3064"
           d="m 423.82207,785.79433 c 0,-6.1025 -1.46,-11.03875 -3.3975,-12.18875 0.88375,-3.435 1.15625,-3.60875 2.8825,-3.60875 l 1.42125,0 c 0,0 1.83875,0.1875 1.67125,1.85875 -0.1675,1.67125 -0.66875,13.5925 -1.50375,15.0975" />
        <path
           style="fill:none;stroke:#000000;stroke-width:0.625;stroke-linecap:butt;stroke-linejoin:miter;stroke-miterlimit:10;stroke-dasharray:none;stroke-opacity:1"
           id="path3068"
           d="m 420.42444,773.60508 c 0,0 -1.42124,14.445 -4.18,15.07125 -2.7575,0.6275 -7.14624,2.00625 -7.14624,2.00625" />
        <path
           style="fill:none;stroke:#000000;stroke-width:0.625;stroke-linecap:butt;stroke-linejoin:miter;stroke-miterlimit:10;stroke-dasharray:none;stroke-opacity:1"
           id="path3072"
           d="m 419.91019,778.1252 c 1.60375,0 2.90501,3.42 2.90501,7.63751 0,4.21875 -1.30126,7.63875 -2.90501,7.63875 -1.29375,0 -2.38999,-2.225 -2.76625,-5.3" />
        <path
           style="fill:none;stroke:#000000;stroke-width:0.625;stroke-linecap:butt;stroke-linejoin:miter;stroke-miterlimit:10;stroke-dasharray:none;stroke-opacity:1"
           id="path3076"
           d="m 371.4457,779.52433 c 0,0 -1.96375,2.1725 -2.46625,4.095 l 0,1.6725 0.5025,0 c 0,0 -0.83625,8.9425 -3.26,9.44375 -2.42375,0.50125 -4.93125,1.00375 -4.93125,1.00375" />
        <path
           style="fill:none;stroke:#000000;stroke-width:0.625;stroke-linecap:butt;stroke-linejoin:miter;stroke-miterlimit:10;stroke-dasharray:none;stroke-opacity:1"
           id="path3080"
           d="m 307.65607,796.15796 c -0.38625,7.2425 -2.495,12.77875 -5.03875,12.77875 -2.56125,0 -4.6825,-5.61501 -5.04625,-12.9325" />
        <path
           style="fill:none;stroke:#000000;stroke-width:0.625;stroke-linecap:butt;stroke-linejoin:miter;stroke-miterlimit:10;stroke-dasharray:none;stroke-opacity:1"
           id="path3084"
           d="m 289.1832,794.38283 c 0,0 9.255,1.77375 10.67625,1.8575 1.42,0.0837 7.02,0.66875 7.02,0.66875" />
        <path
           style="fill:#ffffff;fill-opacity:1;fill-rule:nonzero;stroke:none"
           id="path3088"
           d="m 372.99195,715.08395 c 0,0 -62.435,0.7525 -75.2225,2.13125 l -4.88875,30.21375 c 0,0 -0.6275,2.63375 2.38125,2.88375 3.00875,0.25125 18.30375,0.5025 34.10125,0.5025 0,0 32.59625,0.25 40.99625,-1.25375 0,0 2.7575,-1.12875 2.7575,-2.75875 l 1.00375,-30.465 c 0,0 -0.12625,-1.25375 -1.12875,-1.25375" />
        <path
           style="fill:none;stroke:#231f20;stroke-width:0.625;stroke-linecap:butt;stroke-linejoin:miter;stroke-miterlimit:4;stroke-dasharray:none;stroke-opacity:1"
           id="path3092"
           d="m 372.99195,715.08395 c 0,0 -62.435,0.7525 -75.2225,2.13125 l -4.88875,30.21375 c 0,0 -0.6275,2.63375 2.38125,2.88375 3.00875,0.25125 18.30375,0.5025 34.10125,0.5025 0,0 32.59625,0.25 40.99625,-1.25375 0,0 2.7575,-1.12875 2.7575,-2.75875 l 1.00375,-30.465 c 0,0 -0.12625,-1.25375 -1.12875,-1.25375 z" />
        <path
           style="fill:#ffffff;fill-opacity:1;fill-rule:nonzero;stroke:none"
           id="path3096"
           d="m 382.33207,719.03308 10.78125,0.94 -0.3125,-5.0775 -10.7825,-1.1275 0.31375,5.265 z" />
        <path
           style="fill:none;stroke:#231f20;stroke-width:0.625;stroke-linecap:butt;stroke-linejoin:miter;stroke-miterlimit:4;stroke-dasharray:none;stroke-opacity:1"
           id="path3100"
           d="m 382.33207,719.03308 10.78125,0.94 -0.3125,-5.0775 -10.7825,-1.1275 0.31375,5.265 z" />
        <path
           style="fill:#ffffff;fill-opacity:1;fill-rule:nonzero;stroke:none"
           id="path3104"
           d="m 394.99444,721.79133 5.14001,0.25125 -0.43875,-6.5825 -5.14,-0.43875 0.43874,6.77 z" />
        <path
           style="fill:none;stroke:#231f20;stroke-width:0.625;stroke-linecap:butt;stroke-linejoin:miter;stroke-miterlimit:4;stroke-dasharray:none;stroke-opacity:1"
           id="path3108"
           d="m 394.99444,721.79133 5.14001,0.25125 -0.43875,-6.5825 -5.14,-0.43875 0.43874,6.77 z" />
        <path
           style="fill:#ffffff;fill-opacity:1;fill-rule:nonzero;stroke:none"
           id="path3112"
           d="m 401.45094,722.04208 5.14,0.25125 -0.37624,-6.33125 -5.14001,-0.43875 0.37625,6.51875 z" />
        <path
           style="fill:none;stroke:#231f20;stroke-width:0.625;stroke-linecap:butt;stroke-linejoin:miter;stroke-miterlimit:4;stroke-dasharray:none;stroke-opacity:1"
           id="path3116"
           d="m 401.45094,722.04208 5.14,0.25125 -0.37624,-6.33125 -5.14001,-0.43875 0.37625,6.51875 z" />
        <path
           style="fill:#ffffff;fill-opacity:1;fill-rule:nonzero;stroke:none"
           id="path3120"
           d="m 422.29194,724.4747 4.68625,0.22875 -0.4,-6 -4.68625,-0.4 0.4,6.17125 z" />
        <path
           style="fill:none;stroke:#231f20;stroke-width:0.625;stroke-linecap:butt;stroke-linejoin:miter;stroke-miterlimit:4;stroke-dasharray:none;stroke-opacity:1"
           id="path3124"
           d="m 422.29194,724.4747 4.68625,0.22875 -0.4,-6 -4.68625,-0.4 0.4,6.17125 z" />
        <path
           style="fill:#ffffff;fill-opacity:1;fill-rule:nonzero;stroke:none"
           id="path3128"
           d="m 428.17782,724.70333 4.68625,0.22875 -0.34375,-5.77125 -4.685,-0.4 0.3425,5.9425 z" />
        <path
           style="fill:none;stroke:#231f20;stroke-width:0.625;stroke-linecap:butt;stroke-linejoin:miter;stroke-miterlimit:4;stroke-dasharray:none;stroke-opacity:1"
           id="path3132"
           d="m 428.17782,724.70333 4.68625,0.22875 -0.34375,-5.77125 -4.685,-0.4 0.3425,5.9425 z" />
        <path
           style="fill:#ffffff;fill-opacity:1;fill-rule:nonzero;stroke:none"
           id="path3136"
           d="m 384.21257,740.65358 10.46875,0 -1.38,-18.83375 -10.65625,-0.675 1.5675,19.50875 z" />
        <path
           style="fill:none;stroke:#231f20;stroke-width:0.625;stroke-linecap:butt;stroke-linejoin:miter;stroke-miterlimit:4;stroke-dasharray:none;stroke-opacity:1"
           id="path3140"
           d="m 384.21257,740.65358 10.46875,0 -1.38,-18.83375 -10.65625,-0.675 1.5675,19.50875 z" />
        <path
           style="fill:#ffffff;fill-opacity:1;fill-rule:nonzero;stroke:none"
           id="path3144"
           d="m 397.06307,746.67733 11.40875,-0.125 -1.6925,-22.72375 -11.5975,-0.73625 1.88125,23.585 z" />
        <path
           style="fill:none;stroke:#231f20;stroke-width:0.625;stroke-linecap:butt;stroke-linejoin:miter;stroke-miterlimit:4;stroke-dasharray:none;stroke-opacity:1"
           id="path3148"
           d="m 397.06307,746.67733 11.40875,-0.125 -1.6925,-22.72375 -11.5975,-0.73625 1.88125,23.585 z" />
        <path
           style="fill:#ffffff;fill-opacity:1;fill-rule:nonzero;stroke:none"
           id="path3152"
           d="m 424.25607,746.03533 10.36375,-0.11375 -1.5375,-19.64 -10.535,-0.66875 1.70875,20.4225 z" />
        <path
           style="fill:none;stroke:#231f20;stroke-width:0.625;stroke-linecap:butt;stroke-linejoin:miter;stroke-miterlimit:4;stroke-dasharray:none;stroke-opacity:1"
           id="path3156"
           d="m 424.25607,746.03533 10.36375,-0.11375 -1.5375,-19.64 -10.535,-0.66875 1.70875,20.4225 z" />
        <path
           style="fill:#ffffff;fill-opacity:1;fill-rule:nonzero;stroke:none"
           id="path3160"
           d="m 409.97619,746.4892 12.41125,-0.25125 -2.25625,-28.92875 -12.41125,-1.2375 2.25625,30.4175 z" />
        <path
           style="fill:none;stroke:#231f20;stroke-width:0.625;stroke-linecap:butt;stroke-linejoin:miter;stroke-miterlimit:4;stroke-dasharray:none;stroke-opacity:1"
           id="path3164"
           d="m 409.97619,746.4892 12.41125,-0.25125 -2.25625,-28.92875 -12.41125,-1.2375 2.25625,30.4175 z" />
        <path
           style="fill:none;stroke:#000000;stroke-width:0.625;stroke-linecap:butt;stroke-linejoin:miter;stroke-miterlimit:10;stroke-dasharray:none;stroke-opacity:1"
           id="path3168"
           d="m 383.96982,740.65358 10.32875,0" />
        <path
           style="fill:#ffffff;fill-opacity:1;fill-rule:nonzero;stroke:none"
           id="path3172"
           d="m 395.18244,746.55195 -10.40624,0.125 -0.50125,-4.6825 10.53125,-0.0625 0.37624,4.62 z" />
        <path
           style="fill:none;stroke:#231f20;stroke-width:0.625;stroke-linecap:butt;stroke-linejoin:miter;stroke-miterlimit:4;stroke-dasharray:none;stroke-opacity:1"
           id="path3176"
           d="m 395.18244,746.55195 -10.40624,0.125 -0.50125,-4.6825 10.53125,-0.0625 0.37624,4.62 z" />
        <path
           style="fill:#ffffff;fill-opacity:1;fill-rule:nonzero;stroke:none"
           id="path3180"
           d="m 298.3547,712.91083 c 0,0 63.605,-2.34 74.3025,-2.25625 0,0 1.755,-6.77 -4.17875,-9.77875 -5.93375,-3.00875 -31.59375,-1.9225 -31.59375,-1.9225 0,0 -29.33625,1.3375 -34.60125,4.34625 -5.26625,3.00875 -3.92875,9.61125 -3.92875,9.61125" />
        <path
           style="fill:none;stroke:#231f20;stroke-width:0.625;stroke-linecap:butt;stroke-linejoin:miter;stroke-miterlimit:4;stroke-dasharray:none;stroke-opacity:1"
           id="path3184"
           d="m 298.3547,712.91083 c 0,0 63.605,-2.34 74.3025,-2.25625 0,0 1.755,-6.77 -4.17875,-9.77875 -5.93375,-3.00875 -31.59375,-1.9225 -31.59375,-1.9225 0,0 -29.33625,1.3375 -34.60125,4.34625 -5.26625,3.00875 -3.92875,9.61125 -3.92875,9.61125 z" />
        <path
           style="fill:none;stroke:#000000;stroke-width:0.625;stroke-linecap:butt;stroke-linejoin:miter;stroke-miterlimit:10;stroke-dasharray:none;stroke-opacity:1"
           id="path3188"
           d="m 350.67595,765.23208 11.66,0.0625 2.8825,-0.31375 c 0,0 1.06625,-0.125 0.94125,0.8775 -0.12625,1.00375 -0.18875,10.40625 -5.0775,10.46875 -4.89,0.0625 -14.66875,0 -14.66875,0 l 4.2625,-11.095 z" />
        <path
           style="fill:none;stroke:#000000;stroke-width:0.625;stroke-linecap:butt;stroke-linejoin:miter;stroke-miterlimit:10;stroke-dasharray:none;stroke-opacity:1"
           id="path3192"
           d="m 348.97632,768.76095 11.72875,0 c 0,0 3.8525,-0.1875 4.9175,-0.62625" />
        <path
           style="fill:none;stroke:#000000;stroke-width:0.625;stroke-linecap:butt;stroke-linejoin:miter;stroke-miterlimit:10;stroke-dasharray:none;stroke-opacity:1"
           id="path3196"
           d="m 285.25032,765.3332 c 1.505,0.25125 10.3875,0.3375 10.3875,0.3375 l 3.57375,10.2175 -12.6,-0.0625" />
        <path
           style="fill:none;stroke:#000000;stroke-width:0.625;stroke-linecap:butt;stroke-linejoin:miter;stroke-miterlimit:10;stroke-dasharray:none;stroke-opacity:1"
           id="path3200"
           d="m 285.6087,768.49183 10.97,0.25" />
        <path
           style="fill:#ffffff;fill-opacity:1;fill-rule:nonzero;stroke:none"
           id="path3204"
           d="m 434.61145,721.72858 1.75499,24.13375 3.3225,-0.125 -1.88,-23.6325 -3.19749,-0.37625 z" />
        <path
           style="fill:none;stroke:#231f20;stroke-width:0.625;stroke-linecap:butt;stroke-linejoin:miter;stroke-miterlimit:4;stroke-dasharray:none;stroke-opacity:1"
           id="path3208"
           d="m 434.61145,721.72858 1.75499,24.13375 3.3225,-0.125 -1.88,-23.6325 -3.19749,-0.37625 z" />
        <path
           style="fill:none;stroke:#000000;stroke-width:0.625;stroke-linecap:butt;stroke-linejoin:miter;stroke-miterlimit:10;stroke-dasharray:none;stroke-opacity:1"
           id="path3212"
           d="m 380.84844,717.17345 2.1725,41.205 -2.67374,0.1675 c 0,0 -3.26,-0.83625 -3.26,-13.79125 0,-12.955 -1.08625,-28.25 3.76124,-27.58125 z" />
        <path
           style="fill:none;stroke:#000000;stroke-width:0.625;stroke-linecap:butt;stroke-linejoin:miter;stroke-miterlimit:10;stroke-dasharray:none;stroke-opacity:1"
           id="path3216"
           d="m 384.19169,782.28245 c 0.7525,-6.435 -0.25125,-33.34875 -0.25125,-33.34875 l 51.90376,-1.755 -2.59125,-30.005 6.3525,0.7525" />
        <path
           style="fill:none;stroke:#000000;stroke-width:0.625;stroke-linecap:butt;stroke-linejoin:miter;stroke-miterlimit:10;stroke-dasharray:none;stroke-opacity:1"
           id="path3220"
           d="m 382.77082,782.86758 37.11,-6.77" />
        <path
           style="fill:none;stroke:#000000;stroke-width:0.625;stroke-linecap:butt;stroke-linejoin:miter;stroke-miterlimit:10;stroke-dasharray:none;stroke-opacity:1"
           id="path3224"
           d="m 440.60832,772.42008 -5.015,0.585 c 0.83625,-5.265 0.25125,-25.82625 0.25125,-25.82625 l 5.015,-0.0837" />
        <path
           style="fill:none;stroke:#000000;stroke-width:0.625;stroke-linecap:butt;stroke-linejoin:miter;stroke-miterlimit:10;stroke-dasharray:none;stroke-opacity:1"
           id="path3228"
           d="m 433.16969,717.7167 -51.7775,-6.0175 -0.25125,4.2625 c 0,0 -3.88624,-2.5075 -4.01124,7.14625" />
        <path
           style="fill:none;stroke:#000000;stroke-width:0.625;stroke-linecap:butt;stroke-linejoin:miter;stroke-miterlimit:10;stroke-dasharray:none;stroke-opacity:1"
           id="path3232"
           d="m 288.5967,783.45258 c 0,0 16.82,1.4625 35.25,1.5875 18.43,0.12625 38.1125,0.12625 38.1125,0.12625 l 6.77,-0.37625" />
        <path
           style="fill:none;stroke:#000000;stroke-width:0.625;stroke-linecap:butt;stroke-linejoin:miter;stroke-miterlimit:10;stroke-dasharray:none;stroke-opacity:1"
           id="path3236"
           d="m 287.99082,781.90645 c 0,0 19.05625,0.7525 35.355,0.62625 16.2975,-0.125 45.38375,0.5025 45.38375,0.5025" />
        <path
           style="fill:none;stroke:#000000;stroke-width:0.625;stroke-linecap:butt;stroke-linejoin:miter;stroke-miterlimit:10;stroke-dasharray:none;stroke-opacity:1"
           id="path3240"
           d="m 295.63832,765.67095 55.0375,-0.43875" />
        <path
           style="fill:none;stroke:#000000;stroke-width:0.625;stroke-linecap:butt;stroke-linejoin:miter;stroke-miterlimit:10;stroke-dasharray:none;stroke-opacity:1"
           id="path3244"
           d="m 299.21145,775.88858 c 0,0 0.815,2.0475 2.48625,2.0475 l 40.955,0.66875 c 0,0 2.5075,0.2925 3.76125,-2.2775" />
        <path
           style="fill:#ffffff;fill-opacity:1;fill-rule:nonzero;stroke:none"
           id="path3248"
           d="m 299.21145,775.88858 c 0,0 0.815,2.0475 2.48625,2.0475 l 40.955,0.66875 c 0,0 2.5075,0.2925 3.76125,-2.2775 l 4.2625,-11.095 -55.0375,0.43875 3.5725,10.2175 z" />
        <path
           style="fill:none;stroke:#231f20;stroke-width:0.625;stroke-linecap:butt;stroke-linejoin:miter;stroke-miterlimit:4;stroke-dasharray:none;stroke-opacity:1"
           id="path3252"
           d="m 299.21145,775.88858 c 0,0 0.815,2.0475 2.48625,2.0475 l 40.955,0.66875 c 0,0 2.5075,0.2925 3.76125,-2.2775 l 4.2625,-11.095 -55.0375,0.43875 3.5725,10.2175 z" />
        <path
           style="fill:#231f20;fill-opacity:1;fill-rule:nonzero;stroke:none"
           id="path3256"
           d="m 337.53957,694.58095 c -0.0188,0 -0.0375,0 -0.0563,10e-4 -1.0325,0.03 -25.38875,0.78125 -34.11125,3.15125 -3.19,0.77125 -9.32,4.1875 -9.32,11.5025 l 0.0825,3.97 -5.7325,37.2125 c -1.54125,1.3625 -4.66875,5.255 -4.66875,14.39625 l 0,8.19 c 0,0.13375 0.015,0.26625 0.0425,0.39625 l 1.83875,8.52501 c 0.0275,0.12999 0.07,0.25624 0.125,0.37625 l -0.645,0.18 c -0.0913,0.025 -0.18,0.0575 -0.26625,0.0962 -0.8525,0.38499 -1.84625,1.34625 -1.84625,2.79625 l 0,4.17875 c 0,0.36499 0.10625,0.72125 0.305,1.02625 l 2.84125,4.34625 c 0.21875,0.33375 0.53625,0.58875 0.9075,0.72875 0.0113,0.004 0.11875,0.045 0.31125,0.11125 0.32875,7.51 2.57625,15.095 6.99625,15.095 l 8.12375,0 c 0.0288,0.002 0.0563,0.002 0.0825,0.002 3.9625,0 6.025,-5.87375 6.725,-11.95375 4.0325,0.28375 9.92125,0.59875 17.365,0.7225 1.2375,0.0212 2.51,0.0312 3.8025,0.0312 9.90625,0 21.1025,-0.5825 28.73375,-1.47375 0.25125,3.12625 0.8225,5.995 1.64875,8.23375 1.5825,4.29 3.69625,5.19 5.19,5.19 l 8.23125,0 c 0.22125,0 0.43875,-0.0387 0.64375,-0.11375 3.665,-0.555 5.5425,-6.3875 6.155,-12.38125 0.1775,0.055 0.365,0.0837 0.55625,0.0837 0.14625,0 0.29375,-0.0175 0.44125,-0.0525 l 25.29375,-6.12875 c 1.0025,4.675 2.9225,7.31 5.395,7.31 l 6.89875,0 c 0.21375,0 0.4225,-0.0375 0.6175,-0.105 3.34,-0.63625 4.91875,-6.115 5.335,-11.43 l 2.65625,0 c 0.47875,0 0.93875,-0.1825 1.28625,-0.51125 l 11.76,-11.09376 c 0.40875,-0.345 1.65875,-1.55875 1.65875,-3.5175 l 0,-40.11875 c 0,-0.0437 -10e-4,-0.0875 -0.005,-0.1325 l -1.275,-17.96875 c -0.21375,-2.29125 -2.09125,-6.74125 -7.69,-7.49375 l -50.3575,-8.29125 c -0.43625,-0.12125 -2.38625,-0.66375 -4.395,-1.31 -0.21,-0.0675 -0.42,-0.15875 -0.66875,-0.26375 -2.69375,-1.14125 -8.29875,-3.51375 -41.0125,-3.51375 m 0,1.875 c 36.3575,0 38.76625,2.93625 41.1075,3.6875 2.34,0.7525 4.5675,1.35875 4.5675,1.35875 l 50.50875,8.31625 c 5.6,0.7525 6.07,5.7675 6.07,5.7675 l 1.275,17.96875 0,40.11875 c 0,1.3375 -1.02375,2.11125 -1.02375,2.11125 l -11.80625,11.13626 -4.34625,0 -0.0863,-0.001 c -0.1925,6.42625 -2.0075,11.4925 -4.21625,11.4925 l 0.04,0.0438 -6.89875,0 c -1.75125,0 -3.25375,-3.21625 -3.8975,-7.72625 l -27.2325,6.5975 0.1675,-0.12625 -2.2575,0 -0.19,-0.0112 c -0.43,7.085 -2.505,12.4775 -5.01,12.4775 l -0.065,0.0712 -8.23125,0 c -2.63875,0 -4.8175,-6.01875 -5.0825,-13.66 -7.4325,1.01375 -19.755,1.71 -30.49,1.71 -1.2825,0 -2.54375,-0.01 -3.77125,-0.03 -8.35875,-0.14 -14.9325,-0.52875 -19.09375,-0.855 -0.48375,6.88625 -2.56875,12.085 -5.0275,12.085 l -0.0162,-0.002 -8.19,0 c -2.75125,0 -5.055,-6.49875 -5.16,-14.6025 -0.93125,-0.275 -1.485,-0.4825 -1.485,-0.4825 l -2.84125,-4.3475 0,-4.17875 c 0,-0.7525 0.74125,-1.08625 0.74125,-1.08625 l 2.99875,-0.83625 -1.15,-1.92125 -1.83875,-8.52626 0,-8.19 c 0,-10.69875 4.53375,-13.3725 4.53375,-13.3725 l 5.87125,-38.1125 -0.0862,-4.09375 c 0,-7.7725 7.93625,-9.6925 7.93625,-9.6925 8.60875,-2.34 33.67625,-3.0875 33.67625,-3.0875" />
      </g>
    </g>
  </g>
</svg>
