<?xml version="1.0" encoding="utf-8"?>
<!-- Generator: Adobe Illustrator 18.0.0, SVG Export Plug-In . SVG Version: 6.00 Build 0)  -->
<!DOCTYPE svg PUBLIC "-//W3C//DTD SVG 1.1//EN" "http://www.w3.org/Graphics/SVG/1.1/DTD/svg11.dtd">
<svg version="1.1" id="Layer_1" xmlns="http://www.w3.org/2000/svg" xmlns:xlink="http://www.w3.org/1999/xlink" x="0px" y="0px"
	 viewBox="0 0 160 160" enable-background="new 0 0 160 160" xml:space="preserve">
<g>
	<circle fill="#FFFFFF" stroke="#231F20" stroke-width="2" cx="80" cy="96" r="60"/>
	<g>
		<g>
			<path fill="#FFFFFF" d="M85.536,136.572c-6.941,0-8.869-3.955-9.319-5.278c-1.793,0.068-3.821,0.103-6.037,0.103
				c-16.679,0-40.347-1.946-43.206-2.187c-0.585,0.651-2.55,1.873-9.048,1.873c-6.979,0-9.451-4.169-10.076-5.541
				c-0.313,0.057-0.627,0.086-0.936,0.086c-1.934,0-3.112-1.106-3.162-1.153c-0.029-0.028-0.056-0.061-0.077-0.095l-2.099-3.333
				c-0.05-0.08-0.077-0.172-0.077-0.267v-10.325c0-0.053,0.008-0.106,0.025-0.156l0.276-0.839
				c0.009-9.401,1.628-12.345,2.087-12.991c0.199-1.252,1.356-2.464,1.811-2.898c0.133-5.373,5.12-7.493,6.219-7.895
				c2.24-4.188,14.947-10.245,16.481-10.965c1.096-1.647,2.748-1.895,3.293-1.93c1.349-1.099,12.672-10.221,23.865-16.215
				c8.15-4.364,27.71-5.919,43.297-5.919c8.797,0,16.696,0.49,21.673,1.345c14.239,2.446,16.808,5.781,16.91,5.922
				c1.687,1.76,2.809,4.423,3.018,4.941c0.912,1.04,5.315,7.271,5.726,8.269c0.439,1.065,0.861,3.359,0.935,3.772
				c1.494,3.404,1.866,8.145,1.909,8.756c2.234,7.417,1.1,13.852,0.876,14.958c0.627,1.638,0.694,5.709,0.697,5.887
				c0,13.612-5.928,13.833-6.18,13.836h-5.364c-5.791,0-6.912-6.217-7.12-8.13c-2.65,0.415-6.676,1.633-6.719,1.646l-25.184,8.072
				C97.677,135.06,93.976,136.572,85.536,136.572z"/>
			<path fill="#231F20" d="M98.857,51.146c8.712,0,16.63,0.486,21.586,1.338c14.203,2.44,16.591,5.724,16.591,5.724
				c1.83,1.917,2.99,4.912,2.99,4.912c0.316,0.24,5.239,7.083,5.696,8.194c0.458,1.111,0.915,3.729,0.915,3.729
				c1.568,3.529,1.895,8.699,1.895,8.699c2.418,7.973,0.85,14.915,0.85,14.915c0.654,1.438,0.719,5.847,0.719,5.847
				c0,13.266-5.686,13.328-5.686,13.328h-5.359c-6.404,0-6.665-8.198-6.665-8.198c-2.679,0.327-7.319,1.735-7.319,1.735
				l-25.486,8.169c-2.353,15.423-6.076,16.534-14.048,16.534c-7.973,0-8.949-5.293-8.949-5.293
				c-1.965,0.082-4.122,0.118-6.409,0.118c-17.869,0-43.445-2.209-43.445-2.209s-0.769,1.895-8.807,1.895
				c-8.038,0-9.772-5.62-9.772-5.62c-0.443,0.117-0.858,0.165-1.239,0.165c-1.755,0-2.816-1.014-2.816-1.014L2,120.78v-10.325
				l0.302-0.915c0-10.717,2.066-12.874,2.066-12.874c0.131-1.372,1.83-2.875,1.83-2.875c0-5.882,6.077-7.711,6.077-7.711
				c1.96-4.248,16.468-10.978,16.468-10.978c1.098-1.769,2.879-1.828,3.111-1.828c0.016,0,0.025,0,0.025,0
				s11.957-9.864,23.916-16.268C63.58,52.838,82.605,51.146,98.857,51.146 M98.857,50.146c-15.648,0-35.303,1.571-43.535,5.979
				c-10.945,5.861-22.01,14.699-23.823,16.169c-0.745,0.074-2.312,0.426-3.435,2.022c-2.308,1.084-13.97,6.716-16.484,10.943
				c-2.346,0.853-6.147,3.422-6.372,8.095c-0.539,0.542-1.543,1.688-1.791,2.92c-0.605,0.916-2.097,4.087-2.115,13.106l-0.252,0.763
				C1.017,110.243,1,110.349,1,110.455v10.325c0,0.189,0.053,0.373,0.154,0.533l2.099,3.333c0.044,0.069,0.096,0.133,0.155,0.19
				c0.055,0.053,1.375,1.291,3.507,1.291c0.21,0,0.422-0.012,0.635-0.036c0.865,1.723,3.538,5.492,10.376,5.492
				c6.015,0,8.344-1.031,9.243-1.855c3.742,0.312,26.706,2.169,43.009,2.169c2.07,0,3.979-0.03,5.685-0.089
				c0.24,0.604,0.683,1.453,1.479,2.302c1.267,1.352,3.717,2.963,8.194,2.963c8.498,0,12.53-1.601,14.941-16.77l24.898-7.98
				c0.027-0.008,3.52-1.064,6.108-1.535c0.431,3.28,2.372,8.046,7.571,8.046h5.359c0.283-0.003,6.686-0.235,6.686-14.328
				c-0.007-0.457-0.079-4.168-0.681-5.934c0.279-1.46,1.267-7.776-0.898-15.01c-0.06-0.814-0.454-5.427-1.921-8.811
				c-0.104-0.58-0.511-2.742-0.954-3.817c-0.392-0.953-4.543-6.927-5.754-8.338c-0.278-0.675-1.404-3.249-3.1-5.044
				c-0.489-0.599-3.624-3.725-17.178-6.053C115.61,50.639,107.68,50.146,98.857,50.146L98.857,50.146z"/>
		</g>
		<path fill="none" stroke="#000000" stroke-width="0.5" stroke-miterlimit="10" d="M85.533,86.21c0,0-3.246,6.688-6.818,8.256
			c0,0-5.054,3.224-33.895,8.8c0,0,13.68-12.896,23.178-14.551c0,0,3.05-0.61,6.535,0.087C74.532,88.803,84.335,86.842,85.533,86.21
			z"/>
		<path fill="none" stroke="#000000" stroke-width="0.5" stroke-miterlimit="10" d="M6.198,93.791c0,0-0.588,3.986,3.594,5.358
			c0,0-1.046-9.018,1.83-12.613"/>
		<path fill="none" stroke="#000000" stroke-width="0.5" stroke-miterlimit="10" d="M9.661,93.856c0,0,34.243,2.483,43.981,2.091"/>
		<path fill="none" stroke="#000000" stroke-width="0.5" stroke-miterlimit="10" d="M10.903,94.575c0,0,32.806,2.026,39.602,1.895
			l-9.606,6.47c0,0-1.83,1.046-4.248,0.98c-2.418-0.065-19.474-0.719-21.696-1.176c-2.222-0.458-2.679-0.654-3.333-2.745
			C10.968,97.908,10.903,94.575,10.903,94.575z"/>
		<path fill="none" stroke="#000000" stroke-width="0.5" stroke-miterlimit="10" d="M12.667,97.647c0,0,1.438-0.327,2.81-0.261
			l27.382,1.438c0,0,2.222,0.196,0.915,1.242l-1.83,1.176l-24.572-1.176C17.373,100.064,13.974,99.672,12.667,97.647z"/>
		<path fill="none" stroke="#000000" stroke-width="0.5" stroke-miterlimit="10" d="M12.667,97.647l-0.523,0.087l0.697,2.788
			c0,0,0.436,1.22,2.091,1.438c1.655,0.218,19.474,1.351,22.35,1.263c2.875-0.087,4.313-1.786,4.662-1.982"/>
		<path fill="none" stroke="#000000" stroke-width="0.5" stroke-miterlimit="10" d="M8.748,109.839
			c5.283,0.202,30.329,1.207,36.399,2.316c0,0,2.614,0.261,4.313,2.483s3.986,5.489,3.398,6.339
			c-0.588,0.85-5.947,2.875-9.018,3.006c-3.072,0.131-15.815-0.131-22.677-0.849c-6.862-0.719-16.991-0.915-16.991-6.012
			c0-3.402,0.699-5.058,1.164-5.783C5.335,111.338,5.873,109.839,8.748,109.839z"/>
		<path fill="none" stroke="#000000" stroke-width="0.5" stroke-miterlimit="10" d="M132.388,109.638c0,0,1.83-0.534,3.137-0.882
			c1.307-0.349,2.44-0.959,3.137-3.485c0.697-2.527,3.398-16.991,7.755-16.991c4.357,0,3.311,7.406,3.311,7.406"/>
		<g>
			<defs>
				<path id="SVGID_1_" d="M33.579,77.649c1.764,0.196,15.815,0.131,22.284,0.523c6.47,0.392,18.363,0.523,20.716,0.523
					s5.685-0.719,10.195-1.242c4.509-0.523,5.816-1.83,7.254-4.117c1.438-2.287,8.626-13.658,9.999-15.031s-0.392-1.438-0.392-1.438
					c-20.716-3.006-47.248,0-47.248,0l-0.243-0.031c-0.113,0.057-0.24,0.112-0.349,0.17c-11.959,6.404-23.916,16.268-23.916,16.268
					s-0.403-0.004-0.943,0.152l0.292,0.367C26.456,77.584,31.815,77.453,33.579,77.649z"/>
			</defs>
			<clipPath id="SVGID_2_">
				<use xlink:href="#SVGID_1_"  overflow="visible"/>
			</clipPath>
			<g clip-path="url(#SVGID_2_)">
				<circle fill="#B3B3B4" cx="32.37" cy="50.301" r="0.925"/>
				<circle fill="#B3B3B4" cx="37.258" cy="50.301" r="0.925"/>
				<circle fill="#B3B3B4" cx="42.146" cy="50.301" r="0.925"/>
				<circle fill="#B3B3B4" cx="47.033" cy="50.301" r="0.925"/>
				<circle fill="#B3B3B4" cx="51.921" cy="50.301" r="0.925"/>
				<circle fill="#B3B3B4" cx="56.809" cy="50.301" r="0.925"/>
				<circle fill="#B3B3B4" cx="61.697" cy="50.301" r="0.925"/>
				<circle fill="#B3B3B4" cx="66.585" cy="50.301" r="0.925"/>
				<circle fill="#B3B3B4" cx="71.473" cy="50.301" r="0.925"/>
				<circle fill="#B3B3B4" cx="76.361" cy="50.301" r="0.925"/>
				<circle fill="#B3B3B4" cx="81.249" cy="50.301" r="0.925"/>
				<circle fill="#B3B3B4" cx="86.137" cy="50.301" r="0.925"/>
				<circle fill="#B3B3B4" cx="91.025" cy="50.301" r="0.925"/>
				<circle fill="#B3B3B4" cx="95.913" cy="50.301" r="0.925"/>
				<circle fill="#B3B3B4" cx="100.801" cy="50.301" r="0.925"/>
				<circle fill="#B3B3B4" cx="105.689" cy="50.301" r="0.925"/>
				<circle fill="#B3B3B4" cx="29.926" cy="52.745" r="0.925"/>
				<circle fill="#B3B3B4" cx="32.37" cy="55.189" r="0.925"/>
				<circle fill="#B3B3B4" cx="34.814" cy="52.745" r="0.925"/>
				<circle fill="#B3B3B4" cx="37.258" cy="55.189" r="0.925"/>
				<circle fill="#B3B3B4" cx="39.702" cy="52.745" r="0.925"/>
				<circle fill="#B3B3B4" cx="42.146" cy="55.189" r="0.925"/>
				<circle fill="#B3B3B4" cx="44.59" cy="52.745" r="0.925"/>
				<circle fill="#B3B3B4" cx="47.033" cy="55.189" r="0.925"/>
				<circle fill="#B3B3B4" cx="49.477" cy="52.745" r="0.925"/>
				<circle fill="#B3B3B4" cx="51.921" cy="55.189" r="0.925"/>
				<circle fill="#B3B3B4" cx="54.365" cy="52.745" r="0.925"/>
				<circle fill="#B3B3B4" cx="56.809" cy="55.189" r="0.925"/>
				<circle fill="#B3B3B4" cx="59.253" cy="52.745" r="0.925"/>
				<circle fill="#B3B3B4" cx="61.697" cy="55.189" r="0.925"/>
				<circle fill="#B3B3B4" cx="64.141" cy="52.745" r="0.925"/>
				<circle fill="#B3B3B4" cx="66.585" cy="55.189" r="0.925"/>
				<circle fill="#B3B3B4" cx="69.029" cy="52.745" r="0.925"/>
				<circle fill="#B3B3B4" cx="71.473" cy="55.189" r="0.925"/>
				<circle fill="#B3B3B4" cx="73.917" cy="52.745" r="0.925"/>
				<circle fill="#B3B3B4" cx="76.361" cy="55.189" r="0.925"/>
				<circle fill="#B3B3B4" cx="78.805" cy="52.745" r="0.925"/>
				<circle fill="#B3B3B4" cx="81.249" cy="55.189" r="0.925"/>
				<circle fill="#B3B3B4" cx="83.693" cy="52.745" r="0.925"/>
				<circle fill="#B3B3B4" cx="86.137" cy="55.189" r="0.925"/>
				<circle fill="#B3B3B4" cx="88.581" cy="52.745" r="0.925"/>
				<circle fill="#B3B3B4" cx="91.025" cy="55.189" r="0.925"/>
				<circle fill="#B3B3B4" cx="93.469" cy="52.745" r="0.925"/>
				<circle fill="#B3B3B4" cx="95.913" cy="55.189" r="0.925"/>
				<circle fill="#B3B3B4" cx="98.357" cy="52.745" r="0.925"/>
				<circle fill="#B3B3B4" cx="100.801" cy="55.189" r="0.925"/>
				<circle fill="#B3B3B4" cx="103.245" cy="52.745" r="0.925"/>
				<circle fill="#B3B3B4" cx="105.689" cy="55.189" r="0.925"/>
				<circle fill="#B3B3B4" cx="29.926" cy="57.633" r="0.925"/>
				<circle fill="#B3B3B4" cx="32.37" cy="60.077" r="0.925"/>
				<circle fill="#B3B3B4" cx="34.814" cy="57.633" r="0.925"/>
				<circle fill="#B3B3B4" cx="37.258" cy="60.077" r="0.925"/>
				<circle fill="#B3B3B4" cx="39.702" cy="57.633" r="0.925"/>
				<circle fill="#B3B3B4" cx="42.146" cy="60.077" r="0.925"/>
				<circle fill="#B3B3B4" cx="44.59" cy="57.633" r="0.925"/>
				<circle fill="#B3B3B4" cx="47.033" cy="60.077" r="0.925"/>
				<circle fill="#B3B3B4" cx="49.477" cy="57.633" r="0.925"/>
				<circle fill="#B3B3B4" cx="51.921" cy="60.077" r="0.925"/>
				<circle fill="#B3B3B4" cx="54.365" cy="57.633" r="0.925"/>
				<circle fill="#B3B3B4" cx="56.809" cy="60.077" r="0.925"/>
				<circle fill="#B3B3B4" cx="59.253" cy="57.633" r="0.925"/>
				<circle fill="#B3B3B4" cx="61.697" cy="60.077" r="0.925"/>
				<circle fill="#B3B3B4" cx="64.141" cy="57.633" r="0.925"/>
				<circle fill="#B3B3B4" cx="66.585" cy="60.077" r="0.925"/>
				<circle fill="#B3B3B4" cx="69.029" cy="57.633" r="0.925"/>
				<circle fill="#B3B3B4" cx="71.473" cy="60.077" r="0.925"/>
				<circle fill="#B3B3B4" cx="73.917" cy="57.633" r="0.925"/>
				<circle fill="#B3B3B4" cx="76.361" cy="60.077" r="0.925"/>
				<circle fill="#B3B3B4" cx="78.805" cy="57.633" r="0.925"/>
				<circle fill="#B3B3B4" cx="81.249" cy="60.077" r="0.925"/>
				<circle fill="#B3B3B4" cx="83.693" cy="57.633" r="0.925"/>
				<circle fill="#B3B3B4" cx="86.137" cy="60.077" r="0.925"/>
				<circle fill="#B3B3B4" cx="88.581" cy="57.633" r="0.925"/>
				<circle fill="#B3B3B4" cx="91.025" cy="60.077" r="0.925"/>
				<circle fill="#B3B3B4" cx="93.469" cy="57.633" r="0.925"/>
				<circle fill="#B3B3B4" cx="95.913" cy="60.077" r="0.925"/>
				<circle fill="#B3B3B4" cx="98.357" cy="57.633" r="0.925"/>
				<circle fill="#B3B3B4" cx="100.801" cy="60.077" r="0.925"/>
				<circle fill="#B3B3B4" cx="103.245" cy="57.633" r="0.925"/>
				<circle fill="#B3B3B4" cx="105.689" cy="60.077" r="0.925"/>
				<circle fill="#B3B3B4" cx="29.926" cy="62.521" r="0.925"/>
				<circle fill="#B3B3B4" cx="32.37" cy="64.965" r="0.925"/>
				<circle fill="#B3B3B4" cx="34.814" cy="62.521" r="0.925"/>
				<circle fill="#B3B3B4" cx="37.258" cy="64.965" r="0.925"/>
				<circle fill="#B3B3B4" cx="39.702" cy="62.521" r="0.925"/>
				<circle fill="#B3B3B4" cx="42.146" cy="64.965" r="0.925"/>
				<circle fill="#B3B3B4" cx="44.59" cy="62.521" r="0.925"/>
				<circle fill="#B3B3B4" cx="47.033" cy="64.965" r="0.925"/>
				<circle fill="#B3B3B4" cx="49.477" cy="62.521" r="0.925"/>
				<circle fill="#B3B3B4" cx="51.921" cy="64.965" r="0.925"/>
				<circle fill="#B3B3B4" cx="54.365" cy="62.521" r="0.925"/>
				<circle fill="#B3B3B4" cx="56.809" cy="64.965" r="0.925"/>
				<circle fill="#B3B3B4" cx="59.253" cy="62.521" r="0.925"/>
				<circle fill="#B3B3B4" cx="61.697" cy="64.965" r="0.925"/>
				<circle fill="#B3B3B4" cx="64.141" cy="62.521" r="0.925"/>
				<circle fill="#B3B3B4" cx="66.585" cy="64.965" r="0.925"/>
				<circle fill="#B3B3B4" cx="69.029" cy="62.521" r="0.925"/>
				<circle fill="#B3B3B4" cx="71.473" cy="64.965" r="0.925"/>
				<circle fill="#B3B3B4" cx="73.917" cy="62.521" r="0.925"/>
				<circle fill="#B3B3B4" cx="76.361" cy="64.965" r="0.925"/>
				<circle fill="#B3B3B4" cx="78.805" cy="62.521" r="0.925"/>
				<circle fill="#B3B3B4" cx="81.249" cy="64.965" r="0.925"/>
				<circle fill="#B3B3B4" cx="83.693" cy="62.521" r="0.925"/>
				<circle fill="#B3B3B4" cx="86.137" cy="64.965" r="0.925"/>
				<circle fill="#B3B3B4" cx="88.581" cy="62.521" r="0.925"/>
				<circle fill="#B3B3B4" cx="91.025" cy="64.965" r="0.925"/>
				<circle fill="#B3B3B4" cx="93.469" cy="62.521" r="0.925"/>
				<circle fill="#B3B3B4" cx="95.913" cy="64.965" r="0.925"/>
				<circle fill="#B3B3B4" cx="98.357" cy="62.521" r="0.925"/>
				<circle fill="#B3B3B4" cx="100.801" cy="64.965" r="0.925"/>
				<circle fill="#B3B3B4" cx="103.245" cy="62.521" r="0.925"/>
				<circle fill="#B3B3B4" cx="105.689" cy="64.965" r="0.925"/>
				<circle fill="#B3B3B4" cx="29.926" cy="67.409" r="0.925"/>
				<circle fill="#B3B3B4" cx="32.37" cy="69.853" r="0.925"/>
				<circle fill="#B3B3B4" cx="34.814" cy="67.409" r="0.925"/>
				<circle fill="#B3B3B4" cx="37.258" cy="69.853" r="0.925"/>
				<circle fill="#B3B3B4" cx="39.702" cy="67.409" r="0.925"/>
				<circle fill="#B3B3B4" cx="42.146" cy="69.853" r="0.925"/>
				<circle fill="#B3B3B4" cx="44.59" cy="67.409" r="0.925"/>
				<circle fill="#B3B3B4" cx="47.033" cy="69.853" r="0.925"/>
				<circle fill="#B3B3B4" cx="49.477" cy="67.409" r="0.925"/>
				<circle fill="#B3B3B4" cx="51.921" cy="69.853" r="0.925"/>
				<circle fill="#B3B3B4" cx="54.365" cy="67.409" r="0.925"/>
				<circle fill="#B3B3B4" cx="56.809" cy="69.853" r="0.925"/>
				<circle fill="#B3B3B4" cx="59.253" cy="67.409" r="0.925"/>
				<circle fill="#B3B3B4" cx="61.697" cy="69.853" r="0.925"/>
				<circle fill="#B3B3B4" cx="64.141" cy="67.409" r="0.925"/>
				<circle fill="#B3B3B4" cx="66.585" cy="69.853" r="0.925"/>
				<circle fill="#B3B3B4" cx="69.029" cy="67.409" r="0.925"/>
				<circle fill="#B3B3B4" cx="71.473" cy="69.853" r="0.925"/>
				<circle fill="#B3B3B4" cx="73.917" cy="67.409" r="0.925"/>
				<circle fill="#B3B3B4" cx="76.361" cy="69.853" r="0.925"/>
				<circle fill="#B3B3B4" cx="78.805" cy="67.409" r="0.925"/>
				<circle fill="#B3B3B4" cx="81.249" cy="69.853" r="0.925"/>
				<circle fill="#B3B3B4" cx="83.693" cy="67.409" r="0.925"/>
				<circle fill="#B3B3B4" cx="86.137" cy="69.853" r="0.925"/>
				<circle fill="#B3B3B4" cx="88.581" cy="67.409" r="0.925"/>
				<circle fill="#B3B3B4" cx="91.025" cy="69.853" r="0.925"/>
				<circle fill="#B3B3B4" cx="93.469" cy="67.409" r="0.925"/>
				<circle fill="#B3B3B4" cx="95.913" cy="69.853" r="0.925"/>
				<circle fill="#B3B3B4" cx="98.357" cy="67.409" r="0.925"/>
				<circle fill="#B3B3B4" cx="100.801" cy="69.853" r="0.925"/>
				<circle fill="#B3B3B4" cx="103.245" cy="67.409" r="0.925"/>
				<circle fill="#B3B3B4" cx="105.689" cy="69.853" r="0.925"/>
				<circle fill="#B3B3B4" cx="29.926" cy="72.297" r="0.925"/>
				<circle fill="#B3B3B4" cx="32.37" cy="74.741" r="0.925"/>
				<circle fill="#B3B3B4" cx="34.814" cy="72.297" r="0.925"/>
				<circle fill="#B3B3B4" cx="37.258" cy="74.741" r="0.925"/>
				<circle fill="#B3B3B4" cx="39.702" cy="72.297" r="0.925"/>
				<circle fill="#B3B3B4" cx="42.146" cy="74.741" r="0.925"/>
				<circle fill="#B3B3B4" cx="44.59" cy="72.297" r="0.925"/>
				<circle fill="#B3B3B4" cx="47.033" cy="74.741" r="0.925"/>
				<circle fill="#B3B3B4" cx="49.477" cy="72.297" r="0.925"/>
				<circle fill="#B3B3B4" cx="51.921" cy="74.741" r="0.925"/>
				<circle fill="#B3B3B4" cx="54.365" cy="72.297" r="0.925"/>
				<circle fill="#B3B3B4" cx="56.809" cy="74.741" r="0.925"/>
				<circle fill="#B3B3B4" cx="59.253" cy="72.297" r="0.925"/>
				<circle fill="#B3B3B4" cx="61.697" cy="74.741" r="0.925"/>
				<circle fill="#B3B3B4" cx="64.141" cy="72.297" r="0.925"/>
				<circle fill="#B3B3B4" cx="66.585" cy="74.741" r="0.925"/>
				<circle fill="#B3B3B4" cx="69.029" cy="72.297" r="0.925"/>
				<circle fill="#B3B3B4" cx="71.473" cy="74.741" r="0.925"/>
				<circle fill="#B3B3B4" cx="73.917" cy="72.297" r="0.925"/>
				<circle fill="#B3B3B4" cx="76.361" cy="74.741" r="0.925"/>
				<circle fill="#B3B3B4" cx="78.805" cy="72.297" r="0.925"/>
				<circle fill="#B3B3B4" cx="81.249" cy="74.741" r="0.925"/>
				<circle fill="#B3B3B4" cx="83.693" cy="72.297" r="0.925"/>
				<circle fill="#B3B3B4" cx="86.137" cy="74.741" r="0.925"/>
				<circle fill="#B3B3B4" cx="88.581" cy="72.297" r="0.925"/>
				<circle fill="#B3B3B4" cx="91.025" cy="74.741" r="0.925"/>
				<circle fill="#B3B3B4" cx="93.469" cy="72.297" r="0.925"/>
				<circle fill="#B3B3B4" cx="95.913" cy="74.741" r="0.925"/>
				<circle fill="#B3B3B4" cx="98.357" cy="72.297" r="0.925"/>
				<circle fill="#B3B3B4" cx="100.801" cy="74.741" r="0.925"/>
				<circle fill="#B3B3B4" cx="103.245" cy="72.297" r="0.925"/>
				<circle fill="#B3B3B4" cx="105.689" cy="74.741" r="0.925"/>
				<circle fill="#B3B3B4" cx="29.926" cy="77.185" r="0.925"/>
				<circle fill="#B3B3B4" cx="32.37" cy="79.629" r="0.925"/>
				<circle fill="#B3B3B4" cx="34.814" cy="77.185" r="0.925"/>
				<circle fill="#B3B3B4" cx="37.258" cy="79.629" r="0.925"/>
				<circle fill="#B3B3B4" cx="39.702" cy="77.185" r="0.925"/>
				<circle fill="#B3B3B4" cx="42.146" cy="79.629" r="0.925"/>
				<circle fill="#B3B3B4" cx="44.59" cy="77.185" r="0.925"/>
				<circle fill="#B3B3B4" cx="47.033" cy="79.629" r="0.925"/>
				<circle fill="#B3B3B4" cx="49.477" cy="77.185" r="0.925"/>
				<circle fill="#B3B3B4" cx="51.921" cy="79.629" r="0.925"/>
				<circle fill="#B3B3B4" cx="54.365" cy="77.185" r="0.925"/>
				<circle fill="#B3B3B4" cx="56.809" cy="79.629" r="0.925"/>
				<circle fill="#B3B3B4" cx="59.253" cy="77.185" r="0.925"/>
				<circle fill="#B3B3B4" cx="61.697" cy="79.629" r="0.925"/>
				<circle fill="#B3B3B4" cx="64.141" cy="77.185" r="0.925"/>
				<circle fill="#B3B3B4" cx="66.585" cy="79.629" r="0.925"/>
				<circle fill="#B3B3B4" cx="69.029" cy="77.185" r="0.925"/>
				<circle fill="#B3B3B4" cx="71.473" cy="79.629" r="0.925"/>
				<circle fill="#B3B3B4" cx="73.917" cy="77.185" r="0.925"/>
				<circle fill="#B3B3B4" cx="76.361" cy="79.629" r="0.925"/>
				<circle fill="#B3B3B4" cx="78.805" cy="77.185" r="0.925"/>
				<circle fill="#B3B3B4" cx="81.249" cy="79.629" r="0.925"/>
				<circle fill="#B3B3B4" cx="83.693" cy="77.185" r="0.925"/>
				<circle fill="#B3B3B4" cx="86.137" cy="79.629" r="0.925"/>
				<circle fill="#B3B3B4" cx="88.581" cy="77.185" r="0.925"/>
				<circle fill="#B3B3B4" cx="91.025" cy="79.629" r="0.925"/>
				<circle fill="#B3B3B4" cx="93.469" cy="77.185" r="0.925"/>
				<circle fill="#B3B3B4" cx="95.913" cy="79.629" r="0.925"/>
				<circle fill="#B3B3B4" cx="98.357" cy="77.185" r="0.925"/>
				<circle fill="#B3B3B4" cx="100.801" cy="79.629" r="0.925"/>
				<circle fill="#B3B3B4" cx="103.245" cy="77.185" r="0.925"/>
				<circle fill="#B3B3B4" cx="105.689" cy="79.629" r="0.925"/>
				<circle fill="#B3B3B4" cx="34.814" cy="82.073" r="0.925"/>
				<circle fill="#B3B3B4" cx="39.702" cy="82.073" r="0.925"/>
				<circle fill="#B3B3B4" cx="44.59" cy="82.073" r="0.925"/>
				<circle fill="#B3B3B4" cx="49.477" cy="82.073" r="0.925"/>
				<circle fill="#B3B3B4" cx="54.365" cy="82.073" r="0.925"/>
				<circle fill="#B3B3B4" cx="59.253" cy="82.073" r="0.925"/>
				<circle fill="#B3B3B4" cx="64.141" cy="82.073" r="0.925"/>
				<circle fill="#B3B3B4" cx="69.029" cy="82.073" r="0.925"/>
				<circle fill="#B3B3B4" cx="73.917" cy="82.073" r="0.925"/>
				<circle fill="#B3B3B4" cx="78.805" cy="82.073" r="0.925"/>
				<circle fill="#B3B3B4" cx="83.693" cy="82.073" r="0.925"/>
				<circle fill="#B3B3B4" cx="88.581" cy="82.073" r="0.925"/>
				<circle fill="#B3B3B4" cx="93.469" cy="82.073" r="0.925"/>
				<circle fill="#B3B3B4" cx="98.357" cy="82.073" r="0.925"/>
				<circle fill="#B3B3B4" cx="103.245" cy="82.073" r="0.925"/>
			</g>
		</g>
		<path fill="none" stroke="#000000" stroke-width="0.5" stroke-miterlimit="10" d="M56.387,56.868c0,0,26.532-3.006,47.248,0
			c0,0,1.764,0.065,0.392,1.438c-1.372,1.372-8.561,12.743-9.999,15.03c-1.438,2.287-2.745,3.594-7.254,4.117
			c-4.509,0.523-7.842,1.242-10.195,1.242s-14.246-0.131-20.716-0.523c-6.47-0.392-20.52-0.327-22.284-0.523
			c-1.764-0.196-7.123-0.065-2.353-3.856"/>
		<g>
			<defs>
				<path id="SVGID_3_" d="M124.285,72.813c0,0-3.464-13.919-5.555-16.664c0,0,5.555-0.523,11.894,1.961c0,0,3.137,4.77,3.856,6.077
					l1.176,4.379L124.285,72.813z"/>
			</defs>
			<clipPath id="SVGID_4_">
				<use xlink:href="#SVGID_3_"  overflow="visible"/>
			</clipPath>
			<circle clip-path="url(#SVGID_4_)" fill="#B3B3B4" cx="119.134" cy="57.238" r="0.925"/>
			<circle clip-path="url(#SVGID_4_)" fill="#B3B3B4" cx="121.578" cy="54.794" r="0.925"/>
			<circle clip-path="url(#SVGID_4_)" fill="#B3B3B4" cx="124.022" cy="57.238" r="0.925"/>
			<circle clip-path="url(#SVGID_4_)" fill="#B3B3B4" cx="126.466" cy="54.794" r="0.925"/>
			<circle clip-path="url(#SVGID_4_)" fill="#B3B3B4" cx="128.91" cy="57.238" r="0.925"/>
			<circle clip-path="url(#SVGID_4_)" fill="#B3B3B4" cx="131.354" cy="54.794" r="0.925"/>
			<circle clip-path="url(#SVGID_4_)" fill="#B3B3B4" cx="133.798" cy="57.238" r="0.925"/>
			<circle clip-path="url(#SVGID_4_)" fill="#B3B3B4" cx="136.242" cy="54.794" r="0.925"/>
			<circle clip-path="url(#SVGID_4_)" fill="#B3B3B4" cx="138.686" cy="57.238" r="0.925"/>
			<circle clip-path="url(#SVGID_4_)" fill="#B3B3B4" cx="119.134" cy="62.125" r="0.925"/>
			<circle clip-path="url(#SVGID_4_)" fill="#B3B3B4" cx="121.578" cy="59.682" r="0.925"/>
			<circle clip-path="url(#SVGID_4_)" fill="#B3B3B4" cx="124.022" cy="62.125" r="0.925"/>
			<circle clip-path="url(#SVGID_4_)" fill="#B3B3B4" cx="126.466" cy="59.682" r="0.925"/>
			<circle clip-path="url(#SVGID_4_)" fill="#B3B3B4" cx="128.91" cy="62.125" r="0.925"/>
			<circle clip-path="url(#SVGID_4_)" fill="#B3B3B4" cx="131.354" cy="59.682" r="0.925"/>
			<circle clip-path="url(#SVGID_4_)" fill="#B3B3B4" cx="133.798" cy="62.125" r="0.925"/>
			<circle clip-path="url(#SVGID_4_)" fill="#B3B3B4" cx="136.242" cy="59.682" r="0.925"/>
			<circle clip-path="url(#SVGID_4_)" fill="#B3B3B4" cx="138.686" cy="62.125" r="0.925"/>
			<circle clip-path="url(#SVGID_4_)" fill="#B3B3B4" cx="121.578" cy="64.569" r="0.925"/>
			<circle clip-path="url(#SVGID_4_)" fill="#B3B3B4" cx="124.022" cy="67.013" r="0.925"/>
			<circle clip-path="url(#SVGID_4_)" fill="#B3B3B4" cx="126.466" cy="64.569" r="0.925"/>
			<circle clip-path="url(#SVGID_4_)" fill="#B3B3B4" cx="128.91" cy="67.013" r="0.925"/>
			<circle clip-path="url(#SVGID_4_)" fill="#B3B3B4" cx="131.354" cy="64.569" r="0.925"/>
			<circle clip-path="url(#SVGID_4_)" fill="#B3B3B4" cx="133.798" cy="67.013" r="0.925"/>
			<circle clip-path="url(#SVGID_4_)" fill="#B3B3B4" cx="136.242" cy="64.569" r="0.925"/>
			<circle clip-path="url(#SVGID_4_)" fill="#B3B3B4" cx="138.686" cy="67.013" r="0.925"/>
			<circle clip-path="url(#SVGID_4_)" fill="#B3B3B4" cx="121.578" cy="69.45" r="0.925"/>
			<circle clip-path="url(#SVGID_4_)" fill="#B3B3B4" cx="124.022" cy="71.894" r="0.925"/>
			<circle clip-path="url(#SVGID_4_)" fill="#B3B3B4" cx="126.466" cy="69.45" r="0.925"/>
			<circle clip-path="url(#SVGID_4_)" fill="#B3B3B4" cx="128.91" cy="71.894" r="0.925"/>
			<circle clip-path="url(#SVGID_4_)" fill="#B3B3B4" cx="131.354" cy="69.45" r="0.925"/>
			<circle clip-path="url(#SVGID_4_)" fill="#B3B3B4" cx="133.798" cy="71.894" r="0.925"/>
			<circle clip-path="url(#SVGID_4_)" fill="#B3B3B4" cx="136.242" cy="69.45" r="0.925"/>
			<circle clip-path="url(#SVGID_4_)" fill="#B3B3B4" cx="138.686" cy="71.894" r="0.925"/>
			<circle clip-path="url(#SVGID_4_)" fill="#B3B3B4" cx="121.578" cy="74.338" r="0.925"/>
			<circle clip-path="url(#SVGID_4_)" fill="#B3B3B4" cx="126.466" cy="74.338" r="0.925"/>
			<circle clip-path="url(#SVGID_4_)" fill="#B3B3B4" cx="131.354" cy="74.338" r="0.925"/>
			<circle clip-path="url(#SVGID_4_)" fill="#B3B3B4" cx="136.242" cy="74.338" r="0.925"/>
		</g>
		<g>
			<defs>
				<path id="SVGID_5_" d="M121.083,73.728c0,0-3.202-14.246-4.771-17.383c0,0-9.999,0.85-15.096,12.221
					c0,0,1.699,9.345,1.895,11.502l1.046-0.392c0,0-1.111-2.875,1.307-4.574c2.418-1.699,7.254-0.85,10.848,0.588L121.083,73.728z"
					/>
			</defs>
			<clipPath id="SVGID_6_">
				<use xlink:href="#SVGID_5_"  overflow="visible"/>
			</clipPath>
			<circle clip-path="url(#SVGID_6_)" fill="#B3B3B4" cx="104.471" cy="57.238" r="0.925"/>
			<circle clip-path="url(#SVGID_6_)" fill="#B3B3B4" cx="109.358" cy="57.238" r="0.925"/>
			<circle clip-path="url(#SVGID_6_)" fill="#B3B3B4" cx="114.246" cy="57.238" r="0.925"/>
			<circle clip-path="url(#SVGID_6_)" fill="#B3B3B4" cx="102.027" cy="59.682" r="0.925"/>
			<circle clip-path="url(#SVGID_6_)" fill="#B3B3B4" cx="104.471" cy="62.125" r="0.925"/>
			<circle clip-path="url(#SVGID_6_)" fill="#B3B3B4" cx="106.915" cy="59.682" r="0.925"/>
			<circle clip-path="url(#SVGID_6_)" fill="#B3B3B4" cx="109.358" cy="62.125" r="0.925"/>
			<circle clip-path="url(#SVGID_6_)" fill="#B3B3B4" cx="111.802" cy="59.682" r="0.925"/>
			<circle clip-path="url(#SVGID_6_)" fill="#B3B3B4" cx="114.246" cy="62.125" r="0.925"/>
			<circle clip-path="url(#SVGID_6_)" fill="#B3B3B4" cx="116.69" cy="59.682" r="0.925"/>
			<circle clip-path="url(#SVGID_6_)" fill="#B3B3B4" cx="102.027" cy="64.569" r="0.925"/>
			<circle clip-path="url(#SVGID_6_)" fill="#B3B3B4" cx="104.471" cy="67.013" r="0.925"/>
			<circle clip-path="url(#SVGID_6_)" fill="#B3B3B4" cx="106.915" cy="64.569" r="0.925"/>
			<circle clip-path="url(#SVGID_6_)" fill="#B3B3B4" cx="109.358" cy="67.013" r="0.925"/>
			<circle clip-path="url(#SVGID_6_)" fill="#B3B3B4" cx="111.802" cy="64.569" r="0.925"/>
			<circle clip-path="url(#SVGID_6_)" fill="#B3B3B4" cx="114.246" cy="67.013" r="0.925"/>
			<circle clip-path="url(#SVGID_6_)" fill="#B3B3B4" cx="116.69" cy="64.569" r="0.925"/>
			<circle clip-path="url(#SVGID_6_)" fill="#B3B3B4" cx="119.134" cy="67.013" r="0.925"/>
			<circle clip-path="url(#SVGID_6_)" fill="#B3B3B4" cx="102.027" cy="69.45" r="0.925"/>
			<circle clip-path="url(#SVGID_6_)" fill="#B3B3B4" cx="104.471" cy="71.894" r="0.925"/>
			<circle clip-path="url(#SVGID_6_)" fill="#B3B3B4" cx="106.915" cy="69.45" r="0.925"/>
			<circle clip-path="url(#SVGID_6_)" fill="#B3B3B4" cx="109.358" cy="71.894" r="0.925"/>
			<circle clip-path="url(#SVGID_6_)" fill="#B3B3B4" cx="111.802" cy="69.45" r="0.925"/>
			<circle clip-path="url(#SVGID_6_)" fill="#B3B3B4" cx="114.246" cy="71.894" r="0.925"/>
			<circle clip-path="url(#SVGID_6_)" fill="#B3B3B4" cx="116.69" cy="69.45" r="0.925"/>
			<circle clip-path="url(#SVGID_6_)" fill="#B3B3B4" cx="119.134" cy="71.894" r="0.925"/>
			<circle clip-path="url(#SVGID_6_)" fill="#B3B3B4" cx="102.027" cy="74.338" r="0.925"/>
			<circle clip-path="url(#SVGID_6_)" fill="#B3B3B4" cx="104.471" cy="76.782" r="0.925"/>
			<circle clip-path="url(#SVGID_6_)" fill="#B3B3B4" cx="106.915" cy="74.338" r="0.925"/>
			<circle clip-path="url(#SVGID_6_)" fill="#B3B3B4" cx="109.358" cy="76.782" r="0.925"/>
			<circle clip-path="url(#SVGID_6_)" fill="#B3B3B4" cx="111.802" cy="74.338" r="0.925"/>
			<circle clip-path="url(#SVGID_6_)" fill="#B3B3B4" cx="114.246" cy="76.782" r="0.925"/>
			<circle clip-path="url(#SVGID_6_)" fill="#B3B3B4" cx="116.69" cy="74.338" r="0.925"/>
			<circle clip-path="url(#SVGID_6_)" fill="#B3B3B4" cx="119.134" cy="76.782" r="0.925"/>
			<circle clip-path="url(#SVGID_6_)" fill="#B3B3B4" cx="102.027" cy="79.225" r="0.925"/>
			<circle clip-path="url(#SVGID_6_)" fill="#B3B3B4" cx="106.915" cy="79.225" r="0.925"/>
			<circle clip-path="url(#SVGID_6_)" fill="#B3B3B4" cx="111.802" cy="79.225" r="0.925"/>
			<circle clip-path="url(#SVGID_6_)" fill="#B3B3B4" cx="116.69" cy="79.225" r="0.925"/>
		</g>
		<g>
			<defs>
				<path id="SVGID_7_" d="M100.237,70.984c0,0-4.509,7.777-5.489,11.632l6.992-2.157C101.74,80.46,100.694,72.095,100.237,70.984z"
					/>
			</defs>
			<clipPath id="SVGID_8_">
				<use xlink:href="#SVGID_7_"  overflow="visible"/>
			</clipPath>
			<circle clip-path="url(#SVGID_8_)" fill="#B3B3B4" cx="94.695" cy="71.894" r="0.925"/>
			<circle clip-path="url(#SVGID_8_)" fill="#B3B3B4" cx="97.139" cy="69.45" r="0.925"/>
			<circle clip-path="url(#SVGID_8_)" fill="#B3B3B4" cx="99.583" cy="71.894" r="0.925"/>
			<circle clip-path="url(#SVGID_8_)" fill="#B3B3B4" cx="94.695" cy="76.782" r="0.925"/>
			<circle clip-path="url(#SVGID_8_)" fill="#B3B3B4" cx="97.139" cy="74.338" r="0.925"/>
			<circle clip-path="url(#SVGID_8_)" fill="#B3B3B4" cx="99.583" cy="76.782" r="0.925"/>
			<circle clip-path="url(#SVGID_8_)" fill="#B3B3B4" cx="94.695" cy="81.669" r="0.925"/>
			<circle clip-path="url(#SVGID_8_)" fill="#B3B3B4" cx="97.139" cy="79.225" r="0.925"/>
			<circle clip-path="url(#SVGID_8_)" fill="#B3B3B4" cx="99.583" cy="81.669" r="0.925"/>
		</g>
		<path fill="none" stroke="#000000" stroke-width="0.5" stroke-miterlimit="10" d="M121.083,73.728c0,0-3.202-14.246-4.771-17.383
			c0,0-9.999,0.85-15.096,12.221c0,0,1.699,9.345,1.895,11.502l1.046-0.392c0,0-1.111-2.875,1.307-4.574
			c2.418-1.699,7.254-0.85,10.848,0.588L121.083,73.728z"/>
		<path fill="none" stroke="#000000" stroke-width="0.5" stroke-miterlimit="10" d="M124.285,72.813c0,0-3.464-13.919-5.555-16.664
			c0,0,5.555-0.523,11.894,1.961c0,0,3.137,4.77,3.856,6.077l1.176,4.379L124.285,72.813z"/>
		<path fill="none" stroke="#000000" stroke-width="0.5" stroke-miterlimit="10" d="M100.237,70.984c0,0-4.509,7.777-5.489,11.632
			l6.992-2.157C101.74,80.46,100.694,72.095,100.237,70.984z"/>
		<path fill="none" stroke="#000000" stroke-width="0.5" stroke-miterlimit="10" d="M104.158,79.675l0.196,0.588l-1.699,2.81
			c0,0,1.634,4.052,3.333,3.66l2.81-4.901c0,0,0.327-0.719,1.372-0.654c1.046,0.065,5.359,0.458,6.535-2.287
			c0,0,1.242-2.483-0.392-3.202"/>
		<path fill="none" stroke="#000000" stroke-width="0.5" stroke-miterlimit="10" d="M65.906,116.511c0,0,1.917,2.875,3.398,2.963
			c1.481,0.087,4.531-0.087,4.967-0.697c0.436-0.61,2.963-10.717,2.963-10.717s0.523-1.83-1.481-1.22
			c-2.004,0.61-10.02,3.572-11.24,4.27c-1.22,0.697-1.394,1.655-0.784,2.527C64.338,114.507,65.906,116.511,65.906,116.511z"/>
		<path fill="none" stroke="#000000" stroke-width="0.5" stroke-miterlimit="10" d="M117.228,54.908c0,0,3.573,8.452,5.489,18.385
			c0,0,4.095,3.311,4.182,8.278c0.087,4.967,0.174,8.191,0.174,10.107c0,1.917-0.61,13.331-0.61,13.331s0.261,3.05-1.394,4.182"/>
		<path fill="none" stroke="#000000" stroke-width="0.5" stroke-miterlimit="10" d="M85.533,86.21c0,0,6.949-2.636,9.214-3.594"/>
		<path fill="none" stroke="#000000" stroke-width="0.5" stroke-miterlimit="10" d="M117.14,76.778l21.783-8.103
			c0,0,1.917,2.614,2.701,3.572c0.784,0.958,0.784,2.353,0.784,2.353s0.349,5.576,0.261,10.456
			c-0.087,4.879-4.792,15.335-5.925,17.949c-1.133,2.614-4.008,3.834-4.008,3.834s-26.401,8.539-28.144,8.8
			c-1.743,0.261-1.656-2.266-1.656-2.266s-0.087-15.074-0.174-21.783c-0.087-6.709-3.485-10.195-3.485-10.195"/>
		<path fill="none" stroke="#000000" stroke-width="0.5" stroke-miterlimit="10" d="M138.924,68.675c0,0,0.261-0.436,0.174-1.656
			c-0.087-1.22-1.656-6.187-1.656-6.187s-2.527-3.921-12.547-5.576c-10.02-1.656-17.95,0.958-23.439,10.63
			c-5.489,9.672-7.755,16.991-7.755,16.991s2.265,1.307,3.572,0.958c1.307-0.348,6.099-1.917,6.099-1.917"/>
		<path fill="none" stroke="#000000" stroke-width="0.5" stroke-miterlimit="10" d="M91.088,76.473c0,0,3.137,1.961,3.529,3.921"/>
		<path fill="none" stroke="#000000" stroke-width="0.5" stroke-miterlimit="10" d="M51.093,101.11
			c1.046-0.065,9.999-1.503,14.769-2.614c4.771-1.111,10.26-3.464,10.783-4.248c0.523-0.784,2.091-2.941,1.372-3.856
			c-0.719-0.915-5.882-1.634-9.999-0.98c-4.117,0.654-12.22,4.967-16.926,9.606c0,0-1.634,1.372-1.503,1.765
			C49.721,101.175,51.093,101.11,51.093,101.11z"/>
		<path fill="none" stroke="#000000" stroke-width="0.5" stroke-miterlimit="10" d="M5.784,114.333c0,0,20.215,3.66,44.786,3.05
			c0,0-1.394-4.444-7.406-4.967c-6.012-0.523-33.895-1.917-33.895-1.917S6.568,109.627,5.784,114.333z"/>
		<path fill="none" stroke="#000000" stroke-width="0.5" stroke-miterlimit="10" d="M4.5,117.833H3.518c0,0,0.697,3.565,5.141,4.523
			c4.444,0.958,28.754,3.394,36.509,2.436c7.755-0.958,8.539-3.444,8.539-3.444l-0.685-0.56"/>
		<path fill="none" stroke="#000000" stroke-width="0.5" stroke-miterlimit="10" d="M74.271,118.776l4.618,1.656
			c0,0-10.456,2.091-11.763,0.871c-1.307-1.22-6.361-8.278-6.361-8.278s-0.436-1.83,0.523-2.353
			c0.958-0.523,14.813-7.058,18.211-7.232c0,0,1.046-0.087-0.174,2.091C78.105,107.711,74.271,118.776,74.271,118.776z"/>
		
			<ellipse transform="matrix(0.999 0.045 -0.045 0.999 5.4803 -4.0278)" fill="none" stroke="#000000" stroke-width="0.5" stroke-miterlimit="10" cx="92.179" cy="119.68" rx="6.007" ry="12.539"/>
		
			<ellipse transform="matrix(0.999 0.045 -0.045 0.999 5.4765 -4.0159)" fill="none" stroke="#000000" stroke-width="0.5" stroke-miterlimit="10" cx="91.934" cy="119.63" rx="7.039" ry="15.413"/>
		
			<ellipse transform="matrix(0.999 0.045 -0.045 0.999 5.473 -4.0144)" fill="none" stroke="#000000" stroke-width="0.5" stroke-miterlimit="10" cx="91.918" cy="119.579" rx="0.909" ry="1.897"/>
		
			<ellipse transform="matrix(0.999 0.045 -0.045 0.999 4.8565 -6.4311)" fill="none" stroke="#000000" stroke-width="0.5" stroke-miterlimit="10" cx="145.242" cy="104.632" rx="3.933" ry="9.982"/>
		<path fill="none" stroke="#000000" stroke-width="0.5" stroke-miterlimit="10" d="M145.222,117.32
			c-0.198,0.072-0.399,0.105-0.602,0.096c-2.347-0.106-3.997-5.809-3.684-12.738c0.312-6.929,2.468-12.461,4.815-12.355
			c0.567,0.026,1.093,0.377,1.56,0.994"/>
		
			<ellipse transform="matrix(0.999 0.045 -0.045 0.999 4.8463 -6.4154)" fill="none" stroke="#000000" stroke-width="0.5" stroke-miterlimit="10" cx="145.072" cy="104.552" rx="0.595" ry="1.51"/>
		<path fill="none" stroke="#000000" stroke-width="0.5" stroke-miterlimit="10" d="M88.212,102.134"/>
		<path fill="none" stroke="#000000" stroke-width="0.5" stroke-miterlimit="10" d="M88.212,102.134c0,0,12.286-2.614,10.979,16.991
			"/>
		<path fill="none" stroke="#000000" stroke-width="0.5" stroke-miterlimit="10" d="M147.381,93.18
			c0.876,1.095,1.642,2.734,1.999,5.185"/>
		<path fill="none" stroke="#000000" stroke-width="0.5" stroke-miterlimit="10" d="M143.171,90.981c0,0,2.353-0.121,4.21,2.2"/>
		<path fill="none" stroke="#000000" stroke-width="0.5" stroke-miterlimit="10" d="M8.06,124.963c0,0,7.221,2.963,18.984,3.485"/>
		<path fill="none" stroke="#000000" stroke-width="0.5" stroke-miterlimit="10" d="M2.865,101.045c0,0,0.653,7.711,12.286,8.495
			c0,0,24.702,1.307,28.101,1.699c3.398,0.392,5.751,1.307,7.058,3.268l0.915-1.176c0,0,6.666-0.523,9.28-0.784"/>
	</g>
	<path fill="none" stroke="#000000" stroke-width="0.5" stroke-miterlimit="10" d="M99.281,119.766
		c1.588-1.412,4.5-20.561-5.559-20.561c-10.06,0-14.031,27.709-14.56,30.18c-0.529,2.471-2.872,2.096-2.872,2.096"/>
</g>
</svg>
