<svg xmlns="http://www.w3.org/2000/svg" viewBox="0 -256 750.67 647.49"><g><path d="M322.468 236.145q0 15.205-10.758 25.963-10.76 10.76-25.964 10.76-15.204 0-25.963-10.76-10.758-10.758-10.758-25.963 0-15.205 10.758-25.963 10.76-10.758 25.963-10.758 15.205 0 25.964 10.758 10.758 10.758 10.758 25.963zm257.05 0q0 15.205-10.76 25.963-10.758 10.76-25.962 10.76-15.205 0-25.964-10.76-10.758-10.758-10.758-25.963 0-15.205 10.758-25.963 10.76-10.758 25.964-10.758 15.204 0 25.963 10.758 10.757 10.758 10.757 25.963zm36.72-312.13V70.898q0 6.885-4.59 12.192t-11.762 6.168l-299.508 35q.286 2.008 1.29 6.168 1.005 4.16 1.722 7.603.717 3.443.717 6.312 0 4.59-6.885 18.36h263.934q7.46 0 12.91 5.452 5.45 5.45 5.45 12.91 0 7.458-5.45 12.91-5.45 5.45-12.91 5.45h-293.77q-7.46 0-12.91-5.45-5.45-5.452-5.45-12.91 0-4.017 3.155-11.333 3.157-7.314 8.464-17.068 5.307-9.754 5.88-10.902L215.747-94.346h-58.524q-7.46 0-12.91-5.45-5.45-5.452-5.45-12.91 0-7.46 5.45-12.91 5.45-5.452 12.91-5.452h73.442q4.59 0 8.177 1.865 3.587 1.865 5.738 4.447 2.152 2.582 3.73 7.028 1.578 4.447 2.152 7.603.573 3.156 1.577 8.463 1.005 5.307 1.29 7.316h344.55q7.46 0 12.91 5.45t5.45 12.91z" fill="currentColor"/></g></svg>